M48
; DRILL file {KiCad (5.1.5)-3} date 2020-05-05 4:23:00 PM
; FORMAT={-:-/ absolute / inch / decimal}
; #@! TF.CreationDate,2020-05-05T16:23:00-04:00
; #@! TF.GenerationSoftware,Kicad,Pcbnew,(5.1.5)-3
; #@! TF.FileFunction,Plated,1,2,PTH
FMAT,2
INCH
T1C0.0118
T2C0.0276
T3C0.0315
T4C0.0354
T5C0.0500
%
G90
G05
T1
X6.0125Y-4.865
X6.07Y-4.925
X6.1325Y-4.9725
X6.1525Y-5.02
X6.1525Y-5.055
X6.155Y-5.0925
X6.2368Y-3.0384
X6.2805Y-2.9744
X6.4025Y-5.7425
X6.495Y-5.1875
X6.53Y-5.12
X6.5725Y-5.1925
X6.61Y-5.1225
X6.65Y-5.1925
X6.69Y-5.736
X6.6925Y-5.1225
X6.7375Y-5.19
X6.785Y-5.125
X6.8475Y-5.78
X7.8012Y-2.5304
X6.4852Y-2.4083
X6.4852Y-2.4083
X5.6637Y-2.1764
X5.6637Y-2.1764
X6.8734Y-2.5188
X6.8734Y-2.5188
X5.6637Y-2.4827
X5.6637Y-2.4827
X5.7403Y-2.5593
X5.7403Y-2.5593
X5.6637Y-2.3295
X5.6637Y-2.3295
X6.1604Y-2.1917
X6.1604Y-2.1917
X5.9438Y-2.5165
X5.9438Y-2.5165
X6.0521Y-2.4083
X6.0521Y-2.4083
X5.8356Y-2.5165
X5.8356Y-2.5165
X5.9438Y-2.3
X5.9438Y-2.3
X6.3769Y-2.1917
X6.3769Y-2.1917
X5.7403Y-2.3295
X5.7403Y-2.3295
X6.5934Y-2.1917
X6.5934Y-2.1917
X6.3769Y-2.4083
X6.3769Y-2.4083
X6.1604Y-2.5165
X6.1604Y-2.5165
X6.2686Y-2.5165
X6.2686Y-2.5165
X6.7202Y-2.5188
X6.7202Y-2.5188
X6.0521Y-2.3
X6.0521Y-2.3
X5.7403Y-2.4827
X5.7403Y-2.4827
X6.4852Y-2.1917
X6.4852Y-2.1917
X6.0521Y-2.5165
X6.0521Y-2.5165
X6.1604Y-2.4083
X6.1604Y-2.4083
X6.3769Y-2.5165
X6.3769Y-2.5165
X6.4852Y-2.5165
X6.4852Y-2.5165
X6.3769Y-2.3
X6.3769Y-2.3
X6.7202Y-2.2125
X6.7202Y-2.2125
X6.2686Y-2.3
X6.2686Y-2.3
X5.8356Y-2.3
X5.8356Y-2.3
X5.6637Y-2.5593
X5.6637Y-2.5593
X6.2686Y-2.4083
X6.2686Y-2.4083
X5.9438Y-2.4083
X5.9438Y-2.4083
X6.8734Y-2.3656
X6.8734Y-2.3656
X6.8734Y-2.2125
X6.8734Y-2.2125
X5.6637Y-2.253
X5.6637Y-2.253
X6.2686Y-2.1917
X6.2686Y-2.1917
X5.8356Y-2.1917
X5.8356Y-2.1917
X6.5934Y-2.4083
X6.5934Y-2.4083
X6.5934Y-2.5165
X6.5934Y-2.5165
X6.7202Y-2.3656
X6.7202Y-2.3656
X5.7403Y-2.1764
X5.7403Y-2.1764
X5.6637Y-2.4061
X5.6637Y-2.4061
X6.1604Y-2.3
X6.1604Y-2.3
X5.9438Y-2.1917
X5.9438Y-2.1917
X6.4852Y-2.3
X6.4852Y-2.3
X5.8356Y-2.4083
X5.8356Y-2.4083
X5.7403Y-2.4061
X5.7403Y-2.4061
X5.7403Y-2.253
X5.7403Y-2.253
X6.0521Y-2.1917
X6.0521Y-2.1917
X6.5934Y-2.3
X6.5934Y-2.3
T2
X4.6225Y-4.8575
X4.9225Y-4.8575
T3
X4.5625Y-5.16
X4.5625Y-5.76
X4.6625Y-5.16
X4.6625Y-5.76
X4.7625Y-5.16
X4.7625Y-5.76
X4.8625Y-5.16
X4.8625Y-5.76
X4.9625Y-5.16
X4.9625Y-5.76
X5.0625Y-5.16
X5.0625Y-5.76
X5.1625Y-5.16
X5.1625Y-5.76
X5.2625Y-5.16
X5.2625Y-5.76
X5.3625Y-5.16
X5.3625Y-5.76
X5.4625Y-5.16
X5.4625Y-5.76
X5.5625Y-5.16
X5.5625Y-5.76
X5.6625Y-5.16
X5.6625Y-5.76
X5.7625Y-5.16
X5.7625Y-5.76
X5.8625Y-5.16
X5.8625Y-5.76
X5.9625Y-5.16
X5.9625Y-5.76
X4.7314Y-4.4025
X4.7806Y-4.2025
X4.8298Y-4.4025
X4.8791Y-4.2041
X4.9283Y-4.4025
X4.9775Y-4.2041
X5.0267Y-4.4025
X5.0759Y-4.2041
X5.1251Y-4.4025
X5.1743Y-4.2041
X5.2235Y-4.4025
X5.2728Y-4.2041
X5.322Y-4.4009
X5.3712Y-4.2041
X5.4204Y-4.4009
X5.4696Y-4.2041
X5.5188Y-4.4009
X5.568Y-4.2025
X5.6172Y-4.4009
X5.6665Y-4.2025
X5.7157Y-4.4009
X5.7649Y-4.2025
X5.8141Y-4.4009
X5.8633Y-4.2025
X5.9125Y-4.4009
X5.9617Y-4.2025
X6.0109Y-4.4009
X6.0602Y-4.2025
X6.1094Y-4.4009
X6.1586Y-4.2025
X4.7314Y-3.4425
X4.7806Y-3.6425
X4.8298Y-3.4425
X4.8791Y-3.6409
X4.9283Y-3.4425
X4.9775Y-3.6409
X5.0267Y-3.4425
X5.0759Y-3.6409
X5.1251Y-3.4425
X5.1743Y-3.6409
X5.2235Y-3.4425
X5.2728Y-3.6409
X5.322Y-3.4441
X5.3712Y-3.6409
X5.4204Y-3.4441
X5.4696Y-3.6409
X5.5188Y-3.4441
X5.568Y-3.6425
X5.6172Y-3.4441
X5.6665Y-3.6425
X5.7157Y-3.4441
X5.7649Y-3.6425
X5.8141Y-3.4441
X5.8633Y-3.6425
X5.9125Y-3.4441
X5.9617Y-3.6425
X6.0109Y-3.4441
X6.0602Y-3.6425
X6.1094Y-3.4441
X6.1586Y-3.6425
X6.5664Y-4.4075
X6.6156Y-4.2075
X6.6648Y-4.4075
X6.7141Y-4.2091
X6.7633Y-4.4075
X6.8125Y-4.2091
X6.8617Y-4.4075
X6.9109Y-4.2091
X6.9601Y-4.4075
X7.0093Y-4.2091
X7.0585Y-4.4075
X7.1078Y-4.2091
X7.157Y-4.4059
X7.2062Y-4.2091
X7.2554Y-4.4059
X7.3046Y-4.2091
X7.3538Y-4.4059
X7.403Y-4.2075
X7.4522Y-4.4059
X7.5015Y-4.2075
X7.5507Y-4.4059
X7.5999Y-4.2075
X7.6491Y-4.4059
X7.6983Y-4.2075
X7.7475Y-4.4059
X7.7967Y-4.2075
X7.8459Y-4.4059
X7.8952Y-4.2075
X7.9444Y-4.4059
X7.9936Y-4.2075
X6.5664Y-3.4425
X6.6156Y-3.6425
X6.6648Y-3.4425
X6.7141Y-3.6409
X6.7633Y-3.4425
X6.8125Y-3.6409
X6.8617Y-3.4425
X6.9109Y-3.6409
X6.9601Y-3.4425
X7.0093Y-3.6409
X7.0585Y-3.4425
X7.1078Y-3.6409
X7.157Y-3.4441
X7.2062Y-3.6409
X7.2554Y-3.4441
X7.3046Y-3.6409
X7.3538Y-3.4441
X7.403Y-3.6425
X7.4522Y-3.4441
X7.5015Y-3.6425
X7.5507Y-3.4441
X7.5999Y-3.6425
X7.6491Y-3.4441
X7.6983Y-3.6425
X7.7475Y-3.4441
X7.7967Y-3.6425
X7.8459Y-3.4441
X7.8952Y-3.6425
X7.9444Y-3.4441
X7.9936Y-3.6425
T4
X5.1125Y-4.8525
X5.2125Y-4.8525
T5
X7.5427Y-5.7087
X7.7427Y-5.7087
T0
M30
