M48
; DRILL file {KiCad (5.1.5)-3} date 2020-07-15 5:56:58 PM
; FORMAT={-:-/ absolute / inch / decimal}
; #@! TF.CreationDate,2020-07-15T17:56:58-04:00
; #@! TF.GenerationSoftware,Kicad,Pcbnew,(5.1.5)-3
; #@! TF.FileFunction,Plated,1,4,PTH
FMAT,2
INCH
T1C0.0118
T2C0.0315
T3C0.0394
T4C0.0500
%
G90
G05
T1
X5.0922Y-4.964
X5.9801Y-4.9878
X6.2035Y-4.8762
X6.212Y-4.8046
X6.2169Y-5.1667
X6.217Y-4.6934
X6.2174Y-4.7404
X6.2174Y-5.12
X6.2191Y-5.0744
X6.2204Y-4.981
X6.2207Y-5.0287
X6.2234Y-4.6462
X6.235Y-5.7838
X6.6292Y-5.299
X6.6522Y-5.7861
X6.662Y-5.3346
X6.6954Y-5.2093
X6.7176Y-4.556
X6.7294Y-5.3308
X6.7459Y-5.7816
X6.7486Y-4.5998
X6.7628Y-5.213
X6.7963Y-5.3294
X6.8328Y-5.2143
X6.8394Y-5.5845
X6.8436Y-5.8472
X7.1997Y-5.6527
X7.2506Y-5.4562
X7.255Y-5.5314
X7.2916Y-5.491
X7.294Y-5.4249
X7.4684Y-5.17
X7.5498Y-5.3004
X7.566Y-5.182
X8.0495Y-4.952
X8.1719Y-4.9205
X6.431Y-2.1817
X6.431Y-2.1817
X6.5393Y-2.3983
X6.5393Y-2.3983
X6.1062Y-2.29
X6.1062Y-2.29
X6.1062Y-2.6148
X6.1062Y-2.6148
X6.3228Y-2.6148
X6.3228Y-2.6148
X6.2145Y-2.6148
X6.2145Y-2.6148
X6.7741Y-2.3556
X6.7741Y-2.3556
X5.9344Y-2.4728
X5.9344Y-2.4728
X6.5393Y-2.7231
X6.5393Y-2.7231
X6.2145Y-2.29
X6.2145Y-2.29
X6.6476Y-2.3983
X6.6476Y-2.3983
X6.3228Y-2.1817
X6.3228Y-2.1817
X6.2145Y-2.5065
X6.2145Y-2.5065
X6.3228Y-2.7231
X6.3228Y-2.7231
X6.011Y-2.5494
X6.011Y-2.5494
X6.011Y-2.1665
X6.011Y-2.1665
X6.9272Y-2.2025
X6.9272Y-2.2025
X6.6476Y-2.7231
X6.6476Y-2.7231
X6.1062Y-2.3983
X6.1062Y-2.3983
X6.431Y-2.29
X6.431Y-2.29
X6.5393Y-2.5065
X6.5393Y-2.5065
X6.431Y-2.5065
X6.431Y-2.5065
X6.431Y-2.6148
X6.431Y-2.6148
X5.8579Y-2.3962
X5.8579Y-2.3962
X6.7741Y-2.2025
X6.7741Y-2.2025
X5.9344Y-2.5494
X5.9344Y-2.5494
X5.8579Y-2.5494
X5.8579Y-2.5494
X6.3228Y-2.29
X6.3228Y-2.29
X6.6476Y-2.1817
X6.6476Y-2.1817
X6.5393Y-2.6148
X6.5393Y-2.6148
X6.2145Y-2.7231
X6.2145Y-2.7231
X6.9272Y-2.3556
X6.9272Y-2.3556
X5.8579Y-2.4728
X5.8579Y-2.4728
X6.011Y-2.3196
X6.011Y-2.3196
X5.8579Y-2.2431
X5.8579Y-2.2431
X6.2145Y-2.1817
X6.2145Y-2.1817
X6.6476Y-2.29
X6.6476Y-2.29
X6.011Y-2.3962
X6.011Y-2.3962
X6.6476Y-2.6148
X6.6476Y-2.6148
X6.3228Y-2.3983
X6.3228Y-2.3983
X6.011Y-2.2431
X6.011Y-2.2431
X6.9272Y-2.5088
X6.9272Y-2.5088
X5.9344Y-2.2431
X5.9344Y-2.2431
X5.8579Y-2.3196
X5.8579Y-2.3196
X5.9344Y-2.3962
X5.9344Y-2.3962
X6.1062Y-2.1817
X6.1062Y-2.1817
X6.5393Y-2.1817
X6.5393Y-2.1817
X6.1062Y-2.5065
X6.1062Y-2.5065
X6.3228Y-2.5065
X6.3228Y-2.5065
X6.431Y-2.3983
X6.431Y-2.3983
X6.011Y-2.4728
X6.011Y-2.4728
X5.8579Y-2.1665
X5.8579Y-2.1665
X6.5393Y-2.29
X6.5393Y-2.29
X6.2145Y-2.3983
X6.2145Y-2.3983
X6.1062Y-2.7231
X6.1062Y-2.7231
X6.431Y-2.7231
X6.431Y-2.7231
X6.6476Y-2.5065
X6.6476Y-2.5065
X6.7741Y-2.5088
X6.7741Y-2.5088
X5.9344Y-2.1665
X5.9344Y-2.1665
X5.9344Y-2.3196
X5.9344Y-2.3196
T2
X6.6475Y-4.4075
X6.6968Y-4.2075
X6.746Y-4.4075
X6.7952Y-4.2091
X6.8444Y-4.4075
X6.8936Y-4.2091
X6.9428Y-4.4075
X6.992Y-4.2091
X7.0412Y-4.4075
X7.0905Y-4.2091
X7.1397Y-4.4075
X7.1889Y-4.2091
X7.2381Y-4.4059
X7.2873Y-4.2091
X7.3365Y-4.4059
X7.3857Y-4.2091
X7.4349Y-4.4059
X7.4842Y-4.2075
X7.5334Y-4.4059
X7.5826Y-4.2075
X7.6318Y-4.4059
X7.681Y-4.2075
X7.7302Y-4.4059
X7.7794Y-4.2075
X7.8286Y-4.4059
X7.8779Y-4.2075
X7.9271Y-4.4059
X7.9763Y-4.2075
X8.0255Y-4.4059
X8.0747Y-4.2075
X4.6763Y-3.5445
X4.7255Y-3.7445
X4.7747Y-3.5445
X4.8239Y-3.743
X4.8731Y-3.5445
X4.9223Y-3.743
X4.9716Y-3.5445
X5.0208Y-3.743
X5.07Y-3.5445
X5.1192Y-3.743
X5.1684Y-3.5445
X5.2176Y-3.743
X5.2668Y-3.5461
X5.316Y-3.743
X5.3653Y-3.5461
X5.4145Y-3.743
X5.4637Y-3.5461
X5.5129Y-3.7445
X5.5621Y-3.5461
X5.6113Y-3.7445
X5.6605Y-3.5461
X5.7097Y-3.7445
X5.759Y-3.5461
X5.8082Y-3.7445
X5.8574Y-3.5461
X5.9066Y-3.7445
X5.9558Y-3.5461
X6.005Y-3.7445
X6.0542Y-3.5461
X6.1034Y-3.7445
X4.5625Y-5.16
X4.5625Y-5.76
X4.6625Y-5.16
X4.6625Y-5.76
X4.7625Y-5.16
X4.7625Y-5.76
X4.8625Y-5.16
X4.8625Y-5.76
X4.9625Y-5.16
X4.9625Y-5.76
X5.0625Y-5.16
X5.0625Y-5.76
X5.1625Y-5.16
X5.1625Y-5.76
X5.2625Y-5.16
X5.2625Y-5.76
X5.3625Y-5.16
X5.3625Y-5.76
X5.4625Y-5.16
X5.4625Y-5.76
X5.5625Y-5.16
X5.5625Y-5.76
X5.6625Y-5.16
X5.6625Y-5.76
X5.7625Y-5.16
X5.7625Y-5.76
X5.8625Y-5.16
X5.8625Y-5.76
X5.9625Y-5.16
X5.9625Y-5.76
X6.6447Y-3.5495
X6.694Y-3.7495
X6.7432Y-3.5495
X6.7924Y-3.748
X6.8416Y-3.5495
X6.8908Y-3.748
X6.94Y-3.5495
X6.9892Y-3.748
X7.0384Y-3.5495
X7.0877Y-3.748
X7.1369Y-3.5495
X7.1861Y-3.748
X7.2353Y-3.5511
X7.2845Y-3.748
X7.3337Y-3.5511
X7.3829Y-3.748
X7.4321Y-3.5511
X7.4814Y-3.7495
X7.5306Y-3.5511
X7.5798Y-3.7495
X7.629Y-3.5511
X7.6782Y-3.7495
X7.7274Y-3.5511
X7.7766Y-3.7495
X7.8258Y-3.5511
X7.8751Y-3.7495
X7.9243Y-3.5511
X7.9735Y-3.7495
X8.0227Y-3.5511
X8.0719Y-3.7495
X4.6791Y-4.4025
X4.7283Y-4.2025
X4.7775Y-4.4025
X4.8267Y-4.2041
X4.8759Y-4.4025
X4.9251Y-4.2041
X4.9744Y-4.4025
X5.0236Y-4.2041
X5.0728Y-4.4025
X5.122Y-4.2041
X5.1712Y-4.4025
X5.2204Y-4.2041
X5.2696Y-4.4009
X5.3188Y-4.2041
X5.3681Y-4.4009
X5.4173Y-4.2041
X5.4665Y-4.4009
X5.5157Y-4.2025
X5.5649Y-4.4009
X5.6141Y-4.2025
X5.6633Y-4.4009
X5.7125Y-4.2025
X5.7618Y-4.4009
X5.811Y-4.2025
X5.8602Y-4.4009
X5.9094Y-4.2025
X5.9586Y-4.4009
X6.0078Y-4.2025
X6.057Y-4.4009
X6.1062Y-4.2025
T3
X7.7514Y-5.5041
X7.8514Y-5.5041
T4
X8.1112Y-5.1346
X8.1112Y-5.3346
T0
M30
