G04 #@! TF.GenerationSoftware,KiCad,Pcbnew,(5.1.5)-3*
G04 #@! TF.CreationDate,2020-07-15T17:56:55-04:00*
G04 #@! TF.ProjectId,dmf_relay_board,646d665f-7265-46c6-9179-5f626f617264,rev?*
G04 #@! TF.SameCoordinates,Original*
G04 #@! TF.FileFunction,Legend,Bot*
G04 #@! TF.FilePolarity,Positive*
%FSLAX46Y46*%
G04 Gerber Fmt 4.6, Leading zero omitted, Abs format (unit mm)*
G04 Created by KiCad (PCBNEW (5.1.5)-3) date 2020-07-15 17:56:55*
%MOMM*%
%LPD*%
G04 APERTURE LIST*
%ADD10C,0.120000*%
%ADD11C,0.150000*%
G04 APERTURE END LIST*
D10*
X116074380Y-98159540D02*
X116074380Y-97471540D01*
X157730380Y-98159540D02*
X116074380Y-98159540D01*
X157730380Y-97471540D02*
X157730380Y-98159540D01*
D11*
X157222380Y-96127540D02*
G75*
G03X157222380Y-96127540I-508000J0D01*
G01*
X160270380Y-96635540D02*
G75*
G03X160270380Y-96635540I-508000J0D01*
G01*
D10*
X158677380Y-97471540D02*
X115127380Y-97471540D01*
X115127380Y-87671540D02*
X158677380Y-87671540D01*
X115127380Y-87671540D02*
X115127380Y-97471540D01*
X158677380Y-87671540D02*
X158677380Y-97471540D01*
X166073380Y-98286540D02*
X166073380Y-97598540D01*
X207729380Y-98286540D02*
X166073380Y-98286540D01*
X207729380Y-97598540D02*
X207729380Y-98286540D01*
D11*
X207221380Y-96254540D02*
G75*
G03X207221380Y-96254540I-508000J0D01*
G01*
X210269380Y-96762540D02*
G75*
G03X210269380Y-96762540I-508000J0D01*
G01*
D10*
X208676380Y-97598540D02*
X165126380Y-97598540D01*
X165126380Y-87798540D02*
X208676380Y-87798540D01*
X165126380Y-87798540D02*
X165126380Y-97598540D01*
X208676380Y-87798540D02*
X208676380Y-97598540D01*
D11*
X137235713Y-84911920D02*
X137235713Y-85626206D01*
X137283332Y-85769063D01*
X137378570Y-85864301D01*
X137521427Y-85911920D01*
X137616665Y-85911920D01*
X136283332Y-84911920D02*
X136759522Y-84911920D01*
X136807141Y-85388111D01*
X136759522Y-85340492D01*
X136664284Y-85292873D01*
X136426189Y-85292873D01*
X136330951Y-85340492D01*
X136283332Y-85388111D01*
X136235713Y-85483349D01*
X136235713Y-85721444D01*
X136283332Y-85816682D01*
X136330951Y-85864301D01*
X136426189Y-85911920D01*
X136664284Y-85911920D01*
X136759522Y-85864301D01*
X136807141Y-85816682D01*
X187234713Y-85038920D02*
X187234713Y-85753206D01*
X187282332Y-85896063D01*
X187377570Y-85991301D01*
X187520427Y-86038920D01*
X187615665Y-86038920D01*
X186329951Y-85372254D02*
X186329951Y-86038920D01*
X186568046Y-84991301D02*
X186806141Y-85705587D01*
X186187094Y-85705587D01*
M02*
