G04 #@! TF.GenerationSoftware,KiCad,Pcbnew,(5.1.5)-3*
G04 #@! TF.CreationDate,2020-11-11T17:48:52-05:00*
G04 #@! TF.ProjectId,sensor_dmf_board,73656e73-6f72-45f6-946d-665f626f6172,rev?*
G04 #@! TF.SameCoordinates,Original*
G04 #@! TF.FileFunction,Copper,L4,Bot*
G04 #@! TF.FilePolarity,Positive*
%FSLAX46Y46*%
G04 Gerber Fmt 4.6, Leading zero omitted, Abs format (unit mm)*
G04 Created by KiCad (PCBNEW (5.1.5)-3) date 2020-11-11 17:48:52*
%MOMM*%
%LPD*%
G04 APERTURE LIST*
%ADD10O,1.600000X1.600000*%
%ADD11C,1.600000*%
%ADD12R,1.500000X3.000000*%
%ADD13R,0.800000X3.000000*%
%ADD14R,2.000000X1.400000*%
%ADD15R,1.200000X1.400000*%
%ADD16C,2.600000*%
%ADD17R,2.600000X2.600000*%
%ADD18R,1.524000X3.762000*%
%ADD19C,1.524000*%
%ADD20R,1.524000X1.524000*%
%ADD21R,1.600000X1.600000*%
%ADD22C,0.800000*%
%ADD23C,0.250000*%
%ADD24C,0.200000*%
%ADD25C,0.254000*%
G04 APERTURE END LIST*
D10*
X156580840Y-104894380D03*
D11*
X143880840Y-104894380D03*
D10*
X164807900Y-109357160D03*
D11*
X152107900Y-109357160D03*
D12*
X157805000Y-145550000D03*
D13*
X156005000Y-145550000D03*
D14*
X148789120Y-148299820D03*
D15*
X148845000Y-142245000D03*
D16*
X132938520Y-126880620D03*
D17*
X138018520Y-126880620D03*
D16*
X181493160Y-69840000D03*
X181493160Y-74920000D03*
D17*
X181493160Y-80000000D03*
D18*
X170693080Y-85102700D03*
X170693080Y-78498700D03*
D16*
X164401500Y-126880620D03*
X169481500Y-126880620D03*
D17*
X174561500Y-126880620D03*
D16*
X146130010Y-126880620D03*
X151210010Y-126880620D03*
D17*
X156290010Y-126880620D03*
D16*
X155036520Y-95313500D03*
D17*
X149956520Y-95313500D03*
D10*
X114571780Y-68498720D03*
D11*
X114571780Y-78658720D03*
D19*
X119573040Y-79054960D03*
X122113040Y-81594960D03*
D20*
X124653040Y-79054960D03*
D11*
X139087860Y-85829020D03*
D21*
X139087860Y-82329020D03*
D22*
X153423620Y-134048500D03*
X133771640Y-136631680D03*
X139438380Y-137843260D03*
X135077200Y-145760440D03*
X139578080Y-141526260D03*
X161785300Y-137261600D03*
X161297620Y-143123920D03*
X167566340Y-138694160D03*
X170025060Y-134226300D03*
X161518600Y-146593560D03*
X174871151Y-140201016D03*
X148493480Y-137439400D03*
X167076120Y-140467080D03*
X173690280Y-139491720D03*
X156333520Y-112083520D03*
X143951960Y-97424240D03*
X140967460Y-97449640D03*
X140190220Y-103405940D03*
X140190220Y-107304840D03*
X140088620Y-110637320D03*
X163982400Y-103713280D03*
X159931100Y-103713280D03*
X164063680Y-112892840D03*
X164063680Y-116989860D03*
X140131800Y-100281740D03*
X142788640Y-100230940D03*
X145420080Y-100256340D03*
X160042860Y-97424240D03*
X163433760Y-97373440D03*
X159893000Y-100383340D03*
X162979100Y-100332540D03*
X165788340Y-100256340D03*
X159842200Y-106380280D03*
X164015420Y-106507280D03*
X167457120Y-106354880D03*
X167647620Y-103581200D03*
X137337800Y-103395780D03*
X137337800Y-107378500D03*
X137213340Y-110802420D03*
X137213340Y-113540540D03*
X137149840Y-116964460D03*
X167383460Y-109573060D03*
X167330120Y-112996980D03*
X143309340Y-110690660D03*
X140180060Y-113586260D03*
X143390620Y-113629440D03*
X140202920Y-117073680D03*
X143537940Y-117094000D03*
X167330120Y-117180360D03*
X148727160Y-104983280D03*
X157276800Y-109413040D03*
X148165820Y-101765100D03*
X152458420Y-101765100D03*
X156720540Y-101765100D03*
X155031440Y-98595180D03*
X146638010Y-109518450D03*
X145669000Y-146258280D03*
X162674300Y-148539200D03*
X134744460Y-70904100D03*
X167853360Y-69522340D03*
X149941280Y-98783140D03*
X150573740Y-142245080D03*
X145181226Y-141646930D03*
X171597320Y-145580100D03*
X169887900Y-143830040D03*
D23*
X143810000Y-104965220D02*
X143880840Y-104894380D01*
D24*
X147637580Y-146258280D02*
X145669000Y-146258280D01*
X148789120Y-148299820D02*
X148789120Y-147409820D01*
X148789120Y-147409820D02*
X147637580Y-146258280D01*
X157039198Y-148539200D02*
X162674300Y-148539200D01*
X156000000Y-147500002D02*
X157039198Y-148539200D01*
X156005000Y-147495002D02*
X156005000Y-145550000D01*
X156000000Y-147500002D02*
X156005000Y-147495002D01*
D23*
X134744460Y-70904100D02*
X160822640Y-70904100D01*
X160822640Y-70904100D02*
X160825180Y-70901560D01*
X160822640Y-70904100D02*
X166471600Y-70904100D01*
X166471600Y-70904100D02*
X167853360Y-69522340D01*
D24*
X148801740Y-142288260D02*
X148840000Y-142250000D01*
X150568820Y-142250000D02*
X150573740Y-142245080D01*
X146415600Y-142250000D02*
X146331996Y-142250000D01*
X145784296Y-142250000D02*
X145181226Y-141646930D01*
X146301620Y-142250000D02*
X145784296Y-142250000D01*
X146415600Y-142250000D02*
X146301620Y-142250000D01*
D23*
X143007080Y-133715760D02*
X143007080Y-141226540D01*
X144863820Y-132796280D02*
X143926560Y-132796280D01*
X146491960Y-142031720D02*
X146491960Y-141170660D01*
X145790920Y-142732760D02*
X146491960Y-142031720D01*
X145874740Y-140553440D02*
X145874740Y-133807200D01*
X143926560Y-132796280D02*
X143007080Y-133715760D01*
X146491960Y-141170660D02*
X145874740Y-140553440D01*
X145874740Y-133807200D02*
X144863820Y-132796280D01*
X145790920Y-142732760D02*
X144528540Y-142732760D01*
X143022320Y-141226540D02*
X143007080Y-141226540D01*
X144528540Y-142732760D02*
X143022320Y-141226540D01*
X150573660Y-142245000D02*
X150573740Y-142245080D01*
X148845000Y-142245000D02*
X150573660Y-142245000D01*
X146420600Y-142245000D02*
X146415600Y-142250000D01*
X148845000Y-142245000D02*
X146420600Y-142245000D01*
X168084920Y-145600000D02*
X171577420Y-145600000D01*
X171577420Y-145600000D02*
X171597320Y-145580100D01*
X169560240Y-144124680D02*
X169593260Y-144124680D01*
X169593260Y-144124680D02*
X169887900Y-143830040D01*
X168946830Y-144738090D02*
X169560240Y-144124680D01*
X168084920Y-145600000D02*
X168946830Y-144738090D01*
X172308520Y-136583420D02*
X172308520Y-143436340D01*
X169999660Y-136164320D02*
X171889420Y-136164320D01*
X169583100Y-141942820D02*
X169583100Y-136580880D01*
X171889420Y-136164320D02*
X172308520Y-136583420D01*
X172308520Y-143436340D02*
X171531280Y-144213580D01*
X168765220Y-142760700D02*
X169583100Y-141942820D01*
X169583100Y-136580880D02*
X169999660Y-136164320D01*
X168765220Y-144523460D02*
X168765220Y-142760700D01*
X168946830Y-144705070D02*
X168765220Y-144523460D01*
X171531280Y-144213580D02*
X171190920Y-144213580D01*
X171190920Y-144213580D02*
X170431460Y-144973040D01*
X168946830Y-144738090D02*
X168946830Y-144705070D01*
X170431460Y-144973040D02*
X169306240Y-144973040D01*
X169306240Y-144973040D02*
X169110660Y-144777460D01*
X168034920Y-145550000D02*
X168084920Y-145600000D01*
X157805000Y-145550000D02*
X168034920Y-145550000D01*
D25*
G36*
X198053960Y-118745000D02*
G01*
X101719380Y-118745000D01*
X101719380Y-111981581D01*
X155298520Y-111981581D01*
X155298520Y-112185459D01*
X155338294Y-112385418D01*
X155416315Y-112573776D01*
X155529583Y-112743294D01*
X155673746Y-112887457D01*
X155843264Y-113000725D01*
X156031622Y-113078746D01*
X156231581Y-113118520D01*
X156435459Y-113118520D01*
X156635418Y-113078746D01*
X156823776Y-113000725D01*
X156993294Y-112887457D01*
X157137457Y-112743294D01*
X157250725Y-112573776D01*
X157328746Y-112385418D01*
X157368520Y-112185459D01*
X157368520Y-111981581D01*
X157328746Y-111781622D01*
X157250725Y-111593264D01*
X157137457Y-111423746D01*
X156993294Y-111279583D01*
X156823776Y-111166315D01*
X156635418Y-111088294D01*
X156435459Y-111048520D01*
X156231581Y-111048520D01*
X156031622Y-111088294D01*
X155843264Y-111166315D01*
X155673746Y-111279583D01*
X155529583Y-111423746D01*
X155416315Y-111593264D01*
X155338294Y-111781622D01*
X155298520Y-111981581D01*
X101719380Y-111981581D01*
X101719380Y-109416511D01*
X145603010Y-109416511D01*
X145603010Y-109620389D01*
X145642784Y-109820348D01*
X145720805Y-110008706D01*
X145834073Y-110178224D01*
X145978236Y-110322387D01*
X146147754Y-110435655D01*
X146336112Y-110513676D01*
X146536071Y-110553450D01*
X146739949Y-110553450D01*
X146939908Y-110513676D01*
X147128266Y-110435655D01*
X147297784Y-110322387D01*
X147441947Y-110178224D01*
X147555215Y-110008706D01*
X147633236Y-109820348D01*
X147673010Y-109620389D01*
X147673010Y-109416511D01*
X147633236Y-109216552D01*
X147632935Y-109215825D01*
X150672900Y-109215825D01*
X150672900Y-109498495D01*
X150728047Y-109775734D01*
X150836220Y-110036887D01*
X150993263Y-110271919D01*
X151193141Y-110471797D01*
X151428173Y-110628840D01*
X151689326Y-110737013D01*
X151966565Y-110792160D01*
X152249235Y-110792160D01*
X152526474Y-110737013D01*
X152787627Y-110628840D01*
X153022659Y-110471797D01*
X153222537Y-110271919D01*
X153379580Y-110036887D01*
X153487753Y-109775734D01*
X153542900Y-109498495D01*
X153542900Y-109215825D01*
X153537180Y-109187065D01*
X163080900Y-109187065D01*
X163080900Y-109527255D01*
X163147268Y-109860907D01*
X163277453Y-110175201D01*
X163466452Y-110458058D01*
X163707002Y-110698608D01*
X163989859Y-110887607D01*
X164304153Y-111017792D01*
X164637805Y-111084160D01*
X164977995Y-111084160D01*
X165311647Y-111017792D01*
X165625941Y-110887607D01*
X165908798Y-110698608D01*
X166149348Y-110458058D01*
X166338347Y-110175201D01*
X166468532Y-109860907D01*
X166534900Y-109527255D01*
X166534900Y-109187065D01*
X166468532Y-108853413D01*
X166338347Y-108539119D01*
X166149348Y-108256262D01*
X165908798Y-108015712D01*
X165625941Y-107826713D01*
X165311647Y-107696528D01*
X164977995Y-107630160D01*
X164637805Y-107630160D01*
X164304153Y-107696528D01*
X163989859Y-107826713D01*
X163707002Y-108015712D01*
X163466452Y-108256262D01*
X163277453Y-108539119D01*
X163147268Y-108853413D01*
X163080900Y-109187065D01*
X153537180Y-109187065D01*
X153487753Y-108938586D01*
X153379580Y-108677433D01*
X153222537Y-108442401D01*
X153022659Y-108242523D01*
X152787627Y-108085480D01*
X152526474Y-107977307D01*
X152249235Y-107922160D01*
X151966565Y-107922160D01*
X151689326Y-107977307D01*
X151428173Y-108085480D01*
X151193141Y-108242523D01*
X150993263Y-108442401D01*
X150836220Y-108677433D01*
X150728047Y-108938586D01*
X150672900Y-109215825D01*
X147632935Y-109215825D01*
X147555215Y-109028194D01*
X147441947Y-108858676D01*
X147297784Y-108714513D01*
X147128266Y-108601245D01*
X146939908Y-108523224D01*
X146739949Y-108483450D01*
X146536071Y-108483450D01*
X146336112Y-108523224D01*
X146147754Y-108601245D01*
X145978236Y-108714513D01*
X145834073Y-108858676D01*
X145720805Y-109028194D01*
X145642784Y-109216552D01*
X145603010Y-109416511D01*
X101719380Y-109416511D01*
X101719380Y-106779872D01*
X105765000Y-106779872D01*
X105765000Y-107220128D01*
X105850890Y-107651925D01*
X106019369Y-108058669D01*
X106263962Y-108424729D01*
X106575271Y-108736038D01*
X106941331Y-108980631D01*
X107348075Y-109149110D01*
X107779872Y-109235000D01*
X108220128Y-109235000D01*
X108651925Y-109149110D01*
X109058669Y-108980631D01*
X109424729Y-108736038D01*
X109736038Y-108424729D01*
X109980631Y-108058669D01*
X110149110Y-107651925D01*
X110235000Y-107220128D01*
X110235000Y-106779872D01*
X189765000Y-106779872D01*
X189765000Y-107220128D01*
X189850890Y-107651925D01*
X190019369Y-108058669D01*
X190263962Y-108424729D01*
X190575271Y-108736038D01*
X190941331Y-108980631D01*
X191348075Y-109149110D01*
X191779872Y-109235000D01*
X192220128Y-109235000D01*
X192651925Y-109149110D01*
X193058669Y-108980631D01*
X193424729Y-108736038D01*
X193736038Y-108424729D01*
X193980631Y-108058669D01*
X194149110Y-107651925D01*
X194235000Y-107220128D01*
X194235000Y-106779872D01*
X194149110Y-106348075D01*
X193980631Y-105941331D01*
X193736038Y-105575271D01*
X193424729Y-105263962D01*
X193058669Y-105019369D01*
X192651925Y-104850890D01*
X192220128Y-104765000D01*
X191779872Y-104765000D01*
X191348075Y-104850890D01*
X190941331Y-105019369D01*
X190575271Y-105263962D01*
X190263962Y-105575271D01*
X190019369Y-105941331D01*
X189850890Y-106348075D01*
X189765000Y-106779872D01*
X110235000Y-106779872D01*
X110149110Y-106348075D01*
X109980631Y-105941331D01*
X109736038Y-105575271D01*
X109424729Y-105263962D01*
X109058669Y-105019369D01*
X108651925Y-104850890D01*
X108220128Y-104765000D01*
X107779872Y-104765000D01*
X107348075Y-104850890D01*
X106941331Y-105019369D01*
X106575271Y-105263962D01*
X106263962Y-105575271D01*
X106019369Y-105941331D01*
X105850890Y-106348075D01*
X105765000Y-106779872D01*
X101719380Y-106779872D01*
X101719380Y-104753045D01*
X142445840Y-104753045D01*
X142445840Y-105035715D01*
X142500987Y-105312954D01*
X142609160Y-105574107D01*
X142766203Y-105809139D01*
X142966081Y-106009017D01*
X143201113Y-106166060D01*
X143462266Y-106274233D01*
X143739505Y-106329380D01*
X144022175Y-106329380D01*
X144299414Y-106274233D01*
X144560567Y-106166060D01*
X144795599Y-106009017D01*
X144995477Y-105809139D01*
X145152520Y-105574107D01*
X145260693Y-105312954D01*
X145315840Y-105035715D01*
X145315840Y-104753045D01*
X145310120Y-104724285D01*
X154853840Y-104724285D01*
X154853840Y-105064475D01*
X154920208Y-105398127D01*
X155050393Y-105712421D01*
X155239392Y-105995278D01*
X155479942Y-106235828D01*
X155762799Y-106424827D01*
X156077093Y-106555012D01*
X156410745Y-106621380D01*
X156750935Y-106621380D01*
X157084587Y-106555012D01*
X157398881Y-106424827D01*
X157681738Y-106235828D01*
X157922288Y-105995278D01*
X158111287Y-105712421D01*
X158241472Y-105398127D01*
X158307840Y-105064475D01*
X158307840Y-104724285D01*
X158241472Y-104390633D01*
X158111287Y-104076339D01*
X157922288Y-103793482D01*
X157681738Y-103552932D01*
X157398881Y-103363933D01*
X157084587Y-103233748D01*
X156750935Y-103167380D01*
X156410745Y-103167380D01*
X156077093Y-103233748D01*
X155762799Y-103363933D01*
X155479942Y-103552932D01*
X155239392Y-103793482D01*
X155050393Y-104076339D01*
X154920208Y-104390633D01*
X154853840Y-104724285D01*
X145310120Y-104724285D01*
X145260693Y-104475806D01*
X145152520Y-104214653D01*
X144995477Y-103979621D01*
X144795599Y-103779743D01*
X144560567Y-103622700D01*
X144299414Y-103514527D01*
X144022175Y-103459380D01*
X143739505Y-103459380D01*
X143462266Y-103514527D01*
X143201113Y-103622700D01*
X142966081Y-103779743D01*
X142766203Y-103979621D01*
X142609160Y-104214653D01*
X142500987Y-104475806D01*
X142445840Y-104753045D01*
X101719380Y-104753045D01*
X101719380Y-94779872D01*
X105765000Y-94779872D01*
X105765000Y-95220128D01*
X105850890Y-95651925D01*
X106019369Y-96058669D01*
X106263962Y-96424729D01*
X106575271Y-96736038D01*
X106941331Y-96980631D01*
X107348075Y-97149110D01*
X107779872Y-97235000D01*
X108220128Y-97235000D01*
X108651925Y-97149110D01*
X109058669Y-96980631D01*
X109424729Y-96736038D01*
X109736038Y-96424729D01*
X109980631Y-96058669D01*
X110149110Y-95651925D01*
X110235000Y-95220128D01*
X110235000Y-94779872D01*
X110149110Y-94348075D01*
X110010525Y-94013500D01*
X147725035Y-94013500D01*
X147725035Y-96613500D01*
X147742933Y-96795224D01*
X147795940Y-96969964D01*
X147882019Y-97131005D01*
X147997861Y-97272159D01*
X148139015Y-97388001D01*
X148300056Y-97474080D01*
X148474796Y-97527087D01*
X148656520Y-97544985D01*
X149462833Y-97544985D01*
X149312710Y-97607168D01*
X149095367Y-97752392D01*
X148910532Y-97937227D01*
X148765308Y-98154570D01*
X148665276Y-98396068D01*
X148614280Y-98652442D01*
X148614280Y-98913838D01*
X148665276Y-99170212D01*
X148765308Y-99411710D01*
X148910532Y-99629053D01*
X149095367Y-99813888D01*
X149312710Y-99959112D01*
X149554208Y-100059144D01*
X149810582Y-100110140D01*
X150071978Y-100110140D01*
X150328352Y-100059144D01*
X150569850Y-99959112D01*
X150787193Y-99813888D01*
X150972028Y-99629053D01*
X151117252Y-99411710D01*
X151217284Y-99170212D01*
X151268280Y-98913838D01*
X151268280Y-98652442D01*
X151217284Y-98396068D01*
X151117252Y-98154570D01*
X150972028Y-97937227D01*
X150787193Y-97752392D01*
X150569850Y-97607168D01*
X150419727Y-97544985D01*
X151256520Y-97544985D01*
X151438244Y-97527087D01*
X151612984Y-97474080D01*
X151774025Y-97388001D01*
X151915179Y-97272159D01*
X152031021Y-97131005D01*
X152117100Y-96969964D01*
X152170107Y-96795224D01*
X152183156Y-96662724D01*
X153866901Y-96662724D01*
X153998837Y-96957812D01*
X154339565Y-97128659D01*
X154707077Y-97229750D01*
X155087249Y-97257201D01*
X155465471Y-97209957D01*
X155827210Y-97089833D01*
X156074203Y-96957812D01*
X156206139Y-96662724D01*
X155036520Y-95493105D01*
X153866901Y-96662724D01*
X152183156Y-96662724D01*
X152188005Y-96613500D01*
X152188005Y-95364229D01*
X153092819Y-95364229D01*
X153140063Y-95742451D01*
X153260187Y-96104190D01*
X153392208Y-96351183D01*
X153687296Y-96483119D01*
X154856915Y-95313500D01*
X155216125Y-95313500D01*
X156385744Y-96483119D01*
X156680832Y-96351183D01*
X156851679Y-96010455D01*
X156952770Y-95642943D01*
X156980221Y-95262771D01*
X156932977Y-94884549D01*
X156898217Y-94779872D01*
X189765000Y-94779872D01*
X189765000Y-95220128D01*
X189850890Y-95651925D01*
X190019369Y-96058669D01*
X190263962Y-96424729D01*
X190575271Y-96736038D01*
X190941331Y-96980631D01*
X191348075Y-97149110D01*
X191779872Y-97235000D01*
X192220128Y-97235000D01*
X192651925Y-97149110D01*
X193058669Y-96980631D01*
X193424729Y-96736038D01*
X193736038Y-96424729D01*
X193980631Y-96058669D01*
X194149110Y-95651925D01*
X194235000Y-95220128D01*
X194235000Y-94779872D01*
X194149110Y-94348075D01*
X193980631Y-93941331D01*
X193736038Y-93575271D01*
X193424729Y-93263962D01*
X193058669Y-93019369D01*
X192651925Y-92850890D01*
X192220128Y-92765000D01*
X191779872Y-92765000D01*
X191348075Y-92850890D01*
X190941331Y-93019369D01*
X190575271Y-93263962D01*
X190263962Y-93575271D01*
X190019369Y-93941331D01*
X189850890Y-94348075D01*
X189765000Y-94779872D01*
X156898217Y-94779872D01*
X156812853Y-94522810D01*
X156680832Y-94275817D01*
X156385744Y-94143881D01*
X155216125Y-95313500D01*
X154856915Y-95313500D01*
X153687296Y-94143881D01*
X153392208Y-94275817D01*
X153221361Y-94616545D01*
X153120270Y-94984057D01*
X153092819Y-95364229D01*
X152188005Y-95364229D01*
X152188005Y-94013500D01*
X152183157Y-93964276D01*
X153866901Y-93964276D01*
X155036520Y-95133895D01*
X156206139Y-93964276D01*
X156074203Y-93669188D01*
X155733475Y-93498341D01*
X155365963Y-93397250D01*
X154985791Y-93369799D01*
X154607569Y-93417043D01*
X154245830Y-93537167D01*
X153998837Y-93669188D01*
X153866901Y-93964276D01*
X152183157Y-93964276D01*
X152170107Y-93831776D01*
X152117100Y-93657036D01*
X152031021Y-93495995D01*
X151915179Y-93354841D01*
X151774025Y-93238999D01*
X151612984Y-93152920D01*
X151438244Y-93099913D01*
X151256520Y-93082015D01*
X148656520Y-93082015D01*
X148474796Y-93099913D01*
X148300056Y-93152920D01*
X148139015Y-93238999D01*
X147997861Y-93354841D01*
X147882019Y-93495995D01*
X147795940Y-93657036D01*
X147742933Y-93831776D01*
X147725035Y-94013500D01*
X110010525Y-94013500D01*
X109980631Y-93941331D01*
X109736038Y-93575271D01*
X109424729Y-93263962D01*
X109058669Y-93019369D01*
X108651925Y-92850890D01*
X108220128Y-92765000D01*
X107779872Y-92765000D01*
X107348075Y-92850890D01*
X106941331Y-93019369D01*
X106575271Y-93263962D01*
X106263962Y-93575271D01*
X106019369Y-93941331D01*
X105850890Y-94348075D01*
X105765000Y-94779872D01*
X101719380Y-94779872D01*
X101719380Y-91432380D01*
X198053960Y-91432380D01*
X198053960Y-118745000D01*
G37*
X198053960Y-118745000D02*
X101719380Y-118745000D01*
X101719380Y-111981581D01*
X155298520Y-111981581D01*
X155298520Y-112185459D01*
X155338294Y-112385418D01*
X155416315Y-112573776D01*
X155529583Y-112743294D01*
X155673746Y-112887457D01*
X155843264Y-113000725D01*
X156031622Y-113078746D01*
X156231581Y-113118520D01*
X156435459Y-113118520D01*
X156635418Y-113078746D01*
X156823776Y-113000725D01*
X156993294Y-112887457D01*
X157137457Y-112743294D01*
X157250725Y-112573776D01*
X157328746Y-112385418D01*
X157368520Y-112185459D01*
X157368520Y-111981581D01*
X157328746Y-111781622D01*
X157250725Y-111593264D01*
X157137457Y-111423746D01*
X156993294Y-111279583D01*
X156823776Y-111166315D01*
X156635418Y-111088294D01*
X156435459Y-111048520D01*
X156231581Y-111048520D01*
X156031622Y-111088294D01*
X155843264Y-111166315D01*
X155673746Y-111279583D01*
X155529583Y-111423746D01*
X155416315Y-111593264D01*
X155338294Y-111781622D01*
X155298520Y-111981581D01*
X101719380Y-111981581D01*
X101719380Y-109416511D01*
X145603010Y-109416511D01*
X145603010Y-109620389D01*
X145642784Y-109820348D01*
X145720805Y-110008706D01*
X145834073Y-110178224D01*
X145978236Y-110322387D01*
X146147754Y-110435655D01*
X146336112Y-110513676D01*
X146536071Y-110553450D01*
X146739949Y-110553450D01*
X146939908Y-110513676D01*
X147128266Y-110435655D01*
X147297784Y-110322387D01*
X147441947Y-110178224D01*
X147555215Y-110008706D01*
X147633236Y-109820348D01*
X147673010Y-109620389D01*
X147673010Y-109416511D01*
X147633236Y-109216552D01*
X147632935Y-109215825D01*
X150672900Y-109215825D01*
X150672900Y-109498495D01*
X150728047Y-109775734D01*
X150836220Y-110036887D01*
X150993263Y-110271919D01*
X151193141Y-110471797D01*
X151428173Y-110628840D01*
X151689326Y-110737013D01*
X151966565Y-110792160D01*
X152249235Y-110792160D01*
X152526474Y-110737013D01*
X152787627Y-110628840D01*
X153022659Y-110471797D01*
X153222537Y-110271919D01*
X153379580Y-110036887D01*
X153487753Y-109775734D01*
X153542900Y-109498495D01*
X153542900Y-109215825D01*
X153537180Y-109187065D01*
X163080900Y-109187065D01*
X163080900Y-109527255D01*
X163147268Y-109860907D01*
X163277453Y-110175201D01*
X163466452Y-110458058D01*
X163707002Y-110698608D01*
X163989859Y-110887607D01*
X164304153Y-111017792D01*
X164637805Y-111084160D01*
X164977995Y-111084160D01*
X165311647Y-111017792D01*
X165625941Y-110887607D01*
X165908798Y-110698608D01*
X166149348Y-110458058D01*
X166338347Y-110175201D01*
X166468532Y-109860907D01*
X166534900Y-109527255D01*
X166534900Y-109187065D01*
X166468532Y-108853413D01*
X166338347Y-108539119D01*
X166149348Y-108256262D01*
X165908798Y-108015712D01*
X165625941Y-107826713D01*
X165311647Y-107696528D01*
X164977995Y-107630160D01*
X164637805Y-107630160D01*
X164304153Y-107696528D01*
X163989859Y-107826713D01*
X163707002Y-108015712D01*
X163466452Y-108256262D01*
X163277453Y-108539119D01*
X163147268Y-108853413D01*
X163080900Y-109187065D01*
X153537180Y-109187065D01*
X153487753Y-108938586D01*
X153379580Y-108677433D01*
X153222537Y-108442401D01*
X153022659Y-108242523D01*
X152787627Y-108085480D01*
X152526474Y-107977307D01*
X152249235Y-107922160D01*
X151966565Y-107922160D01*
X151689326Y-107977307D01*
X151428173Y-108085480D01*
X151193141Y-108242523D01*
X150993263Y-108442401D01*
X150836220Y-108677433D01*
X150728047Y-108938586D01*
X150672900Y-109215825D01*
X147632935Y-109215825D01*
X147555215Y-109028194D01*
X147441947Y-108858676D01*
X147297784Y-108714513D01*
X147128266Y-108601245D01*
X146939908Y-108523224D01*
X146739949Y-108483450D01*
X146536071Y-108483450D01*
X146336112Y-108523224D01*
X146147754Y-108601245D01*
X145978236Y-108714513D01*
X145834073Y-108858676D01*
X145720805Y-109028194D01*
X145642784Y-109216552D01*
X145603010Y-109416511D01*
X101719380Y-109416511D01*
X101719380Y-106779872D01*
X105765000Y-106779872D01*
X105765000Y-107220128D01*
X105850890Y-107651925D01*
X106019369Y-108058669D01*
X106263962Y-108424729D01*
X106575271Y-108736038D01*
X106941331Y-108980631D01*
X107348075Y-109149110D01*
X107779872Y-109235000D01*
X108220128Y-109235000D01*
X108651925Y-109149110D01*
X109058669Y-108980631D01*
X109424729Y-108736038D01*
X109736038Y-108424729D01*
X109980631Y-108058669D01*
X110149110Y-107651925D01*
X110235000Y-107220128D01*
X110235000Y-106779872D01*
X189765000Y-106779872D01*
X189765000Y-107220128D01*
X189850890Y-107651925D01*
X190019369Y-108058669D01*
X190263962Y-108424729D01*
X190575271Y-108736038D01*
X190941331Y-108980631D01*
X191348075Y-109149110D01*
X191779872Y-109235000D01*
X192220128Y-109235000D01*
X192651925Y-109149110D01*
X193058669Y-108980631D01*
X193424729Y-108736038D01*
X193736038Y-108424729D01*
X193980631Y-108058669D01*
X194149110Y-107651925D01*
X194235000Y-107220128D01*
X194235000Y-106779872D01*
X194149110Y-106348075D01*
X193980631Y-105941331D01*
X193736038Y-105575271D01*
X193424729Y-105263962D01*
X193058669Y-105019369D01*
X192651925Y-104850890D01*
X192220128Y-104765000D01*
X191779872Y-104765000D01*
X191348075Y-104850890D01*
X190941331Y-105019369D01*
X190575271Y-105263962D01*
X190263962Y-105575271D01*
X190019369Y-105941331D01*
X189850890Y-106348075D01*
X189765000Y-106779872D01*
X110235000Y-106779872D01*
X110149110Y-106348075D01*
X109980631Y-105941331D01*
X109736038Y-105575271D01*
X109424729Y-105263962D01*
X109058669Y-105019369D01*
X108651925Y-104850890D01*
X108220128Y-104765000D01*
X107779872Y-104765000D01*
X107348075Y-104850890D01*
X106941331Y-105019369D01*
X106575271Y-105263962D01*
X106263962Y-105575271D01*
X106019369Y-105941331D01*
X105850890Y-106348075D01*
X105765000Y-106779872D01*
X101719380Y-106779872D01*
X101719380Y-104753045D01*
X142445840Y-104753045D01*
X142445840Y-105035715D01*
X142500987Y-105312954D01*
X142609160Y-105574107D01*
X142766203Y-105809139D01*
X142966081Y-106009017D01*
X143201113Y-106166060D01*
X143462266Y-106274233D01*
X143739505Y-106329380D01*
X144022175Y-106329380D01*
X144299414Y-106274233D01*
X144560567Y-106166060D01*
X144795599Y-106009017D01*
X144995477Y-105809139D01*
X145152520Y-105574107D01*
X145260693Y-105312954D01*
X145315840Y-105035715D01*
X145315840Y-104753045D01*
X145310120Y-104724285D01*
X154853840Y-104724285D01*
X154853840Y-105064475D01*
X154920208Y-105398127D01*
X155050393Y-105712421D01*
X155239392Y-105995278D01*
X155479942Y-106235828D01*
X155762799Y-106424827D01*
X156077093Y-106555012D01*
X156410745Y-106621380D01*
X156750935Y-106621380D01*
X157084587Y-106555012D01*
X157398881Y-106424827D01*
X157681738Y-106235828D01*
X157922288Y-105995278D01*
X158111287Y-105712421D01*
X158241472Y-105398127D01*
X158307840Y-105064475D01*
X158307840Y-104724285D01*
X158241472Y-104390633D01*
X158111287Y-104076339D01*
X157922288Y-103793482D01*
X157681738Y-103552932D01*
X157398881Y-103363933D01*
X157084587Y-103233748D01*
X156750935Y-103167380D01*
X156410745Y-103167380D01*
X156077093Y-103233748D01*
X155762799Y-103363933D01*
X155479942Y-103552932D01*
X155239392Y-103793482D01*
X155050393Y-104076339D01*
X154920208Y-104390633D01*
X154853840Y-104724285D01*
X145310120Y-104724285D01*
X145260693Y-104475806D01*
X145152520Y-104214653D01*
X144995477Y-103979621D01*
X144795599Y-103779743D01*
X144560567Y-103622700D01*
X144299414Y-103514527D01*
X144022175Y-103459380D01*
X143739505Y-103459380D01*
X143462266Y-103514527D01*
X143201113Y-103622700D01*
X142966081Y-103779743D01*
X142766203Y-103979621D01*
X142609160Y-104214653D01*
X142500987Y-104475806D01*
X142445840Y-104753045D01*
X101719380Y-104753045D01*
X101719380Y-94779872D01*
X105765000Y-94779872D01*
X105765000Y-95220128D01*
X105850890Y-95651925D01*
X106019369Y-96058669D01*
X106263962Y-96424729D01*
X106575271Y-96736038D01*
X106941331Y-96980631D01*
X107348075Y-97149110D01*
X107779872Y-97235000D01*
X108220128Y-97235000D01*
X108651925Y-97149110D01*
X109058669Y-96980631D01*
X109424729Y-96736038D01*
X109736038Y-96424729D01*
X109980631Y-96058669D01*
X110149110Y-95651925D01*
X110235000Y-95220128D01*
X110235000Y-94779872D01*
X110149110Y-94348075D01*
X110010525Y-94013500D01*
X147725035Y-94013500D01*
X147725035Y-96613500D01*
X147742933Y-96795224D01*
X147795940Y-96969964D01*
X147882019Y-97131005D01*
X147997861Y-97272159D01*
X148139015Y-97388001D01*
X148300056Y-97474080D01*
X148474796Y-97527087D01*
X148656520Y-97544985D01*
X149462833Y-97544985D01*
X149312710Y-97607168D01*
X149095367Y-97752392D01*
X148910532Y-97937227D01*
X148765308Y-98154570D01*
X148665276Y-98396068D01*
X148614280Y-98652442D01*
X148614280Y-98913838D01*
X148665276Y-99170212D01*
X148765308Y-99411710D01*
X148910532Y-99629053D01*
X149095367Y-99813888D01*
X149312710Y-99959112D01*
X149554208Y-100059144D01*
X149810582Y-100110140D01*
X150071978Y-100110140D01*
X150328352Y-100059144D01*
X150569850Y-99959112D01*
X150787193Y-99813888D01*
X150972028Y-99629053D01*
X151117252Y-99411710D01*
X151217284Y-99170212D01*
X151268280Y-98913838D01*
X151268280Y-98652442D01*
X151217284Y-98396068D01*
X151117252Y-98154570D01*
X150972028Y-97937227D01*
X150787193Y-97752392D01*
X150569850Y-97607168D01*
X150419727Y-97544985D01*
X151256520Y-97544985D01*
X151438244Y-97527087D01*
X151612984Y-97474080D01*
X151774025Y-97388001D01*
X151915179Y-97272159D01*
X152031021Y-97131005D01*
X152117100Y-96969964D01*
X152170107Y-96795224D01*
X152183156Y-96662724D01*
X153866901Y-96662724D01*
X153998837Y-96957812D01*
X154339565Y-97128659D01*
X154707077Y-97229750D01*
X155087249Y-97257201D01*
X155465471Y-97209957D01*
X155827210Y-97089833D01*
X156074203Y-96957812D01*
X156206139Y-96662724D01*
X155036520Y-95493105D01*
X153866901Y-96662724D01*
X152183156Y-96662724D01*
X152188005Y-96613500D01*
X152188005Y-95364229D01*
X153092819Y-95364229D01*
X153140063Y-95742451D01*
X153260187Y-96104190D01*
X153392208Y-96351183D01*
X153687296Y-96483119D01*
X154856915Y-95313500D01*
X155216125Y-95313500D01*
X156385744Y-96483119D01*
X156680832Y-96351183D01*
X156851679Y-96010455D01*
X156952770Y-95642943D01*
X156980221Y-95262771D01*
X156932977Y-94884549D01*
X156898217Y-94779872D01*
X189765000Y-94779872D01*
X189765000Y-95220128D01*
X189850890Y-95651925D01*
X190019369Y-96058669D01*
X190263962Y-96424729D01*
X190575271Y-96736038D01*
X190941331Y-96980631D01*
X191348075Y-97149110D01*
X191779872Y-97235000D01*
X192220128Y-97235000D01*
X192651925Y-97149110D01*
X193058669Y-96980631D01*
X193424729Y-96736038D01*
X193736038Y-96424729D01*
X193980631Y-96058669D01*
X194149110Y-95651925D01*
X194235000Y-95220128D01*
X194235000Y-94779872D01*
X194149110Y-94348075D01*
X193980631Y-93941331D01*
X193736038Y-93575271D01*
X193424729Y-93263962D01*
X193058669Y-93019369D01*
X192651925Y-92850890D01*
X192220128Y-92765000D01*
X191779872Y-92765000D01*
X191348075Y-92850890D01*
X190941331Y-93019369D01*
X190575271Y-93263962D01*
X190263962Y-93575271D01*
X190019369Y-93941331D01*
X189850890Y-94348075D01*
X189765000Y-94779872D01*
X156898217Y-94779872D01*
X156812853Y-94522810D01*
X156680832Y-94275817D01*
X156385744Y-94143881D01*
X155216125Y-95313500D01*
X154856915Y-95313500D01*
X153687296Y-94143881D01*
X153392208Y-94275817D01*
X153221361Y-94616545D01*
X153120270Y-94984057D01*
X153092819Y-95364229D01*
X152188005Y-95364229D01*
X152188005Y-94013500D01*
X152183157Y-93964276D01*
X153866901Y-93964276D01*
X155036520Y-95133895D01*
X156206139Y-93964276D01*
X156074203Y-93669188D01*
X155733475Y-93498341D01*
X155365963Y-93397250D01*
X154985791Y-93369799D01*
X154607569Y-93417043D01*
X154245830Y-93537167D01*
X153998837Y-93669188D01*
X153866901Y-93964276D01*
X152183157Y-93964276D01*
X152170107Y-93831776D01*
X152117100Y-93657036D01*
X152031021Y-93495995D01*
X151915179Y-93354841D01*
X151774025Y-93238999D01*
X151612984Y-93152920D01*
X151438244Y-93099913D01*
X151256520Y-93082015D01*
X148656520Y-93082015D01*
X148474796Y-93099913D01*
X148300056Y-93152920D01*
X148139015Y-93238999D01*
X147997861Y-93354841D01*
X147882019Y-93495995D01*
X147795940Y-93657036D01*
X147742933Y-93831776D01*
X147725035Y-94013500D01*
X110010525Y-94013500D01*
X109980631Y-93941331D01*
X109736038Y-93575271D01*
X109424729Y-93263962D01*
X109058669Y-93019369D01*
X108651925Y-92850890D01*
X108220128Y-92765000D01*
X107779872Y-92765000D01*
X107348075Y-92850890D01*
X106941331Y-93019369D01*
X106575271Y-93263962D01*
X106263962Y-93575271D01*
X106019369Y-93941331D01*
X105850890Y-94348075D01*
X105765000Y-94779872D01*
X101719380Y-94779872D01*
X101719380Y-91432380D01*
X198053960Y-91432380D01*
X198053960Y-118745000D01*
G36*
X190019369Y-66058669D02*
G01*
X190263962Y-66424729D01*
X190575271Y-66736038D01*
X190941331Y-66980631D01*
X191348075Y-67149110D01*
X191779872Y-67235000D01*
X192220128Y-67235000D01*
X192651925Y-67149110D01*
X193058669Y-66980631D01*
X193424729Y-66736038D01*
X193499740Y-66661027D01*
X193499740Y-75338973D01*
X193424729Y-75263962D01*
X193058669Y-75019369D01*
X192651925Y-74850890D01*
X192220128Y-74765000D01*
X191779872Y-74765000D01*
X191348075Y-74850890D01*
X190941331Y-75019369D01*
X190575271Y-75263962D01*
X190263962Y-75575271D01*
X190019369Y-75941331D01*
X189850890Y-76348075D01*
X189765000Y-76779872D01*
X189765000Y-77220128D01*
X189850890Y-77651925D01*
X190019369Y-78058669D01*
X190263962Y-78424729D01*
X190575271Y-78736038D01*
X190941331Y-78980631D01*
X191348075Y-79149110D01*
X191779872Y-79235000D01*
X192220128Y-79235000D01*
X192651925Y-79149110D01*
X193058669Y-78980631D01*
X193424729Y-78736038D01*
X193499740Y-78661027D01*
X193499740Y-84543900D01*
X172093152Y-84543900D01*
X172093152Y-83221700D01*
X172080892Y-83097218D01*
X172044582Y-82977520D01*
X171985617Y-82867206D01*
X171906265Y-82770515D01*
X171809574Y-82691163D01*
X171699260Y-82632198D01*
X171579562Y-82595888D01*
X171455080Y-82583628D01*
X169931080Y-82583628D01*
X169806598Y-82595888D01*
X169686900Y-82632198D01*
X169576586Y-82691163D01*
X169479895Y-82770515D01*
X169400543Y-82867206D01*
X169341578Y-82977520D01*
X169305268Y-83097218D01*
X169293008Y-83221700D01*
X169293008Y-84543900D01*
X139913070Y-84543900D01*
X139811166Y-84475810D01*
X139533270Y-84360701D01*
X139238256Y-84302020D01*
X138937464Y-84302020D01*
X138642450Y-84360701D01*
X138364554Y-84475810D01*
X138262650Y-84543900D01*
X106349800Y-84543900D01*
X106349800Y-81457368D01*
X120716040Y-81457368D01*
X120716040Y-81732552D01*
X120769726Y-82002450D01*
X120875035Y-82256687D01*
X121027920Y-82485495D01*
X121222505Y-82680080D01*
X121451313Y-82832965D01*
X121705550Y-82938274D01*
X121975448Y-82991960D01*
X122250632Y-82991960D01*
X122520530Y-82938274D01*
X122774767Y-82832965D01*
X123003575Y-82680080D01*
X123198160Y-82485495D01*
X123351045Y-82256687D01*
X123456354Y-82002450D01*
X123510040Y-81732552D01*
X123510040Y-81529020D01*
X137557343Y-81529020D01*
X137557343Y-83129020D01*
X137571380Y-83271537D01*
X137612950Y-83408577D01*
X137680457Y-83534873D01*
X137771306Y-83645574D01*
X137882007Y-83736423D01*
X138008303Y-83803930D01*
X138145343Y-83845500D01*
X138287860Y-83859537D01*
X139887860Y-83859537D01*
X140030377Y-83845500D01*
X140167417Y-83803930D01*
X140293713Y-83736423D01*
X140404414Y-83645574D01*
X140495263Y-83534873D01*
X140562770Y-83408577D01*
X140604340Y-83271537D01*
X140618377Y-83129020D01*
X140618377Y-81529020D01*
X140604340Y-81386503D01*
X140562770Y-81249463D01*
X140495263Y-81123167D01*
X140404414Y-81012466D01*
X140293713Y-80921617D01*
X140167417Y-80854110D01*
X140030377Y-80812540D01*
X139887860Y-80798503D01*
X138287860Y-80798503D01*
X138145343Y-80812540D01*
X138008303Y-80854110D01*
X137882007Y-80921617D01*
X137771306Y-81012466D01*
X137680457Y-81123167D01*
X137612950Y-81249463D01*
X137571380Y-81386503D01*
X137557343Y-81529020D01*
X123510040Y-81529020D01*
X123510040Y-81457368D01*
X123456354Y-81187470D01*
X123351045Y-80933233D01*
X123198160Y-80704425D01*
X123003575Y-80509840D01*
X122774767Y-80356955D01*
X122520530Y-80251646D01*
X122250632Y-80197960D01*
X121975448Y-80197960D01*
X121705550Y-80251646D01*
X121451313Y-80356955D01*
X121222505Y-80509840D01*
X121027920Y-80704425D01*
X120875035Y-80933233D01*
X120769726Y-81187470D01*
X120716040Y-81457368D01*
X106349800Y-81457368D01*
X106349800Y-78510567D01*
X106575271Y-78736038D01*
X106941331Y-78980631D01*
X107348075Y-79149110D01*
X107779872Y-79235000D01*
X108220128Y-79235000D01*
X108651925Y-79149110D01*
X109058669Y-78980631D01*
X109424729Y-78736038D01*
X109643382Y-78517385D01*
X113136780Y-78517385D01*
X113136780Y-78800055D01*
X113191927Y-79077294D01*
X113300100Y-79338447D01*
X113457143Y-79573479D01*
X113657021Y-79773357D01*
X113892053Y-79930400D01*
X114153206Y-80038573D01*
X114430445Y-80093720D01*
X114713115Y-80093720D01*
X114990354Y-80038573D01*
X115251507Y-79930400D01*
X115486539Y-79773357D01*
X115686417Y-79573479D01*
X115843460Y-79338447D01*
X115951633Y-79077294D01*
X115983444Y-78917368D01*
X118176040Y-78917368D01*
X118176040Y-79192552D01*
X118229726Y-79462450D01*
X118335035Y-79716687D01*
X118487920Y-79945495D01*
X118682505Y-80140080D01*
X118911313Y-80292965D01*
X119165550Y-80398274D01*
X119435448Y-80451960D01*
X119710632Y-80451960D01*
X119980530Y-80398274D01*
X120234767Y-80292965D01*
X120463575Y-80140080D01*
X120658160Y-79945495D01*
X120811045Y-79716687D01*
X120916354Y-79462450D01*
X120970040Y-79192552D01*
X120970040Y-78917368D01*
X120916354Y-78647470D01*
X120811045Y-78393233D01*
X120744045Y-78292960D01*
X123252968Y-78292960D01*
X123252968Y-79816960D01*
X123265228Y-79941442D01*
X123301538Y-80061140D01*
X123360503Y-80171454D01*
X123439855Y-80268145D01*
X123536546Y-80347497D01*
X123646860Y-80406462D01*
X123766558Y-80442772D01*
X123891040Y-80455032D01*
X125415040Y-80455032D01*
X125539522Y-80442772D01*
X125659220Y-80406462D01*
X125709287Y-80379700D01*
X169293008Y-80379700D01*
X169305268Y-80504182D01*
X169341578Y-80623880D01*
X169400543Y-80734194D01*
X169479895Y-80830885D01*
X169576586Y-80910237D01*
X169686900Y-80969202D01*
X169806598Y-81005512D01*
X169931080Y-81017772D01*
X170407330Y-81014700D01*
X170566080Y-80855950D01*
X170566080Y-78625700D01*
X170820080Y-78625700D01*
X170820080Y-80855950D01*
X170978830Y-81014700D01*
X171455080Y-81017772D01*
X171579562Y-81005512D01*
X171699260Y-80969202D01*
X171809574Y-80910237D01*
X171906265Y-80830885D01*
X171985617Y-80734194D01*
X172044582Y-80623880D01*
X172080892Y-80504182D01*
X172093152Y-80379700D01*
X172090080Y-78784450D01*
X172005630Y-78700000D01*
X179462643Y-78700000D01*
X179462643Y-81300000D01*
X179476680Y-81442517D01*
X179518250Y-81579557D01*
X179585757Y-81705853D01*
X179676606Y-81816554D01*
X179787307Y-81907403D01*
X179913603Y-81974910D01*
X180050643Y-82016480D01*
X180193160Y-82030517D01*
X182793160Y-82030517D01*
X182935677Y-82016480D01*
X183072717Y-81974910D01*
X183199013Y-81907403D01*
X183309714Y-81816554D01*
X183400563Y-81705853D01*
X183468070Y-81579557D01*
X183509640Y-81442517D01*
X183523677Y-81300000D01*
X183523677Y-78700000D01*
X183509640Y-78557483D01*
X183468070Y-78420443D01*
X183400563Y-78294147D01*
X183309714Y-78183446D01*
X183199013Y-78092597D01*
X183072717Y-78025090D01*
X182935677Y-77983520D01*
X182793160Y-77969483D01*
X180193160Y-77969483D01*
X180050643Y-77983520D01*
X179913603Y-78025090D01*
X179787307Y-78092597D01*
X179676606Y-78183446D01*
X179585757Y-78294147D01*
X179518250Y-78420443D01*
X179476680Y-78557483D01*
X179462643Y-78700000D01*
X172005630Y-78700000D01*
X171931330Y-78625700D01*
X170820080Y-78625700D01*
X170566080Y-78625700D01*
X169454830Y-78625700D01*
X169296080Y-78784450D01*
X169293008Y-80379700D01*
X125709287Y-80379700D01*
X125769534Y-80347497D01*
X125866225Y-80268145D01*
X125945577Y-80171454D01*
X126004542Y-80061140D01*
X126040852Y-79941442D01*
X126053112Y-79816960D01*
X126053112Y-78292960D01*
X126040852Y-78168478D01*
X126004542Y-78048780D01*
X125945577Y-77938466D01*
X125866225Y-77841775D01*
X125769534Y-77762423D01*
X125659220Y-77703458D01*
X125539522Y-77667148D01*
X125415040Y-77654888D01*
X123891040Y-77654888D01*
X123766558Y-77667148D01*
X123646860Y-77703458D01*
X123536546Y-77762423D01*
X123439855Y-77841775D01*
X123360503Y-77938466D01*
X123301538Y-78048780D01*
X123265228Y-78168478D01*
X123252968Y-78292960D01*
X120744045Y-78292960D01*
X120658160Y-78164425D01*
X120463575Y-77969840D01*
X120234767Y-77816955D01*
X119980530Y-77711646D01*
X119710632Y-77657960D01*
X119435448Y-77657960D01*
X119165550Y-77711646D01*
X118911313Y-77816955D01*
X118682505Y-77969840D01*
X118487920Y-78164425D01*
X118335035Y-78393233D01*
X118229726Y-78647470D01*
X118176040Y-78917368D01*
X115983444Y-78917368D01*
X116006780Y-78800055D01*
X116006780Y-78517385D01*
X115951633Y-78240146D01*
X115843460Y-77978993D01*
X115686417Y-77743961D01*
X115486539Y-77544083D01*
X115251507Y-77387040D01*
X114990354Y-77278867D01*
X114713115Y-77223720D01*
X114430445Y-77223720D01*
X114153206Y-77278867D01*
X113892053Y-77387040D01*
X113657021Y-77544083D01*
X113457143Y-77743961D01*
X113300100Y-77978993D01*
X113191927Y-78240146D01*
X113136780Y-78517385D01*
X109643382Y-78517385D01*
X109736038Y-78424729D01*
X109980631Y-78058669D01*
X110149110Y-77651925D01*
X110235000Y-77220128D01*
X110235000Y-76779872D01*
X110202742Y-76617700D01*
X169293008Y-76617700D01*
X169296080Y-78212950D01*
X169454830Y-78371700D01*
X170566080Y-78371700D01*
X170566080Y-76141450D01*
X170820080Y-76141450D01*
X170820080Y-78371700D01*
X171931330Y-78371700D01*
X172090080Y-78212950D01*
X172093152Y-76617700D01*
X172080892Y-76493218D01*
X172044582Y-76373520D01*
X171988834Y-76269224D01*
X180323541Y-76269224D01*
X180455477Y-76564312D01*
X180796205Y-76735159D01*
X181163717Y-76836250D01*
X181543889Y-76863701D01*
X181922111Y-76816457D01*
X182283850Y-76696333D01*
X182530843Y-76564312D01*
X182662779Y-76269224D01*
X181493160Y-75099605D01*
X180323541Y-76269224D01*
X171988834Y-76269224D01*
X171985617Y-76263206D01*
X171906265Y-76166515D01*
X171809574Y-76087163D01*
X171699260Y-76028198D01*
X171579562Y-75991888D01*
X171455080Y-75979628D01*
X170978830Y-75982700D01*
X170820080Y-76141450D01*
X170566080Y-76141450D01*
X170407330Y-75982700D01*
X169931080Y-75979628D01*
X169806598Y-75991888D01*
X169686900Y-76028198D01*
X169576586Y-76087163D01*
X169479895Y-76166515D01*
X169400543Y-76263206D01*
X169341578Y-76373520D01*
X169305268Y-76493218D01*
X169293008Y-76617700D01*
X110202742Y-76617700D01*
X110149110Y-76348075D01*
X109980631Y-75941331D01*
X109736038Y-75575271D01*
X109424729Y-75263962D01*
X109058669Y-75019369D01*
X108941242Y-74970729D01*
X179549459Y-74970729D01*
X179596703Y-75348951D01*
X179716827Y-75710690D01*
X179848848Y-75957683D01*
X180143936Y-76089619D01*
X181313555Y-74920000D01*
X181672765Y-74920000D01*
X182842384Y-76089619D01*
X183137472Y-75957683D01*
X183308319Y-75616955D01*
X183409410Y-75249443D01*
X183436861Y-74869271D01*
X183389617Y-74491049D01*
X183269493Y-74129310D01*
X183137472Y-73882317D01*
X182842384Y-73750381D01*
X181672765Y-74920000D01*
X181313555Y-74920000D01*
X180143936Y-73750381D01*
X179848848Y-73882317D01*
X179678001Y-74223045D01*
X179576910Y-74590557D01*
X179549459Y-74970729D01*
X108941242Y-74970729D01*
X108651925Y-74850890D01*
X108220128Y-74765000D01*
X107779872Y-74765000D01*
X107348075Y-74850890D01*
X106941331Y-75019369D01*
X106575271Y-75263962D01*
X106349800Y-75489433D01*
X106349800Y-73570776D01*
X180323541Y-73570776D01*
X181493160Y-74740395D01*
X182662779Y-73570776D01*
X182530843Y-73275688D01*
X182190115Y-73104841D01*
X181822603Y-73003750D01*
X181442431Y-72976299D01*
X181064209Y-73023543D01*
X180702470Y-73143667D01*
X180455477Y-73275688D01*
X180323541Y-73570776D01*
X106349800Y-73570776D01*
X106349800Y-70802161D01*
X133709460Y-70802161D01*
X133709460Y-71006039D01*
X133749234Y-71205998D01*
X133827255Y-71394356D01*
X133940523Y-71563874D01*
X134084686Y-71708037D01*
X134254204Y-71821305D01*
X134442562Y-71899326D01*
X134642521Y-71939100D01*
X134846399Y-71939100D01*
X135046358Y-71899326D01*
X135234716Y-71821305D01*
X135404234Y-71708037D01*
X135448171Y-71664100D01*
X160785318Y-71664100D01*
X160822640Y-71667776D01*
X160859962Y-71664100D01*
X166434278Y-71664100D01*
X166471600Y-71667776D01*
X166508922Y-71664100D01*
X166508933Y-71664100D01*
X166620586Y-71653103D01*
X166763847Y-71609646D01*
X166895876Y-71539074D01*
X167011601Y-71444101D01*
X167035404Y-71415097D01*
X167893162Y-70557340D01*
X167955299Y-70557340D01*
X168155258Y-70517566D01*
X168343616Y-70439545D01*
X168513134Y-70326277D01*
X168657297Y-70182114D01*
X168770565Y-70012596D01*
X168848586Y-69824238D01*
X168885161Y-69640358D01*
X179466160Y-69640358D01*
X179466160Y-70039642D01*
X179544056Y-70431254D01*
X179696856Y-70800145D01*
X179918686Y-71132137D01*
X180201023Y-71414474D01*
X180533015Y-71636304D01*
X180901906Y-71789104D01*
X181293518Y-71867000D01*
X181692802Y-71867000D01*
X182084414Y-71789104D01*
X182453305Y-71636304D01*
X182785297Y-71414474D01*
X183067634Y-71132137D01*
X183289464Y-70800145D01*
X183442264Y-70431254D01*
X183520160Y-70039642D01*
X183520160Y-69640358D01*
X183442264Y-69248746D01*
X183289464Y-68879855D01*
X183067634Y-68547863D01*
X182785297Y-68265526D01*
X182453305Y-68043696D01*
X182084414Y-67890896D01*
X181692802Y-67813000D01*
X181293518Y-67813000D01*
X180901906Y-67890896D01*
X180533015Y-68043696D01*
X180201023Y-68265526D01*
X179918686Y-68547863D01*
X179696856Y-68879855D01*
X179544056Y-69248746D01*
X179466160Y-69640358D01*
X168885161Y-69640358D01*
X168888360Y-69624279D01*
X168888360Y-69420401D01*
X168848586Y-69220442D01*
X168770565Y-69032084D01*
X168657297Y-68862566D01*
X168513134Y-68718403D01*
X168343616Y-68605135D01*
X168155258Y-68527114D01*
X167955299Y-68487340D01*
X167751421Y-68487340D01*
X167551462Y-68527114D01*
X167363104Y-68605135D01*
X167193586Y-68718403D01*
X167049423Y-68862566D01*
X166936155Y-69032084D01*
X166858134Y-69220442D01*
X166818360Y-69420401D01*
X166818360Y-69482538D01*
X166156799Y-70144100D01*
X160888290Y-70144100D01*
X160825179Y-70137884D01*
X160762068Y-70144100D01*
X135448171Y-70144100D01*
X135404234Y-70100163D01*
X135234716Y-69986895D01*
X135046358Y-69908874D01*
X134846399Y-69869100D01*
X134642521Y-69869100D01*
X134442562Y-69908874D01*
X134254204Y-69986895D01*
X134084686Y-70100163D01*
X133940523Y-70244326D01*
X133827255Y-70413844D01*
X133749234Y-70602202D01*
X133709460Y-70802161D01*
X106349800Y-70802161D01*
X106349800Y-68348324D01*
X113044780Y-68348324D01*
X113044780Y-68649116D01*
X113103461Y-68944130D01*
X113218570Y-69222026D01*
X113385681Y-69472126D01*
X113598374Y-69684819D01*
X113848474Y-69851930D01*
X114126370Y-69967039D01*
X114421384Y-70025720D01*
X114722176Y-70025720D01*
X115017190Y-69967039D01*
X115295086Y-69851930D01*
X115545186Y-69684819D01*
X115757879Y-69472126D01*
X115924990Y-69222026D01*
X116040099Y-68944130D01*
X116098780Y-68649116D01*
X116098780Y-68348324D01*
X116040099Y-68053310D01*
X115924990Y-67775414D01*
X115757879Y-67525314D01*
X115545186Y-67312621D01*
X115295086Y-67145510D01*
X115017190Y-67030401D01*
X114722176Y-66971720D01*
X114421384Y-66971720D01*
X114126370Y-67030401D01*
X113848474Y-67145510D01*
X113598374Y-67312621D01*
X113385681Y-67525314D01*
X113218570Y-67775414D01*
X113103461Y-68053310D01*
X113044780Y-68348324D01*
X106349800Y-68348324D01*
X106349800Y-66510567D01*
X106575271Y-66736038D01*
X106941331Y-66980631D01*
X107348075Y-67149110D01*
X107779872Y-67235000D01*
X108220128Y-67235000D01*
X108651925Y-67149110D01*
X109058669Y-66980631D01*
X109424729Y-66736038D01*
X109736038Y-66424729D01*
X109980631Y-66058669D01*
X110064115Y-65857120D01*
X189935885Y-65857120D01*
X190019369Y-66058669D01*
G37*
X190019369Y-66058669D02*
X190263962Y-66424729D01*
X190575271Y-66736038D01*
X190941331Y-66980631D01*
X191348075Y-67149110D01*
X191779872Y-67235000D01*
X192220128Y-67235000D01*
X192651925Y-67149110D01*
X193058669Y-66980631D01*
X193424729Y-66736038D01*
X193499740Y-66661027D01*
X193499740Y-75338973D01*
X193424729Y-75263962D01*
X193058669Y-75019369D01*
X192651925Y-74850890D01*
X192220128Y-74765000D01*
X191779872Y-74765000D01*
X191348075Y-74850890D01*
X190941331Y-75019369D01*
X190575271Y-75263962D01*
X190263962Y-75575271D01*
X190019369Y-75941331D01*
X189850890Y-76348075D01*
X189765000Y-76779872D01*
X189765000Y-77220128D01*
X189850890Y-77651925D01*
X190019369Y-78058669D01*
X190263962Y-78424729D01*
X190575271Y-78736038D01*
X190941331Y-78980631D01*
X191348075Y-79149110D01*
X191779872Y-79235000D01*
X192220128Y-79235000D01*
X192651925Y-79149110D01*
X193058669Y-78980631D01*
X193424729Y-78736038D01*
X193499740Y-78661027D01*
X193499740Y-84543900D01*
X172093152Y-84543900D01*
X172093152Y-83221700D01*
X172080892Y-83097218D01*
X172044582Y-82977520D01*
X171985617Y-82867206D01*
X171906265Y-82770515D01*
X171809574Y-82691163D01*
X171699260Y-82632198D01*
X171579562Y-82595888D01*
X171455080Y-82583628D01*
X169931080Y-82583628D01*
X169806598Y-82595888D01*
X169686900Y-82632198D01*
X169576586Y-82691163D01*
X169479895Y-82770515D01*
X169400543Y-82867206D01*
X169341578Y-82977520D01*
X169305268Y-83097218D01*
X169293008Y-83221700D01*
X169293008Y-84543900D01*
X139913070Y-84543900D01*
X139811166Y-84475810D01*
X139533270Y-84360701D01*
X139238256Y-84302020D01*
X138937464Y-84302020D01*
X138642450Y-84360701D01*
X138364554Y-84475810D01*
X138262650Y-84543900D01*
X106349800Y-84543900D01*
X106349800Y-81457368D01*
X120716040Y-81457368D01*
X120716040Y-81732552D01*
X120769726Y-82002450D01*
X120875035Y-82256687D01*
X121027920Y-82485495D01*
X121222505Y-82680080D01*
X121451313Y-82832965D01*
X121705550Y-82938274D01*
X121975448Y-82991960D01*
X122250632Y-82991960D01*
X122520530Y-82938274D01*
X122774767Y-82832965D01*
X123003575Y-82680080D01*
X123198160Y-82485495D01*
X123351045Y-82256687D01*
X123456354Y-82002450D01*
X123510040Y-81732552D01*
X123510040Y-81529020D01*
X137557343Y-81529020D01*
X137557343Y-83129020D01*
X137571380Y-83271537D01*
X137612950Y-83408577D01*
X137680457Y-83534873D01*
X137771306Y-83645574D01*
X137882007Y-83736423D01*
X138008303Y-83803930D01*
X138145343Y-83845500D01*
X138287860Y-83859537D01*
X139887860Y-83859537D01*
X140030377Y-83845500D01*
X140167417Y-83803930D01*
X140293713Y-83736423D01*
X140404414Y-83645574D01*
X140495263Y-83534873D01*
X140562770Y-83408577D01*
X140604340Y-83271537D01*
X140618377Y-83129020D01*
X140618377Y-81529020D01*
X140604340Y-81386503D01*
X140562770Y-81249463D01*
X140495263Y-81123167D01*
X140404414Y-81012466D01*
X140293713Y-80921617D01*
X140167417Y-80854110D01*
X140030377Y-80812540D01*
X139887860Y-80798503D01*
X138287860Y-80798503D01*
X138145343Y-80812540D01*
X138008303Y-80854110D01*
X137882007Y-80921617D01*
X137771306Y-81012466D01*
X137680457Y-81123167D01*
X137612950Y-81249463D01*
X137571380Y-81386503D01*
X137557343Y-81529020D01*
X123510040Y-81529020D01*
X123510040Y-81457368D01*
X123456354Y-81187470D01*
X123351045Y-80933233D01*
X123198160Y-80704425D01*
X123003575Y-80509840D01*
X122774767Y-80356955D01*
X122520530Y-80251646D01*
X122250632Y-80197960D01*
X121975448Y-80197960D01*
X121705550Y-80251646D01*
X121451313Y-80356955D01*
X121222505Y-80509840D01*
X121027920Y-80704425D01*
X120875035Y-80933233D01*
X120769726Y-81187470D01*
X120716040Y-81457368D01*
X106349800Y-81457368D01*
X106349800Y-78510567D01*
X106575271Y-78736038D01*
X106941331Y-78980631D01*
X107348075Y-79149110D01*
X107779872Y-79235000D01*
X108220128Y-79235000D01*
X108651925Y-79149110D01*
X109058669Y-78980631D01*
X109424729Y-78736038D01*
X109643382Y-78517385D01*
X113136780Y-78517385D01*
X113136780Y-78800055D01*
X113191927Y-79077294D01*
X113300100Y-79338447D01*
X113457143Y-79573479D01*
X113657021Y-79773357D01*
X113892053Y-79930400D01*
X114153206Y-80038573D01*
X114430445Y-80093720D01*
X114713115Y-80093720D01*
X114990354Y-80038573D01*
X115251507Y-79930400D01*
X115486539Y-79773357D01*
X115686417Y-79573479D01*
X115843460Y-79338447D01*
X115951633Y-79077294D01*
X115983444Y-78917368D01*
X118176040Y-78917368D01*
X118176040Y-79192552D01*
X118229726Y-79462450D01*
X118335035Y-79716687D01*
X118487920Y-79945495D01*
X118682505Y-80140080D01*
X118911313Y-80292965D01*
X119165550Y-80398274D01*
X119435448Y-80451960D01*
X119710632Y-80451960D01*
X119980530Y-80398274D01*
X120234767Y-80292965D01*
X120463575Y-80140080D01*
X120658160Y-79945495D01*
X120811045Y-79716687D01*
X120916354Y-79462450D01*
X120970040Y-79192552D01*
X120970040Y-78917368D01*
X120916354Y-78647470D01*
X120811045Y-78393233D01*
X120744045Y-78292960D01*
X123252968Y-78292960D01*
X123252968Y-79816960D01*
X123265228Y-79941442D01*
X123301538Y-80061140D01*
X123360503Y-80171454D01*
X123439855Y-80268145D01*
X123536546Y-80347497D01*
X123646860Y-80406462D01*
X123766558Y-80442772D01*
X123891040Y-80455032D01*
X125415040Y-80455032D01*
X125539522Y-80442772D01*
X125659220Y-80406462D01*
X125709287Y-80379700D01*
X169293008Y-80379700D01*
X169305268Y-80504182D01*
X169341578Y-80623880D01*
X169400543Y-80734194D01*
X169479895Y-80830885D01*
X169576586Y-80910237D01*
X169686900Y-80969202D01*
X169806598Y-81005512D01*
X169931080Y-81017772D01*
X170407330Y-81014700D01*
X170566080Y-80855950D01*
X170566080Y-78625700D01*
X170820080Y-78625700D01*
X170820080Y-80855950D01*
X170978830Y-81014700D01*
X171455080Y-81017772D01*
X171579562Y-81005512D01*
X171699260Y-80969202D01*
X171809574Y-80910237D01*
X171906265Y-80830885D01*
X171985617Y-80734194D01*
X172044582Y-80623880D01*
X172080892Y-80504182D01*
X172093152Y-80379700D01*
X172090080Y-78784450D01*
X172005630Y-78700000D01*
X179462643Y-78700000D01*
X179462643Y-81300000D01*
X179476680Y-81442517D01*
X179518250Y-81579557D01*
X179585757Y-81705853D01*
X179676606Y-81816554D01*
X179787307Y-81907403D01*
X179913603Y-81974910D01*
X180050643Y-82016480D01*
X180193160Y-82030517D01*
X182793160Y-82030517D01*
X182935677Y-82016480D01*
X183072717Y-81974910D01*
X183199013Y-81907403D01*
X183309714Y-81816554D01*
X183400563Y-81705853D01*
X183468070Y-81579557D01*
X183509640Y-81442517D01*
X183523677Y-81300000D01*
X183523677Y-78700000D01*
X183509640Y-78557483D01*
X183468070Y-78420443D01*
X183400563Y-78294147D01*
X183309714Y-78183446D01*
X183199013Y-78092597D01*
X183072717Y-78025090D01*
X182935677Y-77983520D01*
X182793160Y-77969483D01*
X180193160Y-77969483D01*
X180050643Y-77983520D01*
X179913603Y-78025090D01*
X179787307Y-78092597D01*
X179676606Y-78183446D01*
X179585757Y-78294147D01*
X179518250Y-78420443D01*
X179476680Y-78557483D01*
X179462643Y-78700000D01*
X172005630Y-78700000D01*
X171931330Y-78625700D01*
X170820080Y-78625700D01*
X170566080Y-78625700D01*
X169454830Y-78625700D01*
X169296080Y-78784450D01*
X169293008Y-80379700D01*
X125709287Y-80379700D01*
X125769534Y-80347497D01*
X125866225Y-80268145D01*
X125945577Y-80171454D01*
X126004542Y-80061140D01*
X126040852Y-79941442D01*
X126053112Y-79816960D01*
X126053112Y-78292960D01*
X126040852Y-78168478D01*
X126004542Y-78048780D01*
X125945577Y-77938466D01*
X125866225Y-77841775D01*
X125769534Y-77762423D01*
X125659220Y-77703458D01*
X125539522Y-77667148D01*
X125415040Y-77654888D01*
X123891040Y-77654888D01*
X123766558Y-77667148D01*
X123646860Y-77703458D01*
X123536546Y-77762423D01*
X123439855Y-77841775D01*
X123360503Y-77938466D01*
X123301538Y-78048780D01*
X123265228Y-78168478D01*
X123252968Y-78292960D01*
X120744045Y-78292960D01*
X120658160Y-78164425D01*
X120463575Y-77969840D01*
X120234767Y-77816955D01*
X119980530Y-77711646D01*
X119710632Y-77657960D01*
X119435448Y-77657960D01*
X119165550Y-77711646D01*
X118911313Y-77816955D01*
X118682505Y-77969840D01*
X118487920Y-78164425D01*
X118335035Y-78393233D01*
X118229726Y-78647470D01*
X118176040Y-78917368D01*
X115983444Y-78917368D01*
X116006780Y-78800055D01*
X116006780Y-78517385D01*
X115951633Y-78240146D01*
X115843460Y-77978993D01*
X115686417Y-77743961D01*
X115486539Y-77544083D01*
X115251507Y-77387040D01*
X114990354Y-77278867D01*
X114713115Y-77223720D01*
X114430445Y-77223720D01*
X114153206Y-77278867D01*
X113892053Y-77387040D01*
X113657021Y-77544083D01*
X113457143Y-77743961D01*
X113300100Y-77978993D01*
X113191927Y-78240146D01*
X113136780Y-78517385D01*
X109643382Y-78517385D01*
X109736038Y-78424729D01*
X109980631Y-78058669D01*
X110149110Y-77651925D01*
X110235000Y-77220128D01*
X110235000Y-76779872D01*
X110202742Y-76617700D01*
X169293008Y-76617700D01*
X169296080Y-78212950D01*
X169454830Y-78371700D01*
X170566080Y-78371700D01*
X170566080Y-76141450D01*
X170820080Y-76141450D01*
X170820080Y-78371700D01*
X171931330Y-78371700D01*
X172090080Y-78212950D01*
X172093152Y-76617700D01*
X172080892Y-76493218D01*
X172044582Y-76373520D01*
X171988834Y-76269224D01*
X180323541Y-76269224D01*
X180455477Y-76564312D01*
X180796205Y-76735159D01*
X181163717Y-76836250D01*
X181543889Y-76863701D01*
X181922111Y-76816457D01*
X182283850Y-76696333D01*
X182530843Y-76564312D01*
X182662779Y-76269224D01*
X181493160Y-75099605D01*
X180323541Y-76269224D01*
X171988834Y-76269224D01*
X171985617Y-76263206D01*
X171906265Y-76166515D01*
X171809574Y-76087163D01*
X171699260Y-76028198D01*
X171579562Y-75991888D01*
X171455080Y-75979628D01*
X170978830Y-75982700D01*
X170820080Y-76141450D01*
X170566080Y-76141450D01*
X170407330Y-75982700D01*
X169931080Y-75979628D01*
X169806598Y-75991888D01*
X169686900Y-76028198D01*
X169576586Y-76087163D01*
X169479895Y-76166515D01*
X169400543Y-76263206D01*
X169341578Y-76373520D01*
X169305268Y-76493218D01*
X169293008Y-76617700D01*
X110202742Y-76617700D01*
X110149110Y-76348075D01*
X109980631Y-75941331D01*
X109736038Y-75575271D01*
X109424729Y-75263962D01*
X109058669Y-75019369D01*
X108941242Y-74970729D01*
X179549459Y-74970729D01*
X179596703Y-75348951D01*
X179716827Y-75710690D01*
X179848848Y-75957683D01*
X180143936Y-76089619D01*
X181313555Y-74920000D01*
X181672765Y-74920000D01*
X182842384Y-76089619D01*
X183137472Y-75957683D01*
X183308319Y-75616955D01*
X183409410Y-75249443D01*
X183436861Y-74869271D01*
X183389617Y-74491049D01*
X183269493Y-74129310D01*
X183137472Y-73882317D01*
X182842384Y-73750381D01*
X181672765Y-74920000D01*
X181313555Y-74920000D01*
X180143936Y-73750381D01*
X179848848Y-73882317D01*
X179678001Y-74223045D01*
X179576910Y-74590557D01*
X179549459Y-74970729D01*
X108941242Y-74970729D01*
X108651925Y-74850890D01*
X108220128Y-74765000D01*
X107779872Y-74765000D01*
X107348075Y-74850890D01*
X106941331Y-75019369D01*
X106575271Y-75263962D01*
X106349800Y-75489433D01*
X106349800Y-73570776D01*
X180323541Y-73570776D01*
X181493160Y-74740395D01*
X182662779Y-73570776D01*
X182530843Y-73275688D01*
X182190115Y-73104841D01*
X181822603Y-73003750D01*
X181442431Y-72976299D01*
X181064209Y-73023543D01*
X180702470Y-73143667D01*
X180455477Y-73275688D01*
X180323541Y-73570776D01*
X106349800Y-73570776D01*
X106349800Y-70802161D01*
X133709460Y-70802161D01*
X133709460Y-71006039D01*
X133749234Y-71205998D01*
X133827255Y-71394356D01*
X133940523Y-71563874D01*
X134084686Y-71708037D01*
X134254204Y-71821305D01*
X134442562Y-71899326D01*
X134642521Y-71939100D01*
X134846399Y-71939100D01*
X135046358Y-71899326D01*
X135234716Y-71821305D01*
X135404234Y-71708037D01*
X135448171Y-71664100D01*
X160785318Y-71664100D01*
X160822640Y-71667776D01*
X160859962Y-71664100D01*
X166434278Y-71664100D01*
X166471600Y-71667776D01*
X166508922Y-71664100D01*
X166508933Y-71664100D01*
X166620586Y-71653103D01*
X166763847Y-71609646D01*
X166895876Y-71539074D01*
X167011601Y-71444101D01*
X167035404Y-71415097D01*
X167893162Y-70557340D01*
X167955299Y-70557340D01*
X168155258Y-70517566D01*
X168343616Y-70439545D01*
X168513134Y-70326277D01*
X168657297Y-70182114D01*
X168770565Y-70012596D01*
X168848586Y-69824238D01*
X168885161Y-69640358D01*
X179466160Y-69640358D01*
X179466160Y-70039642D01*
X179544056Y-70431254D01*
X179696856Y-70800145D01*
X179918686Y-71132137D01*
X180201023Y-71414474D01*
X180533015Y-71636304D01*
X180901906Y-71789104D01*
X181293518Y-71867000D01*
X181692802Y-71867000D01*
X182084414Y-71789104D01*
X182453305Y-71636304D01*
X182785297Y-71414474D01*
X183067634Y-71132137D01*
X183289464Y-70800145D01*
X183442264Y-70431254D01*
X183520160Y-70039642D01*
X183520160Y-69640358D01*
X183442264Y-69248746D01*
X183289464Y-68879855D01*
X183067634Y-68547863D01*
X182785297Y-68265526D01*
X182453305Y-68043696D01*
X182084414Y-67890896D01*
X181692802Y-67813000D01*
X181293518Y-67813000D01*
X180901906Y-67890896D01*
X180533015Y-68043696D01*
X180201023Y-68265526D01*
X179918686Y-68547863D01*
X179696856Y-68879855D01*
X179544056Y-69248746D01*
X179466160Y-69640358D01*
X168885161Y-69640358D01*
X168888360Y-69624279D01*
X168888360Y-69420401D01*
X168848586Y-69220442D01*
X168770565Y-69032084D01*
X168657297Y-68862566D01*
X168513134Y-68718403D01*
X168343616Y-68605135D01*
X168155258Y-68527114D01*
X167955299Y-68487340D01*
X167751421Y-68487340D01*
X167551462Y-68527114D01*
X167363104Y-68605135D01*
X167193586Y-68718403D01*
X167049423Y-68862566D01*
X166936155Y-69032084D01*
X166858134Y-69220442D01*
X166818360Y-69420401D01*
X166818360Y-69482538D01*
X166156799Y-70144100D01*
X160888290Y-70144100D01*
X160825179Y-70137884D01*
X160762068Y-70144100D01*
X135448171Y-70144100D01*
X135404234Y-70100163D01*
X135234716Y-69986895D01*
X135046358Y-69908874D01*
X134846399Y-69869100D01*
X134642521Y-69869100D01*
X134442562Y-69908874D01*
X134254204Y-69986895D01*
X134084686Y-70100163D01*
X133940523Y-70244326D01*
X133827255Y-70413844D01*
X133749234Y-70602202D01*
X133709460Y-70802161D01*
X106349800Y-70802161D01*
X106349800Y-68348324D01*
X113044780Y-68348324D01*
X113044780Y-68649116D01*
X113103461Y-68944130D01*
X113218570Y-69222026D01*
X113385681Y-69472126D01*
X113598374Y-69684819D01*
X113848474Y-69851930D01*
X114126370Y-69967039D01*
X114421384Y-70025720D01*
X114722176Y-70025720D01*
X115017190Y-69967039D01*
X115295086Y-69851930D01*
X115545186Y-69684819D01*
X115757879Y-69472126D01*
X115924990Y-69222026D01*
X116040099Y-68944130D01*
X116098780Y-68649116D01*
X116098780Y-68348324D01*
X116040099Y-68053310D01*
X115924990Y-67775414D01*
X115757879Y-67525314D01*
X115545186Y-67312621D01*
X115295086Y-67145510D01*
X115017190Y-67030401D01*
X114722176Y-66971720D01*
X114421384Y-66971720D01*
X114126370Y-67030401D01*
X113848474Y-67145510D01*
X113598374Y-67312621D01*
X113385681Y-67525314D01*
X113218570Y-67775414D01*
X113103461Y-68053310D01*
X113044780Y-68348324D01*
X106349800Y-68348324D01*
X106349800Y-66510567D01*
X106575271Y-66736038D01*
X106941331Y-66980631D01*
X107348075Y-67149110D01*
X107779872Y-67235000D01*
X108220128Y-67235000D01*
X108651925Y-67149110D01*
X109058669Y-66980631D01*
X109424729Y-66736038D01*
X109736038Y-66424729D01*
X109980631Y-66058669D01*
X110064115Y-65857120D01*
X189935885Y-65857120D01*
X190019369Y-66058669D01*
G36*
X198409560Y-148742400D02*
G01*
X163833940Y-148742400D01*
X163851300Y-148655124D01*
X163851300Y-148423276D01*
X163806069Y-148195882D01*
X163717344Y-147981681D01*
X163588536Y-147788906D01*
X163424594Y-147624964D01*
X163231819Y-147496156D01*
X163017618Y-147407431D01*
X162790224Y-147362200D01*
X162558376Y-147362200D01*
X162330982Y-147407431D01*
X162116781Y-147496156D01*
X161924006Y-147624964D01*
X161886770Y-147662200D01*
X158724355Y-147662200D01*
X158799180Y-147639502D01*
X158909494Y-147580537D01*
X159006185Y-147501185D01*
X159085537Y-147404494D01*
X159144502Y-147294180D01*
X159180812Y-147174482D01*
X159193072Y-147050000D01*
X159193072Y-146310000D01*
X167807356Y-146310000D01*
X167935934Y-146349003D01*
X168047587Y-146360000D01*
X168047595Y-146360000D01*
X168084920Y-146363676D01*
X168122245Y-146360000D01*
X170913509Y-146360000D01*
X170937546Y-146384037D01*
X171107064Y-146497305D01*
X171295422Y-146575326D01*
X171495381Y-146615100D01*
X171699259Y-146615100D01*
X171899218Y-146575326D01*
X172087576Y-146497305D01*
X172257094Y-146384037D01*
X172401257Y-146239874D01*
X172514525Y-146070356D01*
X172592546Y-145881998D01*
X172632320Y-145682039D01*
X172632320Y-145478161D01*
X172592546Y-145278202D01*
X172514525Y-145089844D01*
X172401257Y-144920326D01*
X172257094Y-144776163D01*
X172129052Y-144690609D01*
X172819522Y-144000139D01*
X172848521Y-143976341D01*
X172943494Y-143860616D01*
X173014066Y-143728587D01*
X173057523Y-143585326D01*
X173068520Y-143473673D01*
X173068520Y-143473664D01*
X173072196Y-143436341D01*
X173068520Y-143399018D01*
X173068520Y-140321057D01*
X173200024Y-140408925D01*
X173388382Y-140486946D01*
X173588341Y-140526720D01*
X173792219Y-140526720D01*
X173992178Y-140486946D01*
X174180536Y-140408925D01*
X174350054Y-140295657D01*
X174494217Y-140151494D01*
X174607485Y-139981976D01*
X174685506Y-139793618D01*
X174725280Y-139593659D01*
X174725280Y-139389781D01*
X174685506Y-139189822D01*
X174607485Y-139001464D01*
X174494217Y-138831946D01*
X174350054Y-138687783D01*
X174180536Y-138574515D01*
X173992178Y-138496494D01*
X173792219Y-138456720D01*
X173588341Y-138456720D01*
X173388382Y-138496494D01*
X173200024Y-138574515D01*
X173068520Y-138662383D01*
X173068520Y-136779872D01*
X189765000Y-136779872D01*
X189765000Y-137220128D01*
X189850890Y-137651925D01*
X190019369Y-138058669D01*
X190263962Y-138424729D01*
X190575271Y-138736038D01*
X190941331Y-138980631D01*
X191348075Y-139149110D01*
X191779872Y-139235000D01*
X192220128Y-139235000D01*
X192651925Y-139149110D01*
X193058669Y-138980631D01*
X193424729Y-138736038D01*
X193736038Y-138424729D01*
X193980631Y-138058669D01*
X194149110Y-137651925D01*
X194235000Y-137220128D01*
X194235000Y-136779872D01*
X194149110Y-136348075D01*
X193980631Y-135941331D01*
X193736038Y-135575271D01*
X193424729Y-135263962D01*
X193058669Y-135019369D01*
X192651925Y-134850890D01*
X192220128Y-134765000D01*
X191779872Y-134765000D01*
X191348075Y-134850890D01*
X190941331Y-135019369D01*
X190575271Y-135263962D01*
X190263962Y-135575271D01*
X190019369Y-135941331D01*
X189850890Y-136348075D01*
X189765000Y-136779872D01*
X173068520Y-136779872D01*
X173068520Y-136620743D01*
X173072196Y-136583420D01*
X173068520Y-136546097D01*
X173068520Y-136546087D01*
X173057523Y-136434434D01*
X173014066Y-136291173D01*
X172943494Y-136159144D01*
X172848521Y-136043419D01*
X172819518Y-136019617D01*
X172453224Y-135653323D01*
X172429421Y-135624319D01*
X172313696Y-135529346D01*
X172181667Y-135458774D01*
X172038406Y-135415317D01*
X171926753Y-135404320D01*
X171926742Y-135404320D01*
X171889420Y-135400644D01*
X171852098Y-135404320D01*
X170036983Y-135404320D01*
X169999660Y-135400644D01*
X169962337Y-135404320D01*
X169962327Y-135404320D01*
X169850674Y-135415317D01*
X169707413Y-135458774D01*
X169575384Y-135529346D01*
X169459659Y-135624319D01*
X169435856Y-135653323D01*
X169072098Y-136017081D01*
X169043100Y-136040879D01*
X169019302Y-136069877D01*
X169019301Y-136069878D01*
X168948126Y-136156604D01*
X168877554Y-136288634D01*
X168834098Y-136431895D01*
X168819424Y-136580880D01*
X168823101Y-136618212D01*
X168823100Y-141628018D01*
X168254218Y-142196901D01*
X168225220Y-142220699D01*
X168201422Y-142249697D01*
X168201421Y-142249698D01*
X168130246Y-142336424D01*
X168059674Y-142468454D01*
X168016218Y-142611715D01*
X168001544Y-142760700D01*
X168005221Y-142798032D01*
X168005220Y-144486137D01*
X168001544Y-144523460D01*
X168005220Y-144560782D01*
X168005220Y-144560792D01*
X168009175Y-144600944D01*
X167820119Y-144790000D01*
X159193072Y-144790000D01*
X159193072Y-144050000D01*
X159180812Y-143925518D01*
X159144502Y-143805820D01*
X159085537Y-143695506D01*
X159006185Y-143598815D01*
X158909494Y-143519463D01*
X158799180Y-143460498D01*
X158679482Y-143424188D01*
X158555000Y-143411928D01*
X157055000Y-143411928D01*
X156930518Y-143424188D01*
X156884315Y-143438204D01*
X156838766Y-143400823D01*
X156703784Y-143328673D01*
X156557319Y-143284243D01*
X156405000Y-143269241D01*
X155605000Y-143269241D01*
X155452681Y-143284243D01*
X155306216Y-143328673D01*
X155171234Y-143400823D01*
X155052920Y-143497920D01*
X154955823Y-143616234D01*
X154883673Y-143751216D01*
X154839243Y-143897681D01*
X154824241Y-144050000D01*
X154824241Y-147050000D01*
X154839243Y-147202319D01*
X154883673Y-147348784D01*
X154955823Y-147483766D01*
X155052920Y-147602080D01*
X155135485Y-147669838D01*
X155135690Y-147671924D01*
X155185838Y-147837238D01*
X155267274Y-147989594D01*
X155349406Y-148089673D01*
X155349412Y-148089679D01*
X155376868Y-148123134D01*
X155410322Y-148150589D01*
X156002132Y-148742400D01*
X150569879Y-148742400D01*
X150569879Y-147599820D01*
X150554877Y-147447501D01*
X150510447Y-147301036D01*
X150438297Y-147166054D01*
X150341200Y-147047740D01*
X150222886Y-146950643D01*
X150087904Y-146878493D01*
X149941439Y-146834063D01*
X149789120Y-146819061D01*
X149438822Y-146819061D01*
X149412253Y-146786687D01*
X149378788Y-146759223D01*
X148288177Y-145668612D01*
X148260713Y-145635147D01*
X148127172Y-145525553D01*
X147974817Y-145444118D01*
X147809502Y-145393970D01*
X147680659Y-145381280D01*
X147637580Y-145377037D01*
X147594501Y-145381280D01*
X146456530Y-145381280D01*
X146419294Y-145344044D01*
X146226519Y-145215236D01*
X146012318Y-145126511D01*
X145784924Y-145081280D01*
X145553076Y-145081280D01*
X145325682Y-145126511D01*
X145111481Y-145215236D01*
X144918706Y-145344044D01*
X144754764Y-145507986D01*
X144625956Y-145700761D01*
X144537231Y-145914962D01*
X144492000Y-146142356D01*
X144492000Y-146374204D01*
X144537231Y-146601598D01*
X144625956Y-146815799D01*
X144754764Y-147008574D01*
X144918706Y-147172516D01*
X145111481Y-147301324D01*
X145325682Y-147390049D01*
X145553076Y-147435280D01*
X145784924Y-147435280D01*
X146012318Y-147390049D01*
X146226519Y-147301324D01*
X146419294Y-147172516D01*
X146456530Y-147135280D01*
X147165198Y-147135280D01*
X147139943Y-147166054D01*
X147067793Y-147301036D01*
X147023363Y-147447501D01*
X147008361Y-147599820D01*
X147008361Y-148742400D01*
X101732080Y-148742400D01*
X101732080Y-141226540D01*
X142243403Y-141226540D01*
X142258077Y-141375526D01*
X142301534Y-141518787D01*
X142372106Y-141650816D01*
X142467079Y-141766541D01*
X142581069Y-141860090D01*
X143964741Y-143243763D01*
X143988539Y-143272761D01*
X144104264Y-143367734D01*
X144236293Y-143438306D01*
X144379554Y-143481763D01*
X144491207Y-143492760D01*
X144491215Y-143492760D01*
X144528540Y-143496436D01*
X144565865Y-143492760D01*
X145753598Y-143492760D01*
X145790920Y-143496436D01*
X145828242Y-143492760D01*
X145828253Y-143492760D01*
X145939906Y-143481763D01*
X146083167Y-143438306D01*
X146215196Y-143367734D01*
X146330921Y-143272761D01*
X146354723Y-143243758D01*
X146593481Y-143005000D01*
X147612837Y-143005000D01*
X147619188Y-143069482D01*
X147655498Y-143189180D01*
X147714463Y-143299494D01*
X147793815Y-143396185D01*
X147890506Y-143475537D01*
X148000820Y-143534502D01*
X148120518Y-143570812D01*
X148245000Y-143583072D01*
X149445000Y-143583072D01*
X149569482Y-143570812D01*
X149689180Y-143534502D01*
X149799494Y-143475537D01*
X149896185Y-143396185D01*
X149975537Y-143299494D01*
X150034502Y-143189180D01*
X150049540Y-143139605D01*
X150083484Y-143162285D01*
X150271842Y-143240306D01*
X150471801Y-143280080D01*
X150675679Y-143280080D01*
X150875638Y-143240306D01*
X151063996Y-143162285D01*
X151233514Y-143049017D01*
X151377677Y-142904854D01*
X151490945Y-142735336D01*
X151568966Y-142546978D01*
X151608740Y-142347019D01*
X151608740Y-142143141D01*
X151568966Y-141943182D01*
X151490945Y-141754824D01*
X151377677Y-141585306D01*
X151233514Y-141441143D01*
X151063996Y-141327875D01*
X150875638Y-141249854D01*
X150675679Y-141210080D01*
X150471801Y-141210080D01*
X150271842Y-141249854D01*
X150083484Y-141327875D01*
X150049581Y-141350528D01*
X150034502Y-141300820D01*
X149975537Y-141190506D01*
X149896185Y-141093815D01*
X149799494Y-141014463D01*
X149689180Y-140955498D01*
X149569482Y-140919188D01*
X149445000Y-140906928D01*
X148245000Y-140906928D01*
X148120518Y-140919188D01*
X148000820Y-140955498D01*
X147890506Y-141014463D01*
X147793815Y-141093815D01*
X147714463Y-141190506D01*
X147655498Y-141300820D01*
X147619188Y-141420518D01*
X147612837Y-141485000D01*
X147251960Y-141485000D01*
X147251960Y-141207983D01*
X147255636Y-141170660D01*
X147251960Y-141133337D01*
X147251960Y-141133327D01*
X147240963Y-141021674D01*
X147197506Y-140878413D01*
X147139011Y-140768978D01*
X147126934Y-140746383D01*
X147055759Y-140659657D01*
X147031961Y-140630659D01*
X147002962Y-140606860D01*
X146761243Y-140365141D01*
X166041120Y-140365141D01*
X166041120Y-140569019D01*
X166080894Y-140768978D01*
X166158915Y-140957336D01*
X166272183Y-141126854D01*
X166416346Y-141271017D01*
X166585864Y-141384285D01*
X166774222Y-141462306D01*
X166974181Y-141502080D01*
X167178059Y-141502080D01*
X167378018Y-141462306D01*
X167566376Y-141384285D01*
X167735894Y-141271017D01*
X167880057Y-141126854D01*
X167993325Y-140957336D01*
X168071346Y-140768978D01*
X168111120Y-140569019D01*
X168111120Y-140365141D01*
X168071346Y-140165182D01*
X167993325Y-139976824D01*
X167880057Y-139807306D01*
X167735894Y-139663143D01*
X167566376Y-139549875D01*
X167378018Y-139471854D01*
X167178059Y-139432080D01*
X166974181Y-139432080D01*
X166774222Y-139471854D01*
X166585864Y-139549875D01*
X166416346Y-139663143D01*
X166272183Y-139807306D01*
X166158915Y-139976824D01*
X166080894Y-140165182D01*
X166041120Y-140365141D01*
X146761243Y-140365141D01*
X146634740Y-140238639D01*
X146634740Y-133844525D01*
X146638416Y-133807200D01*
X146634740Y-133769875D01*
X146634740Y-133769867D01*
X146623743Y-133658214D01*
X146580286Y-133514953D01*
X146509714Y-133382924D01*
X146414741Y-133267199D01*
X146385743Y-133243401D01*
X145427624Y-132285282D01*
X145403821Y-132256279D01*
X145288096Y-132161306D01*
X145156067Y-132090734D01*
X145012806Y-132047277D01*
X144901153Y-132036280D01*
X144901142Y-132036280D01*
X144863820Y-132032604D01*
X144826498Y-132036280D01*
X143963882Y-132036280D01*
X143926559Y-132032604D01*
X143889236Y-132036280D01*
X143889227Y-132036280D01*
X143777574Y-132047277D01*
X143634313Y-132090734D01*
X143502283Y-132161306D01*
X143418643Y-132229948D01*
X143386559Y-132256279D01*
X143362761Y-132285277D01*
X142496082Y-133151957D01*
X142467079Y-133175759D01*
X142430315Y-133220557D01*
X142372106Y-133291484D01*
X142323230Y-133382924D01*
X142301534Y-133423514D01*
X142258077Y-133566775D01*
X142247080Y-133678428D01*
X142247080Y-133678438D01*
X142243404Y-133715760D01*
X142247080Y-133753082D01*
X142247081Y-141189197D01*
X142243403Y-141226540D01*
X101732080Y-141226540D01*
X101732080Y-136779872D01*
X105765000Y-136779872D01*
X105765000Y-137220128D01*
X105850890Y-137651925D01*
X106019369Y-138058669D01*
X106263962Y-138424729D01*
X106575271Y-138736038D01*
X106941331Y-138980631D01*
X107348075Y-139149110D01*
X107779872Y-139235000D01*
X108220128Y-139235000D01*
X108651925Y-139149110D01*
X109058669Y-138980631D01*
X109424729Y-138736038D01*
X109736038Y-138424729D01*
X109980631Y-138058669D01*
X110149110Y-137651925D01*
X110235000Y-137220128D01*
X110235000Y-136779872D01*
X110149110Y-136348075D01*
X109980631Y-135941331D01*
X109736038Y-135575271D01*
X109424729Y-135263962D01*
X109058669Y-135019369D01*
X108651925Y-134850890D01*
X108220128Y-134765000D01*
X107779872Y-134765000D01*
X107348075Y-134850890D01*
X106941331Y-135019369D01*
X106575271Y-135263962D01*
X106263962Y-135575271D01*
X106019369Y-135941331D01*
X105850890Y-136348075D01*
X105765000Y-136779872D01*
X101732080Y-136779872D01*
X101732080Y-128229844D01*
X131768901Y-128229844D01*
X131900837Y-128524932D01*
X132241565Y-128695779D01*
X132609077Y-128796870D01*
X132989249Y-128824321D01*
X133367471Y-128777077D01*
X133729210Y-128656953D01*
X133976203Y-128524932D01*
X134108139Y-128229844D01*
X132938520Y-127060225D01*
X131768901Y-128229844D01*
X101732080Y-128229844D01*
X101732080Y-124779872D01*
X105765000Y-124779872D01*
X105765000Y-125220128D01*
X105850890Y-125651925D01*
X106019369Y-126058669D01*
X106263962Y-126424729D01*
X106575271Y-126736038D01*
X106941331Y-126980631D01*
X107348075Y-127149110D01*
X107779872Y-127235000D01*
X108220128Y-127235000D01*
X108651925Y-127149110D01*
X109058669Y-126980631D01*
X109132424Y-126931349D01*
X130994819Y-126931349D01*
X131042063Y-127309571D01*
X131162187Y-127671310D01*
X131294208Y-127918303D01*
X131589296Y-128050239D01*
X132758915Y-126880620D01*
X133118125Y-126880620D01*
X134287744Y-128050239D01*
X134582832Y-127918303D01*
X134753679Y-127577575D01*
X134854770Y-127210063D01*
X134882221Y-126829891D01*
X134834977Y-126451669D01*
X134714853Y-126089930D01*
X134582832Y-125842937D01*
X134287744Y-125711001D01*
X133118125Y-126880620D01*
X132758915Y-126880620D01*
X131589296Y-125711001D01*
X131294208Y-125842937D01*
X131123361Y-126183665D01*
X131022270Y-126551177D01*
X130994819Y-126931349D01*
X109132424Y-126931349D01*
X109424729Y-126736038D01*
X109736038Y-126424729D01*
X109980631Y-126058669D01*
X110149110Y-125651925D01*
X110173084Y-125531396D01*
X131768901Y-125531396D01*
X132938520Y-126701015D01*
X134058915Y-125580620D01*
X136080448Y-125580620D01*
X136080448Y-128180620D01*
X136092708Y-128305102D01*
X136129018Y-128424800D01*
X136187983Y-128535114D01*
X136267335Y-128631805D01*
X136364026Y-128711157D01*
X136474340Y-128770122D01*
X136594038Y-128806432D01*
X136718520Y-128818692D01*
X139318520Y-128818692D01*
X139443002Y-128806432D01*
X139562700Y-128770122D01*
X139673014Y-128711157D01*
X139769705Y-128631805D01*
X139849057Y-128535114D01*
X139908022Y-128424800D01*
X139944332Y-128305102D01*
X139956592Y-128180620D01*
X139956592Y-126676053D01*
X144053010Y-126676053D01*
X144053010Y-127085187D01*
X144132828Y-127486459D01*
X144289396Y-127864449D01*
X144516699Y-128204631D01*
X144805999Y-128493931D01*
X145146181Y-128721234D01*
X145524171Y-128877802D01*
X145925443Y-128957620D01*
X146334577Y-128957620D01*
X146735849Y-128877802D01*
X147113839Y-128721234D01*
X147454021Y-128493931D01*
X147743321Y-128204631D01*
X147970624Y-127864449D01*
X148127192Y-127486459D01*
X148207010Y-127085187D01*
X148207010Y-126676053D01*
X149133010Y-126676053D01*
X149133010Y-127085187D01*
X149212828Y-127486459D01*
X149369396Y-127864449D01*
X149596699Y-128204631D01*
X149885999Y-128493931D01*
X150226181Y-128721234D01*
X150604171Y-128877802D01*
X151005443Y-128957620D01*
X151414577Y-128957620D01*
X151815849Y-128877802D01*
X152193839Y-128721234D01*
X152534021Y-128493931D01*
X152823321Y-128204631D01*
X152839364Y-128180620D01*
X154351938Y-128180620D01*
X154364198Y-128305102D01*
X154400508Y-128424800D01*
X154459473Y-128535114D01*
X154538825Y-128631805D01*
X154635516Y-128711157D01*
X154745830Y-128770122D01*
X154865528Y-128806432D01*
X154990010Y-128818692D01*
X156004260Y-128815620D01*
X156163010Y-128656870D01*
X156163010Y-127007620D01*
X156417010Y-127007620D01*
X156417010Y-128656870D01*
X156575760Y-128815620D01*
X157590010Y-128818692D01*
X157714492Y-128806432D01*
X157834190Y-128770122D01*
X157944504Y-128711157D01*
X158041195Y-128631805D01*
X158120547Y-128535114D01*
X158179512Y-128424800D01*
X158215822Y-128305102D01*
X158228082Y-128180620D01*
X158225010Y-127166370D01*
X158066260Y-127007620D01*
X156417010Y-127007620D01*
X156163010Y-127007620D01*
X154513760Y-127007620D01*
X154355010Y-127166370D01*
X154351938Y-128180620D01*
X152839364Y-128180620D01*
X153050624Y-127864449D01*
X153207192Y-127486459D01*
X153287010Y-127085187D01*
X153287010Y-126676053D01*
X153207192Y-126274781D01*
X153050624Y-125896791D01*
X152839365Y-125580620D01*
X154351938Y-125580620D01*
X154355010Y-126594870D01*
X154513760Y-126753620D01*
X156163010Y-126753620D01*
X156163010Y-125104370D01*
X156417010Y-125104370D01*
X156417010Y-126753620D01*
X158066260Y-126753620D01*
X158143827Y-126676053D01*
X162324500Y-126676053D01*
X162324500Y-127085187D01*
X162404318Y-127486459D01*
X162560886Y-127864449D01*
X162788189Y-128204631D01*
X163077489Y-128493931D01*
X163417671Y-128721234D01*
X163795661Y-128877802D01*
X164196933Y-128957620D01*
X164606067Y-128957620D01*
X165007339Y-128877802D01*
X165385329Y-128721234D01*
X165725511Y-128493931D01*
X166014811Y-128204631D01*
X166242114Y-127864449D01*
X166398682Y-127486459D01*
X166478500Y-127085187D01*
X166478500Y-126676053D01*
X167404500Y-126676053D01*
X167404500Y-127085187D01*
X167484318Y-127486459D01*
X167640886Y-127864449D01*
X167868189Y-128204631D01*
X168157489Y-128493931D01*
X168497671Y-128721234D01*
X168875661Y-128877802D01*
X169276933Y-128957620D01*
X169686067Y-128957620D01*
X170087339Y-128877802D01*
X170465329Y-128721234D01*
X170805511Y-128493931D01*
X171094811Y-128204631D01*
X171110854Y-128180620D01*
X172623428Y-128180620D01*
X172635688Y-128305102D01*
X172671998Y-128424800D01*
X172730963Y-128535114D01*
X172810315Y-128631805D01*
X172907006Y-128711157D01*
X173017320Y-128770122D01*
X173137018Y-128806432D01*
X173261500Y-128818692D01*
X174275750Y-128815620D01*
X174434500Y-128656870D01*
X174434500Y-127007620D01*
X174688500Y-127007620D01*
X174688500Y-128656870D01*
X174847250Y-128815620D01*
X175861500Y-128818692D01*
X175985982Y-128806432D01*
X176105680Y-128770122D01*
X176215994Y-128711157D01*
X176312685Y-128631805D01*
X176392037Y-128535114D01*
X176451002Y-128424800D01*
X176487312Y-128305102D01*
X176499572Y-128180620D01*
X176496500Y-127166370D01*
X176337750Y-127007620D01*
X174688500Y-127007620D01*
X174434500Y-127007620D01*
X172785250Y-127007620D01*
X172626500Y-127166370D01*
X172623428Y-128180620D01*
X171110854Y-128180620D01*
X171322114Y-127864449D01*
X171478682Y-127486459D01*
X171558500Y-127085187D01*
X171558500Y-126676053D01*
X171478682Y-126274781D01*
X171322114Y-125896791D01*
X171110855Y-125580620D01*
X172623428Y-125580620D01*
X172626500Y-126594870D01*
X172785250Y-126753620D01*
X174434500Y-126753620D01*
X174434500Y-125104370D01*
X174688500Y-125104370D01*
X174688500Y-126753620D01*
X176337750Y-126753620D01*
X176496500Y-126594870D01*
X176499572Y-125580620D01*
X176487312Y-125456138D01*
X176451002Y-125336440D01*
X176392037Y-125226126D01*
X176312685Y-125129435D01*
X176215994Y-125050083D01*
X176105680Y-124991118D01*
X175985982Y-124954808D01*
X175861500Y-124942548D01*
X174847250Y-124945620D01*
X174688500Y-125104370D01*
X174434500Y-125104370D01*
X174275750Y-124945620D01*
X173261500Y-124942548D01*
X173137018Y-124954808D01*
X173017320Y-124991118D01*
X172907006Y-125050083D01*
X172810315Y-125129435D01*
X172730963Y-125226126D01*
X172671998Y-125336440D01*
X172635688Y-125456138D01*
X172623428Y-125580620D01*
X171110855Y-125580620D01*
X171094811Y-125556609D01*
X170805511Y-125267309D01*
X170465329Y-125040006D01*
X170087339Y-124883438D01*
X169686067Y-124803620D01*
X169276933Y-124803620D01*
X168875661Y-124883438D01*
X168497671Y-125040006D01*
X168157489Y-125267309D01*
X167868189Y-125556609D01*
X167640886Y-125896791D01*
X167484318Y-126274781D01*
X167404500Y-126676053D01*
X166478500Y-126676053D01*
X166398682Y-126274781D01*
X166242114Y-125896791D01*
X166014811Y-125556609D01*
X165725511Y-125267309D01*
X165385329Y-125040006D01*
X165007339Y-124883438D01*
X164606067Y-124803620D01*
X164196933Y-124803620D01*
X163795661Y-124883438D01*
X163417671Y-125040006D01*
X163077489Y-125267309D01*
X162788189Y-125556609D01*
X162560886Y-125896791D01*
X162404318Y-126274781D01*
X162324500Y-126676053D01*
X158143827Y-126676053D01*
X158225010Y-126594870D01*
X158228082Y-125580620D01*
X158215822Y-125456138D01*
X158179512Y-125336440D01*
X158120547Y-125226126D01*
X158041195Y-125129435D01*
X157944504Y-125050083D01*
X157834190Y-124991118D01*
X157714492Y-124954808D01*
X157590010Y-124942548D01*
X156575760Y-124945620D01*
X156417010Y-125104370D01*
X156163010Y-125104370D01*
X156004260Y-124945620D01*
X154990010Y-124942548D01*
X154865528Y-124954808D01*
X154745830Y-124991118D01*
X154635516Y-125050083D01*
X154538825Y-125129435D01*
X154459473Y-125226126D01*
X154400508Y-125336440D01*
X154364198Y-125456138D01*
X154351938Y-125580620D01*
X152839365Y-125580620D01*
X152823321Y-125556609D01*
X152534021Y-125267309D01*
X152193839Y-125040006D01*
X151815849Y-124883438D01*
X151414577Y-124803620D01*
X151005443Y-124803620D01*
X150604171Y-124883438D01*
X150226181Y-125040006D01*
X149885999Y-125267309D01*
X149596699Y-125556609D01*
X149369396Y-125896791D01*
X149212828Y-126274781D01*
X149133010Y-126676053D01*
X148207010Y-126676053D01*
X148127192Y-126274781D01*
X147970624Y-125896791D01*
X147743321Y-125556609D01*
X147454021Y-125267309D01*
X147113839Y-125040006D01*
X146735849Y-124883438D01*
X146334577Y-124803620D01*
X145925443Y-124803620D01*
X145524171Y-124883438D01*
X145146181Y-125040006D01*
X144805999Y-125267309D01*
X144516699Y-125556609D01*
X144289396Y-125896791D01*
X144132828Y-126274781D01*
X144053010Y-126676053D01*
X139956592Y-126676053D01*
X139956592Y-125580620D01*
X139944332Y-125456138D01*
X139908022Y-125336440D01*
X139849057Y-125226126D01*
X139769705Y-125129435D01*
X139673014Y-125050083D01*
X139562700Y-124991118D01*
X139443002Y-124954808D01*
X139318520Y-124942548D01*
X136718520Y-124942548D01*
X136594038Y-124954808D01*
X136474340Y-124991118D01*
X136364026Y-125050083D01*
X136267335Y-125129435D01*
X136187983Y-125226126D01*
X136129018Y-125336440D01*
X136092708Y-125456138D01*
X136080448Y-125580620D01*
X134058915Y-125580620D01*
X134108139Y-125531396D01*
X133976203Y-125236308D01*
X133635475Y-125065461D01*
X133267963Y-124964370D01*
X132887791Y-124936919D01*
X132509569Y-124984163D01*
X132147830Y-125104287D01*
X131900837Y-125236308D01*
X131768901Y-125531396D01*
X110173084Y-125531396D01*
X110235000Y-125220128D01*
X110235000Y-124779872D01*
X189765000Y-124779872D01*
X189765000Y-125220128D01*
X189850890Y-125651925D01*
X190019369Y-126058669D01*
X190263962Y-126424729D01*
X190575271Y-126736038D01*
X190941331Y-126980631D01*
X191348075Y-127149110D01*
X191779872Y-127235000D01*
X192220128Y-127235000D01*
X192651925Y-127149110D01*
X193058669Y-126980631D01*
X193424729Y-126736038D01*
X193736038Y-126424729D01*
X193980631Y-126058669D01*
X194149110Y-125651925D01*
X194235000Y-125220128D01*
X194235000Y-124779872D01*
X194149110Y-124348075D01*
X193980631Y-123941331D01*
X193736038Y-123575271D01*
X193424729Y-123263962D01*
X193058669Y-123019369D01*
X192651925Y-122850890D01*
X192220128Y-122765000D01*
X191779872Y-122765000D01*
X191348075Y-122850890D01*
X190941331Y-123019369D01*
X190575271Y-123263962D01*
X190263962Y-123575271D01*
X190019369Y-123941331D01*
X189850890Y-124348075D01*
X189765000Y-124779872D01*
X110235000Y-124779872D01*
X110149110Y-124348075D01*
X109980631Y-123941331D01*
X109736038Y-123575271D01*
X109424729Y-123263962D01*
X109058669Y-123019369D01*
X108651925Y-122850890D01*
X108220128Y-122765000D01*
X107779872Y-122765000D01*
X107348075Y-122850890D01*
X106941331Y-123019369D01*
X106575271Y-123263962D01*
X106263962Y-123575271D01*
X106019369Y-123941331D01*
X105850890Y-124348075D01*
X105765000Y-124779872D01*
X101732080Y-124779872D01*
X101732080Y-121147840D01*
X198409560Y-121147840D01*
X198409560Y-148742400D01*
G37*
X198409560Y-148742400D02*
X163833940Y-148742400D01*
X163851300Y-148655124D01*
X163851300Y-148423276D01*
X163806069Y-148195882D01*
X163717344Y-147981681D01*
X163588536Y-147788906D01*
X163424594Y-147624964D01*
X163231819Y-147496156D01*
X163017618Y-147407431D01*
X162790224Y-147362200D01*
X162558376Y-147362200D01*
X162330982Y-147407431D01*
X162116781Y-147496156D01*
X161924006Y-147624964D01*
X161886770Y-147662200D01*
X158724355Y-147662200D01*
X158799180Y-147639502D01*
X158909494Y-147580537D01*
X159006185Y-147501185D01*
X159085537Y-147404494D01*
X159144502Y-147294180D01*
X159180812Y-147174482D01*
X159193072Y-147050000D01*
X159193072Y-146310000D01*
X167807356Y-146310000D01*
X167935934Y-146349003D01*
X168047587Y-146360000D01*
X168047595Y-146360000D01*
X168084920Y-146363676D01*
X168122245Y-146360000D01*
X170913509Y-146360000D01*
X170937546Y-146384037D01*
X171107064Y-146497305D01*
X171295422Y-146575326D01*
X171495381Y-146615100D01*
X171699259Y-146615100D01*
X171899218Y-146575326D01*
X172087576Y-146497305D01*
X172257094Y-146384037D01*
X172401257Y-146239874D01*
X172514525Y-146070356D01*
X172592546Y-145881998D01*
X172632320Y-145682039D01*
X172632320Y-145478161D01*
X172592546Y-145278202D01*
X172514525Y-145089844D01*
X172401257Y-144920326D01*
X172257094Y-144776163D01*
X172129052Y-144690609D01*
X172819522Y-144000139D01*
X172848521Y-143976341D01*
X172943494Y-143860616D01*
X173014066Y-143728587D01*
X173057523Y-143585326D01*
X173068520Y-143473673D01*
X173068520Y-143473664D01*
X173072196Y-143436341D01*
X173068520Y-143399018D01*
X173068520Y-140321057D01*
X173200024Y-140408925D01*
X173388382Y-140486946D01*
X173588341Y-140526720D01*
X173792219Y-140526720D01*
X173992178Y-140486946D01*
X174180536Y-140408925D01*
X174350054Y-140295657D01*
X174494217Y-140151494D01*
X174607485Y-139981976D01*
X174685506Y-139793618D01*
X174725280Y-139593659D01*
X174725280Y-139389781D01*
X174685506Y-139189822D01*
X174607485Y-139001464D01*
X174494217Y-138831946D01*
X174350054Y-138687783D01*
X174180536Y-138574515D01*
X173992178Y-138496494D01*
X173792219Y-138456720D01*
X173588341Y-138456720D01*
X173388382Y-138496494D01*
X173200024Y-138574515D01*
X173068520Y-138662383D01*
X173068520Y-136779872D01*
X189765000Y-136779872D01*
X189765000Y-137220128D01*
X189850890Y-137651925D01*
X190019369Y-138058669D01*
X190263962Y-138424729D01*
X190575271Y-138736038D01*
X190941331Y-138980631D01*
X191348075Y-139149110D01*
X191779872Y-139235000D01*
X192220128Y-139235000D01*
X192651925Y-139149110D01*
X193058669Y-138980631D01*
X193424729Y-138736038D01*
X193736038Y-138424729D01*
X193980631Y-138058669D01*
X194149110Y-137651925D01*
X194235000Y-137220128D01*
X194235000Y-136779872D01*
X194149110Y-136348075D01*
X193980631Y-135941331D01*
X193736038Y-135575271D01*
X193424729Y-135263962D01*
X193058669Y-135019369D01*
X192651925Y-134850890D01*
X192220128Y-134765000D01*
X191779872Y-134765000D01*
X191348075Y-134850890D01*
X190941331Y-135019369D01*
X190575271Y-135263962D01*
X190263962Y-135575271D01*
X190019369Y-135941331D01*
X189850890Y-136348075D01*
X189765000Y-136779872D01*
X173068520Y-136779872D01*
X173068520Y-136620743D01*
X173072196Y-136583420D01*
X173068520Y-136546097D01*
X173068520Y-136546087D01*
X173057523Y-136434434D01*
X173014066Y-136291173D01*
X172943494Y-136159144D01*
X172848521Y-136043419D01*
X172819518Y-136019617D01*
X172453224Y-135653323D01*
X172429421Y-135624319D01*
X172313696Y-135529346D01*
X172181667Y-135458774D01*
X172038406Y-135415317D01*
X171926753Y-135404320D01*
X171926742Y-135404320D01*
X171889420Y-135400644D01*
X171852098Y-135404320D01*
X170036983Y-135404320D01*
X169999660Y-135400644D01*
X169962337Y-135404320D01*
X169962327Y-135404320D01*
X169850674Y-135415317D01*
X169707413Y-135458774D01*
X169575384Y-135529346D01*
X169459659Y-135624319D01*
X169435856Y-135653323D01*
X169072098Y-136017081D01*
X169043100Y-136040879D01*
X169019302Y-136069877D01*
X169019301Y-136069878D01*
X168948126Y-136156604D01*
X168877554Y-136288634D01*
X168834098Y-136431895D01*
X168819424Y-136580880D01*
X168823101Y-136618212D01*
X168823100Y-141628018D01*
X168254218Y-142196901D01*
X168225220Y-142220699D01*
X168201422Y-142249697D01*
X168201421Y-142249698D01*
X168130246Y-142336424D01*
X168059674Y-142468454D01*
X168016218Y-142611715D01*
X168001544Y-142760700D01*
X168005221Y-142798032D01*
X168005220Y-144486137D01*
X168001544Y-144523460D01*
X168005220Y-144560782D01*
X168005220Y-144560792D01*
X168009175Y-144600944D01*
X167820119Y-144790000D01*
X159193072Y-144790000D01*
X159193072Y-144050000D01*
X159180812Y-143925518D01*
X159144502Y-143805820D01*
X159085537Y-143695506D01*
X159006185Y-143598815D01*
X158909494Y-143519463D01*
X158799180Y-143460498D01*
X158679482Y-143424188D01*
X158555000Y-143411928D01*
X157055000Y-143411928D01*
X156930518Y-143424188D01*
X156884315Y-143438204D01*
X156838766Y-143400823D01*
X156703784Y-143328673D01*
X156557319Y-143284243D01*
X156405000Y-143269241D01*
X155605000Y-143269241D01*
X155452681Y-143284243D01*
X155306216Y-143328673D01*
X155171234Y-143400823D01*
X155052920Y-143497920D01*
X154955823Y-143616234D01*
X154883673Y-143751216D01*
X154839243Y-143897681D01*
X154824241Y-144050000D01*
X154824241Y-147050000D01*
X154839243Y-147202319D01*
X154883673Y-147348784D01*
X154955823Y-147483766D01*
X155052920Y-147602080D01*
X155135485Y-147669838D01*
X155135690Y-147671924D01*
X155185838Y-147837238D01*
X155267274Y-147989594D01*
X155349406Y-148089673D01*
X155349412Y-148089679D01*
X155376868Y-148123134D01*
X155410322Y-148150589D01*
X156002132Y-148742400D01*
X150569879Y-148742400D01*
X150569879Y-147599820D01*
X150554877Y-147447501D01*
X150510447Y-147301036D01*
X150438297Y-147166054D01*
X150341200Y-147047740D01*
X150222886Y-146950643D01*
X150087904Y-146878493D01*
X149941439Y-146834063D01*
X149789120Y-146819061D01*
X149438822Y-146819061D01*
X149412253Y-146786687D01*
X149378788Y-146759223D01*
X148288177Y-145668612D01*
X148260713Y-145635147D01*
X148127172Y-145525553D01*
X147974817Y-145444118D01*
X147809502Y-145393970D01*
X147680659Y-145381280D01*
X147637580Y-145377037D01*
X147594501Y-145381280D01*
X146456530Y-145381280D01*
X146419294Y-145344044D01*
X146226519Y-145215236D01*
X146012318Y-145126511D01*
X145784924Y-145081280D01*
X145553076Y-145081280D01*
X145325682Y-145126511D01*
X145111481Y-145215236D01*
X144918706Y-145344044D01*
X144754764Y-145507986D01*
X144625956Y-145700761D01*
X144537231Y-145914962D01*
X144492000Y-146142356D01*
X144492000Y-146374204D01*
X144537231Y-146601598D01*
X144625956Y-146815799D01*
X144754764Y-147008574D01*
X144918706Y-147172516D01*
X145111481Y-147301324D01*
X145325682Y-147390049D01*
X145553076Y-147435280D01*
X145784924Y-147435280D01*
X146012318Y-147390049D01*
X146226519Y-147301324D01*
X146419294Y-147172516D01*
X146456530Y-147135280D01*
X147165198Y-147135280D01*
X147139943Y-147166054D01*
X147067793Y-147301036D01*
X147023363Y-147447501D01*
X147008361Y-147599820D01*
X147008361Y-148742400D01*
X101732080Y-148742400D01*
X101732080Y-141226540D01*
X142243403Y-141226540D01*
X142258077Y-141375526D01*
X142301534Y-141518787D01*
X142372106Y-141650816D01*
X142467079Y-141766541D01*
X142581069Y-141860090D01*
X143964741Y-143243763D01*
X143988539Y-143272761D01*
X144104264Y-143367734D01*
X144236293Y-143438306D01*
X144379554Y-143481763D01*
X144491207Y-143492760D01*
X144491215Y-143492760D01*
X144528540Y-143496436D01*
X144565865Y-143492760D01*
X145753598Y-143492760D01*
X145790920Y-143496436D01*
X145828242Y-143492760D01*
X145828253Y-143492760D01*
X145939906Y-143481763D01*
X146083167Y-143438306D01*
X146215196Y-143367734D01*
X146330921Y-143272761D01*
X146354723Y-143243758D01*
X146593481Y-143005000D01*
X147612837Y-143005000D01*
X147619188Y-143069482D01*
X147655498Y-143189180D01*
X147714463Y-143299494D01*
X147793815Y-143396185D01*
X147890506Y-143475537D01*
X148000820Y-143534502D01*
X148120518Y-143570812D01*
X148245000Y-143583072D01*
X149445000Y-143583072D01*
X149569482Y-143570812D01*
X149689180Y-143534502D01*
X149799494Y-143475537D01*
X149896185Y-143396185D01*
X149975537Y-143299494D01*
X150034502Y-143189180D01*
X150049540Y-143139605D01*
X150083484Y-143162285D01*
X150271842Y-143240306D01*
X150471801Y-143280080D01*
X150675679Y-143280080D01*
X150875638Y-143240306D01*
X151063996Y-143162285D01*
X151233514Y-143049017D01*
X151377677Y-142904854D01*
X151490945Y-142735336D01*
X151568966Y-142546978D01*
X151608740Y-142347019D01*
X151608740Y-142143141D01*
X151568966Y-141943182D01*
X151490945Y-141754824D01*
X151377677Y-141585306D01*
X151233514Y-141441143D01*
X151063996Y-141327875D01*
X150875638Y-141249854D01*
X150675679Y-141210080D01*
X150471801Y-141210080D01*
X150271842Y-141249854D01*
X150083484Y-141327875D01*
X150049581Y-141350528D01*
X150034502Y-141300820D01*
X149975537Y-141190506D01*
X149896185Y-141093815D01*
X149799494Y-141014463D01*
X149689180Y-140955498D01*
X149569482Y-140919188D01*
X149445000Y-140906928D01*
X148245000Y-140906928D01*
X148120518Y-140919188D01*
X148000820Y-140955498D01*
X147890506Y-141014463D01*
X147793815Y-141093815D01*
X147714463Y-141190506D01*
X147655498Y-141300820D01*
X147619188Y-141420518D01*
X147612837Y-141485000D01*
X147251960Y-141485000D01*
X147251960Y-141207983D01*
X147255636Y-141170660D01*
X147251960Y-141133337D01*
X147251960Y-141133327D01*
X147240963Y-141021674D01*
X147197506Y-140878413D01*
X147139011Y-140768978D01*
X147126934Y-140746383D01*
X147055759Y-140659657D01*
X147031961Y-140630659D01*
X147002962Y-140606860D01*
X146761243Y-140365141D01*
X166041120Y-140365141D01*
X166041120Y-140569019D01*
X166080894Y-140768978D01*
X166158915Y-140957336D01*
X166272183Y-141126854D01*
X166416346Y-141271017D01*
X166585864Y-141384285D01*
X166774222Y-141462306D01*
X166974181Y-141502080D01*
X167178059Y-141502080D01*
X167378018Y-141462306D01*
X167566376Y-141384285D01*
X167735894Y-141271017D01*
X167880057Y-141126854D01*
X167993325Y-140957336D01*
X168071346Y-140768978D01*
X168111120Y-140569019D01*
X168111120Y-140365141D01*
X168071346Y-140165182D01*
X167993325Y-139976824D01*
X167880057Y-139807306D01*
X167735894Y-139663143D01*
X167566376Y-139549875D01*
X167378018Y-139471854D01*
X167178059Y-139432080D01*
X166974181Y-139432080D01*
X166774222Y-139471854D01*
X166585864Y-139549875D01*
X166416346Y-139663143D01*
X166272183Y-139807306D01*
X166158915Y-139976824D01*
X166080894Y-140165182D01*
X166041120Y-140365141D01*
X146761243Y-140365141D01*
X146634740Y-140238639D01*
X146634740Y-133844525D01*
X146638416Y-133807200D01*
X146634740Y-133769875D01*
X146634740Y-133769867D01*
X146623743Y-133658214D01*
X146580286Y-133514953D01*
X146509714Y-133382924D01*
X146414741Y-133267199D01*
X146385743Y-133243401D01*
X145427624Y-132285282D01*
X145403821Y-132256279D01*
X145288096Y-132161306D01*
X145156067Y-132090734D01*
X145012806Y-132047277D01*
X144901153Y-132036280D01*
X144901142Y-132036280D01*
X144863820Y-132032604D01*
X144826498Y-132036280D01*
X143963882Y-132036280D01*
X143926559Y-132032604D01*
X143889236Y-132036280D01*
X143889227Y-132036280D01*
X143777574Y-132047277D01*
X143634313Y-132090734D01*
X143502283Y-132161306D01*
X143418643Y-132229948D01*
X143386559Y-132256279D01*
X143362761Y-132285277D01*
X142496082Y-133151957D01*
X142467079Y-133175759D01*
X142430315Y-133220557D01*
X142372106Y-133291484D01*
X142323230Y-133382924D01*
X142301534Y-133423514D01*
X142258077Y-133566775D01*
X142247080Y-133678428D01*
X142247080Y-133678438D01*
X142243404Y-133715760D01*
X142247080Y-133753082D01*
X142247081Y-141189197D01*
X142243403Y-141226540D01*
X101732080Y-141226540D01*
X101732080Y-136779872D01*
X105765000Y-136779872D01*
X105765000Y-137220128D01*
X105850890Y-137651925D01*
X106019369Y-138058669D01*
X106263962Y-138424729D01*
X106575271Y-138736038D01*
X106941331Y-138980631D01*
X107348075Y-139149110D01*
X107779872Y-139235000D01*
X108220128Y-139235000D01*
X108651925Y-139149110D01*
X109058669Y-138980631D01*
X109424729Y-138736038D01*
X109736038Y-138424729D01*
X109980631Y-138058669D01*
X110149110Y-137651925D01*
X110235000Y-137220128D01*
X110235000Y-136779872D01*
X110149110Y-136348075D01*
X109980631Y-135941331D01*
X109736038Y-135575271D01*
X109424729Y-135263962D01*
X109058669Y-135019369D01*
X108651925Y-134850890D01*
X108220128Y-134765000D01*
X107779872Y-134765000D01*
X107348075Y-134850890D01*
X106941331Y-135019369D01*
X106575271Y-135263962D01*
X106263962Y-135575271D01*
X106019369Y-135941331D01*
X105850890Y-136348075D01*
X105765000Y-136779872D01*
X101732080Y-136779872D01*
X101732080Y-128229844D01*
X131768901Y-128229844D01*
X131900837Y-128524932D01*
X132241565Y-128695779D01*
X132609077Y-128796870D01*
X132989249Y-128824321D01*
X133367471Y-128777077D01*
X133729210Y-128656953D01*
X133976203Y-128524932D01*
X134108139Y-128229844D01*
X132938520Y-127060225D01*
X131768901Y-128229844D01*
X101732080Y-128229844D01*
X101732080Y-124779872D01*
X105765000Y-124779872D01*
X105765000Y-125220128D01*
X105850890Y-125651925D01*
X106019369Y-126058669D01*
X106263962Y-126424729D01*
X106575271Y-126736038D01*
X106941331Y-126980631D01*
X107348075Y-127149110D01*
X107779872Y-127235000D01*
X108220128Y-127235000D01*
X108651925Y-127149110D01*
X109058669Y-126980631D01*
X109132424Y-126931349D01*
X130994819Y-126931349D01*
X131042063Y-127309571D01*
X131162187Y-127671310D01*
X131294208Y-127918303D01*
X131589296Y-128050239D01*
X132758915Y-126880620D01*
X133118125Y-126880620D01*
X134287744Y-128050239D01*
X134582832Y-127918303D01*
X134753679Y-127577575D01*
X134854770Y-127210063D01*
X134882221Y-126829891D01*
X134834977Y-126451669D01*
X134714853Y-126089930D01*
X134582832Y-125842937D01*
X134287744Y-125711001D01*
X133118125Y-126880620D01*
X132758915Y-126880620D01*
X131589296Y-125711001D01*
X131294208Y-125842937D01*
X131123361Y-126183665D01*
X131022270Y-126551177D01*
X130994819Y-126931349D01*
X109132424Y-126931349D01*
X109424729Y-126736038D01*
X109736038Y-126424729D01*
X109980631Y-126058669D01*
X110149110Y-125651925D01*
X110173084Y-125531396D01*
X131768901Y-125531396D01*
X132938520Y-126701015D01*
X134058915Y-125580620D01*
X136080448Y-125580620D01*
X136080448Y-128180620D01*
X136092708Y-128305102D01*
X136129018Y-128424800D01*
X136187983Y-128535114D01*
X136267335Y-128631805D01*
X136364026Y-128711157D01*
X136474340Y-128770122D01*
X136594038Y-128806432D01*
X136718520Y-128818692D01*
X139318520Y-128818692D01*
X139443002Y-128806432D01*
X139562700Y-128770122D01*
X139673014Y-128711157D01*
X139769705Y-128631805D01*
X139849057Y-128535114D01*
X139908022Y-128424800D01*
X139944332Y-128305102D01*
X139956592Y-128180620D01*
X139956592Y-126676053D01*
X144053010Y-126676053D01*
X144053010Y-127085187D01*
X144132828Y-127486459D01*
X144289396Y-127864449D01*
X144516699Y-128204631D01*
X144805999Y-128493931D01*
X145146181Y-128721234D01*
X145524171Y-128877802D01*
X145925443Y-128957620D01*
X146334577Y-128957620D01*
X146735849Y-128877802D01*
X147113839Y-128721234D01*
X147454021Y-128493931D01*
X147743321Y-128204631D01*
X147970624Y-127864449D01*
X148127192Y-127486459D01*
X148207010Y-127085187D01*
X148207010Y-126676053D01*
X149133010Y-126676053D01*
X149133010Y-127085187D01*
X149212828Y-127486459D01*
X149369396Y-127864449D01*
X149596699Y-128204631D01*
X149885999Y-128493931D01*
X150226181Y-128721234D01*
X150604171Y-128877802D01*
X151005443Y-128957620D01*
X151414577Y-128957620D01*
X151815849Y-128877802D01*
X152193839Y-128721234D01*
X152534021Y-128493931D01*
X152823321Y-128204631D01*
X152839364Y-128180620D01*
X154351938Y-128180620D01*
X154364198Y-128305102D01*
X154400508Y-128424800D01*
X154459473Y-128535114D01*
X154538825Y-128631805D01*
X154635516Y-128711157D01*
X154745830Y-128770122D01*
X154865528Y-128806432D01*
X154990010Y-128818692D01*
X156004260Y-128815620D01*
X156163010Y-128656870D01*
X156163010Y-127007620D01*
X156417010Y-127007620D01*
X156417010Y-128656870D01*
X156575760Y-128815620D01*
X157590010Y-128818692D01*
X157714492Y-128806432D01*
X157834190Y-128770122D01*
X157944504Y-128711157D01*
X158041195Y-128631805D01*
X158120547Y-128535114D01*
X158179512Y-128424800D01*
X158215822Y-128305102D01*
X158228082Y-128180620D01*
X158225010Y-127166370D01*
X158066260Y-127007620D01*
X156417010Y-127007620D01*
X156163010Y-127007620D01*
X154513760Y-127007620D01*
X154355010Y-127166370D01*
X154351938Y-128180620D01*
X152839364Y-128180620D01*
X153050624Y-127864449D01*
X153207192Y-127486459D01*
X153287010Y-127085187D01*
X153287010Y-126676053D01*
X153207192Y-126274781D01*
X153050624Y-125896791D01*
X152839365Y-125580620D01*
X154351938Y-125580620D01*
X154355010Y-126594870D01*
X154513760Y-126753620D01*
X156163010Y-126753620D01*
X156163010Y-125104370D01*
X156417010Y-125104370D01*
X156417010Y-126753620D01*
X158066260Y-126753620D01*
X158143827Y-126676053D01*
X162324500Y-126676053D01*
X162324500Y-127085187D01*
X162404318Y-127486459D01*
X162560886Y-127864449D01*
X162788189Y-128204631D01*
X163077489Y-128493931D01*
X163417671Y-128721234D01*
X163795661Y-128877802D01*
X164196933Y-128957620D01*
X164606067Y-128957620D01*
X165007339Y-128877802D01*
X165385329Y-128721234D01*
X165725511Y-128493931D01*
X166014811Y-128204631D01*
X166242114Y-127864449D01*
X166398682Y-127486459D01*
X166478500Y-127085187D01*
X166478500Y-126676053D01*
X167404500Y-126676053D01*
X167404500Y-127085187D01*
X167484318Y-127486459D01*
X167640886Y-127864449D01*
X167868189Y-128204631D01*
X168157489Y-128493931D01*
X168497671Y-128721234D01*
X168875661Y-128877802D01*
X169276933Y-128957620D01*
X169686067Y-128957620D01*
X170087339Y-128877802D01*
X170465329Y-128721234D01*
X170805511Y-128493931D01*
X171094811Y-128204631D01*
X171110854Y-128180620D01*
X172623428Y-128180620D01*
X172635688Y-128305102D01*
X172671998Y-128424800D01*
X172730963Y-128535114D01*
X172810315Y-128631805D01*
X172907006Y-128711157D01*
X173017320Y-128770122D01*
X173137018Y-128806432D01*
X173261500Y-128818692D01*
X174275750Y-128815620D01*
X174434500Y-128656870D01*
X174434500Y-127007620D01*
X174688500Y-127007620D01*
X174688500Y-128656870D01*
X174847250Y-128815620D01*
X175861500Y-128818692D01*
X175985982Y-128806432D01*
X176105680Y-128770122D01*
X176215994Y-128711157D01*
X176312685Y-128631805D01*
X176392037Y-128535114D01*
X176451002Y-128424800D01*
X176487312Y-128305102D01*
X176499572Y-128180620D01*
X176496500Y-127166370D01*
X176337750Y-127007620D01*
X174688500Y-127007620D01*
X174434500Y-127007620D01*
X172785250Y-127007620D01*
X172626500Y-127166370D01*
X172623428Y-128180620D01*
X171110854Y-128180620D01*
X171322114Y-127864449D01*
X171478682Y-127486459D01*
X171558500Y-127085187D01*
X171558500Y-126676053D01*
X171478682Y-126274781D01*
X171322114Y-125896791D01*
X171110855Y-125580620D01*
X172623428Y-125580620D01*
X172626500Y-126594870D01*
X172785250Y-126753620D01*
X174434500Y-126753620D01*
X174434500Y-125104370D01*
X174688500Y-125104370D01*
X174688500Y-126753620D01*
X176337750Y-126753620D01*
X176496500Y-126594870D01*
X176499572Y-125580620D01*
X176487312Y-125456138D01*
X176451002Y-125336440D01*
X176392037Y-125226126D01*
X176312685Y-125129435D01*
X176215994Y-125050083D01*
X176105680Y-124991118D01*
X175985982Y-124954808D01*
X175861500Y-124942548D01*
X174847250Y-124945620D01*
X174688500Y-125104370D01*
X174434500Y-125104370D01*
X174275750Y-124945620D01*
X173261500Y-124942548D01*
X173137018Y-124954808D01*
X173017320Y-124991118D01*
X172907006Y-125050083D01*
X172810315Y-125129435D01*
X172730963Y-125226126D01*
X172671998Y-125336440D01*
X172635688Y-125456138D01*
X172623428Y-125580620D01*
X171110855Y-125580620D01*
X171094811Y-125556609D01*
X170805511Y-125267309D01*
X170465329Y-125040006D01*
X170087339Y-124883438D01*
X169686067Y-124803620D01*
X169276933Y-124803620D01*
X168875661Y-124883438D01*
X168497671Y-125040006D01*
X168157489Y-125267309D01*
X167868189Y-125556609D01*
X167640886Y-125896791D01*
X167484318Y-126274781D01*
X167404500Y-126676053D01*
X166478500Y-126676053D01*
X166398682Y-126274781D01*
X166242114Y-125896791D01*
X166014811Y-125556609D01*
X165725511Y-125267309D01*
X165385329Y-125040006D01*
X165007339Y-124883438D01*
X164606067Y-124803620D01*
X164196933Y-124803620D01*
X163795661Y-124883438D01*
X163417671Y-125040006D01*
X163077489Y-125267309D01*
X162788189Y-125556609D01*
X162560886Y-125896791D01*
X162404318Y-126274781D01*
X162324500Y-126676053D01*
X158143827Y-126676053D01*
X158225010Y-126594870D01*
X158228082Y-125580620D01*
X158215822Y-125456138D01*
X158179512Y-125336440D01*
X158120547Y-125226126D01*
X158041195Y-125129435D01*
X157944504Y-125050083D01*
X157834190Y-124991118D01*
X157714492Y-124954808D01*
X157590010Y-124942548D01*
X156575760Y-124945620D01*
X156417010Y-125104370D01*
X156163010Y-125104370D01*
X156004260Y-124945620D01*
X154990010Y-124942548D01*
X154865528Y-124954808D01*
X154745830Y-124991118D01*
X154635516Y-125050083D01*
X154538825Y-125129435D01*
X154459473Y-125226126D01*
X154400508Y-125336440D01*
X154364198Y-125456138D01*
X154351938Y-125580620D01*
X152839365Y-125580620D01*
X152823321Y-125556609D01*
X152534021Y-125267309D01*
X152193839Y-125040006D01*
X151815849Y-124883438D01*
X151414577Y-124803620D01*
X151005443Y-124803620D01*
X150604171Y-124883438D01*
X150226181Y-125040006D01*
X149885999Y-125267309D01*
X149596699Y-125556609D01*
X149369396Y-125896791D01*
X149212828Y-126274781D01*
X149133010Y-126676053D01*
X148207010Y-126676053D01*
X148127192Y-126274781D01*
X147970624Y-125896791D01*
X147743321Y-125556609D01*
X147454021Y-125267309D01*
X147113839Y-125040006D01*
X146735849Y-124883438D01*
X146334577Y-124803620D01*
X145925443Y-124803620D01*
X145524171Y-124883438D01*
X145146181Y-125040006D01*
X144805999Y-125267309D01*
X144516699Y-125556609D01*
X144289396Y-125896791D01*
X144132828Y-126274781D01*
X144053010Y-126676053D01*
X139956592Y-126676053D01*
X139956592Y-125580620D01*
X139944332Y-125456138D01*
X139908022Y-125336440D01*
X139849057Y-125226126D01*
X139769705Y-125129435D01*
X139673014Y-125050083D01*
X139562700Y-124991118D01*
X139443002Y-124954808D01*
X139318520Y-124942548D01*
X136718520Y-124942548D01*
X136594038Y-124954808D01*
X136474340Y-124991118D01*
X136364026Y-125050083D01*
X136267335Y-125129435D01*
X136187983Y-125226126D01*
X136129018Y-125336440D01*
X136092708Y-125456138D01*
X136080448Y-125580620D01*
X134058915Y-125580620D01*
X134108139Y-125531396D01*
X133976203Y-125236308D01*
X133635475Y-125065461D01*
X133267963Y-124964370D01*
X132887791Y-124936919D01*
X132509569Y-124984163D01*
X132147830Y-125104287D01*
X131900837Y-125236308D01*
X131768901Y-125531396D01*
X110173084Y-125531396D01*
X110235000Y-125220128D01*
X110235000Y-124779872D01*
X189765000Y-124779872D01*
X189765000Y-125220128D01*
X189850890Y-125651925D01*
X190019369Y-126058669D01*
X190263962Y-126424729D01*
X190575271Y-126736038D01*
X190941331Y-126980631D01*
X191348075Y-127149110D01*
X191779872Y-127235000D01*
X192220128Y-127235000D01*
X192651925Y-127149110D01*
X193058669Y-126980631D01*
X193424729Y-126736038D01*
X193736038Y-126424729D01*
X193980631Y-126058669D01*
X194149110Y-125651925D01*
X194235000Y-125220128D01*
X194235000Y-124779872D01*
X194149110Y-124348075D01*
X193980631Y-123941331D01*
X193736038Y-123575271D01*
X193424729Y-123263962D01*
X193058669Y-123019369D01*
X192651925Y-122850890D01*
X192220128Y-122765000D01*
X191779872Y-122765000D01*
X191348075Y-122850890D01*
X190941331Y-123019369D01*
X190575271Y-123263962D01*
X190263962Y-123575271D01*
X190019369Y-123941331D01*
X189850890Y-124348075D01*
X189765000Y-124779872D01*
X110235000Y-124779872D01*
X110149110Y-124348075D01*
X109980631Y-123941331D01*
X109736038Y-123575271D01*
X109424729Y-123263962D01*
X109058669Y-123019369D01*
X108651925Y-122850890D01*
X108220128Y-122765000D01*
X107779872Y-122765000D01*
X107348075Y-122850890D01*
X106941331Y-123019369D01*
X106575271Y-123263962D01*
X106263962Y-123575271D01*
X106019369Y-123941331D01*
X105850890Y-124348075D01*
X105765000Y-124779872D01*
X101732080Y-124779872D01*
X101732080Y-121147840D01*
X198409560Y-121147840D01*
X198409560Y-148742400D01*
M02*
