G04 #@! TF.GenerationSoftware,KiCad,Pcbnew,(5.1.5)-3*
G04 #@! TF.CreationDate,2020-11-11T17:48:52-05:00*
G04 #@! TF.ProjectId,sensor_dmf_board,73656e73-6f72-45f6-946d-665f626f6172,rev?*
G04 #@! TF.SameCoordinates,Original*
G04 #@! TF.FileFunction,Copper,L3,Inr*
G04 #@! TF.FilePolarity,Positive*
%FSLAX46Y46*%
G04 Gerber Fmt 4.6, Leading zero omitted, Abs format (unit mm)*
G04 Created by KiCad (PCBNEW (5.1.5)-3) date 2020-11-11 17:48:52*
%MOMM*%
%LPD*%
G04 APERTURE LIST*
%ADD10O,1.600000X1.600000*%
%ADD11C,1.600000*%
%ADD12C,2.600000*%
%ADD13R,2.600000X2.600000*%
%ADD14R,1.524000X3.762000*%
%ADD15C,1.524000*%
%ADD16R,1.524000X1.524000*%
%ADD17R,1.600000X1.600000*%
%ADD18C,0.800000*%
%ADD19C,0.250000*%
%ADD20C,0.254000*%
G04 APERTURE END LIST*
D10*
X156580840Y-104894380D03*
D11*
X143880840Y-104894380D03*
D10*
X164807900Y-109357160D03*
D11*
X152107900Y-109357160D03*
D12*
X132938520Y-126880620D03*
D13*
X138018520Y-126880620D03*
D12*
X181493160Y-69840000D03*
X181493160Y-74920000D03*
D13*
X181493160Y-80000000D03*
D14*
X170693080Y-85102700D03*
X170693080Y-78498700D03*
D12*
X164401500Y-126880620D03*
X169481500Y-126880620D03*
D13*
X174561500Y-126880620D03*
D12*
X146130010Y-126880620D03*
X151210010Y-126880620D03*
D13*
X156290010Y-126880620D03*
D12*
X155036520Y-95313500D03*
D13*
X149956520Y-95313500D03*
D10*
X114571780Y-68498720D03*
D11*
X114571780Y-78658720D03*
D15*
X119573040Y-79054960D03*
X122113040Y-81594960D03*
D16*
X124653040Y-79054960D03*
D11*
X139087860Y-85829020D03*
D17*
X139087860Y-82329020D03*
D18*
X153423620Y-134048500D03*
X133771640Y-136631680D03*
X139438380Y-137843260D03*
X135077200Y-145760440D03*
X139578080Y-141526260D03*
X161785300Y-137261600D03*
X161297620Y-143123920D03*
X167566340Y-138694160D03*
X170025060Y-134226300D03*
X161518600Y-146593560D03*
X174871151Y-140201016D03*
X148493480Y-137439400D03*
X167076120Y-140467080D03*
X173690280Y-139491720D03*
X156333520Y-112083520D03*
X143951960Y-97424240D03*
X140967460Y-97449640D03*
X140190220Y-103405940D03*
X140190220Y-107304840D03*
X140088620Y-110637320D03*
X163982400Y-103713280D03*
X159931100Y-103713280D03*
X164063680Y-112892840D03*
X164063680Y-116989860D03*
X140131800Y-100281740D03*
X142788640Y-100230940D03*
X145420080Y-100256340D03*
X160042860Y-97424240D03*
X163433760Y-97373440D03*
X159893000Y-100383340D03*
X162979100Y-100332540D03*
X165788340Y-100256340D03*
X159842200Y-106380280D03*
X164015420Y-106507280D03*
X167457120Y-106354880D03*
X167647620Y-103581200D03*
X137337800Y-103395780D03*
X137337800Y-107378500D03*
X137213340Y-110802420D03*
X137213340Y-113540540D03*
X137149840Y-116964460D03*
X167383460Y-109573060D03*
X167330120Y-112996980D03*
X143309340Y-110690660D03*
X140180060Y-113586260D03*
X143390620Y-113629440D03*
X140202920Y-117073680D03*
X143537940Y-117094000D03*
X167330120Y-117180360D03*
X148727160Y-104983280D03*
X157276800Y-109413040D03*
X148165820Y-101765100D03*
X152458420Y-101765100D03*
X156720540Y-101765100D03*
X155031440Y-98595180D03*
X146638010Y-109518450D03*
X145669000Y-146258280D03*
X162674300Y-148539200D03*
X134744460Y-70904100D03*
X167853360Y-69522340D03*
X149941280Y-98783140D03*
X150573740Y-142245080D03*
X145181226Y-141646930D03*
X171597320Y-145580100D03*
X169887900Y-143830040D03*
D19*
X172714920Y-140467080D02*
X173690280Y-139491720D01*
X167076120Y-140467080D02*
X172714920Y-140467080D01*
D20*
G36*
X198048880Y-118745000D02*
G01*
X101719380Y-118745000D01*
X101719380Y-111981581D01*
X155298520Y-111981581D01*
X155298520Y-112185459D01*
X155338294Y-112385418D01*
X155416315Y-112573776D01*
X155529583Y-112743294D01*
X155673746Y-112887457D01*
X155843264Y-113000725D01*
X156031622Y-113078746D01*
X156231581Y-113118520D01*
X156435459Y-113118520D01*
X156635418Y-113078746D01*
X156823776Y-113000725D01*
X156993294Y-112887457D01*
X157137457Y-112743294D01*
X157250725Y-112573776D01*
X157328746Y-112385418D01*
X157368520Y-112185459D01*
X157368520Y-111981581D01*
X157328746Y-111781622D01*
X157250725Y-111593264D01*
X157137457Y-111423746D01*
X156993294Y-111279583D01*
X156823776Y-111166315D01*
X156635418Y-111088294D01*
X156435459Y-111048520D01*
X156231581Y-111048520D01*
X156031622Y-111088294D01*
X155843264Y-111166315D01*
X155673746Y-111279583D01*
X155529583Y-111423746D01*
X155416315Y-111593264D01*
X155338294Y-111781622D01*
X155298520Y-111981581D01*
X101719380Y-111981581D01*
X101719380Y-109416511D01*
X145603010Y-109416511D01*
X145603010Y-109620389D01*
X145642784Y-109820348D01*
X145720805Y-110008706D01*
X145834073Y-110178224D01*
X145978236Y-110322387D01*
X146147754Y-110435655D01*
X146336112Y-110513676D01*
X146536071Y-110553450D01*
X146739949Y-110553450D01*
X146939908Y-110513676D01*
X147128266Y-110435655D01*
X147297784Y-110322387D01*
X147441947Y-110178224D01*
X147555215Y-110008706D01*
X147633236Y-109820348D01*
X147673010Y-109620389D01*
X147673010Y-109416511D01*
X147633236Y-109216552D01*
X147632935Y-109215825D01*
X150672900Y-109215825D01*
X150672900Y-109498495D01*
X150728047Y-109775734D01*
X150836220Y-110036887D01*
X150993263Y-110271919D01*
X151193141Y-110471797D01*
X151428173Y-110628840D01*
X151689326Y-110737013D01*
X151966565Y-110792160D01*
X152249235Y-110792160D01*
X152526474Y-110737013D01*
X152787627Y-110628840D01*
X153022659Y-110471797D01*
X153222537Y-110271919D01*
X153379580Y-110036887D01*
X153487753Y-109775734D01*
X153542900Y-109498495D01*
X153542900Y-109215825D01*
X153537180Y-109187065D01*
X163080900Y-109187065D01*
X163080900Y-109527255D01*
X163147268Y-109860907D01*
X163277453Y-110175201D01*
X163466452Y-110458058D01*
X163707002Y-110698608D01*
X163989859Y-110887607D01*
X164304153Y-111017792D01*
X164637805Y-111084160D01*
X164977995Y-111084160D01*
X165311647Y-111017792D01*
X165625941Y-110887607D01*
X165908798Y-110698608D01*
X166149348Y-110458058D01*
X166338347Y-110175201D01*
X166468532Y-109860907D01*
X166534900Y-109527255D01*
X166534900Y-109187065D01*
X166468532Y-108853413D01*
X166338347Y-108539119D01*
X166149348Y-108256262D01*
X165908798Y-108015712D01*
X165625941Y-107826713D01*
X165311647Y-107696528D01*
X164977995Y-107630160D01*
X164637805Y-107630160D01*
X164304153Y-107696528D01*
X163989859Y-107826713D01*
X163707002Y-108015712D01*
X163466452Y-108256262D01*
X163277453Y-108539119D01*
X163147268Y-108853413D01*
X163080900Y-109187065D01*
X153537180Y-109187065D01*
X153487753Y-108938586D01*
X153379580Y-108677433D01*
X153222537Y-108442401D01*
X153022659Y-108242523D01*
X152787627Y-108085480D01*
X152526474Y-107977307D01*
X152249235Y-107922160D01*
X151966565Y-107922160D01*
X151689326Y-107977307D01*
X151428173Y-108085480D01*
X151193141Y-108242523D01*
X150993263Y-108442401D01*
X150836220Y-108677433D01*
X150728047Y-108938586D01*
X150672900Y-109215825D01*
X147632935Y-109215825D01*
X147555215Y-109028194D01*
X147441947Y-108858676D01*
X147297784Y-108714513D01*
X147128266Y-108601245D01*
X146939908Y-108523224D01*
X146739949Y-108483450D01*
X146536071Y-108483450D01*
X146336112Y-108523224D01*
X146147754Y-108601245D01*
X145978236Y-108714513D01*
X145834073Y-108858676D01*
X145720805Y-109028194D01*
X145642784Y-109216552D01*
X145603010Y-109416511D01*
X101719380Y-109416511D01*
X101719380Y-106779872D01*
X105765000Y-106779872D01*
X105765000Y-107220128D01*
X105850890Y-107651925D01*
X106019369Y-108058669D01*
X106263962Y-108424729D01*
X106575271Y-108736038D01*
X106941331Y-108980631D01*
X107348075Y-109149110D01*
X107779872Y-109235000D01*
X108220128Y-109235000D01*
X108651925Y-109149110D01*
X109058669Y-108980631D01*
X109424729Y-108736038D01*
X109736038Y-108424729D01*
X109980631Y-108058669D01*
X110149110Y-107651925D01*
X110235000Y-107220128D01*
X110235000Y-106779872D01*
X189765000Y-106779872D01*
X189765000Y-107220128D01*
X189850890Y-107651925D01*
X190019369Y-108058669D01*
X190263962Y-108424729D01*
X190575271Y-108736038D01*
X190941331Y-108980631D01*
X191348075Y-109149110D01*
X191779872Y-109235000D01*
X192220128Y-109235000D01*
X192651925Y-109149110D01*
X193058669Y-108980631D01*
X193424729Y-108736038D01*
X193736038Y-108424729D01*
X193980631Y-108058669D01*
X194149110Y-107651925D01*
X194235000Y-107220128D01*
X194235000Y-106779872D01*
X194149110Y-106348075D01*
X193980631Y-105941331D01*
X193736038Y-105575271D01*
X193424729Y-105263962D01*
X193058669Y-105019369D01*
X192651925Y-104850890D01*
X192220128Y-104765000D01*
X191779872Y-104765000D01*
X191348075Y-104850890D01*
X190941331Y-105019369D01*
X190575271Y-105263962D01*
X190263962Y-105575271D01*
X190019369Y-105941331D01*
X189850890Y-106348075D01*
X189765000Y-106779872D01*
X110235000Y-106779872D01*
X110149110Y-106348075D01*
X109980631Y-105941331D01*
X109736038Y-105575271D01*
X109424729Y-105263962D01*
X109058669Y-105019369D01*
X108651925Y-104850890D01*
X108220128Y-104765000D01*
X107779872Y-104765000D01*
X107348075Y-104850890D01*
X106941331Y-105019369D01*
X106575271Y-105263962D01*
X106263962Y-105575271D01*
X106019369Y-105941331D01*
X105850890Y-106348075D01*
X105765000Y-106779872D01*
X101719380Y-106779872D01*
X101719380Y-104753045D01*
X142445840Y-104753045D01*
X142445840Y-105035715D01*
X142500987Y-105312954D01*
X142609160Y-105574107D01*
X142766203Y-105809139D01*
X142966081Y-106009017D01*
X143201113Y-106166060D01*
X143462266Y-106274233D01*
X143739505Y-106329380D01*
X144022175Y-106329380D01*
X144299414Y-106274233D01*
X144560567Y-106166060D01*
X144795599Y-106009017D01*
X144995477Y-105809139D01*
X145152520Y-105574107D01*
X145260693Y-105312954D01*
X145315840Y-105035715D01*
X145315840Y-104753045D01*
X145310120Y-104724285D01*
X154853840Y-104724285D01*
X154853840Y-105064475D01*
X154920208Y-105398127D01*
X155050393Y-105712421D01*
X155239392Y-105995278D01*
X155479942Y-106235828D01*
X155762799Y-106424827D01*
X156077093Y-106555012D01*
X156410745Y-106621380D01*
X156750935Y-106621380D01*
X157084587Y-106555012D01*
X157398881Y-106424827D01*
X157681738Y-106235828D01*
X157922288Y-105995278D01*
X158111287Y-105712421D01*
X158241472Y-105398127D01*
X158307840Y-105064475D01*
X158307840Y-104724285D01*
X158241472Y-104390633D01*
X158111287Y-104076339D01*
X157922288Y-103793482D01*
X157681738Y-103552932D01*
X157398881Y-103363933D01*
X157084587Y-103233748D01*
X156750935Y-103167380D01*
X156410745Y-103167380D01*
X156077093Y-103233748D01*
X155762799Y-103363933D01*
X155479942Y-103552932D01*
X155239392Y-103793482D01*
X155050393Y-104076339D01*
X154920208Y-104390633D01*
X154853840Y-104724285D01*
X145310120Y-104724285D01*
X145260693Y-104475806D01*
X145152520Y-104214653D01*
X144995477Y-103979621D01*
X144795599Y-103779743D01*
X144560567Y-103622700D01*
X144299414Y-103514527D01*
X144022175Y-103459380D01*
X143739505Y-103459380D01*
X143462266Y-103514527D01*
X143201113Y-103622700D01*
X142966081Y-103779743D01*
X142766203Y-103979621D01*
X142609160Y-104214653D01*
X142500987Y-104475806D01*
X142445840Y-104753045D01*
X101719380Y-104753045D01*
X101719380Y-94779872D01*
X105765000Y-94779872D01*
X105765000Y-95220128D01*
X105850890Y-95651925D01*
X106019369Y-96058669D01*
X106263962Y-96424729D01*
X106575271Y-96736038D01*
X106941331Y-96980631D01*
X107348075Y-97149110D01*
X107779872Y-97235000D01*
X108220128Y-97235000D01*
X108651925Y-97149110D01*
X109058669Y-96980631D01*
X109424729Y-96736038D01*
X109736038Y-96424729D01*
X109980631Y-96058669D01*
X110149110Y-95651925D01*
X110235000Y-95220128D01*
X110235000Y-94779872D01*
X110149110Y-94348075D01*
X110010525Y-94013500D01*
X147725035Y-94013500D01*
X147725035Y-96613500D01*
X147742933Y-96795224D01*
X147795940Y-96969964D01*
X147882019Y-97131005D01*
X147997861Y-97272159D01*
X148139015Y-97388001D01*
X148300056Y-97474080D01*
X148474796Y-97527087D01*
X148656520Y-97544985D01*
X149462833Y-97544985D01*
X149312710Y-97607168D01*
X149095367Y-97752392D01*
X148910532Y-97937227D01*
X148765308Y-98154570D01*
X148665276Y-98396068D01*
X148614280Y-98652442D01*
X148614280Y-98913838D01*
X148665276Y-99170212D01*
X148765308Y-99411710D01*
X148910532Y-99629053D01*
X149095367Y-99813888D01*
X149312710Y-99959112D01*
X149554208Y-100059144D01*
X149810582Y-100110140D01*
X150071978Y-100110140D01*
X150328352Y-100059144D01*
X150569850Y-99959112D01*
X150787193Y-99813888D01*
X150972028Y-99629053D01*
X151117252Y-99411710D01*
X151217284Y-99170212D01*
X151268280Y-98913838D01*
X151268280Y-98652442D01*
X151217284Y-98396068D01*
X151117252Y-98154570D01*
X150972028Y-97937227D01*
X150787193Y-97752392D01*
X150569850Y-97607168D01*
X150419727Y-97544985D01*
X151256520Y-97544985D01*
X151438244Y-97527087D01*
X151612984Y-97474080D01*
X151774025Y-97388001D01*
X151915179Y-97272159D01*
X152031021Y-97131005D01*
X152117100Y-96969964D01*
X152170107Y-96795224D01*
X152183156Y-96662724D01*
X153866901Y-96662724D01*
X153998837Y-96957812D01*
X154339565Y-97128659D01*
X154707077Y-97229750D01*
X155087249Y-97257201D01*
X155465471Y-97209957D01*
X155827210Y-97089833D01*
X156074203Y-96957812D01*
X156206139Y-96662724D01*
X155036520Y-95493105D01*
X153866901Y-96662724D01*
X152183156Y-96662724D01*
X152188005Y-96613500D01*
X152188005Y-95364229D01*
X153092819Y-95364229D01*
X153140063Y-95742451D01*
X153260187Y-96104190D01*
X153392208Y-96351183D01*
X153687296Y-96483119D01*
X154856915Y-95313500D01*
X155216125Y-95313500D01*
X156385744Y-96483119D01*
X156680832Y-96351183D01*
X156851679Y-96010455D01*
X156952770Y-95642943D01*
X156980221Y-95262771D01*
X156932977Y-94884549D01*
X156898217Y-94779872D01*
X189765000Y-94779872D01*
X189765000Y-95220128D01*
X189850890Y-95651925D01*
X190019369Y-96058669D01*
X190263962Y-96424729D01*
X190575271Y-96736038D01*
X190941331Y-96980631D01*
X191348075Y-97149110D01*
X191779872Y-97235000D01*
X192220128Y-97235000D01*
X192651925Y-97149110D01*
X193058669Y-96980631D01*
X193424729Y-96736038D01*
X193736038Y-96424729D01*
X193980631Y-96058669D01*
X194149110Y-95651925D01*
X194235000Y-95220128D01*
X194235000Y-94779872D01*
X194149110Y-94348075D01*
X193980631Y-93941331D01*
X193736038Y-93575271D01*
X193424729Y-93263962D01*
X193058669Y-93019369D01*
X192651925Y-92850890D01*
X192220128Y-92765000D01*
X191779872Y-92765000D01*
X191348075Y-92850890D01*
X190941331Y-93019369D01*
X190575271Y-93263962D01*
X190263962Y-93575271D01*
X190019369Y-93941331D01*
X189850890Y-94348075D01*
X189765000Y-94779872D01*
X156898217Y-94779872D01*
X156812853Y-94522810D01*
X156680832Y-94275817D01*
X156385744Y-94143881D01*
X155216125Y-95313500D01*
X154856915Y-95313500D01*
X153687296Y-94143881D01*
X153392208Y-94275817D01*
X153221361Y-94616545D01*
X153120270Y-94984057D01*
X153092819Y-95364229D01*
X152188005Y-95364229D01*
X152188005Y-94013500D01*
X152183157Y-93964276D01*
X153866901Y-93964276D01*
X155036520Y-95133895D01*
X156206139Y-93964276D01*
X156074203Y-93669188D01*
X155733475Y-93498341D01*
X155365963Y-93397250D01*
X154985791Y-93369799D01*
X154607569Y-93417043D01*
X154245830Y-93537167D01*
X153998837Y-93669188D01*
X153866901Y-93964276D01*
X152183157Y-93964276D01*
X152170107Y-93831776D01*
X152117100Y-93657036D01*
X152031021Y-93495995D01*
X151915179Y-93354841D01*
X151774025Y-93238999D01*
X151612984Y-93152920D01*
X151438244Y-93099913D01*
X151256520Y-93082015D01*
X148656520Y-93082015D01*
X148474796Y-93099913D01*
X148300056Y-93152920D01*
X148139015Y-93238999D01*
X147997861Y-93354841D01*
X147882019Y-93495995D01*
X147795940Y-93657036D01*
X147742933Y-93831776D01*
X147725035Y-94013500D01*
X110010525Y-94013500D01*
X109980631Y-93941331D01*
X109736038Y-93575271D01*
X109424729Y-93263962D01*
X109058669Y-93019369D01*
X108651925Y-92850890D01*
X108220128Y-92765000D01*
X107779872Y-92765000D01*
X107348075Y-92850890D01*
X106941331Y-93019369D01*
X106575271Y-93263962D01*
X106263962Y-93575271D01*
X106019369Y-93941331D01*
X105850890Y-94348075D01*
X105765000Y-94779872D01*
X101719380Y-94779872D01*
X101719380Y-91432380D01*
X198048880Y-91432380D01*
X198048880Y-118745000D01*
G37*
X198048880Y-118745000D02*
X101719380Y-118745000D01*
X101719380Y-111981581D01*
X155298520Y-111981581D01*
X155298520Y-112185459D01*
X155338294Y-112385418D01*
X155416315Y-112573776D01*
X155529583Y-112743294D01*
X155673746Y-112887457D01*
X155843264Y-113000725D01*
X156031622Y-113078746D01*
X156231581Y-113118520D01*
X156435459Y-113118520D01*
X156635418Y-113078746D01*
X156823776Y-113000725D01*
X156993294Y-112887457D01*
X157137457Y-112743294D01*
X157250725Y-112573776D01*
X157328746Y-112385418D01*
X157368520Y-112185459D01*
X157368520Y-111981581D01*
X157328746Y-111781622D01*
X157250725Y-111593264D01*
X157137457Y-111423746D01*
X156993294Y-111279583D01*
X156823776Y-111166315D01*
X156635418Y-111088294D01*
X156435459Y-111048520D01*
X156231581Y-111048520D01*
X156031622Y-111088294D01*
X155843264Y-111166315D01*
X155673746Y-111279583D01*
X155529583Y-111423746D01*
X155416315Y-111593264D01*
X155338294Y-111781622D01*
X155298520Y-111981581D01*
X101719380Y-111981581D01*
X101719380Y-109416511D01*
X145603010Y-109416511D01*
X145603010Y-109620389D01*
X145642784Y-109820348D01*
X145720805Y-110008706D01*
X145834073Y-110178224D01*
X145978236Y-110322387D01*
X146147754Y-110435655D01*
X146336112Y-110513676D01*
X146536071Y-110553450D01*
X146739949Y-110553450D01*
X146939908Y-110513676D01*
X147128266Y-110435655D01*
X147297784Y-110322387D01*
X147441947Y-110178224D01*
X147555215Y-110008706D01*
X147633236Y-109820348D01*
X147673010Y-109620389D01*
X147673010Y-109416511D01*
X147633236Y-109216552D01*
X147632935Y-109215825D01*
X150672900Y-109215825D01*
X150672900Y-109498495D01*
X150728047Y-109775734D01*
X150836220Y-110036887D01*
X150993263Y-110271919D01*
X151193141Y-110471797D01*
X151428173Y-110628840D01*
X151689326Y-110737013D01*
X151966565Y-110792160D01*
X152249235Y-110792160D01*
X152526474Y-110737013D01*
X152787627Y-110628840D01*
X153022659Y-110471797D01*
X153222537Y-110271919D01*
X153379580Y-110036887D01*
X153487753Y-109775734D01*
X153542900Y-109498495D01*
X153542900Y-109215825D01*
X153537180Y-109187065D01*
X163080900Y-109187065D01*
X163080900Y-109527255D01*
X163147268Y-109860907D01*
X163277453Y-110175201D01*
X163466452Y-110458058D01*
X163707002Y-110698608D01*
X163989859Y-110887607D01*
X164304153Y-111017792D01*
X164637805Y-111084160D01*
X164977995Y-111084160D01*
X165311647Y-111017792D01*
X165625941Y-110887607D01*
X165908798Y-110698608D01*
X166149348Y-110458058D01*
X166338347Y-110175201D01*
X166468532Y-109860907D01*
X166534900Y-109527255D01*
X166534900Y-109187065D01*
X166468532Y-108853413D01*
X166338347Y-108539119D01*
X166149348Y-108256262D01*
X165908798Y-108015712D01*
X165625941Y-107826713D01*
X165311647Y-107696528D01*
X164977995Y-107630160D01*
X164637805Y-107630160D01*
X164304153Y-107696528D01*
X163989859Y-107826713D01*
X163707002Y-108015712D01*
X163466452Y-108256262D01*
X163277453Y-108539119D01*
X163147268Y-108853413D01*
X163080900Y-109187065D01*
X153537180Y-109187065D01*
X153487753Y-108938586D01*
X153379580Y-108677433D01*
X153222537Y-108442401D01*
X153022659Y-108242523D01*
X152787627Y-108085480D01*
X152526474Y-107977307D01*
X152249235Y-107922160D01*
X151966565Y-107922160D01*
X151689326Y-107977307D01*
X151428173Y-108085480D01*
X151193141Y-108242523D01*
X150993263Y-108442401D01*
X150836220Y-108677433D01*
X150728047Y-108938586D01*
X150672900Y-109215825D01*
X147632935Y-109215825D01*
X147555215Y-109028194D01*
X147441947Y-108858676D01*
X147297784Y-108714513D01*
X147128266Y-108601245D01*
X146939908Y-108523224D01*
X146739949Y-108483450D01*
X146536071Y-108483450D01*
X146336112Y-108523224D01*
X146147754Y-108601245D01*
X145978236Y-108714513D01*
X145834073Y-108858676D01*
X145720805Y-109028194D01*
X145642784Y-109216552D01*
X145603010Y-109416511D01*
X101719380Y-109416511D01*
X101719380Y-106779872D01*
X105765000Y-106779872D01*
X105765000Y-107220128D01*
X105850890Y-107651925D01*
X106019369Y-108058669D01*
X106263962Y-108424729D01*
X106575271Y-108736038D01*
X106941331Y-108980631D01*
X107348075Y-109149110D01*
X107779872Y-109235000D01*
X108220128Y-109235000D01*
X108651925Y-109149110D01*
X109058669Y-108980631D01*
X109424729Y-108736038D01*
X109736038Y-108424729D01*
X109980631Y-108058669D01*
X110149110Y-107651925D01*
X110235000Y-107220128D01*
X110235000Y-106779872D01*
X189765000Y-106779872D01*
X189765000Y-107220128D01*
X189850890Y-107651925D01*
X190019369Y-108058669D01*
X190263962Y-108424729D01*
X190575271Y-108736038D01*
X190941331Y-108980631D01*
X191348075Y-109149110D01*
X191779872Y-109235000D01*
X192220128Y-109235000D01*
X192651925Y-109149110D01*
X193058669Y-108980631D01*
X193424729Y-108736038D01*
X193736038Y-108424729D01*
X193980631Y-108058669D01*
X194149110Y-107651925D01*
X194235000Y-107220128D01*
X194235000Y-106779872D01*
X194149110Y-106348075D01*
X193980631Y-105941331D01*
X193736038Y-105575271D01*
X193424729Y-105263962D01*
X193058669Y-105019369D01*
X192651925Y-104850890D01*
X192220128Y-104765000D01*
X191779872Y-104765000D01*
X191348075Y-104850890D01*
X190941331Y-105019369D01*
X190575271Y-105263962D01*
X190263962Y-105575271D01*
X190019369Y-105941331D01*
X189850890Y-106348075D01*
X189765000Y-106779872D01*
X110235000Y-106779872D01*
X110149110Y-106348075D01*
X109980631Y-105941331D01*
X109736038Y-105575271D01*
X109424729Y-105263962D01*
X109058669Y-105019369D01*
X108651925Y-104850890D01*
X108220128Y-104765000D01*
X107779872Y-104765000D01*
X107348075Y-104850890D01*
X106941331Y-105019369D01*
X106575271Y-105263962D01*
X106263962Y-105575271D01*
X106019369Y-105941331D01*
X105850890Y-106348075D01*
X105765000Y-106779872D01*
X101719380Y-106779872D01*
X101719380Y-104753045D01*
X142445840Y-104753045D01*
X142445840Y-105035715D01*
X142500987Y-105312954D01*
X142609160Y-105574107D01*
X142766203Y-105809139D01*
X142966081Y-106009017D01*
X143201113Y-106166060D01*
X143462266Y-106274233D01*
X143739505Y-106329380D01*
X144022175Y-106329380D01*
X144299414Y-106274233D01*
X144560567Y-106166060D01*
X144795599Y-106009017D01*
X144995477Y-105809139D01*
X145152520Y-105574107D01*
X145260693Y-105312954D01*
X145315840Y-105035715D01*
X145315840Y-104753045D01*
X145310120Y-104724285D01*
X154853840Y-104724285D01*
X154853840Y-105064475D01*
X154920208Y-105398127D01*
X155050393Y-105712421D01*
X155239392Y-105995278D01*
X155479942Y-106235828D01*
X155762799Y-106424827D01*
X156077093Y-106555012D01*
X156410745Y-106621380D01*
X156750935Y-106621380D01*
X157084587Y-106555012D01*
X157398881Y-106424827D01*
X157681738Y-106235828D01*
X157922288Y-105995278D01*
X158111287Y-105712421D01*
X158241472Y-105398127D01*
X158307840Y-105064475D01*
X158307840Y-104724285D01*
X158241472Y-104390633D01*
X158111287Y-104076339D01*
X157922288Y-103793482D01*
X157681738Y-103552932D01*
X157398881Y-103363933D01*
X157084587Y-103233748D01*
X156750935Y-103167380D01*
X156410745Y-103167380D01*
X156077093Y-103233748D01*
X155762799Y-103363933D01*
X155479942Y-103552932D01*
X155239392Y-103793482D01*
X155050393Y-104076339D01*
X154920208Y-104390633D01*
X154853840Y-104724285D01*
X145310120Y-104724285D01*
X145260693Y-104475806D01*
X145152520Y-104214653D01*
X144995477Y-103979621D01*
X144795599Y-103779743D01*
X144560567Y-103622700D01*
X144299414Y-103514527D01*
X144022175Y-103459380D01*
X143739505Y-103459380D01*
X143462266Y-103514527D01*
X143201113Y-103622700D01*
X142966081Y-103779743D01*
X142766203Y-103979621D01*
X142609160Y-104214653D01*
X142500987Y-104475806D01*
X142445840Y-104753045D01*
X101719380Y-104753045D01*
X101719380Y-94779872D01*
X105765000Y-94779872D01*
X105765000Y-95220128D01*
X105850890Y-95651925D01*
X106019369Y-96058669D01*
X106263962Y-96424729D01*
X106575271Y-96736038D01*
X106941331Y-96980631D01*
X107348075Y-97149110D01*
X107779872Y-97235000D01*
X108220128Y-97235000D01*
X108651925Y-97149110D01*
X109058669Y-96980631D01*
X109424729Y-96736038D01*
X109736038Y-96424729D01*
X109980631Y-96058669D01*
X110149110Y-95651925D01*
X110235000Y-95220128D01*
X110235000Y-94779872D01*
X110149110Y-94348075D01*
X110010525Y-94013500D01*
X147725035Y-94013500D01*
X147725035Y-96613500D01*
X147742933Y-96795224D01*
X147795940Y-96969964D01*
X147882019Y-97131005D01*
X147997861Y-97272159D01*
X148139015Y-97388001D01*
X148300056Y-97474080D01*
X148474796Y-97527087D01*
X148656520Y-97544985D01*
X149462833Y-97544985D01*
X149312710Y-97607168D01*
X149095367Y-97752392D01*
X148910532Y-97937227D01*
X148765308Y-98154570D01*
X148665276Y-98396068D01*
X148614280Y-98652442D01*
X148614280Y-98913838D01*
X148665276Y-99170212D01*
X148765308Y-99411710D01*
X148910532Y-99629053D01*
X149095367Y-99813888D01*
X149312710Y-99959112D01*
X149554208Y-100059144D01*
X149810582Y-100110140D01*
X150071978Y-100110140D01*
X150328352Y-100059144D01*
X150569850Y-99959112D01*
X150787193Y-99813888D01*
X150972028Y-99629053D01*
X151117252Y-99411710D01*
X151217284Y-99170212D01*
X151268280Y-98913838D01*
X151268280Y-98652442D01*
X151217284Y-98396068D01*
X151117252Y-98154570D01*
X150972028Y-97937227D01*
X150787193Y-97752392D01*
X150569850Y-97607168D01*
X150419727Y-97544985D01*
X151256520Y-97544985D01*
X151438244Y-97527087D01*
X151612984Y-97474080D01*
X151774025Y-97388001D01*
X151915179Y-97272159D01*
X152031021Y-97131005D01*
X152117100Y-96969964D01*
X152170107Y-96795224D01*
X152183156Y-96662724D01*
X153866901Y-96662724D01*
X153998837Y-96957812D01*
X154339565Y-97128659D01*
X154707077Y-97229750D01*
X155087249Y-97257201D01*
X155465471Y-97209957D01*
X155827210Y-97089833D01*
X156074203Y-96957812D01*
X156206139Y-96662724D01*
X155036520Y-95493105D01*
X153866901Y-96662724D01*
X152183156Y-96662724D01*
X152188005Y-96613500D01*
X152188005Y-95364229D01*
X153092819Y-95364229D01*
X153140063Y-95742451D01*
X153260187Y-96104190D01*
X153392208Y-96351183D01*
X153687296Y-96483119D01*
X154856915Y-95313500D01*
X155216125Y-95313500D01*
X156385744Y-96483119D01*
X156680832Y-96351183D01*
X156851679Y-96010455D01*
X156952770Y-95642943D01*
X156980221Y-95262771D01*
X156932977Y-94884549D01*
X156898217Y-94779872D01*
X189765000Y-94779872D01*
X189765000Y-95220128D01*
X189850890Y-95651925D01*
X190019369Y-96058669D01*
X190263962Y-96424729D01*
X190575271Y-96736038D01*
X190941331Y-96980631D01*
X191348075Y-97149110D01*
X191779872Y-97235000D01*
X192220128Y-97235000D01*
X192651925Y-97149110D01*
X193058669Y-96980631D01*
X193424729Y-96736038D01*
X193736038Y-96424729D01*
X193980631Y-96058669D01*
X194149110Y-95651925D01*
X194235000Y-95220128D01*
X194235000Y-94779872D01*
X194149110Y-94348075D01*
X193980631Y-93941331D01*
X193736038Y-93575271D01*
X193424729Y-93263962D01*
X193058669Y-93019369D01*
X192651925Y-92850890D01*
X192220128Y-92765000D01*
X191779872Y-92765000D01*
X191348075Y-92850890D01*
X190941331Y-93019369D01*
X190575271Y-93263962D01*
X190263962Y-93575271D01*
X190019369Y-93941331D01*
X189850890Y-94348075D01*
X189765000Y-94779872D01*
X156898217Y-94779872D01*
X156812853Y-94522810D01*
X156680832Y-94275817D01*
X156385744Y-94143881D01*
X155216125Y-95313500D01*
X154856915Y-95313500D01*
X153687296Y-94143881D01*
X153392208Y-94275817D01*
X153221361Y-94616545D01*
X153120270Y-94984057D01*
X153092819Y-95364229D01*
X152188005Y-95364229D01*
X152188005Y-94013500D01*
X152183157Y-93964276D01*
X153866901Y-93964276D01*
X155036520Y-95133895D01*
X156206139Y-93964276D01*
X156074203Y-93669188D01*
X155733475Y-93498341D01*
X155365963Y-93397250D01*
X154985791Y-93369799D01*
X154607569Y-93417043D01*
X154245830Y-93537167D01*
X153998837Y-93669188D01*
X153866901Y-93964276D01*
X152183157Y-93964276D01*
X152170107Y-93831776D01*
X152117100Y-93657036D01*
X152031021Y-93495995D01*
X151915179Y-93354841D01*
X151774025Y-93238999D01*
X151612984Y-93152920D01*
X151438244Y-93099913D01*
X151256520Y-93082015D01*
X148656520Y-93082015D01*
X148474796Y-93099913D01*
X148300056Y-93152920D01*
X148139015Y-93238999D01*
X147997861Y-93354841D01*
X147882019Y-93495995D01*
X147795940Y-93657036D01*
X147742933Y-93831776D01*
X147725035Y-94013500D01*
X110010525Y-94013500D01*
X109980631Y-93941331D01*
X109736038Y-93575271D01*
X109424729Y-93263962D01*
X109058669Y-93019369D01*
X108651925Y-92850890D01*
X108220128Y-92765000D01*
X107779872Y-92765000D01*
X107348075Y-92850890D01*
X106941331Y-93019369D01*
X106575271Y-93263962D01*
X106263962Y-93575271D01*
X106019369Y-93941331D01*
X105850890Y-94348075D01*
X105765000Y-94779872D01*
X101719380Y-94779872D01*
X101719380Y-91432380D01*
X198048880Y-91432380D01*
X198048880Y-118745000D01*
G36*
X198600060Y-89080340D02*
G01*
X101130100Y-89080340D01*
X101130100Y-86821722D01*
X138274763Y-86821722D01*
X138346346Y-87065691D01*
X138601856Y-87186591D01*
X138876044Y-87255320D01*
X139158372Y-87269237D01*
X139437990Y-87227807D01*
X139704152Y-87132623D01*
X139829374Y-87065691D01*
X139900957Y-86821722D01*
X139087860Y-86008625D01*
X138274763Y-86821722D01*
X101130100Y-86821722D01*
X101130100Y-85899532D01*
X137647643Y-85899532D01*
X137689073Y-86179150D01*
X137784257Y-86445312D01*
X137851189Y-86570534D01*
X138095158Y-86642117D01*
X138908255Y-85829020D01*
X139267465Y-85829020D01*
X140080562Y-86642117D01*
X140324531Y-86570534D01*
X140445431Y-86315024D01*
X140514160Y-86040836D01*
X140528077Y-85758508D01*
X140486647Y-85478890D01*
X140391463Y-85212728D01*
X140324531Y-85087506D01*
X140080562Y-85015923D01*
X139267465Y-85829020D01*
X138908255Y-85829020D01*
X138095158Y-85015923D01*
X137851189Y-85087506D01*
X137730289Y-85343016D01*
X137661560Y-85617204D01*
X137647643Y-85899532D01*
X101130100Y-85899532D01*
X101130100Y-84836318D01*
X138274763Y-84836318D01*
X139087860Y-85649415D01*
X139900957Y-84836318D01*
X139829374Y-84592349D01*
X139573864Y-84471449D01*
X139299676Y-84402720D01*
X139017348Y-84388803D01*
X138737730Y-84430233D01*
X138471568Y-84525417D01*
X138346346Y-84592349D01*
X138274763Y-84836318D01*
X101130100Y-84836318D01*
X101130100Y-81448306D01*
X120624040Y-81448306D01*
X120624040Y-81741614D01*
X120681261Y-82029285D01*
X120793505Y-82300266D01*
X120956458Y-82544142D01*
X121163858Y-82751542D01*
X121407734Y-82914495D01*
X121678715Y-83026739D01*
X121966386Y-83083960D01*
X122259694Y-83083960D01*
X122547365Y-83026739D01*
X122818346Y-82914495D01*
X123062222Y-82751542D01*
X123269622Y-82544142D01*
X123432575Y-82300266D01*
X123544819Y-82029285D01*
X123602040Y-81741614D01*
X123602040Y-81529020D01*
X137557343Y-81529020D01*
X137557343Y-83129020D01*
X137571380Y-83271537D01*
X137612950Y-83408577D01*
X137680457Y-83534873D01*
X137771306Y-83645574D01*
X137882007Y-83736423D01*
X138008303Y-83803930D01*
X138145343Y-83845500D01*
X138287860Y-83859537D01*
X139887860Y-83859537D01*
X140030377Y-83845500D01*
X140167417Y-83803930D01*
X140293713Y-83736423D01*
X140404414Y-83645574D01*
X140495263Y-83534873D01*
X140562770Y-83408577D01*
X140604340Y-83271537D01*
X140609248Y-83221700D01*
X169200563Y-83221700D01*
X169200563Y-86983700D01*
X169214600Y-87126217D01*
X169256170Y-87263257D01*
X169323677Y-87389553D01*
X169414526Y-87500254D01*
X169525227Y-87591103D01*
X169651523Y-87658610D01*
X169788563Y-87700180D01*
X169931080Y-87714217D01*
X171455080Y-87714217D01*
X171597597Y-87700180D01*
X171734637Y-87658610D01*
X171860933Y-87591103D01*
X171971634Y-87500254D01*
X172062483Y-87389553D01*
X172129990Y-87263257D01*
X172171560Y-87126217D01*
X172185597Y-86983700D01*
X172185597Y-83221700D01*
X172171560Y-83079183D01*
X172129990Y-82942143D01*
X172062483Y-82815847D01*
X171971634Y-82705146D01*
X171860933Y-82614297D01*
X171734637Y-82546790D01*
X171597597Y-82505220D01*
X171455080Y-82491183D01*
X169931080Y-82491183D01*
X169788563Y-82505220D01*
X169651523Y-82546790D01*
X169525227Y-82614297D01*
X169414526Y-82705146D01*
X169323677Y-82815847D01*
X169256170Y-82942143D01*
X169214600Y-83079183D01*
X169200563Y-83221700D01*
X140609248Y-83221700D01*
X140618377Y-83129020D01*
X140618377Y-81529020D01*
X140604340Y-81386503D01*
X140562770Y-81249463D01*
X140495263Y-81123167D01*
X140404414Y-81012466D01*
X140293713Y-80921617D01*
X140167417Y-80854110D01*
X140030377Y-80812540D01*
X139887860Y-80798503D01*
X138287860Y-80798503D01*
X138145343Y-80812540D01*
X138008303Y-80854110D01*
X137882007Y-80921617D01*
X137771306Y-81012466D01*
X137680457Y-81123167D01*
X137612950Y-81249463D01*
X137571380Y-81386503D01*
X137557343Y-81529020D01*
X123602040Y-81529020D01*
X123602040Y-81448306D01*
X123544819Y-81160635D01*
X123432575Y-80889654D01*
X123269622Y-80645778D01*
X123062222Y-80438378D01*
X122818346Y-80275425D01*
X122547365Y-80163181D01*
X122259694Y-80105960D01*
X121966386Y-80105960D01*
X121678715Y-80163181D01*
X121407734Y-80275425D01*
X121163858Y-80438378D01*
X120956458Y-80645778D01*
X120793505Y-80889654D01*
X120681261Y-81160635D01*
X120624040Y-81448306D01*
X101130100Y-81448306D01*
X101130100Y-76770811D01*
X105673000Y-76770811D01*
X105673000Y-77229189D01*
X105762426Y-77678761D01*
X105937840Y-78102248D01*
X106192501Y-78483376D01*
X106516624Y-78807499D01*
X106897752Y-79062160D01*
X107321239Y-79237574D01*
X107770811Y-79327000D01*
X108229189Y-79327000D01*
X108678761Y-79237574D01*
X109102248Y-79062160D01*
X109483376Y-78807499D01*
X109782551Y-78508324D01*
X113044780Y-78508324D01*
X113044780Y-78809116D01*
X113103461Y-79104130D01*
X113218570Y-79382026D01*
X113385681Y-79632126D01*
X113598374Y-79844819D01*
X113848474Y-80011930D01*
X114126370Y-80127039D01*
X114421384Y-80185720D01*
X114722176Y-80185720D01*
X115017190Y-80127039D01*
X115295086Y-80011930D01*
X115545186Y-79844819D01*
X115757879Y-79632126D01*
X115924990Y-79382026D01*
X116040099Y-79104130D01*
X116079050Y-78908306D01*
X118084040Y-78908306D01*
X118084040Y-79201614D01*
X118141261Y-79489285D01*
X118253505Y-79760266D01*
X118416458Y-80004142D01*
X118623858Y-80211542D01*
X118867734Y-80374495D01*
X119138715Y-80486739D01*
X119426386Y-80543960D01*
X119719694Y-80543960D01*
X120007365Y-80486739D01*
X120278346Y-80374495D01*
X120522222Y-80211542D01*
X120729622Y-80004142D01*
X120892575Y-79760266D01*
X121004819Y-79489285D01*
X121062040Y-79201614D01*
X121062040Y-78908306D01*
X121004819Y-78620635D01*
X120892575Y-78349654D01*
X120854694Y-78292960D01*
X123160523Y-78292960D01*
X123160523Y-79816960D01*
X123174560Y-79959477D01*
X123216130Y-80096517D01*
X123283637Y-80222813D01*
X123374486Y-80333514D01*
X123485187Y-80424363D01*
X123611483Y-80491870D01*
X123748523Y-80533440D01*
X123891040Y-80547477D01*
X125415040Y-80547477D01*
X125557557Y-80533440D01*
X125694597Y-80491870D01*
X125820893Y-80424363D01*
X125931594Y-80333514D01*
X126022443Y-80222813D01*
X126089950Y-80096517D01*
X126131520Y-79959477D01*
X126145557Y-79816960D01*
X126145557Y-78292960D01*
X126131520Y-78150443D01*
X126089950Y-78013403D01*
X126022443Y-77887107D01*
X125931594Y-77776406D01*
X125820893Y-77685557D01*
X125694597Y-77618050D01*
X125557557Y-77576480D01*
X125415040Y-77562443D01*
X123891040Y-77562443D01*
X123748523Y-77576480D01*
X123611483Y-77618050D01*
X123485187Y-77685557D01*
X123374486Y-77776406D01*
X123283637Y-77887107D01*
X123216130Y-78013403D01*
X123174560Y-78150443D01*
X123160523Y-78292960D01*
X120854694Y-78292960D01*
X120729622Y-78105778D01*
X120522222Y-77898378D01*
X120278346Y-77735425D01*
X120007365Y-77623181D01*
X119719694Y-77565960D01*
X119426386Y-77565960D01*
X119138715Y-77623181D01*
X118867734Y-77735425D01*
X118623858Y-77898378D01*
X118416458Y-78105778D01*
X118253505Y-78349654D01*
X118141261Y-78620635D01*
X118084040Y-78908306D01*
X116079050Y-78908306D01*
X116098780Y-78809116D01*
X116098780Y-78508324D01*
X116040099Y-78213310D01*
X115924990Y-77935414D01*
X115757879Y-77685314D01*
X115545186Y-77472621D01*
X115295086Y-77305510D01*
X115017190Y-77190401D01*
X114722176Y-77131720D01*
X114421384Y-77131720D01*
X114126370Y-77190401D01*
X113848474Y-77305510D01*
X113598374Y-77472621D01*
X113385681Y-77685314D01*
X113218570Y-77935414D01*
X113103461Y-78213310D01*
X113044780Y-78508324D01*
X109782551Y-78508324D01*
X109807499Y-78483376D01*
X110062160Y-78102248D01*
X110237574Y-77678761D01*
X110327000Y-77229189D01*
X110327000Y-76770811D01*
X110296545Y-76617700D01*
X169200563Y-76617700D01*
X169200563Y-80379700D01*
X169214600Y-80522217D01*
X169256170Y-80659257D01*
X169323677Y-80785553D01*
X169414526Y-80896254D01*
X169525227Y-80987103D01*
X169651523Y-81054610D01*
X169788563Y-81096180D01*
X169931080Y-81110217D01*
X171455080Y-81110217D01*
X171597597Y-81096180D01*
X171734637Y-81054610D01*
X171860933Y-80987103D01*
X171971634Y-80896254D01*
X172062483Y-80785553D01*
X172129990Y-80659257D01*
X172171560Y-80522217D01*
X172185597Y-80379700D01*
X172185597Y-78700000D01*
X179462643Y-78700000D01*
X179462643Y-81300000D01*
X179476680Y-81442517D01*
X179518250Y-81579557D01*
X179585757Y-81705853D01*
X179676606Y-81816554D01*
X179787307Y-81907403D01*
X179913603Y-81974910D01*
X180050643Y-82016480D01*
X180193160Y-82030517D01*
X182793160Y-82030517D01*
X182935677Y-82016480D01*
X183072717Y-81974910D01*
X183199013Y-81907403D01*
X183309714Y-81816554D01*
X183400563Y-81705853D01*
X183468070Y-81579557D01*
X183509640Y-81442517D01*
X183523677Y-81300000D01*
X183523677Y-78700000D01*
X183509640Y-78557483D01*
X183468070Y-78420443D01*
X183400563Y-78294147D01*
X183309714Y-78183446D01*
X183199013Y-78092597D01*
X183072717Y-78025090D01*
X182935677Y-77983520D01*
X182793160Y-77969483D01*
X180193160Y-77969483D01*
X180050643Y-77983520D01*
X179913603Y-78025090D01*
X179787307Y-78092597D01*
X179676606Y-78183446D01*
X179585757Y-78294147D01*
X179518250Y-78420443D01*
X179476680Y-78557483D01*
X179462643Y-78700000D01*
X172185597Y-78700000D01*
X172185597Y-76617700D01*
X172171560Y-76475183D01*
X172129990Y-76338143D01*
X172062483Y-76211847D01*
X171971634Y-76101146D01*
X171860933Y-76010297D01*
X171734637Y-75942790D01*
X171597597Y-75901220D01*
X171455080Y-75887183D01*
X169931080Y-75887183D01*
X169788563Y-75901220D01*
X169651523Y-75942790D01*
X169525227Y-76010297D01*
X169414526Y-76101146D01*
X169323677Y-76211847D01*
X169256170Y-76338143D01*
X169214600Y-76475183D01*
X169200563Y-76617700D01*
X110296545Y-76617700D01*
X110237574Y-76321239D01*
X110062160Y-75897752D01*
X109807499Y-75516624D01*
X109483376Y-75192501D01*
X109102248Y-74937840D01*
X108678761Y-74762426D01*
X108467273Y-74720358D01*
X179466160Y-74720358D01*
X179466160Y-75119642D01*
X179544056Y-75511254D01*
X179696856Y-75880145D01*
X179918686Y-76212137D01*
X180201023Y-76494474D01*
X180533015Y-76716304D01*
X180901906Y-76869104D01*
X181293518Y-76947000D01*
X181692802Y-76947000D01*
X182084414Y-76869104D01*
X182321713Y-76770811D01*
X189673000Y-76770811D01*
X189673000Y-77229189D01*
X189762426Y-77678761D01*
X189937840Y-78102248D01*
X190192501Y-78483376D01*
X190516624Y-78807499D01*
X190897752Y-79062160D01*
X191321239Y-79237574D01*
X191770811Y-79327000D01*
X192229189Y-79327000D01*
X192678761Y-79237574D01*
X193102248Y-79062160D01*
X193483376Y-78807499D01*
X193807499Y-78483376D01*
X194062160Y-78102248D01*
X194237574Y-77678761D01*
X194327000Y-77229189D01*
X194327000Y-76770811D01*
X194237574Y-76321239D01*
X194062160Y-75897752D01*
X193807499Y-75516624D01*
X193483376Y-75192501D01*
X193102248Y-74937840D01*
X192678761Y-74762426D01*
X192229189Y-74673000D01*
X191770811Y-74673000D01*
X191321239Y-74762426D01*
X190897752Y-74937840D01*
X190516624Y-75192501D01*
X190192501Y-75516624D01*
X189937840Y-75897752D01*
X189762426Y-76321239D01*
X189673000Y-76770811D01*
X182321713Y-76770811D01*
X182453305Y-76716304D01*
X182785297Y-76494474D01*
X183067634Y-76212137D01*
X183289464Y-75880145D01*
X183442264Y-75511254D01*
X183520160Y-75119642D01*
X183520160Y-74720358D01*
X183442264Y-74328746D01*
X183289464Y-73959855D01*
X183067634Y-73627863D01*
X182785297Y-73345526D01*
X182453305Y-73123696D01*
X182084414Y-72970896D01*
X181692802Y-72893000D01*
X181293518Y-72893000D01*
X180901906Y-72970896D01*
X180533015Y-73123696D01*
X180201023Y-73345526D01*
X179918686Y-73627863D01*
X179696856Y-73959855D01*
X179544056Y-74328746D01*
X179466160Y-74720358D01*
X108467273Y-74720358D01*
X108229189Y-74673000D01*
X107770811Y-74673000D01*
X107321239Y-74762426D01*
X106897752Y-74937840D01*
X106516624Y-75192501D01*
X106192501Y-75516624D01*
X105937840Y-75897752D01*
X105762426Y-76321239D01*
X105673000Y-76770811D01*
X101130100Y-76770811D01*
X101130100Y-70793100D01*
X133617460Y-70793100D01*
X133617460Y-71015100D01*
X133660770Y-71232834D01*
X133745726Y-71437935D01*
X133869062Y-71622521D01*
X134026039Y-71779498D01*
X134210625Y-71902834D01*
X134415726Y-71987790D01*
X134633460Y-72031100D01*
X134855460Y-72031100D01*
X135073194Y-71987790D01*
X135278295Y-71902834D01*
X135462881Y-71779498D01*
X135619858Y-71622521D01*
X135743194Y-71437935D01*
X135828150Y-71232834D01*
X135836824Y-71189224D01*
X180323541Y-71189224D01*
X180455477Y-71484312D01*
X180796205Y-71655159D01*
X181163717Y-71756250D01*
X181543889Y-71783701D01*
X181922111Y-71736457D01*
X182283850Y-71616333D01*
X182530843Y-71484312D01*
X182662779Y-71189224D01*
X181493160Y-70019605D01*
X180323541Y-71189224D01*
X135836824Y-71189224D01*
X135871460Y-71015100D01*
X135871460Y-70793100D01*
X135828150Y-70575366D01*
X135743194Y-70370265D01*
X135619858Y-70185679D01*
X135462881Y-70028702D01*
X135278295Y-69905366D01*
X135073194Y-69820410D01*
X134855460Y-69777100D01*
X134633460Y-69777100D01*
X134415726Y-69820410D01*
X134210625Y-69905366D01*
X134026039Y-70028702D01*
X133869062Y-70185679D01*
X133745726Y-70370265D01*
X133660770Y-70575366D01*
X133617460Y-70793100D01*
X101130100Y-70793100D01*
X101130100Y-68847760D01*
X113179871Y-68847760D01*
X113274710Y-69112601D01*
X113419395Y-69353851D01*
X113608366Y-69562239D01*
X113834360Y-69729757D01*
X114088693Y-69849966D01*
X114222741Y-69890624D01*
X114444780Y-69768635D01*
X114444780Y-68625720D01*
X114698780Y-68625720D01*
X114698780Y-69768635D01*
X114920819Y-69890624D01*
X115054867Y-69849966D01*
X115309200Y-69729757D01*
X115535194Y-69562239D01*
X115672032Y-69411340D01*
X166726360Y-69411340D01*
X166726360Y-69633340D01*
X166769670Y-69851074D01*
X166854626Y-70056175D01*
X166977962Y-70240761D01*
X167134939Y-70397738D01*
X167319525Y-70521074D01*
X167524626Y-70606030D01*
X167742360Y-70649340D01*
X167964360Y-70649340D01*
X168182094Y-70606030D01*
X168387195Y-70521074D01*
X168571781Y-70397738D01*
X168728758Y-70240761D01*
X168852094Y-70056175D01*
X168920624Y-69890729D01*
X179549459Y-69890729D01*
X179596703Y-70268951D01*
X179716827Y-70630690D01*
X179848848Y-70877683D01*
X180143936Y-71009619D01*
X181313555Y-69840000D01*
X181672765Y-69840000D01*
X182842384Y-71009619D01*
X183137472Y-70877683D01*
X183308319Y-70536955D01*
X183409410Y-70169443D01*
X183436861Y-69789271D01*
X183389617Y-69411049D01*
X183269493Y-69049310D01*
X183137472Y-68802317D01*
X182842384Y-68670381D01*
X181672765Y-69840000D01*
X181313555Y-69840000D01*
X180143936Y-68670381D01*
X179848848Y-68802317D01*
X179678001Y-69143045D01*
X179576910Y-69510557D01*
X179549459Y-69890729D01*
X168920624Y-69890729D01*
X168937050Y-69851074D01*
X168980360Y-69633340D01*
X168980360Y-69411340D01*
X168937050Y-69193606D01*
X168852094Y-68988505D01*
X168728758Y-68803919D01*
X168571781Y-68646942D01*
X168387195Y-68523606D01*
X168307937Y-68490776D01*
X180323541Y-68490776D01*
X181493160Y-69660395D01*
X182662779Y-68490776D01*
X182530843Y-68195688D01*
X182190115Y-68024841D01*
X181822603Y-67923750D01*
X181442431Y-67896299D01*
X181064209Y-67943543D01*
X180702470Y-68063667D01*
X180455477Y-68195688D01*
X180323541Y-68490776D01*
X168307937Y-68490776D01*
X168182094Y-68438650D01*
X167964360Y-68395340D01*
X167742360Y-68395340D01*
X167524626Y-68438650D01*
X167319525Y-68523606D01*
X167134939Y-68646942D01*
X166977962Y-68803919D01*
X166854626Y-68988505D01*
X166769670Y-69193606D01*
X166726360Y-69411340D01*
X115672032Y-69411340D01*
X115724165Y-69353851D01*
X115868850Y-69112601D01*
X115963689Y-68847760D01*
X115842404Y-68625720D01*
X114698780Y-68625720D01*
X114444780Y-68625720D01*
X113301156Y-68625720D01*
X113179871Y-68847760D01*
X101130100Y-68847760D01*
X101130100Y-68149680D01*
X113179871Y-68149680D01*
X113301156Y-68371720D01*
X114444780Y-68371720D01*
X114444780Y-67228805D01*
X114698780Y-67228805D01*
X114698780Y-68371720D01*
X115842404Y-68371720D01*
X115963689Y-68149680D01*
X115868850Y-67884839D01*
X115724165Y-67643589D01*
X115535194Y-67435201D01*
X115309200Y-67267683D01*
X115054867Y-67147474D01*
X114920819Y-67106816D01*
X114698780Y-67228805D01*
X114444780Y-67228805D01*
X114222741Y-67106816D01*
X114088693Y-67147474D01*
X113834360Y-67267683D01*
X113608366Y-67435201D01*
X113419395Y-67643589D01*
X113274710Y-67884839D01*
X113179871Y-68149680D01*
X101130100Y-68149680D01*
X101130100Y-64770811D01*
X105673000Y-64770811D01*
X105673000Y-65229189D01*
X105762426Y-65678761D01*
X105937840Y-66102248D01*
X106192501Y-66483376D01*
X106516624Y-66807499D01*
X106897752Y-67062160D01*
X107321239Y-67237574D01*
X107770811Y-67327000D01*
X108229189Y-67327000D01*
X108678761Y-67237574D01*
X109102248Y-67062160D01*
X109483376Y-66807499D01*
X109807499Y-66483376D01*
X110062160Y-66102248D01*
X110237574Y-65678761D01*
X110327000Y-65229189D01*
X110327000Y-64770811D01*
X189673000Y-64770811D01*
X189673000Y-65229189D01*
X189762426Y-65678761D01*
X189937840Y-66102248D01*
X190192501Y-66483376D01*
X190516624Y-66807499D01*
X190897752Y-67062160D01*
X191321239Y-67237574D01*
X191770811Y-67327000D01*
X192229189Y-67327000D01*
X192678761Y-67237574D01*
X193102248Y-67062160D01*
X193483376Y-66807499D01*
X193807499Y-66483376D01*
X194062160Y-66102248D01*
X194237574Y-65678761D01*
X194327000Y-65229189D01*
X194327000Y-64770811D01*
X194237574Y-64321239D01*
X194062160Y-63897752D01*
X193807499Y-63516624D01*
X193483376Y-63192501D01*
X193102248Y-62937840D01*
X192678761Y-62762426D01*
X192229189Y-62673000D01*
X191770811Y-62673000D01*
X191321239Y-62762426D01*
X190897752Y-62937840D01*
X190516624Y-63192501D01*
X190192501Y-63516624D01*
X189937840Y-63897752D01*
X189762426Y-64321239D01*
X189673000Y-64770811D01*
X110327000Y-64770811D01*
X110237574Y-64321239D01*
X110062160Y-63897752D01*
X109807499Y-63516624D01*
X109483376Y-63192501D01*
X109102248Y-62937840D01*
X108678761Y-62762426D01*
X108229189Y-62673000D01*
X107770811Y-62673000D01*
X107321239Y-62762426D01*
X106897752Y-62937840D01*
X106516624Y-63192501D01*
X106192501Y-63516624D01*
X105937840Y-63897752D01*
X105762426Y-64321239D01*
X105673000Y-64770811D01*
X101130100Y-64770811D01*
X101130100Y-61036200D01*
X198600060Y-61036200D01*
X198600060Y-89080340D01*
G37*
X198600060Y-89080340D02*
X101130100Y-89080340D01*
X101130100Y-86821722D01*
X138274763Y-86821722D01*
X138346346Y-87065691D01*
X138601856Y-87186591D01*
X138876044Y-87255320D01*
X139158372Y-87269237D01*
X139437990Y-87227807D01*
X139704152Y-87132623D01*
X139829374Y-87065691D01*
X139900957Y-86821722D01*
X139087860Y-86008625D01*
X138274763Y-86821722D01*
X101130100Y-86821722D01*
X101130100Y-85899532D01*
X137647643Y-85899532D01*
X137689073Y-86179150D01*
X137784257Y-86445312D01*
X137851189Y-86570534D01*
X138095158Y-86642117D01*
X138908255Y-85829020D01*
X139267465Y-85829020D01*
X140080562Y-86642117D01*
X140324531Y-86570534D01*
X140445431Y-86315024D01*
X140514160Y-86040836D01*
X140528077Y-85758508D01*
X140486647Y-85478890D01*
X140391463Y-85212728D01*
X140324531Y-85087506D01*
X140080562Y-85015923D01*
X139267465Y-85829020D01*
X138908255Y-85829020D01*
X138095158Y-85015923D01*
X137851189Y-85087506D01*
X137730289Y-85343016D01*
X137661560Y-85617204D01*
X137647643Y-85899532D01*
X101130100Y-85899532D01*
X101130100Y-84836318D01*
X138274763Y-84836318D01*
X139087860Y-85649415D01*
X139900957Y-84836318D01*
X139829374Y-84592349D01*
X139573864Y-84471449D01*
X139299676Y-84402720D01*
X139017348Y-84388803D01*
X138737730Y-84430233D01*
X138471568Y-84525417D01*
X138346346Y-84592349D01*
X138274763Y-84836318D01*
X101130100Y-84836318D01*
X101130100Y-81448306D01*
X120624040Y-81448306D01*
X120624040Y-81741614D01*
X120681261Y-82029285D01*
X120793505Y-82300266D01*
X120956458Y-82544142D01*
X121163858Y-82751542D01*
X121407734Y-82914495D01*
X121678715Y-83026739D01*
X121966386Y-83083960D01*
X122259694Y-83083960D01*
X122547365Y-83026739D01*
X122818346Y-82914495D01*
X123062222Y-82751542D01*
X123269622Y-82544142D01*
X123432575Y-82300266D01*
X123544819Y-82029285D01*
X123602040Y-81741614D01*
X123602040Y-81529020D01*
X137557343Y-81529020D01*
X137557343Y-83129020D01*
X137571380Y-83271537D01*
X137612950Y-83408577D01*
X137680457Y-83534873D01*
X137771306Y-83645574D01*
X137882007Y-83736423D01*
X138008303Y-83803930D01*
X138145343Y-83845500D01*
X138287860Y-83859537D01*
X139887860Y-83859537D01*
X140030377Y-83845500D01*
X140167417Y-83803930D01*
X140293713Y-83736423D01*
X140404414Y-83645574D01*
X140495263Y-83534873D01*
X140562770Y-83408577D01*
X140604340Y-83271537D01*
X140609248Y-83221700D01*
X169200563Y-83221700D01*
X169200563Y-86983700D01*
X169214600Y-87126217D01*
X169256170Y-87263257D01*
X169323677Y-87389553D01*
X169414526Y-87500254D01*
X169525227Y-87591103D01*
X169651523Y-87658610D01*
X169788563Y-87700180D01*
X169931080Y-87714217D01*
X171455080Y-87714217D01*
X171597597Y-87700180D01*
X171734637Y-87658610D01*
X171860933Y-87591103D01*
X171971634Y-87500254D01*
X172062483Y-87389553D01*
X172129990Y-87263257D01*
X172171560Y-87126217D01*
X172185597Y-86983700D01*
X172185597Y-83221700D01*
X172171560Y-83079183D01*
X172129990Y-82942143D01*
X172062483Y-82815847D01*
X171971634Y-82705146D01*
X171860933Y-82614297D01*
X171734637Y-82546790D01*
X171597597Y-82505220D01*
X171455080Y-82491183D01*
X169931080Y-82491183D01*
X169788563Y-82505220D01*
X169651523Y-82546790D01*
X169525227Y-82614297D01*
X169414526Y-82705146D01*
X169323677Y-82815847D01*
X169256170Y-82942143D01*
X169214600Y-83079183D01*
X169200563Y-83221700D01*
X140609248Y-83221700D01*
X140618377Y-83129020D01*
X140618377Y-81529020D01*
X140604340Y-81386503D01*
X140562770Y-81249463D01*
X140495263Y-81123167D01*
X140404414Y-81012466D01*
X140293713Y-80921617D01*
X140167417Y-80854110D01*
X140030377Y-80812540D01*
X139887860Y-80798503D01*
X138287860Y-80798503D01*
X138145343Y-80812540D01*
X138008303Y-80854110D01*
X137882007Y-80921617D01*
X137771306Y-81012466D01*
X137680457Y-81123167D01*
X137612950Y-81249463D01*
X137571380Y-81386503D01*
X137557343Y-81529020D01*
X123602040Y-81529020D01*
X123602040Y-81448306D01*
X123544819Y-81160635D01*
X123432575Y-80889654D01*
X123269622Y-80645778D01*
X123062222Y-80438378D01*
X122818346Y-80275425D01*
X122547365Y-80163181D01*
X122259694Y-80105960D01*
X121966386Y-80105960D01*
X121678715Y-80163181D01*
X121407734Y-80275425D01*
X121163858Y-80438378D01*
X120956458Y-80645778D01*
X120793505Y-80889654D01*
X120681261Y-81160635D01*
X120624040Y-81448306D01*
X101130100Y-81448306D01*
X101130100Y-76770811D01*
X105673000Y-76770811D01*
X105673000Y-77229189D01*
X105762426Y-77678761D01*
X105937840Y-78102248D01*
X106192501Y-78483376D01*
X106516624Y-78807499D01*
X106897752Y-79062160D01*
X107321239Y-79237574D01*
X107770811Y-79327000D01*
X108229189Y-79327000D01*
X108678761Y-79237574D01*
X109102248Y-79062160D01*
X109483376Y-78807499D01*
X109782551Y-78508324D01*
X113044780Y-78508324D01*
X113044780Y-78809116D01*
X113103461Y-79104130D01*
X113218570Y-79382026D01*
X113385681Y-79632126D01*
X113598374Y-79844819D01*
X113848474Y-80011930D01*
X114126370Y-80127039D01*
X114421384Y-80185720D01*
X114722176Y-80185720D01*
X115017190Y-80127039D01*
X115295086Y-80011930D01*
X115545186Y-79844819D01*
X115757879Y-79632126D01*
X115924990Y-79382026D01*
X116040099Y-79104130D01*
X116079050Y-78908306D01*
X118084040Y-78908306D01*
X118084040Y-79201614D01*
X118141261Y-79489285D01*
X118253505Y-79760266D01*
X118416458Y-80004142D01*
X118623858Y-80211542D01*
X118867734Y-80374495D01*
X119138715Y-80486739D01*
X119426386Y-80543960D01*
X119719694Y-80543960D01*
X120007365Y-80486739D01*
X120278346Y-80374495D01*
X120522222Y-80211542D01*
X120729622Y-80004142D01*
X120892575Y-79760266D01*
X121004819Y-79489285D01*
X121062040Y-79201614D01*
X121062040Y-78908306D01*
X121004819Y-78620635D01*
X120892575Y-78349654D01*
X120854694Y-78292960D01*
X123160523Y-78292960D01*
X123160523Y-79816960D01*
X123174560Y-79959477D01*
X123216130Y-80096517D01*
X123283637Y-80222813D01*
X123374486Y-80333514D01*
X123485187Y-80424363D01*
X123611483Y-80491870D01*
X123748523Y-80533440D01*
X123891040Y-80547477D01*
X125415040Y-80547477D01*
X125557557Y-80533440D01*
X125694597Y-80491870D01*
X125820893Y-80424363D01*
X125931594Y-80333514D01*
X126022443Y-80222813D01*
X126089950Y-80096517D01*
X126131520Y-79959477D01*
X126145557Y-79816960D01*
X126145557Y-78292960D01*
X126131520Y-78150443D01*
X126089950Y-78013403D01*
X126022443Y-77887107D01*
X125931594Y-77776406D01*
X125820893Y-77685557D01*
X125694597Y-77618050D01*
X125557557Y-77576480D01*
X125415040Y-77562443D01*
X123891040Y-77562443D01*
X123748523Y-77576480D01*
X123611483Y-77618050D01*
X123485187Y-77685557D01*
X123374486Y-77776406D01*
X123283637Y-77887107D01*
X123216130Y-78013403D01*
X123174560Y-78150443D01*
X123160523Y-78292960D01*
X120854694Y-78292960D01*
X120729622Y-78105778D01*
X120522222Y-77898378D01*
X120278346Y-77735425D01*
X120007365Y-77623181D01*
X119719694Y-77565960D01*
X119426386Y-77565960D01*
X119138715Y-77623181D01*
X118867734Y-77735425D01*
X118623858Y-77898378D01*
X118416458Y-78105778D01*
X118253505Y-78349654D01*
X118141261Y-78620635D01*
X118084040Y-78908306D01*
X116079050Y-78908306D01*
X116098780Y-78809116D01*
X116098780Y-78508324D01*
X116040099Y-78213310D01*
X115924990Y-77935414D01*
X115757879Y-77685314D01*
X115545186Y-77472621D01*
X115295086Y-77305510D01*
X115017190Y-77190401D01*
X114722176Y-77131720D01*
X114421384Y-77131720D01*
X114126370Y-77190401D01*
X113848474Y-77305510D01*
X113598374Y-77472621D01*
X113385681Y-77685314D01*
X113218570Y-77935414D01*
X113103461Y-78213310D01*
X113044780Y-78508324D01*
X109782551Y-78508324D01*
X109807499Y-78483376D01*
X110062160Y-78102248D01*
X110237574Y-77678761D01*
X110327000Y-77229189D01*
X110327000Y-76770811D01*
X110296545Y-76617700D01*
X169200563Y-76617700D01*
X169200563Y-80379700D01*
X169214600Y-80522217D01*
X169256170Y-80659257D01*
X169323677Y-80785553D01*
X169414526Y-80896254D01*
X169525227Y-80987103D01*
X169651523Y-81054610D01*
X169788563Y-81096180D01*
X169931080Y-81110217D01*
X171455080Y-81110217D01*
X171597597Y-81096180D01*
X171734637Y-81054610D01*
X171860933Y-80987103D01*
X171971634Y-80896254D01*
X172062483Y-80785553D01*
X172129990Y-80659257D01*
X172171560Y-80522217D01*
X172185597Y-80379700D01*
X172185597Y-78700000D01*
X179462643Y-78700000D01*
X179462643Y-81300000D01*
X179476680Y-81442517D01*
X179518250Y-81579557D01*
X179585757Y-81705853D01*
X179676606Y-81816554D01*
X179787307Y-81907403D01*
X179913603Y-81974910D01*
X180050643Y-82016480D01*
X180193160Y-82030517D01*
X182793160Y-82030517D01*
X182935677Y-82016480D01*
X183072717Y-81974910D01*
X183199013Y-81907403D01*
X183309714Y-81816554D01*
X183400563Y-81705853D01*
X183468070Y-81579557D01*
X183509640Y-81442517D01*
X183523677Y-81300000D01*
X183523677Y-78700000D01*
X183509640Y-78557483D01*
X183468070Y-78420443D01*
X183400563Y-78294147D01*
X183309714Y-78183446D01*
X183199013Y-78092597D01*
X183072717Y-78025090D01*
X182935677Y-77983520D01*
X182793160Y-77969483D01*
X180193160Y-77969483D01*
X180050643Y-77983520D01*
X179913603Y-78025090D01*
X179787307Y-78092597D01*
X179676606Y-78183446D01*
X179585757Y-78294147D01*
X179518250Y-78420443D01*
X179476680Y-78557483D01*
X179462643Y-78700000D01*
X172185597Y-78700000D01*
X172185597Y-76617700D01*
X172171560Y-76475183D01*
X172129990Y-76338143D01*
X172062483Y-76211847D01*
X171971634Y-76101146D01*
X171860933Y-76010297D01*
X171734637Y-75942790D01*
X171597597Y-75901220D01*
X171455080Y-75887183D01*
X169931080Y-75887183D01*
X169788563Y-75901220D01*
X169651523Y-75942790D01*
X169525227Y-76010297D01*
X169414526Y-76101146D01*
X169323677Y-76211847D01*
X169256170Y-76338143D01*
X169214600Y-76475183D01*
X169200563Y-76617700D01*
X110296545Y-76617700D01*
X110237574Y-76321239D01*
X110062160Y-75897752D01*
X109807499Y-75516624D01*
X109483376Y-75192501D01*
X109102248Y-74937840D01*
X108678761Y-74762426D01*
X108467273Y-74720358D01*
X179466160Y-74720358D01*
X179466160Y-75119642D01*
X179544056Y-75511254D01*
X179696856Y-75880145D01*
X179918686Y-76212137D01*
X180201023Y-76494474D01*
X180533015Y-76716304D01*
X180901906Y-76869104D01*
X181293518Y-76947000D01*
X181692802Y-76947000D01*
X182084414Y-76869104D01*
X182321713Y-76770811D01*
X189673000Y-76770811D01*
X189673000Y-77229189D01*
X189762426Y-77678761D01*
X189937840Y-78102248D01*
X190192501Y-78483376D01*
X190516624Y-78807499D01*
X190897752Y-79062160D01*
X191321239Y-79237574D01*
X191770811Y-79327000D01*
X192229189Y-79327000D01*
X192678761Y-79237574D01*
X193102248Y-79062160D01*
X193483376Y-78807499D01*
X193807499Y-78483376D01*
X194062160Y-78102248D01*
X194237574Y-77678761D01*
X194327000Y-77229189D01*
X194327000Y-76770811D01*
X194237574Y-76321239D01*
X194062160Y-75897752D01*
X193807499Y-75516624D01*
X193483376Y-75192501D01*
X193102248Y-74937840D01*
X192678761Y-74762426D01*
X192229189Y-74673000D01*
X191770811Y-74673000D01*
X191321239Y-74762426D01*
X190897752Y-74937840D01*
X190516624Y-75192501D01*
X190192501Y-75516624D01*
X189937840Y-75897752D01*
X189762426Y-76321239D01*
X189673000Y-76770811D01*
X182321713Y-76770811D01*
X182453305Y-76716304D01*
X182785297Y-76494474D01*
X183067634Y-76212137D01*
X183289464Y-75880145D01*
X183442264Y-75511254D01*
X183520160Y-75119642D01*
X183520160Y-74720358D01*
X183442264Y-74328746D01*
X183289464Y-73959855D01*
X183067634Y-73627863D01*
X182785297Y-73345526D01*
X182453305Y-73123696D01*
X182084414Y-72970896D01*
X181692802Y-72893000D01*
X181293518Y-72893000D01*
X180901906Y-72970896D01*
X180533015Y-73123696D01*
X180201023Y-73345526D01*
X179918686Y-73627863D01*
X179696856Y-73959855D01*
X179544056Y-74328746D01*
X179466160Y-74720358D01*
X108467273Y-74720358D01*
X108229189Y-74673000D01*
X107770811Y-74673000D01*
X107321239Y-74762426D01*
X106897752Y-74937840D01*
X106516624Y-75192501D01*
X106192501Y-75516624D01*
X105937840Y-75897752D01*
X105762426Y-76321239D01*
X105673000Y-76770811D01*
X101130100Y-76770811D01*
X101130100Y-70793100D01*
X133617460Y-70793100D01*
X133617460Y-71015100D01*
X133660770Y-71232834D01*
X133745726Y-71437935D01*
X133869062Y-71622521D01*
X134026039Y-71779498D01*
X134210625Y-71902834D01*
X134415726Y-71987790D01*
X134633460Y-72031100D01*
X134855460Y-72031100D01*
X135073194Y-71987790D01*
X135278295Y-71902834D01*
X135462881Y-71779498D01*
X135619858Y-71622521D01*
X135743194Y-71437935D01*
X135828150Y-71232834D01*
X135836824Y-71189224D01*
X180323541Y-71189224D01*
X180455477Y-71484312D01*
X180796205Y-71655159D01*
X181163717Y-71756250D01*
X181543889Y-71783701D01*
X181922111Y-71736457D01*
X182283850Y-71616333D01*
X182530843Y-71484312D01*
X182662779Y-71189224D01*
X181493160Y-70019605D01*
X180323541Y-71189224D01*
X135836824Y-71189224D01*
X135871460Y-71015100D01*
X135871460Y-70793100D01*
X135828150Y-70575366D01*
X135743194Y-70370265D01*
X135619858Y-70185679D01*
X135462881Y-70028702D01*
X135278295Y-69905366D01*
X135073194Y-69820410D01*
X134855460Y-69777100D01*
X134633460Y-69777100D01*
X134415726Y-69820410D01*
X134210625Y-69905366D01*
X134026039Y-70028702D01*
X133869062Y-70185679D01*
X133745726Y-70370265D01*
X133660770Y-70575366D01*
X133617460Y-70793100D01*
X101130100Y-70793100D01*
X101130100Y-68847760D01*
X113179871Y-68847760D01*
X113274710Y-69112601D01*
X113419395Y-69353851D01*
X113608366Y-69562239D01*
X113834360Y-69729757D01*
X114088693Y-69849966D01*
X114222741Y-69890624D01*
X114444780Y-69768635D01*
X114444780Y-68625720D01*
X114698780Y-68625720D01*
X114698780Y-69768635D01*
X114920819Y-69890624D01*
X115054867Y-69849966D01*
X115309200Y-69729757D01*
X115535194Y-69562239D01*
X115672032Y-69411340D01*
X166726360Y-69411340D01*
X166726360Y-69633340D01*
X166769670Y-69851074D01*
X166854626Y-70056175D01*
X166977962Y-70240761D01*
X167134939Y-70397738D01*
X167319525Y-70521074D01*
X167524626Y-70606030D01*
X167742360Y-70649340D01*
X167964360Y-70649340D01*
X168182094Y-70606030D01*
X168387195Y-70521074D01*
X168571781Y-70397738D01*
X168728758Y-70240761D01*
X168852094Y-70056175D01*
X168920624Y-69890729D01*
X179549459Y-69890729D01*
X179596703Y-70268951D01*
X179716827Y-70630690D01*
X179848848Y-70877683D01*
X180143936Y-71009619D01*
X181313555Y-69840000D01*
X181672765Y-69840000D01*
X182842384Y-71009619D01*
X183137472Y-70877683D01*
X183308319Y-70536955D01*
X183409410Y-70169443D01*
X183436861Y-69789271D01*
X183389617Y-69411049D01*
X183269493Y-69049310D01*
X183137472Y-68802317D01*
X182842384Y-68670381D01*
X181672765Y-69840000D01*
X181313555Y-69840000D01*
X180143936Y-68670381D01*
X179848848Y-68802317D01*
X179678001Y-69143045D01*
X179576910Y-69510557D01*
X179549459Y-69890729D01*
X168920624Y-69890729D01*
X168937050Y-69851074D01*
X168980360Y-69633340D01*
X168980360Y-69411340D01*
X168937050Y-69193606D01*
X168852094Y-68988505D01*
X168728758Y-68803919D01*
X168571781Y-68646942D01*
X168387195Y-68523606D01*
X168307937Y-68490776D01*
X180323541Y-68490776D01*
X181493160Y-69660395D01*
X182662779Y-68490776D01*
X182530843Y-68195688D01*
X182190115Y-68024841D01*
X181822603Y-67923750D01*
X181442431Y-67896299D01*
X181064209Y-67943543D01*
X180702470Y-68063667D01*
X180455477Y-68195688D01*
X180323541Y-68490776D01*
X168307937Y-68490776D01*
X168182094Y-68438650D01*
X167964360Y-68395340D01*
X167742360Y-68395340D01*
X167524626Y-68438650D01*
X167319525Y-68523606D01*
X167134939Y-68646942D01*
X166977962Y-68803919D01*
X166854626Y-68988505D01*
X166769670Y-69193606D01*
X166726360Y-69411340D01*
X115672032Y-69411340D01*
X115724165Y-69353851D01*
X115868850Y-69112601D01*
X115963689Y-68847760D01*
X115842404Y-68625720D01*
X114698780Y-68625720D01*
X114444780Y-68625720D01*
X113301156Y-68625720D01*
X113179871Y-68847760D01*
X101130100Y-68847760D01*
X101130100Y-68149680D01*
X113179871Y-68149680D01*
X113301156Y-68371720D01*
X114444780Y-68371720D01*
X114444780Y-67228805D01*
X114698780Y-67228805D01*
X114698780Y-68371720D01*
X115842404Y-68371720D01*
X115963689Y-68149680D01*
X115868850Y-67884839D01*
X115724165Y-67643589D01*
X115535194Y-67435201D01*
X115309200Y-67267683D01*
X115054867Y-67147474D01*
X114920819Y-67106816D01*
X114698780Y-67228805D01*
X114444780Y-67228805D01*
X114222741Y-67106816D01*
X114088693Y-67147474D01*
X113834360Y-67267683D01*
X113608366Y-67435201D01*
X113419395Y-67643589D01*
X113274710Y-67884839D01*
X113179871Y-68149680D01*
X101130100Y-68149680D01*
X101130100Y-64770811D01*
X105673000Y-64770811D01*
X105673000Y-65229189D01*
X105762426Y-65678761D01*
X105937840Y-66102248D01*
X106192501Y-66483376D01*
X106516624Y-66807499D01*
X106897752Y-67062160D01*
X107321239Y-67237574D01*
X107770811Y-67327000D01*
X108229189Y-67327000D01*
X108678761Y-67237574D01*
X109102248Y-67062160D01*
X109483376Y-66807499D01*
X109807499Y-66483376D01*
X110062160Y-66102248D01*
X110237574Y-65678761D01*
X110327000Y-65229189D01*
X110327000Y-64770811D01*
X189673000Y-64770811D01*
X189673000Y-65229189D01*
X189762426Y-65678761D01*
X189937840Y-66102248D01*
X190192501Y-66483376D01*
X190516624Y-66807499D01*
X190897752Y-67062160D01*
X191321239Y-67237574D01*
X191770811Y-67327000D01*
X192229189Y-67327000D01*
X192678761Y-67237574D01*
X193102248Y-67062160D01*
X193483376Y-66807499D01*
X193807499Y-66483376D01*
X194062160Y-66102248D01*
X194237574Y-65678761D01*
X194327000Y-65229189D01*
X194327000Y-64770811D01*
X194237574Y-64321239D01*
X194062160Y-63897752D01*
X193807499Y-63516624D01*
X193483376Y-63192501D01*
X193102248Y-62937840D01*
X192678761Y-62762426D01*
X192229189Y-62673000D01*
X191770811Y-62673000D01*
X191321239Y-62762426D01*
X190897752Y-62937840D01*
X190516624Y-63192501D01*
X190192501Y-63516624D01*
X189937840Y-63897752D01*
X189762426Y-64321239D01*
X189673000Y-64770811D01*
X110327000Y-64770811D01*
X110237574Y-64321239D01*
X110062160Y-63897752D01*
X109807499Y-63516624D01*
X109483376Y-63192501D01*
X109102248Y-62937840D01*
X108678761Y-62762426D01*
X108229189Y-62673000D01*
X107770811Y-62673000D01*
X107321239Y-62762426D01*
X106897752Y-62937840D01*
X106516624Y-63192501D01*
X106192501Y-63516624D01*
X105937840Y-63897752D01*
X105762426Y-64321239D01*
X105673000Y-64770811D01*
X101130100Y-64770811D01*
X101130100Y-61036200D01*
X198600060Y-61036200D01*
X198600060Y-89080340D01*
G36*
X198429880Y-148810980D02*
G01*
X163820299Y-148810980D01*
X163851300Y-148655124D01*
X163851300Y-148423276D01*
X163806069Y-148195882D01*
X163717344Y-147981681D01*
X163588536Y-147788906D01*
X163424594Y-147624964D01*
X163231819Y-147496156D01*
X163017618Y-147407431D01*
X162790224Y-147362200D01*
X162558376Y-147362200D01*
X162330982Y-147407431D01*
X162116781Y-147496156D01*
X161924006Y-147624964D01*
X161760064Y-147788906D01*
X161631256Y-147981681D01*
X161542531Y-148195882D01*
X161497300Y-148423276D01*
X161497300Y-148655124D01*
X161528301Y-148810980D01*
X101714300Y-148810980D01*
X101714300Y-146142356D01*
X144492000Y-146142356D01*
X144492000Y-146374204D01*
X144537231Y-146601598D01*
X144625956Y-146815799D01*
X144754764Y-147008574D01*
X144918706Y-147172516D01*
X145111481Y-147301324D01*
X145325682Y-147390049D01*
X145553076Y-147435280D01*
X145784924Y-147435280D01*
X146012318Y-147390049D01*
X146226519Y-147301324D01*
X146419294Y-147172516D01*
X146583236Y-147008574D01*
X146712044Y-146815799D01*
X146800769Y-146601598D01*
X146846000Y-146374204D01*
X146846000Y-146142356D01*
X146800769Y-145914962D01*
X146712044Y-145700761D01*
X146583236Y-145507986D01*
X146553411Y-145478161D01*
X170562320Y-145478161D01*
X170562320Y-145682039D01*
X170602094Y-145881998D01*
X170680115Y-146070356D01*
X170793383Y-146239874D01*
X170937546Y-146384037D01*
X171107064Y-146497305D01*
X171295422Y-146575326D01*
X171495381Y-146615100D01*
X171699259Y-146615100D01*
X171899218Y-146575326D01*
X172087576Y-146497305D01*
X172257094Y-146384037D01*
X172401257Y-146239874D01*
X172514525Y-146070356D01*
X172592546Y-145881998D01*
X172632320Y-145682039D01*
X172632320Y-145478161D01*
X172592546Y-145278202D01*
X172514525Y-145089844D01*
X172401257Y-144920326D01*
X172257094Y-144776163D01*
X172087576Y-144662895D01*
X171899218Y-144584874D01*
X171699259Y-144545100D01*
X171495381Y-144545100D01*
X171295422Y-144584874D01*
X171107064Y-144662895D01*
X170937546Y-144776163D01*
X170793383Y-144920326D01*
X170680115Y-145089844D01*
X170602094Y-145278202D01*
X170562320Y-145478161D01*
X146553411Y-145478161D01*
X146419294Y-145344044D01*
X146226519Y-145215236D01*
X146012318Y-145126511D01*
X145784924Y-145081280D01*
X145553076Y-145081280D01*
X145325682Y-145126511D01*
X145111481Y-145215236D01*
X144918706Y-145344044D01*
X144754764Y-145507986D01*
X144625956Y-145700761D01*
X144537231Y-145914962D01*
X144492000Y-146142356D01*
X101714300Y-146142356D01*
X101714300Y-143728101D01*
X168852900Y-143728101D01*
X168852900Y-143931979D01*
X168892674Y-144131938D01*
X168970695Y-144320296D01*
X169083963Y-144489814D01*
X169228126Y-144633977D01*
X169397644Y-144747245D01*
X169586002Y-144825266D01*
X169785961Y-144865040D01*
X169989839Y-144865040D01*
X170189798Y-144825266D01*
X170378156Y-144747245D01*
X170547674Y-144633977D01*
X170691837Y-144489814D01*
X170805105Y-144320296D01*
X170883126Y-144131938D01*
X170922900Y-143931979D01*
X170922900Y-143728101D01*
X170883126Y-143528142D01*
X170805105Y-143339784D01*
X170691837Y-143170266D01*
X170547674Y-143026103D01*
X170378156Y-142912835D01*
X170189798Y-142834814D01*
X169989839Y-142795040D01*
X169785961Y-142795040D01*
X169586002Y-142834814D01*
X169397644Y-142912835D01*
X169228126Y-143026103D01*
X169083963Y-143170266D01*
X168970695Y-143339784D01*
X168892674Y-143528142D01*
X168852900Y-143728101D01*
X101714300Y-143728101D01*
X101714300Y-141544991D01*
X144146226Y-141544991D01*
X144146226Y-141748869D01*
X144186000Y-141948828D01*
X144264021Y-142137186D01*
X144377289Y-142306704D01*
X144521452Y-142450867D01*
X144690970Y-142564135D01*
X144879328Y-142642156D01*
X145079287Y-142681930D01*
X145283165Y-142681930D01*
X145483124Y-142642156D01*
X145671482Y-142564135D01*
X145841000Y-142450867D01*
X145985163Y-142306704D01*
X146094452Y-142143141D01*
X149538740Y-142143141D01*
X149538740Y-142347019D01*
X149578514Y-142546978D01*
X149656535Y-142735336D01*
X149769803Y-142904854D01*
X149913966Y-143049017D01*
X150083484Y-143162285D01*
X150271842Y-143240306D01*
X150471801Y-143280080D01*
X150675679Y-143280080D01*
X150875638Y-143240306D01*
X151063996Y-143162285D01*
X151233514Y-143049017D01*
X151377677Y-142904854D01*
X151490945Y-142735336D01*
X151568966Y-142546978D01*
X151608740Y-142347019D01*
X151608740Y-142143141D01*
X151568966Y-141943182D01*
X151490945Y-141754824D01*
X151377677Y-141585306D01*
X151233514Y-141441143D01*
X151063996Y-141327875D01*
X150875638Y-141249854D01*
X150675679Y-141210080D01*
X150471801Y-141210080D01*
X150271842Y-141249854D01*
X150083484Y-141327875D01*
X149913966Y-141441143D01*
X149769803Y-141585306D01*
X149656535Y-141754824D01*
X149578514Y-141943182D01*
X149538740Y-142143141D01*
X146094452Y-142143141D01*
X146098431Y-142137186D01*
X146176452Y-141948828D01*
X146216226Y-141748869D01*
X146216226Y-141544991D01*
X146176452Y-141345032D01*
X146098431Y-141156674D01*
X145985163Y-140987156D01*
X145841000Y-140842993D01*
X145671482Y-140729725D01*
X145483124Y-140651704D01*
X145283165Y-140611930D01*
X145079287Y-140611930D01*
X144879328Y-140651704D01*
X144690970Y-140729725D01*
X144521452Y-140842993D01*
X144377289Y-140987156D01*
X144264021Y-141156674D01*
X144186000Y-141345032D01*
X144146226Y-141544991D01*
X101714300Y-141544991D01*
X101714300Y-140365141D01*
X166041120Y-140365141D01*
X166041120Y-140569019D01*
X166080894Y-140768978D01*
X166158915Y-140957336D01*
X166272183Y-141126854D01*
X166416346Y-141271017D01*
X166585864Y-141384285D01*
X166774222Y-141462306D01*
X166974181Y-141502080D01*
X167178059Y-141502080D01*
X167378018Y-141462306D01*
X167566376Y-141384285D01*
X167735894Y-141271017D01*
X167779831Y-141227080D01*
X172677598Y-141227080D01*
X172714920Y-141230756D01*
X172752242Y-141227080D01*
X172752253Y-141227080D01*
X172863906Y-141216083D01*
X173007167Y-141172626D01*
X173139196Y-141102054D01*
X173254921Y-141007081D01*
X173278724Y-140978078D01*
X173730081Y-140526720D01*
X173792219Y-140526720D01*
X173992178Y-140486946D01*
X174180536Y-140408925D01*
X174350054Y-140295657D01*
X174494217Y-140151494D01*
X174607485Y-139981976D01*
X174685506Y-139793618D01*
X174725280Y-139593659D01*
X174725280Y-139389781D01*
X174685506Y-139189822D01*
X174607485Y-139001464D01*
X174494217Y-138831946D01*
X174350054Y-138687783D01*
X174180536Y-138574515D01*
X173992178Y-138496494D01*
X173792219Y-138456720D01*
X173588341Y-138456720D01*
X173388382Y-138496494D01*
X173200024Y-138574515D01*
X173030506Y-138687783D01*
X172886343Y-138831946D01*
X172773075Y-139001464D01*
X172695054Y-139189822D01*
X172655280Y-139389781D01*
X172655280Y-139451919D01*
X172400119Y-139707080D01*
X167779831Y-139707080D01*
X167735894Y-139663143D01*
X167566376Y-139549875D01*
X167378018Y-139471854D01*
X167178059Y-139432080D01*
X166974181Y-139432080D01*
X166774222Y-139471854D01*
X166585864Y-139549875D01*
X166416346Y-139663143D01*
X166272183Y-139807306D01*
X166158915Y-139976824D01*
X166080894Y-140165182D01*
X166041120Y-140365141D01*
X101714300Y-140365141D01*
X101714300Y-136779872D01*
X105765000Y-136779872D01*
X105765000Y-137220128D01*
X105850890Y-137651925D01*
X106019369Y-138058669D01*
X106263962Y-138424729D01*
X106575271Y-138736038D01*
X106941331Y-138980631D01*
X107348075Y-139149110D01*
X107779872Y-139235000D01*
X108220128Y-139235000D01*
X108651925Y-139149110D01*
X109058669Y-138980631D01*
X109424729Y-138736038D01*
X109736038Y-138424729D01*
X109980631Y-138058669D01*
X110149110Y-137651925D01*
X110235000Y-137220128D01*
X110235000Y-136779872D01*
X189765000Y-136779872D01*
X189765000Y-137220128D01*
X189850890Y-137651925D01*
X190019369Y-138058669D01*
X190263962Y-138424729D01*
X190575271Y-138736038D01*
X190941331Y-138980631D01*
X191348075Y-139149110D01*
X191779872Y-139235000D01*
X192220128Y-139235000D01*
X192651925Y-139149110D01*
X193058669Y-138980631D01*
X193424729Y-138736038D01*
X193736038Y-138424729D01*
X193980631Y-138058669D01*
X194149110Y-137651925D01*
X194235000Y-137220128D01*
X194235000Y-136779872D01*
X194149110Y-136348075D01*
X193980631Y-135941331D01*
X193736038Y-135575271D01*
X193424729Y-135263962D01*
X193058669Y-135019369D01*
X192651925Y-134850890D01*
X192220128Y-134765000D01*
X191779872Y-134765000D01*
X191348075Y-134850890D01*
X190941331Y-135019369D01*
X190575271Y-135263962D01*
X190263962Y-135575271D01*
X190019369Y-135941331D01*
X189850890Y-136348075D01*
X189765000Y-136779872D01*
X110235000Y-136779872D01*
X110149110Y-136348075D01*
X109980631Y-135941331D01*
X109736038Y-135575271D01*
X109424729Y-135263962D01*
X109058669Y-135019369D01*
X108651925Y-134850890D01*
X108220128Y-134765000D01*
X107779872Y-134765000D01*
X107348075Y-134850890D01*
X106941331Y-135019369D01*
X106575271Y-135263962D01*
X106263962Y-135575271D01*
X106019369Y-135941331D01*
X105850890Y-136348075D01*
X105765000Y-136779872D01*
X101714300Y-136779872D01*
X101714300Y-128229844D01*
X131768901Y-128229844D01*
X131900837Y-128524932D01*
X132241565Y-128695779D01*
X132609077Y-128796870D01*
X132989249Y-128824321D01*
X133367471Y-128777077D01*
X133729210Y-128656953D01*
X133976203Y-128524932D01*
X134108139Y-128229844D01*
X132938520Y-127060225D01*
X131768901Y-128229844D01*
X101714300Y-128229844D01*
X101714300Y-124779872D01*
X105765000Y-124779872D01*
X105765000Y-125220128D01*
X105850890Y-125651925D01*
X106019369Y-126058669D01*
X106263962Y-126424729D01*
X106575271Y-126736038D01*
X106941331Y-126980631D01*
X107348075Y-127149110D01*
X107779872Y-127235000D01*
X108220128Y-127235000D01*
X108651925Y-127149110D01*
X109058669Y-126980631D01*
X109132424Y-126931349D01*
X130994819Y-126931349D01*
X131042063Y-127309571D01*
X131162187Y-127671310D01*
X131294208Y-127918303D01*
X131589296Y-128050239D01*
X132758915Y-126880620D01*
X133118125Y-126880620D01*
X134287744Y-128050239D01*
X134582832Y-127918303D01*
X134753679Y-127577575D01*
X134854770Y-127210063D01*
X134882221Y-126829891D01*
X134834977Y-126451669D01*
X134714853Y-126089930D01*
X134582832Y-125842937D01*
X134287744Y-125711001D01*
X133118125Y-126880620D01*
X132758915Y-126880620D01*
X131589296Y-125711001D01*
X131294208Y-125842937D01*
X131123361Y-126183665D01*
X131022270Y-126551177D01*
X130994819Y-126931349D01*
X109132424Y-126931349D01*
X109424729Y-126736038D01*
X109736038Y-126424729D01*
X109980631Y-126058669D01*
X110149110Y-125651925D01*
X110173084Y-125531396D01*
X131768901Y-125531396D01*
X132938520Y-126701015D01*
X134058915Y-125580620D01*
X136080448Y-125580620D01*
X136080448Y-128180620D01*
X136092708Y-128305102D01*
X136129018Y-128424800D01*
X136187983Y-128535114D01*
X136267335Y-128631805D01*
X136364026Y-128711157D01*
X136474340Y-128770122D01*
X136594038Y-128806432D01*
X136718520Y-128818692D01*
X139318520Y-128818692D01*
X139443002Y-128806432D01*
X139562700Y-128770122D01*
X139673014Y-128711157D01*
X139769705Y-128631805D01*
X139849057Y-128535114D01*
X139908022Y-128424800D01*
X139944332Y-128305102D01*
X139956592Y-128180620D01*
X139956592Y-126676053D01*
X144053010Y-126676053D01*
X144053010Y-127085187D01*
X144132828Y-127486459D01*
X144289396Y-127864449D01*
X144516699Y-128204631D01*
X144805999Y-128493931D01*
X145146181Y-128721234D01*
X145524171Y-128877802D01*
X145925443Y-128957620D01*
X146334577Y-128957620D01*
X146735849Y-128877802D01*
X147113839Y-128721234D01*
X147454021Y-128493931D01*
X147743321Y-128204631D01*
X147970624Y-127864449D01*
X148127192Y-127486459D01*
X148207010Y-127085187D01*
X148207010Y-126676053D01*
X149133010Y-126676053D01*
X149133010Y-127085187D01*
X149212828Y-127486459D01*
X149369396Y-127864449D01*
X149596699Y-128204631D01*
X149885999Y-128493931D01*
X150226181Y-128721234D01*
X150604171Y-128877802D01*
X151005443Y-128957620D01*
X151414577Y-128957620D01*
X151815849Y-128877802D01*
X152193839Y-128721234D01*
X152534021Y-128493931D01*
X152823321Y-128204631D01*
X152839364Y-128180620D01*
X154351938Y-128180620D01*
X154364198Y-128305102D01*
X154400508Y-128424800D01*
X154459473Y-128535114D01*
X154538825Y-128631805D01*
X154635516Y-128711157D01*
X154745830Y-128770122D01*
X154865528Y-128806432D01*
X154990010Y-128818692D01*
X156004260Y-128815620D01*
X156163010Y-128656870D01*
X156163010Y-127007620D01*
X156417010Y-127007620D01*
X156417010Y-128656870D01*
X156575760Y-128815620D01*
X157590010Y-128818692D01*
X157714492Y-128806432D01*
X157834190Y-128770122D01*
X157944504Y-128711157D01*
X158041195Y-128631805D01*
X158120547Y-128535114D01*
X158179512Y-128424800D01*
X158215822Y-128305102D01*
X158228082Y-128180620D01*
X158225010Y-127166370D01*
X158066260Y-127007620D01*
X156417010Y-127007620D01*
X156163010Y-127007620D01*
X154513760Y-127007620D01*
X154355010Y-127166370D01*
X154351938Y-128180620D01*
X152839364Y-128180620D01*
X153050624Y-127864449D01*
X153207192Y-127486459D01*
X153287010Y-127085187D01*
X153287010Y-126676053D01*
X153207192Y-126274781D01*
X153050624Y-125896791D01*
X152839365Y-125580620D01*
X154351938Y-125580620D01*
X154355010Y-126594870D01*
X154513760Y-126753620D01*
X156163010Y-126753620D01*
X156163010Y-125104370D01*
X156417010Y-125104370D01*
X156417010Y-126753620D01*
X158066260Y-126753620D01*
X158143827Y-126676053D01*
X162324500Y-126676053D01*
X162324500Y-127085187D01*
X162404318Y-127486459D01*
X162560886Y-127864449D01*
X162788189Y-128204631D01*
X163077489Y-128493931D01*
X163417671Y-128721234D01*
X163795661Y-128877802D01*
X164196933Y-128957620D01*
X164606067Y-128957620D01*
X165007339Y-128877802D01*
X165385329Y-128721234D01*
X165725511Y-128493931D01*
X166014811Y-128204631D01*
X166242114Y-127864449D01*
X166398682Y-127486459D01*
X166478500Y-127085187D01*
X166478500Y-126676053D01*
X167404500Y-126676053D01*
X167404500Y-127085187D01*
X167484318Y-127486459D01*
X167640886Y-127864449D01*
X167868189Y-128204631D01*
X168157489Y-128493931D01*
X168497671Y-128721234D01*
X168875661Y-128877802D01*
X169276933Y-128957620D01*
X169686067Y-128957620D01*
X170087339Y-128877802D01*
X170465329Y-128721234D01*
X170805511Y-128493931D01*
X171094811Y-128204631D01*
X171110854Y-128180620D01*
X172623428Y-128180620D01*
X172635688Y-128305102D01*
X172671998Y-128424800D01*
X172730963Y-128535114D01*
X172810315Y-128631805D01*
X172907006Y-128711157D01*
X173017320Y-128770122D01*
X173137018Y-128806432D01*
X173261500Y-128818692D01*
X174275750Y-128815620D01*
X174434500Y-128656870D01*
X174434500Y-127007620D01*
X174688500Y-127007620D01*
X174688500Y-128656870D01*
X174847250Y-128815620D01*
X175861500Y-128818692D01*
X175985982Y-128806432D01*
X176105680Y-128770122D01*
X176215994Y-128711157D01*
X176312685Y-128631805D01*
X176392037Y-128535114D01*
X176451002Y-128424800D01*
X176487312Y-128305102D01*
X176499572Y-128180620D01*
X176496500Y-127166370D01*
X176337750Y-127007620D01*
X174688500Y-127007620D01*
X174434500Y-127007620D01*
X172785250Y-127007620D01*
X172626500Y-127166370D01*
X172623428Y-128180620D01*
X171110854Y-128180620D01*
X171322114Y-127864449D01*
X171478682Y-127486459D01*
X171558500Y-127085187D01*
X171558500Y-126676053D01*
X171478682Y-126274781D01*
X171322114Y-125896791D01*
X171110855Y-125580620D01*
X172623428Y-125580620D01*
X172626500Y-126594870D01*
X172785250Y-126753620D01*
X174434500Y-126753620D01*
X174434500Y-125104370D01*
X174688500Y-125104370D01*
X174688500Y-126753620D01*
X176337750Y-126753620D01*
X176496500Y-126594870D01*
X176499572Y-125580620D01*
X176487312Y-125456138D01*
X176451002Y-125336440D01*
X176392037Y-125226126D01*
X176312685Y-125129435D01*
X176215994Y-125050083D01*
X176105680Y-124991118D01*
X175985982Y-124954808D01*
X175861500Y-124942548D01*
X174847250Y-124945620D01*
X174688500Y-125104370D01*
X174434500Y-125104370D01*
X174275750Y-124945620D01*
X173261500Y-124942548D01*
X173137018Y-124954808D01*
X173017320Y-124991118D01*
X172907006Y-125050083D01*
X172810315Y-125129435D01*
X172730963Y-125226126D01*
X172671998Y-125336440D01*
X172635688Y-125456138D01*
X172623428Y-125580620D01*
X171110855Y-125580620D01*
X171094811Y-125556609D01*
X170805511Y-125267309D01*
X170465329Y-125040006D01*
X170087339Y-124883438D01*
X169686067Y-124803620D01*
X169276933Y-124803620D01*
X168875661Y-124883438D01*
X168497671Y-125040006D01*
X168157489Y-125267309D01*
X167868189Y-125556609D01*
X167640886Y-125896791D01*
X167484318Y-126274781D01*
X167404500Y-126676053D01*
X166478500Y-126676053D01*
X166398682Y-126274781D01*
X166242114Y-125896791D01*
X166014811Y-125556609D01*
X165725511Y-125267309D01*
X165385329Y-125040006D01*
X165007339Y-124883438D01*
X164606067Y-124803620D01*
X164196933Y-124803620D01*
X163795661Y-124883438D01*
X163417671Y-125040006D01*
X163077489Y-125267309D01*
X162788189Y-125556609D01*
X162560886Y-125896791D01*
X162404318Y-126274781D01*
X162324500Y-126676053D01*
X158143827Y-126676053D01*
X158225010Y-126594870D01*
X158228082Y-125580620D01*
X158215822Y-125456138D01*
X158179512Y-125336440D01*
X158120547Y-125226126D01*
X158041195Y-125129435D01*
X157944504Y-125050083D01*
X157834190Y-124991118D01*
X157714492Y-124954808D01*
X157590010Y-124942548D01*
X156575760Y-124945620D01*
X156417010Y-125104370D01*
X156163010Y-125104370D01*
X156004260Y-124945620D01*
X154990010Y-124942548D01*
X154865528Y-124954808D01*
X154745830Y-124991118D01*
X154635516Y-125050083D01*
X154538825Y-125129435D01*
X154459473Y-125226126D01*
X154400508Y-125336440D01*
X154364198Y-125456138D01*
X154351938Y-125580620D01*
X152839365Y-125580620D01*
X152823321Y-125556609D01*
X152534021Y-125267309D01*
X152193839Y-125040006D01*
X151815849Y-124883438D01*
X151414577Y-124803620D01*
X151005443Y-124803620D01*
X150604171Y-124883438D01*
X150226181Y-125040006D01*
X149885999Y-125267309D01*
X149596699Y-125556609D01*
X149369396Y-125896791D01*
X149212828Y-126274781D01*
X149133010Y-126676053D01*
X148207010Y-126676053D01*
X148127192Y-126274781D01*
X147970624Y-125896791D01*
X147743321Y-125556609D01*
X147454021Y-125267309D01*
X147113839Y-125040006D01*
X146735849Y-124883438D01*
X146334577Y-124803620D01*
X145925443Y-124803620D01*
X145524171Y-124883438D01*
X145146181Y-125040006D01*
X144805999Y-125267309D01*
X144516699Y-125556609D01*
X144289396Y-125896791D01*
X144132828Y-126274781D01*
X144053010Y-126676053D01*
X139956592Y-126676053D01*
X139956592Y-125580620D01*
X139944332Y-125456138D01*
X139908022Y-125336440D01*
X139849057Y-125226126D01*
X139769705Y-125129435D01*
X139673014Y-125050083D01*
X139562700Y-124991118D01*
X139443002Y-124954808D01*
X139318520Y-124942548D01*
X136718520Y-124942548D01*
X136594038Y-124954808D01*
X136474340Y-124991118D01*
X136364026Y-125050083D01*
X136267335Y-125129435D01*
X136187983Y-125226126D01*
X136129018Y-125336440D01*
X136092708Y-125456138D01*
X136080448Y-125580620D01*
X134058915Y-125580620D01*
X134108139Y-125531396D01*
X133976203Y-125236308D01*
X133635475Y-125065461D01*
X133267963Y-124964370D01*
X132887791Y-124936919D01*
X132509569Y-124984163D01*
X132147830Y-125104287D01*
X131900837Y-125236308D01*
X131768901Y-125531396D01*
X110173084Y-125531396D01*
X110235000Y-125220128D01*
X110235000Y-124779872D01*
X189765000Y-124779872D01*
X189765000Y-125220128D01*
X189850890Y-125651925D01*
X190019369Y-126058669D01*
X190263962Y-126424729D01*
X190575271Y-126736038D01*
X190941331Y-126980631D01*
X191348075Y-127149110D01*
X191779872Y-127235000D01*
X192220128Y-127235000D01*
X192651925Y-127149110D01*
X193058669Y-126980631D01*
X193424729Y-126736038D01*
X193736038Y-126424729D01*
X193980631Y-126058669D01*
X194149110Y-125651925D01*
X194235000Y-125220128D01*
X194235000Y-124779872D01*
X194149110Y-124348075D01*
X193980631Y-123941331D01*
X193736038Y-123575271D01*
X193424729Y-123263962D01*
X193058669Y-123019369D01*
X192651925Y-122850890D01*
X192220128Y-122765000D01*
X191779872Y-122765000D01*
X191348075Y-122850890D01*
X190941331Y-123019369D01*
X190575271Y-123263962D01*
X190263962Y-123575271D01*
X190019369Y-123941331D01*
X189850890Y-124348075D01*
X189765000Y-124779872D01*
X110235000Y-124779872D01*
X110149110Y-124348075D01*
X109980631Y-123941331D01*
X109736038Y-123575271D01*
X109424729Y-123263962D01*
X109058669Y-123019369D01*
X108651925Y-122850890D01*
X108220128Y-122765000D01*
X107779872Y-122765000D01*
X107348075Y-122850890D01*
X106941331Y-123019369D01*
X106575271Y-123263962D01*
X106263962Y-123575271D01*
X106019369Y-123941331D01*
X105850890Y-124348075D01*
X105765000Y-124779872D01*
X101714300Y-124779872D01*
X101714300Y-121112280D01*
X198429880Y-121112280D01*
X198429880Y-148810980D01*
G37*
X198429880Y-148810980D02*
X163820299Y-148810980D01*
X163851300Y-148655124D01*
X163851300Y-148423276D01*
X163806069Y-148195882D01*
X163717344Y-147981681D01*
X163588536Y-147788906D01*
X163424594Y-147624964D01*
X163231819Y-147496156D01*
X163017618Y-147407431D01*
X162790224Y-147362200D01*
X162558376Y-147362200D01*
X162330982Y-147407431D01*
X162116781Y-147496156D01*
X161924006Y-147624964D01*
X161760064Y-147788906D01*
X161631256Y-147981681D01*
X161542531Y-148195882D01*
X161497300Y-148423276D01*
X161497300Y-148655124D01*
X161528301Y-148810980D01*
X101714300Y-148810980D01*
X101714300Y-146142356D01*
X144492000Y-146142356D01*
X144492000Y-146374204D01*
X144537231Y-146601598D01*
X144625956Y-146815799D01*
X144754764Y-147008574D01*
X144918706Y-147172516D01*
X145111481Y-147301324D01*
X145325682Y-147390049D01*
X145553076Y-147435280D01*
X145784924Y-147435280D01*
X146012318Y-147390049D01*
X146226519Y-147301324D01*
X146419294Y-147172516D01*
X146583236Y-147008574D01*
X146712044Y-146815799D01*
X146800769Y-146601598D01*
X146846000Y-146374204D01*
X146846000Y-146142356D01*
X146800769Y-145914962D01*
X146712044Y-145700761D01*
X146583236Y-145507986D01*
X146553411Y-145478161D01*
X170562320Y-145478161D01*
X170562320Y-145682039D01*
X170602094Y-145881998D01*
X170680115Y-146070356D01*
X170793383Y-146239874D01*
X170937546Y-146384037D01*
X171107064Y-146497305D01*
X171295422Y-146575326D01*
X171495381Y-146615100D01*
X171699259Y-146615100D01*
X171899218Y-146575326D01*
X172087576Y-146497305D01*
X172257094Y-146384037D01*
X172401257Y-146239874D01*
X172514525Y-146070356D01*
X172592546Y-145881998D01*
X172632320Y-145682039D01*
X172632320Y-145478161D01*
X172592546Y-145278202D01*
X172514525Y-145089844D01*
X172401257Y-144920326D01*
X172257094Y-144776163D01*
X172087576Y-144662895D01*
X171899218Y-144584874D01*
X171699259Y-144545100D01*
X171495381Y-144545100D01*
X171295422Y-144584874D01*
X171107064Y-144662895D01*
X170937546Y-144776163D01*
X170793383Y-144920326D01*
X170680115Y-145089844D01*
X170602094Y-145278202D01*
X170562320Y-145478161D01*
X146553411Y-145478161D01*
X146419294Y-145344044D01*
X146226519Y-145215236D01*
X146012318Y-145126511D01*
X145784924Y-145081280D01*
X145553076Y-145081280D01*
X145325682Y-145126511D01*
X145111481Y-145215236D01*
X144918706Y-145344044D01*
X144754764Y-145507986D01*
X144625956Y-145700761D01*
X144537231Y-145914962D01*
X144492000Y-146142356D01*
X101714300Y-146142356D01*
X101714300Y-143728101D01*
X168852900Y-143728101D01*
X168852900Y-143931979D01*
X168892674Y-144131938D01*
X168970695Y-144320296D01*
X169083963Y-144489814D01*
X169228126Y-144633977D01*
X169397644Y-144747245D01*
X169586002Y-144825266D01*
X169785961Y-144865040D01*
X169989839Y-144865040D01*
X170189798Y-144825266D01*
X170378156Y-144747245D01*
X170547674Y-144633977D01*
X170691837Y-144489814D01*
X170805105Y-144320296D01*
X170883126Y-144131938D01*
X170922900Y-143931979D01*
X170922900Y-143728101D01*
X170883126Y-143528142D01*
X170805105Y-143339784D01*
X170691837Y-143170266D01*
X170547674Y-143026103D01*
X170378156Y-142912835D01*
X170189798Y-142834814D01*
X169989839Y-142795040D01*
X169785961Y-142795040D01*
X169586002Y-142834814D01*
X169397644Y-142912835D01*
X169228126Y-143026103D01*
X169083963Y-143170266D01*
X168970695Y-143339784D01*
X168892674Y-143528142D01*
X168852900Y-143728101D01*
X101714300Y-143728101D01*
X101714300Y-141544991D01*
X144146226Y-141544991D01*
X144146226Y-141748869D01*
X144186000Y-141948828D01*
X144264021Y-142137186D01*
X144377289Y-142306704D01*
X144521452Y-142450867D01*
X144690970Y-142564135D01*
X144879328Y-142642156D01*
X145079287Y-142681930D01*
X145283165Y-142681930D01*
X145483124Y-142642156D01*
X145671482Y-142564135D01*
X145841000Y-142450867D01*
X145985163Y-142306704D01*
X146094452Y-142143141D01*
X149538740Y-142143141D01*
X149538740Y-142347019D01*
X149578514Y-142546978D01*
X149656535Y-142735336D01*
X149769803Y-142904854D01*
X149913966Y-143049017D01*
X150083484Y-143162285D01*
X150271842Y-143240306D01*
X150471801Y-143280080D01*
X150675679Y-143280080D01*
X150875638Y-143240306D01*
X151063996Y-143162285D01*
X151233514Y-143049017D01*
X151377677Y-142904854D01*
X151490945Y-142735336D01*
X151568966Y-142546978D01*
X151608740Y-142347019D01*
X151608740Y-142143141D01*
X151568966Y-141943182D01*
X151490945Y-141754824D01*
X151377677Y-141585306D01*
X151233514Y-141441143D01*
X151063996Y-141327875D01*
X150875638Y-141249854D01*
X150675679Y-141210080D01*
X150471801Y-141210080D01*
X150271842Y-141249854D01*
X150083484Y-141327875D01*
X149913966Y-141441143D01*
X149769803Y-141585306D01*
X149656535Y-141754824D01*
X149578514Y-141943182D01*
X149538740Y-142143141D01*
X146094452Y-142143141D01*
X146098431Y-142137186D01*
X146176452Y-141948828D01*
X146216226Y-141748869D01*
X146216226Y-141544991D01*
X146176452Y-141345032D01*
X146098431Y-141156674D01*
X145985163Y-140987156D01*
X145841000Y-140842993D01*
X145671482Y-140729725D01*
X145483124Y-140651704D01*
X145283165Y-140611930D01*
X145079287Y-140611930D01*
X144879328Y-140651704D01*
X144690970Y-140729725D01*
X144521452Y-140842993D01*
X144377289Y-140987156D01*
X144264021Y-141156674D01*
X144186000Y-141345032D01*
X144146226Y-141544991D01*
X101714300Y-141544991D01*
X101714300Y-140365141D01*
X166041120Y-140365141D01*
X166041120Y-140569019D01*
X166080894Y-140768978D01*
X166158915Y-140957336D01*
X166272183Y-141126854D01*
X166416346Y-141271017D01*
X166585864Y-141384285D01*
X166774222Y-141462306D01*
X166974181Y-141502080D01*
X167178059Y-141502080D01*
X167378018Y-141462306D01*
X167566376Y-141384285D01*
X167735894Y-141271017D01*
X167779831Y-141227080D01*
X172677598Y-141227080D01*
X172714920Y-141230756D01*
X172752242Y-141227080D01*
X172752253Y-141227080D01*
X172863906Y-141216083D01*
X173007167Y-141172626D01*
X173139196Y-141102054D01*
X173254921Y-141007081D01*
X173278724Y-140978078D01*
X173730081Y-140526720D01*
X173792219Y-140526720D01*
X173992178Y-140486946D01*
X174180536Y-140408925D01*
X174350054Y-140295657D01*
X174494217Y-140151494D01*
X174607485Y-139981976D01*
X174685506Y-139793618D01*
X174725280Y-139593659D01*
X174725280Y-139389781D01*
X174685506Y-139189822D01*
X174607485Y-139001464D01*
X174494217Y-138831946D01*
X174350054Y-138687783D01*
X174180536Y-138574515D01*
X173992178Y-138496494D01*
X173792219Y-138456720D01*
X173588341Y-138456720D01*
X173388382Y-138496494D01*
X173200024Y-138574515D01*
X173030506Y-138687783D01*
X172886343Y-138831946D01*
X172773075Y-139001464D01*
X172695054Y-139189822D01*
X172655280Y-139389781D01*
X172655280Y-139451919D01*
X172400119Y-139707080D01*
X167779831Y-139707080D01*
X167735894Y-139663143D01*
X167566376Y-139549875D01*
X167378018Y-139471854D01*
X167178059Y-139432080D01*
X166974181Y-139432080D01*
X166774222Y-139471854D01*
X166585864Y-139549875D01*
X166416346Y-139663143D01*
X166272183Y-139807306D01*
X166158915Y-139976824D01*
X166080894Y-140165182D01*
X166041120Y-140365141D01*
X101714300Y-140365141D01*
X101714300Y-136779872D01*
X105765000Y-136779872D01*
X105765000Y-137220128D01*
X105850890Y-137651925D01*
X106019369Y-138058669D01*
X106263962Y-138424729D01*
X106575271Y-138736038D01*
X106941331Y-138980631D01*
X107348075Y-139149110D01*
X107779872Y-139235000D01*
X108220128Y-139235000D01*
X108651925Y-139149110D01*
X109058669Y-138980631D01*
X109424729Y-138736038D01*
X109736038Y-138424729D01*
X109980631Y-138058669D01*
X110149110Y-137651925D01*
X110235000Y-137220128D01*
X110235000Y-136779872D01*
X189765000Y-136779872D01*
X189765000Y-137220128D01*
X189850890Y-137651925D01*
X190019369Y-138058669D01*
X190263962Y-138424729D01*
X190575271Y-138736038D01*
X190941331Y-138980631D01*
X191348075Y-139149110D01*
X191779872Y-139235000D01*
X192220128Y-139235000D01*
X192651925Y-139149110D01*
X193058669Y-138980631D01*
X193424729Y-138736038D01*
X193736038Y-138424729D01*
X193980631Y-138058669D01*
X194149110Y-137651925D01*
X194235000Y-137220128D01*
X194235000Y-136779872D01*
X194149110Y-136348075D01*
X193980631Y-135941331D01*
X193736038Y-135575271D01*
X193424729Y-135263962D01*
X193058669Y-135019369D01*
X192651925Y-134850890D01*
X192220128Y-134765000D01*
X191779872Y-134765000D01*
X191348075Y-134850890D01*
X190941331Y-135019369D01*
X190575271Y-135263962D01*
X190263962Y-135575271D01*
X190019369Y-135941331D01*
X189850890Y-136348075D01*
X189765000Y-136779872D01*
X110235000Y-136779872D01*
X110149110Y-136348075D01*
X109980631Y-135941331D01*
X109736038Y-135575271D01*
X109424729Y-135263962D01*
X109058669Y-135019369D01*
X108651925Y-134850890D01*
X108220128Y-134765000D01*
X107779872Y-134765000D01*
X107348075Y-134850890D01*
X106941331Y-135019369D01*
X106575271Y-135263962D01*
X106263962Y-135575271D01*
X106019369Y-135941331D01*
X105850890Y-136348075D01*
X105765000Y-136779872D01*
X101714300Y-136779872D01*
X101714300Y-128229844D01*
X131768901Y-128229844D01*
X131900837Y-128524932D01*
X132241565Y-128695779D01*
X132609077Y-128796870D01*
X132989249Y-128824321D01*
X133367471Y-128777077D01*
X133729210Y-128656953D01*
X133976203Y-128524932D01*
X134108139Y-128229844D01*
X132938520Y-127060225D01*
X131768901Y-128229844D01*
X101714300Y-128229844D01*
X101714300Y-124779872D01*
X105765000Y-124779872D01*
X105765000Y-125220128D01*
X105850890Y-125651925D01*
X106019369Y-126058669D01*
X106263962Y-126424729D01*
X106575271Y-126736038D01*
X106941331Y-126980631D01*
X107348075Y-127149110D01*
X107779872Y-127235000D01*
X108220128Y-127235000D01*
X108651925Y-127149110D01*
X109058669Y-126980631D01*
X109132424Y-126931349D01*
X130994819Y-126931349D01*
X131042063Y-127309571D01*
X131162187Y-127671310D01*
X131294208Y-127918303D01*
X131589296Y-128050239D01*
X132758915Y-126880620D01*
X133118125Y-126880620D01*
X134287744Y-128050239D01*
X134582832Y-127918303D01*
X134753679Y-127577575D01*
X134854770Y-127210063D01*
X134882221Y-126829891D01*
X134834977Y-126451669D01*
X134714853Y-126089930D01*
X134582832Y-125842937D01*
X134287744Y-125711001D01*
X133118125Y-126880620D01*
X132758915Y-126880620D01*
X131589296Y-125711001D01*
X131294208Y-125842937D01*
X131123361Y-126183665D01*
X131022270Y-126551177D01*
X130994819Y-126931349D01*
X109132424Y-126931349D01*
X109424729Y-126736038D01*
X109736038Y-126424729D01*
X109980631Y-126058669D01*
X110149110Y-125651925D01*
X110173084Y-125531396D01*
X131768901Y-125531396D01*
X132938520Y-126701015D01*
X134058915Y-125580620D01*
X136080448Y-125580620D01*
X136080448Y-128180620D01*
X136092708Y-128305102D01*
X136129018Y-128424800D01*
X136187983Y-128535114D01*
X136267335Y-128631805D01*
X136364026Y-128711157D01*
X136474340Y-128770122D01*
X136594038Y-128806432D01*
X136718520Y-128818692D01*
X139318520Y-128818692D01*
X139443002Y-128806432D01*
X139562700Y-128770122D01*
X139673014Y-128711157D01*
X139769705Y-128631805D01*
X139849057Y-128535114D01*
X139908022Y-128424800D01*
X139944332Y-128305102D01*
X139956592Y-128180620D01*
X139956592Y-126676053D01*
X144053010Y-126676053D01*
X144053010Y-127085187D01*
X144132828Y-127486459D01*
X144289396Y-127864449D01*
X144516699Y-128204631D01*
X144805999Y-128493931D01*
X145146181Y-128721234D01*
X145524171Y-128877802D01*
X145925443Y-128957620D01*
X146334577Y-128957620D01*
X146735849Y-128877802D01*
X147113839Y-128721234D01*
X147454021Y-128493931D01*
X147743321Y-128204631D01*
X147970624Y-127864449D01*
X148127192Y-127486459D01*
X148207010Y-127085187D01*
X148207010Y-126676053D01*
X149133010Y-126676053D01*
X149133010Y-127085187D01*
X149212828Y-127486459D01*
X149369396Y-127864449D01*
X149596699Y-128204631D01*
X149885999Y-128493931D01*
X150226181Y-128721234D01*
X150604171Y-128877802D01*
X151005443Y-128957620D01*
X151414577Y-128957620D01*
X151815849Y-128877802D01*
X152193839Y-128721234D01*
X152534021Y-128493931D01*
X152823321Y-128204631D01*
X152839364Y-128180620D01*
X154351938Y-128180620D01*
X154364198Y-128305102D01*
X154400508Y-128424800D01*
X154459473Y-128535114D01*
X154538825Y-128631805D01*
X154635516Y-128711157D01*
X154745830Y-128770122D01*
X154865528Y-128806432D01*
X154990010Y-128818692D01*
X156004260Y-128815620D01*
X156163010Y-128656870D01*
X156163010Y-127007620D01*
X156417010Y-127007620D01*
X156417010Y-128656870D01*
X156575760Y-128815620D01*
X157590010Y-128818692D01*
X157714492Y-128806432D01*
X157834190Y-128770122D01*
X157944504Y-128711157D01*
X158041195Y-128631805D01*
X158120547Y-128535114D01*
X158179512Y-128424800D01*
X158215822Y-128305102D01*
X158228082Y-128180620D01*
X158225010Y-127166370D01*
X158066260Y-127007620D01*
X156417010Y-127007620D01*
X156163010Y-127007620D01*
X154513760Y-127007620D01*
X154355010Y-127166370D01*
X154351938Y-128180620D01*
X152839364Y-128180620D01*
X153050624Y-127864449D01*
X153207192Y-127486459D01*
X153287010Y-127085187D01*
X153287010Y-126676053D01*
X153207192Y-126274781D01*
X153050624Y-125896791D01*
X152839365Y-125580620D01*
X154351938Y-125580620D01*
X154355010Y-126594870D01*
X154513760Y-126753620D01*
X156163010Y-126753620D01*
X156163010Y-125104370D01*
X156417010Y-125104370D01*
X156417010Y-126753620D01*
X158066260Y-126753620D01*
X158143827Y-126676053D01*
X162324500Y-126676053D01*
X162324500Y-127085187D01*
X162404318Y-127486459D01*
X162560886Y-127864449D01*
X162788189Y-128204631D01*
X163077489Y-128493931D01*
X163417671Y-128721234D01*
X163795661Y-128877802D01*
X164196933Y-128957620D01*
X164606067Y-128957620D01*
X165007339Y-128877802D01*
X165385329Y-128721234D01*
X165725511Y-128493931D01*
X166014811Y-128204631D01*
X166242114Y-127864449D01*
X166398682Y-127486459D01*
X166478500Y-127085187D01*
X166478500Y-126676053D01*
X167404500Y-126676053D01*
X167404500Y-127085187D01*
X167484318Y-127486459D01*
X167640886Y-127864449D01*
X167868189Y-128204631D01*
X168157489Y-128493931D01*
X168497671Y-128721234D01*
X168875661Y-128877802D01*
X169276933Y-128957620D01*
X169686067Y-128957620D01*
X170087339Y-128877802D01*
X170465329Y-128721234D01*
X170805511Y-128493931D01*
X171094811Y-128204631D01*
X171110854Y-128180620D01*
X172623428Y-128180620D01*
X172635688Y-128305102D01*
X172671998Y-128424800D01*
X172730963Y-128535114D01*
X172810315Y-128631805D01*
X172907006Y-128711157D01*
X173017320Y-128770122D01*
X173137018Y-128806432D01*
X173261500Y-128818692D01*
X174275750Y-128815620D01*
X174434500Y-128656870D01*
X174434500Y-127007620D01*
X174688500Y-127007620D01*
X174688500Y-128656870D01*
X174847250Y-128815620D01*
X175861500Y-128818692D01*
X175985982Y-128806432D01*
X176105680Y-128770122D01*
X176215994Y-128711157D01*
X176312685Y-128631805D01*
X176392037Y-128535114D01*
X176451002Y-128424800D01*
X176487312Y-128305102D01*
X176499572Y-128180620D01*
X176496500Y-127166370D01*
X176337750Y-127007620D01*
X174688500Y-127007620D01*
X174434500Y-127007620D01*
X172785250Y-127007620D01*
X172626500Y-127166370D01*
X172623428Y-128180620D01*
X171110854Y-128180620D01*
X171322114Y-127864449D01*
X171478682Y-127486459D01*
X171558500Y-127085187D01*
X171558500Y-126676053D01*
X171478682Y-126274781D01*
X171322114Y-125896791D01*
X171110855Y-125580620D01*
X172623428Y-125580620D01*
X172626500Y-126594870D01*
X172785250Y-126753620D01*
X174434500Y-126753620D01*
X174434500Y-125104370D01*
X174688500Y-125104370D01*
X174688500Y-126753620D01*
X176337750Y-126753620D01*
X176496500Y-126594870D01*
X176499572Y-125580620D01*
X176487312Y-125456138D01*
X176451002Y-125336440D01*
X176392037Y-125226126D01*
X176312685Y-125129435D01*
X176215994Y-125050083D01*
X176105680Y-124991118D01*
X175985982Y-124954808D01*
X175861500Y-124942548D01*
X174847250Y-124945620D01*
X174688500Y-125104370D01*
X174434500Y-125104370D01*
X174275750Y-124945620D01*
X173261500Y-124942548D01*
X173137018Y-124954808D01*
X173017320Y-124991118D01*
X172907006Y-125050083D01*
X172810315Y-125129435D01*
X172730963Y-125226126D01*
X172671998Y-125336440D01*
X172635688Y-125456138D01*
X172623428Y-125580620D01*
X171110855Y-125580620D01*
X171094811Y-125556609D01*
X170805511Y-125267309D01*
X170465329Y-125040006D01*
X170087339Y-124883438D01*
X169686067Y-124803620D01*
X169276933Y-124803620D01*
X168875661Y-124883438D01*
X168497671Y-125040006D01*
X168157489Y-125267309D01*
X167868189Y-125556609D01*
X167640886Y-125896791D01*
X167484318Y-126274781D01*
X167404500Y-126676053D01*
X166478500Y-126676053D01*
X166398682Y-126274781D01*
X166242114Y-125896791D01*
X166014811Y-125556609D01*
X165725511Y-125267309D01*
X165385329Y-125040006D01*
X165007339Y-124883438D01*
X164606067Y-124803620D01*
X164196933Y-124803620D01*
X163795661Y-124883438D01*
X163417671Y-125040006D01*
X163077489Y-125267309D01*
X162788189Y-125556609D01*
X162560886Y-125896791D01*
X162404318Y-126274781D01*
X162324500Y-126676053D01*
X158143827Y-126676053D01*
X158225010Y-126594870D01*
X158228082Y-125580620D01*
X158215822Y-125456138D01*
X158179512Y-125336440D01*
X158120547Y-125226126D01*
X158041195Y-125129435D01*
X157944504Y-125050083D01*
X157834190Y-124991118D01*
X157714492Y-124954808D01*
X157590010Y-124942548D01*
X156575760Y-124945620D01*
X156417010Y-125104370D01*
X156163010Y-125104370D01*
X156004260Y-124945620D01*
X154990010Y-124942548D01*
X154865528Y-124954808D01*
X154745830Y-124991118D01*
X154635516Y-125050083D01*
X154538825Y-125129435D01*
X154459473Y-125226126D01*
X154400508Y-125336440D01*
X154364198Y-125456138D01*
X154351938Y-125580620D01*
X152839365Y-125580620D01*
X152823321Y-125556609D01*
X152534021Y-125267309D01*
X152193839Y-125040006D01*
X151815849Y-124883438D01*
X151414577Y-124803620D01*
X151005443Y-124803620D01*
X150604171Y-124883438D01*
X150226181Y-125040006D01*
X149885999Y-125267309D01*
X149596699Y-125556609D01*
X149369396Y-125896791D01*
X149212828Y-126274781D01*
X149133010Y-126676053D01*
X148207010Y-126676053D01*
X148127192Y-126274781D01*
X147970624Y-125896791D01*
X147743321Y-125556609D01*
X147454021Y-125267309D01*
X147113839Y-125040006D01*
X146735849Y-124883438D01*
X146334577Y-124803620D01*
X145925443Y-124803620D01*
X145524171Y-124883438D01*
X145146181Y-125040006D01*
X144805999Y-125267309D01*
X144516699Y-125556609D01*
X144289396Y-125896791D01*
X144132828Y-126274781D01*
X144053010Y-126676053D01*
X139956592Y-126676053D01*
X139956592Y-125580620D01*
X139944332Y-125456138D01*
X139908022Y-125336440D01*
X139849057Y-125226126D01*
X139769705Y-125129435D01*
X139673014Y-125050083D01*
X139562700Y-124991118D01*
X139443002Y-124954808D01*
X139318520Y-124942548D01*
X136718520Y-124942548D01*
X136594038Y-124954808D01*
X136474340Y-124991118D01*
X136364026Y-125050083D01*
X136267335Y-125129435D01*
X136187983Y-125226126D01*
X136129018Y-125336440D01*
X136092708Y-125456138D01*
X136080448Y-125580620D01*
X134058915Y-125580620D01*
X134108139Y-125531396D01*
X133976203Y-125236308D01*
X133635475Y-125065461D01*
X133267963Y-124964370D01*
X132887791Y-124936919D01*
X132509569Y-124984163D01*
X132147830Y-125104287D01*
X131900837Y-125236308D01*
X131768901Y-125531396D01*
X110173084Y-125531396D01*
X110235000Y-125220128D01*
X110235000Y-124779872D01*
X189765000Y-124779872D01*
X189765000Y-125220128D01*
X189850890Y-125651925D01*
X190019369Y-126058669D01*
X190263962Y-126424729D01*
X190575271Y-126736038D01*
X190941331Y-126980631D01*
X191348075Y-127149110D01*
X191779872Y-127235000D01*
X192220128Y-127235000D01*
X192651925Y-127149110D01*
X193058669Y-126980631D01*
X193424729Y-126736038D01*
X193736038Y-126424729D01*
X193980631Y-126058669D01*
X194149110Y-125651925D01*
X194235000Y-125220128D01*
X194235000Y-124779872D01*
X194149110Y-124348075D01*
X193980631Y-123941331D01*
X193736038Y-123575271D01*
X193424729Y-123263962D01*
X193058669Y-123019369D01*
X192651925Y-122850890D01*
X192220128Y-122765000D01*
X191779872Y-122765000D01*
X191348075Y-122850890D01*
X190941331Y-123019369D01*
X190575271Y-123263962D01*
X190263962Y-123575271D01*
X190019369Y-123941331D01*
X189850890Y-124348075D01*
X189765000Y-124779872D01*
X110235000Y-124779872D01*
X110149110Y-124348075D01*
X109980631Y-123941331D01*
X109736038Y-123575271D01*
X109424729Y-123263962D01*
X109058669Y-123019369D01*
X108651925Y-122850890D01*
X108220128Y-122765000D01*
X107779872Y-122765000D01*
X107348075Y-122850890D01*
X106941331Y-123019369D01*
X106575271Y-123263962D01*
X106263962Y-123575271D01*
X106019369Y-123941331D01*
X105850890Y-124348075D01*
X105765000Y-124779872D01*
X101714300Y-124779872D01*
X101714300Y-121112280D01*
X198429880Y-121112280D01*
X198429880Y-148810980D01*
M02*
