G04 #@! TF.GenerationSoftware,KiCad,Pcbnew,(5.1.5)-3*
G04 #@! TF.CreationDate,2020-11-11T17:48:52-05:00*
G04 #@! TF.ProjectId,sensor_dmf_board,73656e73-6f72-45f6-946d-665f626f6172,rev?*
G04 #@! TF.SameCoordinates,Original*
G04 #@! TF.FileFunction,Legend,Top*
G04 #@! TF.FilePolarity,Positive*
%FSLAX46Y46*%
G04 Gerber Fmt 4.6, Leading zero omitted, Abs format (unit mm)*
G04 Created by KiCad (PCBNEW (5.1.5)-3) date 2020-11-11 17:48:52*
%MOMM*%
%LPD*%
G04 APERTURE LIST*
%ADD10C,0.120000*%
%ADD11C,0.150000*%
G04 APERTURE END LIST*
D10*
X100000000Y-90000000D02*
X200000000Y-90000000D01*
X100000000Y-120000000D02*
X200000000Y-120000000D01*
X162346660Y-145458800D02*
X167746660Y-145458800D01*
X162346660Y-147758800D02*
X162346660Y-145458800D01*
X167746660Y-147758800D02*
X162346660Y-147758800D01*
X167746660Y-145458800D02*
X167746660Y-147758800D01*
X146026724Y-145003520D02*
G75*
G03X146026724Y-145003520I-433924J0D01*
G01*
X139385060Y-143327740D02*
X144785060Y-143327740D01*
X139385060Y-145627740D02*
X139385060Y-143327740D01*
X144785060Y-145627740D02*
X139385060Y-145627740D01*
X144785060Y-143327740D02*
X144785060Y-145627740D01*
X174248879Y-146667760D02*
X173923321Y-146667760D01*
X174248879Y-147687760D02*
X173923321Y-147687760D01*
X154155680Y-140504861D02*
X154155680Y-140830419D01*
X155175680Y-140504861D02*
X155175680Y-140830419D01*
X143571820Y-70628700D02*
X142471820Y-70628700D01*
X143571820Y-70898700D02*
X143571820Y-70628700D01*
X145071820Y-70898700D02*
X143571820Y-70898700D01*
X143571820Y-64268700D02*
X140741820Y-64268700D01*
X143571820Y-63998700D02*
X143571820Y-64268700D01*
X145071820Y-63998700D02*
X143571820Y-63998700D01*
X144000540Y-137099040D02*
X144000540Y-140549040D01*
X144000540Y-137099040D02*
X144000540Y-135149040D01*
X149120540Y-137099040D02*
X149120540Y-139049040D01*
X149120540Y-137099040D02*
X149120540Y-135149040D01*
X147506800Y-79517480D02*
X147506800Y-73817480D01*
X151806800Y-79517480D02*
X151806800Y-73817480D01*
X147506800Y-79517480D02*
X151806800Y-79517480D01*
X147120000Y-117320000D02*
X147120000Y-113870000D01*
X147120000Y-117320000D02*
X150570000Y-117320000D01*
X150570000Y-113870000D02*
X150570000Y-117320000D01*
X150570000Y-113870000D02*
X147120000Y-113870000D01*
X146763980Y-113923680D02*
G75*
G03X146763980Y-113923680I-500000J0D01*
G01*
X155380000Y-117320000D02*
X155380000Y-113870000D01*
X155380000Y-117320000D02*
X158830000Y-117320000D01*
X158830000Y-113870000D02*
X158830000Y-117320000D01*
X158830000Y-113870000D02*
X155380000Y-113870000D01*
X155023980Y-113923680D02*
G75*
G03X155023980Y-113923680I-500000J0D01*
G01*
X165815560Y-74123700D02*
X165815560Y-63823700D01*
X155315560Y-74123700D02*
X165815560Y-74123700D01*
X155315560Y-63823700D02*
X155315560Y-74123700D01*
X165815560Y-63823700D02*
X155315560Y-63823700D01*
X174144678Y-144410360D02*
X173627522Y-144410360D01*
X174144678Y-145830360D02*
X173627522Y-145830360D01*
X151613800Y-140325342D02*
X151613800Y-140842498D01*
X153033800Y-140325342D02*
X153033800Y-140842498D01*
X172871898Y-133521380D02*
X172354742Y-133521380D01*
X172871898Y-134941380D02*
X172354742Y-134941380D01*
X151501582Y-136747320D02*
X152018738Y-136747320D01*
X151501582Y-135327320D02*
X152018738Y-135327320D01*
X163644842Y-142838240D02*
X164161998Y-142838240D01*
X163644842Y-141418240D02*
X164161998Y-141418240D01*
X135771122Y-142254040D02*
X136288278Y-142254040D01*
X135771122Y-140834040D02*
X136288278Y-140834040D01*
X163670242Y-144921040D02*
X164187398Y-144921040D01*
X163670242Y-143501040D02*
X164187398Y-143501040D01*
X168294120Y-136161278D02*
X168294120Y-135644122D01*
X166874120Y-136161278D02*
X166874120Y-135644122D01*
X135783822Y-144430820D02*
X136300978Y-144430820D01*
X135783822Y-143010820D02*
X136300978Y-143010820D01*
X140831640Y-135455158D02*
X140831640Y-134938002D01*
X139411640Y-135455158D02*
X139411640Y-134938002D01*
X122963340Y-71652580D02*
X122963340Y-63592580D01*
X118443340Y-71652580D02*
X122963340Y-71652580D01*
X118443340Y-63592580D02*
X118443340Y-71652580D01*
X128070540Y-69761362D02*
X128070540Y-70278518D01*
X129490540Y-69761362D02*
X129490540Y-70278518D01*
X126726780Y-70002024D02*
X126726780Y-68797896D01*
X124006780Y-70002024D02*
X124006780Y-68797896D01*
X148812320Y-84373218D02*
X148812320Y-83856062D01*
X147392320Y-84373218D02*
X147392320Y-83856062D01*
X136156962Y-77224960D02*
X136674118Y-77224960D01*
X136156962Y-75804960D02*
X136674118Y-75804960D01*
X140858520Y-121980620D02*
X140358520Y-121980620D01*
X140858520Y-122720620D02*
X140858520Y-121980620D01*
X134165520Y-125857620D02*
X134212520Y-125811620D01*
X131868520Y-128155620D02*
X131903520Y-128119620D01*
X133972520Y-125641620D02*
X134007520Y-125606620D01*
X131663520Y-127949620D02*
X131710520Y-127903620D01*
X130338520Y-132141620D02*
X130338520Y-122220620D01*
X140618520Y-132141620D02*
X140618520Y-122220620D01*
X140618520Y-122220620D02*
X130338520Y-122220620D01*
X140618520Y-132141620D02*
X130338520Y-132141620D01*
X140618520Y-129181620D02*
X130338520Y-129181620D01*
X140618520Y-124280620D02*
X130338520Y-124280620D01*
X140618520Y-122780620D02*
X130338520Y-122780620D01*
X134618520Y-126880620D02*
G75*
G03X134618520Y-126880620I-1680000J0D01*
G01*
X137989715Y-125200367D02*
G75*
G02X138702520Y-125345620I28805J-1680253D01*
G01*
X139553946Y-126197578D02*
G75*
G02X139553520Y-127564620I-1535426J-683042D01*
G01*
X138701562Y-128416046D02*
G75*
G02X137334520Y-128415620I-683042J1535426D01*
G01*
X136483094Y-127563662D02*
G75*
G02X136483520Y-126196620I1535426J683042D01*
G01*
X137335202Y-125345864D02*
G75*
G02X138018520Y-125200620I683318J-1534756D01*
G01*
X135031480Y-69022280D02*
X131581480Y-69022280D01*
X135031480Y-69022280D02*
X136981480Y-69022280D01*
X135031480Y-74142280D02*
X133081480Y-74142280D01*
X135031480Y-74142280D02*
X136981480Y-74142280D01*
X153414020Y-114285800D02*
X153414020Y-116135800D01*
X152214020Y-114285800D02*
X152214020Y-116135800D01*
X152214020Y-116135800D02*
X153414020Y-116135800D01*
X162337040Y-114165380D02*
X162337040Y-116015380D01*
X161137040Y-114165380D02*
X161137040Y-116015380D01*
X161137040Y-116015380D02*
X162337040Y-116015380D01*
X186393160Y-82840000D02*
X186393160Y-82340000D01*
X185653160Y-82840000D02*
X186393160Y-82840000D01*
X182516160Y-71067000D02*
X182562160Y-71114000D01*
X180218160Y-68770000D02*
X180254160Y-68805000D01*
X182732160Y-70874000D02*
X182767160Y-70909000D01*
X180424160Y-68565000D02*
X180470160Y-68612000D01*
X182516160Y-76147000D02*
X182562160Y-76194000D01*
X180218160Y-73850000D02*
X180254160Y-73885000D01*
X182732160Y-75954000D02*
X182767160Y-75989000D01*
X180424160Y-73645000D02*
X180470160Y-73692000D01*
X176232160Y-67240000D02*
X186153160Y-67240000D01*
X176232160Y-82600000D02*
X186153160Y-82600000D01*
X186153160Y-82600000D02*
X186153160Y-67240000D01*
X176232160Y-82600000D02*
X176232160Y-67240000D01*
X179192160Y-82600000D02*
X179192160Y-67240000D01*
X184093160Y-82600000D02*
X184093160Y-67240000D01*
X185593160Y-82600000D02*
X185593160Y-67240000D01*
X183173160Y-69840000D02*
G75*
G03X183173160Y-69840000I-1680000J0D01*
G01*
X183173160Y-74920000D02*
G75*
G03X183173160Y-74920000I-1680000J0D01*
G01*
X183173413Y-79971195D02*
G75*
G02X183028160Y-80684000I-1680253J-28805D01*
G01*
X182176202Y-81535426D02*
G75*
G02X180809160Y-81535000I-683042J1535426D01*
G01*
X179957734Y-80683042D02*
G75*
G02X179958160Y-79316000I1535426J683042D01*
G01*
X180810118Y-78464574D02*
G75*
G02X182177160Y-78465000I683042J-1535426D01*
G01*
X183027916Y-79316682D02*
G75*
G02X183173160Y-80000000I-1534756J-683318D01*
G01*
X171861080Y-75069700D02*
X171861080Y-88531700D01*
X153929080Y-75069700D02*
X171861080Y-75069700D01*
X153929080Y-75069700D02*
X153929080Y-88531700D01*
X153929080Y-88531700D02*
X171861080Y-88531700D01*
X170693080Y-75069700D02*
X170693080Y-88531700D01*
X165155880Y-81800700D02*
G75*
G03X165155880Y-81800700I-5588000J0D01*
G01*
X177401500Y-121980620D02*
X176901500Y-121980620D01*
X177401500Y-122720620D02*
X177401500Y-121980620D01*
X165628500Y-125857620D02*
X165675500Y-125811620D01*
X163331500Y-128155620D02*
X163366500Y-128119620D01*
X165435500Y-125641620D02*
X165470500Y-125606620D01*
X163126500Y-127949620D02*
X163173500Y-127903620D01*
X170708500Y-125857620D02*
X170755500Y-125811620D01*
X168411500Y-128155620D02*
X168446500Y-128119620D01*
X170515500Y-125641620D02*
X170550500Y-125606620D01*
X168206500Y-127949620D02*
X168253500Y-127903620D01*
X161801500Y-132141620D02*
X161801500Y-122220620D01*
X177161500Y-132141620D02*
X177161500Y-122220620D01*
X177161500Y-122220620D02*
X161801500Y-122220620D01*
X177161500Y-132141620D02*
X161801500Y-132141620D01*
X177161500Y-129181620D02*
X161801500Y-129181620D01*
X177161500Y-124280620D02*
X161801500Y-124280620D01*
X177161500Y-122780620D02*
X161801500Y-122780620D01*
X166081500Y-126880620D02*
G75*
G03X166081500Y-126880620I-1680000J0D01*
G01*
X171161500Y-126880620D02*
G75*
G03X171161500Y-126880620I-1680000J0D01*
G01*
X174532695Y-125200367D02*
G75*
G02X175245500Y-125345620I28805J-1680253D01*
G01*
X176096926Y-126197578D02*
G75*
G02X176096500Y-127564620I-1535426J-683042D01*
G01*
X175244542Y-128416046D02*
G75*
G02X173877500Y-128415620I-683042J1535426D01*
G01*
X173026074Y-127563662D02*
G75*
G02X173026500Y-126196620I1535426J683042D01*
G01*
X173878182Y-125345864D02*
G75*
G02X174561500Y-125200620I683318J-1534756D01*
G01*
X159130010Y-121980620D02*
X158630010Y-121980620D01*
X159130010Y-122720620D02*
X159130010Y-121980620D01*
X147357010Y-125857620D02*
X147404010Y-125811620D01*
X145060010Y-128155620D02*
X145095010Y-128119620D01*
X147164010Y-125641620D02*
X147199010Y-125606620D01*
X144855010Y-127949620D02*
X144902010Y-127903620D01*
X152437010Y-125857620D02*
X152484010Y-125811620D01*
X150140010Y-128155620D02*
X150175010Y-128119620D01*
X152244010Y-125641620D02*
X152279010Y-125606620D01*
X149935010Y-127949620D02*
X149982010Y-127903620D01*
X143530010Y-132141620D02*
X143530010Y-122220620D01*
X158890010Y-132141620D02*
X158890010Y-122220620D01*
X158890010Y-122220620D02*
X143530010Y-122220620D01*
X158890010Y-132141620D02*
X143530010Y-132141620D01*
X158890010Y-129181620D02*
X143530010Y-129181620D01*
X158890010Y-124280620D02*
X143530010Y-124280620D01*
X158890010Y-122780620D02*
X143530010Y-122780620D01*
X147810010Y-126880620D02*
G75*
G03X147810010Y-126880620I-1680000J0D01*
G01*
X152890010Y-126880620D02*
G75*
G03X152890010Y-126880620I-1680000J0D01*
G01*
X156261205Y-125200367D02*
G75*
G02X156974010Y-125345620I28805J-1680253D01*
G01*
X157825436Y-126197578D02*
G75*
G02X157825010Y-127564620I-1535426J-683042D01*
G01*
X156973052Y-128416046D02*
G75*
G02X155606010Y-128415620I-683042J1535426D01*
G01*
X154754584Y-127563662D02*
G75*
G02X154755010Y-126196620I1535426J683042D01*
G01*
X155606692Y-125345864D02*
G75*
G02X156290010Y-125200620I683318J-1534756D01*
G01*
X165740520Y-140669060D02*
X159730520Y-140669060D01*
X163490520Y-133849060D02*
X159730520Y-133849060D01*
X159730520Y-140669060D02*
X159730520Y-139409060D01*
X159730520Y-133849060D02*
X159730520Y-135109060D01*
X170347960Y-139994640D02*
X170347960Y-143444640D01*
X170347960Y-139994640D02*
X170347960Y-138044640D01*
X175467960Y-139994640D02*
X175467960Y-141944640D01*
X175467960Y-139994640D02*
X175467960Y-138044640D01*
X137967760Y-140007420D02*
X131957760Y-140007420D01*
X135717760Y-133187420D02*
X131957760Y-133187420D01*
X131957760Y-140007420D02*
X131957760Y-138747420D01*
X131957760Y-133187420D02*
X131957760Y-134447420D01*
X140598060Y-74054156D02*
X140598060Y-76858284D01*
X143318060Y-74054156D02*
X143318060Y-76858284D01*
X132238060Y-82262044D02*
X132238060Y-78157916D01*
X128818060Y-82262044D02*
X128818060Y-78157916D01*
X114571780Y-69538720D02*
X114571780Y-70308720D01*
X114571780Y-77618720D02*
X114571780Y-76848720D01*
X113201780Y-70308720D02*
X113201780Y-76848720D01*
X115941780Y-70308720D02*
X113201780Y-70308720D01*
X115941780Y-76848720D02*
X115941780Y-70308720D01*
X113201780Y-76848720D02*
X115941780Y-76848720D01*
X126893040Y-74274960D02*
X117333040Y-74274960D01*
X126893040Y-83834960D02*
X126893040Y-74274960D01*
X117333040Y-83834960D02*
X126893040Y-83834960D01*
X117333040Y-74274960D02*
X117333040Y-83834960D01*
X141802860Y-80069322D02*
X141002860Y-80069322D01*
X141402860Y-79669322D02*
X141402860Y-80469322D01*
X139620860Y-88160020D02*
X138554860Y-88160020D01*
X139855860Y-88120020D02*
X138319860Y-88120020D01*
X140035860Y-88080020D02*
X138139860Y-88080020D01*
X140185860Y-88040020D02*
X137989860Y-88040020D01*
X140316860Y-88000020D02*
X137858860Y-88000020D01*
X140433860Y-87960020D02*
X137741860Y-87960020D01*
X140540860Y-87920020D02*
X137634860Y-87920020D01*
X140639860Y-87880020D02*
X137535860Y-87880020D01*
X140732860Y-87840020D02*
X137442860Y-87840020D01*
X140818860Y-87800020D02*
X137356860Y-87800020D01*
X140900860Y-87760020D02*
X137274860Y-87760020D01*
X140977860Y-87720020D02*
X137197860Y-87720020D01*
X141051860Y-87680020D02*
X137123860Y-87680020D01*
X141121860Y-87640020D02*
X137053860Y-87640020D01*
X141189860Y-87600020D02*
X136985860Y-87600020D01*
X141253860Y-87560020D02*
X136921860Y-87560020D01*
X141315860Y-87520020D02*
X136859860Y-87520020D01*
X141374860Y-87480020D02*
X136800860Y-87480020D01*
X141432860Y-87440020D02*
X136742860Y-87440020D01*
X141487860Y-87400020D02*
X136687860Y-87400020D01*
X141541860Y-87360020D02*
X136633860Y-87360020D01*
X141592860Y-87320020D02*
X136582860Y-87320020D01*
X141643860Y-87280020D02*
X136531860Y-87280020D01*
X141691860Y-87240020D02*
X136483860Y-87240020D01*
X141738860Y-87200020D02*
X136436860Y-87200020D01*
X141784860Y-87160020D02*
X136390860Y-87160020D01*
X141828860Y-87120020D02*
X136346860Y-87120020D01*
X141871860Y-87080020D02*
X136303860Y-87080020D01*
X141913860Y-87040020D02*
X136261860Y-87040020D01*
X141954860Y-87000020D02*
X136220860Y-87000020D01*
X141994860Y-86960020D02*
X136180860Y-86960020D01*
X142032860Y-86920020D02*
X136142860Y-86920020D01*
X142070860Y-86880020D02*
X136104860Y-86880020D01*
X138047860Y-86840020D02*
X136068860Y-86840020D01*
X142106860Y-86840020D02*
X140127860Y-86840020D01*
X138047860Y-86800020D02*
X136032860Y-86800020D01*
X142142860Y-86800020D02*
X140127860Y-86800020D01*
X138047860Y-86760020D02*
X135997860Y-86760020D01*
X142177860Y-86760020D02*
X140127860Y-86760020D01*
X138047860Y-86720020D02*
X135963860Y-86720020D01*
X142211860Y-86720020D02*
X140127860Y-86720020D01*
X138047860Y-86680020D02*
X135931860Y-86680020D01*
X142243860Y-86680020D02*
X140127860Y-86680020D01*
X138047860Y-86640020D02*
X135898860Y-86640020D01*
X142276860Y-86640020D02*
X140127860Y-86640020D01*
X138047860Y-86600020D02*
X135867860Y-86600020D01*
X142307860Y-86600020D02*
X140127860Y-86600020D01*
X138047860Y-86560020D02*
X135837860Y-86560020D01*
X142337860Y-86560020D02*
X140127860Y-86560020D01*
X138047860Y-86520020D02*
X135807860Y-86520020D01*
X142367860Y-86520020D02*
X140127860Y-86520020D01*
X138047860Y-86480020D02*
X135778860Y-86480020D01*
X142396860Y-86480020D02*
X140127860Y-86480020D01*
X138047860Y-86440020D02*
X135749860Y-86440020D01*
X142425860Y-86440020D02*
X140127860Y-86440020D01*
X138047860Y-86400020D02*
X135722860Y-86400020D01*
X142452860Y-86400020D02*
X140127860Y-86400020D01*
X138047860Y-86360020D02*
X135695860Y-86360020D01*
X142479860Y-86360020D02*
X140127860Y-86360020D01*
X138047860Y-86320020D02*
X135669860Y-86320020D01*
X142505860Y-86320020D02*
X140127860Y-86320020D01*
X138047860Y-86280020D02*
X135643860Y-86280020D01*
X142531860Y-86280020D02*
X140127860Y-86280020D01*
X138047860Y-86240020D02*
X135618860Y-86240020D01*
X142556860Y-86240020D02*
X140127860Y-86240020D01*
X138047860Y-86200020D02*
X135594860Y-86200020D01*
X142580860Y-86200020D02*
X140127860Y-86200020D01*
X138047860Y-86160020D02*
X135570860Y-86160020D01*
X142604860Y-86160020D02*
X140127860Y-86160020D01*
X138047860Y-86120020D02*
X135547860Y-86120020D01*
X142627860Y-86120020D02*
X140127860Y-86120020D01*
X138047860Y-86080020D02*
X135525860Y-86080020D01*
X142649860Y-86080020D02*
X140127860Y-86080020D01*
X138047860Y-86040020D02*
X135503860Y-86040020D01*
X142671860Y-86040020D02*
X140127860Y-86040020D01*
X138047860Y-86000020D02*
X135481860Y-86000020D01*
X142693860Y-86000020D02*
X140127860Y-86000020D01*
X138047860Y-85960020D02*
X135460860Y-85960020D01*
X142714860Y-85960020D02*
X140127860Y-85960020D01*
X138047860Y-85920020D02*
X135440860Y-85920020D01*
X142734860Y-85920020D02*
X140127860Y-85920020D01*
X138047860Y-85880020D02*
X135421860Y-85880020D01*
X142753860Y-85880020D02*
X140127860Y-85880020D01*
X138047860Y-85840020D02*
X135401860Y-85840020D01*
X142773860Y-85840020D02*
X140127860Y-85840020D01*
X138047860Y-85800020D02*
X135383860Y-85800020D01*
X142791860Y-85800020D02*
X140127860Y-85800020D01*
X138047860Y-85760020D02*
X135365860Y-85760020D01*
X142809860Y-85760020D02*
X140127860Y-85760020D01*
X138047860Y-85720020D02*
X135347860Y-85720020D01*
X142827860Y-85720020D02*
X140127860Y-85720020D01*
X138047860Y-85680020D02*
X135330860Y-85680020D01*
X142844860Y-85680020D02*
X140127860Y-85680020D01*
X138047860Y-85640020D02*
X135313860Y-85640020D01*
X142861860Y-85640020D02*
X140127860Y-85640020D01*
X138047860Y-85600020D02*
X135297860Y-85600020D01*
X142877860Y-85600020D02*
X140127860Y-85600020D01*
X138047860Y-85560020D02*
X135282860Y-85560020D01*
X142892860Y-85560020D02*
X140127860Y-85560020D01*
X138047860Y-85520020D02*
X135266860Y-85520020D01*
X142908860Y-85520020D02*
X140127860Y-85520020D01*
X138047860Y-85480020D02*
X135252860Y-85480020D01*
X142922860Y-85480020D02*
X140127860Y-85480020D01*
X138047860Y-85440020D02*
X135237860Y-85440020D01*
X142937860Y-85440020D02*
X140127860Y-85440020D01*
X138047860Y-85400020D02*
X135224860Y-85400020D01*
X142950860Y-85400020D02*
X140127860Y-85400020D01*
X138047860Y-85360020D02*
X135210860Y-85360020D01*
X142964860Y-85360020D02*
X140127860Y-85360020D01*
X138047860Y-85320020D02*
X135198860Y-85320020D01*
X142976860Y-85320020D02*
X140127860Y-85320020D01*
X138047860Y-85280020D02*
X135185860Y-85280020D01*
X142989860Y-85280020D02*
X140127860Y-85280020D01*
X138047860Y-85240020D02*
X135173860Y-85240020D01*
X143001860Y-85240020D02*
X140127860Y-85240020D01*
X138047860Y-85200020D02*
X135162860Y-85200020D01*
X143012860Y-85200020D02*
X140127860Y-85200020D01*
X138047860Y-85160020D02*
X135151860Y-85160020D01*
X143023860Y-85160020D02*
X140127860Y-85160020D01*
X138047860Y-85120020D02*
X135140860Y-85120020D01*
X143034860Y-85120020D02*
X140127860Y-85120020D01*
X138047860Y-85080020D02*
X135130860Y-85080020D01*
X143044860Y-85080020D02*
X140127860Y-85080020D01*
X138047860Y-85040020D02*
X135120860Y-85040020D01*
X143054860Y-85040020D02*
X140127860Y-85040020D01*
X138047860Y-85000020D02*
X135111860Y-85000020D01*
X143063860Y-85000020D02*
X140127860Y-85000020D01*
X138047860Y-84960020D02*
X135102860Y-84960020D01*
X143072860Y-84960020D02*
X140127860Y-84960020D01*
X138047860Y-84920020D02*
X135093860Y-84920020D01*
X143081860Y-84920020D02*
X140127860Y-84920020D01*
X138047860Y-84880020D02*
X135085860Y-84880020D01*
X143089860Y-84880020D02*
X140127860Y-84880020D01*
X138047860Y-84840020D02*
X135077860Y-84840020D01*
X143097860Y-84840020D02*
X140127860Y-84840020D01*
X138047860Y-84800020D02*
X135070860Y-84800020D01*
X143104860Y-84800020D02*
X140127860Y-84800020D01*
X143111860Y-84759020D02*
X135063860Y-84759020D01*
X143117860Y-84719020D02*
X135057860Y-84719020D01*
X143124860Y-84679020D02*
X135050860Y-84679020D01*
X143129860Y-84639020D02*
X135045860Y-84639020D01*
X143135860Y-84599020D02*
X135039860Y-84599020D01*
X143139860Y-84559020D02*
X135035860Y-84559020D01*
X143144860Y-84519020D02*
X135030860Y-84519020D01*
X143148860Y-84479020D02*
X135026860Y-84479020D01*
X143152860Y-84439020D02*
X135022860Y-84439020D01*
X143155860Y-84399020D02*
X135019860Y-84399020D01*
X143158860Y-84359020D02*
X135016860Y-84359020D01*
X143161860Y-84319020D02*
X135013860Y-84319020D01*
X143163860Y-84279020D02*
X135011860Y-84279020D01*
X143164860Y-84239020D02*
X135010860Y-84239020D01*
X143166860Y-84199020D02*
X135008860Y-84199020D01*
X143167860Y-84159020D02*
X135007860Y-84159020D01*
X143167860Y-84119020D02*
X135007860Y-84119020D01*
X143167860Y-84079020D02*
X135007860Y-84079020D01*
X143207860Y-84079020D02*
G75*
G03X143207860Y-84079020I-4120000J0D01*
G01*
D11*
X168564346Y-146432020D02*
X168564346Y-147146306D01*
X168516727Y-147289163D01*
X168421489Y-147384401D01*
X168278632Y-147432020D01*
X168183394Y-147432020D01*
X169040537Y-147432020D02*
X169040537Y-146432020D01*
X169421489Y-146432020D01*
X169516727Y-146479640D01*
X169564346Y-146527259D01*
X169611965Y-146622497D01*
X169611965Y-146765354D01*
X169564346Y-146860592D01*
X169516727Y-146908211D01*
X169421489Y-146955830D01*
X169040537Y-146955830D01*
X169992918Y-146527259D02*
X170040537Y-146479640D01*
X170135775Y-146432020D01*
X170373870Y-146432020D01*
X170469108Y-146479640D01*
X170516727Y-146527259D01*
X170564346Y-146622497D01*
X170564346Y-146717735D01*
X170516727Y-146860592D01*
X169945299Y-147432020D01*
X170564346Y-147432020D01*
X141233946Y-141672060D02*
X141233946Y-142386346D01*
X141186327Y-142529203D01*
X141091089Y-142624441D01*
X140948232Y-142672060D01*
X140852994Y-142672060D01*
X141710137Y-142672060D02*
X141710137Y-141672060D01*
X142091089Y-141672060D01*
X142186327Y-141719680D01*
X142233946Y-141767299D01*
X142281565Y-141862537D01*
X142281565Y-142005394D01*
X142233946Y-142100632D01*
X142186327Y-142148251D01*
X142091089Y-142195870D01*
X141710137Y-142195870D01*
X143233946Y-142672060D02*
X142662518Y-142672060D01*
X142948232Y-142672060D02*
X142948232Y-141672060D01*
X142852994Y-141814918D01*
X142757756Y-141910156D01*
X142662518Y-141957775D01*
X176417221Y-147560302D02*
X176369602Y-147607921D01*
X176226745Y-147655540D01*
X176131507Y-147655540D01*
X175988650Y-147607921D01*
X175893412Y-147512683D01*
X175845793Y-147417445D01*
X175798174Y-147226969D01*
X175798174Y-147084112D01*
X175845793Y-146893636D01*
X175893412Y-146798398D01*
X175988650Y-146703160D01*
X176131507Y-146655540D01*
X176226745Y-146655540D01*
X176369602Y-146703160D01*
X176417221Y-146750779D01*
X177179126Y-147131731D02*
X176845793Y-147131731D01*
X176845793Y-147655540D02*
X176845793Y-146655540D01*
X177321983Y-146655540D01*
X178036269Y-147131731D02*
X178179126Y-147179350D01*
X178226745Y-147226969D01*
X178274364Y-147322207D01*
X178274364Y-147465064D01*
X178226745Y-147560302D01*
X178179126Y-147607921D01*
X178083888Y-147655540D01*
X177702936Y-147655540D01*
X177702936Y-146655540D01*
X178036269Y-146655540D01*
X178131507Y-146703160D01*
X178179126Y-146750779D01*
X178226745Y-146846017D01*
X178226745Y-146941255D01*
X178179126Y-147036493D01*
X178131507Y-147084112D01*
X178036269Y-147131731D01*
X177702936Y-147131731D01*
X178655317Y-146750779D02*
X178702936Y-146703160D01*
X178798174Y-146655540D01*
X179036269Y-146655540D01*
X179131507Y-146703160D01*
X179179126Y-146750779D01*
X179226745Y-146846017D01*
X179226745Y-146941255D01*
X179179126Y-147084112D01*
X178607698Y-147655540D01*
X179226745Y-147655540D01*
X156452822Y-141762878D02*
X156500441Y-141810497D01*
X156548060Y-141953354D01*
X156548060Y-142048592D01*
X156500441Y-142191449D01*
X156405203Y-142286687D01*
X156309965Y-142334306D01*
X156119489Y-142381925D01*
X155976632Y-142381925D01*
X155786156Y-142334306D01*
X155690918Y-142286687D01*
X155595680Y-142191449D01*
X155548060Y-142048592D01*
X155548060Y-141953354D01*
X155595680Y-141810497D01*
X155643299Y-141762878D01*
X156024251Y-141000973D02*
X156024251Y-141334306D01*
X156548060Y-141334306D02*
X155548060Y-141334306D01*
X155548060Y-140858116D01*
X156024251Y-140143830D02*
X156071870Y-140000973D01*
X156119489Y-139953354D01*
X156214727Y-139905735D01*
X156357584Y-139905735D01*
X156452822Y-139953354D01*
X156500441Y-140000973D01*
X156548060Y-140096211D01*
X156548060Y-140477163D01*
X155548060Y-140477163D01*
X155548060Y-140143830D01*
X155595680Y-140048592D01*
X155643299Y-140000973D01*
X155738537Y-139953354D01*
X155833775Y-139953354D01*
X155929013Y-140000973D01*
X155976632Y-140048592D01*
X156024251Y-140143830D01*
X156024251Y-140477163D01*
X156548060Y-138953354D02*
X156548060Y-139524782D01*
X156548060Y-139239068D02*
X155548060Y-139239068D01*
X155690918Y-139334306D01*
X155786156Y-139429544D01*
X155833775Y-139524782D01*
X146173461Y-63621439D02*
X146078223Y-63573820D01*
X145982985Y-63478581D01*
X145840128Y-63335724D01*
X145744890Y-63288105D01*
X145649652Y-63288105D01*
X145697271Y-63526200D02*
X145602033Y-63478581D01*
X145506795Y-63383343D01*
X145459176Y-63192867D01*
X145459176Y-62859534D01*
X145506795Y-62669058D01*
X145602033Y-62573820D01*
X145697271Y-62526200D01*
X145887747Y-62526200D01*
X145982985Y-62573820D01*
X146078223Y-62669058D01*
X146125842Y-62859534D01*
X146125842Y-63192867D01*
X146078223Y-63383343D01*
X145982985Y-63478581D01*
X145887747Y-63526200D01*
X145697271Y-63526200D01*
X147078223Y-63526200D02*
X146506795Y-63526200D01*
X146792509Y-63526200D02*
X146792509Y-62526200D01*
X146697271Y-62669058D01*
X146602033Y-62764296D01*
X146506795Y-62811915D01*
X148036375Y-141044680D02*
X148036375Y-141854204D01*
X148083994Y-141949442D01*
X148131613Y-141997061D01*
X148226851Y-142044680D01*
X148417327Y-142044680D01*
X148512565Y-141997061D01*
X148560184Y-141949442D01*
X148607803Y-141854204D01*
X148607803Y-141044680D01*
X149036375Y-141139919D02*
X149083994Y-141092300D01*
X149179232Y-141044680D01*
X149417327Y-141044680D01*
X149512565Y-141092300D01*
X149560184Y-141139919D01*
X149607803Y-141235157D01*
X149607803Y-141330395D01*
X149560184Y-141473252D01*
X148988756Y-142044680D01*
X149607803Y-142044680D01*
X106745565Y-142324080D02*
X106745565Y-141324080D01*
X107078899Y-142038366D01*
X107412232Y-141324080D01*
X107412232Y-142324080D01*
X108412232Y-142324080D02*
X107840803Y-142324080D01*
X108126518Y-142324080D02*
X108126518Y-141324080D01*
X108031280Y-141466938D01*
X107936041Y-141562176D01*
X107840803Y-141609795D01*
X109031280Y-141324080D02*
X109126518Y-141324080D01*
X109221756Y-141371700D01*
X109269375Y-141419319D01*
X109316994Y-141514557D01*
X109364613Y-141705033D01*
X109364613Y-141943128D01*
X109316994Y-142133604D01*
X109269375Y-142228842D01*
X109221756Y-142276461D01*
X109126518Y-142324080D01*
X109031280Y-142324080D01*
X108936041Y-142276461D01*
X108888422Y-142228842D01*
X108840803Y-142133604D01*
X108793184Y-141943128D01*
X108793184Y-141705033D01*
X108840803Y-141514557D01*
X108888422Y-141419319D01*
X108936041Y-141371700D01*
X109031280Y-141324080D01*
X107173496Y-129771400D02*
X107173496Y-128771400D01*
X107506829Y-129485686D01*
X107840162Y-128771400D01*
X107840162Y-129771400D01*
X108363972Y-129771400D02*
X108554448Y-129771400D01*
X108649686Y-129723781D01*
X108697305Y-129676162D01*
X108792543Y-129533305D01*
X108840162Y-129342829D01*
X108840162Y-128961877D01*
X108792543Y-128866639D01*
X108744924Y-128819020D01*
X108649686Y-128771400D01*
X108459210Y-128771400D01*
X108363972Y-128819020D01*
X108316353Y-128866639D01*
X108268734Y-128961877D01*
X108268734Y-129199972D01*
X108316353Y-129295210D01*
X108363972Y-129342829D01*
X108459210Y-129390448D01*
X108649686Y-129390448D01*
X108744924Y-129342829D01*
X108792543Y-129295210D01*
X108840162Y-129199972D01*
X190707805Y-129817120D02*
X190707805Y-128817120D01*
X191041139Y-129531406D01*
X191374472Y-128817120D01*
X191374472Y-129817120D01*
X192374472Y-129817120D02*
X191803043Y-129817120D01*
X192088758Y-129817120D02*
X192088758Y-128817120D01*
X191993520Y-128959978D01*
X191898281Y-129055216D01*
X191803043Y-129102835D01*
X193326853Y-129817120D02*
X192755424Y-129817120D01*
X193041139Y-129817120D02*
X193041139Y-128817120D01*
X192945900Y-128959978D01*
X192850662Y-129055216D01*
X192755424Y-129102835D01*
X190725585Y-141930380D02*
X190725585Y-140930380D01*
X191058919Y-141644666D01*
X191392252Y-140930380D01*
X191392252Y-141930380D01*
X192392252Y-141930380D02*
X191820823Y-141930380D01*
X192106538Y-141930380D02*
X192106538Y-140930380D01*
X192011300Y-141073238D01*
X191916061Y-141168476D01*
X191820823Y-141216095D01*
X192773204Y-141025619D02*
X192820823Y-140978000D01*
X192916061Y-140930380D01*
X193154157Y-140930380D01*
X193249395Y-140978000D01*
X193297014Y-141025619D01*
X193344633Y-141120857D01*
X193344633Y-141216095D01*
X193297014Y-141358952D01*
X192725585Y-141930380D01*
X193344633Y-141930380D01*
X191194156Y-81955900D02*
X191194156Y-80955900D01*
X191527489Y-81670186D01*
X191860822Y-80955900D01*
X191860822Y-81955900D01*
X192765584Y-81289234D02*
X192765584Y-81955900D01*
X192527489Y-80908281D02*
X192289394Y-81622567D01*
X192908441Y-81622567D01*
X107176036Y-69710560D02*
X107176036Y-68710560D01*
X107509369Y-69424846D01*
X107842702Y-68710560D01*
X107842702Y-69710560D01*
X108842702Y-69710560D02*
X108271274Y-69710560D01*
X108556988Y-69710560D02*
X108556988Y-68710560D01*
X108461750Y-68853418D01*
X108366512Y-68948656D01*
X108271274Y-68996275D01*
X191166216Y-70043300D02*
X191166216Y-69043300D01*
X191499549Y-69757586D01*
X191832882Y-69043300D01*
X191832882Y-70043300D01*
X192213835Y-69043300D02*
X192832882Y-69043300D01*
X192499549Y-69424253D01*
X192642406Y-69424253D01*
X192737644Y-69471872D01*
X192785263Y-69519491D01*
X192832882Y-69614729D01*
X192832882Y-69852824D01*
X192785263Y-69948062D01*
X192737644Y-69995681D01*
X192642406Y-70043300D01*
X192356692Y-70043300D01*
X192261454Y-69995681D01*
X192213835Y-69948062D01*
X107196356Y-81643480D02*
X107196356Y-80643480D01*
X107529689Y-81357766D01*
X107863022Y-80643480D01*
X107863022Y-81643480D01*
X108291594Y-80738719D02*
X108339213Y-80691100D01*
X108434451Y-80643480D01*
X108672546Y-80643480D01*
X108767784Y-80691100D01*
X108815403Y-80738719D01*
X108863022Y-80833957D01*
X108863022Y-80929195D01*
X108815403Y-81072052D01*
X108243975Y-81643480D01*
X108863022Y-81643480D01*
X147109180Y-76705575D02*
X146109180Y-76705575D01*
X146109180Y-76467480D01*
X146156800Y-76324622D01*
X146252038Y-76229384D01*
X146347276Y-76181765D01*
X146537752Y-76134146D01*
X146680609Y-76134146D01*
X146871085Y-76181765D01*
X146966323Y-76229384D01*
X147061561Y-76324622D01*
X147109180Y-76467480D01*
X147109180Y-76705575D01*
X146109180Y-75277003D02*
X146109180Y-75467480D01*
X146156800Y-75562718D01*
X146204419Y-75610337D01*
X146347276Y-75705575D01*
X146537752Y-75753194D01*
X146918704Y-75753194D01*
X147013942Y-75705575D01*
X147061561Y-75657956D01*
X147109180Y-75562718D01*
X147109180Y-75372241D01*
X147061561Y-75277003D01*
X147013942Y-75229384D01*
X146918704Y-75181765D01*
X146680609Y-75181765D01*
X146585371Y-75229384D01*
X146537752Y-75277003D01*
X146490133Y-75372241D01*
X146490133Y-75562718D01*
X146537752Y-75657956D01*
X146585371Y-75705575D01*
X146680609Y-75753194D01*
X191183996Y-111724700D02*
X191183996Y-110724700D01*
X191517329Y-111438986D01*
X191850662Y-110724700D01*
X191850662Y-111724700D01*
X192469710Y-111153272D02*
X192374472Y-111105653D01*
X192326853Y-111058034D01*
X192279234Y-110962796D01*
X192279234Y-110915177D01*
X192326853Y-110819939D01*
X192374472Y-110772320D01*
X192469710Y-110724700D01*
X192660186Y-110724700D01*
X192755424Y-110772320D01*
X192803043Y-110819939D01*
X192850662Y-110915177D01*
X192850662Y-110962796D01*
X192803043Y-111058034D01*
X192755424Y-111105653D01*
X192660186Y-111153272D01*
X192469710Y-111153272D01*
X192374472Y-111200891D01*
X192326853Y-111248510D01*
X192279234Y-111343748D01*
X192279234Y-111534224D01*
X192326853Y-111629462D01*
X192374472Y-111677081D01*
X192469710Y-111724700D01*
X192660186Y-111724700D01*
X192755424Y-111677081D01*
X192803043Y-111629462D01*
X192850662Y-111534224D01*
X192850662Y-111343748D01*
X192803043Y-111248510D01*
X192755424Y-111200891D01*
X192660186Y-111153272D01*
X191181456Y-99644460D02*
X191181456Y-98644460D01*
X191514789Y-99358746D01*
X191848122Y-98644460D01*
X191848122Y-99644460D01*
X192229075Y-98644460D02*
X192895741Y-98644460D01*
X192467170Y-99644460D01*
X107203976Y-111892340D02*
X107203976Y-110892340D01*
X107537309Y-111606626D01*
X107870642Y-110892340D01*
X107870642Y-111892340D01*
X108775404Y-110892340D02*
X108584928Y-110892340D01*
X108489690Y-110939960D01*
X108442071Y-110987579D01*
X108346833Y-111130436D01*
X108299214Y-111320912D01*
X108299214Y-111701864D01*
X108346833Y-111797102D01*
X108394452Y-111844721D01*
X108489690Y-111892340D01*
X108680166Y-111892340D01*
X108775404Y-111844721D01*
X108823023Y-111797102D01*
X108870642Y-111701864D01*
X108870642Y-111463769D01*
X108823023Y-111368531D01*
X108775404Y-111320912D01*
X108680166Y-111273293D01*
X108489690Y-111273293D01*
X108394452Y-111320912D01*
X108346833Y-111368531D01*
X108299214Y-111463769D01*
X107196356Y-99824040D02*
X107196356Y-98824040D01*
X107529689Y-99538326D01*
X107863022Y-98824040D01*
X107863022Y-99824040D01*
X108815403Y-98824040D02*
X108339213Y-98824040D01*
X108291594Y-99300231D01*
X108339213Y-99252612D01*
X108434451Y-99204993D01*
X108672546Y-99204993D01*
X108767784Y-99252612D01*
X108815403Y-99300231D01*
X108863022Y-99395469D01*
X108863022Y-99633564D01*
X108815403Y-99728802D01*
X108767784Y-99776421D01*
X108672546Y-99824040D01*
X108434451Y-99824040D01*
X108339213Y-99776421D01*
X108291594Y-99728802D01*
X148122144Y-118965840D02*
X148122144Y-117965840D01*
X148360240Y-117965840D01*
X148503097Y-118013460D01*
X148598335Y-118108698D01*
X148645954Y-118203936D01*
X148693573Y-118394412D01*
X148693573Y-118537269D01*
X148645954Y-118727745D01*
X148598335Y-118822983D01*
X148503097Y-118918221D01*
X148360240Y-118965840D01*
X148122144Y-118965840D01*
X149074525Y-118061079D02*
X149122144Y-118013460D01*
X149217382Y-117965840D01*
X149455478Y-117965840D01*
X149550716Y-118013460D01*
X149598335Y-118061079D01*
X149645954Y-118156317D01*
X149645954Y-118251555D01*
X149598335Y-118394412D01*
X149026906Y-118965840D01*
X149645954Y-118965840D01*
X156382144Y-118965840D02*
X156382144Y-117965840D01*
X156620240Y-117965840D01*
X156763097Y-118013460D01*
X156858335Y-118108698D01*
X156905954Y-118203936D01*
X156953573Y-118394412D01*
X156953573Y-118537269D01*
X156905954Y-118727745D01*
X156858335Y-118822983D01*
X156763097Y-118918221D01*
X156620240Y-118965840D01*
X156382144Y-118965840D01*
X157905954Y-118965840D02*
X157334525Y-118965840D01*
X157620240Y-118965840D02*
X157620240Y-117965840D01*
X157525001Y-118108698D01*
X157429763Y-118203936D01*
X157334525Y-118251555D01*
X160782973Y-63411360D02*
X160306782Y-63411360D01*
X160306782Y-62411360D01*
X161640116Y-63411360D02*
X161068687Y-63411360D01*
X161354401Y-63411360D02*
X161354401Y-62411360D01*
X161259163Y-62554218D01*
X161163925Y-62649456D01*
X161068687Y-62697075D01*
X176521193Y-145623540D02*
X176187860Y-145147350D01*
X175949764Y-145623540D02*
X175949764Y-144623540D01*
X176330717Y-144623540D01*
X176425955Y-144671160D01*
X176473574Y-144718779D01*
X176521193Y-144814017D01*
X176521193Y-144956874D01*
X176473574Y-145052112D01*
X176425955Y-145099731D01*
X176330717Y-145147350D01*
X175949764Y-145147350D01*
X177473574Y-144671160D02*
X177378336Y-144623540D01*
X177235479Y-144623540D01*
X177092621Y-144671160D01*
X176997383Y-144766398D01*
X176949764Y-144861636D01*
X176902145Y-145052112D01*
X176902145Y-145194969D01*
X176949764Y-145385445D01*
X176997383Y-145480683D01*
X177092621Y-145575921D01*
X177235479Y-145623540D01*
X177330717Y-145623540D01*
X177473574Y-145575921D01*
X177521193Y-145528302D01*
X177521193Y-145194969D01*
X177330717Y-145194969D01*
X177902145Y-144718779D02*
X177949764Y-144671160D01*
X178045002Y-144623540D01*
X178283098Y-144623540D01*
X178378336Y-144671160D01*
X178425955Y-144718779D01*
X178473574Y-144814017D01*
X178473574Y-144909255D01*
X178425955Y-145052112D01*
X177854526Y-145623540D01*
X178473574Y-145623540D01*
X151649513Y-138651480D02*
X151316180Y-138175290D01*
X151078084Y-138651480D02*
X151078084Y-137651480D01*
X151459037Y-137651480D01*
X151554275Y-137699100D01*
X151601894Y-137746719D01*
X151649513Y-137841957D01*
X151649513Y-137984814D01*
X151601894Y-138080052D01*
X151554275Y-138127671D01*
X151459037Y-138175290D01*
X151078084Y-138175290D01*
X152601894Y-137699100D02*
X152506656Y-137651480D01*
X152363799Y-137651480D01*
X152220941Y-137699100D01*
X152125703Y-137794338D01*
X152078084Y-137889576D01*
X152030465Y-138080052D01*
X152030465Y-138222909D01*
X152078084Y-138413385D01*
X152125703Y-138508623D01*
X152220941Y-138603861D01*
X152363799Y-138651480D01*
X152459037Y-138651480D01*
X152601894Y-138603861D01*
X152649513Y-138556242D01*
X152649513Y-138222909D01*
X152459037Y-138222909D01*
X153601894Y-138651480D02*
X153030465Y-138651480D01*
X153316180Y-138651480D02*
X153316180Y-137651480D01*
X153220941Y-137794338D01*
X153125703Y-137889576D01*
X153030465Y-137937195D01*
X175382893Y-134716780D02*
X175049560Y-134240590D01*
X174811464Y-134716780D02*
X174811464Y-133716780D01*
X175192417Y-133716780D01*
X175287655Y-133764400D01*
X175335274Y-133812019D01*
X175382893Y-133907257D01*
X175382893Y-134050114D01*
X175335274Y-134145352D01*
X175287655Y-134192971D01*
X175192417Y-134240590D01*
X174811464Y-134240590D01*
X175716226Y-133716780D02*
X176382893Y-133716780D01*
X175954321Y-134716780D01*
X151593493Y-134839700D02*
X151260160Y-134363510D01*
X151022064Y-134839700D02*
X151022064Y-133839700D01*
X151403017Y-133839700D01*
X151498255Y-133887320D01*
X151545874Y-133934939D01*
X151593493Y-134030177D01*
X151593493Y-134173034D01*
X151545874Y-134268272D01*
X151498255Y-134315891D01*
X151403017Y-134363510D01*
X151022064Y-134363510D01*
X152450636Y-133839700D02*
X152260160Y-133839700D01*
X152164921Y-133887320D01*
X152117302Y-133934939D01*
X152022064Y-134077796D01*
X151974445Y-134268272D01*
X151974445Y-134649224D01*
X152022064Y-134744462D01*
X152069683Y-134792081D01*
X152164921Y-134839700D01*
X152355398Y-134839700D01*
X152450636Y-134792081D01*
X152498255Y-134744462D01*
X152545874Y-134649224D01*
X152545874Y-134411129D01*
X152498255Y-134315891D01*
X152450636Y-134268272D01*
X152355398Y-134220653D01*
X152164921Y-134220653D01*
X152069683Y-134268272D01*
X152022064Y-134315891D01*
X151974445Y-134411129D01*
X159874982Y-142226302D02*
X159827363Y-142273921D01*
X159684506Y-142321540D01*
X159589268Y-142321540D01*
X159446411Y-142273921D01*
X159351173Y-142178683D01*
X159303554Y-142083445D01*
X159255935Y-141892969D01*
X159255935Y-141750112D01*
X159303554Y-141559636D01*
X159351173Y-141464398D01*
X159446411Y-141369160D01*
X159589268Y-141321540D01*
X159684506Y-141321540D01*
X159827363Y-141369160D01*
X159874982Y-141416779D01*
X160827363Y-142321540D02*
X160255935Y-142321540D01*
X160541649Y-142321540D02*
X160541649Y-141321540D01*
X160446411Y-141464398D01*
X160351173Y-141559636D01*
X160255935Y-141607255D01*
X161208316Y-141416779D02*
X161255935Y-141369160D01*
X161351173Y-141321540D01*
X161589268Y-141321540D01*
X161684506Y-141369160D01*
X161732125Y-141416779D01*
X161779744Y-141512017D01*
X161779744Y-141607255D01*
X161732125Y-141750112D01*
X161160697Y-142321540D01*
X161779744Y-142321540D01*
X133102053Y-141929122D02*
X133054434Y-141976741D01*
X132911577Y-142024360D01*
X132816339Y-142024360D01*
X132673481Y-141976741D01*
X132578243Y-141881503D01*
X132530624Y-141786265D01*
X132483005Y-141595789D01*
X132483005Y-141452932D01*
X132530624Y-141262456D01*
X132578243Y-141167218D01*
X132673481Y-141071980D01*
X132816339Y-141024360D01*
X132911577Y-141024360D01*
X133054434Y-141071980D01*
X133102053Y-141119599D01*
X133578243Y-142024360D02*
X133768720Y-142024360D01*
X133863958Y-141976741D01*
X133911577Y-141929122D01*
X134006815Y-141786265D01*
X134054434Y-141595789D01*
X134054434Y-141214837D01*
X134006815Y-141119599D01*
X133959196Y-141071980D01*
X133863958Y-141024360D01*
X133673481Y-141024360D01*
X133578243Y-141071980D01*
X133530624Y-141119599D01*
X133483005Y-141214837D01*
X133483005Y-141452932D01*
X133530624Y-141548170D01*
X133578243Y-141595789D01*
X133673481Y-141643408D01*
X133863958Y-141643408D01*
X133959196Y-141595789D01*
X134006815Y-141548170D01*
X134054434Y-141452932D01*
X160057862Y-144629142D02*
X160010243Y-144676761D01*
X159867386Y-144724380D01*
X159772148Y-144724380D01*
X159629291Y-144676761D01*
X159534053Y-144581523D01*
X159486434Y-144486285D01*
X159438815Y-144295809D01*
X159438815Y-144152952D01*
X159486434Y-143962476D01*
X159534053Y-143867238D01*
X159629291Y-143772000D01*
X159772148Y-143724380D01*
X159867386Y-143724380D01*
X160010243Y-143772000D01*
X160057862Y-143819619D01*
X161010243Y-144724380D02*
X160438815Y-144724380D01*
X160724529Y-144724380D02*
X160724529Y-143724380D01*
X160629291Y-143867238D01*
X160534053Y-143962476D01*
X160438815Y-144010095D01*
X161962624Y-144724380D02*
X161391196Y-144724380D01*
X161676910Y-144724380D02*
X161676910Y-143724380D01*
X161581672Y-143867238D01*
X161486434Y-143962476D01*
X161391196Y-144010095D01*
X166923482Y-133864622D02*
X166875863Y-133912241D01*
X166733006Y-133959860D01*
X166637768Y-133959860D01*
X166494911Y-133912241D01*
X166399673Y-133817003D01*
X166352054Y-133721765D01*
X166304435Y-133531289D01*
X166304435Y-133388432D01*
X166352054Y-133197956D01*
X166399673Y-133102718D01*
X166494911Y-133007480D01*
X166637768Y-132959860D01*
X166733006Y-132959860D01*
X166875863Y-133007480D01*
X166923482Y-133055099D01*
X167875863Y-133959860D02*
X167304435Y-133959860D01*
X167590149Y-133959860D02*
X167590149Y-132959860D01*
X167494911Y-133102718D01*
X167399673Y-133197956D01*
X167304435Y-133245575D01*
X168494911Y-132959860D02*
X168590149Y-132959860D01*
X168685387Y-133007480D01*
X168733006Y-133055099D01*
X168780625Y-133150337D01*
X168828244Y-133340813D01*
X168828244Y-133578908D01*
X168780625Y-133769384D01*
X168733006Y-133864622D01*
X168685387Y-133912241D01*
X168590149Y-133959860D01*
X168494911Y-133959860D01*
X168399673Y-133912241D01*
X168352054Y-133864622D01*
X168304435Y-133769384D01*
X168256816Y-133578908D01*
X168256816Y-133340813D01*
X168304435Y-133150337D01*
X168352054Y-133055099D01*
X168399673Y-133007480D01*
X168494911Y-132959860D01*
X133155393Y-144146542D02*
X133107774Y-144194161D01*
X132964917Y-144241780D01*
X132869679Y-144241780D01*
X132726821Y-144194161D01*
X132631583Y-144098923D01*
X132583964Y-144003685D01*
X132536345Y-143813209D01*
X132536345Y-143670352D01*
X132583964Y-143479876D01*
X132631583Y-143384638D01*
X132726821Y-143289400D01*
X132869679Y-143241780D01*
X132964917Y-143241780D01*
X133107774Y-143289400D01*
X133155393Y-143337019D01*
X133726821Y-143670352D02*
X133631583Y-143622733D01*
X133583964Y-143575114D01*
X133536345Y-143479876D01*
X133536345Y-143432257D01*
X133583964Y-143337019D01*
X133631583Y-143289400D01*
X133726821Y-143241780D01*
X133917298Y-143241780D01*
X134012536Y-143289400D01*
X134060155Y-143337019D01*
X134107774Y-143432257D01*
X134107774Y-143479876D01*
X134060155Y-143575114D01*
X134012536Y-143622733D01*
X133917298Y-143670352D01*
X133726821Y-143670352D01*
X133631583Y-143717971D01*
X133583964Y-143765590D01*
X133536345Y-143860828D01*
X133536345Y-144051304D01*
X133583964Y-144146542D01*
X133631583Y-144194161D01*
X133726821Y-144241780D01*
X133917298Y-144241780D01*
X134012536Y-144194161D01*
X134060155Y-144146542D01*
X134107774Y-144051304D01*
X134107774Y-143860828D01*
X134060155Y-143765590D01*
X134012536Y-143717971D01*
X133917298Y-143670352D01*
X140595053Y-138385822D02*
X140547434Y-138433441D01*
X140404577Y-138481060D01*
X140309339Y-138481060D01*
X140166481Y-138433441D01*
X140071243Y-138338203D01*
X140023624Y-138242965D01*
X139976005Y-138052489D01*
X139976005Y-137909632D01*
X140023624Y-137719156D01*
X140071243Y-137623918D01*
X140166481Y-137528680D01*
X140309339Y-137481060D01*
X140404577Y-137481060D01*
X140547434Y-137528680D01*
X140595053Y-137576299D01*
X140928386Y-137481060D02*
X141595053Y-137481060D01*
X141166481Y-138481060D01*
X120645893Y-72861062D02*
X120598274Y-72908681D01*
X120455417Y-72956300D01*
X120360179Y-72956300D01*
X120217321Y-72908681D01*
X120122083Y-72813443D01*
X120074464Y-72718205D01*
X120026845Y-72527729D01*
X120026845Y-72384872D01*
X120074464Y-72194396D01*
X120122083Y-72099158D01*
X120217321Y-72003920D01*
X120360179Y-71956300D01*
X120455417Y-71956300D01*
X120598274Y-72003920D01*
X120645893Y-72051539D01*
X121503036Y-71956300D02*
X121312560Y-71956300D01*
X121217321Y-72003920D01*
X121169702Y-72051539D01*
X121074464Y-72194396D01*
X121026845Y-72384872D01*
X121026845Y-72765824D01*
X121074464Y-72861062D01*
X121122083Y-72908681D01*
X121217321Y-72956300D01*
X121407798Y-72956300D01*
X121503036Y-72908681D01*
X121550655Y-72861062D01*
X121598274Y-72765824D01*
X121598274Y-72527729D01*
X121550655Y-72432491D01*
X121503036Y-72384872D01*
X121407798Y-72337253D01*
X121217321Y-72337253D01*
X121122083Y-72384872D01*
X121074464Y-72432491D01*
X121026845Y-72527729D01*
X128629113Y-72990982D02*
X128581494Y-73038601D01*
X128438637Y-73086220D01*
X128343399Y-73086220D01*
X128200541Y-73038601D01*
X128105303Y-72943363D01*
X128057684Y-72848125D01*
X128010065Y-72657649D01*
X128010065Y-72514792D01*
X128057684Y-72324316D01*
X128105303Y-72229078D01*
X128200541Y-72133840D01*
X128343399Y-72086220D01*
X128438637Y-72086220D01*
X128581494Y-72133840D01*
X128629113Y-72181459D01*
X129533875Y-72086220D02*
X129057684Y-72086220D01*
X129010065Y-72562411D01*
X129057684Y-72514792D01*
X129152922Y-72467173D01*
X129391018Y-72467173D01*
X129486256Y-72514792D01*
X129533875Y-72562411D01*
X129581494Y-72657649D01*
X129581494Y-72895744D01*
X129533875Y-72990982D01*
X129486256Y-73038601D01*
X129391018Y-73086220D01*
X129152922Y-73086220D01*
X129057684Y-73038601D01*
X129010065Y-72990982D01*
X125093433Y-72917322D02*
X125045814Y-72964941D01*
X124902957Y-73012560D01*
X124807719Y-73012560D01*
X124664861Y-72964941D01*
X124569623Y-72869703D01*
X124522004Y-72774465D01*
X124474385Y-72583989D01*
X124474385Y-72441132D01*
X124522004Y-72250656D01*
X124569623Y-72155418D01*
X124664861Y-72060180D01*
X124807719Y-72012560D01*
X124902957Y-72012560D01*
X125045814Y-72060180D01*
X125093433Y-72107799D01*
X125950576Y-72345894D02*
X125950576Y-73012560D01*
X125712480Y-71964941D02*
X125474385Y-72679227D01*
X126093433Y-72679227D01*
X150621002Y-84408306D02*
X150668621Y-84455925D01*
X150716240Y-84598782D01*
X150716240Y-84694020D01*
X150668621Y-84836878D01*
X150573383Y-84932116D01*
X150478145Y-84979735D01*
X150287669Y-85027354D01*
X150144812Y-85027354D01*
X149954336Y-84979735D01*
X149859098Y-84932116D01*
X149763860Y-84836878D01*
X149716240Y-84694020D01*
X149716240Y-84598782D01*
X149763860Y-84455925D01*
X149811479Y-84408306D01*
X149716240Y-84074973D02*
X149716240Y-83455925D01*
X150097193Y-83789259D01*
X150097193Y-83646401D01*
X150144812Y-83551163D01*
X150192431Y-83503544D01*
X150287669Y-83455925D01*
X150525764Y-83455925D01*
X150621002Y-83503544D01*
X150668621Y-83551163D01*
X150716240Y-83646401D01*
X150716240Y-83932116D01*
X150668621Y-84027354D01*
X150621002Y-84074973D01*
X136243553Y-78794882D02*
X136195934Y-78842501D01*
X136053077Y-78890120D01*
X135957839Y-78890120D01*
X135814981Y-78842501D01*
X135719743Y-78747263D01*
X135672124Y-78652025D01*
X135624505Y-78461549D01*
X135624505Y-78318692D01*
X135672124Y-78128216D01*
X135719743Y-78032978D01*
X135814981Y-77937740D01*
X135957839Y-77890120D01*
X136053077Y-77890120D01*
X136195934Y-77937740D01*
X136243553Y-77985359D01*
X137195934Y-78890120D02*
X136624505Y-78890120D01*
X136910220Y-78890120D02*
X136910220Y-77890120D01*
X136814981Y-78032978D01*
X136719743Y-78128216D01*
X136624505Y-78175835D01*
X128426886Y-130330960D02*
X128426886Y-131045246D01*
X128379267Y-131188103D01*
X128284029Y-131283341D01*
X128141172Y-131330960D01*
X128045934Y-131330960D01*
X128807839Y-130330960D02*
X129426886Y-130330960D01*
X129093553Y-130711913D01*
X129236410Y-130711913D01*
X129331648Y-130759532D01*
X129379267Y-130807151D01*
X129426886Y-130902389D01*
X129426886Y-131140484D01*
X129379267Y-131235722D01*
X129331648Y-131283341D01*
X129236410Y-131330960D01*
X128950696Y-131330960D01*
X128855458Y-131283341D01*
X128807839Y-131235722D01*
X137091515Y-67633600D02*
X137091515Y-68443124D01*
X137139134Y-68538362D01*
X137186753Y-68585981D01*
X137281991Y-68633600D01*
X137472467Y-68633600D01*
X137567705Y-68585981D01*
X137615324Y-68538362D01*
X137662943Y-68443124D01*
X137662943Y-67633600D01*
X138662943Y-68633600D02*
X138091515Y-68633600D01*
X138377229Y-68633600D02*
X138377229Y-67633600D01*
X138281991Y-67776458D01*
X138186753Y-67871696D01*
X138091515Y-67919315D01*
X151966400Y-115723895D02*
X150966400Y-115723895D01*
X150966400Y-115485800D01*
X151014020Y-115342942D01*
X151109258Y-115247704D01*
X151204496Y-115200085D01*
X151394972Y-115152466D01*
X151537829Y-115152466D01*
X151728305Y-115200085D01*
X151823543Y-115247704D01*
X151918781Y-115342942D01*
X151966400Y-115485800D01*
X151966400Y-115723895D01*
X151299734Y-114295323D02*
X151966400Y-114295323D01*
X150918781Y-114533419D02*
X151633067Y-114771514D01*
X151633067Y-114152466D01*
X160889420Y-115603475D02*
X159889420Y-115603475D01*
X159889420Y-115365380D01*
X159937040Y-115222522D01*
X160032278Y-115127284D01*
X160127516Y-115079665D01*
X160317992Y-115032046D01*
X160460849Y-115032046D01*
X160651325Y-115079665D01*
X160746563Y-115127284D01*
X160841801Y-115222522D01*
X160889420Y-115365380D01*
X160889420Y-115603475D01*
X159889420Y-114698713D02*
X159889420Y-114079665D01*
X160270373Y-114412999D01*
X160270373Y-114270141D01*
X160317992Y-114174903D01*
X160365611Y-114127284D01*
X160460849Y-114079665D01*
X160698944Y-114079665D01*
X160794182Y-114127284D01*
X160841801Y-114174903D01*
X160889420Y-114270141D01*
X160889420Y-114555856D01*
X160841801Y-114651094D01*
X160794182Y-114698713D01*
X181191920Y-84458133D02*
X181906206Y-84458133D01*
X182049063Y-84505752D01*
X182144301Y-84600990D01*
X182191920Y-84743847D01*
X182191920Y-84839085D01*
X182191920Y-83458133D02*
X182191920Y-84029561D01*
X182191920Y-83743847D02*
X181191920Y-83743847D01*
X181334778Y-83839085D01*
X181430016Y-83934323D01*
X181477635Y-84029561D01*
X172161366Y-87275301D02*
X172304223Y-87322920D01*
X172542319Y-87322920D01*
X172637557Y-87275301D01*
X172685176Y-87227682D01*
X172732795Y-87132444D01*
X172732795Y-87037206D01*
X172685176Y-86941968D01*
X172637557Y-86894349D01*
X172542319Y-86846730D01*
X172351842Y-86799111D01*
X172256604Y-86751492D01*
X172208985Y-86703873D01*
X172161366Y-86608635D01*
X172161366Y-86513397D01*
X172208985Y-86418159D01*
X172256604Y-86370540D01*
X172351842Y-86322920D01*
X172589938Y-86322920D01*
X172732795Y-86370540D01*
X173066128Y-86322920D02*
X173304223Y-87322920D01*
X173494700Y-86608635D01*
X173685176Y-87322920D01*
X173923271Y-86322920D01*
X174828033Y-87322920D02*
X174256604Y-87322920D01*
X174542319Y-87322920D02*
X174542319Y-86322920D01*
X174447080Y-86465778D01*
X174351842Y-86561016D01*
X174256604Y-86608635D01*
X178409006Y-131522220D02*
X178409006Y-132236506D01*
X178361387Y-132379363D01*
X178266149Y-132474601D01*
X178123292Y-132522220D01*
X178028054Y-132522220D01*
X179361387Y-131522220D02*
X178885197Y-131522220D01*
X178837578Y-131998411D01*
X178885197Y-131950792D01*
X178980435Y-131903173D01*
X179218530Y-131903173D01*
X179313768Y-131950792D01*
X179361387Y-131998411D01*
X179409006Y-132093649D01*
X179409006Y-132331744D01*
X179361387Y-132426982D01*
X179313768Y-132474601D01*
X179218530Y-132522220D01*
X178980435Y-132522220D01*
X178885197Y-132474601D01*
X178837578Y-132426982D01*
X141684416Y-130333500D02*
X141684416Y-131047786D01*
X141636797Y-131190643D01*
X141541559Y-131285881D01*
X141398702Y-131333500D01*
X141303464Y-131333500D01*
X142589178Y-130666834D02*
X142589178Y-131333500D01*
X142351083Y-130285881D02*
X142112988Y-131000167D01*
X142732035Y-131000167D01*
X155379515Y-133348480D02*
X155379515Y-134158004D01*
X155427134Y-134253242D01*
X155474753Y-134300861D01*
X155569991Y-134348480D01*
X155760467Y-134348480D01*
X155855705Y-134300861D01*
X155903324Y-134253242D01*
X155950943Y-134158004D01*
X155950943Y-133348480D01*
X156903324Y-133348480D02*
X156427134Y-133348480D01*
X156379515Y-133824671D01*
X156427134Y-133777052D01*
X156522372Y-133729433D01*
X156760467Y-133729433D01*
X156855705Y-133777052D01*
X156903324Y-133824671D01*
X156950943Y-133919909D01*
X156950943Y-134158004D01*
X156903324Y-134253242D01*
X156855705Y-134300861D01*
X156760467Y-134348480D01*
X156522372Y-134348480D01*
X156427134Y-134300861D01*
X156379515Y-134253242D01*
X168827200Y-138563024D02*
X169636724Y-138563024D01*
X169731962Y-138515405D01*
X169779581Y-138467786D01*
X169827200Y-138372548D01*
X169827200Y-138182072D01*
X169779581Y-138086834D01*
X169731962Y-138039215D01*
X169636724Y-137991596D01*
X168827200Y-137991596D01*
X169160534Y-137086834D02*
X169827200Y-137086834D01*
X168779581Y-137324929D02*
X169493867Y-137563024D01*
X169493867Y-136943977D01*
X128668875Y-140648440D02*
X128668875Y-141457964D01*
X128716494Y-141553202D01*
X128764113Y-141600821D01*
X128859351Y-141648440D01*
X129049827Y-141648440D01*
X129145065Y-141600821D01*
X129192684Y-141553202D01*
X129240303Y-141457964D01*
X129240303Y-140648440D01*
X129621256Y-140648440D02*
X130240303Y-140648440D01*
X129906970Y-141029393D01*
X130049827Y-141029393D01*
X130145065Y-141077012D01*
X130192684Y-141124631D01*
X130240303Y-141219869D01*
X130240303Y-141457964D01*
X130192684Y-141553202D01*
X130145065Y-141600821D01*
X130049827Y-141648440D01*
X129764113Y-141648440D01*
X129668875Y-141600821D01*
X129621256Y-141553202D01*
X144690440Y-78003839D02*
X144214250Y-78337172D01*
X144690440Y-78575267D02*
X143690440Y-78575267D01*
X143690440Y-78194315D01*
X143738060Y-78099077D01*
X143785679Y-78051458D01*
X143880917Y-78003839D01*
X144023774Y-78003839D01*
X144119012Y-78051458D01*
X144166631Y-78099077D01*
X144214250Y-78194315D01*
X144214250Y-78575267D01*
X144642821Y-77622886D02*
X144690440Y-77480029D01*
X144690440Y-77241934D01*
X144642821Y-77146696D01*
X144595202Y-77099077D01*
X144499964Y-77051458D01*
X144404726Y-77051458D01*
X144309488Y-77099077D01*
X144261869Y-77146696D01*
X144214250Y-77241934D01*
X144166631Y-77432410D01*
X144119012Y-77527648D01*
X144071393Y-77575267D01*
X143976155Y-77622886D01*
X143880917Y-77622886D01*
X143785679Y-77575267D01*
X143738060Y-77527648D01*
X143690440Y-77432410D01*
X143690440Y-77194315D01*
X143738060Y-77051458D01*
X144166631Y-76622886D02*
X144166631Y-76289553D01*
X144690440Y-76146696D02*
X144690440Y-76622886D01*
X143690440Y-76622886D01*
X143690440Y-76146696D01*
X144690440Y-75718124D02*
X143690440Y-75718124D01*
X144690440Y-75146696D01*
X143690440Y-75146696D01*
X144642821Y-74718124D02*
X144690440Y-74575267D01*
X144690440Y-74337172D01*
X144642821Y-74241934D01*
X144595202Y-74194315D01*
X144499964Y-74146696D01*
X144404726Y-74146696D01*
X144309488Y-74194315D01*
X144261869Y-74241934D01*
X144214250Y-74337172D01*
X144166631Y-74527648D01*
X144119012Y-74622886D01*
X144071393Y-74670505D01*
X143976155Y-74718124D01*
X143880917Y-74718124D01*
X143785679Y-74670505D01*
X143738060Y-74622886D01*
X143690440Y-74527648D01*
X143690440Y-74289553D01*
X143738060Y-74146696D01*
X144166631Y-73718124D02*
X144166631Y-73384791D01*
X144690440Y-73241934D02*
X144690440Y-73718124D01*
X143690440Y-73718124D01*
X143690440Y-73241934D01*
X144690440Y-72289553D02*
X144690440Y-72860981D01*
X144690440Y-72575267D02*
X143690440Y-72575267D01*
X143833298Y-72670505D01*
X143928536Y-72765743D01*
X143976155Y-72860981D01*
X128360440Y-80376646D02*
X127884250Y-80709980D01*
X128360440Y-80948075D02*
X127360440Y-80948075D01*
X127360440Y-80567122D01*
X127408060Y-80471884D01*
X127455679Y-80424265D01*
X127550917Y-80376646D01*
X127693774Y-80376646D01*
X127789012Y-80424265D01*
X127836631Y-80471884D01*
X127884250Y-80567122D01*
X127884250Y-80948075D01*
X127455679Y-79995694D02*
X127408060Y-79948075D01*
X127360440Y-79852837D01*
X127360440Y-79614741D01*
X127408060Y-79519503D01*
X127455679Y-79471884D01*
X127550917Y-79424265D01*
X127646155Y-79424265D01*
X127789012Y-79471884D01*
X128360440Y-80043313D01*
X128360440Y-79424265D01*
X112654160Y-73745386D02*
X112177970Y-74078720D01*
X112654160Y-74316815D02*
X111654160Y-74316815D01*
X111654160Y-73935862D01*
X111701780Y-73840624D01*
X111749399Y-73793005D01*
X111844637Y-73745386D01*
X111987494Y-73745386D01*
X112082732Y-73793005D01*
X112130351Y-73840624D01*
X112177970Y-73935862D01*
X112177970Y-74316815D01*
X112654160Y-72793005D02*
X112654160Y-73364434D01*
X112654160Y-73078720D02*
X111654160Y-73078720D01*
X111797018Y-73173958D01*
X111892256Y-73269196D01*
X111939875Y-73364434D01*
X120419382Y-85661760D02*
X120419382Y-84661760D01*
X120800335Y-84661760D01*
X120895573Y-84709380D01*
X120943192Y-84756999D01*
X120990811Y-84852237D01*
X120990811Y-84995094D01*
X120943192Y-85090332D01*
X120895573Y-85137951D01*
X120800335Y-85185570D01*
X120419382Y-85185570D01*
X121609859Y-84661760D02*
X121800335Y-84661760D01*
X121895573Y-84709380D01*
X121990811Y-84804618D01*
X122038430Y-84995094D01*
X122038430Y-85328427D01*
X121990811Y-85518903D01*
X121895573Y-85614141D01*
X121800335Y-85661760D01*
X121609859Y-85661760D01*
X121514620Y-85614141D01*
X121419382Y-85518903D01*
X121371763Y-85328427D01*
X121371763Y-84995094D01*
X121419382Y-84804618D01*
X121514620Y-84709380D01*
X121609859Y-84661760D01*
X122324144Y-84661760D02*
X122895573Y-84661760D01*
X122609859Y-85661760D02*
X122609859Y-84661760D01*
X123752716Y-85661760D02*
X123181287Y-85661760D01*
X123467001Y-85661760D02*
X123467001Y-84661760D01*
X123371763Y-84804618D01*
X123276525Y-84899856D01*
X123181287Y-84947475D01*
X144695002Y-84245686D02*
X144742621Y-84293305D01*
X144790240Y-84436162D01*
X144790240Y-84531400D01*
X144742621Y-84674258D01*
X144647383Y-84769496D01*
X144552145Y-84817115D01*
X144361669Y-84864734D01*
X144218812Y-84864734D01*
X144028336Y-84817115D01*
X143933098Y-84769496D01*
X143837860Y-84674258D01*
X143790240Y-84531400D01*
X143790240Y-84436162D01*
X143837860Y-84293305D01*
X143885479Y-84245686D01*
X143885479Y-83864734D02*
X143837860Y-83817115D01*
X143790240Y-83721877D01*
X143790240Y-83483781D01*
X143837860Y-83388543D01*
X143885479Y-83340924D01*
X143980717Y-83293305D01*
X144075955Y-83293305D01*
X144218812Y-83340924D01*
X144790240Y-83912353D01*
X144790240Y-83293305D01*
M02*
