M48
; DRILL file {KiCad (5.1.5)-3} date 2020-11-11 5:58:41 PM
; FORMAT={-:-/ absolute / inch / decimal}
; #@! TF.CreationDate,2020-11-11T17:58:41-05:00
; #@! TF.GenerationSoftware,Kicad,Pcbnew,(5.1.5)-3
FMAT,2
INCH
T1C0.0157
T2C0.0300
T3C0.0315
T4C0.0512
T5C0.1260
%
G90
G05
T1
X5.2666Y-5.3792
X5.3049Y-2.7915
X5.318Y-5.7386
X5.3996Y-4.6049
X5.4021Y-4.3623
X5.4021Y-4.4701
X5.407Y-4.0707
X5.407Y-4.2275
X5.4897Y-5.4269
X5.4952Y-5.5719
X5.5153Y-4.3558
X5.517Y-3.9481
X5.5189Y-4.4719
X5.5193Y-4.0711
X5.5193Y-4.2246
X5.5198Y-4.6092
X5.5499Y-3.8366
X5.6216Y-3.9461
X5.6421Y-4.3579
X5.6453Y-4.4736
X5.6511Y-4.61
X5.6674Y-3.8356
X5.7158Y-5.5767
X5.7252Y-3.9471
X5.735Y-5.7582
X5.7732Y-4.3117
X5.8333Y-4.0065
X5.8462Y-5.411
X5.8554Y-4.1332
X5.9032Y-3.8891
X5.9281Y-5.6002
X6.0023Y-4.0065
X6.0403Y-5.2775
X6.1036Y-3.8817
X6.1549Y-4.4127
X6.1701Y-4.0065
X6.192Y-4.3076
X6.293Y-4.1882
X6.295Y-3.9521
X6.2965Y-4.0832
X6.3009Y-3.8356
X6.3503Y-5.6348
X6.359Y-5.7714
X6.3695Y-5.404
X6.4045Y-5.848
X6.4165Y-3.9501
X6.4344Y-3.8336
X6.456Y-4.0832
X6.4573Y-4.1932
X6.4592Y-4.4446
X6.4592Y-4.6059
X6.5271Y-3.9471
X6.5778Y-5.5302
X6.5878Y-4.4487
X6.5878Y-4.6134
X6.5899Y-4.3139
X6.5928Y-4.1872
X6.5971Y-5.4604
X6.6003Y-4.078
X6.6084Y-2.7371
X6.6885Y-5.6626
X6.6939Y-5.2845
X6.7558Y-5.7315
X6.8382Y-5.4918
X6.8847Y-5.5197
T2
X4.7076Y-3.1124
X4.8076Y-3.2124
X4.9076Y-3.1124
T3
X4.5107Y-2.6968
X4.5107Y-3.0968
X5.6646Y-4.1297
X6.1646Y-4.1297
X5.4759Y-3.2413
X5.4759Y-3.3791
X5.9885Y-4.3054
X6.4885Y-4.3054
T4
X5.9038Y-3.7525
X6.1038Y-3.7525
X5.7531Y-4.9953
X5.9531Y-4.9953
X6.1532Y-4.9953
X5.2338Y-4.9953
X5.4338Y-4.9953
X6.4725Y-4.9953
X6.6725Y-4.9953
X6.8725Y-4.9953
X7.1454Y-2.7496
X7.1454Y-2.9496
X7.1454Y-3.1496
T5
X7.5591Y-4.9213
X4.252Y-3.0315
X7.5591Y-5.3937
X7.5591Y-4.2126
X4.252Y-4.9213
X4.252Y-3.7402
X4.252Y-4.2126
X4.252Y-5.3937
X7.5591Y-3.7402
X4.252Y-2.5591
X7.5591Y-2.5591
X7.5591Y-3.0315
T2
G00X6.7202Y-3.0464
M15
G01X6.7202Y-3.1346
M16
G05
G00X6.7202Y-3.3064
M15
G01X6.7202Y-3.3946
M16
G05
T0
M30
