G04 #@! TF.GenerationSoftware,KiCad,Pcbnew,(5.1.5)-3*
G04 #@! TF.CreationDate,2020-11-11T17:48:52-05:00*
G04 #@! TF.ProjectId,sensor_dmf_board,73656e73-6f72-45f6-946d-665f626f6172,rev?*
G04 #@! TF.SameCoordinates,Original*
G04 #@! TF.FileFunction,Copper,L2,Inr*
G04 #@! TF.FilePolarity,Positive*
%FSLAX46Y46*%
G04 Gerber Fmt 4.6, Leading zero omitted, Abs format (unit mm)*
G04 Created by KiCad (PCBNEW (5.1.5)-3) date 2020-11-11 17:48:52*
%MOMM*%
%LPD*%
G04 APERTURE LIST*
%ADD10O,1.600000X1.600000*%
%ADD11C,1.600000*%
%ADD12C,2.600000*%
%ADD13R,2.600000X2.600000*%
%ADD14R,1.524000X3.762000*%
%ADD15C,1.524000*%
%ADD16R,1.524000X1.524000*%
%ADD17R,1.600000X1.600000*%
%ADD18C,0.800000*%
%ADD19C,0.254000*%
G04 APERTURE END LIST*
D10*
X156580840Y-104894380D03*
D11*
X143880840Y-104894380D03*
D10*
X164807900Y-109357160D03*
D11*
X152107900Y-109357160D03*
D12*
X132938520Y-126880620D03*
D13*
X138018520Y-126880620D03*
D12*
X181493160Y-69840000D03*
X181493160Y-74920000D03*
D13*
X181493160Y-80000000D03*
D14*
X170693080Y-85102700D03*
X170693080Y-78498700D03*
D12*
X164401500Y-126880620D03*
X169481500Y-126880620D03*
D13*
X174561500Y-126880620D03*
D12*
X146130010Y-126880620D03*
X151210010Y-126880620D03*
D13*
X156290010Y-126880620D03*
D12*
X155036520Y-95313500D03*
D13*
X149956520Y-95313500D03*
D10*
X114571780Y-68498720D03*
D11*
X114571780Y-78658720D03*
D15*
X119573040Y-79054960D03*
X122113040Y-81594960D03*
D16*
X124653040Y-79054960D03*
D11*
X139087860Y-85829020D03*
D17*
X139087860Y-82329020D03*
D18*
X153423620Y-134048500D03*
X133771640Y-136631680D03*
X139438380Y-137843260D03*
X135077200Y-145760440D03*
X139578080Y-141526260D03*
X161785300Y-137261600D03*
X161297620Y-143123920D03*
X167566340Y-138694160D03*
X170025060Y-134226300D03*
X161518600Y-146593560D03*
X174871151Y-140201016D03*
X148493480Y-137439400D03*
X167076120Y-140467080D03*
X173690280Y-139491720D03*
X156333520Y-112083520D03*
X143951960Y-97424240D03*
X140967460Y-97449640D03*
X140190220Y-103405940D03*
X140190220Y-107304840D03*
X140088620Y-110637320D03*
X163982400Y-103713280D03*
X159931100Y-103713280D03*
X164063680Y-112892840D03*
X164063680Y-116989860D03*
X140131800Y-100281740D03*
X142788640Y-100230940D03*
X145420080Y-100256340D03*
X160042860Y-97424240D03*
X163433760Y-97373440D03*
X159893000Y-100383340D03*
X162979100Y-100332540D03*
X165788340Y-100256340D03*
X159842200Y-106380280D03*
X164015420Y-106507280D03*
X167457120Y-106354880D03*
X167647620Y-103581200D03*
X137337800Y-103395780D03*
X137337800Y-107378500D03*
X137213340Y-110802420D03*
X137213340Y-113540540D03*
X137149840Y-116964460D03*
X167383460Y-109573060D03*
X167330120Y-112996980D03*
X143309340Y-110690660D03*
X140180060Y-113586260D03*
X143390620Y-113629440D03*
X140202920Y-117073680D03*
X143537940Y-117094000D03*
X167330120Y-117180360D03*
X148727160Y-104983280D03*
X157276800Y-109413040D03*
X148165820Y-101765100D03*
X152458420Y-101765100D03*
X156720540Y-101765100D03*
X155031440Y-98595180D03*
X146638010Y-109518450D03*
X145669000Y-146258280D03*
X162674300Y-148539200D03*
X134744460Y-70904100D03*
X167853360Y-69522340D03*
X149941280Y-98783140D03*
X150573740Y-142245080D03*
X145181226Y-141646930D03*
X171597320Y-145580100D03*
X169887900Y-143830040D03*
D19*
G36*
X148018448Y-96613500D02*
G01*
X148030708Y-96737982D01*
X148067018Y-96857680D01*
X148125983Y-96967994D01*
X148205335Y-97064685D01*
X148302026Y-97144037D01*
X148412340Y-97203002D01*
X148532038Y-97239312D01*
X148656520Y-97251572D01*
X149670770Y-97248500D01*
X149829520Y-97089750D01*
X149829520Y-95958660D01*
X150083520Y-95958660D01*
X150083520Y-97089750D01*
X150242270Y-97248500D01*
X151256520Y-97251572D01*
X151381002Y-97239312D01*
X151500700Y-97203002D01*
X151611014Y-97144037D01*
X151707705Y-97064685D01*
X151787057Y-96967994D01*
X151846022Y-96857680D01*
X151882332Y-96737982D01*
X151894592Y-96613500D01*
X151892609Y-95958660D01*
X152894220Y-95958660D01*
X152895102Y-95963092D01*
X153062978Y-96368380D01*
X153306696Y-96733130D01*
X153616890Y-97043324D01*
X153981640Y-97287042D01*
X154363778Y-97445329D01*
X154185527Y-97564432D01*
X154000692Y-97749267D01*
X153855468Y-97966610D01*
X153755436Y-98208108D01*
X153704440Y-98464482D01*
X153704440Y-98725878D01*
X153755436Y-98982252D01*
X153855468Y-99223750D01*
X154000692Y-99441093D01*
X154185527Y-99625928D01*
X154402870Y-99771152D01*
X154644368Y-99871184D01*
X154900742Y-99922180D01*
X155162138Y-99922180D01*
X155418512Y-99871184D01*
X155660010Y-99771152D01*
X155877353Y-99625928D01*
X156062188Y-99441093D01*
X156207412Y-99223750D01*
X156307444Y-98982252D01*
X156358440Y-98725878D01*
X156358440Y-98464482D01*
X156307444Y-98208108D01*
X156207412Y-97966610D01*
X156062188Y-97749267D01*
X155877353Y-97564432D01*
X155702991Y-97447927D01*
X156075707Y-97293542D01*
X158715860Y-97293542D01*
X158715860Y-97554938D01*
X158766856Y-97811312D01*
X158866888Y-98052810D01*
X159012112Y-98270153D01*
X159196947Y-98454988D01*
X159414290Y-98600212D01*
X159655788Y-98700244D01*
X159912162Y-98751240D01*
X160173558Y-98751240D01*
X160429932Y-98700244D01*
X160671430Y-98600212D01*
X160888773Y-98454988D01*
X161073608Y-98270153D01*
X161218832Y-98052810D01*
X161318864Y-97811312D01*
X161369860Y-97554938D01*
X161369860Y-97293542D01*
X161359756Y-97242742D01*
X162106760Y-97242742D01*
X162106760Y-97504138D01*
X162157756Y-97760512D01*
X162257788Y-98002010D01*
X162403012Y-98219353D01*
X162587847Y-98404188D01*
X162805190Y-98549412D01*
X163046688Y-98649444D01*
X163303062Y-98700440D01*
X163564458Y-98700440D01*
X163820832Y-98649444D01*
X164062330Y-98549412D01*
X164279673Y-98404188D01*
X164464508Y-98219353D01*
X164609732Y-98002010D01*
X164709764Y-97760512D01*
X164760760Y-97504138D01*
X164760760Y-97242742D01*
X164709764Y-96986368D01*
X164609732Y-96744870D01*
X164464508Y-96527527D01*
X164279673Y-96342692D01*
X164062330Y-96197468D01*
X163820832Y-96097436D01*
X163564458Y-96046440D01*
X163303062Y-96046440D01*
X163046688Y-96097436D01*
X162805190Y-96197468D01*
X162587847Y-96342692D01*
X162403012Y-96527527D01*
X162257788Y-96744870D01*
X162157756Y-96986368D01*
X162106760Y-97242742D01*
X161359756Y-97242742D01*
X161318864Y-97037168D01*
X161218832Y-96795670D01*
X161073608Y-96578327D01*
X160888773Y-96393492D01*
X160671430Y-96248268D01*
X160429932Y-96148236D01*
X160173558Y-96097240D01*
X159912162Y-96097240D01*
X159655788Y-96148236D01*
X159414290Y-96248268D01*
X159196947Y-96393492D01*
X159012112Y-96578327D01*
X158866888Y-96795670D01*
X158766856Y-97037168D01*
X158715860Y-97293542D01*
X156075707Y-97293542D01*
X156091400Y-97287042D01*
X156456150Y-97043324D01*
X156766344Y-96733130D01*
X157010062Y-96368380D01*
X157177938Y-95963092D01*
X157178820Y-95958660D01*
X189661885Y-95958660D01*
X189760602Y-96196983D01*
X190037151Y-96610869D01*
X190389131Y-96962849D01*
X190803017Y-97239398D01*
X191262901Y-97429889D01*
X191751112Y-97527000D01*
X192248888Y-97527000D01*
X192737099Y-97429889D01*
X193196983Y-97239398D01*
X193299080Y-97171179D01*
X193299080Y-104828821D01*
X193196983Y-104760602D01*
X192737099Y-104570111D01*
X192248888Y-104473000D01*
X191751112Y-104473000D01*
X191262901Y-104570111D01*
X190803017Y-104760602D01*
X190389131Y-105037151D01*
X190037151Y-105389131D01*
X189760602Y-105803017D01*
X189570111Y-106262901D01*
X189473000Y-106751112D01*
X189473000Y-107248888D01*
X189570111Y-107737099D01*
X189760602Y-108196983D01*
X190037151Y-108610869D01*
X190389131Y-108962849D01*
X190803017Y-109239398D01*
X191262901Y-109429889D01*
X191751112Y-109527000D01*
X192248888Y-109527000D01*
X192737099Y-109429889D01*
X193196983Y-109239398D01*
X193299080Y-109171179D01*
X193299080Y-114472720D01*
X144423127Y-114472720D01*
X144566592Y-114258010D01*
X144666624Y-114016512D01*
X144717620Y-113760138D01*
X144717620Y-113498742D01*
X144666624Y-113242368D01*
X144566592Y-113000870D01*
X144421368Y-112783527D01*
X144236533Y-112598692D01*
X144019190Y-112453468D01*
X143777692Y-112353436D01*
X143521318Y-112302440D01*
X143259922Y-112302440D01*
X143003548Y-112353436D01*
X142762050Y-112453468D01*
X142544707Y-112598692D01*
X142359872Y-112783527D01*
X142214648Y-113000870D01*
X142114616Y-113242368D01*
X142063620Y-113498742D01*
X142063620Y-113760138D01*
X142114616Y-114016512D01*
X142214648Y-114258010D01*
X142358113Y-114472720D01*
X141170261Y-114472720D01*
X141210808Y-114432173D01*
X141356032Y-114214830D01*
X141456064Y-113973332D01*
X141507060Y-113716958D01*
X141507060Y-113455562D01*
X141456064Y-113199188D01*
X141356032Y-112957690D01*
X141210808Y-112740347D01*
X141025973Y-112555512D01*
X140808630Y-112410288D01*
X140567132Y-112310256D01*
X140310758Y-112259260D01*
X140049362Y-112259260D01*
X139792988Y-112310256D01*
X139551490Y-112410288D01*
X139334147Y-112555512D01*
X139149312Y-112740347D01*
X139004088Y-112957690D01*
X138904056Y-113199188D01*
X138853060Y-113455562D01*
X138853060Y-113716958D01*
X138904056Y-113973332D01*
X139004088Y-114214830D01*
X139149312Y-114432173D01*
X139189859Y-114472720D01*
X138157821Y-114472720D01*
X138244088Y-114386453D01*
X138389312Y-114169110D01*
X138489344Y-113927612D01*
X138540340Y-113671238D01*
X138540340Y-113409842D01*
X138489344Y-113153468D01*
X138389312Y-112911970D01*
X138244088Y-112694627D01*
X138059253Y-112509792D01*
X137841910Y-112364568D01*
X137600412Y-112264536D01*
X137344038Y-112213540D01*
X137082642Y-112213540D01*
X136826268Y-112264536D01*
X136584770Y-112364568D01*
X136367427Y-112509792D01*
X136182592Y-112694627D01*
X136037368Y-112911970D01*
X135937336Y-113153468D01*
X135886340Y-113409842D01*
X135886340Y-113671238D01*
X135937336Y-113927612D01*
X136037368Y-114169110D01*
X136182592Y-114386453D01*
X136268859Y-114472720D01*
X106862880Y-114472720D01*
X106862880Y-110671722D01*
X135886340Y-110671722D01*
X135886340Y-110933118D01*
X135937336Y-111189492D01*
X136037368Y-111430990D01*
X136182592Y-111648333D01*
X136367427Y-111833168D01*
X136584770Y-111978392D01*
X136826268Y-112078424D01*
X137082642Y-112129420D01*
X137344038Y-112129420D01*
X137600412Y-112078424D01*
X137841910Y-111978392D01*
X138059253Y-111833168D01*
X138244088Y-111648333D01*
X138389312Y-111430990D01*
X138489344Y-111189492D01*
X138540340Y-110933118D01*
X138540340Y-110671722D01*
X138507500Y-110506622D01*
X138761620Y-110506622D01*
X138761620Y-110768018D01*
X138812616Y-111024392D01*
X138912648Y-111265890D01*
X139057872Y-111483233D01*
X139242707Y-111668068D01*
X139460050Y-111813292D01*
X139701548Y-111913324D01*
X139957922Y-111964320D01*
X140219318Y-111964320D01*
X140475692Y-111913324D01*
X140717190Y-111813292D01*
X140934533Y-111668068D01*
X141119368Y-111483233D01*
X141264592Y-111265890D01*
X141364624Y-111024392D01*
X141415620Y-110768018D01*
X141415620Y-110559962D01*
X141982340Y-110559962D01*
X141982340Y-110821358D01*
X142033336Y-111077732D01*
X142133368Y-111319230D01*
X142278592Y-111536573D01*
X142463427Y-111721408D01*
X142680770Y-111866632D01*
X142922268Y-111966664D01*
X143178642Y-112017660D01*
X143440038Y-112017660D01*
X143696412Y-111966664D01*
X143729829Y-111952822D01*
X155006520Y-111952822D01*
X155006520Y-112214218D01*
X155057516Y-112470592D01*
X155157548Y-112712090D01*
X155302772Y-112929433D01*
X155487607Y-113114268D01*
X155704950Y-113259492D01*
X155946448Y-113359524D01*
X156202822Y-113410520D01*
X156464218Y-113410520D01*
X156720592Y-113359524D01*
X156962090Y-113259492D01*
X157179433Y-113114268D01*
X157364268Y-112929433D01*
X157476048Y-112762142D01*
X162736680Y-112762142D01*
X162736680Y-113023538D01*
X162787676Y-113279912D01*
X162887708Y-113521410D01*
X163032932Y-113738753D01*
X163217767Y-113923588D01*
X163435110Y-114068812D01*
X163676608Y-114168844D01*
X163932982Y-114219840D01*
X164194378Y-114219840D01*
X164450752Y-114168844D01*
X164692250Y-114068812D01*
X164909593Y-113923588D01*
X165094428Y-113738753D01*
X165239652Y-113521410D01*
X165339684Y-113279912D01*
X165390680Y-113023538D01*
X165390680Y-112866282D01*
X166003120Y-112866282D01*
X166003120Y-113127678D01*
X166054116Y-113384052D01*
X166154148Y-113625550D01*
X166299372Y-113842893D01*
X166484207Y-114027728D01*
X166701550Y-114172952D01*
X166943048Y-114272984D01*
X167199422Y-114323980D01*
X167460818Y-114323980D01*
X167717192Y-114272984D01*
X167958690Y-114172952D01*
X168176033Y-114027728D01*
X168360868Y-113842893D01*
X168506092Y-113625550D01*
X168606124Y-113384052D01*
X168657120Y-113127678D01*
X168657120Y-112866282D01*
X168606124Y-112609908D01*
X168506092Y-112368410D01*
X168360868Y-112151067D01*
X168176033Y-111966232D01*
X167958690Y-111821008D01*
X167717192Y-111720976D01*
X167460818Y-111669980D01*
X167199422Y-111669980D01*
X166943048Y-111720976D01*
X166701550Y-111821008D01*
X166484207Y-111966232D01*
X166299372Y-112151067D01*
X166154148Y-112368410D01*
X166054116Y-112609908D01*
X166003120Y-112866282D01*
X165390680Y-112866282D01*
X165390680Y-112762142D01*
X165339684Y-112505768D01*
X165239652Y-112264270D01*
X165094428Y-112046927D01*
X164909593Y-111862092D01*
X164692250Y-111716868D01*
X164450752Y-111616836D01*
X164194378Y-111565840D01*
X163932982Y-111565840D01*
X163676608Y-111616836D01*
X163435110Y-111716868D01*
X163217767Y-111862092D01*
X163032932Y-112046927D01*
X162887708Y-112264270D01*
X162787676Y-112505768D01*
X162736680Y-112762142D01*
X157476048Y-112762142D01*
X157509492Y-112712090D01*
X157609524Y-112470592D01*
X157660520Y-112214218D01*
X157660520Y-111952822D01*
X157609524Y-111696448D01*
X157509492Y-111454950D01*
X157364268Y-111237607D01*
X157179433Y-111052772D01*
X156962090Y-110907548D01*
X156720592Y-110807516D01*
X156464218Y-110756520D01*
X156202822Y-110756520D01*
X155946448Y-110807516D01*
X155704950Y-110907548D01*
X155487607Y-111052772D01*
X155302772Y-111237607D01*
X155157548Y-111454950D01*
X155057516Y-111696448D01*
X155006520Y-111952822D01*
X143729829Y-111952822D01*
X143937910Y-111866632D01*
X144155253Y-111721408D01*
X144340088Y-111536573D01*
X144485312Y-111319230D01*
X144585344Y-111077732D01*
X144636340Y-110821358D01*
X144636340Y-110559962D01*
X144585344Y-110303588D01*
X144485312Y-110062090D01*
X144340088Y-109844747D01*
X144155253Y-109659912D01*
X143937910Y-109514688D01*
X143696412Y-109414656D01*
X143561157Y-109387752D01*
X145311010Y-109387752D01*
X145311010Y-109649148D01*
X145362006Y-109905522D01*
X145462038Y-110147020D01*
X145607262Y-110364363D01*
X145792097Y-110549198D01*
X146009440Y-110694422D01*
X146250938Y-110794454D01*
X146507312Y-110845450D01*
X146768708Y-110845450D01*
X147025082Y-110794454D01*
X147266580Y-110694422D01*
X147483923Y-110549198D01*
X147668758Y-110364363D01*
X147813982Y-110147020D01*
X147914014Y-109905522D01*
X147965010Y-109649148D01*
X147965010Y-109387752D01*
X147925091Y-109187065D01*
X150380900Y-109187065D01*
X150380900Y-109527255D01*
X150447268Y-109860907D01*
X150577453Y-110175201D01*
X150766452Y-110458058D01*
X151007002Y-110698608D01*
X151289859Y-110887607D01*
X151604153Y-111017792D01*
X151937805Y-111084160D01*
X152277995Y-111084160D01*
X152611647Y-111017792D01*
X152925941Y-110887607D01*
X153208798Y-110698608D01*
X153449348Y-110458058D01*
X153638347Y-110175201D01*
X153768532Y-109860907D01*
X153834900Y-109527255D01*
X153834900Y-109282342D01*
X155949800Y-109282342D01*
X155949800Y-109543738D01*
X156000796Y-109800112D01*
X156100828Y-110041610D01*
X156246052Y-110258953D01*
X156430887Y-110443788D01*
X156648230Y-110589012D01*
X156889728Y-110689044D01*
X157146102Y-110740040D01*
X157407498Y-110740040D01*
X157663872Y-110689044D01*
X157905370Y-110589012D01*
X158122713Y-110443788D01*
X158307548Y-110258953D01*
X158452772Y-110041610D01*
X158552804Y-109800112D01*
X158571484Y-109706199D01*
X163415996Y-109706199D01*
X163456654Y-109840247D01*
X163576863Y-110094580D01*
X163744381Y-110320574D01*
X163952769Y-110509545D01*
X164194019Y-110654230D01*
X164458860Y-110749069D01*
X164680900Y-110627784D01*
X164680900Y-109484160D01*
X163537985Y-109484160D01*
X163415996Y-109706199D01*
X158571484Y-109706199D01*
X158603800Y-109543738D01*
X158603800Y-109282342D01*
X158552804Y-109025968D01*
X158545412Y-109008121D01*
X163415996Y-109008121D01*
X163537985Y-109230160D01*
X164680900Y-109230160D01*
X164680900Y-108086536D01*
X164934900Y-108086536D01*
X164934900Y-109230160D01*
X164954900Y-109230160D01*
X164954900Y-109484160D01*
X164934900Y-109484160D01*
X164934900Y-110627784D01*
X165156940Y-110749069D01*
X165421781Y-110654230D01*
X165663031Y-110509545D01*
X165871419Y-110320574D01*
X166038937Y-110094580D01*
X166105983Y-109952727D01*
X166107456Y-109960132D01*
X166207488Y-110201630D01*
X166352712Y-110418973D01*
X166537547Y-110603808D01*
X166754890Y-110749032D01*
X166996388Y-110849064D01*
X167252762Y-110900060D01*
X167514158Y-110900060D01*
X167770532Y-110849064D01*
X168012030Y-110749032D01*
X168229373Y-110603808D01*
X168414208Y-110418973D01*
X168559432Y-110201630D01*
X168659464Y-109960132D01*
X168710460Y-109703758D01*
X168710460Y-109442362D01*
X168659464Y-109185988D01*
X168559432Y-108944490D01*
X168414208Y-108727147D01*
X168229373Y-108542312D01*
X168012030Y-108397088D01*
X167770532Y-108297056D01*
X167514158Y-108246060D01*
X167252762Y-108246060D01*
X166996388Y-108297056D01*
X166754890Y-108397088D01*
X166537547Y-108542312D01*
X166352712Y-108727147D01*
X166207488Y-108944490D01*
X166191911Y-108982097D01*
X166159146Y-108874073D01*
X166038937Y-108619740D01*
X165871419Y-108393746D01*
X165663031Y-108204775D01*
X165421781Y-108060090D01*
X165156940Y-107965251D01*
X164934900Y-108086536D01*
X164680900Y-108086536D01*
X164458860Y-107965251D01*
X164194019Y-108060090D01*
X163952769Y-108204775D01*
X163744381Y-108393746D01*
X163576863Y-108619740D01*
X163456654Y-108874073D01*
X163415996Y-109008121D01*
X158545412Y-109008121D01*
X158452772Y-108784470D01*
X158307548Y-108567127D01*
X158122713Y-108382292D01*
X157905370Y-108237068D01*
X157663872Y-108137036D01*
X157407498Y-108086040D01*
X157146102Y-108086040D01*
X156889728Y-108137036D01*
X156648230Y-108237068D01*
X156430887Y-108382292D01*
X156246052Y-108567127D01*
X156100828Y-108784470D01*
X156000796Y-109025968D01*
X155949800Y-109282342D01*
X153834900Y-109282342D01*
X153834900Y-109187065D01*
X153768532Y-108853413D01*
X153638347Y-108539119D01*
X153449348Y-108256262D01*
X153208798Y-108015712D01*
X152925941Y-107826713D01*
X152611647Y-107696528D01*
X152277995Y-107630160D01*
X151937805Y-107630160D01*
X151604153Y-107696528D01*
X151289859Y-107826713D01*
X151007002Y-108015712D01*
X150766452Y-108256262D01*
X150577453Y-108539119D01*
X150447268Y-108853413D01*
X150380900Y-109187065D01*
X147925091Y-109187065D01*
X147914014Y-109131378D01*
X147813982Y-108889880D01*
X147668758Y-108672537D01*
X147483923Y-108487702D01*
X147266580Y-108342478D01*
X147025082Y-108242446D01*
X146768708Y-108191450D01*
X146507312Y-108191450D01*
X146250938Y-108242446D01*
X146009440Y-108342478D01*
X145792097Y-108487702D01*
X145607262Y-108672537D01*
X145462038Y-108889880D01*
X145362006Y-109131378D01*
X145311010Y-109387752D01*
X143561157Y-109387752D01*
X143440038Y-109363660D01*
X143178642Y-109363660D01*
X142922268Y-109414656D01*
X142680770Y-109514688D01*
X142463427Y-109659912D01*
X142278592Y-109844747D01*
X142133368Y-110062090D01*
X142033336Y-110303588D01*
X141982340Y-110559962D01*
X141415620Y-110559962D01*
X141415620Y-110506622D01*
X141364624Y-110250248D01*
X141264592Y-110008750D01*
X141119368Y-109791407D01*
X140934533Y-109606572D01*
X140717190Y-109461348D01*
X140475692Y-109361316D01*
X140219318Y-109310320D01*
X139957922Y-109310320D01*
X139701548Y-109361316D01*
X139460050Y-109461348D01*
X139242707Y-109606572D01*
X139057872Y-109791407D01*
X138912648Y-110008750D01*
X138812616Y-110250248D01*
X138761620Y-110506622D01*
X138507500Y-110506622D01*
X138489344Y-110415348D01*
X138389312Y-110173850D01*
X138244088Y-109956507D01*
X138059253Y-109771672D01*
X137841910Y-109626448D01*
X137600412Y-109526416D01*
X137344038Y-109475420D01*
X137082642Y-109475420D01*
X136826268Y-109526416D01*
X136584770Y-109626448D01*
X136367427Y-109771672D01*
X136182592Y-109956507D01*
X136037368Y-110173850D01*
X135937336Y-110415348D01*
X135886340Y-110671722D01*
X106862880Y-110671722D01*
X106862880Y-109264194D01*
X107262901Y-109429889D01*
X107751112Y-109527000D01*
X108248888Y-109527000D01*
X108737099Y-109429889D01*
X109196983Y-109239398D01*
X109610869Y-108962849D01*
X109962849Y-108610869D01*
X110239398Y-108196983D01*
X110429889Y-107737099D01*
X110527000Y-107248888D01*
X110527000Y-107247802D01*
X136010800Y-107247802D01*
X136010800Y-107509198D01*
X136061796Y-107765572D01*
X136161828Y-108007070D01*
X136307052Y-108224413D01*
X136491887Y-108409248D01*
X136709230Y-108554472D01*
X136950728Y-108654504D01*
X137207102Y-108705500D01*
X137468498Y-108705500D01*
X137724872Y-108654504D01*
X137966370Y-108554472D01*
X138183713Y-108409248D01*
X138368548Y-108224413D01*
X138513772Y-108007070D01*
X138613804Y-107765572D01*
X138664800Y-107509198D01*
X138664800Y-107247802D01*
X138650149Y-107174142D01*
X138863220Y-107174142D01*
X138863220Y-107435538D01*
X138914216Y-107691912D01*
X139014248Y-107933410D01*
X139159472Y-108150753D01*
X139344307Y-108335588D01*
X139561650Y-108480812D01*
X139803148Y-108580844D01*
X140059522Y-108631840D01*
X140320918Y-108631840D01*
X140577292Y-108580844D01*
X140818790Y-108480812D01*
X141036133Y-108335588D01*
X141220968Y-108150753D01*
X141366192Y-107933410D01*
X141466224Y-107691912D01*
X141517220Y-107435538D01*
X141517220Y-107174142D01*
X141466224Y-106917768D01*
X141366192Y-106676270D01*
X141220968Y-106458927D01*
X141036133Y-106274092D01*
X140818790Y-106128868D01*
X140577292Y-106028836D01*
X140320918Y-105977840D01*
X140059522Y-105977840D01*
X139803148Y-106028836D01*
X139561650Y-106128868D01*
X139344307Y-106274092D01*
X139159472Y-106458927D01*
X139014248Y-106676270D01*
X138914216Y-106917768D01*
X138863220Y-107174142D01*
X138650149Y-107174142D01*
X138613804Y-106991428D01*
X138513772Y-106749930D01*
X138368548Y-106532587D01*
X138183713Y-106347752D01*
X137966370Y-106202528D01*
X137724872Y-106102496D01*
X137468498Y-106051500D01*
X137207102Y-106051500D01*
X136950728Y-106102496D01*
X136709230Y-106202528D01*
X136491887Y-106347752D01*
X136307052Y-106532587D01*
X136161828Y-106749930D01*
X136061796Y-106991428D01*
X136010800Y-107247802D01*
X110527000Y-107247802D01*
X110527000Y-106751112D01*
X110429889Y-106262901D01*
X110239398Y-105803017D01*
X109962849Y-105389131D01*
X109610869Y-105037151D01*
X109196983Y-104760602D01*
X108737099Y-104570111D01*
X108248888Y-104473000D01*
X107751112Y-104473000D01*
X107262901Y-104570111D01*
X106862880Y-104735806D01*
X106862880Y-103265082D01*
X136010800Y-103265082D01*
X136010800Y-103526478D01*
X136061796Y-103782852D01*
X136161828Y-104024350D01*
X136307052Y-104241693D01*
X136491887Y-104426528D01*
X136709230Y-104571752D01*
X136950728Y-104671784D01*
X137207102Y-104722780D01*
X137468498Y-104722780D01*
X137724872Y-104671784D01*
X137966370Y-104571752D01*
X138183713Y-104426528D01*
X138368548Y-104241693D01*
X138513772Y-104024350D01*
X138613804Y-103782852D01*
X138664800Y-103526478D01*
X138664800Y-103275242D01*
X138863220Y-103275242D01*
X138863220Y-103536638D01*
X138914216Y-103793012D01*
X139014248Y-104034510D01*
X139159472Y-104251853D01*
X139344307Y-104436688D01*
X139561650Y-104581912D01*
X139803148Y-104681944D01*
X140059522Y-104732940D01*
X140320918Y-104732940D01*
X140364429Y-104724285D01*
X142153840Y-104724285D01*
X142153840Y-105064475D01*
X142220208Y-105398127D01*
X142350393Y-105712421D01*
X142539392Y-105995278D01*
X142779942Y-106235828D01*
X143062799Y-106424827D01*
X143377093Y-106555012D01*
X143710745Y-106621380D01*
X144050935Y-106621380D01*
X144384587Y-106555012D01*
X144698881Y-106424827D01*
X144981738Y-106235828D01*
X145222288Y-105995278D01*
X145411287Y-105712421D01*
X145541472Y-105398127D01*
X145607840Y-105064475D01*
X145607840Y-104852582D01*
X147400160Y-104852582D01*
X147400160Y-105113978D01*
X147451156Y-105370352D01*
X147551188Y-105611850D01*
X147696412Y-105829193D01*
X147881247Y-106014028D01*
X148098590Y-106159252D01*
X148340088Y-106259284D01*
X148596462Y-106310280D01*
X148857858Y-106310280D01*
X149114232Y-106259284D01*
X149355730Y-106159252D01*
X149573073Y-106014028D01*
X149757908Y-105829193D01*
X149903132Y-105611850D01*
X150003164Y-105370352D01*
X150028412Y-105243419D01*
X155188936Y-105243419D01*
X155229594Y-105377467D01*
X155349803Y-105631800D01*
X155517321Y-105857794D01*
X155725709Y-106046765D01*
X155966959Y-106191450D01*
X156231800Y-106286289D01*
X156453840Y-106165004D01*
X156453840Y-105021380D01*
X156707840Y-105021380D01*
X156707840Y-106165004D01*
X156929880Y-106286289D01*
X157032385Y-106249582D01*
X158515200Y-106249582D01*
X158515200Y-106510978D01*
X158566196Y-106767352D01*
X158666228Y-107008850D01*
X158811452Y-107226193D01*
X158996287Y-107411028D01*
X159213630Y-107556252D01*
X159455128Y-107656284D01*
X159711502Y-107707280D01*
X159972898Y-107707280D01*
X160229272Y-107656284D01*
X160470770Y-107556252D01*
X160688113Y-107411028D01*
X160872948Y-107226193D01*
X161018172Y-107008850D01*
X161118204Y-106767352D01*
X161169200Y-106510978D01*
X161169200Y-106376582D01*
X162688420Y-106376582D01*
X162688420Y-106637978D01*
X162739416Y-106894352D01*
X162839448Y-107135850D01*
X162984672Y-107353193D01*
X163169507Y-107538028D01*
X163386850Y-107683252D01*
X163628348Y-107783284D01*
X163884722Y-107834280D01*
X164146118Y-107834280D01*
X164402492Y-107783284D01*
X164643990Y-107683252D01*
X164861333Y-107538028D01*
X165046168Y-107353193D01*
X165191392Y-107135850D01*
X165291424Y-106894352D01*
X165342420Y-106637978D01*
X165342420Y-106376582D01*
X165312106Y-106224182D01*
X166130120Y-106224182D01*
X166130120Y-106485578D01*
X166181116Y-106741952D01*
X166281148Y-106983450D01*
X166426372Y-107200793D01*
X166611207Y-107385628D01*
X166828550Y-107530852D01*
X167070048Y-107630884D01*
X167326422Y-107681880D01*
X167587818Y-107681880D01*
X167844192Y-107630884D01*
X168085690Y-107530852D01*
X168303033Y-107385628D01*
X168487868Y-107200793D01*
X168633092Y-106983450D01*
X168733124Y-106741952D01*
X168784120Y-106485578D01*
X168784120Y-106224182D01*
X168733124Y-105967808D01*
X168633092Y-105726310D01*
X168487868Y-105508967D01*
X168303033Y-105324132D01*
X168085690Y-105178908D01*
X167844192Y-105078876D01*
X167587818Y-105027880D01*
X167326422Y-105027880D01*
X167070048Y-105078876D01*
X166828550Y-105178908D01*
X166611207Y-105324132D01*
X166426372Y-105508967D01*
X166281148Y-105726310D01*
X166181116Y-105967808D01*
X166130120Y-106224182D01*
X165312106Y-106224182D01*
X165291424Y-106120208D01*
X165191392Y-105878710D01*
X165046168Y-105661367D01*
X164861333Y-105476532D01*
X164643990Y-105331308D01*
X164402492Y-105231276D01*
X164146118Y-105180280D01*
X163884722Y-105180280D01*
X163628348Y-105231276D01*
X163386850Y-105331308D01*
X163169507Y-105476532D01*
X162984672Y-105661367D01*
X162839448Y-105878710D01*
X162739416Y-106120208D01*
X162688420Y-106376582D01*
X161169200Y-106376582D01*
X161169200Y-106249582D01*
X161118204Y-105993208D01*
X161018172Y-105751710D01*
X160872948Y-105534367D01*
X160688113Y-105349532D01*
X160470770Y-105204308D01*
X160229272Y-105104276D01*
X159972898Y-105053280D01*
X159711502Y-105053280D01*
X159455128Y-105104276D01*
X159213630Y-105204308D01*
X158996287Y-105349532D01*
X158811452Y-105534367D01*
X158666228Y-105751710D01*
X158566196Y-105993208D01*
X158515200Y-106249582D01*
X157032385Y-106249582D01*
X157194721Y-106191450D01*
X157435971Y-106046765D01*
X157644359Y-105857794D01*
X157811877Y-105631800D01*
X157932086Y-105377467D01*
X157972744Y-105243419D01*
X157850755Y-105021380D01*
X156707840Y-105021380D01*
X156453840Y-105021380D01*
X155310925Y-105021380D01*
X155188936Y-105243419D01*
X150028412Y-105243419D01*
X150054160Y-105113978D01*
X150054160Y-104852582D01*
X150003164Y-104596208D01*
X149982095Y-104545341D01*
X155188936Y-104545341D01*
X155310925Y-104767380D01*
X156453840Y-104767380D01*
X156453840Y-103623756D01*
X156707840Y-103623756D01*
X156707840Y-104767380D01*
X157850755Y-104767380D01*
X157972744Y-104545341D01*
X157932086Y-104411293D01*
X157811877Y-104156960D01*
X157644359Y-103930966D01*
X157435971Y-103741995D01*
X157194721Y-103597310D01*
X157153593Y-103582582D01*
X158604100Y-103582582D01*
X158604100Y-103843978D01*
X158655096Y-104100352D01*
X158755128Y-104341850D01*
X158900352Y-104559193D01*
X159085187Y-104744028D01*
X159302530Y-104889252D01*
X159544028Y-104989284D01*
X159800402Y-105040280D01*
X160061798Y-105040280D01*
X160318172Y-104989284D01*
X160559670Y-104889252D01*
X160777013Y-104744028D01*
X160961848Y-104559193D01*
X161107072Y-104341850D01*
X161207104Y-104100352D01*
X161258100Y-103843978D01*
X161258100Y-103582582D01*
X162655400Y-103582582D01*
X162655400Y-103843978D01*
X162706396Y-104100352D01*
X162806428Y-104341850D01*
X162951652Y-104559193D01*
X163136487Y-104744028D01*
X163353830Y-104889252D01*
X163595328Y-104989284D01*
X163851702Y-105040280D01*
X164113098Y-105040280D01*
X164369472Y-104989284D01*
X164610970Y-104889252D01*
X164828313Y-104744028D01*
X165013148Y-104559193D01*
X165158372Y-104341850D01*
X165258404Y-104100352D01*
X165309400Y-103843978D01*
X165309400Y-103582582D01*
X165283128Y-103450502D01*
X166320620Y-103450502D01*
X166320620Y-103711898D01*
X166371616Y-103968272D01*
X166471648Y-104209770D01*
X166616872Y-104427113D01*
X166801707Y-104611948D01*
X167019050Y-104757172D01*
X167260548Y-104857204D01*
X167516922Y-104908200D01*
X167778318Y-104908200D01*
X168034692Y-104857204D01*
X168276190Y-104757172D01*
X168493533Y-104611948D01*
X168678368Y-104427113D01*
X168823592Y-104209770D01*
X168923624Y-103968272D01*
X168974620Y-103711898D01*
X168974620Y-103450502D01*
X168923624Y-103194128D01*
X168823592Y-102952630D01*
X168678368Y-102735287D01*
X168493533Y-102550452D01*
X168276190Y-102405228D01*
X168034692Y-102305196D01*
X167778318Y-102254200D01*
X167516922Y-102254200D01*
X167260548Y-102305196D01*
X167019050Y-102405228D01*
X166801707Y-102550452D01*
X166616872Y-102735287D01*
X166471648Y-102952630D01*
X166371616Y-103194128D01*
X166320620Y-103450502D01*
X165283128Y-103450502D01*
X165258404Y-103326208D01*
X165158372Y-103084710D01*
X165013148Y-102867367D01*
X164828313Y-102682532D01*
X164610970Y-102537308D01*
X164369472Y-102437276D01*
X164113098Y-102386280D01*
X163851702Y-102386280D01*
X163595328Y-102437276D01*
X163353830Y-102537308D01*
X163136487Y-102682532D01*
X162951652Y-102867367D01*
X162806428Y-103084710D01*
X162706396Y-103326208D01*
X162655400Y-103582582D01*
X161258100Y-103582582D01*
X161207104Y-103326208D01*
X161107072Y-103084710D01*
X160961848Y-102867367D01*
X160777013Y-102682532D01*
X160559670Y-102537308D01*
X160318172Y-102437276D01*
X160061798Y-102386280D01*
X159800402Y-102386280D01*
X159544028Y-102437276D01*
X159302530Y-102537308D01*
X159085187Y-102682532D01*
X158900352Y-102867367D01*
X158755128Y-103084710D01*
X158655096Y-103326208D01*
X158604100Y-103582582D01*
X157153593Y-103582582D01*
X156929880Y-103502471D01*
X156707840Y-103623756D01*
X156453840Y-103623756D01*
X156231800Y-103502471D01*
X155966959Y-103597310D01*
X155725709Y-103741995D01*
X155517321Y-103930966D01*
X155349803Y-104156960D01*
X155229594Y-104411293D01*
X155188936Y-104545341D01*
X149982095Y-104545341D01*
X149903132Y-104354710D01*
X149757908Y-104137367D01*
X149573073Y-103952532D01*
X149355730Y-103807308D01*
X149114232Y-103707276D01*
X148857858Y-103656280D01*
X148596462Y-103656280D01*
X148340088Y-103707276D01*
X148098590Y-103807308D01*
X147881247Y-103952532D01*
X147696412Y-104137367D01*
X147551188Y-104354710D01*
X147451156Y-104596208D01*
X147400160Y-104852582D01*
X145607840Y-104852582D01*
X145607840Y-104724285D01*
X145541472Y-104390633D01*
X145411287Y-104076339D01*
X145222288Y-103793482D01*
X144981738Y-103552932D01*
X144698881Y-103363933D01*
X144384587Y-103233748D01*
X144050935Y-103167380D01*
X143710745Y-103167380D01*
X143377093Y-103233748D01*
X143062799Y-103363933D01*
X142779942Y-103552932D01*
X142539392Y-103793482D01*
X142350393Y-104076339D01*
X142220208Y-104390633D01*
X142153840Y-104724285D01*
X140364429Y-104724285D01*
X140577292Y-104681944D01*
X140818790Y-104581912D01*
X141036133Y-104436688D01*
X141220968Y-104251853D01*
X141366192Y-104034510D01*
X141466224Y-103793012D01*
X141517220Y-103536638D01*
X141517220Y-103275242D01*
X141466224Y-103018868D01*
X141366192Y-102777370D01*
X141220968Y-102560027D01*
X141036133Y-102375192D01*
X140818790Y-102229968D01*
X140577292Y-102129936D01*
X140320918Y-102078940D01*
X140059522Y-102078940D01*
X139803148Y-102129936D01*
X139561650Y-102229968D01*
X139344307Y-102375192D01*
X139159472Y-102560027D01*
X139014248Y-102777370D01*
X138914216Y-103018868D01*
X138863220Y-103275242D01*
X138664800Y-103275242D01*
X138664800Y-103265082D01*
X138613804Y-103008708D01*
X138513772Y-102767210D01*
X138368548Y-102549867D01*
X138183713Y-102365032D01*
X137966370Y-102219808D01*
X137724872Y-102119776D01*
X137468498Y-102068780D01*
X137207102Y-102068780D01*
X136950728Y-102119776D01*
X136709230Y-102219808D01*
X136491887Y-102365032D01*
X136307052Y-102549867D01*
X136161828Y-102767210D01*
X136061796Y-103008708D01*
X136010800Y-103265082D01*
X106862880Y-103265082D01*
X106862880Y-101634402D01*
X146838820Y-101634402D01*
X146838820Y-101895798D01*
X146889816Y-102152172D01*
X146989848Y-102393670D01*
X147135072Y-102611013D01*
X147319907Y-102795848D01*
X147537250Y-102941072D01*
X147778748Y-103041104D01*
X148035122Y-103092100D01*
X148296518Y-103092100D01*
X148552892Y-103041104D01*
X148794390Y-102941072D01*
X149011733Y-102795848D01*
X149196568Y-102611013D01*
X149341792Y-102393670D01*
X149441824Y-102152172D01*
X149492820Y-101895798D01*
X149492820Y-101634402D01*
X151131420Y-101634402D01*
X151131420Y-101895798D01*
X151182416Y-102152172D01*
X151282448Y-102393670D01*
X151427672Y-102611013D01*
X151612507Y-102795848D01*
X151829850Y-102941072D01*
X152071348Y-103041104D01*
X152327722Y-103092100D01*
X152589118Y-103092100D01*
X152845492Y-103041104D01*
X153086990Y-102941072D01*
X153304333Y-102795848D01*
X153489168Y-102611013D01*
X153634392Y-102393670D01*
X153734424Y-102152172D01*
X153785420Y-101895798D01*
X153785420Y-101634402D01*
X155393540Y-101634402D01*
X155393540Y-101895798D01*
X155444536Y-102152172D01*
X155544568Y-102393670D01*
X155689792Y-102611013D01*
X155874627Y-102795848D01*
X156091970Y-102941072D01*
X156333468Y-103041104D01*
X156589842Y-103092100D01*
X156851238Y-103092100D01*
X157107612Y-103041104D01*
X157349110Y-102941072D01*
X157566453Y-102795848D01*
X157751288Y-102611013D01*
X157896512Y-102393670D01*
X157996544Y-102152172D01*
X158047540Y-101895798D01*
X158047540Y-101634402D01*
X157996544Y-101378028D01*
X157896512Y-101136530D01*
X157751288Y-100919187D01*
X157566453Y-100734352D01*
X157349110Y-100589128D01*
X157107612Y-100489096D01*
X156851238Y-100438100D01*
X156589842Y-100438100D01*
X156333468Y-100489096D01*
X156091970Y-100589128D01*
X155874627Y-100734352D01*
X155689792Y-100919187D01*
X155544568Y-101136530D01*
X155444536Y-101378028D01*
X155393540Y-101634402D01*
X153785420Y-101634402D01*
X153734424Y-101378028D01*
X153634392Y-101136530D01*
X153489168Y-100919187D01*
X153304333Y-100734352D01*
X153086990Y-100589128D01*
X152845492Y-100489096D01*
X152589118Y-100438100D01*
X152327722Y-100438100D01*
X152071348Y-100489096D01*
X151829850Y-100589128D01*
X151612507Y-100734352D01*
X151427672Y-100919187D01*
X151282448Y-101136530D01*
X151182416Y-101378028D01*
X151131420Y-101634402D01*
X149492820Y-101634402D01*
X149441824Y-101378028D01*
X149341792Y-101136530D01*
X149196568Y-100919187D01*
X149011733Y-100734352D01*
X148794390Y-100589128D01*
X148552892Y-100489096D01*
X148296518Y-100438100D01*
X148035122Y-100438100D01*
X147778748Y-100489096D01*
X147537250Y-100589128D01*
X147319907Y-100734352D01*
X147135072Y-100919187D01*
X146989848Y-101136530D01*
X146889816Y-101378028D01*
X146838820Y-101634402D01*
X106862880Y-101634402D01*
X106862880Y-100151042D01*
X138804800Y-100151042D01*
X138804800Y-100412438D01*
X138855796Y-100668812D01*
X138955828Y-100910310D01*
X139101052Y-101127653D01*
X139285887Y-101312488D01*
X139503230Y-101457712D01*
X139744728Y-101557744D01*
X140001102Y-101608740D01*
X140262498Y-101608740D01*
X140518872Y-101557744D01*
X140760370Y-101457712D01*
X140977713Y-101312488D01*
X141162548Y-101127653D01*
X141307772Y-100910310D01*
X141407804Y-100668812D01*
X141458800Y-100412438D01*
X141458800Y-100151042D01*
X141448696Y-100100242D01*
X141461640Y-100100242D01*
X141461640Y-100361638D01*
X141512636Y-100618012D01*
X141612668Y-100859510D01*
X141757892Y-101076853D01*
X141942727Y-101261688D01*
X142160070Y-101406912D01*
X142401568Y-101506944D01*
X142657942Y-101557940D01*
X142919338Y-101557940D01*
X143175712Y-101506944D01*
X143417210Y-101406912D01*
X143634553Y-101261688D01*
X143819388Y-101076853D01*
X143964612Y-100859510D01*
X144064644Y-100618012D01*
X144101834Y-100431046D01*
X144144076Y-100643412D01*
X144244108Y-100884910D01*
X144389332Y-101102253D01*
X144574167Y-101287088D01*
X144791510Y-101432312D01*
X145033008Y-101532344D01*
X145289382Y-101583340D01*
X145550778Y-101583340D01*
X145807152Y-101532344D01*
X146048650Y-101432312D01*
X146265993Y-101287088D01*
X146450828Y-101102253D01*
X146596052Y-100884910D01*
X146696084Y-100643412D01*
X146747080Y-100387038D01*
X146747080Y-100252642D01*
X158566000Y-100252642D01*
X158566000Y-100514038D01*
X158616996Y-100770412D01*
X158717028Y-101011910D01*
X158862252Y-101229253D01*
X159047087Y-101414088D01*
X159264430Y-101559312D01*
X159505928Y-101659344D01*
X159762302Y-101710340D01*
X160023698Y-101710340D01*
X160280072Y-101659344D01*
X160521570Y-101559312D01*
X160738913Y-101414088D01*
X160923748Y-101229253D01*
X161068972Y-101011910D01*
X161169004Y-100770412D01*
X161220000Y-100514038D01*
X161220000Y-100252642D01*
X161209896Y-100201842D01*
X161652100Y-100201842D01*
X161652100Y-100463238D01*
X161703096Y-100719612D01*
X161803128Y-100961110D01*
X161948352Y-101178453D01*
X162133187Y-101363288D01*
X162350530Y-101508512D01*
X162592028Y-101608544D01*
X162848402Y-101659540D01*
X163109798Y-101659540D01*
X163366172Y-101608544D01*
X163607670Y-101508512D01*
X163825013Y-101363288D01*
X164009848Y-101178453D01*
X164155072Y-100961110D01*
X164255104Y-100719612D01*
X164306100Y-100463238D01*
X164306100Y-100201842D01*
X164290943Y-100125642D01*
X164461340Y-100125642D01*
X164461340Y-100387038D01*
X164512336Y-100643412D01*
X164612368Y-100884910D01*
X164757592Y-101102253D01*
X164942427Y-101287088D01*
X165159770Y-101432312D01*
X165401268Y-101532344D01*
X165657642Y-101583340D01*
X165919038Y-101583340D01*
X166175412Y-101532344D01*
X166416910Y-101432312D01*
X166634253Y-101287088D01*
X166819088Y-101102253D01*
X166964312Y-100884910D01*
X167064344Y-100643412D01*
X167115340Y-100387038D01*
X167115340Y-100125642D01*
X167064344Y-99869268D01*
X166964312Y-99627770D01*
X166819088Y-99410427D01*
X166634253Y-99225592D01*
X166416910Y-99080368D01*
X166175412Y-98980336D01*
X165919038Y-98929340D01*
X165657642Y-98929340D01*
X165401268Y-98980336D01*
X165159770Y-99080368D01*
X164942427Y-99225592D01*
X164757592Y-99410427D01*
X164612368Y-99627770D01*
X164512336Y-99869268D01*
X164461340Y-100125642D01*
X164290943Y-100125642D01*
X164255104Y-99945468D01*
X164155072Y-99703970D01*
X164009848Y-99486627D01*
X163825013Y-99301792D01*
X163607670Y-99156568D01*
X163366172Y-99056536D01*
X163109798Y-99005540D01*
X162848402Y-99005540D01*
X162592028Y-99056536D01*
X162350530Y-99156568D01*
X162133187Y-99301792D01*
X161948352Y-99486627D01*
X161803128Y-99703970D01*
X161703096Y-99945468D01*
X161652100Y-100201842D01*
X161209896Y-100201842D01*
X161169004Y-99996268D01*
X161068972Y-99754770D01*
X160923748Y-99537427D01*
X160738913Y-99352592D01*
X160521570Y-99207368D01*
X160280072Y-99107336D01*
X160023698Y-99056340D01*
X159762302Y-99056340D01*
X159505928Y-99107336D01*
X159264430Y-99207368D01*
X159047087Y-99352592D01*
X158862252Y-99537427D01*
X158717028Y-99754770D01*
X158616996Y-99996268D01*
X158566000Y-100252642D01*
X146747080Y-100252642D01*
X146747080Y-100125642D01*
X146696084Y-99869268D01*
X146596052Y-99627770D01*
X146450828Y-99410427D01*
X146265993Y-99225592D01*
X146048650Y-99080368D01*
X145807152Y-98980336D01*
X145550778Y-98929340D01*
X145289382Y-98929340D01*
X145033008Y-98980336D01*
X144791510Y-99080368D01*
X144574167Y-99225592D01*
X144389332Y-99410427D01*
X144244108Y-99627770D01*
X144144076Y-99869268D01*
X144106886Y-100056234D01*
X144064644Y-99843868D01*
X143964612Y-99602370D01*
X143819388Y-99385027D01*
X143634553Y-99200192D01*
X143417210Y-99054968D01*
X143175712Y-98954936D01*
X142919338Y-98903940D01*
X142657942Y-98903940D01*
X142401568Y-98954936D01*
X142160070Y-99054968D01*
X141942727Y-99200192D01*
X141757892Y-99385027D01*
X141612668Y-99602370D01*
X141512636Y-99843868D01*
X141461640Y-100100242D01*
X141448696Y-100100242D01*
X141407804Y-99894668D01*
X141307772Y-99653170D01*
X141162548Y-99435827D01*
X140977713Y-99250992D01*
X140760370Y-99105768D01*
X140518872Y-99005736D01*
X140262498Y-98954740D01*
X140001102Y-98954740D01*
X139744728Y-99005736D01*
X139503230Y-99105768D01*
X139285887Y-99250992D01*
X139101052Y-99435827D01*
X138955828Y-99653170D01*
X138855796Y-99894668D01*
X138804800Y-100151042D01*
X106862880Y-100151042D01*
X106862880Y-97264194D01*
X107262901Y-97429889D01*
X107751112Y-97527000D01*
X108248888Y-97527000D01*
X108737099Y-97429889D01*
X109004947Y-97318942D01*
X139640460Y-97318942D01*
X139640460Y-97580338D01*
X139691456Y-97836712D01*
X139791488Y-98078210D01*
X139936712Y-98295553D01*
X140121547Y-98480388D01*
X140338890Y-98625612D01*
X140580388Y-98725644D01*
X140836762Y-98776640D01*
X141098158Y-98776640D01*
X141354532Y-98725644D01*
X141596030Y-98625612D01*
X141813373Y-98480388D01*
X141998208Y-98295553D01*
X142143432Y-98078210D01*
X142243464Y-97836712D01*
X142294460Y-97580338D01*
X142294460Y-97318942D01*
X142289408Y-97293542D01*
X142624960Y-97293542D01*
X142624960Y-97554938D01*
X142675956Y-97811312D01*
X142775988Y-98052810D01*
X142921212Y-98270153D01*
X143106047Y-98454988D01*
X143323390Y-98600212D01*
X143564888Y-98700244D01*
X143821262Y-98751240D01*
X144082658Y-98751240D01*
X144339032Y-98700244D01*
X144580530Y-98600212D01*
X144797873Y-98454988D01*
X144982708Y-98270153D01*
X145127932Y-98052810D01*
X145227964Y-97811312D01*
X145278960Y-97554938D01*
X145278960Y-97293542D01*
X145227964Y-97037168D01*
X145127932Y-96795670D01*
X144982708Y-96578327D01*
X144797873Y-96393492D01*
X144580530Y-96248268D01*
X144339032Y-96148236D01*
X144082658Y-96097240D01*
X143821262Y-96097240D01*
X143564888Y-96148236D01*
X143323390Y-96248268D01*
X143106047Y-96393492D01*
X142921212Y-96578327D01*
X142775988Y-96795670D01*
X142675956Y-97037168D01*
X142624960Y-97293542D01*
X142289408Y-97293542D01*
X142243464Y-97062568D01*
X142143432Y-96821070D01*
X141998208Y-96603727D01*
X141813373Y-96418892D01*
X141596030Y-96273668D01*
X141354532Y-96173636D01*
X141098158Y-96122640D01*
X140836762Y-96122640D01*
X140580388Y-96173636D01*
X140338890Y-96273668D01*
X140121547Y-96418892D01*
X139936712Y-96603727D01*
X139791488Y-96821070D01*
X139691456Y-97062568D01*
X139640460Y-97318942D01*
X109004947Y-97318942D01*
X109196983Y-97239398D01*
X109610869Y-96962849D01*
X109962849Y-96610869D01*
X110239398Y-96196983D01*
X110338115Y-95958660D01*
X148020431Y-95958660D01*
X148018448Y-96613500D01*
G37*
X148018448Y-96613500D02*
X148030708Y-96737982D01*
X148067018Y-96857680D01*
X148125983Y-96967994D01*
X148205335Y-97064685D01*
X148302026Y-97144037D01*
X148412340Y-97203002D01*
X148532038Y-97239312D01*
X148656520Y-97251572D01*
X149670770Y-97248500D01*
X149829520Y-97089750D01*
X149829520Y-95958660D01*
X150083520Y-95958660D01*
X150083520Y-97089750D01*
X150242270Y-97248500D01*
X151256520Y-97251572D01*
X151381002Y-97239312D01*
X151500700Y-97203002D01*
X151611014Y-97144037D01*
X151707705Y-97064685D01*
X151787057Y-96967994D01*
X151846022Y-96857680D01*
X151882332Y-96737982D01*
X151894592Y-96613500D01*
X151892609Y-95958660D01*
X152894220Y-95958660D01*
X152895102Y-95963092D01*
X153062978Y-96368380D01*
X153306696Y-96733130D01*
X153616890Y-97043324D01*
X153981640Y-97287042D01*
X154363778Y-97445329D01*
X154185527Y-97564432D01*
X154000692Y-97749267D01*
X153855468Y-97966610D01*
X153755436Y-98208108D01*
X153704440Y-98464482D01*
X153704440Y-98725878D01*
X153755436Y-98982252D01*
X153855468Y-99223750D01*
X154000692Y-99441093D01*
X154185527Y-99625928D01*
X154402870Y-99771152D01*
X154644368Y-99871184D01*
X154900742Y-99922180D01*
X155162138Y-99922180D01*
X155418512Y-99871184D01*
X155660010Y-99771152D01*
X155877353Y-99625928D01*
X156062188Y-99441093D01*
X156207412Y-99223750D01*
X156307444Y-98982252D01*
X156358440Y-98725878D01*
X156358440Y-98464482D01*
X156307444Y-98208108D01*
X156207412Y-97966610D01*
X156062188Y-97749267D01*
X155877353Y-97564432D01*
X155702991Y-97447927D01*
X156075707Y-97293542D01*
X158715860Y-97293542D01*
X158715860Y-97554938D01*
X158766856Y-97811312D01*
X158866888Y-98052810D01*
X159012112Y-98270153D01*
X159196947Y-98454988D01*
X159414290Y-98600212D01*
X159655788Y-98700244D01*
X159912162Y-98751240D01*
X160173558Y-98751240D01*
X160429932Y-98700244D01*
X160671430Y-98600212D01*
X160888773Y-98454988D01*
X161073608Y-98270153D01*
X161218832Y-98052810D01*
X161318864Y-97811312D01*
X161369860Y-97554938D01*
X161369860Y-97293542D01*
X161359756Y-97242742D01*
X162106760Y-97242742D01*
X162106760Y-97504138D01*
X162157756Y-97760512D01*
X162257788Y-98002010D01*
X162403012Y-98219353D01*
X162587847Y-98404188D01*
X162805190Y-98549412D01*
X163046688Y-98649444D01*
X163303062Y-98700440D01*
X163564458Y-98700440D01*
X163820832Y-98649444D01*
X164062330Y-98549412D01*
X164279673Y-98404188D01*
X164464508Y-98219353D01*
X164609732Y-98002010D01*
X164709764Y-97760512D01*
X164760760Y-97504138D01*
X164760760Y-97242742D01*
X164709764Y-96986368D01*
X164609732Y-96744870D01*
X164464508Y-96527527D01*
X164279673Y-96342692D01*
X164062330Y-96197468D01*
X163820832Y-96097436D01*
X163564458Y-96046440D01*
X163303062Y-96046440D01*
X163046688Y-96097436D01*
X162805190Y-96197468D01*
X162587847Y-96342692D01*
X162403012Y-96527527D01*
X162257788Y-96744870D01*
X162157756Y-96986368D01*
X162106760Y-97242742D01*
X161359756Y-97242742D01*
X161318864Y-97037168D01*
X161218832Y-96795670D01*
X161073608Y-96578327D01*
X160888773Y-96393492D01*
X160671430Y-96248268D01*
X160429932Y-96148236D01*
X160173558Y-96097240D01*
X159912162Y-96097240D01*
X159655788Y-96148236D01*
X159414290Y-96248268D01*
X159196947Y-96393492D01*
X159012112Y-96578327D01*
X158866888Y-96795670D01*
X158766856Y-97037168D01*
X158715860Y-97293542D01*
X156075707Y-97293542D01*
X156091400Y-97287042D01*
X156456150Y-97043324D01*
X156766344Y-96733130D01*
X157010062Y-96368380D01*
X157177938Y-95963092D01*
X157178820Y-95958660D01*
X189661885Y-95958660D01*
X189760602Y-96196983D01*
X190037151Y-96610869D01*
X190389131Y-96962849D01*
X190803017Y-97239398D01*
X191262901Y-97429889D01*
X191751112Y-97527000D01*
X192248888Y-97527000D01*
X192737099Y-97429889D01*
X193196983Y-97239398D01*
X193299080Y-97171179D01*
X193299080Y-104828821D01*
X193196983Y-104760602D01*
X192737099Y-104570111D01*
X192248888Y-104473000D01*
X191751112Y-104473000D01*
X191262901Y-104570111D01*
X190803017Y-104760602D01*
X190389131Y-105037151D01*
X190037151Y-105389131D01*
X189760602Y-105803017D01*
X189570111Y-106262901D01*
X189473000Y-106751112D01*
X189473000Y-107248888D01*
X189570111Y-107737099D01*
X189760602Y-108196983D01*
X190037151Y-108610869D01*
X190389131Y-108962849D01*
X190803017Y-109239398D01*
X191262901Y-109429889D01*
X191751112Y-109527000D01*
X192248888Y-109527000D01*
X192737099Y-109429889D01*
X193196983Y-109239398D01*
X193299080Y-109171179D01*
X193299080Y-114472720D01*
X144423127Y-114472720D01*
X144566592Y-114258010D01*
X144666624Y-114016512D01*
X144717620Y-113760138D01*
X144717620Y-113498742D01*
X144666624Y-113242368D01*
X144566592Y-113000870D01*
X144421368Y-112783527D01*
X144236533Y-112598692D01*
X144019190Y-112453468D01*
X143777692Y-112353436D01*
X143521318Y-112302440D01*
X143259922Y-112302440D01*
X143003548Y-112353436D01*
X142762050Y-112453468D01*
X142544707Y-112598692D01*
X142359872Y-112783527D01*
X142214648Y-113000870D01*
X142114616Y-113242368D01*
X142063620Y-113498742D01*
X142063620Y-113760138D01*
X142114616Y-114016512D01*
X142214648Y-114258010D01*
X142358113Y-114472720D01*
X141170261Y-114472720D01*
X141210808Y-114432173D01*
X141356032Y-114214830D01*
X141456064Y-113973332D01*
X141507060Y-113716958D01*
X141507060Y-113455562D01*
X141456064Y-113199188D01*
X141356032Y-112957690D01*
X141210808Y-112740347D01*
X141025973Y-112555512D01*
X140808630Y-112410288D01*
X140567132Y-112310256D01*
X140310758Y-112259260D01*
X140049362Y-112259260D01*
X139792988Y-112310256D01*
X139551490Y-112410288D01*
X139334147Y-112555512D01*
X139149312Y-112740347D01*
X139004088Y-112957690D01*
X138904056Y-113199188D01*
X138853060Y-113455562D01*
X138853060Y-113716958D01*
X138904056Y-113973332D01*
X139004088Y-114214830D01*
X139149312Y-114432173D01*
X139189859Y-114472720D01*
X138157821Y-114472720D01*
X138244088Y-114386453D01*
X138389312Y-114169110D01*
X138489344Y-113927612D01*
X138540340Y-113671238D01*
X138540340Y-113409842D01*
X138489344Y-113153468D01*
X138389312Y-112911970D01*
X138244088Y-112694627D01*
X138059253Y-112509792D01*
X137841910Y-112364568D01*
X137600412Y-112264536D01*
X137344038Y-112213540D01*
X137082642Y-112213540D01*
X136826268Y-112264536D01*
X136584770Y-112364568D01*
X136367427Y-112509792D01*
X136182592Y-112694627D01*
X136037368Y-112911970D01*
X135937336Y-113153468D01*
X135886340Y-113409842D01*
X135886340Y-113671238D01*
X135937336Y-113927612D01*
X136037368Y-114169110D01*
X136182592Y-114386453D01*
X136268859Y-114472720D01*
X106862880Y-114472720D01*
X106862880Y-110671722D01*
X135886340Y-110671722D01*
X135886340Y-110933118D01*
X135937336Y-111189492D01*
X136037368Y-111430990D01*
X136182592Y-111648333D01*
X136367427Y-111833168D01*
X136584770Y-111978392D01*
X136826268Y-112078424D01*
X137082642Y-112129420D01*
X137344038Y-112129420D01*
X137600412Y-112078424D01*
X137841910Y-111978392D01*
X138059253Y-111833168D01*
X138244088Y-111648333D01*
X138389312Y-111430990D01*
X138489344Y-111189492D01*
X138540340Y-110933118D01*
X138540340Y-110671722D01*
X138507500Y-110506622D01*
X138761620Y-110506622D01*
X138761620Y-110768018D01*
X138812616Y-111024392D01*
X138912648Y-111265890D01*
X139057872Y-111483233D01*
X139242707Y-111668068D01*
X139460050Y-111813292D01*
X139701548Y-111913324D01*
X139957922Y-111964320D01*
X140219318Y-111964320D01*
X140475692Y-111913324D01*
X140717190Y-111813292D01*
X140934533Y-111668068D01*
X141119368Y-111483233D01*
X141264592Y-111265890D01*
X141364624Y-111024392D01*
X141415620Y-110768018D01*
X141415620Y-110559962D01*
X141982340Y-110559962D01*
X141982340Y-110821358D01*
X142033336Y-111077732D01*
X142133368Y-111319230D01*
X142278592Y-111536573D01*
X142463427Y-111721408D01*
X142680770Y-111866632D01*
X142922268Y-111966664D01*
X143178642Y-112017660D01*
X143440038Y-112017660D01*
X143696412Y-111966664D01*
X143729829Y-111952822D01*
X155006520Y-111952822D01*
X155006520Y-112214218D01*
X155057516Y-112470592D01*
X155157548Y-112712090D01*
X155302772Y-112929433D01*
X155487607Y-113114268D01*
X155704950Y-113259492D01*
X155946448Y-113359524D01*
X156202822Y-113410520D01*
X156464218Y-113410520D01*
X156720592Y-113359524D01*
X156962090Y-113259492D01*
X157179433Y-113114268D01*
X157364268Y-112929433D01*
X157476048Y-112762142D01*
X162736680Y-112762142D01*
X162736680Y-113023538D01*
X162787676Y-113279912D01*
X162887708Y-113521410D01*
X163032932Y-113738753D01*
X163217767Y-113923588D01*
X163435110Y-114068812D01*
X163676608Y-114168844D01*
X163932982Y-114219840D01*
X164194378Y-114219840D01*
X164450752Y-114168844D01*
X164692250Y-114068812D01*
X164909593Y-113923588D01*
X165094428Y-113738753D01*
X165239652Y-113521410D01*
X165339684Y-113279912D01*
X165390680Y-113023538D01*
X165390680Y-112866282D01*
X166003120Y-112866282D01*
X166003120Y-113127678D01*
X166054116Y-113384052D01*
X166154148Y-113625550D01*
X166299372Y-113842893D01*
X166484207Y-114027728D01*
X166701550Y-114172952D01*
X166943048Y-114272984D01*
X167199422Y-114323980D01*
X167460818Y-114323980D01*
X167717192Y-114272984D01*
X167958690Y-114172952D01*
X168176033Y-114027728D01*
X168360868Y-113842893D01*
X168506092Y-113625550D01*
X168606124Y-113384052D01*
X168657120Y-113127678D01*
X168657120Y-112866282D01*
X168606124Y-112609908D01*
X168506092Y-112368410D01*
X168360868Y-112151067D01*
X168176033Y-111966232D01*
X167958690Y-111821008D01*
X167717192Y-111720976D01*
X167460818Y-111669980D01*
X167199422Y-111669980D01*
X166943048Y-111720976D01*
X166701550Y-111821008D01*
X166484207Y-111966232D01*
X166299372Y-112151067D01*
X166154148Y-112368410D01*
X166054116Y-112609908D01*
X166003120Y-112866282D01*
X165390680Y-112866282D01*
X165390680Y-112762142D01*
X165339684Y-112505768D01*
X165239652Y-112264270D01*
X165094428Y-112046927D01*
X164909593Y-111862092D01*
X164692250Y-111716868D01*
X164450752Y-111616836D01*
X164194378Y-111565840D01*
X163932982Y-111565840D01*
X163676608Y-111616836D01*
X163435110Y-111716868D01*
X163217767Y-111862092D01*
X163032932Y-112046927D01*
X162887708Y-112264270D01*
X162787676Y-112505768D01*
X162736680Y-112762142D01*
X157476048Y-112762142D01*
X157509492Y-112712090D01*
X157609524Y-112470592D01*
X157660520Y-112214218D01*
X157660520Y-111952822D01*
X157609524Y-111696448D01*
X157509492Y-111454950D01*
X157364268Y-111237607D01*
X157179433Y-111052772D01*
X156962090Y-110907548D01*
X156720592Y-110807516D01*
X156464218Y-110756520D01*
X156202822Y-110756520D01*
X155946448Y-110807516D01*
X155704950Y-110907548D01*
X155487607Y-111052772D01*
X155302772Y-111237607D01*
X155157548Y-111454950D01*
X155057516Y-111696448D01*
X155006520Y-111952822D01*
X143729829Y-111952822D01*
X143937910Y-111866632D01*
X144155253Y-111721408D01*
X144340088Y-111536573D01*
X144485312Y-111319230D01*
X144585344Y-111077732D01*
X144636340Y-110821358D01*
X144636340Y-110559962D01*
X144585344Y-110303588D01*
X144485312Y-110062090D01*
X144340088Y-109844747D01*
X144155253Y-109659912D01*
X143937910Y-109514688D01*
X143696412Y-109414656D01*
X143561157Y-109387752D01*
X145311010Y-109387752D01*
X145311010Y-109649148D01*
X145362006Y-109905522D01*
X145462038Y-110147020D01*
X145607262Y-110364363D01*
X145792097Y-110549198D01*
X146009440Y-110694422D01*
X146250938Y-110794454D01*
X146507312Y-110845450D01*
X146768708Y-110845450D01*
X147025082Y-110794454D01*
X147266580Y-110694422D01*
X147483923Y-110549198D01*
X147668758Y-110364363D01*
X147813982Y-110147020D01*
X147914014Y-109905522D01*
X147965010Y-109649148D01*
X147965010Y-109387752D01*
X147925091Y-109187065D01*
X150380900Y-109187065D01*
X150380900Y-109527255D01*
X150447268Y-109860907D01*
X150577453Y-110175201D01*
X150766452Y-110458058D01*
X151007002Y-110698608D01*
X151289859Y-110887607D01*
X151604153Y-111017792D01*
X151937805Y-111084160D01*
X152277995Y-111084160D01*
X152611647Y-111017792D01*
X152925941Y-110887607D01*
X153208798Y-110698608D01*
X153449348Y-110458058D01*
X153638347Y-110175201D01*
X153768532Y-109860907D01*
X153834900Y-109527255D01*
X153834900Y-109282342D01*
X155949800Y-109282342D01*
X155949800Y-109543738D01*
X156000796Y-109800112D01*
X156100828Y-110041610D01*
X156246052Y-110258953D01*
X156430887Y-110443788D01*
X156648230Y-110589012D01*
X156889728Y-110689044D01*
X157146102Y-110740040D01*
X157407498Y-110740040D01*
X157663872Y-110689044D01*
X157905370Y-110589012D01*
X158122713Y-110443788D01*
X158307548Y-110258953D01*
X158452772Y-110041610D01*
X158552804Y-109800112D01*
X158571484Y-109706199D01*
X163415996Y-109706199D01*
X163456654Y-109840247D01*
X163576863Y-110094580D01*
X163744381Y-110320574D01*
X163952769Y-110509545D01*
X164194019Y-110654230D01*
X164458860Y-110749069D01*
X164680900Y-110627784D01*
X164680900Y-109484160D01*
X163537985Y-109484160D01*
X163415996Y-109706199D01*
X158571484Y-109706199D01*
X158603800Y-109543738D01*
X158603800Y-109282342D01*
X158552804Y-109025968D01*
X158545412Y-109008121D01*
X163415996Y-109008121D01*
X163537985Y-109230160D01*
X164680900Y-109230160D01*
X164680900Y-108086536D01*
X164934900Y-108086536D01*
X164934900Y-109230160D01*
X164954900Y-109230160D01*
X164954900Y-109484160D01*
X164934900Y-109484160D01*
X164934900Y-110627784D01*
X165156940Y-110749069D01*
X165421781Y-110654230D01*
X165663031Y-110509545D01*
X165871419Y-110320574D01*
X166038937Y-110094580D01*
X166105983Y-109952727D01*
X166107456Y-109960132D01*
X166207488Y-110201630D01*
X166352712Y-110418973D01*
X166537547Y-110603808D01*
X166754890Y-110749032D01*
X166996388Y-110849064D01*
X167252762Y-110900060D01*
X167514158Y-110900060D01*
X167770532Y-110849064D01*
X168012030Y-110749032D01*
X168229373Y-110603808D01*
X168414208Y-110418973D01*
X168559432Y-110201630D01*
X168659464Y-109960132D01*
X168710460Y-109703758D01*
X168710460Y-109442362D01*
X168659464Y-109185988D01*
X168559432Y-108944490D01*
X168414208Y-108727147D01*
X168229373Y-108542312D01*
X168012030Y-108397088D01*
X167770532Y-108297056D01*
X167514158Y-108246060D01*
X167252762Y-108246060D01*
X166996388Y-108297056D01*
X166754890Y-108397088D01*
X166537547Y-108542312D01*
X166352712Y-108727147D01*
X166207488Y-108944490D01*
X166191911Y-108982097D01*
X166159146Y-108874073D01*
X166038937Y-108619740D01*
X165871419Y-108393746D01*
X165663031Y-108204775D01*
X165421781Y-108060090D01*
X165156940Y-107965251D01*
X164934900Y-108086536D01*
X164680900Y-108086536D01*
X164458860Y-107965251D01*
X164194019Y-108060090D01*
X163952769Y-108204775D01*
X163744381Y-108393746D01*
X163576863Y-108619740D01*
X163456654Y-108874073D01*
X163415996Y-109008121D01*
X158545412Y-109008121D01*
X158452772Y-108784470D01*
X158307548Y-108567127D01*
X158122713Y-108382292D01*
X157905370Y-108237068D01*
X157663872Y-108137036D01*
X157407498Y-108086040D01*
X157146102Y-108086040D01*
X156889728Y-108137036D01*
X156648230Y-108237068D01*
X156430887Y-108382292D01*
X156246052Y-108567127D01*
X156100828Y-108784470D01*
X156000796Y-109025968D01*
X155949800Y-109282342D01*
X153834900Y-109282342D01*
X153834900Y-109187065D01*
X153768532Y-108853413D01*
X153638347Y-108539119D01*
X153449348Y-108256262D01*
X153208798Y-108015712D01*
X152925941Y-107826713D01*
X152611647Y-107696528D01*
X152277995Y-107630160D01*
X151937805Y-107630160D01*
X151604153Y-107696528D01*
X151289859Y-107826713D01*
X151007002Y-108015712D01*
X150766452Y-108256262D01*
X150577453Y-108539119D01*
X150447268Y-108853413D01*
X150380900Y-109187065D01*
X147925091Y-109187065D01*
X147914014Y-109131378D01*
X147813982Y-108889880D01*
X147668758Y-108672537D01*
X147483923Y-108487702D01*
X147266580Y-108342478D01*
X147025082Y-108242446D01*
X146768708Y-108191450D01*
X146507312Y-108191450D01*
X146250938Y-108242446D01*
X146009440Y-108342478D01*
X145792097Y-108487702D01*
X145607262Y-108672537D01*
X145462038Y-108889880D01*
X145362006Y-109131378D01*
X145311010Y-109387752D01*
X143561157Y-109387752D01*
X143440038Y-109363660D01*
X143178642Y-109363660D01*
X142922268Y-109414656D01*
X142680770Y-109514688D01*
X142463427Y-109659912D01*
X142278592Y-109844747D01*
X142133368Y-110062090D01*
X142033336Y-110303588D01*
X141982340Y-110559962D01*
X141415620Y-110559962D01*
X141415620Y-110506622D01*
X141364624Y-110250248D01*
X141264592Y-110008750D01*
X141119368Y-109791407D01*
X140934533Y-109606572D01*
X140717190Y-109461348D01*
X140475692Y-109361316D01*
X140219318Y-109310320D01*
X139957922Y-109310320D01*
X139701548Y-109361316D01*
X139460050Y-109461348D01*
X139242707Y-109606572D01*
X139057872Y-109791407D01*
X138912648Y-110008750D01*
X138812616Y-110250248D01*
X138761620Y-110506622D01*
X138507500Y-110506622D01*
X138489344Y-110415348D01*
X138389312Y-110173850D01*
X138244088Y-109956507D01*
X138059253Y-109771672D01*
X137841910Y-109626448D01*
X137600412Y-109526416D01*
X137344038Y-109475420D01*
X137082642Y-109475420D01*
X136826268Y-109526416D01*
X136584770Y-109626448D01*
X136367427Y-109771672D01*
X136182592Y-109956507D01*
X136037368Y-110173850D01*
X135937336Y-110415348D01*
X135886340Y-110671722D01*
X106862880Y-110671722D01*
X106862880Y-109264194D01*
X107262901Y-109429889D01*
X107751112Y-109527000D01*
X108248888Y-109527000D01*
X108737099Y-109429889D01*
X109196983Y-109239398D01*
X109610869Y-108962849D01*
X109962849Y-108610869D01*
X110239398Y-108196983D01*
X110429889Y-107737099D01*
X110527000Y-107248888D01*
X110527000Y-107247802D01*
X136010800Y-107247802D01*
X136010800Y-107509198D01*
X136061796Y-107765572D01*
X136161828Y-108007070D01*
X136307052Y-108224413D01*
X136491887Y-108409248D01*
X136709230Y-108554472D01*
X136950728Y-108654504D01*
X137207102Y-108705500D01*
X137468498Y-108705500D01*
X137724872Y-108654504D01*
X137966370Y-108554472D01*
X138183713Y-108409248D01*
X138368548Y-108224413D01*
X138513772Y-108007070D01*
X138613804Y-107765572D01*
X138664800Y-107509198D01*
X138664800Y-107247802D01*
X138650149Y-107174142D01*
X138863220Y-107174142D01*
X138863220Y-107435538D01*
X138914216Y-107691912D01*
X139014248Y-107933410D01*
X139159472Y-108150753D01*
X139344307Y-108335588D01*
X139561650Y-108480812D01*
X139803148Y-108580844D01*
X140059522Y-108631840D01*
X140320918Y-108631840D01*
X140577292Y-108580844D01*
X140818790Y-108480812D01*
X141036133Y-108335588D01*
X141220968Y-108150753D01*
X141366192Y-107933410D01*
X141466224Y-107691912D01*
X141517220Y-107435538D01*
X141517220Y-107174142D01*
X141466224Y-106917768D01*
X141366192Y-106676270D01*
X141220968Y-106458927D01*
X141036133Y-106274092D01*
X140818790Y-106128868D01*
X140577292Y-106028836D01*
X140320918Y-105977840D01*
X140059522Y-105977840D01*
X139803148Y-106028836D01*
X139561650Y-106128868D01*
X139344307Y-106274092D01*
X139159472Y-106458927D01*
X139014248Y-106676270D01*
X138914216Y-106917768D01*
X138863220Y-107174142D01*
X138650149Y-107174142D01*
X138613804Y-106991428D01*
X138513772Y-106749930D01*
X138368548Y-106532587D01*
X138183713Y-106347752D01*
X137966370Y-106202528D01*
X137724872Y-106102496D01*
X137468498Y-106051500D01*
X137207102Y-106051500D01*
X136950728Y-106102496D01*
X136709230Y-106202528D01*
X136491887Y-106347752D01*
X136307052Y-106532587D01*
X136161828Y-106749930D01*
X136061796Y-106991428D01*
X136010800Y-107247802D01*
X110527000Y-107247802D01*
X110527000Y-106751112D01*
X110429889Y-106262901D01*
X110239398Y-105803017D01*
X109962849Y-105389131D01*
X109610869Y-105037151D01*
X109196983Y-104760602D01*
X108737099Y-104570111D01*
X108248888Y-104473000D01*
X107751112Y-104473000D01*
X107262901Y-104570111D01*
X106862880Y-104735806D01*
X106862880Y-103265082D01*
X136010800Y-103265082D01*
X136010800Y-103526478D01*
X136061796Y-103782852D01*
X136161828Y-104024350D01*
X136307052Y-104241693D01*
X136491887Y-104426528D01*
X136709230Y-104571752D01*
X136950728Y-104671784D01*
X137207102Y-104722780D01*
X137468498Y-104722780D01*
X137724872Y-104671784D01*
X137966370Y-104571752D01*
X138183713Y-104426528D01*
X138368548Y-104241693D01*
X138513772Y-104024350D01*
X138613804Y-103782852D01*
X138664800Y-103526478D01*
X138664800Y-103275242D01*
X138863220Y-103275242D01*
X138863220Y-103536638D01*
X138914216Y-103793012D01*
X139014248Y-104034510D01*
X139159472Y-104251853D01*
X139344307Y-104436688D01*
X139561650Y-104581912D01*
X139803148Y-104681944D01*
X140059522Y-104732940D01*
X140320918Y-104732940D01*
X140364429Y-104724285D01*
X142153840Y-104724285D01*
X142153840Y-105064475D01*
X142220208Y-105398127D01*
X142350393Y-105712421D01*
X142539392Y-105995278D01*
X142779942Y-106235828D01*
X143062799Y-106424827D01*
X143377093Y-106555012D01*
X143710745Y-106621380D01*
X144050935Y-106621380D01*
X144384587Y-106555012D01*
X144698881Y-106424827D01*
X144981738Y-106235828D01*
X145222288Y-105995278D01*
X145411287Y-105712421D01*
X145541472Y-105398127D01*
X145607840Y-105064475D01*
X145607840Y-104852582D01*
X147400160Y-104852582D01*
X147400160Y-105113978D01*
X147451156Y-105370352D01*
X147551188Y-105611850D01*
X147696412Y-105829193D01*
X147881247Y-106014028D01*
X148098590Y-106159252D01*
X148340088Y-106259284D01*
X148596462Y-106310280D01*
X148857858Y-106310280D01*
X149114232Y-106259284D01*
X149355730Y-106159252D01*
X149573073Y-106014028D01*
X149757908Y-105829193D01*
X149903132Y-105611850D01*
X150003164Y-105370352D01*
X150028412Y-105243419D01*
X155188936Y-105243419D01*
X155229594Y-105377467D01*
X155349803Y-105631800D01*
X155517321Y-105857794D01*
X155725709Y-106046765D01*
X155966959Y-106191450D01*
X156231800Y-106286289D01*
X156453840Y-106165004D01*
X156453840Y-105021380D01*
X156707840Y-105021380D01*
X156707840Y-106165004D01*
X156929880Y-106286289D01*
X157032385Y-106249582D01*
X158515200Y-106249582D01*
X158515200Y-106510978D01*
X158566196Y-106767352D01*
X158666228Y-107008850D01*
X158811452Y-107226193D01*
X158996287Y-107411028D01*
X159213630Y-107556252D01*
X159455128Y-107656284D01*
X159711502Y-107707280D01*
X159972898Y-107707280D01*
X160229272Y-107656284D01*
X160470770Y-107556252D01*
X160688113Y-107411028D01*
X160872948Y-107226193D01*
X161018172Y-107008850D01*
X161118204Y-106767352D01*
X161169200Y-106510978D01*
X161169200Y-106376582D01*
X162688420Y-106376582D01*
X162688420Y-106637978D01*
X162739416Y-106894352D01*
X162839448Y-107135850D01*
X162984672Y-107353193D01*
X163169507Y-107538028D01*
X163386850Y-107683252D01*
X163628348Y-107783284D01*
X163884722Y-107834280D01*
X164146118Y-107834280D01*
X164402492Y-107783284D01*
X164643990Y-107683252D01*
X164861333Y-107538028D01*
X165046168Y-107353193D01*
X165191392Y-107135850D01*
X165291424Y-106894352D01*
X165342420Y-106637978D01*
X165342420Y-106376582D01*
X165312106Y-106224182D01*
X166130120Y-106224182D01*
X166130120Y-106485578D01*
X166181116Y-106741952D01*
X166281148Y-106983450D01*
X166426372Y-107200793D01*
X166611207Y-107385628D01*
X166828550Y-107530852D01*
X167070048Y-107630884D01*
X167326422Y-107681880D01*
X167587818Y-107681880D01*
X167844192Y-107630884D01*
X168085690Y-107530852D01*
X168303033Y-107385628D01*
X168487868Y-107200793D01*
X168633092Y-106983450D01*
X168733124Y-106741952D01*
X168784120Y-106485578D01*
X168784120Y-106224182D01*
X168733124Y-105967808D01*
X168633092Y-105726310D01*
X168487868Y-105508967D01*
X168303033Y-105324132D01*
X168085690Y-105178908D01*
X167844192Y-105078876D01*
X167587818Y-105027880D01*
X167326422Y-105027880D01*
X167070048Y-105078876D01*
X166828550Y-105178908D01*
X166611207Y-105324132D01*
X166426372Y-105508967D01*
X166281148Y-105726310D01*
X166181116Y-105967808D01*
X166130120Y-106224182D01*
X165312106Y-106224182D01*
X165291424Y-106120208D01*
X165191392Y-105878710D01*
X165046168Y-105661367D01*
X164861333Y-105476532D01*
X164643990Y-105331308D01*
X164402492Y-105231276D01*
X164146118Y-105180280D01*
X163884722Y-105180280D01*
X163628348Y-105231276D01*
X163386850Y-105331308D01*
X163169507Y-105476532D01*
X162984672Y-105661367D01*
X162839448Y-105878710D01*
X162739416Y-106120208D01*
X162688420Y-106376582D01*
X161169200Y-106376582D01*
X161169200Y-106249582D01*
X161118204Y-105993208D01*
X161018172Y-105751710D01*
X160872948Y-105534367D01*
X160688113Y-105349532D01*
X160470770Y-105204308D01*
X160229272Y-105104276D01*
X159972898Y-105053280D01*
X159711502Y-105053280D01*
X159455128Y-105104276D01*
X159213630Y-105204308D01*
X158996287Y-105349532D01*
X158811452Y-105534367D01*
X158666228Y-105751710D01*
X158566196Y-105993208D01*
X158515200Y-106249582D01*
X157032385Y-106249582D01*
X157194721Y-106191450D01*
X157435971Y-106046765D01*
X157644359Y-105857794D01*
X157811877Y-105631800D01*
X157932086Y-105377467D01*
X157972744Y-105243419D01*
X157850755Y-105021380D01*
X156707840Y-105021380D01*
X156453840Y-105021380D01*
X155310925Y-105021380D01*
X155188936Y-105243419D01*
X150028412Y-105243419D01*
X150054160Y-105113978D01*
X150054160Y-104852582D01*
X150003164Y-104596208D01*
X149982095Y-104545341D01*
X155188936Y-104545341D01*
X155310925Y-104767380D01*
X156453840Y-104767380D01*
X156453840Y-103623756D01*
X156707840Y-103623756D01*
X156707840Y-104767380D01*
X157850755Y-104767380D01*
X157972744Y-104545341D01*
X157932086Y-104411293D01*
X157811877Y-104156960D01*
X157644359Y-103930966D01*
X157435971Y-103741995D01*
X157194721Y-103597310D01*
X157153593Y-103582582D01*
X158604100Y-103582582D01*
X158604100Y-103843978D01*
X158655096Y-104100352D01*
X158755128Y-104341850D01*
X158900352Y-104559193D01*
X159085187Y-104744028D01*
X159302530Y-104889252D01*
X159544028Y-104989284D01*
X159800402Y-105040280D01*
X160061798Y-105040280D01*
X160318172Y-104989284D01*
X160559670Y-104889252D01*
X160777013Y-104744028D01*
X160961848Y-104559193D01*
X161107072Y-104341850D01*
X161207104Y-104100352D01*
X161258100Y-103843978D01*
X161258100Y-103582582D01*
X162655400Y-103582582D01*
X162655400Y-103843978D01*
X162706396Y-104100352D01*
X162806428Y-104341850D01*
X162951652Y-104559193D01*
X163136487Y-104744028D01*
X163353830Y-104889252D01*
X163595328Y-104989284D01*
X163851702Y-105040280D01*
X164113098Y-105040280D01*
X164369472Y-104989284D01*
X164610970Y-104889252D01*
X164828313Y-104744028D01*
X165013148Y-104559193D01*
X165158372Y-104341850D01*
X165258404Y-104100352D01*
X165309400Y-103843978D01*
X165309400Y-103582582D01*
X165283128Y-103450502D01*
X166320620Y-103450502D01*
X166320620Y-103711898D01*
X166371616Y-103968272D01*
X166471648Y-104209770D01*
X166616872Y-104427113D01*
X166801707Y-104611948D01*
X167019050Y-104757172D01*
X167260548Y-104857204D01*
X167516922Y-104908200D01*
X167778318Y-104908200D01*
X168034692Y-104857204D01*
X168276190Y-104757172D01*
X168493533Y-104611948D01*
X168678368Y-104427113D01*
X168823592Y-104209770D01*
X168923624Y-103968272D01*
X168974620Y-103711898D01*
X168974620Y-103450502D01*
X168923624Y-103194128D01*
X168823592Y-102952630D01*
X168678368Y-102735287D01*
X168493533Y-102550452D01*
X168276190Y-102405228D01*
X168034692Y-102305196D01*
X167778318Y-102254200D01*
X167516922Y-102254200D01*
X167260548Y-102305196D01*
X167019050Y-102405228D01*
X166801707Y-102550452D01*
X166616872Y-102735287D01*
X166471648Y-102952630D01*
X166371616Y-103194128D01*
X166320620Y-103450502D01*
X165283128Y-103450502D01*
X165258404Y-103326208D01*
X165158372Y-103084710D01*
X165013148Y-102867367D01*
X164828313Y-102682532D01*
X164610970Y-102537308D01*
X164369472Y-102437276D01*
X164113098Y-102386280D01*
X163851702Y-102386280D01*
X163595328Y-102437276D01*
X163353830Y-102537308D01*
X163136487Y-102682532D01*
X162951652Y-102867367D01*
X162806428Y-103084710D01*
X162706396Y-103326208D01*
X162655400Y-103582582D01*
X161258100Y-103582582D01*
X161207104Y-103326208D01*
X161107072Y-103084710D01*
X160961848Y-102867367D01*
X160777013Y-102682532D01*
X160559670Y-102537308D01*
X160318172Y-102437276D01*
X160061798Y-102386280D01*
X159800402Y-102386280D01*
X159544028Y-102437276D01*
X159302530Y-102537308D01*
X159085187Y-102682532D01*
X158900352Y-102867367D01*
X158755128Y-103084710D01*
X158655096Y-103326208D01*
X158604100Y-103582582D01*
X157153593Y-103582582D01*
X156929880Y-103502471D01*
X156707840Y-103623756D01*
X156453840Y-103623756D01*
X156231800Y-103502471D01*
X155966959Y-103597310D01*
X155725709Y-103741995D01*
X155517321Y-103930966D01*
X155349803Y-104156960D01*
X155229594Y-104411293D01*
X155188936Y-104545341D01*
X149982095Y-104545341D01*
X149903132Y-104354710D01*
X149757908Y-104137367D01*
X149573073Y-103952532D01*
X149355730Y-103807308D01*
X149114232Y-103707276D01*
X148857858Y-103656280D01*
X148596462Y-103656280D01*
X148340088Y-103707276D01*
X148098590Y-103807308D01*
X147881247Y-103952532D01*
X147696412Y-104137367D01*
X147551188Y-104354710D01*
X147451156Y-104596208D01*
X147400160Y-104852582D01*
X145607840Y-104852582D01*
X145607840Y-104724285D01*
X145541472Y-104390633D01*
X145411287Y-104076339D01*
X145222288Y-103793482D01*
X144981738Y-103552932D01*
X144698881Y-103363933D01*
X144384587Y-103233748D01*
X144050935Y-103167380D01*
X143710745Y-103167380D01*
X143377093Y-103233748D01*
X143062799Y-103363933D01*
X142779942Y-103552932D01*
X142539392Y-103793482D01*
X142350393Y-104076339D01*
X142220208Y-104390633D01*
X142153840Y-104724285D01*
X140364429Y-104724285D01*
X140577292Y-104681944D01*
X140818790Y-104581912D01*
X141036133Y-104436688D01*
X141220968Y-104251853D01*
X141366192Y-104034510D01*
X141466224Y-103793012D01*
X141517220Y-103536638D01*
X141517220Y-103275242D01*
X141466224Y-103018868D01*
X141366192Y-102777370D01*
X141220968Y-102560027D01*
X141036133Y-102375192D01*
X140818790Y-102229968D01*
X140577292Y-102129936D01*
X140320918Y-102078940D01*
X140059522Y-102078940D01*
X139803148Y-102129936D01*
X139561650Y-102229968D01*
X139344307Y-102375192D01*
X139159472Y-102560027D01*
X139014248Y-102777370D01*
X138914216Y-103018868D01*
X138863220Y-103275242D01*
X138664800Y-103275242D01*
X138664800Y-103265082D01*
X138613804Y-103008708D01*
X138513772Y-102767210D01*
X138368548Y-102549867D01*
X138183713Y-102365032D01*
X137966370Y-102219808D01*
X137724872Y-102119776D01*
X137468498Y-102068780D01*
X137207102Y-102068780D01*
X136950728Y-102119776D01*
X136709230Y-102219808D01*
X136491887Y-102365032D01*
X136307052Y-102549867D01*
X136161828Y-102767210D01*
X136061796Y-103008708D01*
X136010800Y-103265082D01*
X106862880Y-103265082D01*
X106862880Y-101634402D01*
X146838820Y-101634402D01*
X146838820Y-101895798D01*
X146889816Y-102152172D01*
X146989848Y-102393670D01*
X147135072Y-102611013D01*
X147319907Y-102795848D01*
X147537250Y-102941072D01*
X147778748Y-103041104D01*
X148035122Y-103092100D01*
X148296518Y-103092100D01*
X148552892Y-103041104D01*
X148794390Y-102941072D01*
X149011733Y-102795848D01*
X149196568Y-102611013D01*
X149341792Y-102393670D01*
X149441824Y-102152172D01*
X149492820Y-101895798D01*
X149492820Y-101634402D01*
X151131420Y-101634402D01*
X151131420Y-101895798D01*
X151182416Y-102152172D01*
X151282448Y-102393670D01*
X151427672Y-102611013D01*
X151612507Y-102795848D01*
X151829850Y-102941072D01*
X152071348Y-103041104D01*
X152327722Y-103092100D01*
X152589118Y-103092100D01*
X152845492Y-103041104D01*
X153086990Y-102941072D01*
X153304333Y-102795848D01*
X153489168Y-102611013D01*
X153634392Y-102393670D01*
X153734424Y-102152172D01*
X153785420Y-101895798D01*
X153785420Y-101634402D01*
X155393540Y-101634402D01*
X155393540Y-101895798D01*
X155444536Y-102152172D01*
X155544568Y-102393670D01*
X155689792Y-102611013D01*
X155874627Y-102795848D01*
X156091970Y-102941072D01*
X156333468Y-103041104D01*
X156589842Y-103092100D01*
X156851238Y-103092100D01*
X157107612Y-103041104D01*
X157349110Y-102941072D01*
X157566453Y-102795848D01*
X157751288Y-102611013D01*
X157896512Y-102393670D01*
X157996544Y-102152172D01*
X158047540Y-101895798D01*
X158047540Y-101634402D01*
X157996544Y-101378028D01*
X157896512Y-101136530D01*
X157751288Y-100919187D01*
X157566453Y-100734352D01*
X157349110Y-100589128D01*
X157107612Y-100489096D01*
X156851238Y-100438100D01*
X156589842Y-100438100D01*
X156333468Y-100489096D01*
X156091970Y-100589128D01*
X155874627Y-100734352D01*
X155689792Y-100919187D01*
X155544568Y-101136530D01*
X155444536Y-101378028D01*
X155393540Y-101634402D01*
X153785420Y-101634402D01*
X153734424Y-101378028D01*
X153634392Y-101136530D01*
X153489168Y-100919187D01*
X153304333Y-100734352D01*
X153086990Y-100589128D01*
X152845492Y-100489096D01*
X152589118Y-100438100D01*
X152327722Y-100438100D01*
X152071348Y-100489096D01*
X151829850Y-100589128D01*
X151612507Y-100734352D01*
X151427672Y-100919187D01*
X151282448Y-101136530D01*
X151182416Y-101378028D01*
X151131420Y-101634402D01*
X149492820Y-101634402D01*
X149441824Y-101378028D01*
X149341792Y-101136530D01*
X149196568Y-100919187D01*
X149011733Y-100734352D01*
X148794390Y-100589128D01*
X148552892Y-100489096D01*
X148296518Y-100438100D01*
X148035122Y-100438100D01*
X147778748Y-100489096D01*
X147537250Y-100589128D01*
X147319907Y-100734352D01*
X147135072Y-100919187D01*
X146989848Y-101136530D01*
X146889816Y-101378028D01*
X146838820Y-101634402D01*
X106862880Y-101634402D01*
X106862880Y-100151042D01*
X138804800Y-100151042D01*
X138804800Y-100412438D01*
X138855796Y-100668812D01*
X138955828Y-100910310D01*
X139101052Y-101127653D01*
X139285887Y-101312488D01*
X139503230Y-101457712D01*
X139744728Y-101557744D01*
X140001102Y-101608740D01*
X140262498Y-101608740D01*
X140518872Y-101557744D01*
X140760370Y-101457712D01*
X140977713Y-101312488D01*
X141162548Y-101127653D01*
X141307772Y-100910310D01*
X141407804Y-100668812D01*
X141458800Y-100412438D01*
X141458800Y-100151042D01*
X141448696Y-100100242D01*
X141461640Y-100100242D01*
X141461640Y-100361638D01*
X141512636Y-100618012D01*
X141612668Y-100859510D01*
X141757892Y-101076853D01*
X141942727Y-101261688D01*
X142160070Y-101406912D01*
X142401568Y-101506944D01*
X142657942Y-101557940D01*
X142919338Y-101557940D01*
X143175712Y-101506944D01*
X143417210Y-101406912D01*
X143634553Y-101261688D01*
X143819388Y-101076853D01*
X143964612Y-100859510D01*
X144064644Y-100618012D01*
X144101834Y-100431046D01*
X144144076Y-100643412D01*
X144244108Y-100884910D01*
X144389332Y-101102253D01*
X144574167Y-101287088D01*
X144791510Y-101432312D01*
X145033008Y-101532344D01*
X145289382Y-101583340D01*
X145550778Y-101583340D01*
X145807152Y-101532344D01*
X146048650Y-101432312D01*
X146265993Y-101287088D01*
X146450828Y-101102253D01*
X146596052Y-100884910D01*
X146696084Y-100643412D01*
X146747080Y-100387038D01*
X146747080Y-100252642D01*
X158566000Y-100252642D01*
X158566000Y-100514038D01*
X158616996Y-100770412D01*
X158717028Y-101011910D01*
X158862252Y-101229253D01*
X159047087Y-101414088D01*
X159264430Y-101559312D01*
X159505928Y-101659344D01*
X159762302Y-101710340D01*
X160023698Y-101710340D01*
X160280072Y-101659344D01*
X160521570Y-101559312D01*
X160738913Y-101414088D01*
X160923748Y-101229253D01*
X161068972Y-101011910D01*
X161169004Y-100770412D01*
X161220000Y-100514038D01*
X161220000Y-100252642D01*
X161209896Y-100201842D01*
X161652100Y-100201842D01*
X161652100Y-100463238D01*
X161703096Y-100719612D01*
X161803128Y-100961110D01*
X161948352Y-101178453D01*
X162133187Y-101363288D01*
X162350530Y-101508512D01*
X162592028Y-101608544D01*
X162848402Y-101659540D01*
X163109798Y-101659540D01*
X163366172Y-101608544D01*
X163607670Y-101508512D01*
X163825013Y-101363288D01*
X164009848Y-101178453D01*
X164155072Y-100961110D01*
X164255104Y-100719612D01*
X164306100Y-100463238D01*
X164306100Y-100201842D01*
X164290943Y-100125642D01*
X164461340Y-100125642D01*
X164461340Y-100387038D01*
X164512336Y-100643412D01*
X164612368Y-100884910D01*
X164757592Y-101102253D01*
X164942427Y-101287088D01*
X165159770Y-101432312D01*
X165401268Y-101532344D01*
X165657642Y-101583340D01*
X165919038Y-101583340D01*
X166175412Y-101532344D01*
X166416910Y-101432312D01*
X166634253Y-101287088D01*
X166819088Y-101102253D01*
X166964312Y-100884910D01*
X167064344Y-100643412D01*
X167115340Y-100387038D01*
X167115340Y-100125642D01*
X167064344Y-99869268D01*
X166964312Y-99627770D01*
X166819088Y-99410427D01*
X166634253Y-99225592D01*
X166416910Y-99080368D01*
X166175412Y-98980336D01*
X165919038Y-98929340D01*
X165657642Y-98929340D01*
X165401268Y-98980336D01*
X165159770Y-99080368D01*
X164942427Y-99225592D01*
X164757592Y-99410427D01*
X164612368Y-99627770D01*
X164512336Y-99869268D01*
X164461340Y-100125642D01*
X164290943Y-100125642D01*
X164255104Y-99945468D01*
X164155072Y-99703970D01*
X164009848Y-99486627D01*
X163825013Y-99301792D01*
X163607670Y-99156568D01*
X163366172Y-99056536D01*
X163109798Y-99005540D01*
X162848402Y-99005540D01*
X162592028Y-99056536D01*
X162350530Y-99156568D01*
X162133187Y-99301792D01*
X161948352Y-99486627D01*
X161803128Y-99703970D01*
X161703096Y-99945468D01*
X161652100Y-100201842D01*
X161209896Y-100201842D01*
X161169004Y-99996268D01*
X161068972Y-99754770D01*
X160923748Y-99537427D01*
X160738913Y-99352592D01*
X160521570Y-99207368D01*
X160280072Y-99107336D01*
X160023698Y-99056340D01*
X159762302Y-99056340D01*
X159505928Y-99107336D01*
X159264430Y-99207368D01*
X159047087Y-99352592D01*
X158862252Y-99537427D01*
X158717028Y-99754770D01*
X158616996Y-99996268D01*
X158566000Y-100252642D01*
X146747080Y-100252642D01*
X146747080Y-100125642D01*
X146696084Y-99869268D01*
X146596052Y-99627770D01*
X146450828Y-99410427D01*
X146265993Y-99225592D01*
X146048650Y-99080368D01*
X145807152Y-98980336D01*
X145550778Y-98929340D01*
X145289382Y-98929340D01*
X145033008Y-98980336D01*
X144791510Y-99080368D01*
X144574167Y-99225592D01*
X144389332Y-99410427D01*
X144244108Y-99627770D01*
X144144076Y-99869268D01*
X144106886Y-100056234D01*
X144064644Y-99843868D01*
X143964612Y-99602370D01*
X143819388Y-99385027D01*
X143634553Y-99200192D01*
X143417210Y-99054968D01*
X143175712Y-98954936D01*
X142919338Y-98903940D01*
X142657942Y-98903940D01*
X142401568Y-98954936D01*
X142160070Y-99054968D01*
X141942727Y-99200192D01*
X141757892Y-99385027D01*
X141612668Y-99602370D01*
X141512636Y-99843868D01*
X141461640Y-100100242D01*
X141448696Y-100100242D01*
X141407804Y-99894668D01*
X141307772Y-99653170D01*
X141162548Y-99435827D01*
X140977713Y-99250992D01*
X140760370Y-99105768D01*
X140518872Y-99005736D01*
X140262498Y-98954740D01*
X140001102Y-98954740D01*
X139744728Y-99005736D01*
X139503230Y-99105768D01*
X139285887Y-99250992D01*
X139101052Y-99435827D01*
X138955828Y-99653170D01*
X138855796Y-99894668D01*
X138804800Y-100151042D01*
X106862880Y-100151042D01*
X106862880Y-97264194D01*
X107262901Y-97429889D01*
X107751112Y-97527000D01*
X108248888Y-97527000D01*
X108737099Y-97429889D01*
X109004947Y-97318942D01*
X139640460Y-97318942D01*
X139640460Y-97580338D01*
X139691456Y-97836712D01*
X139791488Y-98078210D01*
X139936712Y-98295553D01*
X140121547Y-98480388D01*
X140338890Y-98625612D01*
X140580388Y-98725644D01*
X140836762Y-98776640D01*
X141098158Y-98776640D01*
X141354532Y-98725644D01*
X141596030Y-98625612D01*
X141813373Y-98480388D01*
X141998208Y-98295553D01*
X142143432Y-98078210D01*
X142243464Y-97836712D01*
X142294460Y-97580338D01*
X142294460Y-97318942D01*
X142289408Y-97293542D01*
X142624960Y-97293542D01*
X142624960Y-97554938D01*
X142675956Y-97811312D01*
X142775988Y-98052810D01*
X142921212Y-98270153D01*
X143106047Y-98454988D01*
X143323390Y-98600212D01*
X143564888Y-98700244D01*
X143821262Y-98751240D01*
X144082658Y-98751240D01*
X144339032Y-98700244D01*
X144580530Y-98600212D01*
X144797873Y-98454988D01*
X144982708Y-98270153D01*
X145127932Y-98052810D01*
X145227964Y-97811312D01*
X145278960Y-97554938D01*
X145278960Y-97293542D01*
X145227964Y-97037168D01*
X145127932Y-96795670D01*
X144982708Y-96578327D01*
X144797873Y-96393492D01*
X144580530Y-96248268D01*
X144339032Y-96148236D01*
X144082658Y-96097240D01*
X143821262Y-96097240D01*
X143564888Y-96148236D01*
X143323390Y-96248268D01*
X143106047Y-96393492D01*
X142921212Y-96578327D01*
X142775988Y-96795670D01*
X142675956Y-97037168D01*
X142624960Y-97293542D01*
X142289408Y-97293542D01*
X142243464Y-97062568D01*
X142143432Y-96821070D01*
X141998208Y-96603727D01*
X141813373Y-96418892D01*
X141596030Y-96273668D01*
X141354532Y-96173636D01*
X141098158Y-96122640D01*
X140836762Y-96122640D01*
X140580388Y-96173636D01*
X140338890Y-96273668D01*
X140121547Y-96418892D01*
X139936712Y-96603727D01*
X139791488Y-96821070D01*
X139691456Y-97062568D01*
X139640460Y-97318942D01*
X109004947Y-97318942D01*
X109196983Y-97239398D01*
X109610869Y-96962849D01*
X109962849Y-96610869D01*
X110239398Y-96196983D01*
X110338115Y-95958660D01*
X148020431Y-95958660D01*
X148018448Y-96613500D01*
G36*
X189937840Y-66102248D02*
G01*
X190192501Y-66483376D01*
X190516624Y-66807499D01*
X190897752Y-67062160D01*
X191321239Y-67237574D01*
X191770811Y-67327000D01*
X192229189Y-67327000D01*
X192678761Y-67237574D01*
X193102248Y-67062160D01*
X193483376Y-66807499D01*
X193535300Y-66755575D01*
X193535300Y-75244425D01*
X193483376Y-75192501D01*
X193102248Y-74937840D01*
X192678761Y-74762426D01*
X192229189Y-74673000D01*
X191770811Y-74673000D01*
X191321239Y-74762426D01*
X190897752Y-74937840D01*
X190516624Y-75192501D01*
X190192501Y-75516624D01*
X189937840Y-75897752D01*
X189762426Y-76321239D01*
X189673000Y-76770811D01*
X189673000Y-77229189D01*
X189762426Y-77678761D01*
X189937840Y-78102248D01*
X190192501Y-78483376D01*
X190516624Y-78807499D01*
X190897752Y-79062160D01*
X191321239Y-79237574D01*
X191770811Y-79327000D01*
X192229189Y-79327000D01*
X192678761Y-79237574D01*
X193102248Y-79062160D01*
X193483376Y-78807499D01*
X193535300Y-78755575D01*
X193535300Y-84498180D01*
X172185597Y-84498180D01*
X172185597Y-83221700D01*
X172171560Y-83079183D01*
X172129990Y-82942143D01*
X172062483Y-82815847D01*
X171971634Y-82705146D01*
X171860933Y-82614297D01*
X171734637Y-82546790D01*
X171597597Y-82505220D01*
X171455080Y-82491183D01*
X169931080Y-82491183D01*
X169788563Y-82505220D01*
X169651523Y-82546790D01*
X169525227Y-82614297D01*
X169414526Y-82705146D01*
X169323677Y-82815847D01*
X169256170Y-82942143D01*
X169214600Y-83079183D01*
X169200563Y-83221700D01*
X169200563Y-84498180D01*
X139844645Y-84498180D01*
X139811166Y-84475810D01*
X139533270Y-84360701D01*
X139238256Y-84302020D01*
X138937464Y-84302020D01*
X138642450Y-84360701D01*
X138364554Y-84475810D01*
X138331075Y-84498180D01*
X106347260Y-84498180D01*
X106347260Y-83129020D01*
X137649788Y-83129020D01*
X137662048Y-83253502D01*
X137698358Y-83373200D01*
X137757323Y-83483514D01*
X137836675Y-83580205D01*
X137933366Y-83659557D01*
X138043680Y-83718522D01*
X138163378Y-83754832D01*
X138287860Y-83767092D01*
X138802110Y-83764020D01*
X138960860Y-83605270D01*
X138960860Y-82456020D01*
X139214860Y-82456020D01*
X139214860Y-83605270D01*
X139373610Y-83764020D01*
X139887860Y-83767092D01*
X140012342Y-83754832D01*
X140132040Y-83718522D01*
X140242354Y-83659557D01*
X140339045Y-83580205D01*
X140418397Y-83483514D01*
X140477362Y-83373200D01*
X140513672Y-83253502D01*
X140525932Y-83129020D01*
X140522860Y-82614770D01*
X140364110Y-82456020D01*
X139214860Y-82456020D01*
X138960860Y-82456020D01*
X137811610Y-82456020D01*
X137652860Y-82614770D01*
X137649788Y-83129020D01*
X106347260Y-83129020D01*
X106347260Y-81448306D01*
X120624040Y-81448306D01*
X120624040Y-81741614D01*
X120681261Y-82029285D01*
X120793505Y-82300266D01*
X120956458Y-82544142D01*
X121163858Y-82751542D01*
X121407734Y-82914495D01*
X121678715Y-83026739D01*
X121966386Y-83083960D01*
X122259694Y-83083960D01*
X122547365Y-83026739D01*
X122818346Y-82914495D01*
X123062222Y-82751542D01*
X123269622Y-82544142D01*
X123432575Y-82300266D01*
X123544819Y-82029285D01*
X123602040Y-81741614D01*
X123602040Y-81529020D01*
X137649788Y-81529020D01*
X137652860Y-82043270D01*
X137811610Y-82202020D01*
X138960860Y-82202020D01*
X138960860Y-81052770D01*
X139214860Y-81052770D01*
X139214860Y-82202020D01*
X140364110Y-82202020D01*
X140522860Y-82043270D01*
X140525932Y-81529020D01*
X140513672Y-81404538D01*
X140481961Y-81300000D01*
X179555088Y-81300000D01*
X179567348Y-81424482D01*
X179603658Y-81544180D01*
X179662623Y-81654494D01*
X179741975Y-81751185D01*
X179838666Y-81830537D01*
X179948980Y-81889502D01*
X180068678Y-81925812D01*
X180193160Y-81938072D01*
X181207410Y-81935000D01*
X181366160Y-81776250D01*
X181366160Y-80127000D01*
X181620160Y-80127000D01*
X181620160Y-81776250D01*
X181778910Y-81935000D01*
X182793160Y-81938072D01*
X182917642Y-81925812D01*
X183037340Y-81889502D01*
X183147654Y-81830537D01*
X183244345Y-81751185D01*
X183323697Y-81654494D01*
X183382662Y-81544180D01*
X183418972Y-81424482D01*
X183431232Y-81300000D01*
X183428160Y-80285750D01*
X183269410Y-80127000D01*
X181620160Y-80127000D01*
X181366160Y-80127000D01*
X179716910Y-80127000D01*
X179558160Y-80285750D01*
X179555088Y-81300000D01*
X140481961Y-81300000D01*
X140477362Y-81284840D01*
X140418397Y-81174526D01*
X140339045Y-81077835D01*
X140242354Y-80998483D01*
X140132040Y-80939518D01*
X140012342Y-80903208D01*
X139887860Y-80890948D01*
X139373610Y-80894020D01*
X139214860Y-81052770D01*
X138960860Y-81052770D01*
X138802110Y-80894020D01*
X138287860Y-80890948D01*
X138163378Y-80903208D01*
X138043680Y-80939518D01*
X137933366Y-80998483D01*
X137836675Y-81077835D01*
X137757323Y-81174526D01*
X137698358Y-81284840D01*
X137662048Y-81404538D01*
X137649788Y-81529020D01*
X123602040Y-81529020D01*
X123602040Y-81448306D01*
X123544819Y-81160635D01*
X123432575Y-80889654D01*
X123269622Y-80645778D01*
X123062222Y-80438378D01*
X122818346Y-80275425D01*
X122547365Y-80163181D01*
X122259694Y-80105960D01*
X121966386Y-80105960D01*
X121678715Y-80163181D01*
X121407734Y-80275425D01*
X121163858Y-80438378D01*
X120956458Y-80645778D01*
X120793505Y-80889654D01*
X120681261Y-81160635D01*
X120624040Y-81448306D01*
X106347260Y-81448306D01*
X106347260Y-78638135D01*
X106516624Y-78807499D01*
X106897752Y-79062160D01*
X107321239Y-79237574D01*
X107770811Y-79327000D01*
X108229189Y-79327000D01*
X108678761Y-79237574D01*
X109102248Y-79062160D01*
X109483376Y-78807499D01*
X109782551Y-78508324D01*
X113044780Y-78508324D01*
X113044780Y-78809116D01*
X113103461Y-79104130D01*
X113218570Y-79382026D01*
X113385681Y-79632126D01*
X113598374Y-79844819D01*
X113848474Y-80011930D01*
X114126370Y-80127039D01*
X114421384Y-80185720D01*
X114722176Y-80185720D01*
X115017190Y-80127039D01*
X115295086Y-80011930D01*
X115545186Y-79844819D01*
X115757879Y-79632126D01*
X115924990Y-79382026D01*
X116040099Y-79104130D01*
X116079050Y-78908306D01*
X118084040Y-78908306D01*
X118084040Y-79201614D01*
X118141261Y-79489285D01*
X118253505Y-79760266D01*
X118416458Y-80004142D01*
X118623858Y-80211542D01*
X118867734Y-80374495D01*
X119138715Y-80486739D01*
X119426386Y-80543960D01*
X119719694Y-80543960D01*
X120007365Y-80486739D01*
X120278346Y-80374495D01*
X120522222Y-80211542D01*
X120729622Y-80004142D01*
X120892575Y-79760266D01*
X121004819Y-79489285D01*
X121062040Y-79201614D01*
X121062040Y-78908306D01*
X121004819Y-78620635D01*
X120892575Y-78349654D01*
X120854694Y-78292960D01*
X123160523Y-78292960D01*
X123160523Y-79816960D01*
X123174560Y-79959477D01*
X123216130Y-80096517D01*
X123283637Y-80222813D01*
X123374486Y-80333514D01*
X123485187Y-80424363D01*
X123611483Y-80491870D01*
X123748523Y-80533440D01*
X123891040Y-80547477D01*
X125415040Y-80547477D01*
X125557557Y-80533440D01*
X125694597Y-80491870D01*
X125820893Y-80424363D01*
X125931594Y-80333514D01*
X126022443Y-80222813D01*
X126089950Y-80096517D01*
X126131520Y-79959477D01*
X126145557Y-79816960D01*
X126145557Y-78292960D01*
X126131520Y-78150443D01*
X126089950Y-78013403D01*
X126022443Y-77887107D01*
X125931594Y-77776406D01*
X125820893Y-77685557D01*
X125694597Y-77618050D01*
X125557557Y-77576480D01*
X125415040Y-77562443D01*
X123891040Y-77562443D01*
X123748523Y-77576480D01*
X123611483Y-77618050D01*
X123485187Y-77685557D01*
X123374486Y-77776406D01*
X123283637Y-77887107D01*
X123216130Y-78013403D01*
X123174560Y-78150443D01*
X123160523Y-78292960D01*
X120854694Y-78292960D01*
X120729622Y-78105778D01*
X120522222Y-77898378D01*
X120278346Y-77735425D01*
X120007365Y-77623181D01*
X119719694Y-77565960D01*
X119426386Y-77565960D01*
X119138715Y-77623181D01*
X118867734Y-77735425D01*
X118623858Y-77898378D01*
X118416458Y-78105778D01*
X118253505Y-78349654D01*
X118141261Y-78620635D01*
X118084040Y-78908306D01*
X116079050Y-78908306D01*
X116098780Y-78809116D01*
X116098780Y-78508324D01*
X116040099Y-78213310D01*
X115924990Y-77935414D01*
X115757879Y-77685314D01*
X115545186Y-77472621D01*
X115295086Y-77305510D01*
X115017190Y-77190401D01*
X114722176Y-77131720D01*
X114421384Y-77131720D01*
X114126370Y-77190401D01*
X113848474Y-77305510D01*
X113598374Y-77472621D01*
X113385681Y-77685314D01*
X113218570Y-77935414D01*
X113103461Y-78213310D01*
X113044780Y-78508324D01*
X109782551Y-78508324D01*
X109807499Y-78483376D01*
X110062160Y-78102248D01*
X110237574Y-77678761D01*
X110327000Y-77229189D01*
X110327000Y-76770811D01*
X110296545Y-76617700D01*
X169200563Y-76617700D01*
X169200563Y-80379700D01*
X169214600Y-80522217D01*
X169256170Y-80659257D01*
X169323677Y-80785553D01*
X169414526Y-80896254D01*
X169525227Y-80987103D01*
X169651523Y-81054610D01*
X169788563Y-81096180D01*
X169931080Y-81110217D01*
X171455080Y-81110217D01*
X171597597Y-81096180D01*
X171734637Y-81054610D01*
X171860933Y-80987103D01*
X171971634Y-80896254D01*
X172062483Y-80785553D01*
X172129990Y-80659257D01*
X172171560Y-80522217D01*
X172185597Y-80379700D01*
X172185597Y-78700000D01*
X179555088Y-78700000D01*
X179558160Y-79714250D01*
X179716910Y-79873000D01*
X181366160Y-79873000D01*
X181366160Y-78223750D01*
X181620160Y-78223750D01*
X181620160Y-79873000D01*
X183269410Y-79873000D01*
X183428160Y-79714250D01*
X183431232Y-78700000D01*
X183418972Y-78575518D01*
X183382662Y-78455820D01*
X183323697Y-78345506D01*
X183244345Y-78248815D01*
X183147654Y-78169463D01*
X183037340Y-78110498D01*
X182917642Y-78074188D01*
X182793160Y-78061928D01*
X181778910Y-78065000D01*
X181620160Y-78223750D01*
X181366160Y-78223750D01*
X181207410Y-78065000D01*
X180193160Y-78061928D01*
X180068678Y-78074188D01*
X179948980Y-78110498D01*
X179838666Y-78169463D01*
X179741975Y-78248815D01*
X179662623Y-78345506D01*
X179603658Y-78455820D01*
X179567348Y-78575518D01*
X179555088Y-78700000D01*
X172185597Y-78700000D01*
X172185597Y-76617700D01*
X172171560Y-76475183D01*
X172129990Y-76338143D01*
X172062483Y-76211847D01*
X171971634Y-76101146D01*
X171860933Y-76010297D01*
X171734637Y-75942790D01*
X171597597Y-75901220D01*
X171455080Y-75887183D01*
X169931080Y-75887183D01*
X169788563Y-75901220D01*
X169651523Y-75942790D01*
X169525227Y-76010297D01*
X169414526Y-76101146D01*
X169323677Y-76211847D01*
X169256170Y-76338143D01*
X169214600Y-76475183D01*
X169200563Y-76617700D01*
X110296545Y-76617700D01*
X110237574Y-76321239D01*
X110062160Y-75897752D01*
X109807499Y-75516624D01*
X109483376Y-75192501D01*
X109102248Y-74937840D01*
X108678761Y-74762426D01*
X108467273Y-74720358D01*
X179466160Y-74720358D01*
X179466160Y-75119642D01*
X179544056Y-75511254D01*
X179696856Y-75880145D01*
X179918686Y-76212137D01*
X180201023Y-76494474D01*
X180533015Y-76716304D01*
X180901906Y-76869104D01*
X181293518Y-76947000D01*
X181692802Y-76947000D01*
X182084414Y-76869104D01*
X182453305Y-76716304D01*
X182785297Y-76494474D01*
X183067634Y-76212137D01*
X183289464Y-75880145D01*
X183442264Y-75511254D01*
X183520160Y-75119642D01*
X183520160Y-74720358D01*
X183442264Y-74328746D01*
X183289464Y-73959855D01*
X183067634Y-73627863D01*
X182785297Y-73345526D01*
X182453305Y-73123696D01*
X182084414Y-72970896D01*
X181692802Y-72893000D01*
X181293518Y-72893000D01*
X180901906Y-72970896D01*
X180533015Y-73123696D01*
X180201023Y-73345526D01*
X179918686Y-73627863D01*
X179696856Y-73959855D01*
X179544056Y-74328746D01*
X179466160Y-74720358D01*
X108467273Y-74720358D01*
X108229189Y-74673000D01*
X107770811Y-74673000D01*
X107321239Y-74762426D01*
X106897752Y-74937840D01*
X106516624Y-75192501D01*
X106347260Y-75361865D01*
X106347260Y-70793100D01*
X133617460Y-70793100D01*
X133617460Y-71015100D01*
X133660770Y-71232834D01*
X133745726Y-71437935D01*
X133869062Y-71622521D01*
X134026039Y-71779498D01*
X134210625Y-71902834D01*
X134415726Y-71987790D01*
X134633460Y-72031100D01*
X134855460Y-72031100D01*
X135073194Y-71987790D01*
X135278295Y-71902834D01*
X135462881Y-71779498D01*
X135619858Y-71622521D01*
X135743194Y-71437935D01*
X135828150Y-71232834D01*
X135871460Y-71015100D01*
X135871460Y-70793100D01*
X135828150Y-70575366D01*
X135743194Y-70370265D01*
X135619858Y-70185679D01*
X135462881Y-70028702D01*
X135278295Y-69905366D01*
X135073194Y-69820410D01*
X134855460Y-69777100D01*
X134633460Y-69777100D01*
X134415726Y-69820410D01*
X134210625Y-69905366D01*
X134026039Y-70028702D01*
X133869062Y-70185679D01*
X133745726Y-70370265D01*
X133660770Y-70575366D01*
X133617460Y-70793100D01*
X106347260Y-70793100D01*
X106347260Y-68348324D01*
X113044780Y-68348324D01*
X113044780Y-68649116D01*
X113103461Y-68944130D01*
X113218570Y-69222026D01*
X113385681Y-69472126D01*
X113598374Y-69684819D01*
X113848474Y-69851930D01*
X114126370Y-69967039D01*
X114421384Y-70025720D01*
X114722176Y-70025720D01*
X115017190Y-69967039D01*
X115295086Y-69851930D01*
X115545186Y-69684819D01*
X115757879Y-69472126D01*
X115798494Y-69411340D01*
X166726360Y-69411340D01*
X166726360Y-69633340D01*
X166769670Y-69851074D01*
X166854626Y-70056175D01*
X166977962Y-70240761D01*
X167134939Y-70397738D01*
X167319525Y-70521074D01*
X167524626Y-70606030D01*
X167742360Y-70649340D01*
X167964360Y-70649340D01*
X168182094Y-70606030D01*
X168387195Y-70521074D01*
X168571781Y-70397738D01*
X168728758Y-70240761D01*
X168852094Y-70056175D01*
X168937050Y-69851074D01*
X168978964Y-69640358D01*
X179466160Y-69640358D01*
X179466160Y-70039642D01*
X179544056Y-70431254D01*
X179696856Y-70800145D01*
X179918686Y-71132137D01*
X180201023Y-71414474D01*
X180533015Y-71636304D01*
X180901906Y-71789104D01*
X181293518Y-71867000D01*
X181692802Y-71867000D01*
X182084414Y-71789104D01*
X182453305Y-71636304D01*
X182785297Y-71414474D01*
X183067634Y-71132137D01*
X183289464Y-70800145D01*
X183442264Y-70431254D01*
X183520160Y-70039642D01*
X183520160Y-69640358D01*
X183442264Y-69248746D01*
X183289464Y-68879855D01*
X183067634Y-68547863D01*
X182785297Y-68265526D01*
X182453305Y-68043696D01*
X182084414Y-67890896D01*
X181692802Y-67813000D01*
X181293518Y-67813000D01*
X180901906Y-67890896D01*
X180533015Y-68043696D01*
X180201023Y-68265526D01*
X179918686Y-68547863D01*
X179696856Y-68879855D01*
X179544056Y-69248746D01*
X179466160Y-69640358D01*
X168978964Y-69640358D01*
X168980360Y-69633340D01*
X168980360Y-69411340D01*
X168937050Y-69193606D01*
X168852094Y-68988505D01*
X168728758Y-68803919D01*
X168571781Y-68646942D01*
X168387195Y-68523606D01*
X168182094Y-68438650D01*
X167964360Y-68395340D01*
X167742360Y-68395340D01*
X167524626Y-68438650D01*
X167319525Y-68523606D01*
X167134939Y-68646942D01*
X166977962Y-68803919D01*
X166854626Y-68988505D01*
X166769670Y-69193606D01*
X166726360Y-69411340D01*
X115798494Y-69411340D01*
X115924990Y-69222026D01*
X116040099Y-68944130D01*
X116098780Y-68649116D01*
X116098780Y-68348324D01*
X116040099Y-68053310D01*
X115924990Y-67775414D01*
X115757879Y-67525314D01*
X115545186Y-67312621D01*
X115295086Y-67145510D01*
X115017190Y-67030401D01*
X114722176Y-66971720D01*
X114421384Y-66971720D01*
X114126370Y-67030401D01*
X113848474Y-67145510D01*
X113598374Y-67312621D01*
X113385681Y-67525314D01*
X113218570Y-67775414D01*
X113103461Y-68053310D01*
X113044780Y-68348324D01*
X106347260Y-68348324D01*
X106347260Y-66638135D01*
X106516624Y-66807499D01*
X106897752Y-67062160D01*
X107321239Y-67237574D01*
X107770811Y-67327000D01*
X108229189Y-67327000D01*
X108678761Y-67237574D01*
X109102248Y-67062160D01*
X109483376Y-66807499D01*
X109807499Y-66483376D01*
X110062160Y-66102248D01*
X110160539Y-65864740D01*
X189839461Y-65864740D01*
X189937840Y-66102248D01*
G37*
X189937840Y-66102248D02*
X190192501Y-66483376D01*
X190516624Y-66807499D01*
X190897752Y-67062160D01*
X191321239Y-67237574D01*
X191770811Y-67327000D01*
X192229189Y-67327000D01*
X192678761Y-67237574D01*
X193102248Y-67062160D01*
X193483376Y-66807499D01*
X193535300Y-66755575D01*
X193535300Y-75244425D01*
X193483376Y-75192501D01*
X193102248Y-74937840D01*
X192678761Y-74762426D01*
X192229189Y-74673000D01*
X191770811Y-74673000D01*
X191321239Y-74762426D01*
X190897752Y-74937840D01*
X190516624Y-75192501D01*
X190192501Y-75516624D01*
X189937840Y-75897752D01*
X189762426Y-76321239D01*
X189673000Y-76770811D01*
X189673000Y-77229189D01*
X189762426Y-77678761D01*
X189937840Y-78102248D01*
X190192501Y-78483376D01*
X190516624Y-78807499D01*
X190897752Y-79062160D01*
X191321239Y-79237574D01*
X191770811Y-79327000D01*
X192229189Y-79327000D01*
X192678761Y-79237574D01*
X193102248Y-79062160D01*
X193483376Y-78807499D01*
X193535300Y-78755575D01*
X193535300Y-84498180D01*
X172185597Y-84498180D01*
X172185597Y-83221700D01*
X172171560Y-83079183D01*
X172129990Y-82942143D01*
X172062483Y-82815847D01*
X171971634Y-82705146D01*
X171860933Y-82614297D01*
X171734637Y-82546790D01*
X171597597Y-82505220D01*
X171455080Y-82491183D01*
X169931080Y-82491183D01*
X169788563Y-82505220D01*
X169651523Y-82546790D01*
X169525227Y-82614297D01*
X169414526Y-82705146D01*
X169323677Y-82815847D01*
X169256170Y-82942143D01*
X169214600Y-83079183D01*
X169200563Y-83221700D01*
X169200563Y-84498180D01*
X139844645Y-84498180D01*
X139811166Y-84475810D01*
X139533270Y-84360701D01*
X139238256Y-84302020D01*
X138937464Y-84302020D01*
X138642450Y-84360701D01*
X138364554Y-84475810D01*
X138331075Y-84498180D01*
X106347260Y-84498180D01*
X106347260Y-83129020D01*
X137649788Y-83129020D01*
X137662048Y-83253502D01*
X137698358Y-83373200D01*
X137757323Y-83483514D01*
X137836675Y-83580205D01*
X137933366Y-83659557D01*
X138043680Y-83718522D01*
X138163378Y-83754832D01*
X138287860Y-83767092D01*
X138802110Y-83764020D01*
X138960860Y-83605270D01*
X138960860Y-82456020D01*
X139214860Y-82456020D01*
X139214860Y-83605270D01*
X139373610Y-83764020D01*
X139887860Y-83767092D01*
X140012342Y-83754832D01*
X140132040Y-83718522D01*
X140242354Y-83659557D01*
X140339045Y-83580205D01*
X140418397Y-83483514D01*
X140477362Y-83373200D01*
X140513672Y-83253502D01*
X140525932Y-83129020D01*
X140522860Y-82614770D01*
X140364110Y-82456020D01*
X139214860Y-82456020D01*
X138960860Y-82456020D01*
X137811610Y-82456020D01*
X137652860Y-82614770D01*
X137649788Y-83129020D01*
X106347260Y-83129020D01*
X106347260Y-81448306D01*
X120624040Y-81448306D01*
X120624040Y-81741614D01*
X120681261Y-82029285D01*
X120793505Y-82300266D01*
X120956458Y-82544142D01*
X121163858Y-82751542D01*
X121407734Y-82914495D01*
X121678715Y-83026739D01*
X121966386Y-83083960D01*
X122259694Y-83083960D01*
X122547365Y-83026739D01*
X122818346Y-82914495D01*
X123062222Y-82751542D01*
X123269622Y-82544142D01*
X123432575Y-82300266D01*
X123544819Y-82029285D01*
X123602040Y-81741614D01*
X123602040Y-81529020D01*
X137649788Y-81529020D01*
X137652860Y-82043270D01*
X137811610Y-82202020D01*
X138960860Y-82202020D01*
X138960860Y-81052770D01*
X139214860Y-81052770D01*
X139214860Y-82202020D01*
X140364110Y-82202020D01*
X140522860Y-82043270D01*
X140525932Y-81529020D01*
X140513672Y-81404538D01*
X140481961Y-81300000D01*
X179555088Y-81300000D01*
X179567348Y-81424482D01*
X179603658Y-81544180D01*
X179662623Y-81654494D01*
X179741975Y-81751185D01*
X179838666Y-81830537D01*
X179948980Y-81889502D01*
X180068678Y-81925812D01*
X180193160Y-81938072D01*
X181207410Y-81935000D01*
X181366160Y-81776250D01*
X181366160Y-80127000D01*
X181620160Y-80127000D01*
X181620160Y-81776250D01*
X181778910Y-81935000D01*
X182793160Y-81938072D01*
X182917642Y-81925812D01*
X183037340Y-81889502D01*
X183147654Y-81830537D01*
X183244345Y-81751185D01*
X183323697Y-81654494D01*
X183382662Y-81544180D01*
X183418972Y-81424482D01*
X183431232Y-81300000D01*
X183428160Y-80285750D01*
X183269410Y-80127000D01*
X181620160Y-80127000D01*
X181366160Y-80127000D01*
X179716910Y-80127000D01*
X179558160Y-80285750D01*
X179555088Y-81300000D01*
X140481961Y-81300000D01*
X140477362Y-81284840D01*
X140418397Y-81174526D01*
X140339045Y-81077835D01*
X140242354Y-80998483D01*
X140132040Y-80939518D01*
X140012342Y-80903208D01*
X139887860Y-80890948D01*
X139373610Y-80894020D01*
X139214860Y-81052770D01*
X138960860Y-81052770D01*
X138802110Y-80894020D01*
X138287860Y-80890948D01*
X138163378Y-80903208D01*
X138043680Y-80939518D01*
X137933366Y-80998483D01*
X137836675Y-81077835D01*
X137757323Y-81174526D01*
X137698358Y-81284840D01*
X137662048Y-81404538D01*
X137649788Y-81529020D01*
X123602040Y-81529020D01*
X123602040Y-81448306D01*
X123544819Y-81160635D01*
X123432575Y-80889654D01*
X123269622Y-80645778D01*
X123062222Y-80438378D01*
X122818346Y-80275425D01*
X122547365Y-80163181D01*
X122259694Y-80105960D01*
X121966386Y-80105960D01*
X121678715Y-80163181D01*
X121407734Y-80275425D01*
X121163858Y-80438378D01*
X120956458Y-80645778D01*
X120793505Y-80889654D01*
X120681261Y-81160635D01*
X120624040Y-81448306D01*
X106347260Y-81448306D01*
X106347260Y-78638135D01*
X106516624Y-78807499D01*
X106897752Y-79062160D01*
X107321239Y-79237574D01*
X107770811Y-79327000D01*
X108229189Y-79327000D01*
X108678761Y-79237574D01*
X109102248Y-79062160D01*
X109483376Y-78807499D01*
X109782551Y-78508324D01*
X113044780Y-78508324D01*
X113044780Y-78809116D01*
X113103461Y-79104130D01*
X113218570Y-79382026D01*
X113385681Y-79632126D01*
X113598374Y-79844819D01*
X113848474Y-80011930D01*
X114126370Y-80127039D01*
X114421384Y-80185720D01*
X114722176Y-80185720D01*
X115017190Y-80127039D01*
X115295086Y-80011930D01*
X115545186Y-79844819D01*
X115757879Y-79632126D01*
X115924990Y-79382026D01*
X116040099Y-79104130D01*
X116079050Y-78908306D01*
X118084040Y-78908306D01*
X118084040Y-79201614D01*
X118141261Y-79489285D01*
X118253505Y-79760266D01*
X118416458Y-80004142D01*
X118623858Y-80211542D01*
X118867734Y-80374495D01*
X119138715Y-80486739D01*
X119426386Y-80543960D01*
X119719694Y-80543960D01*
X120007365Y-80486739D01*
X120278346Y-80374495D01*
X120522222Y-80211542D01*
X120729622Y-80004142D01*
X120892575Y-79760266D01*
X121004819Y-79489285D01*
X121062040Y-79201614D01*
X121062040Y-78908306D01*
X121004819Y-78620635D01*
X120892575Y-78349654D01*
X120854694Y-78292960D01*
X123160523Y-78292960D01*
X123160523Y-79816960D01*
X123174560Y-79959477D01*
X123216130Y-80096517D01*
X123283637Y-80222813D01*
X123374486Y-80333514D01*
X123485187Y-80424363D01*
X123611483Y-80491870D01*
X123748523Y-80533440D01*
X123891040Y-80547477D01*
X125415040Y-80547477D01*
X125557557Y-80533440D01*
X125694597Y-80491870D01*
X125820893Y-80424363D01*
X125931594Y-80333514D01*
X126022443Y-80222813D01*
X126089950Y-80096517D01*
X126131520Y-79959477D01*
X126145557Y-79816960D01*
X126145557Y-78292960D01*
X126131520Y-78150443D01*
X126089950Y-78013403D01*
X126022443Y-77887107D01*
X125931594Y-77776406D01*
X125820893Y-77685557D01*
X125694597Y-77618050D01*
X125557557Y-77576480D01*
X125415040Y-77562443D01*
X123891040Y-77562443D01*
X123748523Y-77576480D01*
X123611483Y-77618050D01*
X123485187Y-77685557D01*
X123374486Y-77776406D01*
X123283637Y-77887107D01*
X123216130Y-78013403D01*
X123174560Y-78150443D01*
X123160523Y-78292960D01*
X120854694Y-78292960D01*
X120729622Y-78105778D01*
X120522222Y-77898378D01*
X120278346Y-77735425D01*
X120007365Y-77623181D01*
X119719694Y-77565960D01*
X119426386Y-77565960D01*
X119138715Y-77623181D01*
X118867734Y-77735425D01*
X118623858Y-77898378D01*
X118416458Y-78105778D01*
X118253505Y-78349654D01*
X118141261Y-78620635D01*
X118084040Y-78908306D01*
X116079050Y-78908306D01*
X116098780Y-78809116D01*
X116098780Y-78508324D01*
X116040099Y-78213310D01*
X115924990Y-77935414D01*
X115757879Y-77685314D01*
X115545186Y-77472621D01*
X115295086Y-77305510D01*
X115017190Y-77190401D01*
X114722176Y-77131720D01*
X114421384Y-77131720D01*
X114126370Y-77190401D01*
X113848474Y-77305510D01*
X113598374Y-77472621D01*
X113385681Y-77685314D01*
X113218570Y-77935414D01*
X113103461Y-78213310D01*
X113044780Y-78508324D01*
X109782551Y-78508324D01*
X109807499Y-78483376D01*
X110062160Y-78102248D01*
X110237574Y-77678761D01*
X110327000Y-77229189D01*
X110327000Y-76770811D01*
X110296545Y-76617700D01*
X169200563Y-76617700D01*
X169200563Y-80379700D01*
X169214600Y-80522217D01*
X169256170Y-80659257D01*
X169323677Y-80785553D01*
X169414526Y-80896254D01*
X169525227Y-80987103D01*
X169651523Y-81054610D01*
X169788563Y-81096180D01*
X169931080Y-81110217D01*
X171455080Y-81110217D01*
X171597597Y-81096180D01*
X171734637Y-81054610D01*
X171860933Y-80987103D01*
X171971634Y-80896254D01*
X172062483Y-80785553D01*
X172129990Y-80659257D01*
X172171560Y-80522217D01*
X172185597Y-80379700D01*
X172185597Y-78700000D01*
X179555088Y-78700000D01*
X179558160Y-79714250D01*
X179716910Y-79873000D01*
X181366160Y-79873000D01*
X181366160Y-78223750D01*
X181620160Y-78223750D01*
X181620160Y-79873000D01*
X183269410Y-79873000D01*
X183428160Y-79714250D01*
X183431232Y-78700000D01*
X183418972Y-78575518D01*
X183382662Y-78455820D01*
X183323697Y-78345506D01*
X183244345Y-78248815D01*
X183147654Y-78169463D01*
X183037340Y-78110498D01*
X182917642Y-78074188D01*
X182793160Y-78061928D01*
X181778910Y-78065000D01*
X181620160Y-78223750D01*
X181366160Y-78223750D01*
X181207410Y-78065000D01*
X180193160Y-78061928D01*
X180068678Y-78074188D01*
X179948980Y-78110498D01*
X179838666Y-78169463D01*
X179741975Y-78248815D01*
X179662623Y-78345506D01*
X179603658Y-78455820D01*
X179567348Y-78575518D01*
X179555088Y-78700000D01*
X172185597Y-78700000D01*
X172185597Y-76617700D01*
X172171560Y-76475183D01*
X172129990Y-76338143D01*
X172062483Y-76211847D01*
X171971634Y-76101146D01*
X171860933Y-76010297D01*
X171734637Y-75942790D01*
X171597597Y-75901220D01*
X171455080Y-75887183D01*
X169931080Y-75887183D01*
X169788563Y-75901220D01*
X169651523Y-75942790D01*
X169525227Y-76010297D01*
X169414526Y-76101146D01*
X169323677Y-76211847D01*
X169256170Y-76338143D01*
X169214600Y-76475183D01*
X169200563Y-76617700D01*
X110296545Y-76617700D01*
X110237574Y-76321239D01*
X110062160Y-75897752D01*
X109807499Y-75516624D01*
X109483376Y-75192501D01*
X109102248Y-74937840D01*
X108678761Y-74762426D01*
X108467273Y-74720358D01*
X179466160Y-74720358D01*
X179466160Y-75119642D01*
X179544056Y-75511254D01*
X179696856Y-75880145D01*
X179918686Y-76212137D01*
X180201023Y-76494474D01*
X180533015Y-76716304D01*
X180901906Y-76869104D01*
X181293518Y-76947000D01*
X181692802Y-76947000D01*
X182084414Y-76869104D01*
X182453305Y-76716304D01*
X182785297Y-76494474D01*
X183067634Y-76212137D01*
X183289464Y-75880145D01*
X183442264Y-75511254D01*
X183520160Y-75119642D01*
X183520160Y-74720358D01*
X183442264Y-74328746D01*
X183289464Y-73959855D01*
X183067634Y-73627863D01*
X182785297Y-73345526D01*
X182453305Y-73123696D01*
X182084414Y-72970896D01*
X181692802Y-72893000D01*
X181293518Y-72893000D01*
X180901906Y-72970896D01*
X180533015Y-73123696D01*
X180201023Y-73345526D01*
X179918686Y-73627863D01*
X179696856Y-73959855D01*
X179544056Y-74328746D01*
X179466160Y-74720358D01*
X108467273Y-74720358D01*
X108229189Y-74673000D01*
X107770811Y-74673000D01*
X107321239Y-74762426D01*
X106897752Y-74937840D01*
X106516624Y-75192501D01*
X106347260Y-75361865D01*
X106347260Y-70793100D01*
X133617460Y-70793100D01*
X133617460Y-71015100D01*
X133660770Y-71232834D01*
X133745726Y-71437935D01*
X133869062Y-71622521D01*
X134026039Y-71779498D01*
X134210625Y-71902834D01*
X134415726Y-71987790D01*
X134633460Y-72031100D01*
X134855460Y-72031100D01*
X135073194Y-71987790D01*
X135278295Y-71902834D01*
X135462881Y-71779498D01*
X135619858Y-71622521D01*
X135743194Y-71437935D01*
X135828150Y-71232834D01*
X135871460Y-71015100D01*
X135871460Y-70793100D01*
X135828150Y-70575366D01*
X135743194Y-70370265D01*
X135619858Y-70185679D01*
X135462881Y-70028702D01*
X135278295Y-69905366D01*
X135073194Y-69820410D01*
X134855460Y-69777100D01*
X134633460Y-69777100D01*
X134415726Y-69820410D01*
X134210625Y-69905366D01*
X134026039Y-70028702D01*
X133869062Y-70185679D01*
X133745726Y-70370265D01*
X133660770Y-70575366D01*
X133617460Y-70793100D01*
X106347260Y-70793100D01*
X106347260Y-68348324D01*
X113044780Y-68348324D01*
X113044780Y-68649116D01*
X113103461Y-68944130D01*
X113218570Y-69222026D01*
X113385681Y-69472126D01*
X113598374Y-69684819D01*
X113848474Y-69851930D01*
X114126370Y-69967039D01*
X114421384Y-70025720D01*
X114722176Y-70025720D01*
X115017190Y-69967039D01*
X115295086Y-69851930D01*
X115545186Y-69684819D01*
X115757879Y-69472126D01*
X115798494Y-69411340D01*
X166726360Y-69411340D01*
X166726360Y-69633340D01*
X166769670Y-69851074D01*
X166854626Y-70056175D01*
X166977962Y-70240761D01*
X167134939Y-70397738D01*
X167319525Y-70521074D01*
X167524626Y-70606030D01*
X167742360Y-70649340D01*
X167964360Y-70649340D01*
X168182094Y-70606030D01*
X168387195Y-70521074D01*
X168571781Y-70397738D01*
X168728758Y-70240761D01*
X168852094Y-70056175D01*
X168937050Y-69851074D01*
X168978964Y-69640358D01*
X179466160Y-69640358D01*
X179466160Y-70039642D01*
X179544056Y-70431254D01*
X179696856Y-70800145D01*
X179918686Y-71132137D01*
X180201023Y-71414474D01*
X180533015Y-71636304D01*
X180901906Y-71789104D01*
X181293518Y-71867000D01*
X181692802Y-71867000D01*
X182084414Y-71789104D01*
X182453305Y-71636304D01*
X182785297Y-71414474D01*
X183067634Y-71132137D01*
X183289464Y-70800145D01*
X183442264Y-70431254D01*
X183520160Y-70039642D01*
X183520160Y-69640358D01*
X183442264Y-69248746D01*
X183289464Y-68879855D01*
X183067634Y-68547863D01*
X182785297Y-68265526D01*
X182453305Y-68043696D01*
X182084414Y-67890896D01*
X181692802Y-67813000D01*
X181293518Y-67813000D01*
X180901906Y-67890896D01*
X180533015Y-68043696D01*
X180201023Y-68265526D01*
X179918686Y-68547863D01*
X179696856Y-68879855D01*
X179544056Y-69248746D01*
X179466160Y-69640358D01*
X168978964Y-69640358D01*
X168980360Y-69633340D01*
X168980360Y-69411340D01*
X168937050Y-69193606D01*
X168852094Y-68988505D01*
X168728758Y-68803919D01*
X168571781Y-68646942D01*
X168387195Y-68523606D01*
X168182094Y-68438650D01*
X167964360Y-68395340D01*
X167742360Y-68395340D01*
X167524626Y-68438650D01*
X167319525Y-68523606D01*
X167134939Y-68646942D01*
X166977962Y-68803919D01*
X166854626Y-68988505D01*
X166769670Y-69193606D01*
X166726360Y-69411340D01*
X115798494Y-69411340D01*
X115924990Y-69222026D01*
X116040099Y-68944130D01*
X116098780Y-68649116D01*
X116098780Y-68348324D01*
X116040099Y-68053310D01*
X115924990Y-67775414D01*
X115757879Y-67525314D01*
X115545186Y-67312621D01*
X115295086Y-67145510D01*
X115017190Y-67030401D01*
X114722176Y-66971720D01*
X114421384Y-66971720D01*
X114126370Y-67030401D01*
X113848474Y-67145510D01*
X113598374Y-67312621D01*
X113385681Y-67525314D01*
X113218570Y-67775414D01*
X113103461Y-68053310D01*
X113044780Y-68348324D01*
X106347260Y-68348324D01*
X106347260Y-66638135D01*
X106516624Y-66807499D01*
X106897752Y-67062160D01*
X107321239Y-67237574D01*
X107770811Y-67327000D01*
X108229189Y-67327000D01*
X108678761Y-67237574D01*
X109102248Y-67062160D01*
X109483376Y-66807499D01*
X109807499Y-66483376D01*
X110062160Y-66102248D01*
X110160539Y-65864740D01*
X189839461Y-65864740D01*
X189937840Y-66102248D01*
G36*
X198437500Y-148750020D02*
G01*
X163832424Y-148750020D01*
X163851300Y-148655124D01*
X163851300Y-148423276D01*
X163806069Y-148195882D01*
X163717344Y-147981681D01*
X163588536Y-147788906D01*
X163424594Y-147624964D01*
X163231819Y-147496156D01*
X163017618Y-147407431D01*
X162790224Y-147362200D01*
X162558376Y-147362200D01*
X162330982Y-147407431D01*
X162116781Y-147496156D01*
X161924006Y-147624964D01*
X161760064Y-147788906D01*
X161631256Y-147981681D01*
X161542531Y-148195882D01*
X161497300Y-148423276D01*
X161497300Y-148655124D01*
X161516176Y-148750020D01*
X101729540Y-148750020D01*
X101729540Y-146142356D01*
X144492000Y-146142356D01*
X144492000Y-146374204D01*
X144537231Y-146601598D01*
X144625956Y-146815799D01*
X144754764Y-147008574D01*
X144918706Y-147172516D01*
X145111481Y-147301324D01*
X145325682Y-147390049D01*
X145553076Y-147435280D01*
X145784924Y-147435280D01*
X146012318Y-147390049D01*
X146226519Y-147301324D01*
X146419294Y-147172516D01*
X146583236Y-147008574D01*
X146712044Y-146815799D01*
X146800769Y-146601598D01*
X146846000Y-146374204D01*
X146846000Y-146142356D01*
X146800769Y-145914962D01*
X146712044Y-145700761D01*
X146583236Y-145507986D01*
X146553411Y-145478161D01*
X170562320Y-145478161D01*
X170562320Y-145682039D01*
X170602094Y-145881998D01*
X170680115Y-146070356D01*
X170793383Y-146239874D01*
X170937546Y-146384037D01*
X171107064Y-146497305D01*
X171295422Y-146575326D01*
X171495381Y-146615100D01*
X171699259Y-146615100D01*
X171899218Y-146575326D01*
X172087576Y-146497305D01*
X172257094Y-146384037D01*
X172401257Y-146239874D01*
X172514525Y-146070356D01*
X172592546Y-145881998D01*
X172632320Y-145682039D01*
X172632320Y-145478161D01*
X172592546Y-145278202D01*
X172514525Y-145089844D01*
X172401257Y-144920326D01*
X172257094Y-144776163D01*
X172087576Y-144662895D01*
X171899218Y-144584874D01*
X171699259Y-144545100D01*
X171495381Y-144545100D01*
X171295422Y-144584874D01*
X171107064Y-144662895D01*
X170937546Y-144776163D01*
X170793383Y-144920326D01*
X170680115Y-145089844D01*
X170602094Y-145278202D01*
X170562320Y-145478161D01*
X146553411Y-145478161D01*
X146419294Y-145344044D01*
X146226519Y-145215236D01*
X146012318Y-145126511D01*
X145784924Y-145081280D01*
X145553076Y-145081280D01*
X145325682Y-145126511D01*
X145111481Y-145215236D01*
X144918706Y-145344044D01*
X144754764Y-145507986D01*
X144625956Y-145700761D01*
X144537231Y-145914962D01*
X144492000Y-146142356D01*
X101729540Y-146142356D01*
X101729540Y-143728101D01*
X168852900Y-143728101D01*
X168852900Y-143931979D01*
X168892674Y-144131938D01*
X168970695Y-144320296D01*
X169083963Y-144489814D01*
X169228126Y-144633977D01*
X169397644Y-144747245D01*
X169586002Y-144825266D01*
X169785961Y-144865040D01*
X169989839Y-144865040D01*
X170189798Y-144825266D01*
X170378156Y-144747245D01*
X170547674Y-144633977D01*
X170691837Y-144489814D01*
X170805105Y-144320296D01*
X170883126Y-144131938D01*
X170922900Y-143931979D01*
X170922900Y-143728101D01*
X170883126Y-143528142D01*
X170805105Y-143339784D01*
X170691837Y-143170266D01*
X170547674Y-143026103D01*
X170378156Y-142912835D01*
X170189798Y-142834814D01*
X169989839Y-142795040D01*
X169785961Y-142795040D01*
X169586002Y-142834814D01*
X169397644Y-142912835D01*
X169228126Y-143026103D01*
X169083963Y-143170266D01*
X168970695Y-143339784D01*
X168892674Y-143528142D01*
X168852900Y-143728101D01*
X101729540Y-143728101D01*
X101729540Y-141544991D01*
X144146226Y-141544991D01*
X144146226Y-141748869D01*
X144186000Y-141948828D01*
X144264021Y-142137186D01*
X144377289Y-142306704D01*
X144521452Y-142450867D01*
X144690970Y-142564135D01*
X144879328Y-142642156D01*
X145079287Y-142681930D01*
X145283165Y-142681930D01*
X145483124Y-142642156D01*
X145671482Y-142564135D01*
X145841000Y-142450867D01*
X145985163Y-142306704D01*
X146094452Y-142143141D01*
X149538740Y-142143141D01*
X149538740Y-142347019D01*
X149578514Y-142546978D01*
X149656535Y-142735336D01*
X149769803Y-142904854D01*
X149913966Y-143049017D01*
X150083484Y-143162285D01*
X150271842Y-143240306D01*
X150471801Y-143280080D01*
X150675679Y-143280080D01*
X150875638Y-143240306D01*
X151063996Y-143162285D01*
X151233514Y-143049017D01*
X151377677Y-142904854D01*
X151490945Y-142735336D01*
X151568966Y-142546978D01*
X151608740Y-142347019D01*
X151608740Y-142143141D01*
X151568966Y-141943182D01*
X151490945Y-141754824D01*
X151377677Y-141585306D01*
X151233514Y-141441143D01*
X151063996Y-141327875D01*
X150875638Y-141249854D01*
X150675679Y-141210080D01*
X150471801Y-141210080D01*
X150271842Y-141249854D01*
X150083484Y-141327875D01*
X149913966Y-141441143D01*
X149769803Y-141585306D01*
X149656535Y-141754824D01*
X149578514Y-141943182D01*
X149538740Y-142143141D01*
X146094452Y-142143141D01*
X146098431Y-142137186D01*
X146176452Y-141948828D01*
X146216226Y-141748869D01*
X146216226Y-141544991D01*
X146176452Y-141345032D01*
X146098431Y-141156674D01*
X145985163Y-140987156D01*
X145841000Y-140842993D01*
X145671482Y-140729725D01*
X145483124Y-140651704D01*
X145283165Y-140611930D01*
X145079287Y-140611930D01*
X144879328Y-140651704D01*
X144690970Y-140729725D01*
X144521452Y-140842993D01*
X144377289Y-140987156D01*
X144264021Y-141156674D01*
X144186000Y-141345032D01*
X144146226Y-141544991D01*
X101729540Y-141544991D01*
X101729540Y-140365141D01*
X166041120Y-140365141D01*
X166041120Y-140569019D01*
X166080894Y-140768978D01*
X166158915Y-140957336D01*
X166272183Y-141126854D01*
X166416346Y-141271017D01*
X166585864Y-141384285D01*
X166774222Y-141462306D01*
X166974181Y-141502080D01*
X167178059Y-141502080D01*
X167378018Y-141462306D01*
X167566376Y-141384285D01*
X167735894Y-141271017D01*
X167880057Y-141126854D01*
X167993325Y-140957336D01*
X168071346Y-140768978D01*
X168111120Y-140569019D01*
X168111120Y-140365141D01*
X168071346Y-140165182D01*
X167993325Y-139976824D01*
X167880057Y-139807306D01*
X167735894Y-139663143D01*
X167566376Y-139549875D01*
X167378018Y-139471854D01*
X167178059Y-139432080D01*
X166974181Y-139432080D01*
X166774222Y-139471854D01*
X166585864Y-139549875D01*
X166416346Y-139663143D01*
X166272183Y-139807306D01*
X166158915Y-139976824D01*
X166080894Y-140165182D01*
X166041120Y-140365141D01*
X101729540Y-140365141D01*
X101729540Y-139389781D01*
X172655280Y-139389781D01*
X172655280Y-139593659D01*
X172695054Y-139793618D01*
X172773075Y-139981976D01*
X172886343Y-140151494D01*
X173030506Y-140295657D01*
X173200024Y-140408925D01*
X173388382Y-140486946D01*
X173588341Y-140526720D01*
X173792219Y-140526720D01*
X173992178Y-140486946D01*
X174180536Y-140408925D01*
X174350054Y-140295657D01*
X174494217Y-140151494D01*
X174607485Y-139981976D01*
X174685506Y-139793618D01*
X174725280Y-139593659D01*
X174725280Y-139389781D01*
X174685506Y-139189822D01*
X174607485Y-139001464D01*
X174494217Y-138831946D01*
X174350054Y-138687783D01*
X174180536Y-138574515D01*
X173992178Y-138496494D01*
X173792219Y-138456720D01*
X173588341Y-138456720D01*
X173388382Y-138496494D01*
X173200024Y-138574515D01*
X173030506Y-138687783D01*
X172886343Y-138831946D01*
X172773075Y-139001464D01*
X172695054Y-139189822D01*
X172655280Y-139389781D01*
X101729540Y-139389781D01*
X101729540Y-136779872D01*
X105765000Y-136779872D01*
X105765000Y-137220128D01*
X105850890Y-137651925D01*
X106019369Y-138058669D01*
X106263962Y-138424729D01*
X106575271Y-138736038D01*
X106941331Y-138980631D01*
X107348075Y-139149110D01*
X107779872Y-139235000D01*
X108220128Y-139235000D01*
X108651925Y-139149110D01*
X109058669Y-138980631D01*
X109424729Y-138736038D01*
X109736038Y-138424729D01*
X109980631Y-138058669D01*
X110149110Y-137651925D01*
X110235000Y-137220128D01*
X110235000Y-136779872D01*
X189765000Y-136779872D01*
X189765000Y-137220128D01*
X189850890Y-137651925D01*
X190019369Y-138058669D01*
X190263962Y-138424729D01*
X190575271Y-138736038D01*
X190941331Y-138980631D01*
X191348075Y-139149110D01*
X191779872Y-139235000D01*
X192220128Y-139235000D01*
X192651925Y-139149110D01*
X193058669Y-138980631D01*
X193424729Y-138736038D01*
X193736038Y-138424729D01*
X193980631Y-138058669D01*
X194149110Y-137651925D01*
X194235000Y-137220128D01*
X194235000Y-136779872D01*
X194149110Y-136348075D01*
X193980631Y-135941331D01*
X193736038Y-135575271D01*
X193424729Y-135263962D01*
X193058669Y-135019369D01*
X192651925Y-134850890D01*
X192220128Y-134765000D01*
X191779872Y-134765000D01*
X191348075Y-134850890D01*
X190941331Y-135019369D01*
X190575271Y-135263962D01*
X190263962Y-135575271D01*
X190019369Y-135941331D01*
X189850890Y-136348075D01*
X189765000Y-136779872D01*
X110235000Y-136779872D01*
X110149110Y-136348075D01*
X109980631Y-135941331D01*
X109736038Y-135575271D01*
X109424729Y-135263962D01*
X109058669Y-135019369D01*
X108651925Y-134850890D01*
X108220128Y-134765000D01*
X107779872Y-134765000D01*
X107348075Y-134850890D01*
X106941331Y-135019369D01*
X106575271Y-135263962D01*
X106263962Y-135575271D01*
X106019369Y-135941331D01*
X105850890Y-136348075D01*
X105765000Y-136779872D01*
X101729540Y-136779872D01*
X101729540Y-128229844D01*
X131768901Y-128229844D01*
X131900837Y-128524932D01*
X132241565Y-128695779D01*
X132609077Y-128796870D01*
X132989249Y-128824321D01*
X133367471Y-128777077D01*
X133729210Y-128656953D01*
X133976203Y-128524932D01*
X134108139Y-128229844D01*
X132938520Y-127060225D01*
X131768901Y-128229844D01*
X101729540Y-128229844D01*
X101729540Y-124779872D01*
X105765000Y-124779872D01*
X105765000Y-125220128D01*
X105850890Y-125651925D01*
X106019369Y-126058669D01*
X106263962Y-126424729D01*
X106575271Y-126736038D01*
X106941331Y-126980631D01*
X107348075Y-127149110D01*
X107779872Y-127235000D01*
X108220128Y-127235000D01*
X108651925Y-127149110D01*
X109058669Y-126980631D01*
X109132424Y-126931349D01*
X130994819Y-126931349D01*
X131042063Y-127309571D01*
X131162187Y-127671310D01*
X131294208Y-127918303D01*
X131589296Y-128050239D01*
X132758915Y-126880620D01*
X133118125Y-126880620D01*
X134287744Y-128050239D01*
X134582832Y-127918303D01*
X134753679Y-127577575D01*
X134854770Y-127210063D01*
X134882221Y-126829891D01*
X134834977Y-126451669D01*
X134714853Y-126089930D01*
X134582832Y-125842937D01*
X134287744Y-125711001D01*
X133118125Y-126880620D01*
X132758915Y-126880620D01*
X131589296Y-125711001D01*
X131294208Y-125842937D01*
X131123361Y-126183665D01*
X131022270Y-126551177D01*
X130994819Y-126931349D01*
X109132424Y-126931349D01*
X109424729Y-126736038D01*
X109736038Y-126424729D01*
X109980631Y-126058669D01*
X110149110Y-125651925D01*
X110173084Y-125531396D01*
X131768901Y-125531396D01*
X132938520Y-126701015D01*
X134058915Y-125580620D01*
X136080448Y-125580620D01*
X136080448Y-128180620D01*
X136092708Y-128305102D01*
X136129018Y-128424800D01*
X136187983Y-128535114D01*
X136267335Y-128631805D01*
X136364026Y-128711157D01*
X136474340Y-128770122D01*
X136594038Y-128806432D01*
X136718520Y-128818692D01*
X139318520Y-128818692D01*
X139443002Y-128806432D01*
X139562700Y-128770122D01*
X139673014Y-128711157D01*
X139769705Y-128631805D01*
X139849057Y-128535114D01*
X139908022Y-128424800D01*
X139944332Y-128305102D01*
X139956592Y-128180620D01*
X139956592Y-126676053D01*
X144053010Y-126676053D01*
X144053010Y-127085187D01*
X144132828Y-127486459D01*
X144289396Y-127864449D01*
X144516699Y-128204631D01*
X144805999Y-128493931D01*
X145146181Y-128721234D01*
X145524171Y-128877802D01*
X145925443Y-128957620D01*
X146334577Y-128957620D01*
X146735849Y-128877802D01*
X147113839Y-128721234D01*
X147454021Y-128493931D01*
X147743321Y-128204631D01*
X147970624Y-127864449D01*
X148127192Y-127486459D01*
X148207010Y-127085187D01*
X148207010Y-126676053D01*
X149133010Y-126676053D01*
X149133010Y-127085187D01*
X149212828Y-127486459D01*
X149369396Y-127864449D01*
X149596699Y-128204631D01*
X149885999Y-128493931D01*
X150226181Y-128721234D01*
X150604171Y-128877802D01*
X151005443Y-128957620D01*
X151414577Y-128957620D01*
X151815849Y-128877802D01*
X152193839Y-128721234D01*
X152534021Y-128493931D01*
X152823321Y-128204631D01*
X152839364Y-128180620D01*
X154351938Y-128180620D01*
X154364198Y-128305102D01*
X154400508Y-128424800D01*
X154459473Y-128535114D01*
X154538825Y-128631805D01*
X154635516Y-128711157D01*
X154745830Y-128770122D01*
X154865528Y-128806432D01*
X154990010Y-128818692D01*
X156004260Y-128815620D01*
X156163010Y-128656870D01*
X156163010Y-127007620D01*
X156417010Y-127007620D01*
X156417010Y-128656870D01*
X156575760Y-128815620D01*
X157590010Y-128818692D01*
X157714492Y-128806432D01*
X157834190Y-128770122D01*
X157944504Y-128711157D01*
X158041195Y-128631805D01*
X158120547Y-128535114D01*
X158179512Y-128424800D01*
X158215822Y-128305102D01*
X158228082Y-128180620D01*
X158225010Y-127166370D01*
X158066260Y-127007620D01*
X156417010Y-127007620D01*
X156163010Y-127007620D01*
X154513760Y-127007620D01*
X154355010Y-127166370D01*
X154351938Y-128180620D01*
X152839364Y-128180620D01*
X153050624Y-127864449D01*
X153207192Y-127486459D01*
X153287010Y-127085187D01*
X153287010Y-126676053D01*
X153207192Y-126274781D01*
X153050624Y-125896791D01*
X152839365Y-125580620D01*
X154351938Y-125580620D01*
X154355010Y-126594870D01*
X154513760Y-126753620D01*
X156163010Y-126753620D01*
X156163010Y-125104370D01*
X156417010Y-125104370D01*
X156417010Y-126753620D01*
X158066260Y-126753620D01*
X158143827Y-126676053D01*
X162324500Y-126676053D01*
X162324500Y-127085187D01*
X162404318Y-127486459D01*
X162560886Y-127864449D01*
X162788189Y-128204631D01*
X163077489Y-128493931D01*
X163417671Y-128721234D01*
X163795661Y-128877802D01*
X164196933Y-128957620D01*
X164606067Y-128957620D01*
X165007339Y-128877802D01*
X165385329Y-128721234D01*
X165725511Y-128493931D01*
X166014811Y-128204631D01*
X166242114Y-127864449D01*
X166398682Y-127486459D01*
X166478500Y-127085187D01*
X166478500Y-126676053D01*
X167404500Y-126676053D01*
X167404500Y-127085187D01*
X167484318Y-127486459D01*
X167640886Y-127864449D01*
X167868189Y-128204631D01*
X168157489Y-128493931D01*
X168497671Y-128721234D01*
X168875661Y-128877802D01*
X169276933Y-128957620D01*
X169686067Y-128957620D01*
X170087339Y-128877802D01*
X170465329Y-128721234D01*
X170805511Y-128493931D01*
X171094811Y-128204631D01*
X171110854Y-128180620D01*
X172623428Y-128180620D01*
X172635688Y-128305102D01*
X172671998Y-128424800D01*
X172730963Y-128535114D01*
X172810315Y-128631805D01*
X172907006Y-128711157D01*
X173017320Y-128770122D01*
X173137018Y-128806432D01*
X173261500Y-128818692D01*
X174275750Y-128815620D01*
X174434500Y-128656870D01*
X174434500Y-127007620D01*
X174688500Y-127007620D01*
X174688500Y-128656870D01*
X174847250Y-128815620D01*
X175861500Y-128818692D01*
X175985982Y-128806432D01*
X176105680Y-128770122D01*
X176215994Y-128711157D01*
X176312685Y-128631805D01*
X176392037Y-128535114D01*
X176451002Y-128424800D01*
X176487312Y-128305102D01*
X176499572Y-128180620D01*
X176496500Y-127166370D01*
X176337750Y-127007620D01*
X174688500Y-127007620D01*
X174434500Y-127007620D01*
X172785250Y-127007620D01*
X172626500Y-127166370D01*
X172623428Y-128180620D01*
X171110854Y-128180620D01*
X171322114Y-127864449D01*
X171478682Y-127486459D01*
X171558500Y-127085187D01*
X171558500Y-126676053D01*
X171478682Y-126274781D01*
X171322114Y-125896791D01*
X171110855Y-125580620D01*
X172623428Y-125580620D01*
X172626500Y-126594870D01*
X172785250Y-126753620D01*
X174434500Y-126753620D01*
X174434500Y-125104370D01*
X174688500Y-125104370D01*
X174688500Y-126753620D01*
X176337750Y-126753620D01*
X176496500Y-126594870D01*
X176499572Y-125580620D01*
X176487312Y-125456138D01*
X176451002Y-125336440D01*
X176392037Y-125226126D01*
X176312685Y-125129435D01*
X176215994Y-125050083D01*
X176105680Y-124991118D01*
X175985982Y-124954808D01*
X175861500Y-124942548D01*
X174847250Y-124945620D01*
X174688500Y-125104370D01*
X174434500Y-125104370D01*
X174275750Y-124945620D01*
X173261500Y-124942548D01*
X173137018Y-124954808D01*
X173017320Y-124991118D01*
X172907006Y-125050083D01*
X172810315Y-125129435D01*
X172730963Y-125226126D01*
X172671998Y-125336440D01*
X172635688Y-125456138D01*
X172623428Y-125580620D01*
X171110855Y-125580620D01*
X171094811Y-125556609D01*
X170805511Y-125267309D01*
X170465329Y-125040006D01*
X170087339Y-124883438D01*
X169686067Y-124803620D01*
X169276933Y-124803620D01*
X168875661Y-124883438D01*
X168497671Y-125040006D01*
X168157489Y-125267309D01*
X167868189Y-125556609D01*
X167640886Y-125896791D01*
X167484318Y-126274781D01*
X167404500Y-126676053D01*
X166478500Y-126676053D01*
X166398682Y-126274781D01*
X166242114Y-125896791D01*
X166014811Y-125556609D01*
X165725511Y-125267309D01*
X165385329Y-125040006D01*
X165007339Y-124883438D01*
X164606067Y-124803620D01*
X164196933Y-124803620D01*
X163795661Y-124883438D01*
X163417671Y-125040006D01*
X163077489Y-125267309D01*
X162788189Y-125556609D01*
X162560886Y-125896791D01*
X162404318Y-126274781D01*
X162324500Y-126676053D01*
X158143827Y-126676053D01*
X158225010Y-126594870D01*
X158228082Y-125580620D01*
X158215822Y-125456138D01*
X158179512Y-125336440D01*
X158120547Y-125226126D01*
X158041195Y-125129435D01*
X157944504Y-125050083D01*
X157834190Y-124991118D01*
X157714492Y-124954808D01*
X157590010Y-124942548D01*
X156575760Y-124945620D01*
X156417010Y-125104370D01*
X156163010Y-125104370D01*
X156004260Y-124945620D01*
X154990010Y-124942548D01*
X154865528Y-124954808D01*
X154745830Y-124991118D01*
X154635516Y-125050083D01*
X154538825Y-125129435D01*
X154459473Y-125226126D01*
X154400508Y-125336440D01*
X154364198Y-125456138D01*
X154351938Y-125580620D01*
X152839365Y-125580620D01*
X152823321Y-125556609D01*
X152534021Y-125267309D01*
X152193839Y-125040006D01*
X151815849Y-124883438D01*
X151414577Y-124803620D01*
X151005443Y-124803620D01*
X150604171Y-124883438D01*
X150226181Y-125040006D01*
X149885999Y-125267309D01*
X149596699Y-125556609D01*
X149369396Y-125896791D01*
X149212828Y-126274781D01*
X149133010Y-126676053D01*
X148207010Y-126676053D01*
X148127192Y-126274781D01*
X147970624Y-125896791D01*
X147743321Y-125556609D01*
X147454021Y-125267309D01*
X147113839Y-125040006D01*
X146735849Y-124883438D01*
X146334577Y-124803620D01*
X145925443Y-124803620D01*
X145524171Y-124883438D01*
X145146181Y-125040006D01*
X144805999Y-125267309D01*
X144516699Y-125556609D01*
X144289396Y-125896791D01*
X144132828Y-126274781D01*
X144053010Y-126676053D01*
X139956592Y-126676053D01*
X139956592Y-125580620D01*
X139944332Y-125456138D01*
X139908022Y-125336440D01*
X139849057Y-125226126D01*
X139769705Y-125129435D01*
X139673014Y-125050083D01*
X139562700Y-124991118D01*
X139443002Y-124954808D01*
X139318520Y-124942548D01*
X136718520Y-124942548D01*
X136594038Y-124954808D01*
X136474340Y-124991118D01*
X136364026Y-125050083D01*
X136267335Y-125129435D01*
X136187983Y-125226126D01*
X136129018Y-125336440D01*
X136092708Y-125456138D01*
X136080448Y-125580620D01*
X134058915Y-125580620D01*
X134108139Y-125531396D01*
X133976203Y-125236308D01*
X133635475Y-125065461D01*
X133267963Y-124964370D01*
X132887791Y-124936919D01*
X132509569Y-124984163D01*
X132147830Y-125104287D01*
X131900837Y-125236308D01*
X131768901Y-125531396D01*
X110173084Y-125531396D01*
X110235000Y-125220128D01*
X110235000Y-124779872D01*
X189765000Y-124779872D01*
X189765000Y-125220128D01*
X189850890Y-125651925D01*
X190019369Y-126058669D01*
X190263962Y-126424729D01*
X190575271Y-126736038D01*
X190941331Y-126980631D01*
X191348075Y-127149110D01*
X191779872Y-127235000D01*
X192220128Y-127235000D01*
X192651925Y-127149110D01*
X193058669Y-126980631D01*
X193424729Y-126736038D01*
X193736038Y-126424729D01*
X193980631Y-126058669D01*
X194149110Y-125651925D01*
X194235000Y-125220128D01*
X194235000Y-124779872D01*
X194149110Y-124348075D01*
X193980631Y-123941331D01*
X193736038Y-123575271D01*
X193424729Y-123263962D01*
X193058669Y-123019369D01*
X192651925Y-122850890D01*
X192220128Y-122765000D01*
X191779872Y-122765000D01*
X191348075Y-122850890D01*
X190941331Y-123019369D01*
X190575271Y-123263962D01*
X190263962Y-123575271D01*
X190019369Y-123941331D01*
X189850890Y-124348075D01*
X189765000Y-124779872D01*
X110235000Y-124779872D01*
X110149110Y-124348075D01*
X109980631Y-123941331D01*
X109736038Y-123575271D01*
X109424729Y-123263962D01*
X109058669Y-123019369D01*
X108651925Y-122850890D01*
X108220128Y-122765000D01*
X107779872Y-122765000D01*
X107348075Y-122850890D01*
X106941331Y-123019369D01*
X106575271Y-123263962D01*
X106263962Y-123575271D01*
X106019369Y-123941331D01*
X105850890Y-124348075D01*
X105765000Y-124779872D01*
X101729540Y-124779872D01*
X101729540Y-121124980D01*
X198437500Y-121124980D01*
X198437500Y-148750020D01*
G37*
X198437500Y-148750020D02*
X163832424Y-148750020D01*
X163851300Y-148655124D01*
X163851300Y-148423276D01*
X163806069Y-148195882D01*
X163717344Y-147981681D01*
X163588536Y-147788906D01*
X163424594Y-147624964D01*
X163231819Y-147496156D01*
X163017618Y-147407431D01*
X162790224Y-147362200D01*
X162558376Y-147362200D01*
X162330982Y-147407431D01*
X162116781Y-147496156D01*
X161924006Y-147624964D01*
X161760064Y-147788906D01*
X161631256Y-147981681D01*
X161542531Y-148195882D01*
X161497300Y-148423276D01*
X161497300Y-148655124D01*
X161516176Y-148750020D01*
X101729540Y-148750020D01*
X101729540Y-146142356D01*
X144492000Y-146142356D01*
X144492000Y-146374204D01*
X144537231Y-146601598D01*
X144625956Y-146815799D01*
X144754764Y-147008574D01*
X144918706Y-147172516D01*
X145111481Y-147301324D01*
X145325682Y-147390049D01*
X145553076Y-147435280D01*
X145784924Y-147435280D01*
X146012318Y-147390049D01*
X146226519Y-147301324D01*
X146419294Y-147172516D01*
X146583236Y-147008574D01*
X146712044Y-146815799D01*
X146800769Y-146601598D01*
X146846000Y-146374204D01*
X146846000Y-146142356D01*
X146800769Y-145914962D01*
X146712044Y-145700761D01*
X146583236Y-145507986D01*
X146553411Y-145478161D01*
X170562320Y-145478161D01*
X170562320Y-145682039D01*
X170602094Y-145881998D01*
X170680115Y-146070356D01*
X170793383Y-146239874D01*
X170937546Y-146384037D01*
X171107064Y-146497305D01*
X171295422Y-146575326D01*
X171495381Y-146615100D01*
X171699259Y-146615100D01*
X171899218Y-146575326D01*
X172087576Y-146497305D01*
X172257094Y-146384037D01*
X172401257Y-146239874D01*
X172514525Y-146070356D01*
X172592546Y-145881998D01*
X172632320Y-145682039D01*
X172632320Y-145478161D01*
X172592546Y-145278202D01*
X172514525Y-145089844D01*
X172401257Y-144920326D01*
X172257094Y-144776163D01*
X172087576Y-144662895D01*
X171899218Y-144584874D01*
X171699259Y-144545100D01*
X171495381Y-144545100D01*
X171295422Y-144584874D01*
X171107064Y-144662895D01*
X170937546Y-144776163D01*
X170793383Y-144920326D01*
X170680115Y-145089844D01*
X170602094Y-145278202D01*
X170562320Y-145478161D01*
X146553411Y-145478161D01*
X146419294Y-145344044D01*
X146226519Y-145215236D01*
X146012318Y-145126511D01*
X145784924Y-145081280D01*
X145553076Y-145081280D01*
X145325682Y-145126511D01*
X145111481Y-145215236D01*
X144918706Y-145344044D01*
X144754764Y-145507986D01*
X144625956Y-145700761D01*
X144537231Y-145914962D01*
X144492000Y-146142356D01*
X101729540Y-146142356D01*
X101729540Y-143728101D01*
X168852900Y-143728101D01*
X168852900Y-143931979D01*
X168892674Y-144131938D01*
X168970695Y-144320296D01*
X169083963Y-144489814D01*
X169228126Y-144633977D01*
X169397644Y-144747245D01*
X169586002Y-144825266D01*
X169785961Y-144865040D01*
X169989839Y-144865040D01*
X170189798Y-144825266D01*
X170378156Y-144747245D01*
X170547674Y-144633977D01*
X170691837Y-144489814D01*
X170805105Y-144320296D01*
X170883126Y-144131938D01*
X170922900Y-143931979D01*
X170922900Y-143728101D01*
X170883126Y-143528142D01*
X170805105Y-143339784D01*
X170691837Y-143170266D01*
X170547674Y-143026103D01*
X170378156Y-142912835D01*
X170189798Y-142834814D01*
X169989839Y-142795040D01*
X169785961Y-142795040D01*
X169586002Y-142834814D01*
X169397644Y-142912835D01*
X169228126Y-143026103D01*
X169083963Y-143170266D01*
X168970695Y-143339784D01*
X168892674Y-143528142D01*
X168852900Y-143728101D01*
X101729540Y-143728101D01*
X101729540Y-141544991D01*
X144146226Y-141544991D01*
X144146226Y-141748869D01*
X144186000Y-141948828D01*
X144264021Y-142137186D01*
X144377289Y-142306704D01*
X144521452Y-142450867D01*
X144690970Y-142564135D01*
X144879328Y-142642156D01*
X145079287Y-142681930D01*
X145283165Y-142681930D01*
X145483124Y-142642156D01*
X145671482Y-142564135D01*
X145841000Y-142450867D01*
X145985163Y-142306704D01*
X146094452Y-142143141D01*
X149538740Y-142143141D01*
X149538740Y-142347019D01*
X149578514Y-142546978D01*
X149656535Y-142735336D01*
X149769803Y-142904854D01*
X149913966Y-143049017D01*
X150083484Y-143162285D01*
X150271842Y-143240306D01*
X150471801Y-143280080D01*
X150675679Y-143280080D01*
X150875638Y-143240306D01*
X151063996Y-143162285D01*
X151233514Y-143049017D01*
X151377677Y-142904854D01*
X151490945Y-142735336D01*
X151568966Y-142546978D01*
X151608740Y-142347019D01*
X151608740Y-142143141D01*
X151568966Y-141943182D01*
X151490945Y-141754824D01*
X151377677Y-141585306D01*
X151233514Y-141441143D01*
X151063996Y-141327875D01*
X150875638Y-141249854D01*
X150675679Y-141210080D01*
X150471801Y-141210080D01*
X150271842Y-141249854D01*
X150083484Y-141327875D01*
X149913966Y-141441143D01*
X149769803Y-141585306D01*
X149656535Y-141754824D01*
X149578514Y-141943182D01*
X149538740Y-142143141D01*
X146094452Y-142143141D01*
X146098431Y-142137186D01*
X146176452Y-141948828D01*
X146216226Y-141748869D01*
X146216226Y-141544991D01*
X146176452Y-141345032D01*
X146098431Y-141156674D01*
X145985163Y-140987156D01*
X145841000Y-140842993D01*
X145671482Y-140729725D01*
X145483124Y-140651704D01*
X145283165Y-140611930D01*
X145079287Y-140611930D01*
X144879328Y-140651704D01*
X144690970Y-140729725D01*
X144521452Y-140842993D01*
X144377289Y-140987156D01*
X144264021Y-141156674D01*
X144186000Y-141345032D01*
X144146226Y-141544991D01*
X101729540Y-141544991D01*
X101729540Y-140365141D01*
X166041120Y-140365141D01*
X166041120Y-140569019D01*
X166080894Y-140768978D01*
X166158915Y-140957336D01*
X166272183Y-141126854D01*
X166416346Y-141271017D01*
X166585864Y-141384285D01*
X166774222Y-141462306D01*
X166974181Y-141502080D01*
X167178059Y-141502080D01*
X167378018Y-141462306D01*
X167566376Y-141384285D01*
X167735894Y-141271017D01*
X167880057Y-141126854D01*
X167993325Y-140957336D01*
X168071346Y-140768978D01*
X168111120Y-140569019D01*
X168111120Y-140365141D01*
X168071346Y-140165182D01*
X167993325Y-139976824D01*
X167880057Y-139807306D01*
X167735894Y-139663143D01*
X167566376Y-139549875D01*
X167378018Y-139471854D01*
X167178059Y-139432080D01*
X166974181Y-139432080D01*
X166774222Y-139471854D01*
X166585864Y-139549875D01*
X166416346Y-139663143D01*
X166272183Y-139807306D01*
X166158915Y-139976824D01*
X166080894Y-140165182D01*
X166041120Y-140365141D01*
X101729540Y-140365141D01*
X101729540Y-139389781D01*
X172655280Y-139389781D01*
X172655280Y-139593659D01*
X172695054Y-139793618D01*
X172773075Y-139981976D01*
X172886343Y-140151494D01*
X173030506Y-140295657D01*
X173200024Y-140408925D01*
X173388382Y-140486946D01*
X173588341Y-140526720D01*
X173792219Y-140526720D01*
X173992178Y-140486946D01*
X174180536Y-140408925D01*
X174350054Y-140295657D01*
X174494217Y-140151494D01*
X174607485Y-139981976D01*
X174685506Y-139793618D01*
X174725280Y-139593659D01*
X174725280Y-139389781D01*
X174685506Y-139189822D01*
X174607485Y-139001464D01*
X174494217Y-138831946D01*
X174350054Y-138687783D01*
X174180536Y-138574515D01*
X173992178Y-138496494D01*
X173792219Y-138456720D01*
X173588341Y-138456720D01*
X173388382Y-138496494D01*
X173200024Y-138574515D01*
X173030506Y-138687783D01*
X172886343Y-138831946D01*
X172773075Y-139001464D01*
X172695054Y-139189822D01*
X172655280Y-139389781D01*
X101729540Y-139389781D01*
X101729540Y-136779872D01*
X105765000Y-136779872D01*
X105765000Y-137220128D01*
X105850890Y-137651925D01*
X106019369Y-138058669D01*
X106263962Y-138424729D01*
X106575271Y-138736038D01*
X106941331Y-138980631D01*
X107348075Y-139149110D01*
X107779872Y-139235000D01*
X108220128Y-139235000D01*
X108651925Y-139149110D01*
X109058669Y-138980631D01*
X109424729Y-138736038D01*
X109736038Y-138424729D01*
X109980631Y-138058669D01*
X110149110Y-137651925D01*
X110235000Y-137220128D01*
X110235000Y-136779872D01*
X189765000Y-136779872D01*
X189765000Y-137220128D01*
X189850890Y-137651925D01*
X190019369Y-138058669D01*
X190263962Y-138424729D01*
X190575271Y-138736038D01*
X190941331Y-138980631D01*
X191348075Y-139149110D01*
X191779872Y-139235000D01*
X192220128Y-139235000D01*
X192651925Y-139149110D01*
X193058669Y-138980631D01*
X193424729Y-138736038D01*
X193736038Y-138424729D01*
X193980631Y-138058669D01*
X194149110Y-137651925D01*
X194235000Y-137220128D01*
X194235000Y-136779872D01*
X194149110Y-136348075D01*
X193980631Y-135941331D01*
X193736038Y-135575271D01*
X193424729Y-135263962D01*
X193058669Y-135019369D01*
X192651925Y-134850890D01*
X192220128Y-134765000D01*
X191779872Y-134765000D01*
X191348075Y-134850890D01*
X190941331Y-135019369D01*
X190575271Y-135263962D01*
X190263962Y-135575271D01*
X190019369Y-135941331D01*
X189850890Y-136348075D01*
X189765000Y-136779872D01*
X110235000Y-136779872D01*
X110149110Y-136348075D01*
X109980631Y-135941331D01*
X109736038Y-135575271D01*
X109424729Y-135263962D01*
X109058669Y-135019369D01*
X108651925Y-134850890D01*
X108220128Y-134765000D01*
X107779872Y-134765000D01*
X107348075Y-134850890D01*
X106941331Y-135019369D01*
X106575271Y-135263962D01*
X106263962Y-135575271D01*
X106019369Y-135941331D01*
X105850890Y-136348075D01*
X105765000Y-136779872D01*
X101729540Y-136779872D01*
X101729540Y-128229844D01*
X131768901Y-128229844D01*
X131900837Y-128524932D01*
X132241565Y-128695779D01*
X132609077Y-128796870D01*
X132989249Y-128824321D01*
X133367471Y-128777077D01*
X133729210Y-128656953D01*
X133976203Y-128524932D01*
X134108139Y-128229844D01*
X132938520Y-127060225D01*
X131768901Y-128229844D01*
X101729540Y-128229844D01*
X101729540Y-124779872D01*
X105765000Y-124779872D01*
X105765000Y-125220128D01*
X105850890Y-125651925D01*
X106019369Y-126058669D01*
X106263962Y-126424729D01*
X106575271Y-126736038D01*
X106941331Y-126980631D01*
X107348075Y-127149110D01*
X107779872Y-127235000D01*
X108220128Y-127235000D01*
X108651925Y-127149110D01*
X109058669Y-126980631D01*
X109132424Y-126931349D01*
X130994819Y-126931349D01*
X131042063Y-127309571D01*
X131162187Y-127671310D01*
X131294208Y-127918303D01*
X131589296Y-128050239D01*
X132758915Y-126880620D01*
X133118125Y-126880620D01*
X134287744Y-128050239D01*
X134582832Y-127918303D01*
X134753679Y-127577575D01*
X134854770Y-127210063D01*
X134882221Y-126829891D01*
X134834977Y-126451669D01*
X134714853Y-126089930D01*
X134582832Y-125842937D01*
X134287744Y-125711001D01*
X133118125Y-126880620D01*
X132758915Y-126880620D01*
X131589296Y-125711001D01*
X131294208Y-125842937D01*
X131123361Y-126183665D01*
X131022270Y-126551177D01*
X130994819Y-126931349D01*
X109132424Y-126931349D01*
X109424729Y-126736038D01*
X109736038Y-126424729D01*
X109980631Y-126058669D01*
X110149110Y-125651925D01*
X110173084Y-125531396D01*
X131768901Y-125531396D01*
X132938520Y-126701015D01*
X134058915Y-125580620D01*
X136080448Y-125580620D01*
X136080448Y-128180620D01*
X136092708Y-128305102D01*
X136129018Y-128424800D01*
X136187983Y-128535114D01*
X136267335Y-128631805D01*
X136364026Y-128711157D01*
X136474340Y-128770122D01*
X136594038Y-128806432D01*
X136718520Y-128818692D01*
X139318520Y-128818692D01*
X139443002Y-128806432D01*
X139562700Y-128770122D01*
X139673014Y-128711157D01*
X139769705Y-128631805D01*
X139849057Y-128535114D01*
X139908022Y-128424800D01*
X139944332Y-128305102D01*
X139956592Y-128180620D01*
X139956592Y-126676053D01*
X144053010Y-126676053D01*
X144053010Y-127085187D01*
X144132828Y-127486459D01*
X144289396Y-127864449D01*
X144516699Y-128204631D01*
X144805999Y-128493931D01*
X145146181Y-128721234D01*
X145524171Y-128877802D01*
X145925443Y-128957620D01*
X146334577Y-128957620D01*
X146735849Y-128877802D01*
X147113839Y-128721234D01*
X147454021Y-128493931D01*
X147743321Y-128204631D01*
X147970624Y-127864449D01*
X148127192Y-127486459D01*
X148207010Y-127085187D01*
X148207010Y-126676053D01*
X149133010Y-126676053D01*
X149133010Y-127085187D01*
X149212828Y-127486459D01*
X149369396Y-127864449D01*
X149596699Y-128204631D01*
X149885999Y-128493931D01*
X150226181Y-128721234D01*
X150604171Y-128877802D01*
X151005443Y-128957620D01*
X151414577Y-128957620D01*
X151815849Y-128877802D01*
X152193839Y-128721234D01*
X152534021Y-128493931D01*
X152823321Y-128204631D01*
X152839364Y-128180620D01*
X154351938Y-128180620D01*
X154364198Y-128305102D01*
X154400508Y-128424800D01*
X154459473Y-128535114D01*
X154538825Y-128631805D01*
X154635516Y-128711157D01*
X154745830Y-128770122D01*
X154865528Y-128806432D01*
X154990010Y-128818692D01*
X156004260Y-128815620D01*
X156163010Y-128656870D01*
X156163010Y-127007620D01*
X156417010Y-127007620D01*
X156417010Y-128656870D01*
X156575760Y-128815620D01*
X157590010Y-128818692D01*
X157714492Y-128806432D01*
X157834190Y-128770122D01*
X157944504Y-128711157D01*
X158041195Y-128631805D01*
X158120547Y-128535114D01*
X158179512Y-128424800D01*
X158215822Y-128305102D01*
X158228082Y-128180620D01*
X158225010Y-127166370D01*
X158066260Y-127007620D01*
X156417010Y-127007620D01*
X156163010Y-127007620D01*
X154513760Y-127007620D01*
X154355010Y-127166370D01*
X154351938Y-128180620D01*
X152839364Y-128180620D01*
X153050624Y-127864449D01*
X153207192Y-127486459D01*
X153287010Y-127085187D01*
X153287010Y-126676053D01*
X153207192Y-126274781D01*
X153050624Y-125896791D01*
X152839365Y-125580620D01*
X154351938Y-125580620D01*
X154355010Y-126594870D01*
X154513760Y-126753620D01*
X156163010Y-126753620D01*
X156163010Y-125104370D01*
X156417010Y-125104370D01*
X156417010Y-126753620D01*
X158066260Y-126753620D01*
X158143827Y-126676053D01*
X162324500Y-126676053D01*
X162324500Y-127085187D01*
X162404318Y-127486459D01*
X162560886Y-127864449D01*
X162788189Y-128204631D01*
X163077489Y-128493931D01*
X163417671Y-128721234D01*
X163795661Y-128877802D01*
X164196933Y-128957620D01*
X164606067Y-128957620D01*
X165007339Y-128877802D01*
X165385329Y-128721234D01*
X165725511Y-128493931D01*
X166014811Y-128204631D01*
X166242114Y-127864449D01*
X166398682Y-127486459D01*
X166478500Y-127085187D01*
X166478500Y-126676053D01*
X167404500Y-126676053D01*
X167404500Y-127085187D01*
X167484318Y-127486459D01*
X167640886Y-127864449D01*
X167868189Y-128204631D01*
X168157489Y-128493931D01*
X168497671Y-128721234D01*
X168875661Y-128877802D01*
X169276933Y-128957620D01*
X169686067Y-128957620D01*
X170087339Y-128877802D01*
X170465329Y-128721234D01*
X170805511Y-128493931D01*
X171094811Y-128204631D01*
X171110854Y-128180620D01*
X172623428Y-128180620D01*
X172635688Y-128305102D01*
X172671998Y-128424800D01*
X172730963Y-128535114D01*
X172810315Y-128631805D01*
X172907006Y-128711157D01*
X173017320Y-128770122D01*
X173137018Y-128806432D01*
X173261500Y-128818692D01*
X174275750Y-128815620D01*
X174434500Y-128656870D01*
X174434500Y-127007620D01*
X174688500Y-127007620D01*
X174688500Y-128656870D01*
X174847250Y-128815620D01*
X175861500Y-128818692D01*
X175985982Y-128806432D01*
X176105680Y-128770122D01*
X176215994Y-128711157D01*
X176312685Y-128631805D01*
X176392037Y-128535114D01*
X176451002Y-128424800D01*
X176487312Y-128305102D01*
X176499572Y-128180620D01*
X176496500Y-127166370D01*
X176337750Y-127007620D01*
X174688500Y-127007620D01*
X174434500Y-127007620D01*
X172785250Y-127007620D01*
X172626500Y-127166370D01*
X172623428Y-128180620D01*
X171110854Y-128180620D01*
X171322114Y-127864449D01*
X171478682Y-127486459D01*
X171558500Y-127085187D01*
X171558500Y-126676053D01*
X171478682Y-126274781D01*
X171322114Y-125896791D01*
X171110855Y-125580620D01*
X172623428Y-125580620D01*
X172626500Y-126594870D01*
X172785250Y-126753620D01*
X174434500Y-126753620D01*
X174434500Y-125104370D01*
X174688500Y-125104370D01*
X174688500Y-126753620D01*
X176337750Y-126753620D01*
X176496500Y-126594870D01*
X176499572Y-125580620D01*
X176487312Y-125456138D01*
X176451002Y-125336440D01*
X176392037Y-125226126D01*
X176312685Y-125129435D01*
X176215994Y-125050083D01*
X176105680Y-124991118D01*
X175985982Y-124954808D01*
X175861500Y-124942548D01*
X174847250Y-124945620D01*
X174688500Y-125104370D01*
X174434500Y-125104370D01*
X174275750Y-124945620D01*
X173261500Y-124942548D01*
X173137018Y-124954808D01*
X173017320Y-124991118D01*
X172907006Y-125050083D01*
X172810315Y-125129435D01*
X172730963Y-125226126D01*
X172671998Y-125336440D01*
X172635688Y-125456138D01*
X172623428Y-125580620D01*
X171110855Y-125580620D01*
X171094811Y-125556609D01*
X170805511Y-125267309D01*
X170465329Y-125040006D01*
X170087339Y-124883438D01*
X169686067Y-124803620D01*
X169276933Y-124803620D01*
X168875661Y-124883438D01*
X168497671Y-125040006D01*
X168157489Y-125267309D01*
X167868189Y-125556609D01*
X167640886Y-125896791D01*
X167484318Y-126274781D01*
X167404500Y-126676053D01*
X166478500Y-126676053D01*
X166398682Y-126274781D01*
X166242114Y-125896791D01*
X166014811Y-125556609D01*
X165725511Y-125267309D01*
X165385329Y-125040006D01*
X165007339Y-124883438D01*
X164606067Y-124803620D01*
X164196933Y-124803620D01*
X163795661Y-124883438D01*
X163417671Y-125040006D01*
X163077489Y-125267309D01*
X162788189Y-125556609D01*
X162560886Y-125896791D01*
X162404318Y-126274781D01*
X162324500Y-126676053D01*
X158143827Y-126676053D01*
X158225010Y-126594870D01*
X158228082Y-125580620D01*
X158215822Y-125456138D01*
X158179512Y-125336440D01*
X158120547Y-125226126D01*
X158041195Y-125129435D01*
X157944504Y-125050083D01*
X157834190Y-124991118D01*
X157714492Y-124954808D01*
X157590010Y-124942548D01*
X156575760Y-124945620D01*
X156417010Y-125104370D01*
X156163010Y-125104370D01*
X156004260Y-124945620D01*
X154990010Y-124942548D01*
X154865528Y-124954808D01*
X154745830Y-124991118D01*
X154635516Y-125050083D01*
X154538825Y-125129435D01*
X154459473Y-125226126D01*
X154400508Y-125336440D01*
X154364198Y-125456138D01*
X154351938Y-125580620D01*
X152839365Y-125580620D01*
X152823321Y-125556609D01*
X152534021Y-125267309D01*
X152193839Y-125040006D01*
X151815849Y-124883438D01*
X151414577Y-124803620D01*
X151005443Y-124803620D01*
X150604171Y-124883438D01*
X150226181Y-125040006D01*
X149885999Y-125267309D01*
X149596699Y-125556609D01*
X149369396Y-125896791D01*
X149212828Y-126274781D01*
X149133010Y-126676053D01*
X148207010Y-126676053D01*
X148127192Y-126274781D01*
X147970624Y-125896791D01*
X147743321Y-125556609D01*
X147454021Y-125267309D01*
X147113839Y-125040006D01*
X146735849Y-124883438D01*
X146334577Y-124803620D01*
X145925443Y-124803620D01*
X145524171Y-124883438D01*
X145146181Y-125040006D01*
X144805999Y-125267309D01*
X144516699Y-125556609D01*
X144289396Y-125896791D01*
X144132828Y-126274781D01*
X144053010Y-126676053D01*
X139956592Y-126676053D01*
X139956592Y-125580620D01*
X139944332Y-125456138D01*
X139908022Y-125336440D01*
X139849057Y-125226126D01*
X139769705Y-125129435D01*
X139673014Y-125050083D01*
X139562700Y-124991118D01*
X139443002Y-124954808D01*
X139318520Y-124942548D01*
X136718520Y-124942548D01*
X136594038Y-124954808D01*
X136474340Y-124991118D01*
X136364026Y-125050083D01*
X136267335Y-125129435D01*
X136187983Y-125226126D01*
X136129018Y-125336440D01*
X136092708Y-125456138D01*
X136080448Y-125580620D01*
X134058915Y-125580620D01*
X134108139Y-125531396D01*
X133976203Y-125236308D01*
X133635475Y-125065461D01*
X133267963Y-124964370D01*
X132887791Y-124936919D01*
X132509569Y-124984163D01*
X132147830Y-125104287D01*
X131900837Y-125236308D01*
X131768901Y-125531396D01*
X110173084Y-125531396D01*
X110235000Y-125220128D01*
X110235000Y-124779872D01*
X189765000Y-124779872D01*
X189765000Y-125220128D01*
X189850890Y-125651925D01*
X190019369Y-126058669D01*
X190263962Y-126424729D01*
X190575271Y-126736038D01*
X190941331Y-126980631D01*
X191348075Y-127149110D01*
X191779872Y-127235000D01*
X192220128Y-127235000D01*
X192651925Y-127149110D01*
X193058669Y-126980631D01*
X193424729Y-126736038D01*
X193736038Y-126424729D01*
X193980631Y-126058669D01*
X194149110Y-125651925D01*
X194235000Y-125220128D01*
X194235000Y-124779872D01*
X194149110Y-124348075D01*
X193980631Y-123941331D01*
X193736038Y-123575271D01*
X193424729Y-123263962D01*
X193058669Y-123019369D01*
X192651925Y-122850890D01*
X192220128Y-122765000D01*
X191779872Y-122765000D01*
X191348075Y-122850890D01*
X190941331Y-123019369D01*
X190575271Y-123263962D01*
X190263962Y-123575271D01*
X190019369Y-123941331D01*
X189850890Y-124348075D01*
X189765000Y-124779872D01*
X110235000Y-124779872D01*
X110149110Y-124348075D01*
X109980631Y-123941331D01*
X109736038Y-123575271D01*
X109424729Y-123263962D01*
X109058669Y-123019369D01*
X108651925Y-122850890D01*
X108220128Y-122765000D01*
X107779872Y-122765000D01*
X107348075Y-122850890D01*
X106941331Y-123019369D01*
X106575271Y-123263962D01*
X106263962Y-123575271D01*
X106019369Y-123941331D01*
X105850890Y-124348075D01*
X105765000Y-124779872D01*
X101729540Y-124779872D01*
X101729540Y-121124980D01*
X198437500Y-121124980D01*
X198437500Y-148750020D01*
M02*
