G04 #@! TF.GenerationSoftware,KiCad,Pcbnew,(5.1.5)-3*
G04 #@! TF.CreationDate,2020-11-11T17:48:52-05:00*
G04 #@! TF.ProjectId,sensor_dmf_board,73656e73-6f72-45f6-946d-665f626f6172,rev?*
G04 #@! TF.SameCoordinates,Original*
G04 #@! TF.FileFunction,Soldermask,Bot*
G04 #@! TF.FilePolarity,Negative*
%FSLAX46Y46*%
G04 Gerber Fmt 4.6, Leading zero omitted, Abs format (unit mm)*
G04 Created by KiCad (PCBNEW (5.1.5)-3) date 2020-11-11 17:48:52*
%MOMM*%
%LPD*%
G04 APERTURE LIST*
%ADD10C,0.100000*%
G04 APERTURE END LIST*
D10*
G36*
X146527520Y-133553200D02*
G01*
X146535140Y-140665200D01*
X146715480Y-140916660D01*
X146715480Y-142176500D01*
X145900140Y-142991840D01*
X144406620Y-142991840D01*
X142659100Y-141244320D01*
X142659100Y-133654800D01*
X143891000Y-132422900D01*
X145397220Y-132422900D01*
X146527520Y-133553200D01*
G37*
X146527520Y-133553200D02*
X146535140Y-140665200D01*
X146715480Y-140916660D01*
X146715480Y-142176500D01*
X145900140Y-142991840D01*
X144406620Y-142991840D01*
X142659100Y-141244320D01*
X142659100Y-133654800D01*
X143891000Y-132422900D01*
X145397220Y-132422900D01*
X146527520Y-133553200D01*
G36*
X172928280Y-136377680D02*
G01*
X172913040Y-143410940D01*
X170947080Y-145376900D01*
X170682920Y-145379440D01*
X168991280Y-145379440D01*
X168310560Y-144698720D01*
X168310560Y-142882620D01*
X169120820Y-142072360D01*
X169120820Y-136568180D01*
X169867580Y-135821420D01*
X171043600Y-135821420D01*
X171028360Y-135818880D01*
X171797980Y-135818880D01*
X172928280Y-136377680D01*
G37*
X172928280Y-136377680D02*
X172913040Y-143410940D01*
X170947080Y-145376900D01*
X170682920Y-145379440D01*
X168991280Y-145379440D01*
X168310560Y-144698720D01*
X168310560Y-142882620D01*
X169120820Y-142072360D01*
X169120820Y-136568180D01*
X169867580Y-135821420D01*
X171043600Y-135821420D01*
X171028360Y-135818880D01*
X171797980Y-135818880D01*
X172928280Y-136377680D01*
G36*
X149840120Y-149050820D02*
G01*
X147738120Y-149050820D01*
X147738120Y-147548820D01*
X149840120Y-147548820D01*
X149840120Y-149050820D01*
G37*
G36*
X158606000Y-147101000D02*
G01*
X157004000Y-147101000D01*
X157004000Y-143999000D01*
X158606000Y-143999000D01*
X158606000Y-147101000D01*
G37*
G36*
X156456000Y-147101000D02*
G01*
X155554000Y-147101000D01*
X155554000Y-143999000D01*
X156456000Y-143999000D01*
X156456000Y-147101000D01*
G37*
G36*
X149496000Y-142996000D02*
G01*
X148194000Y-142996000D01*
X148194000Y-141494000D01*
X149496000Y-141494000D01*
X149496000Y-142996000D01*
G37*
G36*
X108375256Y-135391298D02*
G01*
X108481579Y-135412447D01*
X108782042Y-135536903D01*
X109052451Y-135717585D01*
X109282415Y-135947549D01*
X109463097Y-136217958D01*
X109587553Y-136518421D01*
X109651000Y-136837391D01*
X109651000Y-137162609D01*
X109587553Y-137481579D01*
X109463097Y-137782042D01*
X109282415Y-138052451D01*
X109052451Y-138282415D01*
X108782042Y-138463097D01*
X108481579Y-138587553D01*
X108375256Y-138608702D01*
X108162611Y-138651000D01*
X107837389Y-138651000D01*
X107624744Y-138608702D01*
X107518421Y-138587553D01*
X107217958Y-138463097D01*
X106947549Y-138282415D01*
X106717585Y-138052451D01*
X106536903Y-137782042D01*
X106412447Y-137481579D01*
X106349000Y-137162609D01*
X106349000Y-136837391D01*
X106412447Y-136518421D01*
X106536903Y-136217958D01*
X106717585Y-135947549D01*
X106947549Y-135717585D01*
X107217958Y-135536903D01*
X107518421Y-135412447D01*
X107624744Y-135391298D01*
X107837389Y-135349000D01*
X108162611Y-135349000D01*
X108375256Y-135391298D01*
G37*
G36*
X192375256Y-135391298D02*
G01*
X192481579Y-135412447D01*
X192782042Y-135536903D01*
X193052451Y-135717585D01*
X193282415Y-135947549D01*
X193463097Y-136217958D01*
X193587553Y-136518421D01*
X193651000Y-136837391D01*
X193651000Y-137162609D01*
X193587553Y-137481579D01*
X193463097Y-137782042D01*
X193282415Y-138052451D01*
X193052451Y-138282415D01*
X192782042Y-138463097D01*
X192481579Y-138587553D01*
X192375256Y-138608702D01*
X192162611Y-138651000D01*
X191837389Y-138651000D01*
X191624744Y-138608702D01*
X191518421Y-138587553D01*
X191217958Y-138463097D01*
X190947549Y-138282415D01*
X190717585Y-138052451D01*
X190536903Y-137782042D01*
X190412447Y-137481579D01*
X190349000Y-137162609D01*
X190349000Y-136837391D01*
X190412447Y-136518421D01*
X190536903Y-136217958D01*
X190717585Y-135947549D01*
X190947549Y-135717585D01*
X191217958Y-135536903D01*
X191518421Y-135412447D01*
X191624744Y-135391298D01*
X191837389Y-135349000D01*
X192162611Y-135349000D01*
X192375256Y-135391298D01*
G37*
G36*
X146524082Y-125581538D02*
G01*
X146769949Y-125683379D01*
X146881338Y-125757807D01*
X146991221Y-125831229D01*
X147179401Y-126019409D01*
X147327252Y-126240683D01*
X147429092Y-126486548D01*
X147461804Y-126651000D01*
X147481010Y-126747558D01*
X147481010Y-127013682D01*
X147429092Y-127274692D01*
X147327251Y-127520559D01*
X147179400Y-127741832D01*
X146991222Y-127930010D01*
X146769949Y-128077861D01*
X146769948Y-128077862D01*
X146769947Y-128077862D01*
X146524082Y-128179702D01*
X146263073Y-128231620D01*
X145996947Y-128231620D01*
X145735938Y-128179702D01*
X145490073Y-128077862D01*
X145490072Y-128077862D01*
X145490071Y-128077861D01*
X145268798Y-127930010D01*
X145080620Y-127741832D01*
X144932769Y-127520559D01*
X144830928Y-127274692D01*
X144779010Y-127013682D01*
X144779010Y-126747558D01*
X144798217Y-126651000D01*
X144830928Y-126486548D01*
X144932768Y-126240683D01*
X145080619Y-126019409D01*
X145268799Y-125831229D01*
X145378682Y-125757807D01*
X145490071Y-125683379D01*
X145735938Y-125581538D01*
X145996947Y-125529620D01*
X146263073Y-125529620D01*
X146524082Y-125581538D01*
G37*
G36*
X157641010Y-128231620D02*
G01*
X154939010Y-128231620D01*
X154939010Y-125529620D01*
X157641010Y-125529620D01*
X157641010Y-128231620D01*
G37*
G36*
X151604082Y-125581538D02*
G01*
X151849949Y-125683379D01*
X151961338Y-125757807D01*
X152071221Y-125831229D01*
X152259401Y-126019409D01*
X152407252Y-126240683D01*
X152509092Y-126486548D01*
X152541804Y-126651000D01*
X152561010Y-126747558D01*
X152561010Y-127013682D01*
X152509092Y-127274692D01*
X152407251Y-127520559D01*
X152259400Y-127741832D01*
X152071222Y-127930010D01*
X151849949Y-128077861D01*
X151849948Y-128077862D01*
X151849947Y-128077862D01*
X151604082Y-128179702D01*
X151343073Y-128231620D01*
X151076947Y-128231620D01*
X150815938Y-128179702D01*
X150570073Y-128077862D01*
X150570072Y-128077862D01*
X150570071Y-128077861D01*
X150348798Y-127930010D01*
X150160620Y-127741832D01*
X150012769Y-127520559D01*
X149910928Y-127274692D01*
X149859010Y-127013682D01*
X149859010Y-126747558D01*
X149878217Y-126651000D01*
X149910928Y-126486548D01*
X150012768Y-126240683D01*
X150160619Y-126019409D01*
X150348799Y-125831229D01*
X150458682Y-125757807D01*
X150570071Y-125683379D01*
X150815938Y-125581538D01*
X151076947Y-125529620D01*
X151343073Y-125529620D01*
X151604082Y-125581538D01*
G37*
G36*
X169875572Y-125581538D02*
G01*
X170121439Y-125683379D01*
X170232828Y-125757807D01*
X170342711Y-125831229D01*
X170530891Y-126019409D01*
X170678742Y-126240683D01*
X170780582Y-126486548D01*
X170813294Y-126651000D01*
X170832500Y-126747558D01*
X170832500Y-127013682D01*
X170780582Y-127274692D01*
X170678741Y-127520559D01*
X170530890Y-127741832D01*
X170342712Y-127930010D01*
X170121439Y-128077861D01*
X170121438Y-128077862D01*
X170121437Y-128077862D01*
X169875572Y-128179702D01*
X169614563Y-128231620D01*
X169348437Y-128231620D01*
X169087428Y-128179702D01*
X168841563Y-128077862D01*
X168841562Y-128077862D01*
X168841561Y-128077861D01*
X168620288Y-127930010D01*
X168432110Y-127741832D01*
X168284259Y-127520559D01*
X168182418Y-127274692D01*
X168130500Y-127013682D01*
X168130500Y-126747558D01*
X168149707Y-126651000D01*
X168182418Y-126486548D01*
X168284258Y-126240683D01*
X168432109Y-126019409D01*
X168620289Y-125831229D01*
X168730172Y-125757807D01*
X168841561Y-125683379D01*
X169087428Y-125581538D01*
X169348437Y-125529620D01*
X169614563Y-125529620D01*
X169875572Y-125581538D01*
G37*
G36*
X164795572Y-125581538D02*
G01*
X165041439Y-125683379D01*
X165152828Y-125757807D01*
X165262711Y-125831229D01*
X165450891Y-126019409D01*
X165598742Y-126240683D01*
X165700582Y-126486548D01*
X165733294Y-126651000D01*
X165752500Y-126747558D01*
X165752500Y-127013682D01*
X165700582Y-127274692D01*
X165598741Y-127520559D01*
X165450890Y-127741832D01*
X165262712Y-127930010D01*
X165041439Y-128077861D01*
X165041438Y-128077862D01*
X165041437Y-128077862D01*
X164795572Y-128179702D01*
X164534563Y-128231620D01*
X164268437Y-128231620D01*
X164007428Y-128179702D01*
X163761563Y-128077862D01*
X163761562Y-128077862D01*
X163761561Y-128077861D01*
X163540288Y-127930010D01*
X163352110Y-127741832D01*
X163204259Y-127520559D01*
X163102418Y-127274692D01*
X163050500Y-127013682D01*
X163050500Y-126747558D01*
X163069707Y-126651000D01*
X163102418Y-126486548D01*
X163204258Y-126240683D01*
X163352109Y-126019409D01*
X163540289Y-125831229D01*
X163650172Y-125757807D01*
X163761561Y-125683379D01*
X164007428Y-125581538D01*
X164268437Y-125529620D01*
X164534563Y-125529620D01*
X164795572Y-125581538D01*
G37*
G36*
X139369520Y-128231620D02*
G01*
X136667520Y-128231620D01*
X136667520Y-125529620D01*
X139369520Y-125529620D01*
X139369520Y-128231620D01*
G37*
G36*
X133332592Y-125581538D02*
G01*
X133578459Y-125683379D01*
X133689848Y-125757807D01*
X133799731Y-125831229D01*
X133987911Y-126019409D01*
X134135762Y-126240683D01*
X134237602Y-126486548D01*
X134270314Y-126651000D01*
X134289520Y-126747558D01*
X134289520Y-127013682D01*
X134237602Y-127274692D01*
X134135761Y-127520559D01*
X133987910Y-127741832D01*
X133799732Y-127930010D01*
X133578459Y-128077861D01*
X133578458Y-128077862D01*
X133578457Y-128077862D01*
X133332592Y-128179702D01*
X133071583Y-128231620D01*
X132805457Y-128231620D01*
X132544448Y-128179702D01*
X132298583Y-128077862D01*
X132298582Y-128077862D01*
X132298581Y-128077861D01*
X132077308Y-127930010D01*
X131889130Y-127741832D01*
X131741279Y-127520559D01*
X131639438Y-127274692D01*
X131587520Y-127013682D01*
X131587520Y-126747558D01*
X131606727Y-126651000D01*
X131639438Y-126486548D01*
X131741278Y-126240683D01*
X131889129Y-126019409D01*
X132077309Y-125831229D01*
X132187192Y-125757807D01*
X132298581Y-125683379D01*
X132544448Y-125581538D01*
X132805457Y-125529620D01*
X133071583Y-125529620D01*
X133332592Y-125581538D01*
G37*
G36*
X175912500Y-128231620D02*
G01*
X173210500Y-128231620D01*
X173210500Y-125529620D01*
X175912500Y-125529620D01*
X175912500Y-128231620D01*
G37*
G36*
X192375256Y-123391298D02*
G01*
X192481579Y-123412447D01*
X192782042Y-123536903D01*
X193052451Y-123717585D01*
X193282415Y-123947549D01*
X193463097Y-124217958D01*
X193587553Y-124518421D01*
X193651000Y-124837391D01*
X193651000Y-125162609D01*
X193587553Y-125481579D01*
X193463097Y-125782042D01*
X193282415Y-126052451D01*
X193052451Y-126282415D01*
X192782042Y-126463097D01*
X192481579Y-126587553D01*
X192375256Y-126608702D01*
X192162611Y-126651000D01*
X191837389Y-126651000D01*
X191624744Y-126608702D01*
X191518421Y-126587553D01*
X191217958Y-126463097D01*
X190947549Y-126282415D01*
X190717585Y-126052451D01*
X190536903Y-125782042D01*
X190412447Y-125481579D01*
X190349000Y-125162609D01*
X190349000Y-124837391D01*
X190412447Y-124518421D01*
X190536903Y-124217958D01*
X190717585Y-123947549D01*
X190947549Y-123717585D01*
X191217958Y-123536903D01*
X191518421Y-123412447D01*
X191624744Y-123391298D01*
X191837389Y-123349000D01*
X192162611Y-123349000D01*
X192375256Y-123391298D01*
G37*
G36*
X108375256Y-123391298D02*
G01*
X108481579Y-123412447D01*
X108782042Y-123536903D01*
X109052451Y-123717585D01*
X109282415Y-123947549D01*
X109463097Y-124217958D01*
X109587553Y-124518421D01*
X109651000Y-124837391D01*
X109651000Y-125162609D01*
X109587553Y-125481579D01*
X109463097Y-125782042D01*
X109282415Y-126052451D01*
X109052451Y-126282415D01*
X108782042Y-126463097D01*
X108481579Y-126587553D01*
X108375256Y-126608702D01*
X108162611Y-126651000D01*
X107837389Y-126651000D01*
X107624744Y-126608702D01*
X107518421Y-126587553D01*
X107217958Y-126463097D01*
X106947549Y-126282415D01*
X106717585Y-126052451D01*
X106536903Y-125782042D01*
X106412447Y-125481579D01*
X106349000Y-125162609D01*
X106349000Y-124837391D01*
X106412447Y-124518421D01*
X106536903Y-124217958D01*
X106717585Y-123947549D01*
X106947549Y-123717585D01*
X107217958Y-123536903D01*
X107518421Y-123412447D01*
X107624744Y-123391298D01*
X107837389Y-123349000D01*
X108162611Y-123349000D01*
X108375256Y-123391298D01*
G37*
G36*
X152356128Y-108538863D02*
G01*
X152511000Y-108603013D01*
X152650381Y-108696145D01*
X152768915Y-108814679D01*
X152862047Y-108954060D01*
X152926197Y-109108932D01*
X152958900Y-109273344D01*
X152958900Y-109440976D01*
X152926197Y-109605388D01*
X152862047Y-109760260D01*
X152768915Y-109899641D01*
X152650381Y-110018175D01*
X152511000Y-110111307D01*
X152356128Y-110175457D01*
X152191716Y-110208160D01*
X152024084Y-110208160D01*
X151859672Y-110175457D01*
X151704800Y-110111307D01*
X151565419Y-110018175D01*
X151446885Y-109899641D01*
X151353753Y-109760260D01*
X151289603Y-109605388D01*
X151256900Y-109440976D01*
X151256900Y-109273344D01*
X151289603Y-109108932D01*
X151353753Y-108954060D01*
X151446885Y-108814679D01*
X151565419Y-108696145D01*
X151704800Y-108603013D01*
X151859672Y-108538863D01*
X152024084Y-108506160D01*
X152191716Y-108506160D01*
X152356128Y-108538863D01*
G37*
G36*
X165056128Y-108538863D02*
G01*
X165211000Y-108603013D01*
X165350381Y-108696145D01*
X165468915Y-108814679D01*
X165562047Y-108954060D01*
X165626197Y-109108932D01*
X165658900Y-109273344D01*
X165658900Y-109440976D01*
X165626197Y-109605388D01*
X165562047Y-109760260D01*
X165468915Y-109899641D01*
X165350381Y-110018175D01*
X165211000Y-110111307D01*
X165056128Y-110175457D01*
X164891716Y-110208160D01*
X164724084Y-110208160D01*
X164559672Y-110175457D01*
X164404800Y-110111307D01*
X164265419Y-110018175D01*
X164146885Y-109899641D01*
X164053753Y-109760260D01*
X163989603Y-109605388D01*
X163956900Y-109440976D01*
X163956900Y-109273344D01*
X163989603Y-109108932D01*
X164053753Y-108954060D01*
X164146885Y-108814679D01*
X164265419Y-108696145D01*
X164404800Y-108603013D01*
X164559672Y-108538863D01*
X164724084Y-108506160D01*
X164891716Y-108506160D01*
X165056128Y-108538863D01*
G37*
G36*
X108375256Y-105391298D02*
G01*
X108481579Y-105412447D01*
X108782042Y-105536903D01*
X109052451Y-105717585D01*
X109282415Y-105947549D01*
X109463097Y-106217958D01*
X109587553Y-106518421D01*
X109651000Y-106837391D01*
X109651000Y-107162609D01*
X109587553Y-107481579D01*
X109463097Y-107782042D01*
X109282415Y-108052451D01*
X109052451Y-108282415D01*
X108782042Y-108463097D01*
X108481579Y-108587553D01*
X108403861Y-108603012D01*
X108162611Y-108651000D01*
X107837389Y-108651000D01*
X107596139Y-108603012D01*
X107518421Y-108587553D01*
X107217958Y-108463097D01*
X106947549Y-108282415D01*
X106717585Y-108052451D01*
X106536903Y-107782042D01*
X106412447Y-107481579D01*
X106349000Y-107162609D01*
X106349000Y-106837391D01*
X106412447Y-106518421D01*
X106536903Y-106217958D01*
X106717585Y-105947549D01*
X106947549Y-105717585D01*
X107217958Y-105536903D01*
X107518421Y-105412447D01*
X107624744Y-105391298D01*
X107837389Y-105349000D01*
X108162611Y-105349000D01*
X108375256Y-105391298D01*
G37*
G36*
X192375256Y-105391298D02*
G01*
X192481579Y-105412447D01*
X192782042Y-105536903D01*
X193052451Y-105717585D01*
X193282415Y-105947549D01*
X193463097Y-106217958D01*
X193587553Y-106518421D01*
X193651000Y-106837391D01*
X193651000Y-107162609D01*
X193587553Y-107481579D01*
X193463097Y-107782042D01*
X193282415Y-108052451D01*
X193052451Y-108282415D01*
X192782042Y-108463097D01*
X192481579Y-108587553D01*
X192403861Y-108603012D01*
X192162611Y-108651000D01*
X191837389Y-108651000D01*
X191596139Y-108603012D01*
X191518421Y-108587553D01*
X191217958Y-108463097D01*
X190947549Y-108282415D01*
X190717585Y-108052451D01*
X190536903Y-107782042D01*
X190412447Y-107481579D01*
X190349000Y-107162609D01*
X190349000Y-106837391D01*
X190412447Y-106518421D01*
X190536903Y-106217958D01*
X190717585Y-105947549D01*
X190947549Y-105717585D01*
X191217958Y-105536903D01*
X191518421Y-105412447D01*
X191624744Y-105391298D01*
X191837389Y-105349000D01*
X192162611Y-105349000D01*
X192375256Y-105391298D01*
G37*
G36*
X156829068Y-104076083D02*
G01*
X156983940Y-104140233D01*
X157123321Y-104233365D01*
X157241855Y-104351899D01*
X157334987Y-104491280D01*
X157399137Y-104646152D01*
X157431840Y-104810564D01*
X157431840Y-104978196D01*
X157399137Y-105142608D01*
X157334987Y-105297480D01*
X157241855Y-105436861D01*
X157123321Y-105555395D01*
X156983940Y-105648527D01*
X156829068Y-105712677D01*
X156664656Y-105745380D01*
X156497024Y-105745380D01*
X156332612Y-105712677D01*
X156177740Y-105648527D01*
X156038359Y-105555395D01*
X155919825Y-105436861D01*
X155826693Y-105297480D01*
X155762543Y-105142608D01*
X155729840Y-104978196D01*
X155729840Y-104810564D01*
X155762543Y-104646152D01*
X155826693Y-104491280D01*
X155919825Y-104351899D01*
X156038359Y-104233365D01*
X156177740Y-104140233D01*
X156332612Y-104076083D01*
X156497024Y-104043380D01*
X156664656Y-104043380D01*
X156829068Y-104076083D01*
G37*
G36*
X144129068Y-104076083D02*
G01*
X144283940Y-104140233D01*
X144423321Y-104233365D01*
X144541855Y-104351899D01*
X144634987Y-104491280D01*
X144699137Y-104646152D01*
X144731840Y-104810564D01*
X144731840Y-104978196D01*
X144699137Y-105142608D01*
X144634987Y-105297480D01*
X144541855Y-105436861D01*
X144423321Y-105555395D01*
X144283940Y-105648527D01*
X144129068Y-105712677D01*
X143964656Y-105745380D01*
X143797024Y-105745380D01*
X143632612Y-105712677D01*
X143477740Y-105648527D01*
X143338359Y-105555395D01*
X143219825Y-105436861D01*
X143126693Y-105297480D01*
X143062543Y-105142608D01*
X143029840Y-104978196D01*
X143029840Y-104810564D01*
X143062543Y-104646152D01*
X143126693Y-104491280D01*
X143219825Y-104351899D01*
X143338359Y-104233365D01*
X143477740Y-104140233D01*
X143632612Y-104076083D01*
X143797024Y-104043380D01*
X143964656Y-104043380D01*
X144129068Y-104076083D01*
G37*
G36*
X151307520Y-96664500D02*
G01*
X148605520Y-96664500D01*
X148605520Y-93962500D01*
X151307520Y-93962500D01*
X151307520Y-96664500D01*
G37*
G36*
X155430592Y-94014418D02*
G01*
X155676459Y-94116259D01*
X155787848Y-94190687D01*
X155897731Y-94264109D01*
X156085911Y-94452289D01*
X156233762Y-94673563D01*
X156335602Y-94919428D01*
X156387520Y-95180437D01*
X156387520Y-95446563D01*
X156335602Y-95707572D01*
X156304757Y-95782040D01*
X156233761Y-95953439D01*
X156085910Y-96174712D01*
X155897732Y-96362890D01*
X155676459Y-96510741D01*
X155676458Y-96510742D01*
X155676457Y-96510742D01*
X155430592Y-96612582D01*
X155169583Y-96664500D01*
X154903457Y-96664500D01*
X154642448Y-96612582D01*
X154396583Y-96510742D01*
X154396582Y-96510742D01*
X154396581Y-96510741D01*
X154175308Y-96362890D01*
X153987130Y-96174712D01*
X153839279Y-95953439D01*
X153768284Y-95782040D01*
X153737438Y-95707572D01*
X153685520Y-95446563D01*
X153685520Y-95180437D01*
X153737438Y-94919428D01*
X153839278Y-94673563D01*
X153987129Y-94452289D01*
X154175309Y-94264109D01*
X154285192Y-94190687D01*
X154396581Y-94116259D01*
X154642448Y-94014418D01*
X154903457Y-93962500D01*
X155169583Y-93962500D01*
X155430592Y-94014418D01*
G37*
G36*
X192375256Y-93391298D02*
G01*
X192481579Y-93412447D01*
X192782042Y-93536903D01*
X193052451Y-93717585D01*
X193282415Y-93947549D01*
X193463097Y-94217958D01*
X193587553Y-94518421D01*
X193651000Y-94837391D01*
X193651000Y-95162609D01*
X193587553Y-95481579D01*
X193463097Y-95782042D01*
X193282415Y-96052451D01*
X193052451Y-96282415D01*
X192782042Y-96463097D01*
X192481579Y-96587553D01*
X192375256Y-96608702D01*
X192162611Y-96651000D01*
X191837389Y-96651000D01*
X191624744Y-96608702D01*
X191518421Y-96587553D01*
X191217958Y-96463097D01*
X190947549Y-96282415D01*
X190717585Y-96052451D01*
X190536903Y-95782042D01*
X190412447Y-95481579D01*
X190349000Y-95162609D01*
X190349000Y-94837391D01*
X190412447Y-94518421D01*
X190536903Y-94217958D01*
X190717585Y-93947549D01*
X190947549Y-93717585D01*
X191217958Y-93536903D01*
X191518421Y-93412447D01*
X191624744Y-93391298D01*
X191837389Y-93349000D01*
X192162611Y-93349000D01*
X192375256Y-93391298D01*
G37*
G36*
X108375256Y-93391298D02*
G01*
X108481579Y-93412447D01*
X108782042Y-93536903D01*
X109052451Y-93717585D01*
X109282415Y-93947549D01*
X109463097Y-94217958D01*
X109587553Y-94518421D01*
X109651000Y-94837391D01*
X109651000Y-95162609D01*
X109587553Y-95481579D01*
X109463097Y-95782042D01*
X109282415Y-96052451D01*
X109052451Y-96282415D01*
X108782042Y-96463097D01*
X108481579Y-96587553D01*
X108375256Y-96608702D01*
X108162611Y-96651000D01*
X107837389Y-96651000D01*
X107624744Y-96608702D01*
X107518421Y-96587553D01*
X107217958Y-96463097D01*
X106947549Y-96282415D01*
X106717585Y-96052451D01*
X106536903Y-95782042D01*
X106412447Y-95481579D01*
X106349000Y-95162609D01*
X106349000Y-94837391D01*
X106412447Y-94518421D01*
X106536903Y-94217958D01*
X106717585Y-93947549D01*
X106947549Y-93717585D01*
X107217958Y-93536903D01*
X107518421Y-93412447D01*
X107624744Y-93391298D01*
X107837389Y-93349000D01*
X108162611Y-93349000D01*
X108375256Y-93391298D01*
G37*
G36*
X171506080Y-87034700D02*
G01*
X169880080Y-87034700D01*
X169880080Y-83170700D01*
X171506080Y-83170700D01*
X171506080Y-87034700D01*
G37*
G36*
X139336088Y-85010723D02*
G01*
X139490960Y-85074873D01*
X139630341Y-85168005D01*
X139748875Y-85286539D01*
X139842007Y-85425920D01*
X139906157Y-85580792D01*
X139938860Y-85745204D01*
X139938860Y-85912836D01*
X139906157Y-86077248D01*
X139842007Y-86232120D01*
X139748875Y-86371501D01*
X139630341Y-86490035D01*
X139490960Y-86583167D01*
X139336088Y-86647317D01*
X139171676Y-86680020D01*
X139004044Y-86680020D01*
X138839632Y-86647317D01*
X138684760Y-86583167D01*
X138545379Y-86490035D01*
X138426845Y-86371501D01*
X138333713Y-86232120D01*
X138269563Y-86077248D01*
X138236860Y-85912836D01*
X138236860Y-85745204D01*
X138269563Y-85580792D01*
X138333713Y-85425920D01*
X138426845Y-85286539D01*
X138545379Y-85168005D01*
X138684760Y-85074873D01*
X138839632Y-85010723D01*
X139004044Y-84978020D01*
X139171676Y-84978020D01*
X139336088Y-85010723D01*
G37*
G36*
X139938860Y-83180020D02*
G01*
X138236860Y-83180020D01*
X138236860Y-81478020D01*
X139938860Y-81478020D01*
X139938860Y-83180020D01*
G37*
G36*
X122350182Y-80813202D02*
G01*
X122498141Y-80874489D01*
X122631295Y-80963459D01*
X122744541Y-81076705D01*
X122833511Y-81209859D01*
X122894798Y-81357818D01*
X122926040Y-81514885D01*
X122926040Y-81675035D01*
X122894798Y-81832102D01*
X122833511Y-81980061D01*
X122744541Y-82113215D01*
X122631295Y-82226461D01*
X122498141Y-82315431D01*
X122350182Y-82376718D01*
X122193115Y-82407960D01*
X122032965Y-82407960D01*
X121875898Y-82376718D01*
X121727939Y-82315431D01*
X121594785Y-82226461D01*
X121481539Y-82113215D01*
X121392569Y-81980061D01*
X121331282Y-81832102D01*
X121300040Y-81675035D01*
X121300040Y-81514885D01*
X121331282Y-81357818D01*
X121392569Y-81209859D01*
X121481539Y-81076705D01*
X121594785Y-80963459D01*
X121727939Y-80874489D01*
X121875898Y-80813202D01*
X122032965Y-80781960D01*
X122193115Y-80781960D01*
X122350182Y-80813202D01*
G37*
G36*
X182844160Y-81351000D02*
G01*
X180142160Y-81351000D01*
X180142160Y-78649000D01*
X182844160Y-78649000D01*
X182844160Y-81351000D01*
G37*
G36*
X171506080Y-80430700D02*
G01*
X169880080Y-80430700D01*
X169880080Y-76566700D01*
X171506080Y-76566700D01*
X171506080Y-80430700D01*
G37*
G36*
X125466040Y-79867960D02*
G01*
X123840040Y-79867960D01*
X123840040Y-78241960D01*
X125466040Y-78241960D01*
X125466040Y-79867960D01*
G37*
G36*
X119810182Y-78273202D02*
G01*
X119958141Y-78334489D01*
X120091295Y-78423459D01*
X120204541Y-78536705D01*
X120293511Y-78669859D01*
X120354798Y-78817818D01*
X120386040Y-78974885D01*
X120386040Y-79135035D01*
X120354798Y-79292102D01*
X120293511Y-79440061D01*
X120204541Y-79573215D01*
X120091295Y-79686461D01*
X119958141Y-79775431D01*
X119810182Y-79836718D01*
X119653115Y-79867960D01*
X119492965Y-79867960D01*
X119335898Y-79836718D01*
X119187939Y-79775431D01*
X119054785Y-79686461D01*
X118941539Y-79573215D01*
X118852569Y-79440061D01*
X118791282Y-79292102D01*
X118760040Y-79135035D01*
X118760040Y-78974885D01*
X118791282Y-78817818D01*
X118852569Y-78669859D01*
X118941539Y-78536705D01*
X119054785Y-78423459D01*
X119187939Y-78334489D01*
X119335898Y-78273202D01*
X119492965Y-78241960D01*
X119653115Y-78241960D01*
X119810182Y-78273202D01*
G37*
G36*
X114820008Y-77840423D02*
G01*
X114974880Y-77904573D01*
X115114261Y-77997705D01*
X115232795Y-78116239D01*
X115325927Y-78255620D01*
X115390077Y-78410492D01*
X115422780Y-78574904D01*
X115422780Y-78742536D01*
X115390077Y-78906948D01*
X115325927Y-79061820D01*
X115232795Y-79201201D01*
X115114261Y-79319735D01*
X114974880Y-79412867D01*
X114820008Y-79477017D01*
X114655596Y-79509720D01*
X114487964Y-79509720D01*
X114323552Y-79477017D01*
X114168680Y-79412867D01*
X114029299Y-79319735D01*
X113910765Y-79201201D01*
X113817633Y-79061820D01*
X113753483Y-78906948D01*
X113720780Y-78742536D01*
X113720780Y-78574904D01*
X113753483Y-78410492D01*
X113817633Y-78255620D01*
X113910765Y-78116239D01*
X114029299Y-77997705D01*
X114168680Y-77904573D01*
X114323552Y-77840423D01*
X114487964Y-77807720D01*
X114655596Y-77807720D01*
X114820008Y-77840423D01*
G37*
G36*
X108375256Y-75391298D02*
G01*
X108481579Y-75412447D01*
X108782042Y-75536903D01*
X109052451Y-75717585D01*
X109282415Y-75947549D01*
X109463097Y-76217958D01*
X109587553Y-76518421D01*
X109651000Y-76837391D01*
X109651000Y-77162609D01*
X109587553Y-77481579D01*
X109463097Y-77782042D01*
X109282415Y-78052451D01*
X109052451Y-78282415D01*
X108782042Y-78463097D01*
X108481579Y-78587553D01*
X108375256Y-78608702D01*
X108162611Y-78651000D01*
X107837389Y-78651000D01*
X107624744Y-78608702D01*
X107518421Y-78587553D01*
X107217958Y-78463097D01*
X106947549Y-78282415D01*
X106717585Y-78052451D01*
X106536903Y-77782042D01*
X106412447Y-77481579D01*
X106349000Y-77162609D01*
X106349000Y-76837391D01*
X106412447Y-76518421D01*
X106536903Y-76217958D01*
X106717585Y-75947549D01*
X106947549Y-75717585D01*
X107217958Y-75536903D01*
X107518421Y-75412447D01*
X107624744Y-75391298D01*
X107837389Y-75349000D01*
X108162611Y-75349000D01*
X108375256Y-75391298D01*
G37*
G36*
X192375256Y-75391298D02*
G01*
X192481579Y-75412447D01*
X192782042Y-75536903D01*
X193052451Y-75717585D01*
X193282415Y-75947549D01*
X193463097Y-76217958D01*
X193587553Y-76518421D01*
X193651000Y-76837391D01*
X193651000Y-77162609D01*
X193587553Y-77481579D01*
X193463097Y-77782042D01*
X193282415Y-78052451D01*
X193052451Y-78282415D01*
X192782042Y-78463097D01*
X192481579Y-78587553D01*
X192375256Y-78608702D01*
X192162611Y-78651000D01*
X191837389Y-78651000D01*
X191624744Y-78608702D01*
X191518421Y-78587553D01*
X191217958Y-78463097D01*
X190947549Y-78282415D01*
X190717585Y-78052451D01*
X190536903Y-77782042D01*
X190412447Y-77481579D01*
X190349000Y-77162609D01*
X190349000Y-76837391D01*
X190412447Y-76518421D01*
X190536903Y-76217958D01*
X190717585Y-75947549D01*
X190947549Y-75717585D01*
X191217958Y-75536903D01*
X191518421Y-75412447D01*
X191624744Y-75391298D01*
X191837389Y-75349000D01*
X192162611Y-75349000D01*
X192375256Y-75391298D01*
G37*
G36*
X181887232Y-73620918D02*
G01*
X182133099Y-73722759D01*
X182354372Y-73870610D01*
X182542550Y-74058788D01*
X182690401Y-74280061D01*
X182792242Y-74525928D01*
X182844160Y-74786938D01*
X182844160Y-75053062D01*
X182792242Y-75314072D01*
X182690401Y-75559939D01*
X182542550Y-75781212D01*
X182354372Y-75969390D01*
X182133099Y-76117241D01*
X182133098Y-76117242D01*
X182133097Y-76117242D01*
X181887232Y-76219082D01*
X181626223Y-76271000D01*
X181360097Y-76271000D01*
X181099088Y-76219082D01*
X180853223Y-76117242D01*
X180853222Y-76117242D01*
X180853221Y-76117241D01*
X180631948Y-75969390D01*
X180443770Y-75781212D01*
X180295919Y-75559939D01*
X180194078Y-75314072D01*
X180142160Y-75053062D01*
X180142160Y-74786938D01*
X180194078Y-74525928D01*
X180295919Y-74280061D01*
X180443770Y-74058788D01*
X180631948Y-73870610D01*
X180853221Y-73722759D01*
X181099088Y-73620918D01*
X181360097Y-73569000D01*
X181626223Y-73569000D01*
X181887232Y-73620918D01*
G37*
G36*
X181887232Y-68540918D02*
G01*
X182133099Y-68642759D01*
X182354372Y-68790610D01*
X182542550Y-68978788D01*
X182690401Y-69200061D01*
X182792242Y-69445928D01*
X182844160Y-69706938D01*
X182844160Y-69973062D01*
X182792242Y-70234072D01*
X182690401Y-70479939D01*
X182542550Y-70701212D01*
X182354372Y-70889390D01*
X182133099Y-71037241D01*
X182133098Y-71037242D01*
X182133097Y-71037242D01*
X181887232Y-71139082D01*
X181626223Y-71191000D01*
X181360097Y-71191000D01*
X181099088Y-71139082D01*
X180853223Y-71037242D01*
X180853222Y-71037242D01*
X180853221Y-71037241D01*
X180631948Y-70889390D01*
X180443770Y-70701212D01*
X180295919Y-70479939D01*
X180194078Y-70234072D01*
X180142160Y-69973062D01*
X180142160Y-69706938D01*
X180194078Y-69445928D01*
X180295919Y-69200061D01*
X180443770Y-68978788D01*
X180631948Y-68790610D01*
X180853221Y-68642759D01*
X181099088Y-68540918D01*
X181360097Y-68489000D01*
X181626223Y-68489000D01*
X181887232Y-68540918D01*
G37*
G36*
X114820008Y-67680423D02*
G01*
X114974880Y-67744573D01*
X115114261Y-67837705D01*
X115232795Y-67956239D01*
X115325927Y-68095620D01*
X115390077Y-68250492D01*
X115422780Y-68414904D01*
X115422780Y-68582536D01*
X115390077Y-68746948D01*
X115325927Y-68901820D01*
X115232795Y-69041201D01*
X115114261Y-69159735D01*
X114974880Y-69252867D01*
X114820008Y-69317017D01*
X114655596Y-69349720D01*
X114487964Y-69349720D01*
X114323552Y-69317017D01*
X114168680Y-69252867D01*
X114029299Y-69159735D01*
X113910765Y-69041201D01*
X113817633Y-68901820D01*
X113753483Y-68746948D01*
X113720780Y-68582536D01*
X113720780Y-68414904D01*
X113753483Y-68250492D01*
X113817633Y-68095620D01*
X113910765Y-67956239D01*
X114029299Y-67837705D01*
X114168680Y-67744573D01*
X114323552Y-67680423D01*
X114487964Y-67647720D01*
X114655596Y-67647720D01*
X114820008Y-67680423D01*
G37*
G36*
X108375256Y-63391298D02*
G01*
X108481579Y-63412447D01*
X108782042Y-63536903D01*
X109052451Y-63717585D01*
X109282415Y-63947549D01*
X109463097Y-64217958D01*
X109587553Y-64518421D01*
X109651000Y-64837391D01*
X109651000Y-65162609D01*
X109587553Y-65481579D01*
X109463097Y-65782042D01*
X109282415Y-66052451D01*
X109052451Y-66282415D01*
X108782042Y-66463097D01*
X108481579Y-66587553D01*
X108375256Y-66608702D01*
X108162611Y-66651000D01*
X107837389Y-66651000D01*
X107624744Y-66608702D01*
X107518421Y-66587553D01*
X107217958Y-66463097D01*
X106947549Y-66282415D01*
X106717585Y-66052451D01*
X106536903Y-65782042D01*
X106412447Y-65481579D01*
X106349000Y-65162609D01*
X106349000Y-64837391D01*
X106412447Y-64518421D01*
X106536903Y-64217958D01*
X106717585Y-63947549D01*
X106947549Y-63717585D01*
X107217958Y-63536903D01*
X107518421Y-63412447D01*
X107624744Y-63391298D01*
X107837389Y-63349000D01*
X108162611Y-63349000D01*
X108375256Y-63391298D01*
G37*
G36*
X192375256Y-63391298D02*
G01*
X192481579Y-63412447D01*
X192782042Y-63536903D01*
X193052451Y-63717585D01*
X193282415Y-63947549D01*
X193463097Y-64217958D01*
X193587553Y-64518421D01*
X193651000Y-64837391D01*
X193651000Y-65162609D01*
X193587553Y-65481579D01*
X193463097Y-65782042D01*
X193282415Y-66052451D01*
X193052451Y-66282415D01*
X192782042Y-66463097D01*
X192481579Y-66587553D01*
X192375256Y-66608702D01*
X192162611Y-66651000D01*
X191837389Y-66651000D01*
X191624744Y-66608702D01*
X191518421Y-66587553D01*
X191217958Y-66463097D01*
X190947549Y-66282415D01*
X190717585Y-66052451D01*
X190536903Y-65782042D01*
X190412447Y-65481579D01*
X190349000Y-65162609D01*
X190349000Y-64837391D01*
X190412447Y-64518421D01*
X190536903Y-64217958D01*
X190717585Y-63947549D01*
X190947549Y-63717585D01*
X191217958Y-63536903D01*
X191518421Y-63412447D01*
X191624744Y-63391298D01*
X191837389Y-63349000D01*
X192162611Y-63349000D01*
X192375256Y-63391298D01*
G37*
M02*
