G04 #@! TF.GenerationSoftware,KiCad,Pcbnew,(5.1.5)-3*
G04 #@! TF.CreationDate,2020-05-15T10:40:35-04:00*
G04 #@! TF.ProjectId,dmf_relay_board,646d665f-7265-46c6-9179-5f626f617264,rev?*
G04 #@! TF.SameCoordinates,Original*
G04 #@! TF.FileFunction,Copper,L4,Bot*
G04 #@! TF.FilePolarity,Positive*
%FSLAX46Y46*%
G04 Gerber Fmt 4.6, Leading zero omitted, Abs format (unit mm)*
G04 Created by KiCad (PCBNEW (5.1.5)-3) date 2020-05-15 10:40:35*
%MOMM*%
%LPD*%
G04 APERTURE LIST*
%ADD10C,1.600000*%
%ADD11C,0.604800*%
%ADD12R,1.600000X1.600000*%
%ADD13O,1.600000X1.600000*%
%ADD14R,1.800000X1.800000*%
%ADD15C,1.800000*%
%ADD16C,2.032000*%
%ADD17C,1.400000*%
%ADD18O,1.400000X1.400000*%
%ADD19C,0.600000*%
%ADD20C,0.200000*%
G04 APERTURE END LIST*
D10*
X120027380Y-95111540D03*
X122527380Y-95071540D03*
X125027380Y-95071540D03*
X127527380Y-95071540D03*
X130027380Y-95071540D03*
X132527380Y-95071540D03*
X135027380Y-95071540D03*
X155027380Y-95111540D03*
X152527380Y-95111540D03*
X150027380Y-95111540D03*
X147527380Y-95111540D03*
X145027380Y-95111540D03*
X142527380Y-95111540D03*
X140027380Y-95111540D03*
X137527380Y-95071540D03*
X153777380Y-90071540D03*
X151277380Y-90071540D03*
X148777380Y-90071540D03*
X146277380Y-90071540D03*
X143777380Y-90071540D03*
X141277380Y-90071540D03*
X138777380Y-90071540D03*
X118777380Y-90031540D03*
X121277380Y-90031540D03*
X123777380Y-90031540D03*
X126277380Y-90031540D03*
X128777380Y-90031540D03*
X131277380Y-90031540D03*
X133777380Y-90071540D03*
X136277380Y-90071540D03*
X170026380Y-95238540D03*
X172526380Y-95198540D03*
X175026380Y-95198540D03*
X177526380Y-95198540D03*
X180026380Y-95198540D03*
X182526380Y-95198540D03*
X185026380Y-95198540D03*
X205026380Y-95238540D03*
X202526380Y-95238540D03*
X200026380Y-95238540D03*
X197526380Y-95238540D03*
X195026380Y-95238540D03*
X192526380Y-95238540D03*
X190026380Y-95238540D03*
X187526380Y-95198540D03*
X203776380Y-90198540D03*
X201276380Y-90198540D03*
X198776380Y-90198540D03*
X196276380Y-90198540D03*
X193776380Y-90198540D03*
X191276380Y-90198540D03*
X188776380Y-90198540D03*
X168776380Y-90158540D03*
X171276380Y-90158540D03*
X173776380Y-90158540D03*
X176276380Y-90158540D03*
X178776380Y-90158540D03*
X181276380Y-90158540D03*
X183776380Y-90198540D03*
X186276380Y-90198540D03*
D11*
X150734500Y-60864100D03*
X148789500Y-58919100D03*
X150734500Y-64754100D03*
X148789500Y-64754100D03*
X150734500Y-62809100D03*
X148789500Y-62809100D03*
X148789500Y-60864100D03*
X150734500Y-58919100D03*
X148789500Y-56974100D03*
X150734500Y-55029100D03*
X148789500Y-55029100D03*
X150734500Y-56974100D03*
X152679500Y-55029100D03*
X168848500Y-69166200D03*
X166098500Y-69166200D03*
X163348500Y-69166200D03*
X160598500Y-69166200D03*
X160598500Y-55416200D03*
X163348500Y-63666200D03*
X157848500Y-63666200D03*
X168848500Y-63666200D03*
X166098500Y-63666200D03*
X160598500Y-66416200D03*
X160598500Y-63666200D03*
X157848500Y-69166200D03*
X157848500Y-66416200D03*
X155098500Y-69166200D03*
X168848500Y-66416200D03*
X166098500Y-66416200D03*
X163348500Y-66416200D03*
X155098500Y-66416200D03*
X163348500Y-60916200D03*
X160598500Y-60916200D03*
X166098500Y-58166200D03*
X155098500Y-63666200D03*
X168848500Y-58166200D03*
X157848500Y-60916200D03*
X168848500Y-60916200D03*
X166098500Y-60916200D03*
X155098500Y-60916200D03*
X168848500Y-55416200D03*
X157848500Y-55416200D03*
X163348500Y-58166200D03*
X157848500Y-58166200D03*
X155098500Y-58166200D03*
X163348500Y-55416200D03*
X166098500Y-55416200D03*
X160598500Y-58166200D03*
X155098500Y-55416200D03*
D10*
X186347500Y-111910500D03*
X183847500Y-111910500D03*
X181347500Y-111950500D03*
X178847500Y-111950500D03*
X176347500Y-111950500D03*
X173847500Y-111950500D03*
X171347500Y-111950500D03*
X168847500Y-111950500D03*
X188847500Y-111910500D03*
X191347500Y-111910500D03*
X193847500Y-111910500D03*
X196347500Y-111910500D03*
X198847500Y-111910500D03*
X201347500Y-111910500D03*
X203847500Y-111910500D03*
X187597500Y-106910500D03*
X190097500Y-106870500D03*
X192597500Y-106870500D03*
X195097500Y-106870500D03*
X197597500Y-106870500D03*
X200097500Y-106870500D03*
X202597500Y-106870500D03*
X205097500Y-106870500D03*
X185097500Y-106910500D03*
X182597500Y-106910500D03*
X180097500Y-106910500D03*
X177597500Y-106910500D03*
X175097500Y-106910500D03*
X172597500Y-106910500D03*
X170097500Y-106870500D03*
D11*
X152679500Y-60864100D03*
X152679500Y-58919100D03*
X152679500Y-64754100D03*
X152679500Y-62809100D03*
X175952140Y-55943500D03*
X152679500Y-56974100D03*
X172062140Y-63723500D03*
X172062140Y-55943500D03*
X172062140Y-59833500D03*
X175952140Y-63723500D03*
X175952140Y-59833500D03*
D10*
X136348500Y-111783500D03*
X133848500Y-111783500D03*
X131348500Y-111823500D03*
X128848500Y-111823500D03*
X126348500Y-111823500D03*
X123848500Y-111823500D03*
X121348500Y-111823500D03*
X118848500Y-111823500D03*
X138848500Y-111783500D03*
X141348500Y-111783500D03*
X143848500Y-111783500D03*
X146348500Y-111783500D03*
X148848500Y-111783500D03*
X151348500Y-111783500D03*
X153848500Y-111783500D03*
X137598500Y-106783500D03*
X140098500Y-106743500D03*
X142598500Y-106743500D03*
X145098500Y-106743500D03*
X147598500Y-106743500D03*
X150098500Y-106743500D03*
X152598500Y-106743500D03*
X155098500Y-106743500D03*
X135098500Y-106783500D03*
X132598500Y-106783500D03*
X130098500Y-106783500D03*
X127598500Y-106783500D03*
X125098500Y-106783500D03*
X122598500Y-106783500D03*
X120098500Y-106743500D03*
D12*
X151447500Y-131064000D03*
D13*
X118427500Y-146304000D03*
X148907500Y-131064000D03*
X120967500Y-146304000D03*
X146367500Y-131064000D03*
X123507500Y-146304000D03*
X143827500Y-131064000D03*
X126047500Y-146304000D03*
X141287500Y-131064000D03*
X128587500Y-146304000D03*
X138747500Y-131064000D03*
X131127500Y-146304000D03*
X136207500Y-131064000D03*
X133667500Y-146304000D03*
X133667500Y-131064000D03*
X136207500Y-146304000D03*
X131127500Y-131064000D03*
X138747500Y-146304000D03*
X128587500Y-131064000D03*
X141287500Y-146304000D03*
X126047500Y-131064000D03*
X143827500Y-146304000D03*
X123507500Y-131064000D03*
X146367500Y-146304000D03*
X120967500Y-131064000D03*
X148907500Y-146304000D03*
X118427500Y-131064000D03*
X151447500Y-146304000D03*
X115887500Y-131064000D03*
X115887500Y-146304000D03*
D14*
X132397500Y-123253500D03*
D15*
X129857500Y-123253500D03*
D16*
X196664580Y-145000980D03*
X191584580Y-145000980D03*
D17*
X125031500Y-123380500D03*
D18*
X117411500Y-123380500D03*
D19*
X173558200Y-140553440D03*
X162623500Y-145859500D03*
X173926500Y-146812000D03*
X171503340Y-117215920D03*
X185125360Y-132938000D03*
X189369700Y-137637999D03*
X185214260Y-136138000D03*
X189400180Y-134437999D03*
X185244740Y-139338000D03*
X160213040Y-122722640D03*
X160150118Y-123861800D03*
X157909620Y-131234269D03*
X157922359Y-130048618D03*
X157965927Y-128890104D03*
X158006154Y-127728249D03*
X157997380Y-126517393D03*
X158059065Y-125376995D03*
X160152080Y-125963680D03*
X160147000Y-124912120D03*
X173553120Y-132443220D03*
X172626020Y-135366760D03*
X171776020Y-132410200D03*
X170926020Y-135402320D03*
X170064060Y-132316220D03*
X169214060Y-135498840D03*
X168382580Y-134594794D03*
D20*
X147002500Y-134620000D02*
X132143500Y-134620000D01*
X162623500Y-145859500D02*
X158242000Y-145859500D01*
X132143500Y-134620000D02*
X128587500Y-131064000D01*
X158242000Y-145859500D02*
X147002500Y-134620000D01*
X173526501Y-147211999D02*
X157689499Y-147211999D01*
X173926500Y-146812000D02*
X173526501Y-147211999D01*
X157689499Y-147211999D02*
X146812000Y-136334500D01*
X126847499Y-131863999D02*
X126047500Y-131064000D01*
X131318000Y-136334500D02*
X126847499Y-131863999D01*
X146812000Y-136334500D02*
X131318000Y-136334500D01*
X167309800Y-109019340D02*
X170488660Y-109019340D01*
X166230300Y-110098840D02*
X167309800Y-109019340D01*
X167335200Y-114249200D02*
X166230300Y-113144300D01*
X170488660Y-109019340D02*
X172597500Y-106910500D01*
X166230300Y-113144300D02*
X166230300Y-110098840D01*
X168536620Y-114249200D02*
X167335200Y-114249200D01*
X171503340Y-117215920D02*
X168536620Y-114249200D01*
X185125360Y-132938000D02*
X185151280Y-132963920D01*
X185015990Y-109328990D02*
X182597500Y-106910500D01*
X205231998Y-109328990D02*
X185015990Y-109328990D01*
X185549624Y-132938000D02*
X185554184Y-132933440D01*
X185125360Y-132938000D02*
X185549624Y-132938000D01*
X185554184Y-132933440D02*
X189209680Y-132933440D01*
X207025240Y-115117880D02*
X207025240Y-111211360D01*
X207025240Y-111211360D02*
X206857600Y-111043720D01*
X189209680Y-132933440D02*
X207025240Y-115117880D01*
X206857600Y-111043720D02*
X205231998Y-109328990D01*
X189369700Y-137637999D02*
X189395579Y-137612120D01*
X208920310Y-105958642D02*
X206900778Y-103939110D01*
X197597500Y-105932500D02*
X199590890Y-103939110D01*
X197597500Y-106870500D02*
X197597500Y-105932500D01*
X199590890Y-103939110D02*
X206900778Y-103939110D01*
X189793964Y-137637999D02*
X189799523Y-137632440D01*
X189369700Y-137637999D02*
X189793964Y-137637999D01*
X189799523Y-137632440D02*
X190977520Y-137632440D01*
X208920310Y-119689650D02*
X208920310Y-105958642D01*
X190977520Y-137632440D02*
X208920310Y-119689650D01*
X185214260Y-136138000D02*
X185250740Y-136174480D01*
X208262224Y-106227884D02*
X206623460Y-104589120D01*
X208270300Y-106227884D02*
X208262224Y-106227884D01*
X204878880Y-104589120D02*
X202597500Y-106870500D01*
X206623460Y-104589120D02*
X204878880Y-104589120D01*
X185214260Y-136138000D02*
X190318040Y-136138000D01*
X208320640Y-106278224D02*
X208270300Y-106227884D01*
X208320640Y-118135400D02*
X208320640Y-106278224D01*
X190318040Y-136138000D02*
X208320640Y-118135400D01*
X189400180Y-134437999D02*
X189404381Y-134442200D01*
X187597500Y-107625600D02*
X187597500Y-106910500D01*
X207584040Y-116254139D02*
X207584040Y-110799880D01*
X205601570Y-108817410D02*
X188789310Y-108817410D01*
X189400180Y-134437999D02*
X207584040Y-116254139D01*
X188789310Y-108817410D02*
X187597500Y-107625600D01*
X207584040Y-110799880D02*
X205601570Y-108817410D01*
X185244740Y-139338000D02*
X185253580Y-139329160D01*
X196178900Y-103289100D02*
X192597500Y-106870500D01*
X185244740Y-139338000D02*
X192213280Y-139338000D01*
X209585560Y-121965720D02*
X209585560Y-105704640D01*
X209585560Y-105704640D02*
X207170020Y-103289100D01*
X192213280Y-139338000D02*
X209585560Y-121965720D01*
X207170020Y-103289100D02*
X196178900Y-103289100D01*
X143704980Y-114139980D02*
X141348500Y-111783500D01*
X151665940Y-114139980D02*
X143704980Y-114139980D01*
X151665940Y-114175540D02*
X160213040Y-122722640D01*
X151665940Y-114139980D02*
X151665940Y-114175540D01*
X141854990Y-114789990D02*
X138848500Y-111783500D01*
X151051030Y-114789990D02*
X141854990Y-114789990D01*
X159833681Y-123572641D02*
X151051030Y-114789990D01*
X160150118Y-123861800D02*
X160150118Y-123840818D01*
X159860959Y-123572641D02*
X160150118Y-123861800D01*
X159833681Y-123572641D02*
X159860959Y-123572641D01*
X125027286Y-114840790D02*
X121865790Y-114840790D01*
X127048436Y-116861940D02*
X125027286Y-114840790D01*
X131790680Y-116861940D02*
X127048436Y-116861940D01*
X134923190Y-119994450D02*
X131790680Y-116861940D01*
X157909620Y-131234269D02*
X157850008Y-131234269D01*
X121865790Y-114840790D02*
X118848500Y-111823500D01*
X143224822Y-119990070D02*
X143220442Y-119994450D01*
X157850008Y-131234269D02*
X146605809Y-119990070D01*
X143220442Y-119994450D02*
X134923190Y-119994450D01*
X146605809Y-119990070D02*
X143224822Y-119990070D01*
X157922359Y-130048618D02*
X147213801Y-119340060D01*
X147213801Y-119340060D02*
X147269200Y-119340060D01*
X123715780Y-114190780D02*
X121348500Y-111823500D01*
X125296528Y-114190780D02*
X123715780Y-114190780D01*
X127317678Y-116211930D02*
X125296528Y-114190780D01*
X132059922Y-116211930D02*
X127317678Y-116211930D01*
X142951200Y-119344440D02*
X135192432Y-119344440D01*
X142955580Y-119340060D02*
X142951200Y-119344440D01*
X147213801Y-119340060D02*
X142955580Y-119340060D01*
X135192432Y-119344440D02*
X132059922Y-116211930D01*
X157965927Y-128890104D02*
X147765873Y-118690050D01*
X147354628Y-118690052D02*
X135457296Y-118690052D01*
X147765873Y-118690050D02*
X147354630Y-118690050D01*
X147354630Y-118690050D02*
X147354628Y-118690052D01*
X135457296Y-118690052D02*
X132329164Y-115561920D01*
X127586920Y-115561920D02*
X123848500Y-111823500D01*
X132329164Y-115561920D02*
X127586920Y-115561920D01*
X158006154Y-127728249D02*
X158006154Y-127658234D01*
X129436910Y-114911910D02*
X126348500Y-111823500D01*
X132598406Y-114911910D02*
X129436910Y-114911910D01*
X157650235Y-127428250D02*
X148262025Y-118040040D01*
X135726536Y-118040040D02*
X132598406Y-114911910D01*
X158006154Y-127728249D02*
X157706155Y-127428250D01*
X157706155Y-127428250D02*
X157650235Y-127428250D01*
X148262025Y-118040040D02*
X135726536Y-118040040D01*
X135995778Y-117390030D02*
X132867648Y-114261900D01*
X131286900Y-114261900D02*
X128848500Y-111823500D01*
X157997380Y-126517393D02*
X148870017Y-117390030D01*
X132867648Y-114261900D02*
X131286900Y-114261900D01*
X148870017Y-117390030D02*
X135995778Y-117390030D01*
X131890498Y-111823500D02*
X131348500Y-111823500D01*
X136265020Y-116740020D02*
X131348500Y-111823500D01*
X149437440Y-116740020D02*
X136265020Y-116740020D01*
X157462220Y-124764800D02*
X149437440Y-116740020D01*
X158059065Y-125376995D02*
X157462220Y-124780150D01*
X157462220Y-124780150D02*
X157462220Y-124764800D01*
X138155010Y-116090010D02*
X133848500Y-111783500D01*
X160152080Y-125963680D02*
X150278410Y-116090010D01*
X150278410Y-116090010D02*
X138155010Y-116090010D01*
X150679960Y-115440000D02*
X140005000Y-115440000D01*
X159847001Y-124607041D02*
X150679960Y-115440000D01*
X160147000Y-124912120D02*
X159847001Y-124612121D01*
X140005000Y-115440000D02*
X136348500Y-111783500D01*
X159847001Y-124612121D02*
X159847001Y-124607041D01*
X173553120Y-132443220D02*
X173553120Y-126382780D01*
X173553120Y-126382780D02*
X161991040Y-114820700D01*
X161991040Y-114820700D02*
X161991040Y-107492800D01*
X161991040Y-107492800D02*
X158244540Y-103746300D01*
X158244540Y-103746300D02*
X158244540Y-103723440D01*
X158244540Y-103723440D02*
X157573980Y-103052880D01*
X157573980Y-103052880D02*
X157538420Y-103088440D01*
X141293560Y-103088440D02*
X137598500Y-106783500D01*
X157538420Y-103088440D02*
X141293560Y-103088440D01*
X143103550Y-103738450D02*
X140098500Y-106743500D01*
X157312130Y-103738450D02*
X143103550Y-103738450D01*
X172626020Y-126374932D02*
X161341030Y-115089942D01*
X157589224Y-104015544D02*
X157312130Y-103738450D01*
X161341030Y-115089942D02*
X161341030Y-108735090D01*
X172626020Y-135366760D02*
X172626020Y-126374932D01*
X161341030Y-107762042D02*
X161341030Y-108735090D01*
X157594532Y-104015544D02*
X161341030Y-107762042D01*
X157589224Y-104015544D02*
X157594532Y-104015544D01*
X171776020Y-126717160D02*
X171776020Y-132410200D01*
X142598500Y-106743500D02*
X144953540Y-104388460D01*
X157319982Y-104665554D02*
X157325290Y-104665554D01*
X157042888Y-104388460D02*
X157319982Y-104665554D01*
X144953540Y-104388460D02*
X157042888Y-104388460D01*
X157325290Y-104665554D02*
X160691020Y-108031284D01*
X160691020Y-108031284D02*
X160691020Y-115359184D01*
X165613080Y-120291860D02*
X171780200Y-126458980D01*
X160691020Y-115359184D02*
X165613080Y-120281244D01*
X171780200Y-126458980D02*
X171780200Y-126712980D01*
X165613080Y-120281244D02*
X165613080Y-120291860D01*
X171780200Y-126712980D02*
X171776020Y-126717160D01*
X157056048Y-105315564D02*
X160041010Y-108300526D01*
X146957470Y-105038470D02*
X156773646Y-105038470D01*
X163040060Y-118627476D02*
X163040060Y-118638092D01*
X170914060Y-135390360D02*
X170926020Y-135402320D01*
X157050740Y-105315564D02*
X157056048Y-105315564D01*
X170914060Y-126512092D02*
X170914060Y-135390360D01*
X156773646Y-105038470D02*
X157050740Y-105315564D01*
X145252440Y-106743500D02*
X146957470Y-105038470D01*
X160041010Y-115628426D02*
X163040060Y-118627476D01*
X145098500Y-106743500D02*
X145252440Y-106743500D01*
X160041010Y-108300526D02*
X160041010Y-115628426D01*
X163040060Y-118638092D02*
X170914060Y-126512092D01*
X170064060Y-127974460D02*
X170064060Y-132316220D01*
X157716220Y-108437680D02*
X159391000Y-110112460D01*
X136448501Y-108133501D02*
X136451961Y-108133501D01*
X159391000Y-115897668D02*
X162390052Y-118896720D01*
X136756140Y-108437680D02*
X157716220Y-108437680D01*
X135098500Y-106783500D02*
X136448501Y-108133501D01*
X136451961Y-108133501D02*
X136756140Y-108437680D01*
X159391000Y-110112460D02*
X159391000Y-115897668D01*
X170065700Y-126582984D02*
X170065700Y-127972820D01*
X162390052Y-118896720D02*
X162390052Y-118907336D01*
X162390052Y-118907336D02*
X170065700Y-126582984D01*
X170065700Y-127972820D02*
X170064060Y-127974460D01*
X134902690Y-109087690D02*
X132598500Y-106783500D01*
X161604960Y-119041496D02*
X161604960Y-119030880D01*
X169214060Y-135498840D02*
X169232580Y-135480320D01*
X161604960Y-119030880D02*
X158740990Y-116166910D01*
X158740990Y-116166910D02*
X158740990Y-110384470D01*
X157444210Y-109087690D02*
X134902690Y-109087690D01*
X158740990Y-110384470D02*
X157444210Y-109087690D01*
X169232581Y-135002795D02*
X169232581Y-132742743D01*
X169232581Y-132742743D02*
X168869360Y-132379522D01*
X169214060Y-135498840D02*
X169214060Y-135021316D01*
X169214060Y-135021316D02*
X169232581Y-135002795D01*
X168869360Y-132379522D02*
X168869360Y-126305896D01*
X161744660Y-119170580D02*
X161604960Y-119030880D01*
X161744660Y-119181196D02*
X161744660Y-119170580D01*
X168869360Y-126305896D02*
X161744660Y-119181196D01*
X157174968Y-109737700D02*
X133052700Y-109737700D01*
X133052700Y-109737700D02*
X130098500Y-106783500D01*
X158090980Y-110653712D02*
X157174968Y-109737700D01*
X160931860Y-119277032D02*
X158090980Y-116436152D01*
X168382580Y-132811994D02*
X168219350Y-132648764D01*
X158090980Y-116436152D02*
X158090980Y-110653712D01*
X168219350Y-126575138D02*
X160931860Y-119287648D01*
X168382580Y-134594794D02*
X168382580Y-132811994D01*
X168219350Y-132648764D02*
X168219350Y-126575138D01*
X160931860Y-119287648D02*
X160931860Y-119277032D01*
X192526380Y-95238540D02*
X192526380Y-93764640D01*
X192526380Y-93764640D02*
X194129660Y-92161360D01*
X194129660Y-92161360D02*
X204884020Y-92161360D01*
X204884020Y-92161360D02*
X206367380Y-90678000D01*
X206367380Y-90678000D02*
X206367380Y-89227660D01*
X206367380Y-89227660D02*
X191902080Y-74762360D01*
X191902080Y-74762360D02*
X176159160Y-74762360D01*
X172062140Y-70665340D02*
X172062140Y-63723500D01*
X176159160Y-74762360D02*
X172062140Y-70665340D01*
X195026380Y-93769080D02*
X195026380Y-95238540D01*
X195889880Y-92905580D02*
X195026380Y-93769080D01*
X207228440Y-87538560D02*
X207228440Y-90904060D01*
X207228440Y-90904060D02*
X205226920Y-92905580D01*
X205226920Y-92905580D02*
X195889880Y-92905580D01*
X207228440Y-87538560D02*
X207203040Y-87538560D01*
X207203040Y-87538560D02*
X192526920Y-72862440D01*
X192526920Y-72862440D02*
X178247040Y-72862440D01*
X175952140Y-70567540D02*
X175952140Y-63723500D01*
X178247040Y-72862440D02*
X175952140Y-70567540D01*
X181276380Y-90158540D02*
X181276380Y-89767800D01*
X183776380Y-90198540D02*
X183776380Y-89656680D01*
X151277380Y-70237320D02*
X155098500Y-66416200D01*
X151277380Y-90071540D02*
X151277380Y-70237320D01*
X156298900Y-67965800D02*
X157848500Y-66416200D01*
X156298900Y-90424000D02*
X156298900Y-67965800D01*
X152527380Y-95111540D02*
X152527380Y-94195520D01*
X152527380Y-94195520D02*
X156298900Y-90424000D01*
X168302940Y-97132140D02*
X162232340Y-91061540D01*
X180026380Y-95198540D02*
X178092780Y-97132140D01*
X178092780Y-97132140D02*
X168302940Y-97132140D01*
X162232340Y-91061540D02*
X162224720Y-91061540D01*
X162224720Y-91061540D02*
X159412940Y-88249760D01*
X159412940Y-67601760D02*
X160598500Y-66416200D01*
X159412940Y-88249760D02*
X159412940Y-67601760D01*
X173776380Y-90158540D02*
X173776380Y-89011500D01*
X173776380Y-89011500D02*
X164617400Y-79852520D01*
X164617400Y-67685100D02*
X163348500Y-66416200D01*
X164617400Y-79852520D02*
X164617400Y-67685100D01*
X188776380Y-90198540D02*
X188776380Y-89139800D01*
X188776380Y-89139800D02*
X180296820Y-80660240D01*
X180296820Y-80660240D02*
X175171100Y-80660240D01*
X175171100Y-80660240D02*
X167259000Y-72748140D01*
X167259000Y-67703700D02*
X166169340Y-66614040D01*
X167259000Y-72748140D02*
X167259000Y-67703700D01*
X203776380Y-90198540D02*
X203776380Y-89539880D01*
X203776380Y-89539880D02*
X191424560Y-77188060D01*
X191424560Y-77188060D02*
X175839120Y-77188060D01*
X175839120Y-77188060D02*
X170670220Y-72019160D01*
X170670220Y-68211700D02*
X168831260Y-66372740D01*
X170670220Y-72019160D02*
X170670220Y-68211700D01*
X114670840Y-93954600D02*
X114670840Y-87721440D01*
X147363180Y-55029100D02*
X148789500Y-55029100D01*
X114670840Y-87721440D02*
X147363180Y-55029100D01*
X132608320Y-97485200D02*
X118201440Y-97485200D01*
X118201440Y-97485200D02*
X114670840Y-93954600D01*
X135027380Y-95071540D02*
X134227381Y-95871539D01*
X134227381Y-95871539D02*
X134221981Y-95871539D01*
X134221981Y-95871539D02*
X132608320Y-97485200D01*
X115712240Y-93553280D02*
X115712240Y-88712040D01*
X115712240Y-88712040D02*
X147450180Y-56974100D01*
X147450180Y-56974100D02*
X148789500Y-56974100D01*
X126844530Y-96885760D02*
X119044720Y-96885760D01*
X119044720Y-96885760D02*
X115712240Y-93553280D01*
X127527380Y-95071540D02*
X127527380Y-95388100D01*
X127527380Y-95071540D02*
X127527380Y-96202910D01*
X127527380Y-96202910D02*
X126844530Y-96885760D01*
X147411440Y-58897520D02*
X148747480Y-58897520D01*
X116443760Y-89865200D02*
X147411440Y-58897520D01*
X116443760Y-90109040D02*
X116459000Y-90093800D01*
X116443760Y-90109040D02*
X116443760Y-89865200D01*
X116443760Y-92194380D02*
X116443760Y-90109040D01*
X120027380Y-95111540D02*
X119360920Y-95111540D01*
X119360920Y-95111540D02*
X116443760Y-92194380D01*
X148607240Y-61046360D02*
X148789500Y-60864100D01*
X147040600Y-62613000D02*
X148789500Y-60864100D01*
X147040600Y-66768320D02*
X147040600Y-62613000D01*
X123777380Y-90031540D02*
X147040600Y-66768320D01*
X153777380Y-70487320D02*
X155098500Y-69166200D01*
X153777380Y-90071540D02*
X153777380Y-70487320D01*
X157848500Y-91322960D02*
X157848500Y-69166200D01*
X155027380Y-95111540D02*
X155027380Y-94144080D01*
X155027380Y-94144080D02*
X157848500Y-91322960D01*
X177526380Y-95198540D02*
X177526380Y-94686820D01*
X177526380Y-94686820D02*
X175684180Y-92844620D01*
X166357300Y-92844620D02*
X163348500Y-89835820D01*
X175684180Y-92844620D02*
X166357300Y-92844620D01*
X163348500Y-89835820D02*
X163340880Y-89835820D01*
X160787080Y-87282020D02*
X160784540Y-87282020D01*
X163340880Y-89835820D02*
X160787080Y-87282020D01*
X160599120Y-87096600D02*
X160599120Y-69250560D01*
X160784540Y-87282020D02*
X160599120Y-87096600D01*
X171276380Y-90158540D02*
X171276380Y-89330900D01*
X163348500Y-81403020D02*
X163348500Y-69166200D01*
X171276380Y-89330900D02*
X163348500Y-81403020D01*
X186276380Y-90198540D02*
X186276380Y-88979140D01*
X186276380Y-88979140D02*
X179290980Y-81993740D01*
X179290980Y-81993740D02*
X175049180Y-81993740D01*
X166128700Y-73073260D02*
X166128700Y-69316600D01*
X175049180Y-81993740D02*
X166128700Y-73073260D01*
X201276380Y-90198540D02*
X201276380Y-89488440D01*
X201276380Y-89488440D02*
X190779400Y-78991460D01*
X190779400Y-78991460D02*
X175465740Y-78991460D01*
X168899840Y-72425560D02*
X168899840Y-69293740D01*
X175465740Y-78991460D02*
X168899840Y-72425560D01*
X147787360Y-63811240D02*
X148789500Y-62809100D01*
X147787360Y-73512680D02*
X147787360Y-63811240D01*
X131277380Y-90031540D02*
X132077379Y-89231541D01*
X132077379Y-89231541D02*
X132077379Y-89222661D01*
X132077379Y-89222661D02*
X147787360Y-73512680D01*
X148789500Y-65881140D02*
X148789500Y-64754100D01*
X148789500Y-80059420D02*
X148789500Y-65881140D01*
X138777380Y-90071540D02*
X148789500Y-80059420D01*
M02*
