G04 #@! TF.GenerationSoftware,KiCad,Pcbnew,(5.1.5)-3*
G04 #@! TF.CreationDate,2020-07-15T17:56:55-04:00*
G04 #@! TF.ProjectId,dmf_relay_board,646d665f-7265-46c6-9179-5f626f617264,rev?*
G04 #@! TF.SameCoordinates,Original*
G04 #@! TF.FileFunction,Copper,L4,Bot*
G04 #@! TF.FilePolarity,Positive*
%FSLAX46Y46*%
G04 Gerber Fmt 4.6, Leading zero omitted, Abs format (unit mm)*
G04 Created by KiCad (PCBNEW (5.1.5)-3) date 2020-07-15 17:56:55*
%MOMM*%
%LPD*%
G04 APERTURE LIST*
%ADD10O,1.700000X1.700000*%
%ADD11R,1.700000X1.700000*%
%ADD12C,1.600000*%
%ADD13C,0.604800*%
%ADD14R,1.600000X1.600000*%
%ADD15O,1.600000X1.600000*%
%ADD16C,2.032000*%
%ADD17C,0.600000*%
%ADD18C,0.350000*%
%ADD19C,0.250000*%
%ADD20C,0.200000*%
%ADD21C,0.254000*%
G04 APERTURE END LIST*
D10*
X199425560Y-139804140D03*
D11*
X196885560Y-139804140D03*
D12*
X120027380Y-95111540D03*
X122527380Y-95071540D03*
X125027380Y-95071540D03*
X127527380Y-95071540D03*
X130027380Y-95071540D03*
X132527380Y-95071540D03*
X135027380Y-95071540D03*
X155027380Y-95111540D03*
X152527380Y-95111540D03*
X150027380Y-95111540D03*
X147527380Y-95111540D03*
X145027380Y-95111540D03*
X142527380Y-95111540D03*
X140027380Y-95111540D03*
X137527380Y-95071540D03*
X153777380Y-90071540D03*
X151277380Y-90071540D03*
X148777380Y-90071540D03*
X146277380Y-90071540D03*
X143777380Y-90071540D03*
X141277380Y-90071540D03*
X138777380Y-90071540D03*
X118777380Y-90031540D03*
X121277380Y-90031540D03*
X123777380Y-90031540D03*
X126277380Y-90031540D03*
X128777380Y-90031540D03*
X131277380Y-90031540D03*
X133777380Y-90071540D03*
X136277380Y-90071540D03*
X170026380Y-95238540D03*
X172526380Y-95198540D03*
X175026380Y-95198540D03*
X177526380Y-95198540D03*
X180026380Y-95198540D03*
X182526380Y-95198540D03*
X185026380Y-95198540D03*
X205026380Y-95238540D03*
X202526380Y-95238540D03*
X200026380Y-95238540D03*
X197526380Y-95238540D03*
X195026380Y-95238540D03*
X192526380Y-95238540D03*
X190026380Y-95238540D03*
X187526380Y-95198540D03*
X203776380Y-90198540D03*
X201276380Y-90198540D03*
X198776380Y-90198540D03*
X196276380Y-90198540D03*
X193776380Y-90198540D03*
X191276380Y-90198540D03*
X188776380Y-90198540D03*
X168776380Y-90158540D03*
X171276380Y-90158540D03*
X173776380Y-90158540D03*
X176276380Y-90158540D03*
X178776380Y-90158540D03*
X181276380Y-90158540D03*
X183776380Y-90198540D03*
X186276380Y-90198540D03*
D13*
X150734500Y-60864100D03*
X148789500Y-58919100D03*
X150734500Y-64754100D03*
X148789500Y-64754100D03*
X150734500Y-62809100D03*
X148789500Y-62809100D03*
X148789500Y-60864100D03*
X150734500Y-58919100D03*
X148789500Y-56974100D03*
X150734500Y-55029100D03*
X148789500Y-55029100D03*
X150734500Y-56974100D03*
X152679500Y-55029100D03*
X168848500Y-69166200D03*
X166098500Y-69166200D03*
X163348500Y-69166200D03*
X160598500Y-69166200D03*
X160598500Y-55416200D03*
X163348500Y-63666200D03*
X157848500Y-63666200D03*
X168848500Y-63666200D03*
X166098500Y-63666200D03*
X160598500Y-66416200D03*
X160598500Y-63666200D03*
X157848500Y-69166200D03*
X157848500Y-66416200D03*
X155098500Y-69166200D03*
X168848500Y-66416200D03*
X166098500Y-66416200D03*
X163348500Y-66416200D03*
X155098500Y-66416200D03*
X163348500Y-60916200D03*
X160598500Y-60916200D03*
X166098500Y-58166200D03*
X155098500Y-63666200D03*
X168848500Y-58166200D03*
X157848500Y-60916200D03*
X168848500Y-60916200D03*
X166098500Y-60916200D03*
X155098500Y-60916200D03*
X168848500Y-55416200D03*
X157848500Y-55416200D03*
X163348500Y-58166200D03*
X157848500Y-58166200D03*
X155098500Y-58166200D03*
X163348500Y-55416200D03*
X166098500Y-55416200D03*
X160598500Y-58166200D03*
X155098500Y-55416200D03*
D12*
X186347500Y-111910500D03*
X183847500Y-111910500D03*
X181347500Y-111950500D03*
X178847500Y-111950500D03*
X176347500Y-111950500D03*
X173847500Y-111950500D03*
X171347500Y-111950500D03*
X168847500Y-111950500D03*
X188847500Y-111910500D03*
X191347500Y-111910500D03*
X193847500Y-111910500D03*
X196347500Y-111910500D03*
X198847500Y-111910500D03*
X201347500Y-111910500D03*
X203847500Y-111910500D03*
X187597500Y-106910500D03*
X190097500Y-106870500D03*
X192597500Y-106870500D03*
X195097500Y-106870500D03*
X197597500Y-106870500D03*
X200097500Y-106870500D03*
X202597500Y-106870500D03*
X205097500Y-106870500D03*
X185097500Y-106910500D03*
X182597500Y-106910500D03*
X180097500Y-106910500D03*
X177597500Y-106910500D03*
X175097500Y-106910500D03*
X172597500Y-106910500D03*
X170097500Y-106870500D03*
D13*
X152679500Y-60864100D03*
X152679500Y-58919100D03*
X152679500Y-64754100D03*
X152679500Y-62809100D03*
X175952140Y-55943500D03*
X152679500Y-56974100D03*
X172062140Y-63723500D03*
X172062140Y-55943500D03*
X172062140Y-59833500D03*
X175952140Y-63723500D03*
X175952140Y-59833500D03*
D12*
X136348500Y-111783500D03*
X133848500Y-111783500D03*
X131348500Y-111823500D03*
X128848500Y-111823500D03*
X126348500Y-111823500D03*
X123848500Y-111823500D03*
X121348500Y-111823500D03*
X118848500Y-111823500D03*
X138848500Y-111783500D03*
X141348500Y-111783500D03*
X143848500Y-111783500D03*
X146348500Y-111783500D03*
X148848500Y-111783500D03*
X151348500Y-111783500D03*
X153848500Y-111783500D03*
X137598500Y-106783500D03*
X140098500Y-106743500D03*
X142598500Y-106743500D03*
X145098500Y-106743500D03*
X147598500Y-106743500D03*
X150098500Y-106743500D03*
X152598500Y-106743500D03*
X155098500Y-106743500D03*
X135098500Y-106783500D03*
X132598500Y-106783500D03*
X130098500Y-106783500D03*
X127598500Y-106783500D03*
X125098500Y-106783500D03*
X122598500Y-106783500D03*
X120098500Y-106743500D03*
D14*
X151447500Y-131064000D03*
D15*
X118427500Y-146304000D03*
X148907500Y-131064000D03*
X120967500Y-146304000D03*
X146367500Y-131064000D03*
X123507500Y-146304000D03*
X143827500Y-131064000D03*
X126047500Y-146304000D03*
X141287500Y-131064000D03*
X128587500Y-146304000D03*
X138747500Y-131064000D03*
X131127500Y-146304000D03*
X136207500Y-131064000D03*
X133667500Y-146304000D03*
X133667500Y-131064000D03*
X136207500Y-146304000D03*
X131127500Y-131064000D03*
X138747500Y-146304000D03*
X128587500Y-131064000D03*
X141287500Y-146304000D03*
X126047500Y-131064000D03*
X143827500Y-146304000D03*
X123507500Y-131064000D03*
X146367500Y-146304000D03*
X120967500Y-131064000D03*
X148907500Y-146304000D03*
X118427500Y-131064000D03*
X151447500Y-146304000D03*
X115887500Y-131064000D03*
X115887500Y-146304000D03*
D16*
X206024480Y-130418840D03*
X206024480Y-135498840D03*
D17*
X171345860Y-146852640D03*
X129341880Y-126085600D03*
X158369000Y-146908520D03*
X173827440Y-148518880D03*
X168965880Y-146966940D03*
X170627040Y-115722400D03*
X171413706Y-116835654D03*
X189697360Y-131318000D03*
X185267600Y-137792560D03*
X191764920Y-134630160D03*
X192176400Y-131622800D03*
X184277000Y-140497560D03*
X207566796Y-124981236D03*
X185206640Y-139471400D03*
X184165240Y-138588000D03*
X204457300Y-125780800D03*
X158074360Y-118013480D03*
X157911800Y-119212360D03*
X157909620Y-131234269D03*
X157922359Y-130048618D03*
X157965927Y-128890104D03*
X158006154Y-127728249D03*
X157997380Y-126517393D03*
X157569000Y-123855480D03*
X157784800Y-122036840D03*
X157921960Y-120406160D03*
X173553120Y-132443220D03*
X172626020Y-135366760D03*
X171776020Y-132410200D03*
X170926020Y-135402320D03*
X170064060Y-132316220D03*
X169214060Y-135498840D03*
X168382580Y-134594794D03*
X173720760Y-141846300D03*
X151894540Y-126690120D03*
X182872380Y-143578580D03*
D18*
X138849100Y-126085600D02*
X143827500Y-131064000D01*
X129341880Y-126085600D02*
X138849100Y-126085600D01*
D19*
X128587500Y-131064000D02*
X128587500Y-135115300D01*
X128587500Y-135115300D02*
X134162800Y-140690600D01*
X134162800Y-140690600D02*
X152151080Y-140690600D01*
X152151080Y-140690600D02*
X158369000Y-146908520D01*
X126047500Y-132195370D02*
X126060200Y-132208070D01*
X126047500Y-131064000D02*
X126047500Y-132195370D01*
X126047500Y-132195370D02*
X126047500Y-135343900D01*
X132730401Y-142026801D02*
X151409561Y-142026801D01*
X126047500Y-135343900D02*
X132730401Y-142026801D01*
X151409561Y-142026801D02*
X157901640Y-148518880D01*
X157901640Y-148518880D02*
X173827440Y-148518880D01*
D20*
X170627040Y-115722400D02*
X167726360Y-115722400D01*
X167726360Y-115722400D02*
X165303200Y-113299240D01*
X165303200Y-113299240D02*
X165303200Y-109042200D01*
X167474900Y-106870500D02*
X170097500Y-106870500D01*
X165303200Y-109042200D02*
X167474900Y-106870500D01*
X170989442Y-116835654D02*
X170988708Y-116834920D01*
X171413706Y-116835654D02*
X170989442Y-116835654D01*
X170988708Y-116834920D02*
X167396160Y-116834920D01*
X167396160Y-116834920D02*
X164363400Y-113802160D01*
X164363400Y-113802160D02*
X164363400Y-108092240D01*
X164363400Y-108092240D02*
X167492680Y-104962960D01*
X170649960Y-104962960D02*
X172597500Y-106910500D01*
X167492680Y-104962960D02*
X170649960Y-104962960D01*
X185486120Y-109799120D02*
X183397499Y-107710499D01*
X183397499Y-107710499D02*
X182597500Y-106910500D01*
X204713840Y-109799120D02*
X185486120Y-109799120D01*
X206400400Y-111485680D02*
X204713840Y-109799120D01*
X189697360Y-131318000D02*
X206385160Y-114630200D01*
X206385160Y-111500920D02*
X206400400Y-111485680D01*
X206385160Y-114630200D02*
X206385160Y-111500920D01*
X197597500Y-105932500D02*
X197597500Y-106870500D01*
X200019920Y-103510080D02*
X197597500Y-105932500D01*
X206943960Y-103510080D02*
X200019920Y-103510080D01*
X185267600Y-137792560D02*
X191300000Y-137792560D01*
X191300000Y-137792560D02*
X208889600Y-120202960D01*
X208889600Y-120202960D02*
X208889600Y-120131840D01*
X208889600Y-120131840D02*
X208920310Y-105486430D01*
X208920310Y-105486430D02*
X206943960Y-103510080D01*
X204647280Y-104820720D02*
X202597500Y-106870500D01*
X206517240Y-104820720D02*
X204647280Y-104820720D01*
X208184050Y-106487530D02*
X206517240Y-104820720D01*
X208142840Y-118252240D02*
X208142840Y-117388640D01*
X191764920Y-134630160D02*
X208142840Y-118252240D01*
X208142840Y-117388640D02*
X208184050Y-106487530D01*
X187597500Y-107625600D02*
X187597500Y-106910500D01*
X188789310Y-108817410D02*
X187597500Y-107625600D01*
X205601570Y-108817410D02*
X188789310Y-108817410D01*
X207213200Y-116586000D02*
X207213200Y-110495080D01*
X192176400Y-131622800D02*
X207213200Y-116586000D01*
X207213200Y-110495080D02*
X205601570Y-108817410D01*
X184277000Y-140497560D02*
X192050472Y-140497560D01*
X192050472Y-140497560D02*
X194348636Y-138199396D01*
X194348636Y-138199396D02*
X200896756Y-131651276D01*
X200896756Y-131651276D02*
X207566796Y-124981236D01*
X196178900Y-103289100D02*
X192597500Y-106870500D01*
X207370680Y-102778560D02*
X196689440Y-102778560D01*
X209550000Y-121518680D02*
X209585560Y-104993440D01*
X196689440Y-102778560D02*
X196178900Y-103289100D01*
X209585560Y-104993440D02*
X207370680Y-102778560D01*
X191945260Y-139471400D02*
X209555080Y-121861580D01*
X185206640Y-139471400D02*
X191945260Y-139471400D01*
X209555080Y-121861580D02*
X209550000Y-121518680D01*
X184589504Y-138588000D02*
X184594064Y-138592560D01*
X184165240Y-138588000D02*
X184589504Y-138588000D01*
X184589504Y-138588000D02*
X184594065Y-138592561D01*
X191645539Y-138592561D02*
X204457300Y-125780800D01*
X184594065Y-138592561D02*
X191645539Y-138592561D01*
X143704980Y-114139980D02*
X141348500Y-111783500D01*
X154190700Y-114139980D02*
X143704980Y-114139980D01*
X154650440Y-114599720D02*
X154190700Y-114139980D01*
X158074360Y-118013480D02*
X154660600Y-114599720D01*
X154660600Y-114599720D02*
X154650440Y-114599720D01*
X141854990Y-114789990D02*
X138848500Y-111783500D01*
X150896320Y-114823240D02*
X141854990Y-114789990D01*
X157911800Y-119212360D02*
X153522680Y-114823240D01*
X153522680Y-114823240D02*
X150896320Y-114823240D01*
X125027286Y-114840790D02*
X121865790Y-114840790D01*
X127048436Y-116861940D02*
X125027286Y-114840790D01*
X131790680Y-116861940D02*
X127048436Y-116861940D01*
X134923190Y-119994450D02*
X131790680Y-116861940D01*
X157909620Y-131234269D02*
X157850008Y-131234269D01*
X121865790Y-114840790D02*
X118848500Y-111823500D01*
X143224822Y-119990070D02*
X143220442Y-119994450D01*
X157850008Y-131234269D02*
X146605809Y-119990070D01*
X143220442Y-119994450D02*
X134923190Y-119994450D01*
X146605809Y-119990070D02*
X143224822Y-119990070D01*
X157922359Y-130048618D02*
X147213801Y-119340060D01*
X147213801Y-119340060D02*
X147269200Y-119340060D01*
X123715780Y-114190780D02*
X121348500Y-111823500D01*
X125296528Y-114190780D02*
X123715780Y-114190780D01*
X127317678Y-116211930D02*
X125296528Y-114190780D01*
X132059922Y-116211930D02*
X127317678Y-116211930D01*
X142951200Y-119344440D02*
X135192432Y-119344440D01*
X142955580Y-119340060D02*
X142951200Y-119344440D01*
X147213801Y-119340060D02*
X142955580Y-119340060D01*
X135192432Y-119344440D02*
X132059922Y-116211930D01*
X157965927Y-128890104D02*
X147765873Y-118690050D01*
X147354628Y-118690052D02*
X135457296Y-118690052D01*
X147765873Y-118690050D02*
X147354630Y-118690050D01*
X147354630Y-118690050D02*
X147354628Y-118690052D01*
X135457296Y-118690052D02*
X132329164Y-115561920D01*
X127586920Y-115561920D02*
X123848500Y-111823500D01*
X132329164Y-115561920D02*
X127586920Y-115561920D01*
X158006154Y-127728249D02*
X158006154Y-127658234D01*
X129436910Y-114911910D02*
X126348500Y-111823500D01*
X132598406Y-114911910D02*
X129436910Y-114911910D01*
X157650235Y-127428250D02*
X148262025Y-118040040D01*
X135726536Y-118040040D02*
X132598406Y-114911910D01*
X158006154Y-127728249D02*
X157706155Y-127428250D01*
X157706155Y-127428250D02*
X157650235Y-127428250D01*
X148262025Y-118040040D02*
X135726536Y-118040040D01*
X135995778Y-117390030D02*
X132867648Y-114261900D01*
X131286900Y-114261900D02*
X128848500Y-111823500D01*
X157997380Y-126517393D02*
X148870017Y-117390030D01*
X132867648Y-114261900D02*
X131286900Y-114261900D01*
X148870017Y-117390030D02*
X135995778Y-117390030D01*
X131890498Y-111823500D02*
X131348500Y-111823500D01*
X150466140Y-116740020D02*
X136265020Y-116740020D01*
X136265020Y-116740020D02*
X131348500Y-111823500D01*
X157269001Y-123542881D02*
X150466140Y-116740020D01*
X157569000Y-123855480D02*
X157269001Y-123555481D01*
X157269001Y-123555481D02*
X157269001Y-123542881D01*
X150278410Y-116090010D02*
X138155010Y-116090010D01*
X138155010Y-116090010D02*
X133848500Y-111783500D01*
X151837970Y-116090010D02*
X150278410Y-116090010D01*
X157784800Y-122036840D02*
X151837970Y-116090010D01*
X140005000Y-115440000D02*
X136348500Y-111783500D01*
X150545800Y-115473480D02*
X140005000Y-115440000D01*
X157621961Y-120075681D02*
X153036280Y-115490000D01*
X153036280Y-115490000D02*
X150562320Y-115490000D01*
X157621961Y-120106161D02*
X157621961Y-120075681D01*
X157921960Y-120406160D02*
X157621961Y-120106161D01*
X150562320Y-115490000D02*
X150545800Y-115473480D01*
X173553120Y-132443220D02*
X173553120Y-126382780D01*
X173553120Y-126382780D02*
X161991040Y-114820700D01*
X161991040Y-114820700D02*
X161991040Y-107492800D01*
X161991040Y-107492800D02*
X158244540Y-103746300D01*
X158244540Y-103746300D02*
X158244540Y-103723440D01*
X158244540Y-103723440D02*
X157573980Y-103052880D01*
X157573980Y-103052880D02*
X157538420Y-103088440D01*
X141293560Y-103088440D02*
X137598500Y-106783500D01*
X157538420Y-103088440D02*
X141293560Y-103088440D01*
X143103550Y-103738450D02*
X140098500Y-106743500D01*
X157312130Y-103738450D02*
X143103550Y-103738450D01*
X172626020Y-126374932D02*
X161341030Y-115089942D01*
X157589224Y-104015544D02*
X157312130Y-103738450D01*
X161341030Y-115089942D02*
X161341030Y-108735090D01*
X172626020Y-135366760D02*
X172626020Y-126374932D01*
X161341030Y-107762042D02*
X161341030Y-108735090D01*
X157594532Y-104015544D02*
X161341030Y-107762042D01*
X157589224Y-104015544D02*
X157594532Y-104015544D01*
X171776020Y-126717160D02*
X171776020Y-132410200D01*
X142598500Y-106743500D02*
X144953540Y-104388460D01*
X157319982Y-104665554D02*
X157325290Y-104665554D01*
X157042888Y-104388460D02*
X157319982Y-104665554D01*
X144953540Y-104388460D02*
X157042888Y-104388460D01*
X157325290Y-104665554D02*
X160691020Y-108031284D01*
X160691020Y-108031284D02*
X160691020Y-115359184D01*
X165613080Y-120291860D02*
X171780200Y-126458980D01*
X160691020Y-115359184D02*
X165613080Y-120281244D01*
X171780200Y-126458980D02*
X171780200Y-126712980D01*
X165613080Y-120281244D02*
X165613080Y-120291860D01*
X171780200Y-126712980D02*
X171776020Y-126717160D01*
X157056048Y-105315564D02*
X160041010Y-108300526D01*
X146957470Y-105038470D02*
X156773646Y-105038470D01*
X163040060Y-118627476D02*
X163040060Y-118638092D01*
X170914060Y-135390360D02*
X170926020Y-135402320D01*
X157050740Y-105315564D02*
X157056048Y-105315564D01*
X170914060Y-126512092D02*
X170914060Y-135390360D01*
X156773646Y-105038470D02*
X157050740Y-105315564D01*
X145252440Y-106743500D02*
X146957470Y-105038470D01*
X160041010Y-115628426D02*
X163040060Y-118627476D01*
X145098500Y-106743500D02*
X145252440Y-106743500D01*
X160041010Y-108300526D02*
X160041010Y-115628426D01*
X163040060Y-118638092D02*
X170914060Y-126512092D01*
X170064060Y-127974460D02*
X170064060Y-132316220D01*
X157716220Y-108437680D02*
X159391000Y-110112460D01*
X136448501Y-108133501D02*
X136451961Y-108133501D01*
X159391000Y-115897668D02*
X162390052Y-118896720D01*
X136756140Y-108437680D02*
X157716220Y-108437680D01*
X135098500Y-106783500D02*
X136448501Y-108133501D01*
X136451961Y-108133501D02*
X136756140Y-108437680D01*
X159391000Y-110112460D02*
X159391000Y-115897668D01*
X170065700Y-126582984D02*
X170065700Y-127972820D01*
X162390052Y-118896720D02*
X162390052Y-118907336D01*
X162390052Y-118907336D02*
X170065700Y-126582984D01*
X170065700Y-127972820D02*
X170064060Y-127974460D01*
X134902690Y-109087690D02*
X132598500Y-106783500D01*
X161604960Y-119041496D02*
X161604960Y-119030880D01*
X169214060Y-135498840D02*
X169232580Y-135480320D01*
X161604960Y-119030880D02*
X158740990Y-116166910D01*
X158740990Y-116166910D02*
X158740990Y-110384470D01*
X157444210Y-109087690D02*
X134902690Y-109087690D01*
X158740990Y-110384470D02*
X157444210Y-109087690D01*
X169232581Y-135002795D02*
X169232581Y-132742743D01*
X169232581Y-132742743D02*
X168869360Y-132379522D01*
X169214060Y-135498840D02*
X169214060Y-135021316D01*
X169214060Y-135021316D02*
X169232581Y-135002795D01*
X168869360Y-132379522D02*
X168869360Y-126305896D01*
X161744660Y-119170580D02*
X161604960Y-119030880D01*
X161744660Y-119181196D02*
X161744660Y-119170580D01*
X168869360Y-126305896D02*
X161744660Y-119181196D01*
X157174968Y-109737700D02*
X133052700Y-109737700D01*
X133052700Y-109737700D02*
X130098500Y-106783500D01*
X158090980Y-110653712D02*
X157174968Y-109737700D01*
X160931860Y-119277032D02*
X158090980Y-116436152D01*
X168382580Y-132811994D02*
X168219350Y-132648764D01*
X158090980Y-116436152D02*
X158090980Y-110653712D01*
X168219350Y-126575138D02*
X160931860Y-119287648D01*
X168382580Y-134594794D02*
X168382580Y-132811994D01*
X168219350Y-132648764D02*
X168219350Y-126575138D01*
X160931860Y-119287648D02*
X160931860Y-119277032D01*
X192526380Y-95238540D02*
X192526380Y-93764640D01*
X192526380Y-93764640D02*
X194129660Y-92161360D01*
X194129660Y-92161360D02*
X204884020Y-92161360D01*
X204884020Y-92161360D02*
X206367380Y-90678000D01*
X206367380Y-90678000D02*
X206367380Y-89227660D01*
X206367380Y-89227660D02*
X191902080Y-74762360D01*
X191902080Y-74762360D02*
X176159160Y-74762360D01*
X172062140Y-70665340D02*
X172062140Y-63723500D01*
X176159160Y-74762360D02*
X172062140Y-70665340D01*
X195026380Y-93769080D02*
X195026380Y-95238540D01*
X195889880Y-92905580D02*
X195026380Y-93769080D01*
X207228440Y-87538560D02*
X207228440Y-90904060D01*
X207228440Y-90904060D02*
X205226920Y-92905580D01*
X205226920Y-92905580D02*
X195889880Y-92905580D01*
X207228440Y-87538560D02*
X207203040Y-87538560D01*
X207203040Y-87538560D02*
X192526920Y-72862440D01*
X192526920Y-72862440D02*
X178247040Y-72862440D01*
X175952140Y-70567540D02*
X175952140Y-63723500D01*
X178247040Y-72862440D02*
X175952140Y-70567540D01*
X181276380Y-90158540D02*
X181276380Y-89767800D01*
X183776380Y-90198540D02*
X183776380Y-89656680D01*
X151277380Y-70237320D02*
X155098500Y-66416200D01*
X151277380Y-90071540D02*
X151277380Y-70237320D01*
X156298900Y-67965800D02*
X157848500Y-66416200D01*
X156298900Y-90424000D02*
X156298900Y-67965800D01*
X152527380Y-95111540D02*
X152527380Y-94195520D01*
X152527380Y-94195520D02*
X156298900Y-90424000D01*
X168302940Y-97132140D02*
X162232340Y-91061540D01*
X180026380Y-95198540D02*
X178092780Y-97132140D01*
X178092780Y-97132140D02*
X168302940Y-97132140D01*
X162232340Y-91061540D02*
X162224720Y-91061540D01*
X162224720Y-91061540D02*
X159412940Y-88249760D01*
X159412940Y-67601760D02*
X160598500Y-66416200D01*
X159412940Y-88249760D02*
X159412940Y-67601760D01*
X173776380Y-90158540D02*
X173776380Y-89011500D01*
X173776380Y-89011500D02*
X164617400Y-79852520D01*
X164617400Y-67685100D02*
X163348500Y-66416200D01*
X164617400Y-79852520D02*
X164617400Y-67685100D01*
X188776380Y-90198540D02*
X188776380Y-89139800D01*
X188776380Y-89139800D02*
X180296820Y-80660240D01*
X180296820Y-80660240D02*
X175171100Y-80660240D01*
X175171100Y-80660240D02*
X167259000Y-72748140D01*
X167259000Y-67703700D02*
X166169340Y-66614040D01*
X167259000Y-72748140D02*
X167259000Y-67703700D01*
X203776380Y-90198540D02*
X203776380Y-89539880D01*
X203776380Y-89539880D02*
X191424560Y-77188060D01*
X191424560Y-77188060D02*
X175839120Y-77188060D01*
X175839120Y-77188060D02*
X170670220Y-72019160D01*
X170670220Y-68211700D02*
X168831260Y-66372740D01*
X170670220Y-72019160D02*
X170670220Y-68211700D01*
X114670840Y-93954600D02*
X114670840Y-87721440D01*
X147363180Y-55029100D02*
X148789500Y-55029100D01*
X114670840Y-87721440D02*
X147363180Y-55029100D01*
X132608320Y-97485200D02*
X118201440Y-97485200D01*
X118201440Y-97485200D02*
X114670840Y-93954600D01*
X135027380Y-95071540D02*
X134227381Y-95871539D01*
X134227381Y-95871539D02*
X134221981Y-95871539D01*
X134221981Y-95871539D02*
X132608320Y-97485200D01*
X115712240Y-93553280D02*
X115712240Y-88712040D01*
X115712240Y-88712040D02*
X147450180Y-56974100D01*
X147450180Y-56974100D02*
X148789500Y-56974100D01*
X126844530Y-96885760D02*
X119044720Y-96885760D01*
X119044720Y-96885760D02*
X115712240Y-93553280D01*
X127527380Y-95071540D02*
X127527380Y-95388100D01*
X127527380Y-95071540D02*
X127527380Y-96202910D01*
X127527380Y-96202910D02*
X126844530Y-96885760D01*
X147411440Y-58897520D02*
X148747480Y-58897520D01*
X116443760Y-89865200D02*
X147411440Y-58897520D01*
X116443760Y-90109040D02*
X116459000Y-90093800D01*
X116443760Y-90109040D02*
X116443760Y-89865200D01*
X116443760Y-92194380D02*
X116443760Y-90109040D01*
X120027380Y-95111540D02*
X119360920Y-95111540D01*
X119360920Y-95111540D02*
X116443760Y-92194380D01*
X148607240Y-61046360D02*
X148789500Y-60864100D01*
X147040600Y-62613000D02*
X148789500Y-60864100D01*
X147040600Y-66768320D02*
X147040600Y-62613000D01*
X123777380Y-90031540D02*
X147040600Y-66768320D01*
X153777380Y-70487320D02*
X155098500Y-69166200D01*
X153777380Y-90071540D02*
X153777380Y-70487320D01*
X157848500Y-91322960D02*
X157848500Y-69166200D01*
X155027380Y-95111540D02*
X155027380Y-94144080D01*
X155027380Y-94144080D02*
X157848500Y-91322960D01*
X177526380Y-95198540D02*
X177526380Y-94686820D01*
X177526380Y-94686820D02*
X175684180Y-92844620D01*
X166357300Y-92844620D02*
X163348500Y-89835820D01*
X175684180Y-92844620D02*
X166357300Y-92844620D01*
X163348500Y-89835820D02*
X163340880Y-89835820D01*
X160787080Y-87282020D02*
X160784540Y-87282020D01*
X163340880Y-89835820D02*
X160787080Y-87282020D01*
X160599120Y-87096600D02*
X160599120Y-69250560D01*
X160784540Y-87282020D02*
X160599120Y-87096600D01*
X171276380Y-90158540D02*
X171276380Y-89330900D01*
X163348500Y-81403020D02*
X163348500Y-69166200D01*
X171276380Y-89330900D02*
X163348500Y-81403020D01*
X186276380Y-90198540D02*
X186276380Y-88979140D01*
X186276380Y-88979140D02*
X179290980Y-81993740D01*
X179290980Y-81993740D02*
X175049180Y-81993740D01*
X166128700Y-73073260D02*
X166128700Y-69316600D01*
X175049180Y-81993740D02*
X166128700Y-73073260D01*
X201276380Y-90198540D02*
X201276380Y-89488440D01*
X201276380Y-89488440D02*
X190779400Y-78991460D01*
X190779400Y-78991460D02*
X175465740Y-78991460D01*
X168899840Y-72425560D02*
X168899840Y-69293740D01*
X175465740Y-78991460D02*
X168899840Y-72425560D01*
X147787360Y-63811240D02*
X148789500Y-62809100D01*
X147787360Y-73512680D02*
X147787360Y-63811240D01*
X131277380Y-90031540D02*
X132077379Y-89231541D01*
X132077379Y-89231541D02*
X132077379Y-89222661D01*
X132077379Y-89222661D02*
X147787360Y-73512680D01*
X148789500Y-65881140D02*
X148789500Y-64754100D01*
X148789500Y-80059420D02*
X148789500Y-65881140D01*
X138777380Y-90071540D02*
X148789500Y-80059420D01*
D19*
X174145024Y-141846300D02*
X173720760Y-141846300D01*
X198585481Y-141846300D02*
X174145024Y-141846300D01*
X199425560Y-141006221D02*
X198585481Y-141846300D01*
X199425560Y-139804140D02*
X199425560Y-141006221D01*
X151894540Y-126690120D02*
X153697940Y-128493520D01*
X153697940Y-128493520D02*
X153697940Y-140065760D01*
X153697940Y-140065760D02*
X157025340Y-143393160D01*
X157025340Y-143393160D02*
X157210760Y-143578580D01*
X157210760Y-143578580D02*
X182872380Y-143578580D01*
D21*
G36*
X210896200Y-149453600D02*
G01*
X173920937Y-149453600D01*
X174100169Y-149417948D01*
X174270329Y-149347466D01*
X174423468Y-149245142D01*
X174553702Y-149114908D01*
X174656026Y-148961769D01*
X174726508Y-148791609D01*
X174762440Y-148610969D01*
X174762440Y-148426791D01*
X174726508Y-148246151D01*
X174656026Y-148075991D01*
X174553702Y-147922852D01*
X174423468Y-147792618D01*
X174270329Y-147690294D01*
X174100169Y-147619812D01*
X173919529Y-147583880D01*
X173735351Y-147583880D01*
X173554711Y-147619812D01*
X173384551Y-147690294D01*
X173281905Y-147758880D01*
X171582533Y-147758880D01*
X171618589Y-147751708D01*
X171788749Y-147681226D01*
X171941888Y-147578902D01*
X172072122Y-147448668D01*
X172174446Y-147295529D01*
X172244928Y-147125369D01*
X172280860Y-146944729D01*
X172280860Y-146760551D01*
X172244928Y-146579911D01*
X172174446Y-146409751D01*
X172072122Y-146256612D01*
X171941888Y-146126378D01*
X171788749Y-146024054D01*
X171618589Y-145953572D01*
X171437949Y-145917640D01*
X171253771Y-145917640D01*
X171073131Y-145953572D01*
X170902971Y-146024054D01*
X170749832Y-146126378D01*
X170619598Y-146256612D01*
X170517274Y-146409751D01*
X170446792Y-146579911D01*
X170410860Y-146760551D01*
X170410860Y-146944729D01*
X170446792Y-147125369D01*
X170517274Y-147295529D01*
X170619598Y-147448668D01*
X170749832Y-147578902D01*
X170902971Y-147681226D01*
X171073131Y-147751708D01*
X171109187Y-147758880D01*
X158759321Y-147758880D01*
X158811889Y-147737106D01*
X158965028Y-147634782D01*
X159095262Y-147504548D01*
X159197586Y-147351409D01*
X159268068Y-147181249D01*
X159304000Y-147000609D01*
X159304000Y-146816431D01*
X159268068Y-146635791D01*
X159197586Y-146465631D01*
X159095262Y-146312492D01*
X158965028Y-146182258D01*
X158811889Y-146079934D01*
X158641729Y-146009452D01*
X158520649Y-145985367D01*
X152714884Y-140179603D01*
X152691081Y-140150599D01*
X152575356Y-140055626D01*
X152443327Y-139985054D01*
X152300066Y-139941597D01*
X152188413Y-139930600D01*
X152188402Y-139930600D01*
X152151080Y-139926924D01*
X152113758Y-139930600D01*
X134477602Y-139930600D01*
X129347500Y-134800499D01*
X129347500Y-132282043D01*
X129502259Y-132178637D01*
X129702137Y-131978759D01*
X129857500Y-131746241D01*
X130012863Y-131978759D01*
X130212741Y-132178637D01*
X130447773Y-132335680D01*
X130708926Y-132443853D01*
X130986165Y-132499000D01*
X131268835Y-132499000D01*
X131546074Y-132443853D01*
X131807227Y-132335680D01*
X132042259Y-132178637D01*
X132242137Y-131978759D01*
X132397500Y-131746241D01*
X132552863Y-131978759D01*
X132752741Y-132178637D01*
X132987773Y-132335680D01*
X133248926Y-132443853D01*
X133526165Y-132499000D01*
X133808835Y-132499000D01*
X134086074Y-132443853D01*
X134347227Y-132335680D01*
X134582259Y-132178637D01*
X134782137Y-131978759D01*
X134937500Y-131746241D01*
X135092863Y-131978759D01*
X135292741Y-132178637D01*
X135527773Y-132335680D01*
X135788926Y-132443853D01*
X136066165Y-132499000D01*
X136348835Y-132499000D01*
X136626074Y-132443853D01*
X136887227Y-132335680D01*
X137122259Y-132178637D01*
X137322137Y-131978759D01*
X137477500Y-131746241D01*
X137632863Y-131978759D01*
X137832741Y-132178637D01*
X138067773Y-132335680D01*
X138328926Y-132443853D01*
X138606165Y-132499000D01*
X138888835Y-132499000D01*
X139166074Y-132443853D01*
X139427227Y-132335680D01*
X139662259Y-132178637D01*
X139862137Y-131978759D01*
X140017500Y-131746241D01*
X140172863Y-131978759D01*
X140372741Y-132178637D01*
X140607773Y-132335680D01*
X140868926Y-132443853D01*
X141146165Y-132499000D01*
X141428835Y-132499000D01*
X141706074Y-132443853D01*
X141967227Y-132335680D01*
X142202259Y-132178637D01*
X142402137Y-131978759D01*
X142557500Y-131746241D01*
X142712863Y-131978759D01*
X142912741Y-132178637D01*
X143147773Y-132335680D01*
X143408926Y-132443853D01*
X143686165Y-132499000D01*
X143968835Y-132499000D01*
X144246074Y-132443853D01*
X144507227Y-132335680D01*
X144742259Y-132178637D01*
X144942137Y-131978759D01*
X145097500Y-131746241D01*
X145252863Y-131978759D01*
X145452741Y-132178637D01*
X145687773Y-132335680D01*
X145948926Y-132443853D01*
X146226165Y-132499000D01*
X146508835Y-132499000D01*
X146786074Y-132443853D01*
X147047227Y-132335680D01*
X147282259Y-132178637D01*
X147482137Y-131978759D01*
X147637500Y-131746241D01*
X147792863Y-131978759D01*
X147992741Y-132178637D01*
X148227773Y-132335680D01*
X148488926Y-132443853D01*
X148766165Y-132499000D01*
X149048835Y-132499000D01*
X149326074Y-132443853D01*
X149587227Y-132335680D01*
X149822259Y-132178637D01*
X150020857Y-131980039D01*
X150021688Y-131988482D01*
X150057998Y-132108180D01*
X150116963Y-132218494D01*
X150196315Y-132315185D01*
X150293006Y-132394537D01*
X150403320Y-132453502D01*
X150523018Y-132489812D01*
X150647500Y-132502072D01*
X152247500Y-132502072D01*
X152371982Y-132489812D01*
X152491680Y-132453502D01*
X152601994Y-132394537D01*
X152698685Y-132315185D01*
X152778037Y-132218494D01*
X152837002Y-132108180D01*
X152873312Y-131988482D01*
X152885572Y-131864000D01*
X152885572Y-130264000D01*
X152873312Y-130139518D01*
X152837002Y-130019820D01*
X152778037Y-129909506D01*
X152698685Y-129812815D01*
X152601994Y-129733463D01*
X152491680Y-129674498D01*
X152371982Y-129638188D01*
X152247500Y-129625928D01*
X150647500Y-129625928D01*
X150523018Y-129638188D01*
X150403320Y-129674498D01*
X150293006Y-129733463D01*
X150196315Y-129812815D01*
X150116963Y-129909506D01*
X150057998Y-130019820D01*
X150021688Y-130139518D01*
X150020857Y-130147961D01*
X149822259Y-129949363D01*
X149587227Y-129792320D01*
X149326074Y-129684147D01*
X149048835Y-129629000D01*
X148766165Y-129629000D01*
X148488926Y-129684147D01*
X148227773Y-129792320D01*
X147992741Y-129949363D01*
X147792863Y-130149241D01*
X147637500Y-130381759D01*
X147482137Y-130149241D01*
X147282259Y-129949363D01*
X147047227Y-129792320D01*
X146786074Y-129684147D01*
X146508835Y-129629000D01*
X146226165Y-129629000D01*
X145948926Y-129684147D01*
X145687773Y-129792320D01*
X145452741Y-129949363D01*
X145252863Y-130149241D01*
X145097500Y-130381759D01*
X144942137Y-130149241D01*
X144742259Y-129949363D01*
X144507227Y-129792320D01*
X144246074Y-129684147D01*
X143968835Y-129629000D01*
X143686165Y-129629000D01*
X143562593Y-129653580D01*
X139450000Y-125540988D01*
X139424628Y-125510072D01*
X139301289Y-125408851D01*
X139160573Y-125333637D01*
X139007888Y-125287320D01*
X138888891Y-125275600D01*
X138888888Y-125275600D01*
X138849100Y-125271681D01*
X138809312Y-125275600D01*
X129812585Y-125275600D01*
X129784769Y-125257014D01*
X129614609Y-125186532D01*
X129433969Y-125150600D01*
X129249791Y-125150600D01*
X129069151Y-125186532D01*
X128898991Y-125257014D01*
X128745852Y-125359338D01*
X128615618Y-125489572D01*
X128513294Y-125642711D01*
X128442812Y-125812871D01*
X128406880Y-125993511D01*
X128406880Y-126177689D01*
X128442812Y-126358329D01*
X128513294Y-126528489D01*
X128615618Y-126681628D01*
X128745852Y-126811862D01*
X128898991Y-126914186D01*
X129069151Y-126984668D01*
X129249791Y-127020600D01*
X129433969Y-127020600D01*
X129614609Y-126984668D01*
X129784769Y-126914186D01*
X129812585Y-126895600D01*
X138513588Y-126895600D01*
X141246987Y-129629000D01*
X141146165Y-129629000D01*
X140868926Y-129684147D01*
X140607773Y-129792320D01*
X140372741Y-129949363D01*
X140172863Y-130149241D01*
X140017500Y-130381759D01*
X139862137Y-130149241D01*
X139662259Y-129949363D01*
X139427227Y-129792320D01*
X139166074Y-129684147D01*
X138888835Y-129629000D01*
X138606165Y-129629000D01*
X138328926Y-129684147D01*
X138067773Y-129792320D01*
X137832741Y-129949363D01*
X137632863Y-130149241D01*
X137477500Y-130381759D01*
X137322137Y-130149241D01*
X137122259Y-129949363D01*
X136887227Y-129792320D01*
X136626074Y-129684147D01*
X136348835Y-129629000D01*
X136066165Y-129629000D01*
X135788926Y-129684147D01*
X135527773Y-129792320D01*
X135292741Y-129949363D01*
X135092863Y-130149241D01*
X134937500Y-130381759D01*
X134782137Y-130149241D01*
X134582259Y-129949363D01*
X134347227Y-129792320D01*
X134086074Y-129684147D01*
X133808835Y-129629000D01*
X133526165Y-129629000D01*
X133248926Y-129684147D01*
X132987773Y-129792320D01*
X132752741Y-129949363D01*
X132552863Y-130149241D01*
X132397500Y-130381759D01*
X132242137Y-130149241D01*
X132042259Y-129949363D01*
X131807227Y-129792320D01*
X131546074Y-129684147D01*
X131268835Y-129629000D01*
X130986165Y-129629000D01*
X130708926Y-129684147D01*
X130447773Y-129792320D01*
X130212741Y-129949363D01*
X130012863Y-130149241D01*
X129857500Y-130381759D01*
X129702137Y-130149241D01*
X129502259Y-129949363D01*
X129267227Y-129792320D01*
X129006074Y-129684147D01*
X128728835Y-129629000D01*
X128446165Y-129629000D01*
X128168926Y-129684147D01*
X127907773Y-129792320D01*
X127672741Y-129949363D01*
X127472863Y-130149241D01*
X127317500Y-130381759D01*
X127162137Y-130149241D01*
X126962259Y-129949363D01*
X126727227Y-129792320D01*
X126466074Y-129684147D01*
X126188835Y-129629000D01*
X125906165Y-129629000D01*
X125628926Y-129684147D01*
X125367773Y-129792320D01*
X125132741Y-129949363D01*
X124932863Y-130149241D01*
X124777500Y-130381759D01*
X124622137Y-130149241D01*
X124422259Y-129949363D01*
X124187227Y-129792320D01*
X123926074Y-129684147D01*
X123648835Y-129629000D01*
X123366165Y-129629000D01*
X123088926Y-129684147D01*
X122827773Y-129792320D01*
X122592741Y-129949363D01*
X122392863Y-130149241D01*
X122237500Y-130381759D01*
X122082137Y-130149241D01*
X121882259Y-129949363D01*
X121647227Y-129792320D01*
X121386074Y-129684147D01*
X121108835Y-129629000D01*
X120826165Y-129629000D01*
X120548926Y-129684147D01*
X120287773Y-129792320D01*
X120052741Y-129949363D01*
X119852863Y-130149241D01*
X119697500Y-130381759D01*
X119542137Y-130149241D01*
X119342259Y-129949363D01*
X119107227Y-129792320D01*
X118846074Y-129684147D01*
X118568835Y-129629000D01*
X118286165Y-129629000D01*
X118008926Y-129684147D01*
X117747773Y-129792320D01*
X117512741Y-129949363D01*
X117312863Y-130149241D01*
X117157500Y-130381759D01*
X117002137Y-130149241D01*
X116802259Y-129949363D01*
X116567227Y-129792320D01*
X116306074Y-129684147D01*
X116028835Y-129629000D01*
X115746165Y-129629000D01*
X115468926Y-129684147D01*
X115207773Y-129792320D01*
X114972741Y-129949363D01*
X114772863Y-130149241D01*
X114615820Y-130384273D01*
X114507647Y-130645426D01*
X114452500Y-130922665D01*
X114452500Y-131205335D01*
X114507647Y-131482574D01*
X114615820Y-131743727D01*
X114772863Y-131978759D01*
X114972741Y-132178637D01*
X115207773Y-132335680D01*
X115468926Y-132443853D01*
X115746165Y-132499000D01*
X116028835Y-132499000D01*
X116306074Y-132443853D01*
X116567227Y-132335680D01*
X116802259Y-132178637D01*
X117002137Y-131978759D01*
X117157500Y-131746241D01*
X117312863Y-131978759D01*
X117512741Y-132178637D01*
X117747773Y-132335680D01*
X118008926Y-132443853D01*
X118286165Y-132499000D01*
X118568835Y-132499000D01*
X118846074Y-132443853D01*
X119107227Y-132335680D01*
X119342259Y-132178637D01*
X119542137Y-131978759D01*
X119697500Y-131746241D01*
X119852863Y-131978759D01*
X120052741Y-132178637D01*
X120287773Y-132335680D01*
X120548926Y-132443853D01*
X120826165Y-132499000D01*
X121108835Y-132499000D01*
X121386074Y-132443853D01*
X121647227Y-132335680D01*
X121882259Y-132178637D01*
X122082137Y-131978759D01*
X122237500Y-131746241D01*
X122392863Y-131978759D01*
X122592741Y-132178637D01*
X122827773Y-132335680D01*
X123088926Y-132443853D01*
X123366165Y-132499000D01*
X123648835Y-132499000D01*
X123926074Y-132443853D01*
X124187227Y-132335680D01*
X124422259Y-132178637D01*
X124622137Y-131978759D01*
X124777500Y-131746241D01*
X124932863Y-131978759D01*
X125132741Y-132178637D01*
X125287500Y-132282043D01*
X125287501Y-135306568D01*
X125283824Y-135343900D01*
X125287501Y-135381233D01*
X125298498Y-135492886D01*
X125303946Y-135510845D01*
X125341954Y-135636146D01*
X125412526Y-135768176D01*
X125455752Y-135820846D01*
X125507500Y-135883901D01*
X125536498Y-135907699D01*
X132166601Y-142537803D01*
X132190400Y-142566802D01*
X132306125Y-142661775D01*
X132438154Y-142732347D01*
X132581415Y-142775804D01*
X132693068Y-142786801D01*
X132693077Y-142786801D01*
X132730400Y-142790477D01*
X132767723Y-142786801D01*
X151094760Y-142786801D01*
X157337841Y-149029883D01*
X157361639Y-149058881D01*
X157477364Y-149153854D01*
X157609393Y-149224426D01*
X157752654Y-149267883D01*
X157864307Y-149278880D01*
X157864316Y-149278880D01*
X157901639Y-149282556D01*
X157938962Y-149278880D01*
X173281905Y-149278880D01*
X173384551Y-149347466D01*
X173554711Y-149417948D01*
X173733943Y-149453600D01*
X113507520Y-149453600D01*
X113507520Y-146162665D01*
X114452500Y-146162665D01*
X114452500Y-146445335D01*
X114507647Y-146722574D01*
X114615820Y-146983727D01*
X114772863Y-147218759D01*
X114972741Y-147418637D01*
X115207773Y-147575680D01*
X115468926Y-147683853D01*
X115746165Y-147739000D01*
X116028835Y-147739000D01*
X116306074Y-147683853D01*
X116567227Y-147575680D01*
X116802259Y-147418637D01*
X117002137Y-147218759D01*
X117157500Y-146986241D01*
X117312863Y-147218759D01*
X117512741Y-147418637D01*
X117747773Y-147575680D01*
X118008926Y-147683853D01*
X118286165Y-147739000D01*
X118568835Y-147739000D01*
X118846074Y-147683853D01*
X119107227Y-147575680D01*
X119342259Y-147418637D01*
X119542137Y-147218759D01*
X119697500Y-146986241D01*
X119852863Y-147218759D01*
X120052741Y-147418637D01*
X120287773Y-147575680D01*
X120548926Y-147683853D01*
X120826165Y-147739000D01*
X121108835Y-147739000D01*
X121386074Y-147683853D01*
X121647227Y-147575680D01*
X121882259Y-147418637D01*
X122082137Y-147218759D01*
X122237500Y-146986241D01*
X122392863Y-147218759D01*
X122592741Y-147418637D01*
X122827773Y-147575680D01*
X123088926Y-147683853D01*
X123366165Y-147739000D01*
X123648835Y-147739000D01*
X123926074Y-147683853D01*
X124187227Y-147575680D01*
X124422259Y-147418637D01*
X124622137Y-147218759D01*
X124777500Y-146986241D01*
X124932863Y-147218759D01*
X125132741Y-147418637D01*
X125367773Y-147575680D01*
X125628926Y-147683853D01*
X125906165Y-147739000D01*
X126188835Y-147739000D01*
X126466074Y-147683853D01*
X126727227Y-147575680D01*
X126962259Y-147418637D01*
X127162137Y-147218759D01*
X127317500Y-146986241D01*
X127472863Y-147218759D01*
X127672741Y-147418637D01*
X127907773Y-147575680D01*
X128168926Y-147683853D01*
X128446165Y-147739000D01*
X128728835Y-147739000D01*
X129006074Y-147683853D01*
X129267227Y-147575680D01*
X129502259Y-147418637D01*
X129702137Y-147218759D01*
X129857500Y-146986241D01*
X130012863Y-147218759D01*
X130212741Y-147418637D01*
X130447773Y-147575680D01*
X130708926Y-147683853D01*
X130986165Y-147739000D01*
X131268835Y-147739000D01*
X131546074Y-147683853D01*
X131807227Y-147575680D01*
X132042259Y-147418637D01*
X132242137Y-147218759D01*
X132397500Y-146986241D01*
X132552863Y-147218759D01*
X132752741Y-147418637D01*
X132987773Y-147575680D01*
X133248926Y-147683853D01*
X133526165Y-147739000D01*
X133808835Y-147739000D01*
X134086074Y-147683853D01*
X134347227Y-147575680D01*
X134582259Y-147418637D01*
X134782137Y-147218759D01*
X134937500Y-146986241D01*
X135092863Y-147218759D01*
X135292741Y-147418637D01*
X135527773Y-147575680D01*
X135788926Y-147683853D01*
X136066165Y-147739000D01*
X136348835Y-147739000D01*
X136626074Y-147683853D01*
X136887227Y-147575680D01*
X137122259Y-147418637D01*
X137322137Y-147218759D01*
X137477500Y-146986241D01*
X137632863Y-147218759D01*
X137832741Y-147418637D01*
X138067773Y-147575680D01*
X138328926Y-147683853D01*
X138606165Y-147739000D01*
X138888835Y-147739000D01*
X139166074Y-147683853D01*
X139427227Y-147575680D01*
X139662259Y-147418637D01*
X139862137Y-147218759D01*
X140017500Y-146986241D01*
X140172863Y-147218759D01*
X140372741Y-147418637D01*
X140607773Y-147575680D01*
X140868926Y-147683853D01*
X141146165Y-147739000D01*
X141428835Y-147739000D01*
X141706074Y-147683853D01*
X141967227Y-147575680D01*
X142202259Y-147418637D01*
X142402137Y-147218759D01*
X142559180Y-146983727D01*
X142563567Y-146973135D01*
X142675115Y-147159131D01*
X142864086Y-147367519D01*
X143090080Y-147535037D01*
X143344413Y-147655246D01*
X143478461Y-147695904D01*
X143700500Y-147573915D01*
X143700500Y-146431000D01*
X143680500Y-146431000D01*
X143680500Y-146177000D01*
X143700500Y-146177000D01*
X143700500Y-145034085D01*
X143954500Y-145034085D01*
X143954500Y-146177000D01*
X143974500Y-146177000D01*
X143974500Y-146431000D01*
X143954500Y-146431000D01*
X143954500Y-147573915D01*
X144176539Y-147695904D01*
X144310587Y-147655246D01*
X144564920Y-147535037D01*
X144790914Y-147367519D01*
X144979885Y-147159131D01*
X145091433Y-146973135D01*
X145095820Y-146983727D01*
X145252863Y-147218759D01*
X145452741Y-147418637D01*
X145687773Y-147575680D01*
X145948926Y-147683853D01*
X146226165Y-147739000D01*
X146508835Y-147739000D01*
X146786074Y-147683853D01*
X147047227Y-147575680D01*
X147282259Y-147418637D01*
X147482137Y-147218759D01*
X147637500Y-146986241D01*
X147792863Y-147218759D01*
X147992741Y-147418637D01*
X148227773Y-147575680D01*
X148488926Y-147683853D01*
X148766165Y-147739000D01*
X149048835Y-147739000D01*
X149326074Y-147683853D01*
X149587227Y-147575680D01*
X149822259Y-147418637D01*
X150022137Y-147218759D01*
X150177500Y-146986241D01*
X150332863Y-147218759D01*
X150532741Y-147418637D01*
X150767773Y-147575680D01*
X151028926Y-147683853D01*
X151306165Y-147739000D01*
X151588835Y-147739000D01*
X151866074Y-147683853D01*
X152127227Y-147575680D01*
X152362259Y-147418637D01*
X152562137Y-147218759D01*
X152719180Y-146983727D01*
X152827353Y-146722574D01*
X152882500Y-146445335D01*
X152882500Y-146162665D01*
X152827353Y-145885426D01*
X152719180Y-145624273D01*
X152562137Y-145389241D01*
X152362259Y-145189363D01*
X152127227Y-145032320D01*
X151866074Y-144924147D01*
X151588835Y-144869000D01*
X151306165Y-144869000D01*
X151028926Y-144924147D01*
X150767773Y-145032320D01*
X150532741Y-145189363D01*
X150332863Y-145389241D01*
X150177500Y-145621759D01*
X150022137Y-145389241D01*
X149822259Y-145189363D01*
X149587227Y-145032320D01*
X149326074Y-144924147D01*
X149048835Y-144869000D01*
X148766165Y-144869000D01*
X148488926Y-144924147D01*
X148227773Y-145032320D01*
X147992741Y-145189363D01*
X147792863Y-145389241D01*
X147637500Y-145621759D01*
X147482137Y-145389241D01*
X147282259Y-145189363D01*
X147047227Y-145032320D01*
X146786074Y-144924147D01*
X146508835Y-144869000D01*
X146226165Y-144869000D01*
X145948926Y-144924147D01*
X145687773Y-145032320D01*
X145452741Y-145189363D01*
X145252863Y-145389241D01*
X145095820Y-145624273D01*
X145091433Y-145634865D01*
X144979885Y-145448869D01*
X144790914Y-145240481D01*
X144564920Y-145072963D01*
X144310587Y-144952754D01*
X144176539Y-144912096D01*
X143954500Y-145034085D01*
X143700500Y-145034085D01*
X143478461Y-144912096D01*
X143344413Y-144952754D01*
X143090080Y-145072963D01*
X142864086Y-145240481D01*
X142675115Y-145448869D01*
X142563567Y-145634865D01*
X142559180Y-145624273D01*
X142402137Y-145389241D01*
X142202259Y-145189363D01*
X141967227Y-145032320D01*
X141706074Y-144924147D01*
X141428835Y-144869000D01*
X141146165Y-144869000D01*
X140868926Y-144924147D01*
X140607773Y-145032320D01*
X140372741Y-145189363D01*
X140172863Y-145389241D01*
X140017500Y-145621759D01*
X139862137Y-145389241D01*
X139662259Y-145189363D01*
X139427227Y-145032320D01*
X139166074Y-144924147D01*
X138888835Y-144869000D01*
X138606165Y-144869000D01*
X138328926Y-144924147D01*
X138067773Y-145032320D01*
X137832741Y-145189363D01*
X137632863Y-145389241D01*
X137477500Y-145621759D01*
X137322137Y-145389241D01*
X137122259Y-145189363D01*
X136887227Y-145032320D01*
X136626074Y-144924147D01*
X136348835Y-144869000D01*
X136066165Y-144869000D01*
X135788926Y-144924147D01*
X135527773Y-145032320D01*
X135292741Y-145189363D01*
X135092863Y-145389241D01*
X134937500Y-145621759D01*
X134782137Y-145389241D01*
X134582259Y-145189363D01*
X134347227Y-145032320D01*
X134086074Y-144924147D01*
X133808835Y-144869000D01*
X133526165Y-144869000D01*
X133248926Y-144924147D01*
X132987773Y-145032320D01*
X132752741Y-145189363D01*
X132552863Y-145389241D01*
X132397500Y-145621759D01*
X132242137Y-145389241D01*
X132042259Y-145189363D01*
X131807227Y-145032320D01*
X131546074Y-144924147D01*
X131268835Y-144869000D01*
X130986165Y-144869000D01*
X130708926Y-144924147D01*
X130447773Y-145032320D01*
X130212741Y-145189363D01*
X130012863Y-145389241D01*
X129857500Y-145621759D01*
X129702137Y-145389241D01*
X129502259Y-145189363D01*
X129267227Y-145032320D01*
X129006074Y-144924147D01*
X128728835Y-144869000D01*
X128446165Y-144869000D01*
X128168926Y-144924147D01*
X127907773Y-145032320D01*
X127672741Y-145189363D01*
X127472863Y-145389241D01*
X127317500Y-145621759D01*
X127162137Y-145389241D01*
X126962259Y-145189363D01*
X126727227Y-145032320D01*
X126466074Y-144924147D01*
X126188835Y-144869000D01*
X125906165Y-144869000D01*
X125628926Y-144924147D01*
X125367773Y-145032320D01*
X125132741Y-145189363D01*
X124932863Y-145389241D01*
X124777500Y-145621759D01*
X124622137Y-145389241D01*
X124422259Y-145189363D01*
X124187227Y-145032320D01*
X123926074Y-144924147D01*
X123648835Y-144869000D01*
X123366165Y-144869000D01*
X123088926Y-144924147D01*
X122827773Y-145032320D01*
X122592741Y-145189363D01*
X122392863Y-145389241D01*
X122237500Y-145621759D01*
X122082137Y-145389241D01*
X121882259Y-145189363D01*
X121647227Y-145032320D01*
X121386074Y-144924147D01*
X121108835Y-144869000D01*
X120826165Y-144869000D01*
X120548926Y-144924147D01*
X120287773Y-145032320D01*
X120052741Y-145189363D01*
X119852863Y-145389241D01*
X119697500Y-145621759D01*
X119542137Y-145389241D01*
X119342259Y-145189363D01*
X119107227Y-145032320D01*
X118846074Y-144924147D01*
X118568835Y-144869000D01*
X118286165Y-144869000D01*
X118008926Y-144924147D01*
X117747773Y-145032320D01*
X117512741Y-145189363D01*
X117312863Y-145389241D01*
X117157500Y-145621759D01*
X117002137Y-145389241D01*
X116802259Y-145189363D01*
X116567227Y-145032320D01*
X116306074Y-144924147D01*
X116028835Y-144869000D01*
X115746165Y-144869000D01*
X115468926Y-144924147D01*
X115207773Y-145032320D01*
X114972741Y-145189363D01*
X114772863Y-145389241D01*
X114615820Y-145624273D01*
X114507647Y-145885426D01*
X114452500Y-146162665D01*
X113507520Y-146162665D01*
X113507520Y-138315872D01*
X115738500Y-138315872D01*
X115738500Y-138756128D01*
X115824390Y-139187925D01*
X115992869Y-139594669D01*
X116237462Y-139960729D01*
X116548771Y-140272038D01*
X116914831Y-140516631D01*
X117321575Y-140685110D01*
X117753372Y-140771000D01*
X118193628Y-140771000D01*
X118625425Y-140685110D01*
X119032169Y-140516631D01*
X119398229Y-140272038D01*
X119709538Y-139960729D01*
X119954131Y-139594669D01*
X120122610Y-139187925D01*
X120208500Y-138756128D01*
X120208500Y-138315872D01*
X120122610Y-137884075D01*
X119954131Y-137477331D01*
X119709538Y-137111271D01*
X119398229Y-136799962D01*
X119032169Y-136555369D01*
X118625425Y-136386890D01*
X118193628Y-136301000D01*
X117753372Y-136301000D01*
X117321575Y-136386890D01*
X116914831Y-136555369D01*
X116548771Y-136799962D01*
X116237462Y-137111271D01*
X115992869Y-137477331D01*
X115824390Y-137884075D01*
X115738500Y-138315872D01*
X113507520Y-138315872D01*
X113507520Y-111682165D01*
X117413500Y-111682165D01*
X117413500Y-111964835D01*
X117468647Y-112242074D01*
X117576820Y-112503227D01*
X117733863Y-112738259D01*
X117933741Y-112938137D01*
X118168773Y-113095180D01*
X118429926Y-113203353D01*
X118707165Y-113258500D01*
X118989835Y-113258500D01*
X119201876Y-113216322D01*
X121320536Y-115334983D01*
X121343552Y-115363028D01*
X121455470Y-115454877D01*
X121583157Y-115523127D01*
X121721705Y-115565155D01*
X121829685Y-115575790D01*
X121829694Y-115575790D01*
X121865789Y-115579345D01*
X121901884Y-115575790D01*
X124722840Y-115575790D01*
X126503182Y-117356133D01*
X126526198Y-117384178D01*
X126572243Y-117421966D01*
X126638116Y-117476027D01*
X126765802Y-117544277D01*
X126904351Y-117586305D01*
X127048436Y-117600496D01*
X127084541Y-117596940D01*
X131486234Y-117596940D01*
X134377936Y-120488643D01*
X134400952Y-120516688D01*
X134512870Y-120608537D01*
X134640557Y-120676787D01*
X134724267Y-120702180D01*
X134779104Y-120718815D01*
X134793322Y-120720215D01*
X134887085Y-120729450D01*
X134887092Y-120729450D01*
X134923189Y-120733005D01*
X134959286Y-120729450D01*
X143184337Y-120729450D01*
X143220442Y-120733006D01*
X143256547Y-120729450D01*
X143301018Y-120725070D01*
X146301363Y-120725070D01*
X151443364Y-125867071D01*
X151298512Y-125963858D01*
X151168278Y-126094092D01*
X151065954Y-126247231D01*
X150995472Y-126417391D01*
X150959540Y-126598031D01*
X150959540Y-126782209D01*
X150995472Y-126962849D01*
X151065954Y-127133009D01*
X151168278Y-127286148D01*
X151298512Y-127416382D01*
X151451651Y-127518706D01*
X151621811Y-127589188D01*
X151742892Y-127613273D01*
X152937940Y-128808322D01*
X152937941Y-140028428D01*
X152934264Y-140065760D01*
X152948938Y-140214745D01*
X152992394Y-140358006D01*
X153062966Y-140490036D01*
X153134141Y-140576762D01*
X153157940Y-140605761D01*
X153186938Y-140629559D01*
X156514337Y-143956959D01*
X156646960Y-144089582D01*
X156670759Y-144118581D01*
X156786484Y-144213554D01*
X156918513Y-144284126D01*
X157061774Y-144327583D01*
X157173427Y-144338580D01*
X157173436Y-144338580D01*
X157210759Y-144342256D01*
X157248082Y-144338580D01*
X182326845Y-144338580D01*
X182429491Y-144407166D01*
X182599651Y-144477648D01*
X182780291Y-144513580D01*
X182964469Y-144513580D01*
X183145109Y-144477648D01*
X183315269Y-144407166D01*
X183451900Y-144315872D01*
X203738500Y-144315872D01*
X203738500Y-144756128D01*
X203824390Y-145187925D01*
X203992869Y-145594669D01*
X204237462Y-145960729D01*
X204548771Y-146272038D01*
X204914831Y-146516631D01*
X205321575Y-146685110D01*
X205753372Y-146771000D01*
X206193628Y-146771000D01*
X206625425Y-146685110D01*
X207032169Y-146516631D01*
X207398229Y-146272038D01*
X207709538Y-145960729D01*
X207954131Y-145594669D01*
X208122610Y-145187925D01*
X208208500Y-144756128D01*
X208208500Y-144315872D01*
X208122610Y-143884075D01*
X207954131Y-143477331D01*
X207709538Y-143111271D01*
X207398229Y-142799962D01*
X207032169Y-142555369D01*
X206625425Y-142386890D01*
X206193628Y-142301000D01*
X205753372Y-142301000D01*
X205321575Y-142386890D01*
X204914831Y-142555369D01*
X204548771Y-142799962D01*
X204237462Y-143111271D01*
X203992869Y-143477331D01*
X203824390Y-143884075D01*
X203738500Y-144315872D01*
X183451900Y-144315872D01*
X183468408Y-144304842D01*
X183598642Y-144174608D01*
X183700966Y-144021469D01*
X183771448Y-143851309D01*
X183807380Y-143670669D01*
X183807380Y-143486491D01*
X183771448Y-143305851D01*
X183700966Y-143135691D01*
X183598642Y-142982552D01*
X183468408Y-142852318D01*
X183315269Y-142749994D01*
X183145109Y-142679512D01*
X182964469Y-142643580D01*
X182780291Y-142643580D01*
X182599651Y-142679512D01*
X182429491Y-142749994D01*
X182326845Y-142818580D01*
X157525562Y-142818580D01*
X154457940Y-139750959D01*
X154457940Y-128881648D01*
X156992491Y-131416199D01*
X157010552Y-131506998D01*
X157081034Y-131677158D01*
X157183358Y-131830297D01*
X157313592Y-131960531D01*
X157466731Y-132062855D01*
X157636891Y-132133337D01*
X157817531Y-132169269D01*
X158001709Y-132169269D01*
X158182349Y-132133337D01*
X158352509Y-132062855D01*
X158505648Y-131960531D01*
X158635882Y-131830297D01*
X158738206Y-131677158D01*
X158808688Y-131506998D01*
X158844620Y-131326358D01*
X158844620Y-131142180D01*
X158808688Y-130961540D01*
X158738206Y-130791380D01*
X158643550Y-130649717D01*
X158648621Y-130644646D01*
X158750945Y-130491507D01*
X158821427Y-130321347D01*
X158857359Y-130140707D01*
X158857359Y-129956529D01*
X158821427Y-129775889D01*
X158750945Y-129605729D01*
X158679507Y-129498814D01*
X158692189Y-129486132D01*
X158794513Y-129332993D01*
X158864995Y-129162833D01*
X158900927Y-128982193D01*
X158900927Y-128798015D01*
X158864995Y-128617375D01*
X158794513Y-128447215D01*
X158720398Y-128336295D01*
X158732416Y-128324277D01*
X158834740Y-128171138D01*
X158905222Y-128000978D01*
X158941154Y-127820338D01*
X158941154Y-127636160D01*
X158905222Y-127455520D01*
X158834740Y-127285360D01*
X158732416Y-127132221D01*
X158718629Y-127118434D01*
X158723642Y-127113421D01*
X158825966Y-126960282D01*
X158896448Y-126790122D01*
X158932380Y-126609482D01*
X158932380Y-126425304D01*
X158896448Y-126244664D01*
X158825966Y-126074504D01*
X158723642Y-125921365D01*
X158593408Y-125791131D01*
X158440269Y-125688807D01*
X158270109Y-125618325D01*
X158104896Y-125585462D01*
X157258221Y-124738787D01*
X157296271Y-124754548D01*
X157476911Y-124790480D01*
X157661089Y-124790480D01*
X157841729Y-124754548D01*
X158011889Y-124684066D01*
X158165028Y-124581742D01*
X158295262Y-124451508D01*
X158397586Y-124298369D01*
X158468068Y-124128209D01*
X158504000Y-123947569D01*
X158504000Y-123763391D01*
X158468068Y-123582751D01*
X158397586Y-123412591D01*
X158295262Y-123259452D01*
X158165028Y-123129218D01*
X158011889Y-123026894D01*
X157878299Y-122971560D01*
X158057529Y-122935908D01*
X158227689Y-122865426D01*
X158380828Y-122763102D01*
X158511062Y-122632868D01*
X158613386Y-122479729D01*
X158683868Y-122309569D01*
X158719800Y-122128929D01*
X158719800Y-121944751D01*
X158683868Y-121764111D01*
X158613386Y-121593951D01*
X158511062Y-121440812D01*
X158380828Y-121310578D01*
X158304653Y-121259680D01*
X158364849Y-121234746D01*
X158517988Y-121132422D01*
X158648222Y-121002188D01*
X158750546Y-120849049D01*
X158821028Y-120678889D01*
X158856960Y-120498249D01*
X158856960Y-120314071D01*
X158821028Y-120133431D01*
X158750546Y-119963271D01*
X158648222Y-119810132D01*
X158641433Y-119803343D01*
X158740386Y-119655249D01*
X158810868Y-119485089D01*
X158846800Y-119304449D01*
X158846800Y-119120271D01*
X158810868Y-118939631D01*
X158740386Y-118769471D01*
X158700441Y-118709689D01*
X158800622Y-118609508D01*
X158902946Y-118456369D01*
X158952387Y-118337006D01*
X160338025Y-119722644D01*
X160409622Y-119809885D01*
X160437668Y-119832902D01*
X167484351Y-126879586D01*
X167484350Y-132612659D01*
X167480794Y-132648764D01*
X167494985Y-132792849D01*
X167503379Y-132820520D01*
X167537013Y-132931396D01*
X167605263Y-133059083D01*
X167647581Y-133110647D01*
X167647580Y-134011843D01*
X167553994Y-134151905D01*
X167483512Y-134322065D01*
X167447580Y-134502705D01*
X167447580Y-134686883D01*
X167483512Y-134867523D01*
X167553994Y-135037683D01*
X167656318Y-135190822D01*
X167786552Y-135321056D01*
X167939691Y-135423380D01*
X168109851Y-135493862D01*
X168279060Y-135527520D01*
X168279060Y-135590929D01*
X168314992Y-135771569D01*
X168385474Y-135941729D01*
X168487798Y-136094868D01*
X168618032Y-136225102D01*
X168771171Y-136327426D01*
X168941331Y-136397908D01*
X169121971Y-136433840D01*
X169306149Y-136433840D01*
X169486789Y-136397908D01*
X169656949Y-136327426D01*
X169810088Y-136225102D01*
X169940322Y-136094868D01*
X170042646Y-135941729D01*
X170090030Y-135827333D01*
X170097434Y-135845209D01*
X170199758Y-135998348D01*
X170329992Y-136128582D01*
X170483131Y-136230906D01*
X170653291Y-136301388D01*
X170833931Y-136337320D01*
X171018109Y-136337320D01*
X171198749Y-136301388D01*
X171368909Y-136230906D01*
X171522048Y-136128582D01*
X171652282Y-135998348D01*
X171754606Y-135845209D01*
X171783385Y-135775731D01*
X171797434Y-135809649D01*
X171899758Y-135962788D01*
X172029992Y-136093022D01*
X172183131Y-136195346D01*
X172353291Y-136265828D01*
X172533931Y-136301760D01*
X172718109Y-136301760D01*
X172898749Y-136265828D01*
X173068909Y-136195346D01*
X173222048Y-136093022D01*
X173352282Y-135962788D01*
X173454606Y-135809649D01*
X173525088Y-135639489D01*
X173561020Y-135458849D01*
X173561020Y-135274671D01*
X173525088Y-135094031D01*
X173454606Y-134923871D01*
X173361020Y-134783809D01*
X173361020Y-133358326D01*
X173461031Y-133378220D01*
X173645209Y-133378220D01*
X173825849Y-133342288D01*
X173996009Y-133271806D01*
X174149148Y-133169482D01*
X174279382Y-133039248D01*
X174381706Y-132886109D01*
X174452188Y-132715949D01*
X174488120Y-132535309D01*
X174488120Y-132351131D01*
X174452188Y-132170491D01*
X174381706Y-132000331D01*
X174288120Y-131860269D01*
X174288120Y-126418874D01*
X174291675Y-126382779D01*
X174288120Y-126346684D01*
X174288120Y-126346675D01*
X174277485Y-126238695D01*
X174235457Y-126100147D01*
X174167207Y-125972460D01*
X174075358Y-125860542D01*
X174047313Y-125837526D01*
X162726040Y-114516254D01*
X162726040Y-108092240D01*
X163624844Y-108092240D01*
X163628401Y-108128355D01*
X163628400Y-113766055D01*
X163624844Y-113802160D01*
X163639035Y-113946245D01*
X163650984Y-113985634D01*
X163681063Y-114084792D01*
X163749313Y-114212479D01*
X163841162Y-114324397D01*
X163869208Y-114347414D01*
X166850906Y-117329113D01*
X166873922Y-117357158D01*
X166985840Y-117449007D01*
X167113527Y-117517257D01*
X167252075Y-117559285D01*
X167360055Y-117569920D01*
X167360064Y-117569920D01*
X167396159Y-117573475D01*
X167432254Y-117569920D01*
X170829657Y-117569920D01*
X170970817Y-117664240D01*
X171140977Y-117734722D01*
X171321617Y-117770654D01*
X171505795Y-117770654D01*
X171686435Y-117734722D01*
X171856595Y-117664240D01*
X172009734Y-117561916D01*
X172139968Y-117431682D01*
X172242292Y-117278543D01*
X172312774Y-117108383D01*
X172348706Y-116927743D01*
X172348706Y-116743565D01*
X172312774Y-116562925D01*
X172242292Y-116392765D01*
X172139968Y-116239626D01*
X172009734Y-116109392D01*
X171856595Y-116007068D01*
X171686435Y-115936586D01*
X171543412Y-115908137D01*
X171562040Y-115814489D01*
X171562040Y-115630311D01*
X171526108Y-115449671D01*
X171455626Y-115279511D01*
X171353302Y-115126372D01*
X171223068Y-114996138D01*
X171069929Y-114893814D01*
X170899769Y-114823332D01*
X170719129Y-114787400D01*
X170534951Y-114787400D01*
X170354311Y-114823332D01*
X170184151Y-114893814D01*
X170044089Y-114987400D01*
X168030807Y-114987400D01*
X166038200Y-112994794D01*
X166038200Y-109346646D01*
X167779347Y-107605500D01*
X168862752Y-107605500D01*
X168982863Y-107785259D01*
X169182741Y-107985137D01*
X169417773Y-108142180D01*
X169678926Y-108250353D01*
X169956165Y-108305500D01*
X170238835Y-108305500D01*
X170516074Y-108250353D01*
X170777227Y-108142180D01*
X171012259Y-107985137D01*
X171212137Y-107785259D01*
X171334136Y-107602673D01*
X171482863Y-107825259D01*
X171682741Y-108025137D01*
X171917773Y-108182180D01*
X172178926Y-108290353D01*
X172456165Y-108345500D01*
X172738835Y-108345500D01*
X173016074Y-108290353D01*
X173277227Y-108182180D01*
X173512259Y-108025137D01*
X173712137Y-107825259D01*
X173847500Y-107622673D01*
X173982863Y-107825259D01*
X174182741Y-108025137D01*
X174417773Y-108182180D01*
X174678926Y-108290353D01*
X174956165Y-108345500D01*
X175238835Y-108345500D01*
X175516074Y-108290353D01*
X175777227Y-108182180D01*
X176012259Y-108025137D01*
X176212137Y-107825259D01*
X176347500Y-107622673D01*
X176482863Y-107825259D01*
X176682741Y-108025137D01*
X176917773Y-108182180D01*
X177178926Y-108290353D01*
X177456165Y-108345500D01*
X177738835Y-108345500D01*
X178016074Y-108290353D01*
X178277227Y-108182180D01*
X178512259Y-108025137D01*
X178712137Y-107825259D01*
X178847500Y-107622673D01*
X178982863Y-107825259D01*
X179182741Y-108025137D01*
X179417773Y-108182180D01*
X179678926Y-108290353D01*
X179956165Y-108345500D01*
X180238835Y-108345500D01*
X180516074Y-108290353D01*
X180777227Y-108182180D01*
X181012259Y-108025137D01*
X181212137Y-107825259D01*
X181347500Y-107622673D01*
X181482863Y-107825259D01*
X181682741Y-108025137D01*
X181917773Y-108182180D01*
X182178926Y-108290353D01*
X182456165Y-108345500D01*
X182738835Y-108345500D01*
X182950876Y-108303322D01*
X184940866Y-110293313D01*
X184963882Y-110321358D01*
X185075800Y-110413207D01*
X185203487Y-110481457D01*
X185296351Y-110509627D01*
X185342034Y-110523485D01*
X185356252Y-110524885D01*
X185450015Y-110534120D01*
X185450022Y-110534120D01*
X185486119Y-110537675D01*
X185522216Y-110534120D01*
X185920541Y-110534120D01*
X185667773Y-110638820D01*
X185432741Y-110795863D01*
X185232863Y-110995741D01*
X185097500Y-111198327D01*
X184962137Y-110995741D01*
X184762259Y-110795863D01*
X184527227Y-110638820D01*
X184266074Y-110530647D01*
X183988835Y-110475500D01*
X183706165Y-110475500D01*
X183428926Y-110530647D01*
X183167773Y-110638820D01*
X182932741Y-110795863D01*
X182732863Y-110995741D01*
X182584136Y-111218327D01*
X182462137Y-111035741D01*
X182262259Y-110835863D01*
X182027227Y-110678820D01*
X181766074Y-110570647D01*
X181488835Y-110515500D01*
X181206165Y-110515500D01*
X180928926Y-110570647D01*
X180667773Y-110678820D01*
X180432741Y-110835863D01*
X180232863Y-111035741D01*
X180097500Y-111238327D01*
X179962137Y-111035741D01*
X179762259Y-110835863D01*
X179527227Y-110678820D01*
X179266074Y-110570647D01*
X178988835Y-110515500D01*
X178706165Y-110515500D01*
X178428926Y-110570647D01*
X178167773Y-110678820D01*
X177932741Y-110835863D01*
X177732863Y-111035741D01*
X177597500Y-111238327D01*
X177462137Y-111035741D01*
X177262259Y-110835863D01*
X177027227Y-110678820D01*
X176766074Y-110570647D01*
X176488835Y-110515500D01*
X176206165Y-110515500D01*
X175928926Y-110570647D01*
X175667773Y-110678820D01*
X175432741Y-110835863D01*
X175232863Y-111035741D01*
X175097500Y-111238327D01*
X174962137Y-111035741D01*
X174762259Y-110835863D01*
X174527227Y-110678820D01*
X174266074Y-110570647D01*
X173988835Y-110515500D01*
X173706165Y-110515500D01*
X173428926Y-110570647D01*
X173167773Y-110678820D01*
X172932741Y-110835863D01*
X172732863Y-111035741D01*
X172597500Y-111238327D01*
X172462137Y-111035741D01*
X172262259Y-110835863D01*
X172027227Y-110678820D01*
X171766074Y-110570647D01*
X171488835Y-110515500D01*
X171206165Y-110515500D01*
X170928926Y-110570647D01*
X170667773Y-110678820D01*
X170432741Y-110835863D01*
X170232863Y-111035741D01*
X170097500Y-111238327D01*
X169962137Y-111035741D01*
X169762259Y-110835863D01*
X169527227Y-110678820D01*
X169266074Y-110570647D01*
X168988835Y-110515500D01*
X168706165Y-110515500D01*
X168428926Y-110570647D01*
X168167773Y-110678820D01*
X167932741Y-110835863D01*
X167732863Y-111035741D01*
X167575820Y-111270773D01*
X167467647Y-111531926D01*
X167412500Y-111809165D01*
X167412500Y-112091835D01*
X167467647Y-112369074D01*
X167575820Y-112630227D01*
X167732863Y-112865259D01*
X167932741Y-113065137D01*
X168167773Y-113222180D01*
X168428926Y-113330353D01*
X168706165Y-113385500D01*
X168988835Y-113385500D01*
X169266074Y-113330353D01*
X169527227Y-113222180D01*
X169762259Y-113065137D01*
X169962137Y-112865259D01*
X170097500Y-112662673D01*
X170232863Y-112865259D01*
X170432741Y-113065137D01*
X170667773Y-113222180D01*
X170928926Y-113330353D01*
X171206165Y-113385500D01*
X171488835Y-113385500D01*
X171766074Y-113330353D01*
X172027227Y-113222180D01*
X172262259Y-113065137D01*
X172462137Y-112865259D01*
X172597500Y-112662673D01*
X172732863Y-112865259D01*
X172932741Y-113065137D01*
X173167773Y-113222180D01*
X173428926Y-113330353D01*
X173706165Y-113385500D01*
X173988835Y-113385500D01*
X174266074Y-113330353D01*
X174527227Y-113222180D01*
X174762259Y-113065137D01*
X174962137Y-112865259D01*
X175097500Y-112662673D01*
X175232863Y-112865259D01*
X175432741Y-113065137D01*
X175667773Y-113222180D01*
X175928926Y-113330353D01*
X176206165Y-113385500D01*
X176488835Y-113385500D01*
X176766074Y-113330353D01*
X177027227Y-113222180D01*
X177262259Y-113065137D01*
X177462137Y-112865259D01*
X177597500Y-112662673D01*
X177732863Y-112865259D01*
X177932741Y-113065137D01*
X178167773Y-113222180D01*
X178428926Y-113330353D01*
X178706165Y-113385500D01*
X178988835Y-113385500D01*
X179266074Y-113330353D01*
X179527227Y-113222180D01*
X179762259Y-113065137D01*
X179962137Y-112865259D01*
X180097500Y-112662673D01*
X180232863Y-112865259D01*
X180432741Y-113065137D01*
X180667773Y-113222180D01*
X180928926Y-113330353D01*
X181206165Y-113385500D01*
X181488835Y-113385500D01*
X181766074Y-113330353D01*
X182027227Y-113222180D01*
X182262259Y-113065137D01*
X182462137Y-112865259D01*
X182610864Y-112642673D01*
X182732863Y-112825259D01*
X182932741Y-113025137D01*
X183167773Y-113182180D01*
X183428926Y-113290353D01*
X183706165Y-113345500D01*
X183988835Y-113345500D01*
X184266074Y-113290353D01*
X184527227Y-113182180D01*
X184762259Y-113025137D01*
X184962137Y-112825259D01*
X185097500Y-112622673D01*
X185232863Y-112825259D01*
X185432741Y-113025137D01*
X185667773Y-113182180D01*
X185928926Y-113290353D01*
X186206165Y-113345500D01*
X186488835Y-113345500D01*
X186766074Y-113290353D01*
X187027227Y-113182180D01*
X187262259Y-113025137D01*
X187462137Y-112825259D01*
X187597500Y-112622673D01*
X187732863Y-112825259D01*
X187932741Y-113025137D01*
X188167773Y-113182180D01*
X188428926Y-113290353D01*
X188706165Y-113345500D01*
X188988835Y-113345500D01*
X189266074Y-113290353D01*
X189527227Y-113182180D01*
X189762259Y-113025137D01*
X189962137Y-112825259D01*
X190097500Y-112622673D01*
X190232863Y-112825259D01*
X190432741Y-113025137D01*
X190667773Y-113182180D01*
X190928926Y-113290353D01*
X191206165Y-113345500D01*
X191488835Y-113345500D01*
X191766074Y-113290353D01*
X192027227Y-113182180D01*
X192262259Y-113025137D01*
X192462137Y-112825259D01*
X192597500Y-112622673D01*
X192732863Y-112825259D01*
X192932741Y-113025137D01*
X193167773Y-113182180D01*
X193428926Y-113290353D01*
X193706165Y-113345500D01*
X193988835Y-113345500D01*
X194266074Y-113290353D01*
X194527227Y-113182180D01*
X194762259Y-113025137D01*
X194962137Y-112825259D01*
X195097500Y-112622673D01*
X195232863Y-112825259D01*
X195432741Y-113025137D01*
X195667773Y-113182180D01*
X195928926Y-113290353D01*
X196206165Y-113345500D01*
X196488835Y-113345500D01*
X196766074Y-113290353D01*
X197027227Y-113182180D01*
X197262259Y-113025137D01*
X197462137Y-112825259D01*
X197597500Y-112622673D01*
X197732863Y-112825259D01*
X197932741Y-113025137D01*
X198167773Y-113182180D01*
X198428926Y-113290353D01*
X198706165Y-113345500D01*
X198988835Y-113345500D01*
X199266074Y-113290353D01*
X199527227Y-113182180D01*
X199762259Y-113025137D01*
X199962137Y-112825259D01*
X200097500Y-112622673D01*
X200232863Y-112825259D01*
X200432741Y-113025137D01*
X200667773Y-113182180D01*
X200928926Y-113290353D01*
X201206165Y-113345500D01*
X201488835Y-113345500D01*
X201766074Y-113290353D01*
X202027227Y-113182180D01*
X202262259Y-113025137D01*
X202462137Y-112825259D01*
X202597500Y-112622673D01*
X202732863Y-112825259D01*
X202932741Y-113025137D01*
X203167773Y-113182180D01*
X203428926Y-113290353D01*
X203706165Y-113345500D01*
X203988835Y-113345500D01*
X204266074Y-113290353D01*
X204527227Y-113182180D01*
X204762259Y-113025137D01*
X204962137Y-112825259D01*
X205119180Y-112590227D01*
X205227353Y-112329074D01*
X205282500Y-112051835D01*
X205282500Y-111769165D01*
X205227353Y-111491926D01*
X205128467Y-111253193D01*
X205650161Y-111774888D01*
X205650160Y-114325753D01*
X189589846Y-130386068D01*
X189424631Y-130418932D01*
X189254471Y-130489414D01*
X189101332Y-130591738D01*
X188971098Y-130721972D01*
X188868774Y-130875111D01*
X188798292Y-131045271D01*
X188762360Y-131225911D01*
X188762360Y-131410089D01*
X188798292Y-131590729D01*
X188868774Y-131760889D01*
X188971098Y-131914028D01*
X189101332Y-132044262D01*
X189254471Y-132146586D01*
X189424631Y-132217068D01*
X189605271Y-132253000D01*
X189789449Y-132253000D01*
X189970089Y-132217068D01*
X190140249Y-132146586D01*
X190293388Y-132044262D01*
X190423622Y-131914028D01*
X190525946Y-131760889D01*
X190596428Y-131590729D01*
X190629292Y-131425514D01*
X206478200Y-115576607D01*
X206478200Y-116281553D01*
X192068886Y-130690868D01*
X191903671Y-130723732D01*
X191733511Y-130794214D01*
X191580372Y-130896538D01*
X191450138Y-131026772D01*
X191347814Y-131179911D01*
X191277332Y-131350071D01*
X191241400Y-131530711D01*
X191241400Y-131714889D01*
X191277332Y-131895529D01*
X191347814Y-132065689D01*
X191450138Y-132218828D01*
X191580372Y-132349062D01*
X191733511Y-132451386D01*
X191903671Y-132521868D01*
X192084311Y-132557800D01*
X192268489Y-132557800D01*
X192449129Y-132521868D01*
X192619289Y-132451386D01*
X192772428Y-132349062D01*
X192902662Y-132218828D01*
X193004986Y-132065689D01*
X193075468Y-131895529D01*
X193108332Y-131730314D01*
X207407840Y-117430807D01*
X207407840Y-117947793D01*
X191657406Y-133698228D01*
X191492191Y-133731092D01*
X191322031Y-133801574D01*
X191168892Y-133903898D01*
X191038658Y-134034132D01*
X190936334Y-134187271D01*
X190865852Y-134357431D01*
X190829920Y-134538071D01*
X190829920Y-134722249D01*
X190865852Y-134902889D01*
X190936334Y-135073049D01*
X191038658Y-135226188D01*
X191168892Y-135356422D01*
X191322031Y-135458746D01*
X191492191Y-135529228D01*
X191672831Y-135565160D01*
X191857009Y-135565160D01*
X192037649Y-135529228D01*
X192207809Y-135458746D01*
X192360948Y-135356422D01*
X192491182Y-135226188D01*
X192593506Y-135073049D01*
X192663988Y-134902889D01*
X192696852Y-134737674D01*
X208156389Y-119278138D01*
X208155089Y-119898024D01*
X190995554Y-137057560D01*
X185850551Y-137057560D01*
X185710489Y-136963974D01*
X185540329Y-136893492D01*
X185359689Y-136857560D01*
X185175511Y-136857560D01*
X184994871Y-136893492D01*
X184824711Y-136963974D01*
X184671572Y-137066298D01*
X184541338Y-137196532D01*
X184439014Y-137349671D01*
X184368532Y-137519831D01*
X184338818Y-137669209D01*
X184257329Y-137653000D01*
X184073151Y-137653000D01*
X183892511Y-137688932D01*
X183722351Y-137759414D01*
X183569212Y-137861738D01*
X183438978Y-137991972D01*
X183336654Y-138145111D01*
X183266172Y-138315271D01*
X183230240Y-138495911D01*
X183230240Y-138680089D01*
X183266172Y-138860729D01*
X183336654Y-139030889D01*
X183438978Y-139184028D01*
X183569212Y-139314262D01*
X183722351Y-139416586D01*
X183892511Y-139487068D01*
X184073151Y-139523000D01*
X184257329Y-139523000D01*
X184271640Y-139520153D01*
X184271640Y-139562560D01*
X184184911Y-139562560D01*
X184004271Y-139598492D01*
X183834111Y-139668974D01*
X183680972Y-139771298D01*
X183550738Y-139901532D01*
X183448414Y-140054671D01*
X183377932Y-140224831D01*
X183342000Y-140405471D01*
X183342000Y-140589649D01*
X183377932Y-140770289D01*
X183448414Y-140940449D01*
X183545868Y-141086300D01*
X174266295Y-141086300D01*
X174163649Y-141017714D01*
X173993489Y-140947232D01*
X173812849Y-140911300D01*
X173628671Y-140911300D01*
X173448031Y-140947232D01*
X173277871Y-141017714D01*
X173124732Y-141120038D01*
X172994498Y-141250272D01*
X172892174Y-141403411D01*
X172821692Y-141573571D01*
X172785760Y-141754211D01*
X172785760Y-141938389D01*
X172821692Y-142119029D01*
X172892174Y-142289189D01*
X172994498Y-142442328D01*
X173124732Y-142572562D01*
X173277871Y-142674886D01*
X173448031Y-142745368D01*
X173628671Y-142781300D01*
X173812849Y-142781300D01*
X173993489Y-142745368D01*
X174163649Y-142674886D01*
X174266295Y-142606300D01*
X198548159Y-142606300D01*
X198585481Y-142609976D01*
X198622803Y-142606300D01*
X198622814Y-142606300D01*
X198734467Y-142595303D01*
X198877728Y-142551846D01*
X199009757Y-142481274D01*
X199125482Y-142386301D01*
X199149284Y-142357298D01*
X199936563Y-141570020D01*
X199965561Y-141546222D01*
X199991892Y-141514138D01*
X200060534Y-141430498D01*
X200131106Y-141298468D01*
X200150020Y-141236116D01*
X200174563Y-141155207D01*
X200181473Y-141085049D01*
X200372192Y-140957615D01*
X200579035Y-140750772D01*
X200741550Y-140507551D01*
X200853492Y-140237298D01*
X200910560Y-139950400D01*
X200910560Y-139657880D01*
X200853492Y-139370982D01*
X200741550Y-139100729D01*
X200579035Y-138857508D01*
X200372192Y-138650665D01*
X200128971Y-138488150D01*
X199858718Y-138376208D01*
X199571820Y-138319140D01*
X199279300Y-138319140D01*
X198992402Y-138376208D01*
X198722149Y-138488150D01*
X198478928Y-138650665D01*
X198347073Y-138782520D01*
X198325062Y-138709960D01*
X198266097Y-138599646D01*
X198186745Y-138502955D01*
X198090054Y-138423603D01*
X197979740Y-138364638D01*
X197860042Y-138328328D01*
X197735560Y-138316068D01*
X196035560Y-138316068D01*
X195911078Y-138328328D01*
X195791380Y-138364638D01*
X195681066Y-138423603D01*
X195584375Y-138502955D01*
X195505023Y-138599646D01*
X195446058Y-138709960D01*
X195409748Y-138829658D01*
X195397488Y-138954140D01*
X195397488Y-140654140D01*
X195409748Y-140778622D01*
X195446058Y-140898320D01*
X195505023Y-141008634D01*
X195568762Y-141086300D01*
X192491677Y-141086300D01*
X192572710Y-141019798D01*
X192595731Y-140991748D01*
X194893889Y-138693590D01*
X194893894Y-138693584D01*
X198251247Y-135336231D01*
X204373480Y-135336231D01*
X204373480Y-135661449D01*
X204436927Y-135980419D01*
X204561383Y-136280882D01*
X204742065Y-136551291D01*
X204972029Y-136781255D01*
X205242438Y-136961937D01*
X205542901Y-137086393D01*
X205861871Y-137149840D01*
X206187089Y-137149840D01*
X206506059Y-137086393D01*
X206806522Y-136961937D01*
X207076931Y-136781255D01*
X207306895Y-136551291D01*
X207487577Y-136280882D01*
X207612033Y-135980419D01*
X207675480Y-135661449D01*
X207675480Y-135336231D01*
X207612033Y-135017261D01*
X207487577Y-134716798D01*
X207306895Y-134446389D01*
X207076931Y-134216425D01*
X206806522Y-134035743D01*
X206506059Y-133911287D01*
X206187089Y-133847840D01*
X205861871Y-133847840D01*
X205542901Y-133911287D01*
X205242438Y-134035743D01*
X204972029Y-134216425D01*
X204742065Y-134446389D01*
X204561383Y-134716798D01*
X204436927Y-135017261D01*
X204373480Y-135336231D01*
X198251247Y-135336231D01*
X201442009Y-132145470D01*
X201442014Y-132145464D01*
X203331247Y-130256231D01*
X204373480Y-130256231D01*
X204373480Y-130581449D01*
X204436927Y-130900419D01*
X204561383Y-131200882D01*
X204742065Y-131471291D01*
X204972029Y-131701255D01*
X205242438Y-131881937D01*
X205542901Y-132006393D01*
X205861871Y-132069840D01*
X206187089Y-132069840D01*
X206506059Y-132006393D01*
X206806522Y-131881937D01*
X207076931Y-131701255D01*
X207306895Y-131471291D01*
X207487577Y-131200882D01*
X207612033Y-130900419D01*
X207675480Y-130581449D01*
X207675480Y-130256231D01*
X207612033Y-129937261D01*
X207487577Y-129636798D01*
X207306895Y-129366389D01*
X207076931Y-129136425D01*
X206806522Y-128955743D01*
X206506059Y-128831287D01*
X206187089Y-128767840D01*
X205861871Y-128767840D01*
X205542901Y-128831287D01*
X205242438Y-128955743D01*
X204972029Y-129136425D01*
X204742065Y-129366389D01*
X204561383Y-129636798D01*
X204436927Y-129937261D01*
X204373480Y-130256231D01*
X203331247Y-130256231D01*
X207674311Y-125913167D01*
X207839525Y-125880304D01*
X208009685Y-125809822D01*
X208162824Y-125707498D01*
X208293058Y-125577264D01*
X208395382Y-125424125D01*
X208465864Y-125253965D01*
X208501796Y-125073325D01*
X208501796Y-124889147D01*
X208465864Y-124708507D01*
X208395382Y-124538347D01*
X208293058Y-124385208D01*
X208181978Y-124274128D01*
X210053134Y-122402973D01*
X210084996Y-122376025D01*
X210126676Y-122323675D01*
X210169166Y-122271901D01*
X210171757Y-122267053D01*
X210175177Y-122262758D01*
X210205843Y-122203283D01*
X210237416Y-122144214D01*
X210239011Y-122138955D01*
X210241528Y-122134074D01*
X210260007Y-122069743D01*
X210279444Y-122005666D01*
X210279982Y-122000199D01*
X210281499Y-121994919D01*
X210287076Y-121928175D01*
X210293635Y-121861581D01*
X210289545Y-121820057D01*
X210285011Y-121514020D01*
X210320481Y-105030333D01*
X210324115Y-104993439D01*
X210317100Y-104922217D01*
X210310233Y-104850915D01*
X210310002Y-104850148D01*
X210309924Y-104849354D01*
X210289128Y-104780798D01*
X210268503Y-104712277D01*
X210268129Y-104711573D01*
X210267896Y-104710806D01*
X210234039Y-104647464D01*
X210200528Y-104584443D01*
X210200024Y-104583826D01*
X210199646Y-104583119D01*
X210153987Y-104527483D01*
X210108920Y-104472328D01*
X210080321Y-104448754D01*
X207915938Y-102284372D01*
X207892918Y-102256322D01*
X207781000Y-102164473D01*
X207653313Y-102096223D01*
X207514765Y-102054195D01*
X207406785Y-102043560D01*
X207370680Y-102040004D01*
X207334575Y-102043560D01*
X196725545Y-102043560D01*
X196689440Y-102040004D01*
X196545355Y-102054195D01*
X196406806Y-102096223D01*
X196279120Y-102164473D01*
X196167202Y-102256322D01*
X196144186Y-102284368D01*
X195684711Y-102743843D01*
X195684706Y-102743847D01*
X192950876Y-105477678D01*
X192738835Y-105435500D01*
X192456165Y-105435500D01*
X192178926Y-105490647D01*
X191917773Y-105598820D01*
X191682741Y-105755863D01*
X191482863Y-105955741D01*
X191347500Y-106158327D01*
X191212137Y-105955741D01*
X191012259Y-105755863D01*
X190777227Y-105598820D01*
X190516074Y-105490647D01*
X190238835Y-105435500D01*
X189956165Y-105435500D01*
X189678926Y-105490647D01*
X189417773Y-105598820D01*
X189182741Y-105755863D01*
X188982863Y-105955741D01*
X188834136Y-106178327D01*
X188712137Y-105995741D01*
X188512259Y-105795863D01*
X188277227Y-105638820D01*
X188016074Y-105530647D01*
X187738835Y-105475500D01*
X187456165Y-105475500D01*
X187178926Y-105530647D01*
X186917773Y-105638820D01*
X186682741Y-105795863D01*
X186482863Y-105995741D01*
X186347500Y-106198327D01*
X186212137Y-105995741D01*
X186012259Y-105795863D01*
X185777227Y-105638820D01*
X185516074Y-105530647D01*
X185238835Y-105475500D01*
X184956165Y-105475500D01*
X184678926Y-105530647D01*
X184417773Y-105638820D01*
X184182741Y-105795863D01*
X183982863Y-105995741D01*
X183847500Y-106198327D01*
X183712137Y-105995741D01*
X183512259Y-105795863D01*
X183277227Y-105638820D01*
X183016074Y-105530647D01*
X182738835Y-105475500D01*
X182456165Y-105475500D01*
X182178926Y-105530647D01*
X181917773Y-105638820D01*
X181682741Y-105795863D01*
X181482863Y-105995741D01*
X181347500Y-106198327D01*
X181212137Y-105995741D01*
X181012259Y-105795863D01*
X180777227Y-105638820D01*
X180516074Y-105530647D01*
X180238835Y-105475500D01*
X179956165Y-105475500D01*
X179678926Y-105530647D01*
X179417773Y-105638820D01*
X179182741Y-105795863D01*
X178982863Y-105995741D01*
X178847500Y-106198327D01*
X178712137Y-105995741D01*
X178512259Y-105795863D01*
X178277227Y-105638820D01*
X178016074Y-105530647D01*
X177738835Y-105475500D01*
X177456165Y-105475500D01*
X177178926Y-105530647D01*
X176917773Y-105638820D01*
X176682741Y-105795863D01*
X176482863Y-105995741D01*
X176347500Y-106198327D01*
X176212137Y-105995741D01*
X176012259Y-105795863D01*
X175777227Y-105638820D01*
X175516074Y-105530647D01*
X175238835Y-105475500D01*
X174956165Y-105475500D01*
X174678926Y-105530647D01*
X174417773Y-105638820D01*
X174182741Y-105795863D01*
X173982863Y-105995741D01*
X173847500Y-106198327D01*
X173712137Y-105995741D01*
X173512259Y-105795863D01*
X173277227Y-105638820D01*
X173016074Y-105530647D01*
X172738835Y-105475500D01*
X172456165Y-105475500D01*
X172244125Y-105517678D01*
X171195218Y-104468772D01*
X171172198Y-104440722D01*
X171060280Y-104348873D01*
X170932593Y-104280623D01*
X170794045Y-104238595D01*
X170686065Y-104227960D01*
X170649960Y-104224404D01*
X170613855Y-104227960D01*
X167528774Y-104227960D01*
X167492679Y-104224405D01*
X167456584Y-104227960D01*
X167456575Y-104227960D01*
X167348595Y-104238595D01*
X167210047Y-104280623D01*
X167082360Y-104348873D01*
X166970442Y-104440722D01*
X166947426Y-104468767D01*
X163869208Y-107546986D01*
X163841163Y-107570002D01*
X163749314Y-107681920D01*
X163725786Y-107725938D01*
X163681064Y-107809607D01*
X163639035Y-107948155D01*
X163624844Y-108092240D01*
X162726040Y-108092240D01*
X162726040Y-107528896D01*
X162729595Y-107492799D01*
X162726040Y-107456702D01*
X162726040Y-107456695D01*
X162715405Y-107348715D01*
X162713662Y-107342967D01*
X162700681Y-107300178D01*
X162673377Y-107210167D01*
X162605127Y-107082480D01*
X162513278Y-106970562D01*
X162485233Y-106947546D01*
X158867606Y-103329920D01*
X158858627Y-103313121D01*
X158766778Y-103201202D01*
X158738733Y-103178186D01*
X158119228Y-102558682D01*
X158096217Y-102530643D01*
X158068178Y-102507632D01*
X158068173Y-102507627D01*
X157984299Y-102438794D01*
X157856613Y-102370544D01*
X157718065Y-102328515D01*
X157573980Y-102314324D01*
X157429895Y-102328515D01*
X157347730Y-102353440D01*
X141329665Y-102353440D01*
X141293560Y-102349884D01*
X141149474Y-102364075D01*
X141107446Y-102376824D01*
X141010927Y-102406103D01*
X140883240Y-102474353D01*
X140771322Y-102566202D01*
X140748306Y-102594247D01*
X137951876Y-105390678D01*
X137739835Y-105348500D01*
X137457165Y-105348500D01*
X137179926Y-105403647D01*
X136918773Y-105511820D01*
X136683741Y-105668863D01*
X136483863Y-105868741D01*
X136348500Y-106071327D01*
X136213137Y-105868741D01*
X136013259Y-105668863D01*
X135778227Y-105511820D01*
X135517074Y-105403647D01*
X135239835Y-105348500D01*
X134957165Y-105348500D01*
X134679926Y-105403647D01*
X134418773Y-105511820D01*
X134183741Y-105668863D01*
X133983863Y-105868741D01*
X133848500Y-106071327D01*
X133713137Y-105868741D01*
X133513259Y-105668863D01*
X133278227Y-105511820D01*
X133017074Y-105403647D01*
X132739835Y-105348500D01*
X132457165Y-105348500D01*
X132179926Y-105403647D01*
X131918773Y-105511820D01*
X131683741Y-105668863D01*
X131483863Y-105868741D01*
X131348500Y-106071327D01*
X131213137Y-105868741D01*
X131013259Y-105668863D01*
X130778227Y-105511820D01*
X130517074Y-105403647D01*
X130239835Y-105348500D01*
X129957165Y-105348500D01*
X129679926Y-105403647D01*
X129418773Y-105511820D01*
X129183741Y-105668863D01*
X128983863Y-105868741D01*
X128848500Y-106071327D01*
X128713137Y-105868741D01*
X128513259Y-105668863D01*
X128278227Y-105511820D01*
X128017074Y-105403647D01*
X127739835Y-105348500D01*
X127457165Y-105348500D01*
X127179926Y-105403647D01*
X126918773Y-105511820D01*
X126683741Y-105668863D01*
X126483863Y-105868741D01*
X126348500Y-106071327D01*
X126213137Y-105868741D01*
X126013259Y-105668863D01*
X125778227Y-105511820D01*
X125517074Y-105403647D01*
X125239835Y-105348500D01*
X124957165Y-105348500D01*
X124679926Y-105403647D01*
X124418773Y-105511820D01*
X124183741Y-105668863D01*
X123983863Y-105868741D01*
X123848500Y-106071327D01*
X123713137Y-105868741D01*
X123513259Y-105668863D01*
X123278227Y-105511820D01*
X123017074Y-105403647D01*
X122739835Y-105348500D01*
X122457165Y-105348500D01*
X122179926Y-105403647D01*
X121918773Y-105511820D01*
X121683741Y-105668863D01*
X121483863Y-105868741D01*
X121361864Y-106051327D01*
X121213137Y-105828741D01*
X121013259Y-105628863D01*
X120778227Y-105471820D01*
X120517074Y-105363647D01*
X120239835Y-105308500D01*
X119957165Y-105308500D01*
X119679926Y-105363647D01*
X119418773Y-105471820D01*
X119183741Y-105628863D01*
X118983863Y-105828741D01*
X118826820Y-106063773D01*
X118718647Y-106324926D01*
X118663500Y-106602165D01*
X118663500Y-106884835D01*
X118718647Y-107162074D01*
X118826820Y-107423227D01*
X118983863Y-107658259D01*
X119183741Y-107858137D01*
X119418773Y-108015180D01*
X119679926Y-108123353D01*
X119957165Y-108178500D01*
X120239835Y-108178500D01*
X120517074Y-108123353D01*
X120778227Y-108015180D01*
X121013259Y-107858137D01*
X121213137Y-107658259D01*
X121335136Y-107475673D01*
X121483863Y-107698259D01*
X121683741Y-107898137D01*
X121918773Y-108055180D01*
X122179926Y-108163353D01*
X122457165Y-108218500D01*
X122739835Y-108218500D01*
X123017074Y-108163353D01*
X123278227Y-108055180D01*
X123513259Y-107898137D01*
X123713137Y-107698259D01*
X123848500Y-107495673D01*
X123983863Y-107698259D01*
X124183741Y-107898137D01*
X124418773Y-108055180D01*
X124679926Y-108163353D01*
X124957165Y-108218500D01*
X125239835Y-108218500D01*
X125517074Y-108163353D01*
X125778227Y-108055180D01*
X126013259Y-107898137D01*
X126213137Y-107698259D01*
X126348500Y-107495673D01*
X126483863Y-107698259D01*
X126683741Y-107898137D01*
X126918773Y-108055180D01*
X127179926Y-108163353D01*
X127457165Y-108218500D01*
X127739835Y-108218500D01*
X128017074Y-108163353D01*
X128278227Y-108055180D01*
X128513259Y-107898137D01*
X128713137Y-107698259D01*
X128848500Y-107495673D01*
X128983863Y-107698259D01*
X129183741Y-107898137D01*
X129418773Y-108055180D01*
X129679926Y-108163353D01*
X129957165Y-108218500D01*
X130239835Y-108218500D01*
X130451876Y-108176322D01*
X132507446Y-110231893D01*
X132530462Y-110259938D01*
X132605301Y-110321357D01*
X132642380Y-110351787D01*
X132770066Y-110420037D01*
X132908615Y-110462065D01*
X133052700Y-110476256D01*
X133088805Y-110472700D01*
X133263217Y-110472700D01*
X133168773Y-110511820D01*
X132933741Y-110668863D01*
X132733863Y-110868741D01*
X132585136Y-111091327D01*
X132463137Y-110908741D01*
X132263259Y-110708863D01*
X132028227Y-110551820D01*
X131767074Y-110443647D01*
X131489835Y-110388500D01*
X131207165Y-110388500D01*
X130929926Y-110443647D01*
X130668773Y-110551820D01*
X130433741Y-110708863D01*
X130233863Y-110908741D01*
X130098500Y-111111327D01*
X129963137Y-110908741D01*
X129763259Y-110708863D01*
X129528227Y-110551820D01*
X129267074Y-110443647D01*
X128989835Y-110388500D01*
X128707165Y-110388500D01*
X128429926Y-110443647D01*
X128168773Y-110551820D01*
X127933741Y-110708863D01*
X127733863Y-110908741D01*
X127598500Y-111111327D01*
X127463137Y-110908741D01*
X127263259Y-110708863D01*
X127028227Y-110551820D01*
X126767074Y-110443647D01*
X126489835Y-110388500D01*
X126207165Y-110388500D01*
X125929926Y-110443647D01*
X125668773Y-110551820D01*
X125433741Y-110708863D01*
X125233863Y-110908741D01*
X125098500Y-111111327D01*
X124963137Y-110908741D01*
X124763259Y-110708863D01*
X124528227Y-110551820D01*
X124267074Y-110443647D01*
X123989835Y-110388500D01*
X123707165Y-110388500D01*
X123429926Y-110443647D01*
X123168773Y-110551820D01*
X122933741Y-110708863D01*
X122733863Y-110908741D01*
X122598500Y-111111327D01*
X122463137Y-110908741D01*
X122263259Y-110708863D01*
X122028227Y-110551820D01*
X121767074Y-110443647D01*
X121489835Y-110388500D01*
X121207165Y-110388500D01*
X120929926Y-110443647D01*
X120668773Y-110551820D01*
X120433741Y-110708863D01*
X120233863Y-110908741D01*
X120098500Y-111111327D01*
X119963137Y-110908741D01*
X119763259Y-110708863D01*
X119528227Y-110551820D01*
X119267074Y-110443647D01*
X118989835Y-110388500D01*
X118707165Y-110388500D01*
X118429926Y-110443647D01*
X118168773Y-110551820D01*
X117933741Y-110708863D01*
X117733863Y-110908741D01*
X117576820Y-111143773D01*
X117468647Y-111404926D01*
X117413500Y-111682165D01*
X113507520Y-111682165D01*
X113507520Y-102041914D01*
X210896200Y-102006446D01*
X210896200Y-149453600D01*
G37*
X210896200Y-149453600D02*
X173920937Y-149453600D01*
X174100169Y-149417948D01*
X174270329Y-149347466D01*
X174423468Y-149245142D01*
X174553702Y-149114908D01*
X174656026Y-148961769D01*
X174726508Y-148791609D01*
X174762440Y-148610969D01*
X174762440Y-148426791D01*
X174726508Y-148246151D01*
X174656026Y-148075991D01*
X174553702Y-147922852D01*
X174423468Y-147792618D01*
X174270329Y-147690294D01*
X174100169Y-147619812D01*
X173919529Y-147583880D01*
X173735351Y-147583880D01*
X173554711Y-147619812D01*
X173384551Y-147690294D01*
X173281905Y-147758880D01*
X171582533Y-147758880D01*
X171618589Y-147751708D01*
X171788749Y-147681226D01*
X171941888Y-147578902D01*
X172072122Y-147448668D01*
X172174446Y-147295529D01*
X172244928Y-147125369D01*
X172280860Y-146944729D01*
X172280860Y-146760551D01*
X172244928Y-146579911D01*
X172174446Y-146409751D01*
X172072122Y-146256612D01*
X171941888Y-146126378D01*
X171788749Y-146024054D01*
X171618589Y-145953572D01*
X171437949Y-145917640D01*
X171253771Y-145917640D01*
X171073131Y-145953572D01*
X170902971Y-146024054D01*
X170749832Y-146126378D01*
X170619598Y-146256612D01*
X170517274Y-146409751D01*
X170446792Y-146579911D01*
X170410860Y-146760551D01*
X170410860Y-146944729D01*
X170446792Y-147125369D01*
X170517274Y-147295529D01*
X170619598Y-147448668D01*
X170749832Y-147578902D01*
X170902971Y-147681226D01*
X171073131Y-147751708D01*
X171109187Y-147758880D01*
X158759321Y-147758880D01*
X158811889Y-147737106D01*
X158965028Y-147634782D01*
X159095262Y-147504548D01*
X159197586Y-147351409D01*
X159268068Y-147181249D01*
X159304000Y-147000609D01*
X159304000Y-146816431D01*
X159268068Y-146635791D01*
X159197586Y-146465631D01*
X159095262Y-146312492D01*
X158965028Y-146182258D01*
X158811889Y-146079934D01*
X158641729Y-146009452D01*
X158520649Y-145985367D01*
X152714884Y-140179603D01*
X152691081Y-140150599D01*
X152575356Y-140055626D01*
X152443327Y-139985054D01*
X152300066Y-139941597D01*
X152188413Y-139930600D01*
X152188402Y-139930600D01*
X152151080Y-139926924D01*
X152113758Y-139930600D01*
X134477602Y-139930600D01*
X129347500Y-134800499D01*
X129347500Y-132282043D01*
X129502259Y-132178637D01*
X129702137Y-131978759D01*
X129857500Y-131746241D01*
X130012863Y-131978759D01*
X130212741Y-132178637D01*
X130447773Y-132335680D01*
X130708926Y-132443853D01*
X130986165Y-132499000D01*
X131268835Y-132499000D01*
X131546074Y-132443853D01*
X131807227Y-132335680D01*
X132042259Y-132178637D01*
X132242137Y-131978759D01*
X132397500Y-131746241D01*
X132552863Y-131978759D01*
X132752741Y-132178637D01*
X132987773Y-132335680D01*
X133248926Y-132443853D01*
X133526165Y-132499000D01*
X133808835Y-132499000D01*
X134086074Y-132443853D01*
X134347227Y-132335680D01*
X134582259Y-132178637D01*
X134782137Y-131978759D01*
X134937500Y-131746241D01*
X135092863Y-131978759D01*
X135292741Y-132178637D01*
X135527773Y-132335680D01*
X135788926Y-132443853D01*
X136066165Y-132499000D01*
X136348835Y-132499000D01*
X136626074Y-132443853D01*
X136887227Y-132335680D01*
X137122259Y-132178637D01*
X137322137Y-131978759D01*
X137477500Y-131746241D01*
X137632863Y-131978759D01*
X137832741Y-132178637D01*
X138067773Y-132335680D01*
X138328926Y-132443853D01*
X138606165Y-132499000D01*
X138888835Y-132499000D01*
X139166074Y-132443853D01*
X139427227Y-132335680D01*
X139662259Y-132178637D01*
X139862137Y-131978759D01*
X140017500Y-131746241D01*
X140172863Y-131978759D01*
X140372741Y-132178637D01*
X140607773Y-132335680D01*
X140868926Y-132443853D01*
X141146165Y-132499000D01*
X141428835Y-132499000D01*
X141706074Y-132443853D01*
X141967227Y-132335680D01*
X142202259Y-132178637D01*
X142402137Y-131978759D01*
X142557500Y-131746241D01*
X142712863Y-131978759D01*
X142912741Y-132178637D01*
X143147773Y-132335680D01*
X143408926Y-132443853D01*
X143686165Y-132499000D01*
X143968835Y-132499000D01*
X144246074Y-132443853D01*
X144507227Y-132335680D01*
X144742259Y-132178637D01*
X144942137Y-131978759D01*
X145097500Y-131746241D01*
X145252863Y-131978759D01*
X145452741Y-132178637D01*
X145687773Y-132335680D01*
X145948926Y-132443853D01*
X146226165Y-132499000D01*
X146508835Y-132499000D01*
X146786074Y-132443853D01*
X147047227Y-132335680D01*
X147282259Y-132178637D01*
X147482137Y-131978759D01*
X147637500Y-131746241D01*
X147792863Y-131978759D01*
X147992741Y-132178637D01*
X148227773Y-132335680D01*
X148488926Y-132443853D01*
X148766165Y-132499000D01*
X149048835Y-132499000D01*
X149326074Y-132443853D01*
X149587227Y-132335680D01*
X149822259Y-132178637D01*
X150020857Y-131980039D01*
X150021688Y-131988482D01*
X150057998Y-132108180D01*
X150116963Y-132218494D01*
X150196315Y-132315185D01*
X150293006Y-132394537D01*
X150403320Y-132453502D01*
X150523018Y-132489812D01*
X150647500Y-132502072D01*
X152247500Y-132502072D01*
X152371982Y-132489812D01*
X152491680Y-132453502D01*
X152601994Y-132394537D01*
X152698685Y-132315185D01*
X152778037Y-132218494D01*
X152837002Y-132108180D01*
X152873312Y-131988482D01*
X152885572Y-131864000D01*
X152885572Y-130264000D01*
X152873312Y-130139518D01*
X152837002Y-130019820D01*
X152778037Y-129909506D01*
X152698685Y-129812815D01*
X152601994Y-129733463D01*
X152491680Y-129674498D01*
X152371982Y-129638188D01*
X152247500Y-129625928D01*
X150647500Y-129625928D01*
X150523018Y-129638188D01*
X150403320Y-129674498D01*
X150293006Y-129733463D01*
X150196315Y-129812815D01*
X150116963Y-129909506D01*
X150057998Y-130019820D01*
X150021688Y-130139518D01*
X150020857Y-130147961D01*
X149822259Y-129949363D01*
X149587227Y-129792320D01*
X149326074Y-129684147D01*
X149048835Y-129629000D01*
X148766165Y-129629000D01*
X148488926Y-129684147D01*
X148227773Y-129792320D01*
X147992741Y-129949363D01*
X147792863Y-130149241D01*
X147637500Y-130381759D01*
X147482137Y-130149241D01*
X147282259Y-129949363D01*
X147047227Y-129792320D01*
X146786074Y-129684147D01*
X146508835Y-129629000D01*
X146226165Y-129629000D01*
X145948926Y-129684147D01*
X145687773Y-129792320D01*
X145452741Y-129949363D01*
X145252863Y-130149241D01*
X145097500Y-130381759D01*
X144942137Y-130149241D01*
X144742259Y-129949363D01*
X144507227Y-129792320D01*
X144246074Y-129684147D01*
X143968835Y-129629000D01*
X143686165Y-129629000D01*
X143562593Y-129653580D01*
X139450000Y-125540988D01*
X139424628Y-125510072D01*
X139301289Y-125408851D01*
X139160573Y-125333637D01*
X139007888Y-125287320D01*
X138888891Y-125275600D01*
X138888888Y-125275600D01*
X138849100Y-125271681D01*
X138809312Y-125275600D01*
X129812585Y-125275600D01*
X129784769Y-125257014D01*
X129614609Y-125186532D01*
X129433969Y-125150600D01*
X129249791Y-125150600D01*
X129069151Y-125186532D01*
X128898991Y-125257014D01*
X128745852Y-125359338D01*
X128615618Y-125489572D01*
X128513294Y-125642711D01*
X128442812Y-125812871D01*
X128406880Y-125993511D01*
X128406880Y-126177689D01*
X128442812Y-126358329D01*
X128513294Y-126528489D01*
X128615618Y-126681628D01*
X128745852Y-126811862D01*
X128898991Y-126914186D01*
X129069151Y-126984668D01*
X129249791Y-127020600D01*
X129433969Y-127020600D01*
X129614609Y-126984668D01*
X129784769Y-126914186D01*
X129812585Y-126895600D01*
X138513588Y-126895600D01*
X141246987Y-129629000D01*
X141146165Y-129629000D01*
X140868926Y-129684147D01*
X140607773Y-129792320D01*
X140372741Y-129949363D01*
X140172863Y-130149241D01*
X140017500Y-130381759D01*
X139862137Y-130149241D01*
X139662259Y-129949363D01*
X139427227Y-129792320D01*
X139166074Y-129684147D01*
X138888835Y-129629000D01*
X138606165Y-129629000D01*
X138328926Y-129684147D01*
X138067773Y-129792320D01*
X137832741Y-129949363D01*
X137632863Y-130149241D01*
X137477500Y-130381759D01*
X137322137Y-130149241D01*
X137122259Y-129949363D01*
X136887227Y-129792320D01*
X136626074Y-129684147D01*
X136348835Y-129629000D01*
X136066165Y-129629000D01*
X135788926Y-129684147D01*
X135527773Y-129792320D01*
X135292741Y-129949363D01*
X135092863Y-130149241D01*
X134937500Y-130381759D01*
X134782137Y-130149241D01*
X134582259Y-129949363D01*
X134347227Y-129792320D01*
X134086074Y-129684147D01*
X133808835Y-129629000D01*
X133526165Y-129629000D01*
X133248926Y-129684147D01*
X132987773Y-129792320D01*
X132752741Y-129949363D01*
X132552863Y-130149241D01*
X132397500Y-130381759D01*
X132242137Y-130149241D01*
X132042259Y-129949363D01*
X131807227Y-129792320D01*
X131546074Y-129684147D01*
X131268835Y-129629000D01*
X130986165Y-129629000D01*
X130708926Y-129684147D01*
X130447773Y-129792320D01*
X130212741Y-129949363D01*
X130012863Y-130149241D01*
X129857500Y-130381759D01*
X129702137Y-130149241D01*
X129502259Y-129949363D01*
X129267227Y-129792320D01*
X129006074Y-129684147D01*
X128728835Y-129629000D01*
X128446165Y-129629000D01*
X128168926Y-129684147D01*
X127907773Y-129792320D01*
X127672741Y-129949363D01*
X127472863Y-130149241D01*
X127317500Y-130381759D01*
X127162137Y-130149241D01*
X126962259Y-129949363D01*
X126727227Y-129792320D01*
X126466074Y-129684147D01*
X126188835Y-129629000D01*
X125906165Y-129629000D01*
X125628926Y-129684147D01*
X125367773Y-129792320D01*
X125132741Y-129949363D01*
X124932863Y-130149241D01*
X124777500Y-130381759D01*
X124622137Y-130149241D01*
X124422259Y-129949363D01*
X124187227Y-129792320D01*
X123926074Y-129684147D01*
X123648835Y-129629000D01*
X123366165Y-129629000D01*
X123088926Y-129684147D01*
X122827773Y-129792320D01*
X122592741Y-129949363D01*
X122392863Y-130149241D01*
X122237500Y-130381759D01*
X122082137Y-130149241D01*
X121882259Y-129949363D01*
X121647227Y-129792320D01*
X121386074Y-129684147D01*
X121108835Y-129629000D01*
X120826165Y-129629000D01*
X120548926Y-129684147D01*
X120287773Y-129792320D01*
X120052741Y-129949363D01*
X119852863Y-130149241D01*
X119697500Y-130381759D01*
X119542137Y-130149241D01*
X119342259Y-129949363D01*
X119107227Y-129792320D01*
X118846074Y-129684147D01*
X118568835Y-129629000D01*
X118286165Y-129629000D01*
X118008926Y-129684147D01*
X117747773Y-129792320D01*
X117512741Y-129949363D01*
X117312863Y-130149241D01*
X117157500Y-130381759D01*
X117002137Y-130149241D01*
X116802259Y-129949363D01*
X116567227Y-129792320D01*
X116306074Y-129684147D01*
X116028835Y-129629000D01*
X115746165Y-129629000D01*
X115468926Y-129684147D01*
X115207773Y-129792320D01*
X114972741Y-129949363D01*
X114772863Y-130149241D01*
X114615820Y-130384273D01*
X114507647Y-130645426D01*
X114452500Y-130922665D01*
X114452500Y-131205335D01*
X114507647Y-131482574D01*
X114615820Y-131743727D01*
X114772863Y-131978759D01*
X114972741Y-132178637D01*
X115207773Y-132335680D01*
X115468926Y-132443853D01*
X115746165Y-132499000D01*
X116028835Y-132499000D01*
X116306074Y-132443853D01*
X116567227Y-132335680D01*
X116802259Y-132178637D01*
X117002137Y-131978759D01*
X117157500Y-131746241D01*
X117312863Y-131978759D01*
X117512741Y-132178637D01*
X117747773Y-132335680D01*
X118008926Y-132443853D01*
X118286165Y-132499000D01*
X118568835Y-132499000D01*
X118846074Y-132443853D01*
X119107227Y-132335680D01*
X119342259Y-132178637D01*
X119542137Y-131978759D01*
X119697500Y-131746241D01*
X119852863Y-131978759D01*
X120052741Y-132178637D01*
X120287773Y-132335680D01*
X120548926Y-132443853D01*
X120826165Y-132499000D01*
X121108835Y-132499000D01*
X121386074Y-132443853D01*
X121647227Y-132335680D01*
X121882259Y-132178637D01*
X122082137Y-131978759D01*
X122237500Y-131746241D01*
X122392863Y-131978759D01*
X122592741Y-132178637D01*
X122827773Y-132335680D01*
X123088926Y-132443853D01*
X123366165Y-132499000D01*
X123648835Y-132499000D01*
X123926074Y-132443853D01*
X124187227Y-132335680D01*
X124422259Y-132178637D01*
X124622137Y-131978759D01*
X124777500Y-131746241D01*
X124932863Y-131978759D01*
X125132741Y-132178637D01*
X125287500Y-132282043D01*
X125287501Y-135306568D01*
X125283824Y-135343900D01*
X125287501Y-135381233D01*
X125298498Y-135492886D01*
X125303946Y-135510845D01*
X125341954Y-135636146D01*
X125412526Y-135768176D01*
X125455752Y-135820846D01*
X125507500Y-135883901D01*
X125536498Y-135907699D01*
X132166601Y-142537803D01*
X132190400Y-142566802D01*
X132306125Y-142661775D01*
X132438154Y-142732347D01*
X132581415Y-142775804D01*
X132693068Y-142786801D01*
X132693077Y-142786801D01*
X132730400Y-142790477D01*
X132767723Y-142786801D01*
X151094760Y-142786801D01*
X157337841Y-149029883D01*
X157361639Y-149058881D01*
X157477364Y-149153854D01*
X157609393Y-149224426D01*
X157752654Y-149267883D01*
X157864307Y-149278880D01*
X157864316Y-149278880D01*
X157901639Y-149282556D01*
X157938962Y-149278880D01*
X173281905Y-149278880D01*
X173384551Y-149347466D01*
X173554711Y-149417948D01*
X173733943Y-149453600D01*
X113507520Y-149453600D01*
X113507520Y-146162665D01*
X114452500Y-146162665D01*
X114452500Y-146445335D01*
X114507647Y-146722574D01*
X114615820Y-146983727D01*
X114772863Y-147218759D01*
X114972741Y-147418637D01*
X115207773Y-147575680D01*
X115468926Y-147683853D01*
X115746165Y-147739000D01*
X116028835Y-147739000D01*
X116306074Y-147683853D01*
X116567227Y-147575680D01*
X116802259Y-147418637D01*
X117002137Y-147218759D01*
X117157500Y-146986241D01*
X117312863Y-147218759D01*
X117512741Y-147418637D01*
X117747773Y-147575680D01*
X118008926Y-147683853D01*
X118286165Y-147739000D01*
X118568835Y-147739000D01*
X118846074Y-147683853D01*
X119107227Y-147575680D01*
X119342259Y-147418637D01*
X119542137Y-147218759D01*
X119697500Y-146986241D01*
X119852863Y-147218759D01*
X120052741Y-147418637D01*
X120287773Y-147575680D01*
X120548926Y-147683853D01*
X120826165Y-147739000D01*
X121108835Y-147739000D01*
X121386074Y-147683853D01*
X121647227Y-147575680D01*
X121882259Y-147418637D01*
X122082137Y-147218759D01*
X122237500Y-146986241D01*
X122392863Y-147218759D01*
X122592741Y-147418637D01*
X122827773Y-147575680D01*
X123088926Y-147683853D01*
X123366165Y-147739000D01*
X123648835Y-147739000D01*
X123926074Y-147683853D01*
X124187227Y-147575680D01*
X124422259Y-147418637D01*
X124622137Y-147218759D01*
X124777500Y-146986241D01*
X124932863Y-147218759D01*
X125132741Y-147418637D01*
X125367773Y-147575680D01*
X125628926Y-147683853D01*
X125906165Y-147739000D01*
X126188835Y-147739000D01*
X126466074Y-147683853D01*
X126727227Y-147575680D01*
X126962259Y-147418637D01*
X127162137Y-147218759D01*
X127317500Y-146986241D01*
X127472863Y-147218759D01*
X127672741Y-147418637D01*
X127907773Y-147575680D01*
X128168926Y-147683853D01*
X128446165Y-147739000D01*
X128728835Y-147739000D01*
X129006074Y-147683853D01*
X129267227Y-147575680D01*
X129502259Y-147418637D01*
X129702137Y-147218759D01*
X129857500Y-146986241D01*
X130012863Y-147218759D01*
X130212741Y-147418637D01*
X130447773Y-147575680D01*
X130708926Y-147683853D01*
X130986165Y-147739000D01*
X131268835Y-147739000D01*
X131546074Y-147683853D01*
X131807227Y-147575680D01*
X132042259Y-147418637D01*
X132242137Y-147218759D01*
X132397500Y-146986241D01*
X132552863Y-147218759D01*
X132752741Y-147418637D01*
X132987773Y-147575680D01*
X133248926Y-147683853D01*
X133526165Y-147739000D01*
X133808835Y-147739000D01*
X134086074Y-147683853D01*
X134347227Y-147575680D01*
X134582259Y-147418637D01*
X134782137Y-147218759D01*
X134937500Y-146986241D01*
X135092863Y-147218759D01*
X135292741Y-147418637D01*
X135527773Y-147575680D01*
X135788926Y-147683853D01*
X136066165Y-147739000D01*
X136348835Y-147739000D01*
X136626074Y-147683853D01*
X136887227Y-147575680D01*
X137122259Y-147418637D01*
X137322137Y-147218759D01*
X137477500Y-146986241D01*
X137632863Y-147218759D01*
X137832741Y-147418637D01*
X138067773Y-147575680D01*
X138328926Y-147683853D01*
X138606165Y-147739000D01*
X138888835Y-147739000D01*
X139166074Y-147683853D01*
X139427227Y-147575680D01*
X139662259Y-147418637D01*
X139862137Y-147218759D01*
X140017500Y-146986241D01*
X140172863Y-147218759D01*
X140372741Y-147418637D01*
X140607773Y-147575680D01*
X140868926Y-147683853D01*
X141146165Y-147739000D01*
X141428835Y-147739000D01*
X141706074Y-147683853D01*
X141967227Y-147575680D01*
X142202259Y-147418637D01*
X142402137Y-147218759D01*
X142559180Y-146983727D01*
X142563567Y-146973135D01*
X142675115Y-147159131D01*
X142864086Y-147367519D01*
X143090080Y-147535037D01*
X143344413Y-147655246D01*
X143478461Y-147695904D01*
X143700500Y-147573915D01*
X143700500Y-146431000D01*
X143680500Y-146431000D01*
X143680500Y-146177000D01*
X143700500Y-146177000D01*
X143700500Y-145034085D01*
X143954500Y-145034085D01*
X143954500Y-146177000D01*
X143974500Y-146177000D01*
X143974500Y-146431000D01*
X143954500Y-146431000D01*
X143954500Y-147573915D01*
X144176539Y-147695904D01*
X144310587Y-147655246D01*
X144564920Y-147535037D01*
X144790914Y-147367519D01*
X144979885Y-147159131D01*
X145091433Y-146973135D01*
X145095820Y-146983727D01*
X145252863Y-147218759D01*
X145452741Y-147418637D01*
X145687773Y-147575680D01*
X145948926Y-147683853D01*
X146226165Y-147739000D01*
X146508835Y-147739000D01*
X146786074Y-147683853D01*
X147047227Y-147575680D01*
X147282259Y-147418637D01*
X147482137Y-147218759D01*
X147637500Y-146986241D01*
X147792863Y-147218759D01*
X147992741Y-147418637D01*
X148227773Y-147575680D01*
X148488926Y-147683853D01*
X148766165Y-147739000D01*
X149048835Y-147739000D01*
X149326074Y-147683853D01*
X149587227Y-147575680D01*
X149822259Y-147418637D01*
X150022137Y-147218759D01*
X150177500Y-146986241D01*
X150332863Y-147218759D01*
X150532741Y-147418637D01*
X150767773Y-147575680D01*
X151028926Y-147683853D01*
X151306165Y-147739000D01*
X151588835Y-147739000D01*
X151866074Y-147683853D01*
X152127227Y-147575680D01*
X152362259Y-147418637D01*
X152562137Y-147218759D01*
X152719180Y-146983727D01*
X152827353Y-146722574D01*
X152882500Y-146445335D01*
X152882500Y-146162665D01*
X152827353Y-145885426D01*
X152719180Y-145624273D01*
X152562137Y-145389241D01*
X152362259Y-145189363D01*
X152127227Y-145032320D01*
X151866074Y-144924147D01*
X151588835Y-144869000D01*
X151306165Y-144869000D01*
X151028926Y-144924147D01*
X150767773Y-145032320D01*
X150532741Y-145189363D01*
X150332863Y-145389241D01*
X150177500Y-145621759D01*
X150022137Y-145389241D01*
X149822259Y-145189363D01*
X149587227Y-145032320D01*
X149326074Y-144924147D01*
X149048835Y-144869000D01*
X148766165Y-144869000D01*
X148488926Y-144924147D01*
X148227773Y-145032320D01*
X147992741Y-145189363D01*
X147792863Y-145389241D01*
X147637500Y-145621759D01*
X147482137Y-145389241D01*
X147282259Y-145189363D01*
X147047227Y-145032320D01*
X146786074Y-144924147D01*
X146508835Y-144869000D01*
X146226165Y-144869000D01*
X145948926Y-144924147D01*
X145687773Y-145032320D01*
X145452741Y-145189363D01*
X145252863Y-145389241D01*
X145095820Y-145624273D01*
X145091433Y-145634865D01*
X144979885Y-145448869D01*
X144790914Y-145240481D01*
X144564920Y-145072963D01*
X144310587Y-144952754D01*
X144176539Y-144912096D01*
X143954500Y-145034085D01*
X143700500Y-145034085D01*
X143478461Y-144912096D01*
X143344413Y-144952754D01*
X143090080Y-145072963D01*
X142864086Y-145240481D01*
X142675115Y-145448869D01*
X142563567Y-145634865D01*
X142559180Y-145624273D01*
X142402137Y-145389241D01*
X142202259Y-145189363D01*
X141967227Y-145032320D01*
X141706074Y-144924147D01*
X141428835Y-144869000D01*
X141146165Y-144869000D01*
X140868926Y-144924147D01*
X140607773Y-145032320D01*
X140372741Y-145189363D01*
X140172863Y-145389241D01*
X140017500Y-145621759D01*
X139862137Y-145389241D01*
X139662259Y-145189363D01*
X139427227Y-145032320D01*
X139166074Y-144924147D01*
X138888835Y-144869000D01*
X138606165Y-144869000D01*
X138328926Y-144924147D01*
X138067773Y-145032320D01*
X137832741Y-145189363D01*
X137632863Y-145389241D01*
X137477500Y-145621759D01*
X137322137Y-145389241D01*
X137122259Y-145189363D01*
X136887227Y-145032320D01*
X136626074Y-144924147D01*
X136348835Y-144869000D01*
X136066165Y-144869000D01*
X135788926Y-144924147D01*
X135527773Y-145032320D01*
X135292741Y-145189363D01*
X135092863Y-145389241D01*
X134937500Y-145621759D01*
X134782137Y-145389241D01*
X134582259Y-145189363D01*
X134347227Y-145032320D01*
X134086074Y-144924147D01*
X133808835Y-144869000D01*
X133526165Y-144869000D01*
X133248926Y-144924147D01*
X132987773Y-145032320D01*
X132752741Y-145189363D01*
X132552863Y-145389241D01*
X132397500Y-145621759D01*
X132242137Y-145389241D01*
X132042259Y-145189363D01*
X131807227Y-145032320D01*
X131546074Y-144924147D01*
X131268835Y-144869000D01*
X130986165Y-144869000D01*
X130708926Y-144924147D01*
X130447773Y-145032320D01*
X130212741Y-145189363D01*
X130012863Y-145389241D01*
X129857500Y-145621759D01*
X129702137Y-145389241D01*
X129502259Y-145189363D01*
X129267227Y-145032320D01*
X129006074Y-144924147D01*
X128728835Y-144869000D01*
X128446165Y-144869000D01*
X128168926Y-144924147D01*
X127907773Y-145032320D01*
X127672741Y-145189363D01*
X127472863Y-145389241D01*
X127317500Y-145621759D01*
X127162137Y-145389241D01*
X126962259Y-145189363D01*
X126727227Y-145032320D01*
X126466074Y-144924147D01*
X126188835Y-144869000D01*
X125906165Y-144869000D01*
X125628926Y-144924147D01*
X125367773Y-145032320D01*
X125132741Y-145189363D01*
X124932863Y-145389241D01*
X124777500Y-145621759D01*
X124622137Y-145389241D01*
X124422259Y-145189363D01*
X124187227Y-145032320D01*
X123926074Y-144924147D01*
X123648835Y-144869000D01*
X123366165Y-144869000D01*
X123088926Y-144924147D01*
X122827773Y-145032320D01*
X122592741Y-145189363D01*
X122392863Y-145389241D01*
X122237500Y-145621759D01*
X122082137Y-145389241D01*
X121882259Y-145189363D01*
X121647227Y-145032320D01*
X121386074Y-144924147D01*
X121108835Y-144869000D01*
X120826165Y-144869000D01*
X120548926Y-144924147D01*
X120287773Y-145032320D01*
X120052741Y-145189363D01*
X119852863Y-145389241D01*
X119697500Y-145621759D01*
X119542137Y-145389241D01*
X119342259Y-145189363D01*
X119107227Y-145032320D01*
X118846074Y-144924147D01*
X118568835Y-144869000D01*
X118286165Y-144869000D01*
X118008926Y-144924147D01*
X117747773Y-145032320D01*
X117512741Y-145189363D01*
X117312863Y-145389241D01*
X117157500Y-145621759D01*
X117002137Y-145389241D01*
X116802259Y-145189363D01*
X116567227Y-145032320D01*
X116306074Y-144924147D01*
X116028835Y-144869000D01*
X115746165Y-144869000D01*
X115468926Y-144924147D01*
X115207773Y-145032320D01*
X114972741Y-145189363D01*
X114772863Y-145389241D01*
X114615820Y-145624273D01*
X114507647Y-145885426D01*
X114452500Y-146162665D01*
X113507520Y-146162665D01*
X113507520Y-138315872D01*
X115738500Y-138315872D01*
X115738500Y-138756128D01*
X115824390Y-139187925D01*
X115992869Y-139594669D01*
X116237462Y-139960729D01*
X116548771Y-140272038D01*
X116914831Y-140516631D01*
X117321575Y-140685110D01*
X117753372Y-140771000D01*
X118193628Y-140771000D01*
X118625425Y-140685110D01*
X119032169Y-140516631D01*
X119398229Y-140272038D01*
X119709538Y-139960729D01*
X119954131Y-139594669D01*
X120122610Y-139187925D01*
X120208500Y-138756128D01*
X120208500Y-138315872D01*
X120122610Y-137884075D01*
X119954131Y-137477331D01*
X119709538Y-137111271D01*
X119398229Y-136799962D01*
X119032169Y-136555369D01*
X118625425Y-136386890D01*
X118193628Y-136301000D01*
X117753372Y-136301000D01*
X117321575Y-136386890D01*
X116914831Y-136555369D01*
X116548771Y-136799962D01*
X116237462Y-137111271D01*
X115992869Y-137477331D01*
X115824390Y-137884075D01*
X115738500Y-138315872D01*
X113507520Y-138315872D01*
X113507520Y-111682165D01*
X117413500Y-111682165D01*
X117413500Y-111964835D01*
X117468647Y-112242074D01*
X117576820Y-112503227D01*
X117733863Y-112738259D01*
X117933741Y-112938137D01*
X118168773Y-113095180D01*
X118429926Y-113203353D01*
X118707165Y-113258500D01*
X118989835Y-113258500D01*
X119201876Y-113216322D01*
X121320536Y-115334983D01*
X121343552Y-115363028D01*
X121455470Y-115454877D01*
X121583157Y-115523127D01*
X121721705Y-115565155D01*
X121829685Y-115575790D01*
X121829694Y-115575790D01*
X121865789Y-115579345D01*
X121901884Y-115575790D01*
X124722840Y-115575790D01*
X126503182Y-117356133D01*
X126526198Y-117384178D01*
X126572243Y-117421966D01*
X126638116Y-117476027D01*
X126765802Y-117544277D01*
X126904351Y-117586305D01*
X127048436Y-117600496D01*
X127084541Y-117596940D01*
X131486234Y-117596940D01*
X134377936Y-120488643D01*
X134400952Y-120516688D01*
X134512870Y-120608537D01*
X134640557Y-120676787D01*
X134724267Y-120702180D01*
X134779104Y-120718815D01*
X134793322Y-120720215D01*
X134887085Y-120729450D01*
X134887092Y-120729450D01*
X134923189Y-120733005D01*
X134959286Y-120729450D01*
X143184337Y-120729450D01*
X143220442Y-120733006D01*
X143256547Y-120729450D01*
X143301018Y-120725070D01*
X146301363Y-120725070D01*
X151443364Y-125867071D01*
X151298512Y-125963858D01*
X151168278Y-126094092D01*
X151065954Y-126247231D01*
X150995472Y-126417391D01*
X150959540Y-126598031D01*
X150959540Y-126782209D01*
X150995472Y-126962849D01*
X151065954Y-127133009D01*
X151168278Y-127286148D01*
X151298512Y-127416382D01*
X151451651Y-127518706D01*
X151621811Y-127589188D01*
X151742892Y-127613273D01*
X152937940Y-128808322D01*
X152937941Y-140028428D01*
X152934264Y-140065760D01*
X152948938Y-140214745D01*
X152992394Y-140358006D01*
X153062966Y-140490036D01*
X153134141Y-140576762D01*
X153157940Y-140605761D01*
X153186938Y-140629559D01*
X156514337Y-143956959D01*
X156646960Y-144089582D01*
X156670759Y-144118581D01*
X156786484Y-144213554D01*
X156918513Y-144284126D01*
X157061774Y-144327583D01*
X157173427Y-144338580D01*
X157173436Y-144338580D01*
X157210759Y-144342256D01*
X157248082Y-144338580D01*
X182326845Y-144338580D01*
X182429491Y-144407166D01*
X182599651Y-144477648D01*
X182780291Y-144513580D01*
X182964469Y-144513580D01*
X183145109Y-144477648D01*
X183315269Y-144407166D01*
X183451900Y-144315872D01*
X203738500Y-144315872D01*
X203738500Y-144756128D01*
X203824390Y-145187925D01*
X203992869Y-145594669D01*
X204237462Y-145960729D01*
X204548771Y-146272038D01*
X204914831Y-146516631D01*
X205321575Y-146685110D01*
X205753372Y-146771000D01*
X206193628Y-146771000D01*
X206625425Y-146685110D01*
X207032169Y-146516631D01*
X207398229Y-146272038D01*
X207709538Y-145960729D01*
X207954131Y-145594669D01*
X208122610Y-145187925D01*
X208208500Y-144756128D01*
X208208500Y-144315872D01*
X208122610Y-143884075D01*
X207954131Y-143477331D01*
X207709538Y-143111271D01*
X207398229Y-142799962D01*
X207032169Y-142555369D01*
X206625425Y-142386890D01*
X206193628Y-142301000D01*
X205753372Y-142301000D01*
X205321575Y-142386890D01*
X204914831Y-142555369D01*
X204548771Y-142799962D01*
X204237462Y-143111271D01*
X203992869Y-143477331D01*
X203824390Y-143884075D01*
X203738500Y-144315872D01*
X183451900Y-144315872D01*
X183468408Y-144304842D01*
X183598642Y-144174608D01*
X183700966Y-144021469D01*
X183771448Y-143851309D01*
X183807380Y-143670669D01*
X183807380Y-143486491D01*
X183771448Y-143305851D01*
X183700966Y-143135691D01*
X183598642Y-142982552D01*
X183468408Y-142852318D01*
X183315269Y-142749994D01*
X183145109Y-142679512D01*
X182964469Y-142643580D01*
X182780291Y-142643580D01*
X182599651Y-142679512D01*
X182429491Y-142749994D01*
X182326845Y-142818580D01*
X157525562Y-142818580D01*
X154457940Y-139750959D01*
X154457940Y-128881648D01*
X156992491Y-131416199D01*
X157010552Y-131506998D01*
X157081034Y-131677158D01*
X157183358Y-131830297D01*
X157313592Y-131960531D01*
X157466731Y-132062855D01*
X157636891Y-132133337D01*
X157817531Y-132169269D01*
X158001709Y-132169269D01*
X158182349Y-132133337D01*
X158352509Y-132062855D01*
X158505648Y-131960531D01*
X158635882Y-131830297D01*
X158738206Y-131677158D01*
X158808688Y-131506998D01*
X158844620Y-131326358D01*
X158844620Y-131142180D01*
X158808688Y-130961540D01*
X158738206Y-130791380D01*
X158643550Y-130649717D01*
X158648621Y-130644646D01*
X158750945Y-130491507D01*
X158821427Y-130321347D01*
X158857359Y-130140707D01*
X158857359Y-129956529D01*
X158821427Y-129775889D01*
X158750945Y-129605729D01*
X158679507Y-129498814D01*
X158692189Y-129486132D01*
X158794513Y-129332993D01*
X158864995Y-129162833D01*
X158900927Y-128982193D01*
X158900927Y-128798015D01*
X158864995Y-128617375D01*
X158794513Y-128447215D01*
X158720398Y-128336295D01*
X158732416Y-128324277D01*
X158834740Y-128171138D01*
X158905222Y-128000978D01*
X158941154Y-127820338D01*
X158941154Y-127636160D01*
X158905222Y-127455520D01*
X158834740Y-127285360D01*
X158732416Y-127132221D01*
X158718629Y-127118434D01*
X158723642Y-127113421D01*
X158825966Y-126960282D01*
X158896448Y-126790122D01*
X158932380Y-126609482D01*
X158932380Y-126425304D01*
X158896448Y-126244664D01*
X158825966Y-126074504D01*
X158723642Y-125921365D01*
X158593408Y-125791131D01*
X158440269Y-125688807D01*
X158270109Y-125618325D01*
X158104896Y-125585462D01*
X157258221Y-124738787D01*
X157296271Y-124754548D01*
X157476911Y-124790480D01*
X157661089Y-124790480D01*
X157841729Y-124754548D01*
X158011889Y-124684066D01*
X158165028Y-124581742D01*
X158295262Y-124451508D01*
X158397586Y-124298369D01*
X158468068Y-124128209D01*
X158504000Y-123947569D01*
X158504000Y-123763391D01*
X158468068Y-123582751D01*
X158397586Y-123412591D01*
X158295262Y-123259452D01*
X158165028Y-123129218D01*
X158011889Y-123026894D01*
X157878299Y-122971560D01*
X158057529Y-122935908D01*
X158227689Y-122865426D01*
X158380828Y-122763102D01*
X158511062Y-122632868D01*
X158613386Y-122479729D01*
X158683868Y-122309569D01*
X158719800Y-122128929D01*
X158719800Y-121944751D01*
X158683868Y-121764111D01*
X158613386Y-121593951D01*
X158511062Y-121440812D01*
X158380828Y-121310578D01*
X158304653Y-121259680D01*
X158364849Y-121234746D01*
X158517988Y-121132422D01*
X158648222Y-121002188D01*
X158750546Y-120849049D01*
X158821028Y-120678889D01*
X158856960Y-120498249D01*
X158856960Y-120314071D01*
X158821028Y-120133431D01*
X158750546Y-119963271D01*
X158648222Y-119810132D01*
X158641433Y-119803343D01*
X158740386Y-119655249D01*
X158810868Y-119485089D01*
X158846800Y-119304449D01*
X158846800Y-119120271D01*
X158810868Y-118939631D01*
X158740386Y-118769471D01*
X158700441Y-118709689D01*
X158800622Y-118609508D01*
X158902946Y-118456369D01*
X158952387Y-118337006D01*
X160338025Y-119722644D01*
X160409622Y-119809885D01*
X160437668Y-119832902D01*
X167484351Y-126879586D01*
X167484350Y-132612659D01*
X167480794Y-132648764D01*
X167494985Y-132792849D01*
X167503379Y-132820520D01*
X167537013Y-132931396D01*
X167605263Y-133059083D01*
X167647581Y-133110647D01*
X167647580Y-134011843D01*
X167553994Y-134151905D01*
X167483512Y-134322065D01*
X167447580Y-134502705D01*
X167447580Y-134686883D01*
X167483512Y-134867523D01*
X167553994Y-135037683D01*
X167656318Y-135190822D01*
X167786552Y-135321056D01*
X167939691Y-135423380D01*
X168109851Y-135493862D01*
X168279060Y-135527520D01*
X168279060Y-135590929D01*
X168314992Y-135771569D01*
X168385474Y-135941729D01*
X168487798Y-136094868D01*
X168618032Y-136225102D01*
X168771171Y-136327426D01*
X168941331Y-136397908D01*
X169121971Y-136433840D01*
X169306149Y-136433840D01*
X169486789Y-136397908D01*
X169656949Y-136327426D01*
X169810088Y-136225102D01*
X169940322Y-136094868D01*
X170042646Y-135941729D01*
X170090030Y-135827333D01*
X170097434Y-135845209D01*
X170199758Y-135998348D01*
X170329992Y-136128582D01*
X170483131Y-136230906D01*
X170653291Y-136301388D01*
X170833931Y-136337320D01*
X171018109Y-136337320D01*
X171198749Y-136301388D01*
X171368909Y-136230906D01*
X171522048Y-136128582D01*
X171652282Y-135998348D01*
X171754606Y-135845209D01*
X171783385Y-135775731D01*
X171797434Y-135809649D01*
X171899758Y-135962788D01*
X172029992Y-136093022D01*
X172183131Y-136195346D01*
X172353291Y-136265828D01*
X172533931Y-136301760D01*
X172718109Y-136301760D01*
X172898749Y-136265828D01*
X173068909Y-136195346D01*
X173222048Y-136093022D01*
X173352282Y-135962788D01*
X173454606Y-135809649D01*
X173525088Y-135639489D01*
X173561020Y-135458849D01*
X173561020Y-135274671D01*
X173525088Y-135094031D01*
X173454606Y-134923871D01*
X173361020Y-134783809D01*
X173361020Y-133358326D01*
X173461031Y-133378220D01*
X173645209Y-133378220D01*
X173825849Y-133342288D01*
X173996009Y-133271806D01*
X174149148Y-133169482D01*
X174279382Y-133039248D01*
X174381706Y-132886109D01*
X174452188Y-132715949D01*
X174488120Y-132535309D01*
X174488120Y-132351131D01*
X174452188Y-132170491D01*
X174381706Y-132000331D01*
X174288120Y-131860269D01*
X174288120Y-126418874D01*
X174291675Y-126382779D01*
X174288120Y-126346684D01*
X174288120Y-126346675D01*
X174277485Y-126238695D01*
X174235457Y-126100147D01*
X174167207Y-125972460D01*
X174075358Y-125860542D01*
X174047313Y-125837526D01*
X162726040Y-114516254D01*
X162726040Y-108092240D01*
X163624844Y-108092240D01*
X163628401Y-108128355D01*
X163628400Y-113766055D01*
X163624844Y-113802160D01*
X163639035Y-113946245D01*
X163650984Y-113985634D01*
X163681063Y-114084792D01*
X163749313Y-114212479D01*
X163841162Y-114324397D01*
X163869208Y-114347414D01*
X166850906Y-117329113D01*
X166873922Y-117357158D01*
X166985840Y-117449007D01*
X167113527Y-117517257D01*
X167252075Y-117559285D01*
X167360055Y-117569920D01*
X167360064Y-117569920D01*
X167396159Y-117573475D01*
X167432254Y-117569920D01*
X170829657Y-117569920D01*
X170970817Y-117664240D01*
X171140977Y-117734722D01*
X171321617Y-117770654D01*
X171505795Y-117770654D01*
X171686435Y-117734722D01*
X171856595Y-117664240D01*
X172009734Y-117561916D01*
X172139968Y-117431682D01*
X172242292Y-117278543D01*
X172312774Y-117108383D01*
X172348706Y-116927743D01*
X172348706Y-116743565D01*
X172312774Y-116562925D01*
X172242292Y-116392765D01*
X172139968Y-116239626D01*
X172009734Y-116109392D01*
X171856595Y-116007068D01*
X171686435Y-115936586D01*
X171543412Y-115908137D01*
X171562040Y-115814489D01*
X171562040Y-115630311D01*
X171526108Y-115449671D01*
X171455626Y-115279511D01*
X171353302Y-115126372D01*
X171223068Y-114996138D01*
X171069929Y-114893814D01*
X170899769Y-114823332D01*
X170719129Y-114787400D01*
X170534951Y-114787400D01*
X170354311Y-114823332D01*
X170184151Y-114893814D01*
X170044089Y-114987400D01*
X168030807Y-114987400D01*
X166038200Y-112994794D01*
X166038200Y-109346646D01*
X167779347Y-107605500D01*
X168862752Y-107605500D01*
X168982863Y-107785259D01*
X169182741Y-107985137D01*
X169417773Y-108142180D01*
X169678926Y-108250353D01*
X169956165Y-108305500D01*
X170238835Y-108305500D01*
X170516074Y-108250353D01*
X170777227Y-108142180D01*
X171012259Y-107985137D01*
X171212137Y-107785259D01*
X171334136Y-107602673D01*
X171482863Y-107825259D01*
X171682741Y-108025137D01*
X171917773Y-108182180D01*
X172178926Y-108290353D01*
X172456165Y-108345500D01*
X172738835Y-108345500D01*
X173016074Y-108290353D01*
X173277227Y-108182180D01*
X173512259Y-108025137D01*
X173712137Y-107825259D01*
X173847500Y-107622673D01*
X173982863Y-107825259D01*
X174182741Y-108025137D01*
X174417773Y-108182180D01*
X174678926Y-108290353D01*
X174956165Y-108345500D01*
X175238835Y-108345500D01*
X175516074Y-108290353D01*
X175777227Y-108182180D01*
X176012259Y-108025137D01*
X176212137Y-107825259D01*
X176347500Y-107622673D01*
X176482863Y-107825259D01*
X176682741Y-108025137D01*
X176917773Y-108182180D01*
X177178926Y-108290353D01*
X177456165Y-108345500D01*
X177738835Y-108345500D01*
X178016074Y-108290353D01*
X178277227Y-108182180D01*
X178512259Y-108025137D01*
X178712137Y-107825259D01*
X178847500Y-107622673D01*
X178982863Y-107825259D01*
X179182741Y-108025137D01*
X179417773Y-108182180D01*
X179678926Y-108290353D01*
X179956165Y-108345500D01*
X180238835Y-108345500D01*
X180516074Y-108290353D01*
X180777227Y-108182180D01*
X181012259Y-108025137D01*
X181212137Y-107825259D01*
X181347500Y-107622673D01*
X181482863Y-107825259D01*
X181682741Y-108025137D01*
X181917773Y-108182180D01*
X182178926Y-108290353D01*
X182456165Y-108345500D01*
X182738835Y-108345500D01*
X182950876Y-108303322D01*
X184940866Y-110293313D01*
X184963882Y-110321358D01*
X185075800Y-110413207D01*
X185203487Y-110481457D01*
X185296351Y-110509627D01*
X185342034Y-110523485D01*
X185356252Y-110524885D01*
X185450015Y-110534120D01*
X185450022Y-110534120D01*
X185486119Y-110537675D01*
X185522216Y-110534120D01*
X185920541Y-110534120D01*
X185667773Y-110638820D01*
X185432741Y-110795863D01*
X185232863Y-110995741D01*
X185097500Y-111198327D01*
X184962137Y-110995741D01*
X184762259Y-110795863D01*
X184527227Y-110638820D01*
X184266074Y-110530647D01*
X183988835Y-110475500D01*
X183706165Y-110475500D01*
X183428926Y-110530647D01*
X183167773Y-110638820D01*
X182932741Y-110795863D01*
X182732863Y-110995741D01*
X182584136Y-111218327D01*
X182462137Y-111035741D01*
X182262259Y-110835863D01*
X182027227Y-110678820D01*
X181766074Y-110570647D01*
X181488835Y-110515500D01*
X181206165Y-110515500D01*
X180928926Y-110570647D01*
X180667773Y-110678820D01*
X180432741Y-110835863D01*
X180232863Y-111035741D01*
X180097500Y-111238327D01*
X179962137Y-111035741D01*
X179762259Y-110835863D01*
X179527227Y-110678820D01*
X179266074Y-110570647D01*
X178988835Y-110515500D01*
X178706165Y-110515500D01*
X178428926Y-110570647D01*
X178167773Y-110678820D01*
X177932741Y-110835863D01*
X177732863Y-111035741D01*
X177597500Y-111238327D01*
X177462137Y-111035741D01*
X177262259Y-110835863D01*
X177027227Y-110678820D01*
X176766074Y-110570647D01*
X176488835Y-110515500D01*
X176206165Y-110515500D01*
X175928926Y-110570647D01*
X175667773Y-110678820D01*
X175432741Y-110835863D01*
X175232863Y-111035741D01*
X175097500Y-111238327D01*
X174962137Y-111035741D01*
X174762259Y-110835863D01*
X174527227Y-110678820D01*
X174266074Y-110570647D01*
X173988835Y-110515500D01*
X173706165Y-110515500D01*
X173428926Y-110570647D01*
X173167773Y-110678820D01*
X172932741Y-110835863D01*
X172732863Y-111035741D01*
X172597500Y-111238327D01*
X172462137Y-111035741D01*
X172262259Y-110835863D01*
X172027227Y-110678820D01*
X171766074Y-110570647D01*
X171488835Y-110515500D01*
X171206165Y-110515500D01*
X170928926Y-110570647D01*
X170667773Y-110678820D01*
X170432741Y-110835863D01*
X170232863Y-111035741D01*
X170097500Y-111238327D01*
X169962137Y-111035741D01*
X169762259Y-110835863D01*
X169527227Y-110678820D01*
X169266074Y-110570647D01*
X168988835Y-110515500D01*
X168706165Y-110515500D01*
X168428926Y-110570647D01*
X168167773Y-110678820D01*
X167932741Y-110835863D01*
X167732863Y-111035741D01*
X167575820Y-111270773D01*
X167467647Y-111531926D01*
X167412500Y-111809165D01*
X167412500Y-112091835D01*
X167467647Y-112369074D01*
X167575820Y-112630227D01*
X167732863Y-112865259D01*
X167932741Y-113065137D01*
X168167773Y-113222180D01*
X168428926Y-113330353D01*
X168706165Y-113385500D01*
X168988835Y-113385500D01*
X169266074Y-113330353D01*
X169527227Y-113222180D01*
X169762259Y-113065137D01*
X169962137Y-112865259D01*
X170097500Y-112662673D01*
X170232863Y-112865259D01*
X170432741Y-113065137D01*
X170667773Y-113222180D01*
X170928926Y-113330353D01*
X171206165Y-113385500D01*
X171488835Y-113385500D01*
X171766074Y-113330353D01*
X172027227Y-113222180D01*
X172262259Y-113065137D01*
X172462137Y-112865259D01*
X172597500Y-112662673D01*
X172732863Y-112865259D01*
X172932741Y-113065137D01*
X173167773Y-113222180D01*
X173428926Y-113330353D01*
X173706165Y-113385500D01*
X173988835Y-113385500D01*
X174266074Y-113330353D01*
X174527227Y-113222180D01*
X174762259Y-113065137D01*
X174962137Y-112865259D01*
X175097500Y-112662673D01*
X175232863Y-112865259D01*
X175432741Y-113065137D01*
X175667773Y-113222180D01*
X175928926Y-113330353D01*
X176206165Y-113385500D01*
X176488835Y-113385500D01*
X176766074Y-113330353D01*
X177027227Y-113222180D01*
X177262259Y-113065137D01*
X177462137Y-112865259D01*
X177597500Y-112662673D01*
X177732863Y-112865259D01*
X177932741Y-113065137D01*
X178167773Y-113222180D01*
X178428926Y-113330353D01*
X178706165Y-113385500D01*
X178988835Y-113385500D01*
X179266074Y-113330353D01*
X179527227Y-113222180D01*
X179762259Y-113065137D01*
X179962137Y-112865259D01*
X180097500Y-112662673D01*
X180232863Y-112865259D01*
X180432741Y-113065137D01*
X180667773Y-113222180D01*
X180928926Y-113330353D01*
X181206165Y-113385500D01*
X181488835Y-113385500D01*
X181766074Y-113330353D01*
X182027227Y-113222180D01*
X182262259Y-113065137D01*
X182462137Y-112865259D01*
X182610864Y-112642673D01*
X182732863Y-112825259D01*
X182932741Y-113025137D01*
X183167773Y-113182180D01*
X183428926Y-113290353D01*
X183706165Y-113345500D01*
X183988835Y-113345500D01*
X184266074Y-113290353D01*
X184527227Y-113182180D01*
X184762259Y-113025137D01*
X184962137Y-112825259D01*
X185097500Y-112622673D01*
X185232863Y-112825259D01*
X185432741Y-113025137D01*
X185667773Y-113182180D01*
X185928926Y-113290353D01*
X186206165Y-113345500D01*
X186488835Y-113345500D01*
X186766074Y-113290353D01*
X187027227Y-113182180D01*
X187262259Y-113025137D01*
X187462137Y-112825259D01*
X187597500Y-112622673D01*
X187732863Y-112825259D01*
X187932741Y-113025137D01*
X188167773Y-113182180D01*
X188428926Y-113290353D01*
X188706165Y-113345500D01*
X188988835Y-113345500D01*
X189266074Y-113290353D01*
X189527227Y-113182180D01*
X189762259Y-113025137D01*
X189962137Y-112825259D01*
X190097500Y-112622673D01*
X190232863Y-112825259D01*
X190432741Y-113025137D01*
X190667773Y-113182180D01*
X190928926Y-113290353D01*
X191206165Y-113345500D01*
X191488835Y-113345500D01*
X191766074Y-113290353D01*
X192027227Y-113182180D01*
X192262259Y-113025137D01*
X192462137Y-112825259D01*
X192597500Y-112622673D01*
X192732863Y-112825259D01*
X192932741Y-113025137D01*
X193167773Y-113182180D01*
X193428926Y-113290353D01*
X193706165Y-113345500D01*
X193988835Y-113345500D01*
X194266074Y-113290353D01*
X194527227Y-113182180D01*
X194762259Y-113025137D01*
X194962137Y-112825259D01*
X195097500Y-112622673D01*
X195232863Y-112825259D01*
X195432741Y-113025137D01*
X195667773Y-113182180D01*
X195928926Y-113290353D01*
X196206165Y-113345500D01*
X196488835Y-113345500D01*
X196766074Y-113290353D01*
X197027227Y-113182180D01*
X197262259Y-113025137D01*
X197462137Y-112825259D01*
X197597500Y-112622673D01*
X197732863Y-112825259D01*
X197932741Y-113025137D01*
X198167773Y-113182180D01*
X198428926Y-113290353D01*
X198706165Y-113345500D01*
X198988835Y-113345500D01*
X199266074Y-113290353D01*
X199527227Y-113182180D01*
X199762259Y-113025137D01*
X199962137Y-112825259D01*
X200097500Y-112622673D01*
X200232863Y-112825259D01*
X200432741Y-113025137D01*
X200667773Y-113182180D01*
X200928926Y-113290353D01*
X201206165Y-113345500D01*
X201488835Y-113345500D01*
X201766074Y-113290353D01*
X202027227Y-113182180D01*
X202262259Y-113025137D01*
X202462137Y-112825259D01*
X202597500Y-112622673D01*
X202732863Y-112825259D01*
X202932741Y-113025137D01*
X203167773Y-113182180D01*
X203428926Y-113290353D01*
X203706165Y-113345500D01*
X203988835Y-113345500D01*
X204266074Y-113290353D01*
X204527227Y-113182180D01*
X204762259Y-113025137D01*
X204962137Y-112825259D01*
X205119180Y-112590227D01*
X205227353Y-112329074D01*
X205282500Y-112051835D01*
X205282500Y-111769165D01*
X205227353Y-111491926D01*
X205128467Y-111253193D01*
X205650161Y-111774888D01*
X205650160Y-114325753D01*
X189589846Y-130386068D01*
X189424631Y-130418932D01*
X189254471Y-130489414D01*
X189101332Y-130591738D01*
X188971098Y-130721972D01*
X188868774Y-130875111D01*
X188798292Y-131045271D01*
X188762360Y-131225911D01*
X188762360Y-131410089D01*
X188798292Y-131590729D01*
X188868774Y-131760889D01*
X188971098Y-131914028D01*
X189101332Y-132044262D01*
X189254471Y-132146586D01*
X189424631Y-132217068D01*
X189605271Y-132253000D01*
X189789449Y-132253000D01*
X189970089Y-132217068D01*
X190140249Y-132146586D01*
X190293388Y-132044262D01*
X190423622Y-131914028D01*
X190525946Y-131760889D01*
X190596428Y-131590729D01*
X190629292Y-131425514D01*
X206478200Y-115576607D01*
X206478200Y-116281553D01*
X192068886Y-130690868D01*
X191903671Y-130723732D01*
X191733511Y-130794214D01*
X191580372Y-130896538D01*
X191450138Y-131026772D01*
X191347814Y-131179911D01*
X191277332Y-131350071D01*
X191241400Y-131530711D01*
X191241400Y-131714889D01*
X191277332Y-131895529D01*
X191347814Y-132065689D01*
X191450138Y-132218828D01*
X191580372Y-132349062D01*
X191733511Y-132451386D01*
X191903671Y-132521868D01*
X192084311Y-132557800D01*
X192268489Y-132557800D01*
X192449129Y-132521868D01*
X192619289Y-132451386D01*
X192772428Y-132349062D01*
X192902662Y-132218828D01*
X193004986Y-132065689D01*
X193075468Y-131895529D01*
X193108332Y-131730314D01*
X207407840Y-117430807D01*
X207407840Y-117947793D01*
X191657406Y-133698228D01*
X191492191Y-133731092D01*
X191322031Y-133801574D01*
X191168892Y-133903898D01*
X191038658Y-134034132D01*
X190936334Y-134187271D01*
X190865852Y-134357431D01*
X190829920Y-134538071D01*
X190829920Y-134722249D01*
X190865852Y-134902889D01*
X190936334Y-135073049D01*
X191038658Y-135226188D01*
X191168892Y-135356422D01*
X191322031Y-135458746D01*
X191492191Y-135529228D01*
X191672831Y-135565160D01*
X191857009Y-135565160D01*
X192037649Y-135529228D01*
X192207809Y-135458746D01*
X192360948Y-135356422D01*
X192491182Y-135226188D01*
X192593506Y-135073049D01*
X192663988Y-134902889D01*
X192696852Y-134737674D01*
X208156389Y-119278138D01*
X208155089Y-119898024D01*
X190995554Y-137057560D01*
X185850551Y-137057560D01*
X185710489Y-136963974D01*
X185540329Y-136893492D01*
X185359689Y-136857560D01*
X185175511Y-136857560D01*
X184994871Y-136893492D01*
X184824711Y-136963974D01*
X184671572Y-137066298D01*
X184541338Y-137196532D01*
X184439014Y-137349671D01*
X184368532Y-137519831D01*
X184338818Y-137669209D01*
X184257329Y-137653000D01*
X184073151Y-137653000D01*
X183892511Y-137688932D01*
X183722351Y-137759414D01*
X183569212Y-137861738D01*
X183438978Y-137991972D01*
X183336654Y-138145111D01*
X183266172Y-138315271D01*
X183230240Y-138495911D01*
X183230240Y-138680089D01*
X183266172Y-138860729D01*
X183336654Y-139030889D01*
X183438978Y-139184028D01*
X183569212Y-139314262D01*
X183722351Y-139416586D01*
X183892511Y-139487068D01*
X184073151Y-139523000D01*
X184257329Y-139523000D01*
X184271640Y-139520153D01*
X184271640Y-139562560D01*
X184184911Y-139562560D01*
X184004271Y-139598492D01*
X183834111Y-139668974D01*
X183680972Y-139771298D01*
X183550738Y-139901532D01*
X183448414Y-140054671D01*
X183377932Y-140224831D01*
X183342000Y-140405471D01*
X183342000Y-140589649D01*
X183377932Y-140770289D01*
X183448414Y-140940449D01*
X183545868Y-141086300D01*
X174266295Y-141086300D01*
X174163649Y-141017714D01*
X173993489Y-140947232D01*
X173812849Y-140911300D01*
X173628671Y-140911300D01*
X173448031Y-140947232D01*
X173277871Y-141017714D01*
X173124732Y-141120038D01*
X172994498Y-141250272D01*
X172892174Y-141403411D01*
X172821692Y-141573571D01*
X172785760Y-141754211D01*
X172785760Y-141938389D01*
X172821692Y-142119029D01*
X172892174Y-142289189D01*
X172994498Y-142442328D01*
X173124732Y-142572562D01*
X173277871Y-142674886D01*
X173448031Y-142745368D01*
X173628671Y-142781300D01*
X173812849Y-142781300D01*
X173993489Y-142745368D01*
X174163649Y-142674886D01*
X174266295Y-142606300D01*
X198548159Y-142606300D01*
X198585481Y-142609976D01*
X198622803Y-142606300D01*
X198622814Y-142606300D01*
X198734467Y-142595303D01*
X198877728Y-142551846D01*
X199009757Y-142481274D01*
X199125482Y-142386301D01*
X199149284Y-142357298D01*
X199936563Y-141570020D01*
X199965561Y-141546222D01*
X199991892Y-141514138D01*
X200060534Y-141430498D01*
X200131106Y-141298468D01*
X200150020Y-141236116D01*
X200174563Y-141155207D01*
X200181473Y-141085049D01*
X200372192Y-140957615D01*
X200579035Y-140750772D01*
X200741550Y-140507551D01*
X200853492Y-140237298D01*
X200910560Y-139950400D01*
X200910560Y-139657880D01*
X200853492Y-139370982D01*
X200741550Y-139100729D01*
X200579035Y-138857508D01*
X200372192Y-138650665D01*
X200128971Y-138488150D01*
X199858718Y-138376208D01*
X199571820Y-138319140D01*
X199279300Y-138319140D01*
X198992402Y-138376208D01*
X198722149Y-138488150D01*
X198478928Y-138650665D01*
X198347073Y-138782520D01*
X198325062Y-138709960D01*
X198266097Y-138599646D01*
X198186745Y-138502955D01*
X198090054Y-138423603D01*
X197979740Y-138364638D01*
X197860042Y-138328328D01*
X197735560Y-138316068D01*
X196035560Y-138316068D01*
X195911078Y-138328328D01*
X195791380Y-138364638D01*
X195681066Y-138423603D01*
X195584375Y-138502955D01*
X195505023Y-138599646D01*
X195446058Y-138709960D01*
X195409748Y-138829658D01*
X195397488Y-138954140D01*
X195397488Y-140654140D01*
X195409748Y-140778622D01*
X195446058Y-140898320D01*
X195505023Y-141008634D01*
X195568762Y-141086300D01*
X192491677Y-141086300D01*
X192572710Y-141019798D01*
X192595731Y-140991748D01*
X194893889Y-138693590D01*
X194893894Y-138693584D01*
X198251247Y-135336231D01*
X204373480Y-135336231D01*
X204373480Y-135661449D01*
X204436927Y-135980419D01*
X204561383Y-136280882D01*
X204742065Y-136551291D01*
X204972029Y-136781255D01*
X205242438Y-136961937D01*
X205542901Y-137086393D01*
X205861871Y-137149840D01*
X206187089Y-137149840D01*
X206506059Y-137086393D01*
X206806522Y-136961937D01*
X207076931Y-136781255D01*
X207306895Y-136551291D01*
X207487577Y-136280882D01*
X207612033Y-135980419D01*
X207675480Y-135661449D01*
X207675480Y-135336231D01*
X207612033Y-135017261D01*
X207487577Y-134716798D01*
X207306895Y-134446389D01*
X207076931Y-134216425D01*
X206806522Y-134035743D01*
X206506059Y-133911287D01*
X206187089Y-133847840D01*
X205861871Y-133847840D01*
X205542901Y-133911287D01*
X205242438Y-134035743D01*
X204972029Y-134216425D01*
X204742065Y-134446389D01*
X204561383Y-134716798D01*
X204436927Y-135017261D01*
X204373480Y-135336231D01*
X198251247Y-135336231D01*
X201442009Y-132145470D01*
X201442014Y-132145464D01*
X203331247Y-130256231D01*
X204373480Y-130256231D01*
X204373480Y-130581449D01*
X204436927Y-130900419D01*
X204561383Y-131200882D01*
X204742065Y-131471291D01*
X204972029Y-131701255D01*
X205242438Y-131881937D01*
X205542901Y-132006393D01*
X205861871Y-132069840D01*
X206187089Y-132069840D01*
X206506059Y-132006393D01*
X206806522Y-131881937D01*
X207076931Y-131701255D01*
X207306895Y-131471291D01*
X207487577Y-131200882D01*
X207612033Y-130900419D01*
X207675480Y-130581449D01*
X207675480Y-130256231D01*
X207612033Y-129937261D01*
X207487577Y-129636798D01*
X207306895Y-129366389D01*
X207076931Y-129136425D01*
X206806522Y-128955743D01*
X206506059Y-128831287D01*
X206187089Y-128767840D01*
X205861871Y-128767840D01*
X205542901Y-128831287D01*
X205242438Y-128955743D01*
X204972029Y-129136425D01*
X204742065Y-129366389D01*
X204561383Y-129636798D01*
X204436927Y-129937261D01*
X204373480Y-130256231D01*
X203331247Y-130256231D01*
X207674311Y-125913167D01*
X207839525Y-125880304D01*
X208009685Y-125809822D01*
X208162824Y-125707498D01*
X208293058Y-125577264D01*
X208395382Y-125424125D01*
X208465864Y-125253965D01*
X208501796Y-125073325D01*
X208501796Y-124889147D01*
X208465864Y-124708507D01*
X208395382Y-124538347D01*
X208293058Y-124385208D01*
X208181978Y-124274128D01*
X210053134Y-122402973D01*
X210084996Y-122376025D01*
X210126676Y-122323675D01*
X210169166Y-122271901D01*
X210171757Y-122267053D01*
X210175177Y-122262758D01*
X210205843Y-122203283D01*
X210237416Y-122144214D01*
X210239011Y-122138955D01*
X210241528Y-122134074D01*
X210260007Y-122069743D01*
X210279444Y-122005666D01*
X210279982Y-122000199D01*
X210281499Y-121994919D01*
X210287076Y-121928175D01*
X210293635Y-121861581D01*
X210289545Y-121820057D01*
X210285011Y-121514020D01*
X210320481Y-105030333D01*
X210324115Y-104993439D01*
X210317100Y-104922217D01*
X210310233Y-104850915D01*
X210310002Y-104850148D01*
X210309924Y-104849354D01*
X210289128Y-104780798D01*
X210268503Y-104712277D01*
X210268129Y-104711573D01*
X210267896Y-104710806D01*
X210234039Y-104647464D01*
X210200528Y-104584443D01*
X210200024Y-104583826D01*
X210199646Y-104583119D01*
X210153987Y-104527483D01*
X210108920Y-104472328D01*
X210080321Y-104448754D01*
X207915938Y-102284372D01*
X207892918Y-102256322D01*
X207781000Y-102164473D01*
X207653313Y-102096223D01*
X207514765Y-102054195D01*
X207406785Y-102043560D01*
X207370680Y-102040004D01*
X207334575Y-102043560D01*
X196725545Y-102043560D01*
X196689440Y-102040004D01*
X196545355Y-102054195D01*
X196406806Y-102096223D01*
X196279120Y-102164473D01*
X196167202Y-102256322D01*
X196144186Y-102284368D01*
X195684711Y-102743843D01*
X195684706Y-102743847D01*
X192950876Y-105477678D01*
X192738835Y-105435500D01*
X192456165Y-105435500D01*
X192178926Y-105490647D01*
X191917773Y-105598820D01*
X191682741Y-105755863D01*
X191482863Y-105955741D01*
X191347500Y-106158327D01*
X191212137Y-105955741D01*
X191012259Y-105755863D01*
X190777227Y-105598820D01*
X190516074Y-105490647D01*
X190238835Y-105435500D01*
X189956165Y-105435500D01*
X189678926Y-105490647D01*
X189417773Y-105598820D01*
X189182741Y-105755863D01*
X188982863Y-105955741D01*
X188834136Y-106178327D01*
X188712137Y-105995741D01*
X188512259Y-105795863D01*
X188277227Y-105638820D01*
X188016074Y-105530647D01*
X187738835Y-105475500D01*
X187456165Y-105475500D01*
X187178926Y-105530647D01*
X186917773Y-105638820D01*
X186682741Y-105795863D01*
X186482863Y-105995741D01*
X186347500Y-106198327D01*
X186212137Y-105995741D01*
X186012259Y-105795863D01*
X185777227Y-105638820D01*
X185516074Y-105530647D01*
X185238835Y-105475500D01*
X184956165Y-105475500D01*
X184678926Y-105530647D01*
X184417773Y-105638820D01*
X184182741Y-105795863D01*
X183982863Y-105995741D01*
X183847500Y-106198327D01*
X183712137Y-105995741D01*
X183512259Y-105795863D01*
X183277227Y-105638820D01*
X183016074Y-105530647D01*
X182738835Y-105475500D01*
X182456165Y-105475500D01*
X182178926Y-105530647D01*
X181917773Y-105638820D01*
X181682741Y-105795863D01*
X181482863Y-105995741D01*
X181347500Y-106198327D01*
X181212137Y-105995741D01*
X181012259Y-105795863D01*
X180777227Y-105638820D01*
X180516074Y-105530647D01*
X180238835Y-105475500D01*
X179956165Y-105475500D01*
X179678926Y-105530647D01*
X179417773Y-105638820D01*
X179182741Y-105795863D01*
X178982863Y-105995741D01*
X178847500Y-106198327D01*
X178712137Y-105995741D01*
X178512259Y-105795863D01*
X178277227Y-105638820D01*
X178016074Y-105530647D01*
X177738835Y-105475500D01*
X177456165Y-105475500D01*
X177178926Y-105530647D01*
X176917773Y-105638820D01*
X176682741Y-105795863D01*
X176482863Y-105995741D01*
X176347500Y-106198327D01*
X176212137Y-105995741D01*
X176012259Y-105795863D01*
X175777227Y-105638820D01*
X175516074Y-105530647D01*
X175238835Y-105475500D01*
X174956165Y-105475500D01*
X174678926Y-105530647D01*
X174417773Y-105638820D01*
X174182741Y-105795863D01*
X173982863Y-105995741D01*
X173847500Y-106198327D01*
X173712137Y-105995741D01*
X173512259Y-105795863D01*
X173277227Y-105638820D01*
X173016074Y-105530647D01*
X172738835Y-105475500D01*
X172456165Y-105475500D01*
X172244125Y-105517678D01*
X171195218Y-104468772D01*
X171172198Y-104440722D01*
X171060280Y-104348873D01*
X170932593Y-104280623D01*
X170794045Y-104238595D01*
X170686065Y-104227960D01*
X170649960Y-104224404D01*
X170613855Y-104227960D01*
X167528774Y-104227960D01*
X167492679Y-104224405D01*
X167456584Y-104227960D01*
X167456575Y-104227960D01*
X167348595Y-104238595D01*
X167210047Y-104280623D01*
X167082360Y-104348873D01*
X166970442Y-104440722D01*
X166947426Y-104468767D01*
X163869208Y-107546986D01*
X163841163Y-107570002D01*
X163749314Y-107681920D01*
X163725786Y-107725938D01*
X163681064Y-107809607D01*
X163639035Y-107948155D01*
X163624844Y-108092240D01*
X162726040Y-108092240D01*
X162726040Y-107528896D01*
X162729595Y-107492799D01*
X162726040Y-107456702D01*
X162726040Y-107456695D01*
X162715405Y-107348715D01*
X162713662Y-107342967D01*
X162700681Y-107300178D01*
X162673377Y-107210167D01*
X162605127Y-107082480D01*
X162513278Y-106970562D01*
X162485233Y-106947546D01*
X158867606Y-103329920D01*
X158858627Y-103313121D01*
X158766778Y-103201202D01*
X158738733Y-103178186D01*
X158119228Y-102558682D01*
X158096217Y-102530643D01*
X158068178Y-102507632D01*
X158068173Y-102507627D01*
X157984299Y-102438794D01*
X157856613Y-102370544D01*
X157718065Y-102328515D01*
X157573980Y-102314324D01*
X157429895Y-102328515D01*
X157347730Y-102353440D01*
X141329665Y-102353440D01*
X141293560Y-102349884D01*
X141149474Y-102364075D01*
X141107446Y-102376824D01*
X141010927Y-102406103D01*
X140883240Y-102474353D01*
X140771322Y-102566202D01*
X140748306Y-102594247D01*
X137951876Y-105390678D01*
X137739835Y-105348500D01*
X137457165Y-105348500D01*
X137179926Y-105403647D01*
X136918773Y-105511820D01*
X136683741Y-105668863D01*
X136483863Y-105868741D01*
X136348500Y-106071327D01*
X136213137Y-105868741D01*
X136013259Y-105668863D01*
X135778227Y-105511820D01*
X135517074Y-105403647D01*
X135239835Y-105348500D01*
X134957165Y-105348500D01*
X134679926Y-105403647D01*
X134418773Y-105511820D01*
X134183741Y-105668863D01*
X133983863Y-105868741D01*
X133848500Y-106071327D01*
X133713137Y-105868741D01*
X133513259Y-105668863D01*
X133278227Y-105511820D01*
X133017074Y-105403647D01*
X132739835Y-105348500D01*
X132457165Y-105348500D01*
X132179926Y-105403647D01*
X131918773Y-105511820D01*
X131683741Y-105668863D01*
X131483863Y-105868741D01*
X131348500Y-106071327D01*
X131213137Y-105868741D01*
X131013259Y-105668863D01*
X130778227Y-105511820D01*
X130517074Y-105403647D01*
X130239835Y-105348500D01*
X129957165Y-105348500D01*
X129679926Y-105403647D01*
X129418773Y-105511820D01*
X129183741Y-105668863D01*
X128983863Y-105868741D01*
X128848500Y-106071327D01*
X128713137Y-105868741D01*
X128513259Y-105668863D01*
X128278227Y-105511820D01*
X128017074Y-105403647D01*
X127739835Y-105348500D01*
X127457165Y-105348500D01*
X127179926Y-105403647D01*
X126918773Y-105511820D01*
X126683741Y-105668863D01*
X126483863Y-105868741D01*
X126348500Y-106071327D01*
X126213137Y-105868741D01*
X126013259Y-105668863D01*
X125778227Y-105511820D01*
X125517074Y-105403647D01*
X125239835Y-105348500D01*
X124957165Y-105348500D01*
X124679926Y-105403647D01*
X124418773Y-105511820D01*
X124183741Y-105668863D01*
X123983863Y-105868741D01*
X123848500Y-106071327D01*
X123713137Y-105868741D01*
X123513259Y-105668863D01*
X123278227Y-105511820D01*
X123017074Y-105403647D01*
X122739835Y-105348500D01*
X122457165Y-105348500D01*
X122179926Y-105403647D01*
X121918773Y-105511820D01*
X121683741Y-105668863D01*
X121483863Y-105868741D01*
X121361864Y-106051327D01*
X121213137Y-105828741D01*
X121013259Y-105628863D01*
X120778227Y-105471820D01*
X120517074Y-105363647D01*
X120239835Y-105308500D01*
X119957165Y-105308500D01*
X119679926Y-105363647D01*
X119418773Y-105471820D01*
X119183741Y-105628863D01*
X118983863Y-105828741D01*
X118826820Y-106063773D01*
X118718647Y-106324926D01*
X118663500Y-106602165D01*
X118663500Y-106884835D01*
X118718647Y-107162074D01*
X118826820Y-107423227D01*
X118983863Y-107658259D01*
X119183741Y-107858137D01*
X119418773Y-108015180D01*
X119679926Y-108123353D01*
X119957165Y-108178500D01*
X120239835Y-108178500D01*
X120517074Y-108123353D01*
X120778227Y-108015180D01*
X121013259Y-107858137D01*
X121213137Y-107658259D01*
X121335136Y-107475673D01*
X121483863Y-107698259D01*
X121683741Y-107898137D01*
X121918773Y-108055180D01*
X122179926Y-108163353D01*
X122457165Y-108218500D01*
X122739835Y-108218500D01*
X123017074Y-108163353D01*
X123278227Y-108055180D01*
X123513259Y-107898137D01*
X123713137Y-107698259D01*
X123848500Y-107495673D01*
X123983863Y-107698259D01*
X124183741Y-107898137D01*
X124418773Y-108055180D01*
X124679926Y-108163353D01*
X124957165Y-108218500D01*
X125239835Y-108218500D01*
X125517074Y-108163353D01*
X125778227Y-108055180D01*
X126013259Y-107898137D01*
X126213137Y-107698259D01*
X126348500Y-107495673D01*
X126483863Y-107698259D01*
X126683741Y-107898137D01*
X126918773Y-108055180D01*
X127179926Y-108163353D01*
X127457165Y-108218500D01*
X127739835Y-108218500D01*
X128017074Y-108163353D01*
X128278227Y-108055180D01*
X128513259Y-107898137D01*
X128713137Y-107698259D01*
X128848500Y-107495673D01*
X128983863Y-107698259D01*
X129183741Y-107898137D01*
X129418773Y-108055180D01*
X129679926Y-108163353D01*
X129957165Y-108218500D01*
X130239835Y-108218500D01*
X130451876Y-108176322D01*
X132507446Y-110231893D01*
X132530462Y-110259938D01*
X132605301Y-110321357D01*
X132642380Y-110351787D01*
X132770066Y-110420037D01*
X132908615Y-110462065D01*
X133052700Y-110476256D01*
X133088805Y-110472700D01*
X133263217Y-110472700D01*
X133168773Y-110511820D01*
X132933741Y-110668863D01*
X132733863Y-110868741D01*
X132585136Y-111091327D01*
X132463137Y-110908741D01*
X132263259Y-110708863D01*
X132028227Y-110551820D01*
X131767074Y-110443647D01*
X131489835Y-110388500D01*
X131207165Y-110388500D01*
X130929926Y-110443647D01*
X130668773Y-110551820D01*
X130433741Y-110708863D01*
X130233863Y-110908741D01*
X130098500Y-111111327D01*
X129963137Y-110908741D01*
X129763259Y-110708863D01*
X129528227Y-110551820D01*
X129267074Y-110443647D01*
X128989835Y-110388500D01*
X128707165Y-110388500D01*
X128429926Y-110443647D01*
X128168773Y-110551820D01*
X127933741Y-110708863D01*
X127733863Y-110908741D01*
X127598500Y-111111327D01*
X127463137Y-110908741D01*
X127263259Y-110708863D01*
X127028227Y-110551820D01*
X126767074Y-110443647D01*
X126489835Y-110388500D01*
X126207165Y-110388500D01*
X125929926Y-110443647D01*
X125668773Y-110551820D01*
X125433741Y-110708863D01*
X125233863Y-110908741D01*
X125098500Y-111111327D01*
X124963137Y-110908741D01*
X124763259Y-110708863D01*
X124528227Y-110551820D01*
X124267074Y-110443647D01*
X123989835Y-110388500D01*
X123707165Y-110388500D01*
X123429926Y-110443647D01*
X123168773Y-110551820D01*
X122933741Y-110708863D01*
X122733863Y-110908741D01*
X122598500Y-111111327D01*
X122463137Y-110908741D01*
X122263259Y-110708863D01*
X122028227Y-110551820D01*
X121767074Y-110443647D01*
X121489835Y-110388500D01*
X121207165Y-110388500D01*
X120929926Y-110443647D01*
X120668773Y-110551820D01*
X120433741Y-110708863D01*
X120233863Y-110908741D01*
X120098500Y-111111327D01*
X119963137Y-110908741D01*
X119763259Y-110708863D01*
X119528227Y-110551820D01*
X119267074Y-110443647D01*
X118989835Y-110388500D01*
X118707165Y-110388500D01*
X118429926Y-110443647D01*
X118168773Y-110551820D01*
X117933741Y-110708863D01*
X117733863Y-110908741D01*
X117576820Y-111143773D01*
X117468647Y-111404926D01*
X117413500Y-111682165D01*
X113507520Y-111682165D01*
X113507520Y-102041914D01*
X210896200Y-102006446D01*
X210896200Y-149453600D01*
M02*
