G04 #@! TF.GenerationSoftware,KiCad,Pcbnew,(5.1.5)-3*
G04 #@! TF.CreationDate,2020-05-15T10:40:35-04:00*
G04 #@! TF.ProjectId,dmf_relay_board,646d665f-7265-46c6-9179-5f626f617264,rev?*
G04 #@! TF.SameCoordinates,Original*
G04 #@! TF.FileFunction,Paste,Top*
G04 #@! TF.FilePolarity,Positive*
%FSLAX46Y46*%
G04 Gerber Fmt 4.6, Leading zero omitted, Abs format (unit mm)*
G04 Created by KiCad (PCBNEW (5.1.5)-3) date 2020-05-15 10:40:35*
%MOMM*%
%LPD*%
G04 APERTURE LIST*
%ADD10R,1.300000X0.500000*%
%ADD11R,0.500000X1.300000*%
G04 APERTURE END LIST*
D10*
X162792000Y-123388000D03*
X162792000Y-124188000D03*
X162792000Y-124988000D03*
X162792000Y-125788000D03*
X162792000Y-126588000D03*
X162792000Y-127388000D03*
X162792000Y-128188000D03*
X162792000Y-128988000D03*
X162792000Y-129788000D03*
X162792000Y-130588000D03*
X162792000Y-131388000D03*
X162792000Y-132188000D03*
X162792000Y-132988000D03*
X162792000Y-133788000D03*
X162792000Y-134588000D03*
X162792000Y-135388000D03*
X162792000Y-136188000D03*
X162792000Y-136988000D03*
X162792000Y-137788000D03*
X162792000Y-138588000D03*
X162792000Y-139388000D03*
X162792000Y-140188000D03*
X162792000Y-140988000D03*
X162792000Y-141788000D03*
D11*
X164942000Y-143738000D03*
X165742000Y-143738000D03*
X166542000Y-143738000D03*
X167342000Y-143738000D03*
X168142000Y-143738000D03*
X168942000Y-143738000D03*
X169742000Y-143738000D03*
X170542000Y-143738000D03*
X171342000Y-143738000D03*
X172142000Y-143738000D03*
X172942000Y-143738000D03*
X173742000Y-143738000D03*
X174542000Y-143738000D03*
X175342000Y-143738000D03*
X176142000Y-143738000D03*
X176942000Y-143738000D03*
D10*
X179092000Y-141788000D03*
X179092000Y-140988000D03*
X179092000Y-140188000D03*
X179092000Y-139388000D03*
X179092000Y-138588000D03*
X179092000Y-137788000D03*
X179092000Y-136988000D03*
X179092000Y-136188000D03*
X179092000Y-135388000D03*
X179092000Y-134588000D03*
X179092000Y-133788000D03*
X179092000Y-132988000D03*
X179092000Y-132188000D03*
X179092000Y-131388000D03*
X179092000Y-130588000D03*
X179092000Y-129788000D03*
X179092000Y-128988000D03*
X179092000Y-128188000D03*
X179092000Y-127388000D03*
X179092000Y-126588000D03*
X179092000Y-125788000D03*
X179092000Y-124988000D03*
X179092000Y-124188000D03*
X179092000Y-123388000D03*
D11*
X176942000Y-121438000D03*
X176142000Y-121438000D03*
X175342000Y-121438000D03*
X174542000Y-121438000D03*
X173742000Y-121438000D03*
X172942000Y-121438000D03*
X172142000Y-121438000D03*
X171342000Y-121438000D03*
X170542000Y-121438000D03*
X169742000Y-121438000D03*
X168942000Y-121438000D03*
X168142000Y-121438000D03*
X167342000Y-121438000D03*
X166542000Y-121438000D03*
X165742000Y-121438000D03*
X164942000Y-121438000D03*
M02*
