G04 #@! TF.GenerationSoftware,KiCad,Pcbnew,(5.1.5)-3*
G04 #@! TF.CreationDate,2020-07-15T17:56:55-04:00*
G04 #@! TF.ProjectId,dmf_relay_board,646d665f-7265-46c6-9179-5f626f617264,rev?*
G04 #@! TF.SameCoordinates,Original*
G04 #@! TF.FileFunction,Legend,Top*
G04 #@! TF.FilePolarity,Positive*
%FSLAX46Y46*%
G04 Gerber Fmt 4.6, Leading zero omitted, Abs format (unit mm)*
G04 Created by KiCad (PCBNEW (5.1.5)-3) date 2020-07-15 17:56:55*
%MOMM*%
%LPD*%
G04 APERTURE LIST*
%ADD10C,0.120000*%
%ADD11C,0.200000*%
%ADD12C,0.127000*%
%ADD13C,0.150000*%
%ADD14C,0.152400*%
%ADD15C,0.254000*%
%ADD16C,0.015000*%
G04 APERTURE END LIST*
D10*
X111973500Y-100159540D02*
X211973500Y-100159540D01*
X136845782Y-123074500D02*
X137362938Y-123074500D01*
X136845782Y-121654500D02*
X137362938Y-121654500D01*
X137347458Y-125284160D02*
X136830302Y-125284160D01*
X137347458Y-126704160D02*
X136830302Y-126704160D01*
X145448760Y-124201040D02*
X142763760Y-124201040D01*
X145448760Y-126121040D02*
X145448760Y-124201040D01*
X142763760Y-126121040D02*
X145448760Y-126121040D01*
X125987280Y-122019180D02*
X123302280Y-122019180D01*
X125987280Y-123939180D02*
X125987280Y-122019180D01*
X123302280Y-123939180D02*
X125987280Y-123939180D01*
X195555560Y-141134140D02*
X195555560Y-139804140D01*
X196885560Y-141134140D02*
X195555560Y-141134140D01*
X198155560Y-141134140D02*
X198155560Y-138474140D01*
X198155560Y-138474140D02*
X200755560Y-138474140D01*
X198155560Y-141134140D02*
X200755560Y-141134140D01*
X200755560Y-141134140D02*
X200755560Y-138474140D01*
D11*
X188468180Y-143897520D02*
X190368180Y-143897520D01*
X190718180Y-148282520D02*
X190718180Y-143502520D01*
X196718180Y-148282520D02*
X190718180Y-148282520D01*
X196718180Y-143502520D02*
X196718180Y-148282520D01*
X190718180Y-143502520D02*
X196718180Y-143502520D01*
D10*
X116754840Y-123716282D02*
X116754840Y-124233438D01*
X118174840Y-123716282D02*
X118174840Y-124233438D01*
X162780980Y-121965720D02*
X163954460Y-121965720D01*
X162780980Y-122461020D02*
X162780980Y-121965720D01*
X161574480Y-122461020D02*
X162780980Y-122461020D01*
D11*
X160925180Y-122689620D02*
G75*
G03X160925180Y-122689620I-100000J0D01*
G01*
D12*
X178042000Y-142688000D02*
X178042000Y-122488000D01*
X163842000Y-142688000D02*
X178042000Y-142688000D01*
X163842000Y-122488000D02*
X163842000Y-142688000D01*
X178042000Y-122488000D02*
X163842000Y-122488000D01*
D10*
X208747500Y-114310500D02*
X208747500Y-104510500D01*
X165197500Y-114310500D02*
X165197500Y-104510500D01*
X165197500Y-114310500D02*
X208747500Y-114310500D01*
X208747500Y-104510500D02*
X165197500Y-104510500D01*
D13*
X210340500Y-105346500D02*
G75*
G03X210340500Y-105346500I-508000J0D01*
G01*
X207292500Y-105854500D02*
G75*
G03X207292500Y-105854500I-508000J0D01*
G01*
D10*
X207800500Y-104510500D02*
X207800500Y-103822500D01*
X207800500Y-103822500D02*
X166144500Y-103822500D01*
X166144500Y-103822500D02*
X166144500Y-104510500D01*
X158748500Y-114183500D02*
X158748500Y-104383500D01*
X115198500Y-114183500D02*
X115198500Y-104383500D01*
X115198500Y-114183500D02*
X158748500Y-114183500D01*
X158748500Y-104383500D02*
X115198500Y-104383500D01*
D13*
X160341500Y-105219500D02*
G75*
G03X160341500Y-105219500I-508000J0D01*
G01*
X157293500Y-105727500D02*
G75*
G03X157293500Y-105727500I-508000J0D01*
G01*
D10*
X157801500Y-104383500D02*
X157801500Y-103695500D01*
X157801500Y-103695500D02*
X116145500Y-103695500D01*
X116145500Y-103695500D02*
X116145500Y-104383500D01*
X150177500Y-132334000D02*
X152717500Y-132334000D01*
X152717500Y-132334000D02*
X152717500Y-129664000D01*
X150177500Y-129664000D02*
X111947500Y-129664000D01*
X155387500Y-129664000D02*
X152717500Y-129664000D01*
X152717500Y-145034000D02*
X152717500Y-147704000D01*
X152717500Y-145034000D02*
X114617500Y-145034000D01*
X114617500Y-145034000D02*
X114617500Y-147704000D01*
X150177500Y-132334000D02*
X150177500Y-129664000D01*
X150177500Y-132334000D02*
X114617500Y-132334000D01*
X114617500Y-132334000D02*
X114617500Y-129664000D01*
X111947500Y-129664000D02*
X111947500Y-147704000D01*
X111947500Y-147704000D02*
X155387500Y-147704000D01*
X155387500Y-147704000D02*
X155387500Y-129664000D01*
D14*
X206405480Y-139054840D02*
G75*
G03X206405480Y-139054840I-381000J0D01*
G01*
X201808080Y-138165840D02*
X210240880Y-138165840D01*
X201808080Y-127751840D02*
X201808080Y-138165840D01*
X210240880Y-127751840D02*
X201808080Y-127751840D01*
X210240880Y-138165840D02*
X210240880Y-127751840D01*
D13*
X136937693Y-121166880D02*
X136604360Y-120690690D01*
X136366264Y-121166880D02*
X136366264Y-120166880D01*
X136747217Y-120166880D01*
X136842455Y-120214500D01*
X136890074Y-120262119D01*
X136937693Y-120357357D01*
X136937693Y-120500214D01*
X136890074Y-120595452D01*
X136842455Y-120643071D01*
X136747217Y-120690690D01*
X136366264Y-120690690D01*
X137318645Y-120262119D02*
X137366264Y-120214500D01*
X137461502Y-120166880D01*
X137699598Y-120166880D01*
X137794836Y-120214500D01*
X137842455Y-120262119D01*
X137890074Y-120357357D01*
X137890074Y-120452595D01*
X137842455Y-120595452D01*
X137271026Y-121166880D01*
X137890074Y-121166880D01*
X136922213Y-128096540D02*
X136588880Y-127620350D01*
X136350784Y-128096540D02*
X136350784Y-127096540D01*
X136731737Y-127096540D01*
X136826975Y-127144160D01*
X136874594Y-127191779D01*
X136922213Y-127287017D01*
X136922213Y-127429874D01*
X136874594Y-127525112D01*
X136826975Y-127572731D01*
X136731737Y-127620350D01*
X136350784Y-127620350D01*
X137255546Y-127096540D02*
X137874594Y-127096540D01*
X137541260Y-127477493D01*
X137684118Y-127477493D01*
X137779356Y-127525112D01*
X137826975Y-127572731D01*
X137874594Y-127667969D01*
X137874594Y-127906064D01*
X137826975Y-128001302D01*
X137779356Y-128048921D01*
X137684118Y-128096540D01*
X137398403Y-128096540D01*
X137303165Y-128048921D01*
X137255546Y-128001302D01*
X131365666Y-120296631D02*
X131032333Y-120296631D01*
X131032333Y-120820440D02*
X131032333Y-119820440D01*
X131508523Y-119820440D01*
X131841857Y-119915679D02*
X131889476Y-119868060D01*
X131984714Y-119820440D01*
X132222809Y-119820440D01*
X132318047Y-119868060D01*
X132365666Y-119915679D01*
X132413285Y-120010917D01*
X132413285Y-120106155D01*
X132365666Y-120249012D01*
X131794238Y-120820440D01*
X132413285Y-120820440D01*
X143025664Y-127263420D02*
X143025664Y-126263420D01*
X143263760Y-126263420D01*
X143406617Y-126311040D01*
X143501855Y-126406278D01*
X143549474Y-126501516D01*
X143597093Y-126691992D01*
X143597093Y-126834849D01*
X143549474Y-127025325D01*
X143501855Y-127120563D01*
X143406617Y-127215801D01*
X143263760Y-127263420D01*
X143025664Y-127263420D01*
X143978045Y-126358659D02*
X144025664Y-126311040D01*
X144120902Y-126263420D01*
X144358998Y-126263420D01*
X144454236Y-126311040D01*
X144501855Y-126358659D01*
X144549474Y-126453897D01*
X144549474Y-126549135D01*
X144501855Y-126691992D01*
X143930426Y-127263420D01*
X144549474Y-127263420D01*
X123564184Y-125081560D02*
X123564184Y-124081560D01*
X123802280Y-124081560D01*
X123945137Y-124129180D01*
X124040375Y-124224418D01*
X124087994Y-124319656D01*
X124135613Y-124510132D01*
X124135613Y-124652989D01*
X124087994Y-124843465D01*
X124040375Y-124938703D01*
X123945137Y-125033941D01*
X123802280Y-125081560D01*
X123564184Y-125081560D01*
X125087994Y-125081560D02*
X124516565Y-125081560D01*
X124802280Y-125081560D02*
X124802280Y-124081560D01*
X124707041Y-124224418D01*
X124611803Y-124319656D01*
X124516565Y-124367275D01*
X192679106Y-140539220D02*
X192679106Y-141253506D01*
X192631487Y-141396363D01*
X192536249Y-141491601D01*
X192393392Y-141539220D01*
X192298154Y-141539220D01*
X193155297Y-141539220D02*
X193155297Y-140539220D01*
X193536249Y-140539220D01*
X193631487Y-140586840D01*
X193679106Y-140634459D01*
X193726725Y-140729697D01*
X193726725Y-140872554D01*
X193679106Y-140967792D01*
X193631487Y-141015411D01*
X193536249Y-141063030D01*
X193155297Y-141063030D01*
X194679106Y-141539220D02*
X194107678Y-141539220D01*
X194393392Y-141539220D02*
X194393392Y-140539220D01*
X194298154Y-140682078D01*
X194202916Y-140777316D01*
X194107678Y-140824935D01*
D15*
X199542520Y-145595823D02*
X199542520Y-146623919D01*
X199602997Y-146744871D01*
X199663473Y-146805347D01*
X199784425Y-146865823D01*
X200026330Y-146865823D01*
X200147282Y-146805347D01*
X200207759Y-146744871D01*
X200268235Y-146623919D01*
X200268235Y-145595823D01*
X200812520Y-145716776D02*
X200872997Y-145656300D01*
X200993949Y-145595823D01*
X201296330Y-145595823D01*
X201417282Y-145656300D01*
X201477759Y-145716776D01*
X201538235Y-145837728D01*
X201538235Y-145958680D01*
X201477759Y-146140109D01*
X200752044Y-146865823D01*
X201538235Y-146865823D01*
D13*
X119567220Y-124141526D02*
X119091030Y-124474860D01*
X119567220Y-124712955D02*
X118567220Y-124712955D01*
X118567220Y-124332002D01*
X118614840Y-124236764D01*
X118662459Y-124189145D01*
X118757697Y-124141526D01*
X118900554Y-124141526D01*
X118995792Y-124189145D01*
X119043411Y-124236764D01*
X119091030Y-124332002D01*
X119091030Y-124712955D01*
X119567220Y-123189145D02*
X119567220Y-123760574D01*
X119567220Y-123474860D02*
X118567220Y-123474860D01*
X118710078Y-123570098D01*
X118805316Y-123665336D01*
X118852935Y-123760574D01*
D16*
X163925369Y-116610890D02*
X163925369Y-117745587D01*
X163992116Y-117879081D01*
X164058863Y-117945828D01*
X164192357Y-118012575D01*
X164459344Y-118012575D01*
X164592838Y-117945828D01*
X164659585Y-117879081D01*
X164726332Y-117745587D01*
X164726332Y-116610890D01*
X166128017Y-118012575D02*
X165327054Y-118012575D01*
X165727535Y-118012575D02*
X165727535Y-116610890D01*
X165594042Y-116811131D01*
X165460548Y-116944625D01*
X165327054Y-117011372D01*
D13*
X203158556Y-67293420D02*
X203158556Y-66293420D01*
X203491889Y-67007706D01*
X203825222Y-66293420D01*
X203825222Y-67293420D01*
X204729984Y-66626754D02*
X204729984Y-67293420D01*
X204491889Y-66245801D02*
X204253794Y-66960087D01*
X204872841Y-66960087D01*
X119166376Y-67293420D02*
X119166376Y-66293420D01*
X119499709Y-67007706D01*
X119833042Y-66293420D01*
X119833042Y-67293420D01*
X120213995Y-66293420D02*
X120833042Y-66293420D01*
X120499709Y-66674373D01*
X120642566Y-66674373D01*
X120737804Y-66721992D01*
X120785423Y-66769611D01*
X120833042Y-66864849D01*
X120833042Y-67102944D01*
X120785423Y-67198182D01*
X120737804Y-67245801D01*
X120642566Y-67293420D01*
X120356852Y-67293420D01*
X120261614Y-67245801D01*
X120213995Y-67198182D01*
X117163976Y-134788380D02*
X117163976Y-133788380D01*
X117497309Y-134502666D01*
X117830642Y-133788380D01*
X117830642Y-134788380D01*
X118783023Y-133788380D02*
X118306833Y-133788380D01*
X118259214Y-134264571D01*
X118306833Y-134216952D01*
X118402071Y-134169333D01*
X118640166Y-134169333D01*
X118735404Y-134216952D01*
X118783023Y-134264571D01*
X118830642Y-134359809D01*
X118830642Y-134597904D01*
X118783023Y-134693142D01*
X118735404Y-134740761D01*
X118640166Y-134788380D01*
X118402071Y-134788380D01*
X118306833Y-134740761D01*
X118259214Y-134693142D01*
X205163976Y-140788380D02*
X205163976Y-139788380D01*
X205497309Y-140502666D01*
X205830642Y-139788380D01*
X205830642Y-140788380D01*
X206735404Y-139788380D02*
X206544928Y-139788380D01*
X206449690Y-139836000D01*
X206402071Y-139883619D01*
X206306833Y-140026476D01*
X206259214Y-140216952D01*
X206259214Y-140597904D01*
X206306833Y-140693142D01*
X206354452Y-140740761D01*
X206449690Y-140788380D01*
X206640166Y-140788380D01*
X206735404Y-140740761D01*
X206783023Y-140693142D01*
X206830642Y-140597904D01*
X206830642Y-140359809D01*
X206783023Y-140264571D01*
X206735404Y-140216952D01*
X206640166Y-140169333D01*
X206449690Y-140169333D01*
X206354452Y-140216952D01*
X206306833Y-140264571D01*
X206259214Y-140359809D01*
X119166376Y-55293420D02*
X119166376Y-54293420D01*
X119499709Y-55007706D01*
X119833042Y-54293420D01*
X119833042Y-55293420D01*
X120833042Y-55293420D02*
X120261614Y-55293420D01*
X120547328Y-55293420D02*
X120547328Y-54293420D01*
X120452090Y-54436278D01*
X120356852Y-54531516D01*
X120261614Y-54579135D01*
X203158556Y-55293420D02*
X203158556Y-54293420D01*
X203491889Y-55007706D01*
X203825222Y-54293420D01*
X203825222Y-55293420D01*
X204253794Y-54388659D02*
X204301413Y-54341040D01*
X204396651Y-54293420D01*
X204634746Y-54293420D01*
X204729984Y-54341040D01*
X204777603Y-54388659D01*
X204825222Y-54483897D01*
X204825222Y-54579135D01*
X204777603Y-54721992D01*
X204206175Y-55293420D01*
X204825222Y-55293420D01*
X186639166Y-115974880D02*
X186639166Y-116689166D01*
X186591547Y-116832023D01*
X186496309Y-116927261D01*
X186353452Y-116974880D01*
X186258214Y-116974880D01*
X187067738Y-116070119D02*
X187115357Y-116022500D01*
X187210595Y-115974880D01*
X187448690Y-115974880D01*
X187543928Y-116022500D01*
X187591547Y-116070119D01*
X187639166Y-116165357D01*
X187639166Y-116260595D01*
X187591547Y-116403452D01*
X187020119Y-116974880D01*
X187639166Y-116974880D01*
X180090486Y-147657511D02*
X179757153Y-147657511D01*
X179757153Y-148181320D02*
X179757153Y-147181320D01*
X180233343Y-147181320D01*
X181138105Y-148181320D02*
X180566677Y-148181320D01*
X180852391Y-148181320D02*
X180852391Y-147181320D01*
X180757153Y-147324178D01*
X180661915Y-147419416D01*
X180566677Y-147467035D01*
X136640166Y-115847880D02*
X136640166Y-116562166D01*
X136592547Y-116705023D01*
X136497309Y-116800261D01*
X136354452Y-116847880D01*
X136259214Y-116847880D01*
X137021119Y-115847880D02*
X137640166Y-115847880D01*
X137306833Y-116228833D01*
X137449690Y-116228833D01*
X137544928Y-116276452D01*
X137592547Y-116324071D01*
X137640166Y-116419309D01*
X137640166Y-116657404D01*
X137592547Y-116752642D01*
X137544928Y-116800261D01*
X137449690Y-116847880D01*
X137163976Y-116847880D01*
X137068738Y-116800261D01*
X137021119Y-116752642D01*
X156694166Y-139398285D02*
X156694166Y-138922095D01*
X156979880Y-139493523D02*
X155979880Y-139160190D01*
X156979880Y-138826857D01*
X156979880Y-137969714D02*
X156979880Y-138541142D01*
X156979880Y-138255428D02*
X155979880Y-138255428D01*
X156122738Y-138350666D01*
X156217976Y-138445904D01*
X156265595Y-138541142D01*
X208156560Y-126700873D02*
X208870846Y-126700873D01*
X209013703Y-126748492D01*
X209108941Y-126843730D01*
X209156560Y-126986587D01*
X209156560Y-127081825D01*
X209156560Y-125700873D02*
X209156560Y-126272301D01*
X209156560Y-125986587D02*
X208156560Y-125986587D01*
X208299418Y-126081825D01*
X208394656Y-126177063D01*
X208442275Y-126272301D01*
X200888860Y-134141316D02*
X199888860Y-134141316D01*
X200365051Y-134141316D02*
X200365051Y-133569887D01*
X200888860Y-133569887D02*
X199888860Y-133569887D01*
X199888860Y-133236554D02*
X200888860Y-132903220D01*
X199888860Y-132569887D01*
X200888860Y-132236554D02*
X199888860Y-132236554D01*
X199888860Y-131855601D01*
X199936480Y-131760363D01*
X199984099Y-131712744D01*
X200079337Y-131665125D01*
X200222194Y-131665125D01*
X200317432Y-131712744D01*
X200365051Y-131760363D01*
X200412670Y-131855601D01*
X200412670Y-132236554D01*
X200841241Y-131284173D02*
X200888860Y-131141316D01*
X200888860Y-130903220D01*
X200841241Y-130807982D01*
X200793622Y-130760363D01*
X200698384Y-130712744D01*
X200603146Y-130712744D01*
X200507908Y-130760363D01*
X200460289Y-130807982D01*
X200412670Y-130903220D01*
X200365051Y-131093697D01*
X200317432Y-131188935D01*
X200269813Y-131236554D01*
X200174575Y-131284173D01*
X200079337Y-131284173D01*
X199984099Y-131236554D01*
X199936480Y-131188935D01*
X199888860Y-131093697D01*
X199888860Y-130855601D01*
X199936480Y-130712744D01*
M02*
