G04 #@! TF.GenerationSoftware,KiCad,Pcbnew,(5.1.5)-3*
G04 #@! TF.CreationDate,2020-05-15T10:40:35-04:00*
G04 #@! TF.ProjectId,dmf_relay_board,646d665f-7265-46c6-9179-5f626f617264,rev?*
G04 #@! TF.SameCoordinates,Original*
G04 #@! TF.FileFunction,Copper,L2,Inr*
G04 #@! TF.FilePolarity,Positive*
%FSLAX46Y46*%
G04 Gerber Fmt 4.6, Leading zero omitted, Abs format (unit mm)*
G04 Created by KiCad (PCBNEW (5.1.5)-3) date 2020-05-15 10:40:35*
%MOMM*%
%LPD*%
G04 APERTURE LIST*
%ADD10C,1.600000*%
%ADD11C,0.604800*%
%ADD12R,1.600000X1.600000*%
%ADD13O,1.600000X1.600000*%
%ADD14R,1.800000X1.800000*%
%ADD15C,1.800000*%
%ADD16C,2.032000*%
%ADD17C,1.400000*%
%ADD18O,1.400000X1.400000*%
%ADD19C,0.600000*%
%ADD20C,0.200000*%
%ADD21C,0.254000*%
G04 APERTURE END LIST*
D10*
X120027380Y-95111540D03*
X122527380Y-95071540D03*
X125027380Y-95071540D03*
X127527380Y-95071540D03*
X130027380Y-95071540D03*
X132527380Y-95071540D03*
X135027380Y-95071540D03*
X155027380Y-95111540D03*
X152527380Y-95111540D03*
X150027380Y-95111540D03*
X147527380Y-95111540D03*
X145027380Y-95111540D03*
X142527380Y-95111540D03*
X140027380Y-95111540D03*
X137527380Y-95071540D03*
X153777380Y-90071540D03*
X151277380Y-90071540D03*
X148777380Y-90071540D03*
X146277380Y-90071540D03*
X143777380Y-90071540D03*
X141277380Y-90071540D03*
X138777380Y-90071540D03*
X118777380Y-90031540D03*
X121277380Y-90031540D03*
X123777380Y-90031540D03*
X126277380Y-90031540D03*
X128777380Y-90031540D03*
X131277380Y-90031540D03*
X133777380Y-90071540D03*
X136277380Y-90071540D03*
X170026380Y-95238540D03*
X172526380Y-95198540D03*
X175026380Y-95198540D03*
X177526380Y-95198540D03*
X180026380Y-95198540D03*
X182526380Y-95198540D03*
X185026380Y-95198540D03*
X205026380Y-95238540D03*
X202526380Y-95238540D03*
X200026380Y-95238540D03*
X197526380Y-95238540D03*
X195026380Y-95238540D03*
X192526380Y-95238540D03*
X190026380Y-95238540D03*
X187526380Y-95198540D03*
X203776380Y-90198540D03*
X201276380Y-90198540D03*
X198776380Y-90198540D03*
X196276380Y-90198540D03*
X193776380Y-90198540D03*
X191276380Y-90198540D03*
X188776380Y-90198540D03*
X168776380Y-90158540D03*
X171276380Y-90158540D03*
X173776380Y-90158540D03*
X176276380Y-90158540D03*
X178776380Y-90158540D03*
X181276380Y-90158540D03*
X183776380Y-90198540D03*
X186276380Y-90198540D03*
D11*
X150734500Y-60864100D03*
X148789500Y-58919100D03*
X150734500Y-64754100D03*
X148789500Y-64754100D03*
X150734500Y-62809100D03*
X148789500Y-62809100D03*
X148789500Y-60864100D03*
X150734500Y-58919100D03*
X148789500Y-56974100D03*
X150734500Y-55029100D03*
X148789500Y-55029100D03*
X150734500Y-56974100D03*
X152679500Y-55029100D03*
X168848500Y-69166200D03*
X166098500Y-69166200D03*
X163348500Y-69166200D03*
X160598500Y-69166200D03*
X160598500Y-55416200D03*
X163348500Y-63666200D03*
X157848500Y-63666200D03*
X168848500Y-63666200D03*
X166098500Y-63666200D03*
X160598500Y-66416200D03*
X160598500Y-63666200D03*
X157848500Y-69166200D03*
X157848500Y-66416200D03*
X155098500Y-69166200D03*
X168848500Y-66416200D03*
X166098500Y-66416200D03*
X163348500Y-66416200D03*
X155098500Y-66416200D03*
X163348500Y-60916200D03*
X160598500Y-60916200D03*
X166098500Y-58166200D03*
X155098500Y-63666200D03*
X168848500Y-58166200D03*
X157848500Y-60916200D03*
X168848500Y-60916200D03*
X166098500Y-60916200D03*
X155098500Y-60916200D03*
X168848500Y-55416200D03*
X157848500Y-55416200D03*
X163348500Y-58166200D03*
X157848500Y-58166200D03*
X155098500Y-58166200D03*
X163348500Y-55416200D03*
X166098500Y-55416200D03*
X160598500Y-58166200D03*
X155098500Y-55416200D03*
D10*
X186347500Y-111910500D03*
X183847500Y-111910500D03*
X181347500Y-111950500D03*
X178847500Y-111950500D03*
X176347500Y-111950500D03*
X173847500Y-111950500D03*
X171347500Y-111950500D03*
X168847500Y-111950500D03*
X188847500Y-111910500D03*
X191347500Y-111910500D03*
X193847500Y-111910500D03*
X196347500Y-111910500D03*
X198847500Y-111910500D03*
X201347500Y-111910500D03*
X203847500Y-111910500D03*
X187597500Y-106910500D03*
X190097500Y-106870500D03*
X192597500Y-106870500D03*
X195097500Y-106870500D03*
X197597500Y-106870500D03*
X200097500Y-106870500D03*
X202597500Y-106870500D03*
X205097500Y-106870500D03*
X185097500Y-106910500D03*
X182597500Y-106910500D03*
X180097500Y-106910500D03*
X177597500Y-106910500D03*
X175097500Y-106910500D03*
X172597500Y-106910500D03*
X170097500Y-106870500D03*
D11*
X152679500Y-60864100D03*
X152679500Y-58919100D03*
X152679500Y-64754100D03*
X152679500Y-62809100D03*
X175952140Y-55943500D03*
X152679500Y-56974100D03*
X172062140Y-63723500D03*
X172062140Y-55943500D03*
X172062140Y-59833500D03*
X175952140Y-63723500D03*
X175952140Y-59833500D03*
D10*
X136348500Y-111783500D03*
X133848500Y-111783500D03*
X131348500Y-111823500D03*
X128848500Y-111823500D03*
X126348500Y-111823500D03*
X123848500Y-111823500D03*
X121348500Y-111823500D03*
X118848500Y-111823500D03*
X138848500Y-111783500D03*
X141348500Y-111783500D03*
X143848500Y-111783500D03*
X146348500Y-111783500D03*
X148848500Y-111783500D03*
X151348500Y-111783500D03*
X153848500Y-111783500D03*
X137598500Y-106783500D03*
X140098500Y-106743500D03*
X142598500Y-106743500D03*
X145098500Y-106743500D03*
X147598500Y-106743500D03*
X150098500Y-106743500D03*
X152598500Y-106743500D03*
X155098500Y-106743500D03*
X135098500Y-106783500D03*
X132598500Y-106783500D03*
X130098500Y-106783500D03*
X127598500Y-106783500D03*
X125098500Y-106783500D03*
X122598500Y-106783500D03*
X120098500Y-106743500D03*
D12*
X151447500Y-131064000D03*
D13*
X118427500Y-146304000D03*
X148907500Y-131064000D03*
X120967500Y-146304000D03*
X146367500Y-131064000D03*
X123507500Y-146304000D03*
X143827500Y-131064000D03*
X126047500Y-146304000D03*
X141287500Y-131064000D03*
X128587500Y-146304000D03*
X138747500Y-131064000D03*
X131127500Y-146304000D03*
X136207500Y-131064000D03*
X133667500Y-146304000D03*
X133667500Y-131064000D03*
X136207500Y-146304000D03*
X131127500Y-131064000D03*
X138747500Y-146304000D03*
X128587500Y-131064000D03*
X141287500Y-146304000D03*
X126047500Y-131064000D03*
X143827500Y-146304000D03*
X123507500Y-131064000D03*
X146367500Y-146304000D03*
X120967500Y-131064000D03*
X148907500Y-146304000D03*
X118427500Y-131064000D03*
X151447500Y-146304000D03*
X115887500Y-131064000D03*
X115887500Y-146304000D03*
D14*
X132397500Y-123253500D03*
D15*
X129857500Y-123253500D03*
D16*
X196664580Y-145000980D03*
X191584580Y-145000980D03*
D17*
X125031500Y-123380500D03*
D18*
X117411500Y-123380500D03*
D19*
X173558200Y-140553440D03*
X162623500Y-145859500D03*
X173926500Y-146812000D03*
X171503340Y-117215920D03*
X185125360Y-132938000D03*
X189369700Y-137637999D03*
X185214260Y-136138000D03*
X189400180Y-134437999D03*
X185244740Y-139338000D03*
X160213040Y-122722640D03*
X160150118Y-123861800D03*
X157909620Y-131234269D03*
X157922359Y-130048618D03*
X157965927Y-128890104D03*
X158006154Y-127728249D03*
X157997380Y-126517393D03*
X158059065Y-125376995D03*
X160152080Y-125963680D03*
X160147000Y-124912120D03*
X173553120Y-132443220D03*
X172626020Y-135366760D03*
X171776020Y-132410200D03*
X170926020Y-135402320D03*
X170064060Y-132316220D03*
X169214060Y-135498840D03*
X168382580Y-134594794D03*
D20*
X201996040Y-92699840D02*
X205120240Y-92699840D01*
X200026380Y-95238540D02*
X200026380Y-94669500D01*
X200026380Y-94669500D02*
X201996040Y-92699840D01*
X205120240Y-92699840D02*
X205262480Y-92699840D01*
X205120240Y-92699840D02*
X205369160Y-92699840D01*
X205369160Y-92699840D02*
X206634080Y-91434920D01*
X206634080Y-91434920D02*
X206634080Y-88036400D01*
X206634080Y-88036400D02*
X192669160Y-74071480D01*
X192669160Y-74071480D02*
X178475640Y-74071480D01*
X178475640Y-74071480D02*
X174132240Y-69728080D01*
X174132240Y-58013600D02*
X172062140Y-55943500D01*
X174132240Y-69728080D02*
X174132240Y-58013600D01*
X205026380Y-95238540D02*
X205035180Y-95238540D01*
X205026380Y-95238540D02*
X207670400Y-92594520D01*
X207670400Y-92594520D02*
X207670400Y-87696040D01*
X207670400Y-87696040D02*
X192262760Y-72288400D01*
X192262760Y-72288400D02*
X180223160Y-72288400D01*
X180223160Y-72288400D02*
X177733960Y-69799200D01*
X177733960Y-57725320D02*
X175952140Y-55943500D01*
X177733960Y-69799200D02*
X177733960Y-57725320D01*
X153667460Y-59597240D02*
X155098500Y-58166200D01*
X153667460Y-80200500D02*
X153667460Y-59597240D01*
X151490680Y-82377280D02*
X153667460Y-80200500D01*
X151471640Y-82377280D02*
X151490680Y-82377280D01*
X143777380Y-90071540D02*
X151471640Y-82377280D01*
X156618940Y-59395760D02*
X157848500Y-58166200D01*
X156618940Y-90078560D02*
X156618940Y-59395760D01*
X154630120Y-92067380D02*
X156618940Y-90078560D01*
X147114260Y-92067380D02*
X154630120Y-92067380D01*
X145027380Y-95111540D02*
X145027380Y-94154260D01*
X145027380Y-94154260D02*
X147114260Y-92067380D01*
X184774900Y-97950020D02*
X187526380Y-95198540D01*
X159435800Y-59328900D02*
X159435800Y-89636600D01*
X160598500Y-58166200D02*
X159435800Y-59328900D01*
X159435800Y-89636600D02*
X159453580Y-89654380D01*
X159453580Y-89654380D02*
X167711120Y-97950020D01*
X167711120Y-97950020D02*
X184774900Y-97950020D01*
X172526380Y-95198540D02*
X172526380Y-94642360D01*
X172526380Y-94642360D02*
X171201080Y-93317060D01*
X171201080Y-93317060D02*
X165836600Y-93317060D01*
X165836600Y-93317060D02*
X162336480Y-89816940D01*
X162336480Y-59194700D02*
X163309300Y-58221880D01*
X162336480Y-89816940D02*
X162336480Y-59194700D01*
X178776380Y-90158540D02*
X178776380Y-89391240D01*
X178776380Y-89391240D02*
X165308280Y-75923140D01*
X165285420Y-75923140D02*
X165158420Y-75796140D01*
X165308280Y-75923140D02*
X165285420Y-75923140D01*
X165158420Y-65536278D02*
X165158420Y-64546122D01*
X165148499Y-65546199D02*
X165158420Y-65536278D01*
X165148499Y-67286201D02*
X165148499Y-65546199D01*
X165148499Y-64536201D02*
X165148499Y-59116201D01*
X165158420Y-67296122D02*
X165148499Y-67286201D01*
X165148499Y-59116201D02*
X166098500Y-58166200D01*
X165158420Y-68286278D02*
X165158420Y-67296122D01*
X165148499Y-68296199D02*
X165158420Y-68286278D01*
X165158420Y-64546122D02*
X165148499Y-64536201D01*
X165148499Y-70036201D02*
X165148499Y-68296199D01*
X165158420Y-70046122D02*
X165148499Y-70036201D01*
X165158420Y-75796140D02*
X165158420Y-70046122D01*
X167764460Y-59278520D02*
X167764460Y-73593960D01*
X168816020Y-58226960D02*
X167764460Y-59278520D01*
X193776380Y-88475600D02*
X193776380Y-90198540D01*
X167764460Y-73593960D02*
X176004220Y-81833720D01*
X176004220Y-81833720D02*
X187134500Y-81833720D01*
X187134500Y-81833720D02*
X193776380Y-88475600D01*
X175026380Y-95198540D02*
X175026380Y-95829060D01*
X156138880Y-64724280D02*
X155107640Y-63693040D01*
X156138880Y-82710040D02*
X156138880Y-64724280D01*
X148777380Y-90071540D02*
X156138880Y-82710040D01*
X158798501Y-89255359D02*
X158798501Y-64616201D01*
X158798501Y-64616201D02*
X157848500Y-63666200D01*
X155402280Y-92651580D02*
X158798501Y-89255359D01*
X151404320Y-92651580D02*
X155402280Y-92651580D01*
X150027380Y-95111540D02*
X150027380Y-94028520D01*
X150027380Y-94028520D02*
X151404320Y-92651580D01*
X161706560Y-64774260D02*
X161706560Y-91028520D01*
X161706560Y-91028520D02*
X164561520Y-93883480D01*
X160598500Y-63666200D02*
X161706560Y-64774260D01*
X168028620Y-97353120D02*
X180371800Y-97353120D01*
X164561520Y-93883480D02*
X164561520Y-93886020D01*
X180371800Y-97353120D02*
X182526380Y-95198540D01*
X164561520Y-93886020D02*
X168028620Y-97353120D01*
X168776380Y-90158540D02*
X168776380Y-90143060D01*
X168776380Y-90143060D02*
X164622480Y-85989160D01*
X164622480Y-64985900D02*
X163311840Y-63675260D01*
X164622480Y-85989160D02*
X164622480Y-64985900D01*
X183776380Y-90198540D02*
X183776380Y-89042000D01*
X178587400Y-83853020D02*
X178587400Y-83850480D01*
X183776380Y-89042000D02*
X178587400Y-83853020D01*
X166139960Y-63666200D02*
X166098500Y-63666200D01*
X167124380Y-64688720D02*
X166131240Y-63695580D01*
X175160940Y-83853020D02*
X167352980Y-76045060D01*
X178587400Y-83853020D02*
X175160940Y-83853020D01*
X167352980Y-76045060D02*
X167340280Y-76045060D01*
X167124380Y-75829160D02*
X167124380Y-64688720D01*
X167340280Y-76045060D02*
X167124380Y-75829160D01*
X198776380Y-90198540D02*
X198776380Y-89271900D01*
X198776380Y-89271900D02*
X189590680Y-80086200D01*
X189590680Y-80086200D02*
X175968660Y-80086200D01*
X175968660Y-80086200D02*
X170235880Y-74353420D01*
X170235880Y-64897000D02*
X169011600Y-63672720D01*
X170235880Y-74353420D02*
X170235880Y-64897000D01*
X173776380Y-90158540D02*
X173776380Y-89466160D01*
X150734500Y-55029100D02*
X149884499Y-55879101D01*
X114213640Y-94173040D02*
X114213640Y-87858600D01*
X146193139Y-55879101D02*
X149884499Y-55879101D01*
X114213640Y-87858600D02*
X146193139Y-55879101D01*
X134620000Y-97977960D02*
X118018560Y-97977960D01*
X118018560Y-97977960D02*
X114213640Y-94173040D01*
X136727381Y-95871539D02*
X136726421Y-95871539D01*
X137527380Y-95071540D02*
X136727381Y-95871539D01*
X136726421Y-95871539D02*
X134620000Y-97977960D01*
X127527380Y-95071540D02*
X127527380Y-95690360D01*
X115371880Y-93756480D02*
X115371880Y-88635840D01*
X115371880Y-88635840D02*
X146083619Y-57924101D01*
X146083619Y-57924101D02*
X149784499Y-57924101D01*
X150734500Y-56974100D02*
X149784499Y-57924101D01*
X128005840Y-97088960D02*
X118704360Y-97088960D01*
X118704360Y-97088960D02*
X115371880Y-93756480D01*
X130027380Y-95071540D02*
X129227381Y-95871539D01*
X129227381Y-95871539D02*
X129223261Y-95871539D01*
X129223261Y-95871539D02*
X128005840Y-97088960D01*
X149770560Y-59883040D02*
X150734500Y-58919100D01*
X146370040Y-59883040D02*
X149770560Y-59883040D01*
X116798090Y-89454990D02*
X146370040Y-59883040D01*
X116798090Y-91659710D02*
X116798090Y-89454990D01*
X117668040Y-92529660D02*
X116798090Y-91659710D01*
X121127520Y-92529660D02*
X117668040Y-92529660D01*
X122527380Y-93929520D02*
X121127520Y-92529660D01*
X122527380Y-95071540D02*
X122527380Y-93929520D01*
X146949160Y-64434720D02*
X146949160Y-62890400D01*
X146949160Y-62890400D02*
X148010880Y-61828680D01*
X149769920Y-61828680D02*
X150734500Y-60864100D01*
X148010880Y-61828680D02*
X149769920Y-61828680D01*
X122152339Y-89231541D02*
X146949160Y-64434720D01*
X122077379Y-89231541D02*
X122152339Y-89231541D01*
X121277380Y-90031540D02*
X122077379Y-89231541D01*
X149819360Y-63724240D02*
X150734500Y-62809100D01*
X149819360Y-68991480D02*
X149819360Y-63724240D01*
X129577379Y-89231541D02*
X129579299Y-89231541D01*
X128777380Y-90031540D02*
X129577379Y-89231541D01*
X129579299Y-89231541D02*
X149819360Y-68991480D01*
X150764240Y-75584680D02*
X150764240Y-65242440D01*
X150734500Y-65212700D02*
X150734500Y-64754100D01*
X150759160Y-65237360D02*
X150734500Y-65212700D01*
X136277380Y-90071540D02*
X150764240Y-75584680D01*
D21*
G36*
X209443320Y-148107400D02*
G01*
X114747040Y-148107400D01*
X114747040Y-147180112D01*
X114772863Y-147218759D01*
X114972741Y-147418637D01*
X115207773Y-147575680D01*
X115468926Y-147683853D01*
X115746165Y-147739000D01*
X116028835Y-147739000D01*
X116306074Y-147683853D01*
X116567227Y-147575680D01*
X116802259Y-147418637D01*
X117002137Y-147218759D01*
X117157500Y-146986241D01*
X117312863Y-147218759D01*
X117512741Y-147418637D01*
X117747773Y-147575680D01*
X118008926Y-147683853D01*
X118286165Y-147739000D01*
X118568835Y-147739000D01*
X118846074Y-147683853D01*
X119107227Y-147575680D01*
X119342259Y-147418637D01*
X119542137Y-147218759D01*
X119697500Y-146986241D01*
X119852863Y-147218759D01*
X120052741Y-147418637D01*
X120287773Y-147575680D01*
X120548926Y-147683853D01*
X120826165Y-147739000D01*
X121108835Y-147739000D01*
X121386074Y-147683853D01*
X121647227Y-147575680D01*
X121882259Y-147418637D01*
X122082137Y-147218759D01*
X122237500Y-146986241D01*
X122392863Y-147218759D01*
X122592741Y-147418637D01*
X122827773Y-147575680D01*
X123088926Y-147683853D01*
X123366165Y-147739000D01*
X123648835Y-147739000D01*
X123926074Y-147683853D01*
X124187227Y-147575680D01*
X124422259Y-147418637D01*
X124622137Y-147218759D01*
X124777500Y-146986241D01*
X124932863Y-147218759D01*
X125132741Y-147418637D01*
X125367773Y-147575680D01*
X125628926Y-147683853D01*
X125906165Y-147739000D01*
X126188835Y-147739000D01*
X126466074Y-147683853D01*
X126727227Y-147575680D01*
X126962259Y-147418637D01*
X127162137Y-147218759D01*
X127317500Y-146986241D01*
X127472863Y-147218759D01*
X127672741Y-147418637D01*
X127907773Y-147575680D01*
X128168926Y-147683853D01*
X128446165Y-147739000D01*
X128728835Y-147739000D01*
X129006074Y-147683853D01*
X129267227Y-147575680D01*
X129502259Y-147418637D01*
X129702137Y-147218759D01*
X129857500Y-146986241D01*
X130012863Y-147218759D01*
X130212741Y-147418637D01*
X130447773Y-147575680D01*
X130708926Y-147683853D01*
X130986165Y-147739000D01*
X131268835Y-147739000D01*
X131546074Y-147683853D01*
X131807227Y-147575680D01*
X132042259Y-147418637D01*
X132242137Y-147218759D01*
X132397500Y-146986241D01*
X132552863Y-147218759D01*
X132752741Y-147418637D01*
X132987773Y-147575680D01*
X133248926Y-147683853D01*
X133526165Y-147739000D01*
X133808835Y-147739000D01*
X134086074Y-147683853D01*
X134347227Y-147575680D01*
X134582259Y-147418637D01*
X134782137Y-147218759D01*
X134937500Y-146986241D01*
X135092863Y-147218759D01*
X135292741Y-147418637D01*
X135527773Y-147575680D01*
X135788926Y-147683853D01*
X136066165Y-147739000D01*
X136348835Y-147739000D01*
X136626074Y-147683853D01*
X136887227Y-147575680D01*
X137122259Y-147418637D01*
X137322137Y-147218759D01*
X137477500Y-146986241D01*
X137632863Y-147218759D01*
X137832741Y-147418637D01*
X138067773Y-147575680D01*
X138328926Y-147683853D01*
X138606165Y-147739000D01*
X138888835Y-147739000D01*
X139166074Y-147683853D01*
X139427227Y-147575680D01*
X139662259Y-147418637D01*
X139862137Y-147218759D01*
X140017500Y-146986241D01*
X140172863Y-147218759D01*
X140372741Y-147418637D01*
X140607773Y-147575680D01*
X140868926Y-147683853D01*
X141146165Y-147739000D01*
X141428835Y-147739000D01*
X141706074Y-147683853D01*
X141967227Y-147575680D01*
X142202259Y-147418637D01*
X142402137Y-147218759D01*
X142557500Y-146986241D01*
X142712863Y-147218759D01*
X142912741Y-147418637D01*
X143147773Y-147575680D01*
X143408926Y-147683853D01*
X143686165Y-147739000D01*
X143968835Y-147739000D01*
X144246074Y-147683853D01*
X144507227Y-147575680D01*
X144742259Y-147418637D01*
X144942137Y-147218759D01*
X145097500Y-146986241D01*
X145252863Y-147218759D01*
X145452741Y-147418637D01*
X145687773Y-147575680D01*
X145948926Y-147683853D01*
X146226165Y-147739000D01*
X146508835Y-147739000D01*
X146786074Y-147683853D01*
X147047227Y-147575680D01*
X147282259Y-147418637D01*
X147482137Y-147218759D01*
X147637500Y-146986241D01*
X147792863Y-147218759D01*
X147992741Y-147418637D01*
X148227773Y-147575680D01*
X148488926Y-147683853D01*
X148766165Y-147739000D01*
X149048835Y-147739000D01*
X149326074Y-147683853D01*
X149587227Y-147575680D01*
X149822259Y-147418637D01*
X150022137Y-147218759D01*
X150177500Y-146986241D01*
X150332863Y-147218759D01*
X150532741Y-147418637D01*
X150767773Y-147575680D01*
X151028926Y-147683853D01*
X151306165Y-147739000D01*
X151588835Y-147739000D01*
X151866074Y-147683853D01*
X152127227Y-147575680D01*
X152362259Y-147418637D01*
X152562137Y-147218759D01*
X152719180Y-146983727D01*
X152827353Y-146722574D01*
X152882500Y-146445335D01*
X152882500Y-146162665D01*
X152827353Y-145885426D01*
X152778470Y-145767411D01*
X161688500Y-145767411D01*
X161688500Y-145951589D01*
X161724432Y-146132229D01*
X161794914Y-146302389D01*
X161897238Y-146455528D01*
X162027472Y-146585762D01*
X162180611Y-146688086D01*
X162350771Y-146758568D01*
X162531411Y-146794500D01*
X162715589Y-146794500D01*
X162896229Y-146758568D01*
X162989556Y-146719911D01*
X172991500Y-146719911D01*
X172991500Y-146904089D01*
X173027432Y-147084729D01*
X173097914Y-147254889D01*
X173200238Y-147408028D01*
X173330472Y-147538262D01*
X173483611Y-147640586D01*
X173653771Y-147711068D01*
X173834411Y-147747000D01*
X174018589Y-147747000D01*
X174199229Y-147711068D01*
X174369389Y-147640586D01*
X174522528Y-147538262D01*
X174652762Y-147408028D01*
X174755086Y-147254889D01*
X174825568Y-147084729D01*
X174861500Y-146904089D01*
X174861500Y-146719911D01*
X174825568Y-146539271D01*
X174755086Y-146369111D01*
X174652762Y-146215972D01*
X174584593Y-146147803D01*
X190617362Y-146147803D01*
X190715058Y-146413840D01*
X191007401Y-146556328D01*
X191321924Y-146639044D01*
X191646542Y-146658811D01*
X191968778Y-146614868D01*
X192276250Y-146508904D01*
X192454102Y-146413840D01*
X192551798Y-146147803D01*
X191584580Y-145180585D01*
X190617362Y-146147803D01*
X174584593Y-146147803D01*
X174522528Y-146085738D01*
X174369389Y-145983414D01*
X174199229Y-145912932D01*
X174018589Y-145877000D01*
X173834411Y-145877000D01*
X173653771Y-145912932D01*
X173483611Y-145983414D01*
X173330472Y-146085738D01*
X173200238Y-146215972D01*
X173097914Y-146369111D01*
X173027432Y-146539271D01*
X172991500Y-146719911D01*
X162989556Y-146719911D01*
X163066389Y-146688086D01*
X163219528Y-146585762D01*
X163349762Y-146455528D01*
X163452086Y-146302389D01*
X163522568Y-146132229D01*
X163558500Y-145951589D01*
X163558500Y-145767411D01*
X163522568Y-145586771D01*
X163452086Y-145416611D01*
X163349762Y-145263472D01*
X163219528Y-145133238D01*
X163114323Y-145062942D01*
X189926749Y-145062942D01*
X189970692Y-145385178D01*
X190076656Y-145692650D01*
X190171720Y-145870502D01*
X190437757Y-145968198D01*
X191404975Y-145000980D01*
X191764185Y-145000980D01*
X192731403Y-145968198D01*
X192997440Y-145870502D01*
X193139928Y-145578159D01*
X193222644Y-145263636D01*
X193242411Y-144939018D01*
X193228686Y-144838371D01*
X195013580Y-144838371D01*
X195013580Y-145163589D01*
X195077027Y-145482559D01*
X195201483Y-145783022D01*
X195382165Y-146053431D01*
X195612129Y-146283395D01*
X195882538Y-146464077D01*
X196183001Y-146588533D01*
X196501971Y-146651980D01*
X196827189Y-146651980D01*
X197146159Y-146588533D01*
X197446622Y-146464077D01*
X197717031Y-146283395D01*
X197946995Y-146053431D01*
X198127677Y-145783022D01*
X198252133Y-145482559D01*
X198315580Y-145163589D01*
X198315580Y-144838371D01*
X198252133Y-144519401D01*
X198167829Y-144315872D01*
X203738500Y-144315872D01*
X203738500Y-144756128D01*
X203824390Y-145187925D01*
X203992869Y-145594669D01*
X204237462Y-145960729D01*
X204548771Y-146272038D01*
X204914831Y-146516631D01*
X205321575Y-146685110D01*
X205753372Y-146771000D01*
X206193628Y-146771000D01*
X206625425Y-146685110D01*
X207032169Y-146516631D01*
X207398229Y-146272038D01*
X207709538Y-145960729D01*
X207954131Y-145594669D01*
X208122610Y-145187925D01*
X208208500Y-144756128D01*
X208208500Y-144315872D01*
X208122610Y-143884075D01*
X207954131Y-143477331D01*
X207709538Y-143111271D01*
X207398229Y-142799962D01*
X207032169Y-142555369D01*
X206625425Y-142386890D01*
X206193628Y-142301000D01*
X205753372Y-142301000D01*
X205321575Y-142386890D01*
X204914831Y-142555369D01*
X204548771Y-142799962D01*
X204237462Y-143111271D01*
X203992869Y-143477331D01*
X203824390Y-143884075D01*
X203738500Y-144315872D01*
X198167829Y-144315872D01*
X198127677Y-144218938D01*
X197946995Y-143948529D01*
X197717031Y-143718565D01*
X197446622Y-143537883D01*
X197146159Y-143413427D01*
X196827189Y-143349980D01*
X196501971Y-143349980D01*
X196183001Y-143413427D01*
X195882538Y-143537883D01*
X195612129Y-143718565D01*
X195382165Y-143948529D01*
X195201483Y-144218938D01*
X195077027Y-144519401D01*
X195013580Y-144838371D01*
X193228686Y-144838371D01*
X193198468Y-144616782D01*
X193092504Y-144309310D01*
X192997440Y-144131458D01*
X192731403Y-144033762D01*
X191764185Y-145000980D01*
X191404975Y-145000980D01*
X190437757Y-144033762D01*
X190171720Y-144131458D01*
X190029232Y-144423801D01*
X189946516Y-144738324D01*
X189926749Y-145062942D01*
X163114323Y-145062942D01*
X163066389Y-145030914D01*
X162896229Y-144960432D01*
X162715589Y-144924500D01*
X162531411Y-144924500D01*
X162350771Y-144960432D01*
X162180611Y-145030914D01*
X162027472Y-145133238D01*
X161897238Y-145263472D01*
X161794914Y-145416611D01*
X161724432Y-145586771D01*
X161688500Y-145767411D01*
X152778470Y-145767411D01*
X152719180Y-145624273D01*
X152562137Y-145389241D01*
X152362259Y-145189363D01*
X152127227Y-145032320D01*
X151866074Y-144924147D01*
X151588835Y-144869000D01*
X151306165Y-144869000D01*
X151028926Y-144924147D01*
X150767773Y-145032320D01*
X150532741Y-145189363D01*
X150332863Y-145389241D01*
X150177500Y-145621759D01*
X150022137Y-145389241D01*
X149822259Y-145189363D01*
X149587227Y-145032320D01*
X149326074Y-144924147D01*
X149048835Y-144869000D01*
X148766165Y-144869000D01*
X148488926Y-144924147D01*
X148227773Y-145032320D01*
X147992741Y-145189363D01*
X147792863Y-145389241D01*
X147637500Y-145621759D01*
X147482137Y-145389241D01*
X147282259Y-145189363D01*
X147047227Y-145032320D01*
X146786074Y-144924147D01*
X146508835Y-144869000D01*
X146226165Y-144869000D01*
X145948926Y-144924147D01*
X145687773Y-145032320D01*
X145452741Y-145189363D01*
X145252863Y-145389241D01*
X145097500Y-145621759D01*
X144942137Y-145389241D01*
X144742259Y-145189363D01*
X144507227Y-145032320D01*
X144246074Y-144924147D01*
X143968835Y-144869000D01*
X143686165Y-144869000D01*
X143408926Y-144924147D01*
X143147773Y-145032320D01*
X142912741Y-145189363D01*
X142712863Y-145389241D01*
X142557500Y-145621759D01*
X142402137Y-145389241D01*
X142202259Y-145189363D01*
X141967227Y-145032320D01*
X141706074Y-144924147D01*
X141428835Y-144869000D01*
X141146165Y-144869000D01*
X140868926Y-144924147D01*
X140607773Y-145032320D01*
X140372741Y-145189363D01*
X140172863Y-145389241D01*
X140017500Y-145621759D01*
X139862137Y-145389241D01*
X139662259Y-145189363D01*
X139427227Y-145032320D01*
X139166074Y-144924147D01*
X138888835Y-144869000D01*
X138606165Y-144869000D01*
X138328926Y-144924147D01*
X138067773Y-145032320D01*
X137832741Y-145189363D01*
X137632863Y-145389241D01*
X137477500Y-145621759D01*
X137322137Y-145389241D01*
X137122259Y-145189363D01*
X136887227Y-145032320D01*
X136626074Y-144924147D01*
X136348835Y-144869000D01*
X136066165Y-144869000D01*
X135788926Y-144924147D01*
X135527773Y-145032320D01*
X135292741Y-145189363D01*
X135092863Y-145389241D01*
X134937500Y-145621759D01*
X134782137Y-145389241D01*
X134582259Y-145189363D01*
X134347227Y-145032320D01*
X134086074Y-144924147D01*
X133808835Y-144869000D01*
X133526165Y-144869000D01*
X133248926Y-144924147D01*
X132987773Y-145032320D01*
X132752741Y-145189363D01*
X132552863Y-145389241D01*
X132397500Y-145621759D01*
X132242137Y-145389241D01*
X132042259Y-145189363D01*
X131807227Y-145032320D01*
X131546074Y-144924147D01*
X131268835Y-144869000D01*
X130986165Y-144869000D01*
X130708926Y-144924147D01*
X130447773Y-145032320D01*
X130212741Y-145189363D01*
X130012863Y-145389241D01*
X129857500Y-145621759D01*
X129702137Y-145389241D01*
X129502259Y-145189363D01*
X129267227Y-145032320D01*
X129006074Y-144924147D01*
X128728835Y-144869000D01*
X128446165Y-144869000D01*
X128168926Y-144924147D01*
X127907773Y-145032320D01*
X127672741Y-145189363D01*
X127472863Y-145389241D01*
X127317500Y-145621759D01*
X127162137Y-145389241D01*
X126962259Y-145189363D01*
X126727227Y-145032320D01*
X126466074Y-144924147D01*
X126188835Y-144869000D01*
X125906165Y-144869000D01*
X125628926Y-144924147D01*
X125367773Y-145032320D01*
X125132741Y-145189363D01*
X124932863Y-145389241D01*
X124777500Y-145621759D01*
X124622137Y-145389241D01*
X124422259Y-145189363D01*
X124187227Y-145032320D01*
X123926074Y-144924147D01*
X123648835Y-144869000D01*
X123366165Y-144869000D01*
X123088926Y-144924147D01*
X122827773Y-145032320D01*
X122592741Y-145189363D01*
X122392863Y-145389241D01*
X122237500Y-145621759D01*
X122082137Y-145389241D01*
X121882259Y-145189363D01*
X121647227Y-145032320D01*
X121386074Y-144924147D01*
X121108835Y-144869000D01*
X120826165Y-144869000D01*
X120548926Y-144924147D01*
X120287773Y-145032320D01*
X120052741Y-145189363D01*
X119852863Y-145389241D01*
X119697500Y-145621759D01*
X119542137Y-145389241D01*
X119342259Y-145189363D01*
X119107227Y-145032320D01*
X118846074Y-144924147D01*
X118568835Y-144869000D01*
X118286165Y-144869000D01*
X118008926Y-144924147D01*
X117747773Y-145032320D01*
X117512741Y-145189363D01*
X117312863Y-145389241D01*
X117157500Y-145621759D01*
X117002137Y-145389241D01*
X116802259Y-145189363D01*
X116567227Y-145032320D01*
X116306074Y-144924147D01*
X116028835Y-144869000D01*
X115746165Y-144869000D01*
X115468926Y-144924147D01*
X115207773Y-145032320D01*
X114972741Y-145189363D01*
X114772863Y-145389241D01*
X114747040Y-145427888D01*
X114747040Y-143854157D01*
X190617362Y-143854157D01*
X191584580Y-144821375D01*
X192551798Y-143854157D01*
X192454102Y-143588120D01*
X192161759Y-143445632D01*
X191847236Y-143362916D01*
X191522618Y-143343149D01*
X191200382Y-143387092D01*
X190892910Y-143493056D01*
X190715058Y-143588120D01*
X190617362Y-143854157D01*
X114747040Y-143854157D01*
X114747040Y-138315872D01*
X115738500Y-138315872D01*
X115738500Y-138756128D01*
X115824390Y-139187925D01*
X115992869Y-139594669D01*
X116237462Y-139960729D01*
X116548771Y-140272038D01*
X116914831Y-140516631D01*
X117321575Y-140685110D01*
X117753372Y-140771000D01*
X118193628Y-140771000D01*
X118625425Y-140685110D01*
X119032169Y-140516631D01*
X119114901Y-140461351D01*
X172623200Y-140461351D01*
X172623200Y-140645529D01*
X172659132Y-140826169D01*
X172729614Y-140996329D01*
X172831938Y-141149468D01*
X172962172Y-141279702D01*
X173115311Y-141382026D01*
X173285471Y-141452508D01*
X173466111Y-141488440D01*
X173650289Y-141488440D01*
X173830929Y-141452508D01*
X174001089Y-141382026D01*
X174154228Y-141279702D01*
X174284462Y-141149468D01*
X174386786Y-140996329D01*
X174457268Y-140826169D01*
X174493200Y-140645529D01*
X174493200Y-140461351D01*
X174457268Y-140280711D01*
X174386786Y-140110551D01*
X174284462Y-139957412D01*
X174154228Y-139827178D01*
X174001089Y-139724854D01*
X173830929Y-139654372D01*
X173650289Y-139618440D01*
X173466111Y-139618440D01*
X173285471Y-139654372D01*
X173115311Y-139724854D01*
X172962172Y-139827178D01*
X172831938Y-139957412D01*
X172729614Y-140110551D01*
X172659132Y-140280711D01*
X172623200Y-140461351D01*
X119114901Y-140461351D01*
X119398229Y-140272038D01*
X119709538Y-139960729D01*
X119954131Y-139594669D01*
X120098591Y-139245911D01*
X184309740Y-139245911D01*
X184309740Y-139430089D01*
X184345672Y-139610729D01*
X184416154Y-139780889D01*
X184518478Y-139934028D01*
X184648712Y-140064262D01*
X184801851Y-140166586D01*
X184972011Y-140237068D01*
X185152651Y-140273000D01*
X185336829Y-140273000D01*
X185517469Y-140237068D01*
X185687629Y-140166586D01*
X185840768Y-140064262D01*
X185971002Y-139934028D01*
X186073326Y-139780889D01*
X186143808Y-139610729D01*
X186179740Y-139430089D01*
X186179740Y-139245911D01*
X186143808Y-139065271D01*
X186073326Y-138895111D01*
X185971002Y-138741972D01*
X185840768Y-138611738D01*
X185687629Y-138509414D01*
X185517469Y-138438932D01*
X185336829Y-138403000D01*
X185152651Y-138403000D01*
X184972011Y-138438932D01*
X184801851Y-138509414D01*
X184648712Y-138611738D01*
X184518478Y-138741972D01*
X184416154Y-138895111D01*
X184345672Y-139065271D01*
X184309740Y-139245911D01*
X120098591Y-139245911D01*
X120122610Y-139187925D01*
X120208500Y-138756128D01*
X120208500Y-138315872D01*
X120122610Y-137884075D01*
X119982538Y-137545910D01*
X188434700Y-137545910D01*
X188434700Y-137730088D01*
X188470632Y-137910728D01*
X188541114Y-138080888D01*
X188643438Y-138234027D01*
X188773672Y-138364261D01*
X188926811Y-138466585D01*
X189096971Y-138537067D01*
X189277611Y-138572999D01*
X189461789Y-138572999D01*
X189642429Y-138537067D01*
X189812589Y-138466585D01*
X189965728Y-138364261D01*
X190095962Y-138234027D01*
X190198286Y-138080888D01*
X190268768Y-137910728D01*
X190304700Y-137730088D01*
X190304700Y-137545910D01*
X190268768Y-137365270D01*
X190198286Y-137195110D01*
X190095962Y-137041971D01*
X189965728Y-136911737D01*
X189812589Y-136809413D01*
X189642429Y-136738931D01*
X189461789Y-136702999D01*
X189277611Y-136702999D01*
X189096971Y-136738931D01*
X188926811Y-136809413D01*
X188773672Y-136911737D01*
X188643438Y-137041971D01*
X188541114Y-137195110D01*
X188470632Y-137365270D01*
X188434700Y-137545910D01*
X119982538Y-137545910D01*
X119954131Y-137477331D01*
X119709538Y-137111271D01*
X119398229Y-136799962D01*
X119032169Y-136555369D01*
X118625425Y-136386890D01*
X118193628Y-136301000D01*
X117753372Y-136301000D01*
X117321575Y-136386890D01*
X116914831Y-136555369D01*
X116548771Y-136799962D01*
X116237462Y-137111271D01*
X115992869Y-137477331D01*
X115824390Y-137884075D01*
X115738500Y-138315872D01*
X114747040Y-138315872D01*
X114747040Y-134502705D01*
X167447580Y-134502705D01*
X167447580Y-134686883D01*
X167483512Y-134867523D01*
X167553994Y-135037683D01*
X167656318Y-135190822D01*
X167786552Y-135321056D01*
X167939691Y-135423380D01*
X168109851Y-135493862D01*
X168279060Y-135527520D01*
X168279060Y-135590929D01*
X168314992Y-135771569D01*
X168385474Y-135941729D01*
X168487798Y-136094868D01*
X168618032Y-136225102D01*
X168771171Y-136327426D01*
X168941331Y-136397908D01*
X169121971Y-136433840D01*
X169306149Y-136433840D01*
X169486789Y-136397908D01*
X169656949Y-136327426D01*
X169810088Y-136225102D01*
X169940322Y-136094868D01*
X170042646Y-135941729D01*
X170090030Y-135827333D01*
X170097434Y-135845209D01*
X170199758Y-135998348D01*
X170329992Y-136128582D01*
X170483131Y-136230906D01*
X170653291Y-136301388D01*
X170833931Y-136337320D01*
X171018109Y-136337320D01*
X171198749Y-136301388D01*
X171368909Y-136230906D01*
X171522048Y-136128582D01*
X171652282Y-135998348D01*
X171754606Y-135845209D01*
X171783385Y-135775731D01*
X171797434Y-135809649D01*
X171899758Y-135962788D01*
X172029992Y-136093022D01*
X172183131Y-136195346D01*
X172353291Y-136265828D01*
X172533931Y-136301760D01*
X172718109Y-136301760D01*
X172898749Y-136265828D01*
X173068909Y-136195346D01*
X173222048Y-136093022D01*
X173269159Y-136045911D01*
X184279260Y-136045911D01*
X184279260Y-136230089D01*
X184315192Y-136410729D01*
X184385674Y-136580889D01*
X184487998Y-136734028D01*
X184618232Y-136864262D01*
X184771371Y-136966586D01*
X184941531Y-137037068D01*
X185122171Y-137073000D01*
X185306349Y-137073000D01*
X185486989Y-137037068D01*
X185657149Y-136966586D01*
X185810288Y-136864262D01*
X185940522Y-136734028D01*
X186042846Y-136580889D01*
X186113328Y-136410729D01*
X186149260Y-136230089D01*
X186149260Y-136045911D01*
X186113328Y-135865271D01*
X186042846Y-135695111D01*
X185940522Y-135541972D01*
X185810288Y-135411738D01*
X185657149Y-135309414D01*
X185486989Y-135238932D01*
X185306349Y-135203000D01*
X185122171Y-135203000D01*
X184941531Y-135238932D01*
X184771371Y-135309414D01*
X184618232Y-135411738D01*
X184487998Y-135541972D01*
X184385674Y-135695111D01*
X184315192Y-135865271D01*
X184279260Y-136045911D01*
X173269159Y-136045911D01*
X173352282Y-135962788D01*
X173454606Y-135809649D01*
X173525088Y-135639489D01*
X173561020Y-135458849D01*
X173561020Y-135274671D01*
X173525088Y-135094031D01*
X173454606Y-134923871D01*
X173352282Y-134770732D01*
X173222048Y-134640498D01*
X173068909Y-134538174D01*
X172898749Y-134467692D01*
X172718109Y-134431760D01*
X172533931Y-134431760D01*
X172353291Y-134467692D01*
X172183131Y-134538174D01*
X172029992Y-134640498D01*
X171899758Y-134770732D01*
X171797434Y-134923871D01*
X171768655Y-134993349D01*
X171754606Y-134959431D01*
X171652282Y-134806292D01*
X171522048Y-134676058D01*
X171368909Y-134573734D01*
X171198749Y-134503252D01*
X171018109Y-134467320D01*
X170833931Y-134467320D01*
X170653291Y-134503252D01*
X170483131Y-134573734D01*
X170329992Y-134676058D01*
X170199758Y-134806292D01*
X170097434Y-134959431D01*
X170050050Y-135073827D01*
X170042646Y-135055951D01*
X169940322Y-134902812D01*
X169810088Y-134772578D01*
X169656949Y-134670254D01*
X169486789Y-134599772D01*
X169317580Y-134566114D01*
X169317580Y-134502705D01*
X169286392Y-134345910D01*
X188465180Y-134345910D01*
X188465180Y-134530088D01*
X188501112Y-134710728D01*
X188571594Y-134880888D01*
X188673918Y-135034027D01*
X188804152Y-135164261D01*
X188957291Y-135266585D01*
X189127451Y-135337067D01*
X189308091Y-135372999D01*
X189492269Y-135372999D01*
X189672909Y-135337067D01*
X189843069Y-135266585D01*
X189996208Y-135164261D01*
X190126442Y-135034027D01*
X190228766Y-134880888D01*
X190299248Y-134710728D01*
X190335180Y-134530088D01*
X190335180Y-134345910D01*
X190299248Y-134165270D01*
X190228766Y-133995110D01*
X190126442Y-133841971D01*
X189996208Y-133711737D01*
X189843069Y-133609413D01*
X189672909Y-133538931D01*
X189492269Y-133502999D01*
X189308091Y-133502999D01*
X189127451Y-133538931D01*
X188957291Y-133609413D01*
X188804152Y-133711737D01*
X188673918Y-133841971D01*
X188571594Y-133995110D01*
X188501112Y-134165270D01*
X188465180Y-134345910D01*
X169286392Y-134345910D01*
X169281648Y-134322065D01*
X169211166Y-134151905D01*
X169108842Y-133998766D01*
X168978608Y-133868532D01*
X168825469Y-133766208D01*
X168655309Y-133695726D01*
X168474669Y-133659794D01*
X168290491Y-133659794D01*
X168109851Y-133695726D01*
X167939691Y-133766208D01*
X167786552Y-133868532D01*
X167656318Y-133998766D01*
X167553994Y-134151905D01*
X167483512Y-134322065D01*
X167447580Y-134502705D01*
X114747040Y-134502705D01*
X114747040Y-131940112D01*
X114772863Y-131978759D01*
X114972741Y-132178637D01*
X115207773Y-132335680D01*
X115468926Y-132443853D01*
X115746165Y-132499000D01*
X116028835Y-132499000D01*
X116306074Y-132443853D01*
X116567227Y-132335680D01*
X116802259Y-132178637D01*
X117002137Y-131978759D01*
X117157500Y-131746241D01*
X117312863Y-131978759D01*
X117512741Y-132178637D01*
X117747773Y-132335680D01*
X118008926Y-132443853D01*
X118286165Y-132499000D01*
X118568835Y-132499000D01*
X118846074Y-132443853D01*
X119107227Y-132335680D01*
X119342259Y-132178637D01*
X119542137Y-131978759D01*
X119697500Y-131746241D01*
X119852863Y-131978759D01*
X120052741Y-132178637D01*
X120287773Y-132335680D01*
X120548926Y-132443853D01*
X120826165Y-132499000D01*
X121108835Y-132499000D01*
X121386074Y-132443853D01*
X121647227Y-132335680D01*
X121882259Y-132178637D01*
X122082137Y-131978759D01*
X122237500Y-131746241D01*
X122392863Y-131978759D01*
X122592741Y-132178637D01*
X122827773Y-132335680D01*
X123088926Y-132443853D01*
X123366165Y-132499000D01*
X123648835Y-132499000D01*
X123926074Y-132443853D01*
X124187227Y-132335680D01*
X124422259Y-132178637D01*
X124622137Y-131978759D01*
X124777500Y-131746241D01*
X124932863Y-131978759D01*
X125132741Y-132178637D01*
X125367773Y-132335680D01*
X125628926Y-132443853D01*
X125906165Y-132499000D01*
X126188835Y-132499000D01*
X126466074Y-132443853D01*
X126727227Y-132335680D01*
X126962259Y-132178637D01*
X127162137Y-131978759D01*
X127317500Y-131746241D01*
X127472863Y-131978759D01*
X127672741Y-132178637D01*
X127907773Y-132335680D01*
X128168926Y-132443853D01*
X128446165Y-132499000D01*
X128728835Y-132499000D01*
X129006074Y-132443853D01*
X129267227Y-132335680D01*
X129502259Y-132178637D01*
X129702137Y-131978759D01*
X129857500Y-131746241D01*
X130012863Y-131978759D01*
X130212741Y-132178637D01*
X130447773Y-132335680D01*
X130708926Y-132443853D01*
X130986165Y-132499000D01*
X131268835Y-132499000D01*
X131546074Y-132443853D01*
X131807227Y-132335680D01*
X132042259Y-132178637D01*
X132242137Y-131978759D01*
X132397500Y-131746241D01*
X132552863Y-131978759D01*
X132752741Y-132178637D01*
X132987773Y-132335680D01*
X133248926Y-132443853D01*
X133526165Y-132499000D01*
X133808835Y-132499000D01*
X134086074Y-132443853D01*
X134347227Y-132335680D01*
X134582259Y-132178637D01*
X134782137Y-131978759D01*
X134937500Y-131746241D01*
X135092863Y-131978759D01*
X135292741Y-132178637D01*
X135527773Y-132335680D01*
X135788926Y-132443853D01*
X136066165Y-132499000D01*
X136348835Y-132499000D01*
X136626074Y-132443853D01*
X136887227Y-132335680D01*
X137122259Y-132178637D01*
X137322137Y-131978759D01*
X137477500Y-131746241D01*
X137632863Y-131978759D01*
X137832741Y-132178637D01*
X138067773Y-132335680D01*
X138328926Y-132443853D01*
X138606165Y-132499000D01*
X138888835Y-132499000D01*
X139166074Y-132443853D01*
X139427227Y-132335680D01*
X139662259Y-132178637D01*
X139862137Y-131978759D01*
X140017500Y-131746241D01*
X140172863Y-131978759D01*
X140372741Y-132178637D01*
X140607773Y-132335680D01*
X140868926Y-132443853D01*
X141146165Y-132499000D01*
X141428835Y-132499000D01*
X141706074Y-132443853D01*
X141967227Y-132335680D01*
X142202259Y-132178637D01*
X142402137Y-131978759D01*
X142557500Y-131746241D01*
X142712863Y-131978759D01*
X142912741Y-132178637D01*
X143147773Y-132335680D01*
X143408926Y-132443853D01*
X143686165Y-132499000D01*
X143968835Y-132499000D01*
X144246074Y-132443853D01*
X144507227Y-132335680D01*
X144742259Y-132178637D01*
X144942137Y-131978759D01*
X145097500Y-131746241D01*
X145252863Y-131978759D01*
X145452741Y-132178637D01*
X145687773Y-132335680D01*
X145948926Y-132443853D01*
X146226165Y-132499000D01*
X146508835Y-132499000D01*
X146786074Y-132443853D01*
X147047227Y-132335680D01*
X147282259Y-132178637D01*
X147482137Y-131978759D01*
X147637500Y-131746241D01*
X147792863Y-131978759D01*
X147992741Y-132178637D01*
X148227773Y-132335680D01*
X148488926Y-132443853D01*
X148766165Y-132499000D01*
X149048835Y-132499000D01*
X149326074Y-132443853D01*
X149587227Y-132335680D01*
X149822259Y-132178637D01*
X150020857Y-131980039D01*
X150021688Y-131988482D01*
X150057998Y-132108180D01*
X150116963Y-132218494D01*
X150196315Y-132315185D01*
X150293006Y-132394537D01*
X150403320Y-132453502D01*
X150523018Y-132489812D01*
X150647500Y-132502072D01*
X152247500Y-132502072D01*
X152371982Y-132489812D01*
X152491680Y-132453502D01*
X152601994Y-132394537D01*
X152698685Y-132315185D01*
X152773410Y-132224131D01*
X169129060Y-132224131D01*
X169129060Y-132408309D01*
X169164992Y-132588949D01*
X169235474Y-132759109D01*
X169337798Y-132912248D01*
X169468032Y-133042482D01*
X169621171Y-133144806D01*
X169791331Y-133215288D01*
X169971971Y-133251220D01*
X170156149Y-133251220D01*
X170336789Y-133215288D01*
X170506949Y-133144806D01*
X170660088Y-133042482D01*
X170790322Y-132912248D01*
X170892646Y-132759109D01*
X170900576Y-132739963D01*
X170947434Y-132853089D01*
X171049758Y-133006228D01*
X171179992Y-133136462D01*
X171333131Y-133238786D01*
X171503291Y-133309268D01*
X171683931Y-133345200D01*
X171868109Y-133345200D01*
X172048749Y-133309268D01*
X172218909Y-133238786D01*
X172372048Y-133136462D01*
X172502282Y-133006228D01*
X172604606Y-132853089D01*
X172657731Y-132724832D01*
X172724534Y-132886109D01*
X172826858Y-133039248D01*
X172957092Y-133169482D01*
X173110231Y-133271806D01*
X173280391Y-133342288D01*
X173461031Y-133378220D01*
X173645209Y-133378220D01*
X173825849Y-133342288D01*
X173996009Y-133271806D01*
X174149148Y-133169482D01*
X174279382Y-133039248D01*
X174381706Y-132886109D01*
X174398356Y-132845911D01*
X184190360Y-132845911D01*
X184190360Y-133030089D01*
X184226292Y-133210729D01*
X184296774Y-133380889D01*
X184399098Y-133534028D01*
X184529332Y-133664262D01*
X184682471Y-133766586D01*
X184852631Y-133837068D01*
X185033271Y-133873000D01*
X185217449Y-133873000D01*
X185398089Y-133837068D01*
X185568249Y-133766586D01*
X185721388Y-133664262D01*
X185851622Y-133534028D01*
X185953946Y-133380889D01*
X186024428Y-133210729D01*
X186060360Y-133030089D01*
X186060360Y-132845911D01*
X186024428Y-132665271D01*
X185953946Y-132495111D01*
X185851622Y-132341972D01*
X185721388Y-132211738D01*
X185568249Y-132109414D01*
X185398089Y-132038932D01*
X185217449Y-132003000D01*
X185033271Y-132003000D01*
X184852631Y-132038932D01*
X184682471Y-132109414D01*
X184529332Y-132211738D01*
X184399098Y-132341972D01*
X184296774Y-132495111D01*
X184226292Y-132665271D01*
X184190360Y-132845911D01*
X174398356Y-132845911D01*
X174452188Y-132715949D01*
X174488120Y-132535309D01*
X174488120Y-132351131D01*
X174452188Y-132170491D01*
X174381706Y-132000331D01*
X174279382Y-131847192D01*
X174149148Y-131716958D01*
X173996009Y-131614634D01*
X173825849Y-131544152D01*
X173645209Y-131508220D01*
X173461031Y-131508220D01*
X173280391Y-131544152D01*
X173110231Y-131614634D01*
X172957092Y-131716958D01*
X172826858Y-131847192D01*
X172724534Y-132000331D01*
X172671409Y-132128588D01*
X172604606Y-131967311D01*
X172502282Y-131814172D01*
X172372048Y-131683938D01*
X172218909Y-131581614D01*
X172048749Y-131511132D01*
X171868109Y-131475200D01*
X171683931Y-131475200D01*
X171503291Y-131511132D01*
X171333131Y-131581614D01*
X171179992Y-131683938D01*
X171049758Y-131814172D01*
X170947434Y-131967311D01*
X170939504Y-131986457D01*
X170892646Y-131873331D01*
X170790322Y-131720192D01*
X170660088Y-131589958D01*
X170506949Y-131487634D01*
X170336789Y-131417152D01*
X170156149Y-131381220D01*
X169971971Y-131381220D01*
X169791331Y-131417152D01*
X169621171Y-131487634D01*
X169468032Y-131589958D01*
X169337798Y-131720192D01*
X169235474Y-131873331D01*
X169164992Y-132043491D01*
X169129060Y-132224131D01*
X152773410Y-132224131D01*
X152778037Y-132218494D01*
X152837002Y-132108180D01*
X152873312Y-131988482D01*
X152885572Y-131864000D01*
X152885572Y-131142180D01*
X156974620Y-131142180D01*
X156974620Y-131326358D01*
X157010552Y-131506998D01*
X157081034Y-131677158D01*
X157183358Y-131830297D01*
X157313592Y-131960531D01*
X157466731Y-132062855D01*
X157636891Y-132133337D01*
X157817531Y-132169269D01*
X158001709Y-132169269D01*
X158182349Y-132133337D01*
X158352509Y-132062855D01*
X158505648Y-131960531D01*
X158635882Y-131830297D01*
X158738206Y-131677158D01*
X158808688Y-131506998D01*
X158844620Y-131326358D01*
X158844620Y-131142180D01*
X158808688Y-130961540D01*
X158738206Y-130791380D01*
X158643550Y-130649717D01*
X158648621Y-130644646D01*
X158750945Y-130491507D01*
X158821427Y-130321347D01*
X158857359Y-130140707D01*
X158857359Y-129956529D01*
X158821427Y-129775889D01*
X158750945Y-129605729D01*
X158679507Y-129498814D01*
X158692189Y-129486132D01*
X158794513Y-129332993D01*
X158864995Y-129162833D01*
X158900927Y-128982193D01*
X158900927Y-128798015D01*
X158864995Y-128617375D01*
X158794513Y-128447215D01*
X158720398Y-128336295D01*
X158732416Y-128324277D01*
X158834740Y-128171138D01*
X158905222Y-128000978D01*
X158941154Y-127820338D01*
X158941154Y-127636160D01*
X158905222Y-127455520D01*
X158834740Y-127285360D01*
X158732416Y-127132221D01*
X158718629Y-127118434D01*
X158723642Y-127113421D01*
X158825966Y-126960282D01*
X158896448Y-126790122D01*
X158932380Y-126609482D01*
X158932380Y-126425304D01*
X158896448Y-126244664D01*
X158825966Y-126074504D01*
X158769041Y-125989309D01*
X158785327Y-125973023D01*
X158887651Y-125819884D01*
X158958133Y-125649724D01*
X158994065Y-125469084D01*
X158994065Y-125284906D01*
X158958133Y-125104266D01*
X158887651Y-124934106D01*
X158811429Y-124820031D01*
X159212000Y-124820031D01*
X159212000Y-125004209D01*
X159247932Y-125184849D01*
X159318414Y-125355009D01*
X159376340Y-125441701D01*
X159323494Y-125520791D01*
X159253012Y-125690951D01*
X159217080Y-125871591D01*
X159217080Y-126055769D01*
X159253012Y-126236409D01*
X159323494Y-126406569D01*
X159425818Y-126559708D01*
X159556052Y-126689942D01*
X159709191Y-126792266D01*
X159879351Y-126862748D01*
X160059991Y-126898680D01*
X160244169Y-126898680D01*
X160424809Y-126862748D01*
X160594969Y-126792266D01*
X160748108Y-126689942D01*
X160878342Y-126559708D01*
X160980666Y-126406569D01*
X161051148Y-126236409D01*
X161087080Y-126055769D01*
X161087080Y-125871591D01*
X161051148Y-125690951D01*
X160980666Y-125520791D01*
X160922740Y-125434099D01*
X160975586Y-125355009D01*
X161046068Y-125184849D01*
X161082000Y-125004209D01*
X161082000Y-124820031D01*
X161046068Y-124639391D01*
X160975586Y-124469231D01*
X160922173Y-124389293D01*
X160978704Y-124304689D01*
X161049186Y-124134529D01*
X161085118Y-123953889D01*
X161085118Y-123769711D01*
X161049186Y-123589071D01*
X160978704Y-123418911D01*
X160922770Y-123335200D01*
X160939302Y-123318668D01*
X161041626Y-123165529D01*
X161112108Y-122995369D01*
X161148040Y-122814729D01*
X161148040Y-122630551D01*
X161112108Y-122449911D01*
X161041626Y-122279751D01*
X160939302Y-122126612D01*
X160809068Y-121996378D01*
X160655929Y-121894054D01*
X160485769Y-121823572D01*
X160305129Y-121787640D01*
X160120951Y-121787640D01*
X159940311Y-121823572D01*
X159770151Y-121894054D01*
X159617012Y-121996378D01*
X159486778Y-122126612D01*
X159384454Y-122279751D01*
X159313972Y-122449911D01*
X159278040Y-122630551D01*
X159278040Y-122814729D01*
X159313972Y-122995369D01*
X159384454Y-123165529D01*
X159440388Y-123249240D01*
X159423856Y-123265772D01*
X159321532Y-123418911D01*
X159251050Y-123589071D01*
X159215118Y-123769711D01*
X159215118Y-123953889D01*
X159251050Y-124134529D01*
X159321532Y-124304689D01*
X159374945Y-124384627D01*
X159318414Y-124469231D01*
X159247932Y-124639391D01*
X159212000Y-124820031D01*
X158811429Y-124820031D01*
X158785327Y-124780967D01*
X158655093Y-124650733D01*
X158501954Y-124548409D01*
X158331794Y-124477927D01*
X158151154Y-124441995D01*
X157966976Y-124441995D01*
X157786336Y-124477927D01*
X157616176Y-124548409D01*
X157463037Y-124650733D01*
X157332803Y-124780967D01*
X157230479Y-124934106D01*
X157159997Y-125104266D01*
X157124065Y-125284906D01*
X157124065Y-125469084D01*
X157159997Y-125649724D01*
X157230479Y-125819884D01*
X157287404Y-125905079D01*
X157271118Y-125921365D01*
X157168794Y-126074504D01*
X157098312Y-126244664D01*
X157062380Y-126425304D01*
X157062380Y-126609482D01*
X157098312Y-126790122D01*
X157168794Y-126960282D01*
X157271118Y-127113421D01*
X157284905Y-127127208D01*
X157279892Y-127132221D01*
X157177568Y-127285360D01*
X157107086Y-127455520D01*
X157071154Y-127636160D01*
X157071154Y-127820338D01*
X157107086Y-128000978D01*
X157177568Y-128171138D01*
X157251683Y-128282058D01*
X157239665Y-128294076D01*
X157137341Y-128447215D01*
X157066859Y-128617375D01*
X157030927Y-128798015D01*
X157030927Y-128982193D01*
X157066859Y-129162833D01*
X157137341Y-129332993D01*
X157208779Y-129439908D01*
X157196097Y-129452590D01*
X157093773Y-129605729D01*
X157023291Y-129775889D01*
X156987359Y-129956529D01*
X156987359Y-130140707D01*
X157023291Y-130321347D01*
X157093773Y-130491507D01*
X157188429Y-130633170D01*
X157183358Y-130638241D01*
X157081034Y-130791380D01*
X157010552Y-130961540D01*
X156974620Y-131142180D01*
X152885572Y-131142180D01*
X152885572Y-130264000D01*
X152873312Y-130139518D01*
X152837002Y-130019820D01*
X152778037Y-129909506D01*
X152698685Y-129812815D01*
X152601994Y-129733463D01*
X152491680Y-129674498D01*
X152371982Y-129638188D01*
X152247500Y-129625928D01*
X150647500Y-129625928D01*
X150523018Y-129638188D01*
X150403320Y-129674498D01*
X150293006Y-129733463D01*
X150196315Y-129812815D01*
X150116963Y-129909506D01*
X150057998Y-130019820D01*
X150021688Y-130139518D01*
X150020857Y-130147961D01*
X149822259Y-129949363D01*
X149587227Y-129792320D01*
X149326074Y-129684147D01*
X149048835Y-129629000D01*
X148766165Y-129629000D01*
X148488926Y-129684147D01*
X148227773Y-129792320D01*
X147992741Y-129949363D01*
X147792863Y-130149241D01*
X147637500Y-130381759D01*
X147482137Y-130149241D01*
X147282259Y-129949363D01*
X147047227Y-129792320D01*
X146786074Y-129684147D01*
X146508835Y-129629000D01*
X146226165Y-129629000D01*
X145948926Y-129684147D01*
X145687773Y-129792320D01*
X145452741Y-129949363D01*
X145252863Y-130149241D01*
X145097500Y-130381759D01*
X144942137Y-130149241D01*
X144742259Y-129949363D01*
X144507227Y-129792320D01*
X144246074Y-129684147D01*
X143968835Y-129629000D01*
X143686165Y-129629000D01*
X143408926Y-129684147D01*
X143147773Y-129792320D01*
X142912741Y-129949363D01*
X142712863Y-130149241D01*
X142557500Y-130381759D01*
X142402137Y-130149241D01*
X142202259Y-129949363D01*
X141967227Y-129792320D01*
X141706074Y-129684147D01*
X141428835Y-129629000D01*
X141146165Y-129629000D01*
X140868926Y-129684147D01*
X140607773Y-129792320D01*
X140372741Y-129949363D01*
X140172863Y-130149241D01*
X140017500Y-130381759D01*
X139862137Y-130149241D01*
X139662259Y-129949363D01*
X139427227Y-129792320D01*
X139166074Y-129684147D01*
X138888835Y-129629000D01*
X138606165Y-129629000D01*
X138328926Y-129684147D01*
X138067773Y-129792320D01*
X137832741Y-129949363D01*
X137632863Y-130149241D01*
X137477500Y-130381759D01*
X137322137Y-130149241D01*
X137122259Y-129949363D01*
X136887227Y-129792320D01*
X136626074Y-129684147D01*
X136348835Y-129629000D01*
X136066165Y-129629000D01*
X135788926Y-129684147D01*
X135527773Y-129792320D01*
X135292741Y-129949363D01*
X135092863Y-130149241D01*
X134937500Y-130381759D01*
X134782137Y-130149241D01*
X134582259Y-129949363D01*
X134347227Y-129792320D01*
X134086074Y-129684147D01*
X133808835Y-129629000D01*
X133526165Y-129629000D01*
X133248926Y-129684147D01*
X132987773Y-129792320D01*
X132752741Y-129949363D01*
X132552863Y-130149241D01*
X132397500Y-130381759D01*
X132242137Y-130149241D01*
X132042259Y-129949363D01*
X131807227Y-129792320D01*
X131546074Y-129684147D01*
X131268835Y-129629000D01*
X130986165Y-129629000D01*
X130708926Y-129684147D01*
X130447773Y-129792320D01*
X130212741Y-129949363D01*
X130012863Y-130149241D01*
X129857500Y-130381759D01*
X129702137Y-130149241D01*
X129502259Y-129949363D01*
X129267227Y-129792320D01*
X129006074Y-129684147D01*
X128728835Y-129629000D01*
X128446165Y-129629000D01*
X128168926Y-129684147D01*
X127907773Y-129792320D01*
X127672741Y-129949363D01*
X127472863Y-130149241D01*
X127317500Y-130381759D01*
X127162137Y-130149241D01*
X126962259Y-129949363D01*
X126727227Y-129792320D01*
X126466074Y-129684147D01*
X126188835Y-129629000D01*
X125906165Y-129629000D01*
X125628926Y-129684147D01*
X125367773Y-129792320D01*
X125132741Y-129949363D01*
X124932863Y-130149241D01*
X124777500Y-130381759D01*
X124622137Y-130149241D01*
X124422259Y-129949363D01*
X124187227Y-129792320D01*
X123926074Y-129684147D01*
X123648835Y-129629000D01*
X123366165Y-129629000D01*
X123088926Y-129684147D01*
X122827773Y-129792320D01*
X122592741Y-129949363D01*
X122392863Y-130149241D01*
X122237500Y-130381759D01*
X122082137Y-130149241D01*
X121882259Y-129949363D01*
X121647227Y-129792320D01*
X121386074Y-129684147D01*
X121108835Y-129629000D01*
X120826165Y-129629000D01*
X120548926Y-129684147D01*
X120287773Y-129792320D01*
X120052741Y-129949363D01*
X119852863Y-130149241D01*
X119697500Y-130381759D01*
X119542137Y-130149241D01*
X119342259Y-129949363D01*
X119107227Y-129792320D01*
X118846074Y-129684147D01*
X118568835Y-129629000D01*
X118286165Y-129629000D01*
X118008926Y-129684147D01*
X117747773Y-129792320D01*
X117512741Y-129949363D01*
X117312863Y-130149241D01*
X117157500Y-130381759D01*
X117002137Y-130149241D01*
X116802259Y-129949363D01*
X116567227Y-129792320D01*
X116306074Y-129684147D01*
X116028835Y-129629000D01*
X115746165Y-129629000D01*
X115468926Y-129684147D01*
X115207773Y-129792320D01*
X114972741Y-129949363D01*
X114772863Y-130149241D01*
X114747040Y-130187888D01*
X114747040Y-123249014D01*
X116076500Y-123249014D01*
X116076500Y-123511986D01*
X116127804Y-123769905D01*
X116228439Y-124012859D01*
X116374538Y-124231513D01*
X116560487Y-124417462D01*
X116779141Y-124563561D01*
X117022095Y-124664196D01*
X117280014Y-124715500D01*
X117542986Y-124715500D01*
X117800905Y-124664196D01*
X118043859Y-124563561D01*
X118262513Y-124417462D01*
X118448462Y-124231513D01*
X118594561Y-124012859D01*
X118695196Y-123769905D01*
X118746500Y-123511986D01*
X118746500Y-123249014D01*
X123696500Y-123249014D01*
X123696500Y-123511986D01*
X123747804Y-123769905D01*
X123848439Y-124012859D01*
X123994538Y-124231513D01*
X124180487Y-124417462D01*
X124399141Y-124563561D01*
X124642095Y-124664196D01*
X124900014Y-124715500D01*
X125162986Y-124715500D01*
X125420905Y-124664196D01*
X125663859Y-124563561D01*
X125882513Y-124417462D01*
X126068462Y-124231513D01*
X126214561Y-124012859D01*
X126315196Y-123769905D01*
X126366500Y-123511986D01*
X126366500Y-123249014D01*
X126337320Y-123102316D01*
X128322500Y-123102316D01*
X128322500Y-123404684D01*
X128381489Y-123701243D01*
X128497201Y-123980595D01*
X128665188Y-124232005D01*
X128878995Y-124445812D01*
X129130405Y-124613799D01*
X129409757Y-124729511D01*
X129706316Y-124788500D01*
X130008684Y-124788500D01*
X130305243Y-124729511D01*
X130584595Y-124613799D01*
X130836005Y-124445812D01*
X130902444Y-124379373D01*
X130907998Y-124397680D01*
X130966963Y-124507994D01*
X131046315Y-124604685D01*
X131143006Y-124684037D01*
X131253320Y-124743002D01*
X131373018Y-124779312D01*
X131497500Y-124791572D01*
X133297500Y-124791572D01*
X133421982Y-124779312D01*
X133541680Y-124743002D01*
X133651994Y-124684037D01*
X133748685Y-124604685D01*
X133828037Y-124507994D01*
X133887002Y-124397680D01*
X133923312Y-124277982D01*
X133935572Y-124153500D01*
X133935572Y-122353500D01*
X133923312Y-122229018D01*
X133887002Y-122109320D01*
X133828037Y-121999006D01*
X133748685Y-121902315D01*
X133651994Y-121822963D01*
X133541680Y-121763998D01*
X133421982Y-121727688D01*
X133297500Y-121715428D01*
X131497500Y-121715428D01*
X131373018Y-121727688D01*
X131253320Y-121763998D01*
X131143006Y-121822963D01*
X131046315Y-121902315D01*
X130966963Y-121999006D01*
X130907998Y-122109320D01*
X130902444Y-122127627D01*
X130836005Y-122061188D01*
X130584595Y-121893201D01*
X130305243Y-121777489D01*
X130008684Y-121718500D01*
X129706316Y-121718500D01*
X129409757Y-121777489D01*
X129130405Y-121893201D01*
X128878995Y-122061188D01*
X128665188Y-122274995D01*
X128497201Y-122526405D01*
X128381489Y-122805757D01*
X128322500Y-123102316D01*
X126337320Y-123102316D01*
X126315196Y-122991095D01*
X126214561Y-122748141D01*
X126068462Y-122529487D01*
X125882513Y-122343538D01*
X125663859Y-122197439D01*
X125420905Y-122096804D01*
X125162986Y-122045500D01*
X124900014Y-122045500D01*
X124642095Y-122096804D01*
X124399141Y-122197439D01*
X124180487Y-122343538D01*
X123994538Y-122529487D01*
X123848439Y-122748141D01*
X123747804Y-122991095D01*
X123696500Y-123249014D01*
X118746500Y-123249014D01*
X118695196Y-122991095D01*
X118594561Y-122748141D01*
X118448462Y-122529487D01*
X118262513Y-122343538D01*
X118043859Y-122197439D01*
X117800905Y-122096804D01*
X117542986Y-122045500D01*
X117280014Y-122045500D01*
X117022095Y-122096804D01*
X116779141Y-122197439D01*
X116560487Y-122343538D01*
X116374538Y-122529487D01*
X116228439Y-122748141D01*
X116127804Y-122991095D01*
X116076500Y-123249014D01*
X114747040Y-123249014D01*
X114747040Y-117123831D01*
X170568340Y-117123831D01*
X170568340Y-117308009D01*
X170604272Y-117488649D01*
X170674754Y-117658809D01*
X170777078Y-117811948D01*
X170907312Y-117942182D01*
X171060451Y-118044506D01*
X171230611Y-118114988D01*
X171411251Y-118150920D01*
X171595429Y-118150920D01*
X171776069Y-118114988D01*
X171946229Y-118044506D01*
X172099368Y-117942182D01*
X172229602Y-117811948D01*
X172331926Y-117658809D01*
X172402408Y-117488649D01*
X172438340Y-117308009D01*
X172438340Y-117123831D01*
X172402408Y-116943191D01*
X172331926Y-116773031D01*
X172229602Y-116619892D01*
X172099368Y-116489658D01*
X171946229Y-116387334D01*
X171776069Y-116316852D01*
X171595429Y-116280920D01*
X171411251Y-116280920D01*
X171230611Y-116316852D01*
X171060451Y-116387334D01*
X170907312Y-116489658D01*
X170777078Y-116619892D01*
X170674754Y-116773031D01*
X170604272Y-116943191D01*
X170568340Y-117123831D01*
X114747040Y-117123831D01*
X114747040Y-111682165D01*
X117413500Y-111682165D01*
X117413500Y-111964835D01*
X117468647Y-112242074D01*
X117576820Y-112503227D01*
X117733863Y-112738259D01*
X117933741Y-112938137D01*
X118168773Y-113095180D01*
X118429926Y-113203353D01*
X118707165Y-113258500D01*
X118989835Y-113258500D01*
X119267074Y-113203353D01*
X119528227Y-113095180D01*
X119763259Y-112938137D01*
X119963137Y-112738259D01*
X120098500Y-112535673D01*
X120233863Y-112738259D01*
X120433741Y-112938137D01*
X120668773Y-113095180D01*
X120929926Y-113203353D01*
X121207165Y-113258500D01*
X121489835Y-113258500D01*
X121767074Y-113203353D01*
X122028227Y-113095180D01*
X122263259Y-112938137D01*
X122463137Y-112738259D01*
X122598500Y-112535673D01*
X122733863Y-112738259D01*
X122933741Y-112938137D01*
X123168773Y-113095180D01*
X123429926Y-113203353D01*
X123707165Y-113258500D01*
X123989835Y-113258500D01*
X124267074Y-113203353D01*
X124528227Y-113095180D01*
X124763259Y-112938137D01*
X124963137Y-112738259D01*
X125098500Y-112535673D01*
X125233863Y-112738259D01*
X125433741Y-112938137D01*
X125668773Y-113095180D01*
X125929926Y-113203353D01*
X126207165Y-113258500D01*
X126489835Y-113258500D01*
X126767074Y-113203353D01*
X127028227Y-113095180D01*
X127263259Y-112938137D01*
X127463137Y-112738259D01*
X127598500Y-112535673D01*
X127733863Y-112738259D01*
X127933741Y-112938137D01*
X128168773Y-113095180D01*
X128429926Y-113203353D01*
X128707165Y-113258500D01*
X128989835Y-113258500D01*
X129267074Y-113203353D01*
X129528227Y-113095180D01*
X129763259Y-112938137D01*
X129963137Y-112738259D01*
X130098500Y-112535673D01*
X130233863Y-112738259D01*
X130433741Y-112938137D01*
X130668773Y-113095180D01*
X130929926Y-113203353D01*
X131207165Y-113258500D01*
X131489835Y-113258500D01*
X131767074Y-113203353D01*
X132028227Y-113095180D01*
X132263259Y-112938137D01*
X132463137Y-112738259D01*
X132611864Y-112515673D01*
X132733863Y-112698259D01*
X132933741Y-112898137D01*
X133168773Y-113055180D01*
X133429926Y-113163353D01*
X133707165Y-113218500D01*
X133989835Y-113218500D01*
X134267074Y-113163353D01*
X134528227Y-113055180D01*
X134763259Y-112898137D01*
X134963137Y-112698259D01*
X135098500Y-112495673D01*
X135233863Y-112698259D01*
X135433741Y-112898137D01*
X135668773Y-113055180D01*
X135929926Y-113163353D01*
X136207165Y-113218500D01*
X136489835Y-113218500D01*
X136767074Y-113163353D01*
X137028227Y-113055180D01*
X137263259Y-112898137D01*
X137463137Y-112698259D01*
X137598500Y-112495673D01*
X137733863Y-112698259D01*
X137933741Y-112898137D01*
X138168773Y-113055180D01*
X138429926Y-113163353D01*
X138707165Y-113218500D01*
X138989835Y-113218500D01*
X139267074Y-113163353D01*
X139528227Y-113055180D01*
X139763259Y-112898137D01*
X139963137Y-112698259D01*
X140098500Y-112495673D01*
X140233863Y-112698259D01*
X140433741Y-112898137D01*
X140668773Y-113055180D01*
X140929926Y-113163353D01*
X141207165Y-113218500D01*
X141489835Y-113218500D01*
X141767074Y-113163353D01*
X142028227Y-113055180D01*
X142263259Y-112898137D01*
X142463137Y-112698259D01*
X142598500Y-112495673D01*
X142733863Y-112698259D01*
X142933741Y-112898137D01*
X143168773Y-113055180D01*
X143429926Y-113163353D01*
X143707165Y-113218500D01*
X143989835Y-113218500D01*
X144267074Y-113163353D01*
X144528227Y-113055180D01*
X144763259Y-112898137D01*
X144963137Y-112698259D01*
X145098500Y-112495673D01*
X145233863Y-112698259D01*
X145433741Y-112898137D01*
X145668773Y-113055180D01*
X145929926Y-113163353D01*
X146207165Y-113218500D01*
X146489835Y-113218500D01*
X146767074Y-113163353D01*
X147028227Y-113055180D01*
X147263259Y-112898137D01*
X147463137Y-112698259D01*
X147598500Y-112495673D01*
X147733863Y-112698259D01*
X147933741Y-112898137D01*
X148168773Y-113055180D01*
X148429926Y-113163353D01*
X148707165Y-113218500D01*
X148989835Y-113218500D01*
X149267074Y-113163353D01*
X149528227Y-113055180D01*
X149763259Y-112898137D01*
X149963137Y-112698259D01*
X150098500Y-112495673D01*
X150233863Y-112698259D01*
X150433741Y-112898137D01*
X150668773Y-113055180D01*
X150929926Y-113163353D01*
X151207165Y-113218500D01*
X151489835Y-113218500D01*
X151767074Y-113163353D01*
X152028227Y-113055180D01*
X152263259Y-112898137D01*
X152463137Y-112698259D01*
X152598500Y-112495673D01*
X152733863Y-112698259D01*
X152933741Y-112898137D01*
X153168773Y-113055180D01*
X153429926Y-113163353D01*
X153707165Y-113218500D01*
X153989835Y-113218500D01*
X154267074Y-113163353D01*
X154528227Y-113055180D01*
X154763259Y-112898137D01*
X154963137Y-112698259D01*
X155120180Y-112463227D01*
X155228353Y-112202074D01*
X155283500Y-111924835D01*
X155283500Y-111809165D01*
X167412500Y-111809165D01*
X167412500Y-112091835D01*
X167467647Y-112369074D01*
X167575820Y-112630227D01*
X167732863Y-112865259D01*
X167932741Y-113065137D01*
X168167773Y-113222180D01*
X168428926Y-113330353D01*
X168706165Y-113385500D01*
X168988835Y-113385500D01*
X169266074Y-113330353D01*
X169527227Y-113222180D01*
X169762259Y-113065137D01*
X169962137Y-112865259D01*
X170097500Y-112662673D01*
X170232863Y-112865259D01*
X170432741Y-113065137D01*
X170667773Y-113222180D01*
X170928926Y-113330353D01*
X171206165Y-113385500D01*
X171488835Y-113385500D01*
X171766074Y-113330353D01*
X172027227Y-113222180D01*
X172262259Y-113065137D01*
X172462137Y-112865259D01*
X172597500Y-112662673D01*
X172732863Y-112865259D01*
X172932741Y-113065137D01*
X173167773Y-113222180D01*
X173428926Y-113330353D01*
X173706165Y-113385500D01*
X173988835Y-113385500D01*
X174266074Y-113330353D01*
X174527227Y-113222180D01*
X174762259Y-113065137D01*
X174962137Y-112865259D01*
X175097500Y-112662673D01*
X175232863Y-112865259D01*
X175432741Y-113065137D01*
X175667773Y-113222180D01*
X175928926Y-113330353D01*
X176206165Y-113385500D01*
X176488835Y-113385500D01*
X176766074Y-113330353D01*
X177027227Y-113222180D01*
X177262259Y-113065137D01*
X177462137Y-112865259D01*
X177597500Y-112662673D01*
X177732863Y-112865259D01*
X177932741Y-113065137D01*
X178167773Y-113222180D01*
X178428926Y-113330353D01*
X178706165Y-113385500D01*
X178988835Y-113385500D01*
X179266074Y-113330353D01*
X179527227Y-113222180D01*
X179762259Y-113065137D01*
X179962137Y-112865259D01*
X180097500Y-112662673D01*
X180232863Y-112865259D01*
X180432741Y-113065137D01*
X180667773Y-113222180D01*
X180928926Y-113330353D01*
X181206165Y-113385500D01*
X181488835Y-113385500D01*
X181766074Y-113330353D01*
X182027227Y-113222180D01*
X182262259Y-113065137D01*
X182462137Y-112865259D01*
X182610864Y-112642673D01*
X182732863Y-112825259D01*
X182932741Y-113025137D01*
X183167773Y-113182180D01*
X183428926Y-113290353D01*
X183706165Y-113345500D01*
X183988835Y-113345500D01*
X184266074Y-113290353D01*
X184527227Y-113182180D01*
X184762259Y-113025137D01*
X184962137Y-112825259D01*
X185097500Y-112622673D01*
X185232863Y-112825259D01*
X185432741Y-113025137D01*
X185667773Y-113182180D01*
X185928926Y-113290353D01*
X186206165Y-113345500D01*
X186488835Y-113345500D01*
X186766074Y-113290353D01*
X187027227Y-113182180D01*
X187262259Y-113025137D01*
X187462137Y-112825259D01*
X187597500Y-112622673D01*
X187732863Y-112825259D01*
X187932741Y-113025137D01*
X188167773Y-113182180D01*
X188428926Y-113290353D01*
X188706165Y-113345500D01*
X188988835Y-113345500D01*
X189266074Y-113290353D01*
X189527227Y-113182180D01*
X189762259Y-113025137D01*
X189962137Y-112825259D01*
X190097500Y-112622673D01*
X190232863Y-112825259D01*
X190432741Y-113025137D01*
X190667773Y-113182180D01*
X190928926Y-113290353D01*
X191206165Y-113345500D01*
X191488835Y-113345500D01*
X191766074Y-113290353D01*
X192027227Y-113182180D01*
X192262259Y-113025137D01*
X192462137Y-112825259D01*
X192597500Y-112622673D01*
X192732863Y-112825259D01*
X192932741Y-113025137D01*
X193167773Y-113182180D01*
X193428926Y-113290353D01*
X193706165Y-113345500D01*
X193988835Y-113345500D01*
X194266074Y-113290353D01*
X194527227Y-113182180D01*
X194762259Y-113025137D01*
X194962137Y-112825259D01*
X195097500Y-112622673D01*
X195232863Y-112825259D01*
X195432741Y-113025137D01*
X195667773Y-113182180D01*
X195928926Y-113290353D01*
X196206165Y-113345500D01*
X196488835Y-113345500D01*
X196766074Y-113290353D01*
X197027227Y-113182180D01*
X197262259Y-113025137D01*
X197462137Y-112825259D01*
X197597500Y-112622673D01*
X197732863Y-112825259D01*
X197932741Y-113025137D01*
X198167773Y-113182180D01*
X198428926Y-113290353D01*
X198706165Y-113345500D01*
X198988835Y-113345500D01*
X199266074Y-113290353D01*
X199527227Y-113182180D01*
X199762259Y-113025137D01*
X199962137Y-112825259D01*
X200097500Y-112622673D01*
X200232863Y-112825259D01*
X200432741Y-113025137D01*
X200667773Y-113182180D01*
X200928926Y-113290353D01*
X201206165Y-113345500D01*
X201488835Y-113345500D01*
X201766074Y-113290353D01*
X202027227Y-113182180D01*
X202262259Y-113025137D01*
X202462137Y-112825259D01*
X202597500Y-112622673D01*
X202732863Y-112825259D01*
X202932741Y-113025137D01*
X203167773Y-113182180D01*
X203428926Y-113290353D01*
X203706165Y-113345500D01*
X203988835Y-113345500D01*
X204266074Y-113290353D01*
X204527227Y-113182180D01*
X204762259Y-113025137D01*
X204962137Y-112825259D01*
X205119180Y-112590227D01*
X205227353Y-112329074D01*
X205282500Y-112051835D01*
X205282500Y-111769165D01*
X205227353Y-111491926D01*
X205119180Y-111230773D01*
X204962137Y-110995741D01*
X204762259Y-110795863D01*
X204527227Y-110638820D01*
X204266074Y-110530647D01*
X203988835Y-110475500D01*
X203706165Y-110475500D01*
X203428926Y-110530647D01*
X203167773Y-110638820D01*
X202932741Y-110795863D01*
X202732863Y-110995741D01*
X202597500Y-111198327D01*
X202462137Y-110995741D01*
X202262259Y-110795863D01*
X202027227Y-110638820D01*
X201766074Y-110530647D01*
X201488835Y-110475500D01*
X201206165Y-110475500D01*
X200928926Y-110530647D01*
X200667773Y-110638820D01*
X200432741Y-110795863D01*
X200232863Y-110995741D01*
X200097500Y-111198327D01*
X199962137Y-110995741D01*
X199762259Y-110795863D01*
X199527227Y-110638820D01*
X199266074Y-110530647D01*
X198988835Y-110475500D01*
X198706165Y-110475500D01*
X198428926Y-110530647D01*
X198167773Y-110638820D01*
X197932741Y-110795863D01*
X197732863Y-110995741D01*
X197597500Y-111198327D01*
X197462137Y-110995741D01*
X197262259Y-110795863D01*
X197027227Y-110638820D01*
X196766074Y-110530647D01*
X196488835Y-110475500D01*
X196206165Y-110475500D01*
X195928926Y-110530647D01*
X195667773Y-110638820D01*
X195432741Y-110795863D01*
X195232863Y-110995741D01*
X195097500Y-111198327D01*
X194962137Y-110995741D01*
X194762259Y-110795863D01*
X194527227Y-110638820D01*
X194266074Y-110530647D01*
X193988835Y-110475500D01*
X193706165Y-110475500D01*
X193428926Y-110530647D01*
X193167773Y-110638820D01*
X192932741Y-110795863D01*
X192732863Y-110995741D01*
X192597500Y-111198327D01*
X192462137Y-110995741D01*
X192262259Y-110795863D01*
X192027227Y-110638820D01*
X191766074Y-110530647D01*
X191488835Y-110475500D01*
X191206165Y-110475500D01*
X190928926Y-110530647D01*
X190667773Y-110638820D01*
X190432741Y-110795863D01*
X190232863Y-110995741D01*
X190097500Y-111198327D01*
X189962137Y-110995741D01*
X189762259Y-110795863D01*
X189527227Y-110638820D01*
X189266074Y-110530647D01*
X188988835Y-110475500D01*
X188706165Y-110475500D01*
X188428926Y-110530647D01*
X188167773Y-110638820D01*
X187932741Y-110795863D01*
X187732863Y-110995741D01*
X187597500Y-111198327D01*
X187462137Y-110995741D01*
X187262259Y-110795863D01*
X187027227Y-110638820D01*
X186766074Y-110530647D01*
X186488835Y-110475500D01*
X186206165Y-110475500D01*
X185928926Y-110530647D01*
X185667773Y-110638820D01*
X185432741Y-110795863D01*
X185232863Y-110995741D01*
X185097500Y-111198327D01*
X184962137Y-110995741D01*
X184762259Y-110795863D01*
X184527227Y-110638820D01*
X184266074Y-110530647D01*
X183988835Y-110475500D01*
X183706165Y-110475500D01*
X183428926Y-110530647D01*
X183167773Y-110638820D01*
X182932741Y-110795863D01*
X182732863Y-110995741D01*
X182584136Y-111218327D01*
X182462137Y-111035741D01*
X182262259Y-110835863D01*
X182027227Y-110678820D01*
X181766074Y-110570647D01*
X181488835Y-110515500D01*
X181206165Y-110515500D01*
X180928926Y-110570647D01*
X180667773Y-110678820D01*
X180432741Y-110835863D01*
X180232863Y-111035741D01*
X180097500Y-111238327D01*
X179962137Y-111035741D01*
X179762259Y-110835863D01*
X179527227Y-110678820D01*
X179266074Y-110570647D01*
X178988835Y-110515500D01*
X178706165Y-110515500D01*
X178428926Y-110570647D01*
X178167773Y-110678820D01*
X177932741Y-110835863D01*
X177732863Y-111035741D01*
X177597500Y-111238327D01*
X177462137Y-111035741D01*
X177262259Y-110835863D01*
X177027227Y-110678820D01*
X176766074Y-110570647D01*
X176488835Y-110515500D01*
X176206165Y-110515500D01*
X175928926Y-110570647D01*
X175667773Y-110678820D01*
X175432741Y-110835863D01*
X175232863Y-111035741D01*
X175097500Y-111238327D01*
X174962137Y-111035741D01*
X174762259Y-110835863D01*
X174527227Y-110678820D01*
X174266074Y-110570647D01*
X173988835Y-110515500D01*
X173706165Y-110515500D01*
X173428926Y-110570647D01*
X173167773Y-110678820D01*
X172932741Y-110835863D01*
X172732863Y-111035741D01*
X172597500Y-111238327D01*
X172462137Y-111035741D01*
X172262259Y-110835863D01*
X172027227Y-110678820D01*
X171766074Y-110570647D01*
X171488835Y-110515500D01*
X171206165Y-110515500D01*
X170928926Y-110570647D01*
X170667773Y-110678820D01*
X170432741Y-110835863D01*
X170232863Y-111035741D01*
X170097500Y-111238327D01*
X169962137Y-111035741D01*
X169762259Y-110835863D01*
X169527227Y-110678820D01*
X169266074Y-110570647D01*
X168988835Y-110515500D01*
X168706165Y-110515500D01*
X168428926Y-110570647D01*
X168167773Y-110678820D01*
X167932741Y-110835863D01*
X167732863Y-111035741D01*
X167575820Y-111270773D01*
X167467647Y-111531926D01*
X167412500Y-111809165D01*
X155283500Y-111809165D01*
X155283500Y-111642165D01*
X155228353Y-111364926D01*
X155120180Y-111103773D01*
X154963137Y-110868741D01*
X154763259Y-110668863D01*
X154528227Y-110511820D01*
X154267074Y-110403647D01*
X153989835Y-110348500D01*
X153707165Y-110348500D01*
X153429926Y-110403647D01*
X153168773Y-110511820D01*
X152933741Y-110668863D01*
X152733863Y-110868741D01*
X152598500Y-111071327D01*
X152463137Y-110868741D01*
X152263259Y-110668863D01*
X152028227Y-110511820D01*
X151767074Y-110403647D01*
X151489835Y-110348500D01*
X151207165Y-110348500D01*
X150929926Y-110403647D01*
X150668773Y-110511820D01*
X150433741Y-110668863D01*
X150233863Y-110868741D01*
X150098500Y-111071327D01*
X149963137Y-110868741D01*
X149763259Y-110668863D01*
X149528227Y-110511820D01*
X149267074Y-110403647D01*
X148989835Y-110348500D01*
X148707165Y-110348500D01*
X148429926Y-110403647D01*
X148168773Y-110511820D01*
X147933741Y-110668863D01*
X147733863Y-110868741D01*
X147598500Y-111071327D01*
X147463137Y-110868741D01*
X147263259Y-110668863D01*
X147028227Y-110511820D01*
X146767074Y-110403647D01*
X146489835Y-110348500D01*
X146207165Y-110348500D01*
X145929926Y-110403647D01*
X145668773Y-110511820D01*
X145433741Y-110668863D01*
X145233863Y-110868741D01*
X145098500Y-111071327D01*
X144963137Y-110868741D01*
X144763259Y-110668863D01*
X144528227Y-110511820D01*
X144267074Y-110403647D01*
X143989835Y-110348500D01*
X143707165Y-110348500D01*
X143429926Y-110403647D01*
X143168773Y-110511820D01*
X142933741Y-110668863D01*
X142733863Y-110868741D01*
X142598500Y-111071327D01*
X142463137Y-110868741D01*
X142263259Y-110668863D01*
X142028227Y-110511820D01*
X141767074Y-110403647D01*
X141489835Y-110348500D01*
X141207165Y-110348500D01*
X140929926Y-110403647D01*
X140668773Y-110511820D01*
X140433741Y-110668863D01*
X140233863Y-110868741D01*
X140098500Y-111071327D01*
X139963137Y-110868741D01*
X139763259Y-110668863D01*
X139528227Y-110511820D01*
X139267074Y-110403647D01*
X138989835Y-110348500D01*
X138707165Y-110348500D01*
X138429926Y-110403647D01*
X138168773Y-110511820D01*
X137933741Y-110668863D01*
X137733863Y-110868741D01*
X137598500Y-111071327D01*
X137463137Y-110868741D01*
X137263259Y-110668863D01*
X137028227Y-110511820D01*
X136767074Y-110403647D01*
X136489835Y-110348500D01*
X136207165Y-110348500D01*
X135929926Y-110403647D01*
X135668773Y-110511820D01*
X135433741Y-110668863D01*
X135233863Y-110868741D01*
X135098500Y-111071327D01*
X134963137Y-110868741D01*
X134763259Y-110668863D01*
X134528227Y-110511820D01*
X134267074Y-110403647D01*
X133989835Y-110348500D01*
X133707165Y-110348500D01*
X133429926Y-110403647D01*
X133168773Y-110511820D01*
X132933741Y-110668863D01*
X132733863Y-110868741D01*
X132585136Y-111091327D01*
X132463137Y-110908741D01*
X132263259Y-110708863D01*
X132028227Y-110551820D01*
X131767074Y-110443647D01*
X131489835Y-110388500D01*
X131207165Y-110388500D01*
X130929926Y-110443647D01*
X130668773Y-110551820D01*
X130433741Y-110708863D01*
X130233863Y-110908741D01*
X130098500Y-111111327D01*
X129963137Y-110908741D01*
X129763259Y-110708863D01*
X129528227Y-110551820D01*
X129267074Y-110443647D01*
X128989835Y-110388500D01*
X128707165Y-110388500D01*
X128429926Y-110443647D01*
X128168773Y-110551820D01*
X127933741Y-110708863D01*
X127733863Y-110908741D01*
X127598500Y-111111327D01*
X127463137Y-110908741D01*
X127263259Y-110708863D01*
X127028227Y-110551820D01*
X126767074Y-110443647D01*
X126489835Y-110388500D01*
X126207165Y-110388500D01*
X125929926Y-110443647D01*
X125668773Y-110551820D01*
X125433741Y-110708863D01*
X125233863Y-110908741D01*
X125098500Y-111111327D01*
X124963137Y-110908741D01*
X124763259Y-110708863D01*
X124528227Y-110551820D01*
X124267074Y-110443647D01*
X123989835Y-110388500D01*
X123707165Y-110388500D01*
X123429926Y-110443647D01*
X123168773Y-110551820D01*
X122933741Y-110708863D01*
X122733863Y-110908741D01*
X122598500Y-111111327D01*
X122463137Y-110908741D01*
X122263259Y-110708863D01*
X122028227Y-110551820D01*
X121767074Y-110443647D01*
X121489835Y-110388500D01*
X121207165Y-110388500D01*
X120929926Y-110443647D01*
X120668773Y-110551820D01*
X120433741Y-110708863D01*
X120233863Y-110908741D01*
X120098500Y-111111327D01*
X119963137Y-110908741D01*
X119763259Y-110708863D01*
X119528227Y-110551820D01*
X119267074Y-110443647D01*
X118989835Y-110388500D01*
X118707165Y-110388500D01*
X118429926Y-110443647D01*
X118168773Y-110551820D01*
X117933741Y-110708863D01*
X117733863Y-110908741D01*
X117576820Y-111143773D01*
X117468647Y-111404926D01*
X117413500Y-111682165D01*
X114747040Y-111682165D01*
X114747040Y-106602165D01*
X118663500Y-106602165D01*
X118663500Y-106884835D01*
X118718647Y-107162074D01*
X118826820Y-107423227D01*
X118983863Y-107658259D01*
X119183741Y-107858137D01*
X119418773Y-108015180D01*
X119679926Y-108123353D01*
X119957165Y-108178500D01*
X120239835Y-108178500D01*
X120517074Y-108123353D01*
X120778227Y-108015180D01*
X121013259Y-107858137D01*
X121213137Y-107658259D01*
X121335136Y-107475673D01*
X121483863Y-107698259D01*
X121683741Y-107898137D01*
X121918773Y-108055180D01*
X122179926Y-108163353D01*
X122457165Y-108218500D01*
X122739835Y-108218500D01*
X123017074Y-108163353D01*
X123278227Y-108055180D01*
X123513259Y-107898137D01*
X123713137Y-107698259D01*
X123848500Y-107495673D01*
X123983863Y-107698259D01*
X124183741Y-107898137D01*
X124418773Y-108055180D01*
X124679926Y-108163353D01*
X124957165Y-108218500D01*
X125239835Y-108218500D01*
X125517074Y-108163353D01*
X125778227Y-108055180D01*
X126013259Y-107898137D01*
X126213137Y-107698259D01*
X126348500Y-107495673D01*
X126483863Y-107698259D01*
X126683741Y-107898137D01*
X126918773Y-108055180D01*
X127179926Y-108163353D01*
X127457165Y-108218500D01*
X127739835Y-108218500D01*
X128017074Y-108163353D01*
X128278227Y-108055180D01*
X128513259Y-107898137D01*
X128713137Y-107698259D01*
X128848500Y-107495673D01*
X128983863Y-107698259D01*
X129183741Y-107898137D01*
X129418773Y-108055180D01*
X129679926Y-108163353D01*
X129957165Y-108218500D01*
X130239835Y-108218500D01*
X130517074Y-108163353D01*
X130778227Y-108055180D01*
X131013259Y-107898137D01*
X131213137Y-107698259D01*
X131348500Y-107495673D01*
X131483863Y-107698259D01*
X131683741Y-107898137D01*
X131918773Y-108055180D01*
X132179926Y-108163353D01*
X132457165Y-108218500D01*
X132739835Y-108218500D01*
X133017074Y-108163353D01*
X133278227Y-108055180D01*
X133513259Y-107898137D01*
X133713137Y-107698259D01*
X133848500Y-107495673D01*
X133983863Y-107698259D01*
X134183741Y-107898137D01*
X134418773Y-108055180D01*
X134679926Y-108163353D01*
X134957165Y-108218500D01*
X135239835Y-108218500D01*
X135517074Y-108163353D01*
X135778227Y-108055180D01*
X136013259Y-107898137D01*
X136213137Y-107698259D01*
X136348500Y-107495673D01*
X136483863Y-107698259D01*
X136683741Y-107898137D01*
X136918773Y-108055180D01*
X137179926Y-108163353D01*
X137457165Y-108218500D01*
X137739835Y-108218500D01*
X138017074Y-108163353D01*
X138278227Y-108055180D01*
X138513259Y-107898137D01*
X138713137Y-107698259D01*
X138861864Y-107475673D01*
X138983863Y-107658259D01*
X139183741Y-107858137D01*
X139418773Y-108015180D01*
X139679926Y-108123353D01*
X139957165Y-108178500D01*
X140239835Y-108178500D01*
X140517074Y-108123353D01*
X140778227Y-108015180D01*
X141013259Y-107858137D01*
X141213137Y-107658259D01*
X141348500Y-107455673D01*
X141483863Y-107658259D01*
X141683741Y-107858137D01*
X141918773Y-108015180D01*
X142179926Y-108123353D01*
X142457165Y-108178500D01*
X142739835Y-108178500D01*
X143017074Y-108123353D01*
X143278227Y-108015180D01*
X143513259Y-107858137D01*
X143713137Y-107658259D01*
X143848500Y-107455673D01*
X143983863Y-107658259D01*
X144183741Y-107858137D01*
X144418773Y-108015180D01*
X144679926Y-108123353D01*
X144957165Y-108178500D01*
X145239835Y-108178500D01*
X145517074Y-108123353D01*
X145778227Y-108015180D01*
X146013259Y-107858137D01*
X146213137Y-107658259D01*
X146348500Y-107455673D01*
X146483863Y-107658259D01*
X146683741Y-107858137D01*
X146918773Y-108015180D01*
X147179926Y-108123353D01*
X147457165Y-108178500D01*
X147739835Y-108178500D01*
X148017074Y-108123353D01*
X148278227Y-108015180D01*
X148513259Y-107858137D01*
X148713137Y-107658259D01*
X148848500Y-107455673D01*
X148983863Y-107658259D01*
X149183741Y-107858137D01*
X149418773Y-108015180D01*
X149679926Y-108123353D01*
X149957165Y-108178500D01*
X150239835Y-108178500D01*
X150517074Y-108123353D01*
X150778227Y-108015180D01*
X151013259Y-107858137D01*
X151213137Y-107658259D01*
X151348500Y-107455673D01*
X151483863Y-107658259D01*
X151683741Y-107858137D01*
X151918773Y-108015180D01*
X152179926Y-108123353D01*
X152457165Y-108178500D01*
X152739835Y-108178500D01*
X153017074Y-108123353D01*
X153278227Y-108015180D01*
X153513259Y-107858137D01*
X153713137Y-107658259D01*
X153848500Y-107455673D01*
X153983863Y-107658259D01*
X154183741Y-107858137D01*
X154418773Y-108015180D01*
X154679926Y-108123353D01*
X154957165Y-108178500D01*
X155239835Y-108178500D01*
X155517074Y-108123353D01*
X155778227Y-108015180D01*
X156013259Y-107858137D01*
X156213137Y-107658259D01*
X156370180Y-107423227D01*
X156478353Y-107162074D01*
X156533500Y-106884835D01*
X156533500Y-106729165D01*
X168662500Y-106729165D01*
X168662500Y-107011835D01*
X168717647Y-107289074D01*
X168825820Y-107550227D01*
X168982863Y-107785259D01*
X169182741Y-107985137D01*
X169417773Y-108142180D01*
X169678926Y-108250353D01*
X169956165Y-108305500D01*
X170238835Y-108305500D01*
X170516074Y-108250353D01*
X170777227Y-108142180D01*
X171012259Y-107985137D01*
X171212137Y-107785259D01*
X171334136Y-107602673D01*
X171482863Y-107825259D01*
X171682741Y-108025137D01*
X171917773Y-108182180D01*
X172178926Y-108290353D01*
X172456165Y-108345500D01*
X172738835Y-108345500D01*
X173016074Y-108290353D01*
X173277227Y-108182180D01*
X173512259Y-108025137D01*
X173712137Y-107825259D01*
X173847500Y-107622673D01*
X173982863Y-107825259D01*
X174182741Y-108025137D01*
X174417773Y-108182180D01*
X174678926Y-108290353D01*
X174956165Y-108345500D01*
X175238835Y-108345500D01*
X175516074Y-108290353D01*
X175777227Y-108182180D01*
X176012259Y-108025137D01*
X176212137Y-107825259D01*
X176347500Y-107622673D01*
X176482863Y-107825259D01*
X176682741Y-108025137D01*
X176917773Y-108182180D01*
X177178926Y-108290353D01*
X177456165Y-108345500D01*
X177738835Y-108345500D01*
X178016074Y-108290353D01*
X178277227Y-108182180D01*
X178512259Y-108025137D01*
X178712137Y-107825259D01*
X178847500Y-107622673D01*
X178982863Y-107825259D01*
X179182741Y-108025137D01*
X179417773Y-108182180D01*
X179678926Y-108290353D01*
X179956165Y-108345500D01*
X180238835Y-108345500D01*
X180516074Y-108290353D01*
X180777227Y-108182180D01*
X181012259Y-108025137D01*
X181212137Y-107825259D01*
X181347500Y-107622673D01*
X181482863Y-107825259D01*
X181682741Y-108025137D01*
X181917773Y-108182180D01*
X182178926Y-108290353D01*
X182456165Y-108345500D01*
X182738835Y-108345500D01*
X183016074Y-108290353D01*
X183277227Y-108182180D01*
X183512259Y-108025137D01*
X183712137Y-107825259D01*
X183847500Y-107622673D01*
X183982863Y-107825259D01*
X184182741Y-108025137D01*
X184417773Y-108182180D01*
X184678926Y-108290353D01*
X184956165Y-108345500D01*
X185238835Y-108345500D01*
X185516074Y-108290353D01*
X185777227Y-108182180D01*
X186012259Y-108025137D01*
X186212137Y-107825259D01*
X186347500Y-107622673D01*
X186482863Y-107825259D01*
X186682741Y-108025137D01*
X186917773Y-108182180D01*
X187178926Y-108290353D01*
X187456165Y-108345500D01*
X187738835Y-108345500D01*
X188016074Y-108290353D01*
X188277227Y-108182180D01*
X188512259Y-108025137D01*
X188712137Y-107825259D01*
X188860864Y-107602673D01*
X188982863Y-107785259D01*
X189182741Y-107985137D01*
X189417773Y-108142180D01*
X189678926Y-108250353D01*
X189956165Y-108305500D01*
X190238835Y-108305500D01*
X190516074Y-108250353D01*
X190777227Y-108142180D01*
X191012259Y-107985137D01*
X191212137Y-107785259D01*
X191347500Y-107582673D01*
X191482863Y-107785259D01*
X191682741Y-107985137D01*
X191917773Y-108142180D01*
X192178926Y-108250353D01*
X192456165Y-108305500D01*
X192738835Y-108305500D01*
X193016074Y-108250353D01*
X193277227Y-108142180D01*
X193512259Y-107985137D01*
X193712137Y-107785259D01*
X193847500Y-107582673D01*
X193982863Y-107785259D01*
X194182741Y-107985137D01*
X194417773Y-108142180D01*
X194678926Y-108250353D01*
X194956165Y-108305500D01*
X195238835Y-108305500D01*
X195516074Y-108250353D01*
X195777227Y-108142180D01*
X196012259Y-107985137D01*
X196212137Y-107785259D01*
X196347500Y-107582673D01*
X196482863Y-107785259D01*
X196682741Y-107985137D01*
X196917773Y-108142180D01*
X197178926Y-108250353D01*
X197456165Y-108305500D01*
X197738835Y-108305500D01*
X198016074Y-108250353D01*
X198277227Y-108142180D01*
X198512259Y-107985137D01*
X198712137Y-107785259D01*
X198847500Y-107582673D01*
X198982863Y-107785259D01*
X199182741Y-107985137D01*
X199417773Y-108142180D01*
X199678926Y-108250353D01*
X199956165Y-108305500D01*
X200238835Y-108305500D01*
X200516074Y-108250353D01*
X200777227Y-108142180D01*
X201012259Y-107985137D01*
X201212137Y-107785259D01*
X201347500Y-107582673D01*
X201482863Y-107785259D01*
X201682741Y-107985137D01*
X201917773Y-108142180D01*
X202178926Y-108250353D01*
X202456165Y-108305500D01*
X202738835Y-108305500D01*
X203016074Y-108250353D01*
X203277227Y-108142180D01*
X203512259Y-107985137D01*
X203712137Y-107785259D01*
X203847500Y-107582673D01*
X203982863Y-107785259D01*
X204182741Y-107985137D01*
X204417773Y-108142180D01*
X204678926Y-108250353D01*
X204956165Y-108305500D01*
X205238835Y-108305500D01*
X205516074Y-108250353D01*
X205777227Y-108142180D01*
X206012259Y-107985137D01*
X206212137Y-107785259D01*
X206369180Y-107550227D01*
X206477353Y-107289074D01*
X206532500Y-107011835D01*
X206532500Y-106729165D01*
X206477353Y-106451926D01*
X206369180Y-106190773D01*
X206212137Y-105955741D01*
X206012259Y-105755863D01*
X205777227Y-105598820D01*
X205516074Y-105490647D01*
X205238835Y-105435500D01*
X204956165Y-105435500D01*
X204678926Y-105490647D01*
X204417773Y-105598820D01*
X204182741Y-105755863D01*
X203982863Y-105955741D01*
X203847500Y-106158327D01*
X203712137Y-105955741D01*
X203512259Y-105755863D01*
X203277227Y-105598820D01*
X203016074Y-105490647D01*
X202738835Y-105435500D01*
X202456165Y-105435500D01*
X202178926Y-105490647D01*
X201917773Y-105598820D01*
X201682741Y-105755863D01*
X201482863Y-105955741D01*
X201347500Y-106158327D01*
X201212137Y-105955741D01*
X201012259Y-105755863D01*
X200777227Y-105598820D01*
X200516074Y-105490647D01*
X200238835Y-105435500D01*
X199956165Y-105435500D01*
X199678926Y-105490647D01*
X199417773Y-105598820D01*
X199182741Y-105755863D01*
X198982863Y-105955741D01*
X198847500Y-106158327D01*
X198712137Y-105955741D01*
X198512259Y-105755863D01*
X198277227Y-105598820D01*
X198016074Y-105490647D01*
X197738835Y-105435500D01*
X197456165Y-105435500D01*
X197178926Y-105490647D01*
X196917773Y-105598820D01*
X196682741Y-105755863D01*
X196482863Y-105955741D01*
X196347500Y-106158327D01*
X196212137Y-105955741D01*
X196012259Y-105755863D01*
X195777227Y-105598820D01*
X195516074Y-105490647D01*
X195238835Y-105435500D01*
X194956165Y-105435500D01*
X194678926Y-105490647D01*
X194417773Y-105598820D01*
X194182741Y-105755863D01*
X193982863Y-105955741D01*
X193847500Y-106158327D01*
X193712137Y-105955741D01*
X193512259Y-105755863D01*
X193277227Y-105598820D01*
X193016074Y-105490647D01*
X192738835Y-105435500D01*
X192456165Y-105435500D01*
X192178926Y-105490647D01*
X191917773Y-105598820D01*
X191682741Y-105755863D01*
X191482863Y-105955741D01*
X191347500Y-106158327D01*
X191212137Y-105955741D01*
X191012259Y-105755863D01*
X190777227Y-105598820D01*
X190516074Y-105490647D01*
X190238835Y-105435500D01*
X189956165Y-105435500D01*
X189678926Y-105490647D01*
X189417773Y-105598820D01*
X189182741Y-105755863D01*
X188982863Y-105955741D01*
X188834136Y-106178327D01*
X188712137Y-105995741D01*
X188512259Y-105795863D01*
X188277227Y-105638820D01*
X188016074Y-105530647D01*
X187738835Y-105475500D01*
X187456165Y-105475500D01*
X187178926Y-105530647D01*
X186917773Y-105638820D01*
X186682741Y-105795863D01*
X186482863Y-105995741D01*
X186347500Y-106198327D01*
X186212137Y-105995741D01*
X186012259Y-105795863D01*
X185777227Y-105638820D01*
X185516074Y-105530647D01*
X185238835Y-105475500D01*
X184956165Y-105475500D01*
X184678926Y-105530647D01*
X184417773Y-105638820D01*
X184182741Y-105795863D01*
X183982863Y-105995741D01*
X183847500Y-106198327D01*
X183712137Y-105995741D01*
X183512259Y-105795863D01*
X183277227Y-105638820D01*
X183016074Y-105530647D01*
X182738835Y-105475500D01*
X182456165Y-105475500D01*
X182178926Y-105530647D01*
X181917773Y-105638820D01*
X181682741Y-105795863D01*
X181482863Y-105995741D01*
X181347500Y-106198327D01*
X181212137Y-105995741D01*
X181012259Y-105795863D01*
X180777227Y-105638820D01*
X180516074Y-105530647D01*
X180238835Y-105475500D01*
X179956165Y-105475500D01*
X179678926Y-105530647D01*
X179417773Y-105638820D01*
X179182741Y-105795863D01*
X178982863Y-105995741D01*
X178847500Y-106198327D01*
X178712137Y-105995741D01*
X178512259Y-105795863D01*
X178277227Y-105638820D01*
X178016074Y-105530647D01*
X177738835Y-105475500D01*
X177456165Y-105475500D01*
X177178926Y-105530647D01*
X176917773Y-105638820D01*
X176682741Y-105795863D01*
X176482863Y-105995741D01*
X176347500Y-106198327D01*
X176212137Y-105995741D01*
X176012259Y-105795863D01*
X175777227Y-105638820D01*
X175516074Y-105530647D01*
X175238835Y-105475500D01*
X174956165Y-105475500D01*
X174678926Y-105530647D01*
X174417773Y-105638820D01*
X174182741Y-105795863D01*
X173982863Y-105995741D01*
X173847500Y-106198327D01*
X173712137Y-105995741D01*
X173512259Y-105795863D01*
X173277227Y-105638820D01*
X173016074Y-105530647D01*
X172738835Y-105475500D01*
X172456165Y-105475500D01*
X172178926Y-105530647D01*
X171917773Y-105638820D01*
X171682741Y-105795863D01*
X171482863Y-105995741D01*
X171360864Y-106178327D01*
X171212137Y-105955741D01*
X171012259Y-105755863D01*
X170777227Y-105598820D01*
X170516074Y-105490647D01*
X170238835Y-105435500D01*
X169956165Y-105435500D01*
X169678926Y-105490647D01*
X169417773Y-105598820D01*
X169182741Y-105755863D01*
X168982863Y-105955741D01*
X168825820Y-106190773D01*
X168717647Y-106451926D01*
X168662500Y-106729165D01*
X156533500Y-106729165D01*
X156533500Y-106602165D01*
X156478353Y-106324926D01*
X156370180Y-106063773D01*
X156213137Y-105828741D01*
X156013259Y-105628863D01*
X155778227Y-105471820D01*
X155517074Y-105363647D01*
X155239835Y-105308500D01*
X154957165Y-105308500D01*
X154679926Y-105363647D01*
X154418773Y-105471820D01*
X154183741Y-105628863D01*
X153983863Y-105828741D01*
X153848500Y-106031327D01*
X153713137Y-105828741D01*
X153513259Y-105628863D01*
X153278227Y-105471820D01*
X153017074Y-105363647D01*
X152739835Y-105308500D01*
X152457165Y-105308500D01*
X152179926Y-105363647D01*
X151918773Y-105471820D01*
X151683741Y-105628863D01*
X151483863Y-105828741D01*
X151348500Y-106031327D01*
X151213137Y-105828741D01*
X151013259Y-105628863D01*
X150778227Y-105471820D01*
X150517074Y-105363647D01*
X150239835Y-105308500D01*
X149957165Y-105308500D01*
X149679926Y-105363647D01*
X149418773Y-105471820D01*
X149183741Y-105628863D01*
X148983863Y-105828741D01*
X148848500Y-106031327D01*
X148713137Y-105828741D01*
X148513259Y-105628863D01*
X148278227Y-105471820D01*
X148017074Y-105363647D01*
X147739835Y-105308500D01*
X147457165Y-105308500D01*
X147179926Y-105363647D01*
X146918773Y-105471820D01*
X146683741Y-105628863D01*
X146483863Y-105828741D01*
X146348500Y-106031327D01*
X146213137Y-105828741D01*
X146013259Y-105628863D01*
X145778227Y-105471820D01*
X145517074Y-105363647D01*
X145239835Y-105308500D01*
X144957165Y-105308500D01*
X144679926Y-105363647D01*
X144418773Y-105471820D01*
X144183741Y-105628863D01*
X143983863Y-105828741D01*
X143848500Y-106031327D01*
X143713137Y-105828741D01*
X143513259Y-105628863D01*
X143278227Y-105471820D01*
X143017074Y-105363647D01*
X142739835Y-105308500D01*
X142457165Y-105308500D01*
X142179926Y-105363647D01*
X141918773Y-105471820D01*
X141683741Y-105628863D01*
X141483863Y-105828741D01*
X141348500Y-106031327D01*
X141213137Y-105828741D01*
X141013259Y-105628863D01*
X140778227Y-105471820D01*
X140517074Y-105363647D01*
X140239835Y-105308500D01*
X139957165Y-105308500D01*
X139679926Y-105363647D01*
X139418773Y-105471820D01*
X139183741Y-105628863D01*
X138983863Y-105828741D01*
X138835136Y-106051327D01*
X138713137Y-105868741D01*
X138513259Y-105668863D01*
X138278227Y-105511820D01*
X138017074Y-105403647D01*
X137739835Y-105348500D01*
X137457165Y-105348500D01*
X137179926Y-105403647D01*
X136918773Y-105511820D01*
X136683741Y-105668863D01*
X136483863Y-105868741D01*
X136348500Y-106071327D01*
X136213137Y-105868741D01*
X136013259Y-105668863D01*
X135778227Y-105511820D01*
X135517074Y-105403647D01*
X135239835Y-105348500D01*
X134957165Y-105348500D01*
X134679926Y-105403647D01*
X134418773Y-105511820D01*
X134183741Y-105668863D01*
X133983863Y-105868741D01*
X133848500Y-106071327D01*
X133713137Y-105868741D01*
X133513259Y-105668863D01*
X133278227Y-105511820D01*
X133017074Y-105403647D01*
X132739835Y-105348500D01*
X132457165Y-105348500D01*
X132179926Y-105403647D01*
X131918773Y-105511820D01*
X131683741Y-105668863D01*
X131483863Y-105868741D01*
X131348500Y-106071327D01*
X131213137Y-105868741D01*
X131013259Y-105668863D01*
X130778227Y-105511820D01*
X130517074Y-105403647D01*
X130239835Y-105348500D01*
X129957165Y-105348500D01*
X129679926Y-105403647D01*
X129418773Y-105511820D01*
X129183741Y-105668863D01*
X128983863Y-105868741D01*
X128848500Y-106071327D01*
X128713137Y-105868741D01*
X128513259Y-105668863D01*
X128278227Y-105511820D01*
X128017074Y-105403647D01*
X127739835Y-105348500D01*
X127457165Y-105348500D01*
X127179926Y-105403647D01*
X126918773Y-105511820D01*
X126683741Y-105668863D01*
X126483863Y-105868741D01*
X126348500Y-106071327D01*
X126213137Y-105868741D01*
X126013259Y-105668863D01*
X125778227Y-105511820D01*
X125517074Y-105403647D01*
X125239835Y-105348500D01*
X124957165Y-105348500D01*
X124679926Y-105403647D01*
X124418773Y-105511820D01*
X124183741Y-105668863D01*
X123983863Y-105868741D01*
X123848500Y-106071327D01*
X123713137Y-105868741D01*
X123513259Y-105668863D01*
X123278227Y-105511820D01*
X123017074Y-105403647D01*
X122739835Y-105348500D01*
X122457165Y-105348500D01*
X122179926Y-105403647D01*
X121918773Y-105511820D01*
X121683741Y-105668863D01*
X121483863Y-105868741D01*
X121361864Y-106051327D01*
X121213137Y-105828741D01*
X121013259Y-105628863D01*
X120778227Y-105471820D01*
X120517074Y-105363647D01*
X120239835Y-105308500D01*
X119957165Y-105308500D01*
X119679926Y-105363647D01*
X119418773Y-105471820D01*
X119183741Y-105628863D01*
X118983863Y-105828741D01*
X118826820Y-106063773D01*
X118718647Y-106324926D01*
X118663500Y-106602165D01*
X114747040Y-106602165D01*
X114747040Y-104104440D01*
X114744600Y-104079664D01*
X114743137Y-104073960D01*
X209443320Y-104073960D01*
X209443320Y-148107400D01*
G37*
X209443320Y-148107400D02*
X114747040Y-148107400D01*
X114747040Y-147180112D01*
X114772863Y-147218759D01*
X114972741Y-147418637D01*
X115207773Y-147575680D01*
X115468926Y-147683853D01*
X115746165Y-147739000D01*
X116028835Y-147739000D01*
X116306074Y-147683853D01*
X116567227Y-147575680D01*
X116802259Y-147418637D01*
X117002137Y-147218759D01*
X117157500Y-146986241D01*
X117312863Y-147218759D01*
X117512741Y-147418637D01*
X117747773Y-147575680D01*
X118008926Y-147683853D01*
X118286165Y-147739000D01*
X118568835Y-147739000D01*
X118846074Y-147683853D01*
X119107227Y-147575680D01*
X119342259Y-147418637D01*
X119542137Y-147218759D01*
X119697500Y-146986241D01*
X119852863Y-147218759D01*
X120052741Y-147418637D01*
X120287773Y-147575680D01*
X120548926Y-147683853D01*
X120826165Y-147739000D01*
X121108835Y-147739000D01*
X121386074Y-147683853D01*
X121647227Y-147575680D01*
X121882259Y-147418637D01*
X122082137Y-147218759D01*
X122237500Y-146986241D01*
X122392863Y-147218759D01*
X122592741Y-147418637D01*
X122827773Y-147575680D01*
X123088926Y-147683853D01*
X123366165Y-147739000D01*
X123648835Y-147739000D01*
X123926074Y-147683853D01*
X124187227Y-147575680D01*
X124422259Y-147418637D01*
X124622137Y-147218759D01*
X124777500Y-146986241D01*
X124932863Y-147218759D01*
X125132741Y-147418637D01*
X125367773Y-147575680D01*
X125628926Y-147683853D01*
X125906165Y-147739000D01*
X126188835Y-147739000D01*
X126466074Y-147683853D01*
X126727227Y-147575680D01*
X126962259Y-147418637D01*
X127162137Y-147218759D01*
X127317500Y-146986241D01*
X127472863Y-147218759D01*
X127672741Y-147418637D01*
X127907773Y-147575680D01*
X128168926Y-147683853D01*
X128446165Y-147739000D01*
X128728835Y-147739000D01*
X129006074Y-147683853D01*
X129267227Y-147575680D01*
X129502259Y-147418637D01*
X129702137Y-147218759D01*
X129857500Y-146986241D01*
X130012863Y-147218759D01*
X130212741Y-147418637D01*
X130447773Y-147575680D01*
X130708926Y-147683853D01*
X130986165Y-147739000D01*
X131268835Y-147739000D01*
X131546074Y-147683853D01*
X131807227Y-147575680D01*
X132042259Y-147418637D01*
X132242137Y-147218759D01*
X132397500Y-146986241D01*
X132552863Y-147218759D01*
X132752741Y-147418637D01*
X132987773Y-147575680D01*
X133248926Y-147683853D01*
X133526165Y-147739000D01*
X133808835Y-147739000D01*
X134086074Y-147683853D01*
X134347227Y-147575680D01*
X134582259Y-147418637D01*
X134782137Y-147218759D01*
X134937500Y-146986241D01*
X135092863Y-147218759D01*
X135292741Y-147418637D01*
X135527773Y-147575680D01*
X135788926Y-147683853D01*
X136066165Y-147739000D01*
X136348835Y-147739000D01*
X136626074Y-147683853D01*
X136887227Y-147575680D01*
X137122259Y-147418637D01*
X137322137Y-147218759D01*
X137477500Y-146986241D01*
X137632863Y-147218759D01*
X137832741Y-147418637D01*
X138067773Y-147575680D01*
X138328926Y-147683853D01*
X138606165Y-147739000D01*
X138888835Y-147739000D01*
X139166074Y-147683853D01*
X139427227Y-147575680D01*
X139662259Y-147418637D01*
X139862137Y-147218759D01*
X140017500Y-146986241D01*
X140172863Y-147218759D01*
X140372741Y-147418637D01*
X140607773Y-147575680D01*
X140868926Y-147683853D01*
X141146165Y-147739000D01*
X141428835Y-147739000D01*
X141706074Y-147683853D01*
X141967227Y-147575680D01*
X142202259Y-147418637D01*
X142402137Y-147218759D01*
X142557500Y-146986241D01*
X142712863Y-147218759D01*
X142912741Y-147418637D01*
X143147773Y-147575680D01*
X143408926Y-147683853D01*
X143686165Y-147739000D01*
X143968835Y-147739000D01*
X144246074Y-147683853D01*
X144507227Y-147575680D01*
X144742259Y-147418637D01*
X144942137Y-147218759D01*
X145097500Y-146986241D01*
X145252863Y-147218759D01*
X145452741Y-147418637D01*
X145687773Y-147575680D01*
X145948926Y-147683853D01*
X146226165Y-147739000D01*
X146508835Y-147739000D01*
X146786074Y-147683853D01*
X147047227Y-147575680D01*
X147282259Y-147418637D01*
X147482137Y-147218759D01*
X147637500Y-146986241D01*
X147792863Y-147218759D01*
X147992741Y-147418637D01*
X148227773Y-147575680D01*
X148488926Y-147683853D01*
X148766165Y-147739000D01*
X149048835Y-147739000D01*
X149326074Y-147683853D01*
X149587227Y-147575680D01*
X149822259Y-147418637D01*
X150022137Y-147218759D01*
X150177500Y-146986241D01*
X150332863Y-147218759D01*
X150532741Y-147418637D01*
X150767773Y-147575680D01*
X151028926Y-147683853D01*
X151306165Y-147739000D01*
X151588835Y-147739000D01*
X151866074Y-147683853D01*
X152127227Y-147575680D01*
X152362259Y-147418637D01*
X152562137Y-147218759D01*
X152719180Y-146983727D01*
X152827353Y-146722574D01*
X152882500Y-146445335D01*
X152882500Y-146162665D01*
X152827353Y-145885426D01*
X152778470Y-145767411D01*
X161688500Y-145767411D01*
X161688500Y-145951589D01*
X161724432Y-146132229D01*
X161794914Y-146302389D01*
X161897238Y-146455528D01*
X162027472Y-146585762D01*
X162180611Y-146688086D01*
X162350771Y-146758568D01*
X162531411Y-146794500D01*
X162715589Y-146794500D01*
X162896229Y-146758568D01*
X162989556Y-146719911D01*
X172991500Y-146719911D01*
X172991500Y-146904089D01*
X173027432Y-147084729D01*
X173097914Y-147254889D01*
X173200238Y-147408028D01*
X173330472Y-147538262D01*
X173483611Y-147640586D01*
X173653771Y-147711068D01*
X173834411Y-147747000D01*
X174018589Y-147747000D01*
X174199229Y-147711068D01*
X174369389Y-147640586D01*
X174522528Y-147538262D01*
X174652762Y-147408028D01*
X174755086Y-147254889D01*
X174825568Y-147084729D01*
X174861500Y-146904089D01*
X174861500Y-146719911D01*
X174825568Y-146539271D01*
X174755086Y-146369111D01*
X174652762Y-146215972D01*
X174584593Y-146147803D01*
X190617362Y-146147803D01*
X190715058Y-146413840D01*
X191007401Y-146556328D01*
X191321924Y-146639044D01*
X191646542Y-146658811D01*
X191968778Y-146614868D01*
X192276250Y-146508904D01*
X192454102Y-146413840D01*
X192551798Y-146147803D01*
X191584580Y-145180585D01*
X190617362Y-146147803D01*
X174584593Y-146147803D01*
X174522528Y-146085738D01*
X174369389Y-145983414D01*
X174199229Y-145912932D01*
X174018589Y-145877000D01*
X173834411Y-145877000D01*
X173653771Y-145912932D01*
X173483611Y-145983414D01*
X173330472Y-146085738D01*
X173200238Y-146215972D01*
X173097914Y-146369111D01*
X173027432Y-146539271D01*
X172991500Y-146719911D01*
X162989556Y-146719911D01*
X163066389Y-146688086D01*
X163219528Y-146585762D01*
X163349762Y-146455528D01*
X163452086Y-146302389D01*
X163522568Y-146132229D01*
X163558500Y-145951589D01*
X163558500Y-145767411D01*
X163522568Y-145586771D01*
X163452086Y-145416611D01*
X163349762Y-145263472D01*
X163219528Y-145133238D01*
X163114323Y-145062942D01*
X189926749Y-145062942D01*
X189970692Y-145385178D01*
X190076656Y-145692650D01*
X190171720Y-145870502D01*
X190437757Y-145968198D01*
X191404975Y-145000980D01*
X191764185Y-145000980D01*
X192731403Y-145968198D01*
X192997440Y-145870502D01*
X193139928Y-145578159D01*
X193222644Y-145263636D01*
X193242411Y-144939018D01*
X193228686Y-144838371D01*
X195013580Y-144838371D01*
X195013580Y-145163589D01*
X195077027Y-145482559D01*
X195201483Y-145783022D01*
X195382165Y-146053431D01*
X195612129Y-146283395D01*
X195882538Y-146464077D01*
X196183001Y-146588533D01*
X196501971Y-146651980D01*
X196827189Y-146651980D01*
X197146159Y-146588533D01*
X197446622Y-146464077D01*
X197717031Y-146283395D01*
X197946995Y-146053431D01*
X198127677Y-145783022D01*
X198252133Y-145482559D01*
X198315580Y-145163589D01*
X198315580Y-144838371D01*
X198252133Y-144519401D01*
X198167829Y-144315872D01*
X203738500Y-144315872D01*
X203738500Y-144756128D01*
X203824390Y-145187925D01*
X203992869Y-145594669D01*
X204237462Y-145960729D01*
X204548771Y-146272038D01*
X204914831Y-146516631D01*
X205321575Y-146685110D01*
X205753372Y-146771000D01*
X206193628Y-146771000D01*
X206625425Y-146685110D01*
X207032169Y-146516631D01*
X207398229Y-146272038D01*
X207709538Y-145960729D01*
X207954131Y-145594669D01*
X208122610Y-145187925D01*
X208208500Y-144756128D01*
X208208500Y-144315872D01*
X208122610Y-143884075D01*
X207954131Y-143477331D01*
X207709538Y-143111271D01*
X207398229Y-142799962D01*
X207032169Y-142555369D01*
X206625425Y-142386890D01*
X206193628Y-142301000D01*
X205753372Y-142301000D01*
X205321575Y-142386890D01*
X204914831Y-142555369D01*
X204548771Y-142799962D01*
X204237462Y-143111271D01*
X203992869Y-143477331D01*
X203824390Y-143884075D01*
X203738500Y-144315872D01*
X198167829Y-144315872D01*
X198127677Y-144218938D01*
X197946995Y-143948529D01*
X197717031Y-143718565D01*
X197446622Y-143537883D01*
X197146159Y-143413427D01*
X196827189Y-143349980D01*
X196501971Y-143349980D01*
X196183001Y-143413427D01*
X195882538Y-143537883D01*
X195612129Y-143718565D01*
X195382165Y-143948529D01*
X195201483Y-144218938D01*
X195077027Y-144519401D01*
X195013580Y-144838371D01*
X193228686Y-144838371D01*
X193198468Y-144616782D01*
X193092504Y-144309310D01*
X192997440Y-144131458D01*
X192731403Y-144033762D01*
X191764185Y-145000980D01*
X191404975Y-145000980D01*
X190437757Y-144033762D01*
X190171720Y-144131458D01*
X190029232Y-144423801D01*
X189946516Y-144738324D01*
X189926749Y-145062942D01*
X163114323Y-145062942D01*
X163066389Y-145030914D01*
X162896229Y-144960432D01*
X162715589Y-144924500D01*
X162531411Y-144924500D01*
X162350771Y-144960432D01*
X162180611Y-145030914D01*
X162027472Y-145133238D01*
X161897238Y-145263472D01*
X161794914Y-145416611D01*
X161724432Y-145586771D01*
X161688500Y-145767411D01*
X152778470Y-145767411D01*
X152719180Y-145624273D01*
X152562137Y-145389241D01*
X152362259Y-145189363D01*
X152127227Y-145032320D01*
X151866074Y-144924147D01*
X151588835Y-144869000D01*
X151306165Y-144869000D01*
X151028926Y-144924147D01*
X150767773Y-145032320D01*
X150532741Y-145189363D01*
X150332863Y-145389241D01*
X150177500Y-145621759D01*
X150022137Y-145389241D01*
X149822259Y-145189363D01*
X149587227Y-145032320D01*
X149326074Y-144924147D01*
X149048835Y-144869000D01*
X148766165Y-144869000D01*
X148488926Y-144924147D01*
X148227773Y-145032320D01*
X147992741Y-145189363D01*
X147792863Y-145389241D01*
X147637500Y-145621759D01*
X147482137Y-145389241D01*
X147282259Y-145189363D01*
X147047227Y-145032320D01*
X146786074Y-144924147D01*
X146508835Y-144869000D01*
X146226165Y-144869000D01*
X145948926Y-144924147D01*
X145687773Y-145032320D01*
X145452741Y-145189363D01*
X145252863Y-145389241D01*
X145097500Y-145621759D01*
X144942137Y-145389241D01*
X144742259Y-145189363D01*
X144507227Y-145032320D01*
X144246074Y-144924147D01*
X143968835Y-144869000D01*
X143686165Y-144869000D01*
X143408926Y-144924147D01*
X143147773Y-145032320D01*
X142912741Y-145189363D01*
X142712863Y-145389241D01*
X142557500Y-145621759D01*
X142402137Y-145389241D01*
X142202259Y-145189363D01*
X141967227Y-145032320D01*
X141706074Y-144924147D01*
X141428835Y-144869000D01*
X141146165Y-144869000D01*
X140868926Y-144924147D01*
X140607773Y-145032320D01*
X140372741Y-145189363D01*
X140172863Y-145389241D01*
X140017500Y-145621759D01*
X139862137Y-145389241D01*
X139662259Y-145189363D01*
X139427227Y-145032320D01*
X139166074Y-144924147D01*
X138888835Y-144869000D01*
X138606165Y-144869000D01*
X138328926Y-144924147D01*
X138067773Y-145032320D01*
X137832741Y-145189363D01*
X137632863Y-145389241D01*
X137477500Y-145621759D01*
X137322137Y-145389241D01*
X137122259Y-145189363D01*
X136887227Y-145032320D01*
X136626074Y-144924147D01*
X136348835Y-144869000D01*
X136066165Y-144869000D01*
X135788926Y-144924147D01*
X135527773Y-145032320D01*
X135292741Y-145189363D01*
X135092863Y-145389241D01*
X134937500Y-145621759D01*
X134782137Y-145389241D01*
X134582259Y-145189363D01*
X134347227Y-145032320D01*
X134086074Y-144924147D01*
X133808835Y-144869000D01*
X133526165Y-144869000D01*
X133248926Y-144924147D01*
X132987773Y-145032320D01*
X132752741Y-145189363D01*
X132552863Y-145389241D01*
X132397500Y-145621759D01*
X132242137Y-145389241D01*
X132042259Y-145189363D01*
X131807227Y-145032320D01*
X131546074Y-144924147D01*
X131268835Y-144869000D01*
X130986165Y-144869000D01*
X130708926Y-144924147D01*
X130447773Y-145032320D01*
X130212741Y-145189363D01*
X130012863Y-145389241D01*
X129857500Y-145621759D01*
X129702137Y-145389241D01*
X129502259Y-145189363D01*
X129267227Y-145032320D01*
X129006074Y-144924147D01*
X128728835Y-144869000D01*
X128446165Y-144869000D01*
X128168926Y-144924147D01*
X127907773Y-145032320D01*
X127672741Y-145189363D01*
X127472863Y-145389241D01*
X127317500Y-145621759D01*
X127162137Y-145389241D01*
X126962259Y-145189363D01*
X126727227Y-145032320D01*
X126466074Y-144924147D01*
X126188835Y-144869000D01*
X125906165Y-144869000D01*
X125628926Y-144924147D01*
X125367773Y-145032320D01*
X125132741Y-145189363D01*
X124932863Y-145389241D01*
X124777500Y-145621759D01*
X124622137Y-145389241D01*
X124422259Y-145189363D01*
X124187227Y-145032320D01*
X123926074Y-144924147D01*
X123648835Y-144869000D01*
X123366165Y-144869000D01*
X123088926Y-144924147D01*
X122827773Y-145032320D01*
X122592741Y-145189363D01*
X122392863Y-145389241D01*
X122237500Y-145621759D01*
X122082137Y-145389241D01*
X121882259Y-145189363D01*
X121647227Y-145032320D01*
X121386074Y-144924147D01*
X121108835Y-144869000D01*
X120826165Y-144869000D01*
X120548926Y-144924147D01*
X120287773Y-145032320D01*
X120052741Y-145189363D01*
X119852863Y-145389241D01*
X119697500Y-145621759D01*
X119542137Y-145389241D01*
X119342259Y-145189363D01*
X119107227Y-145032320D01*
X118846074Y-144924147D01*
X118568835Y-144869000D01*
X118286165Y-144869000D01*
X118008926Y-144924147D01*
X117747773Y-145032320D01*
X117512741Y-145189363D01*
X117312863Y-145389241D01*
X117157500Y-145621759D01*
X117002137Y-145389241D01*
X116802259Y-145189363D01*
X116567227Y-145032320D01*
X116306074Y-144924147D01*
X116028835Y-144869000D01*
X115746165Y-144869000D01*
X115468926Y-144924147D01*
X115207773Y-145032320D01*
X114972741Y-145189363D01*
X114772863Y-145389241D01*
X114747040Y-145427888D01*
X114747040Y-143854157D01*
X190617362Y-143854157D01*
X191584580Y-144821375D01*
X192551798Y-143854157D01*
X192454102Y-143588120D01*
X192161759Y-143445632D01*
X191847236Y-143362916D01*
X191522618Y-143343149D01*
X191200382Y-143387092D01*
X190892910Y-143493056D01*
X190715058Y-143588120D01*
X190617362Y-143854157D01*
X114747040Y-143854157D01*
X114747040Y-138315872D01*
X115738500Y-138315872D01*
X115738500Y-138756128D01*
X115824390Y-139187925D01*
X115992869Y-139594669D01*
X116237462Y-139960729D01*
X116548771Y-140272038D01*
X116914831Y-140516631D01*
X117321575Y-140685110D01*
X117753372Y-140771000D01*
X118193628Y-140771000D01*
X118625425Y-140685110D01*
X119032169Y-140516631D01*
X119114901Y-140461351D01*
X172623200Y-140461351D01*
X172623200Y-140645529D01*
X172659132Y-140826169D01*
X172729614Y-140996329D01*
X172831938Y-141149468D01*
X172962172Y-141279702D01*
X173115311Y-141382026D01*
X173285471Y-141452508D01*
X173466111Y-141488440D01*
X173650289Y-141488440D01*
X173830929Y-141452508D01*
X174001089Y-141382026D01*
X174154228Y-141279702D01*
X174284462Y-141149468D01*
X174386786Y-140996329D01*
X174457268Y-140826169D01*
X174493200Y-140645529D01*
X174493200Y-140461351D01*
X174457268Y-140280711D01*
X174386786Y-140110551D01*
X174284462Y-139957412D01*
X174154228Y-139827178D01*
X174001089Y-139724854D01*
X173830929Y-139654372D01*
X173650289Y-139618440D01*
X173466111Y-139618440D01*
X173285471Y-139654372D01*
X173115311Y-139724854D01*
X172962172Y-139827178D01*
X172831938Y-139957412D01*
X172729614Y-140110551D01*
X172659132Y-140280711D01*
X172623200Y-140461351D01*
X119114901Y-140461351D01*
X119398229Y-140272038D01*
X119709538Y-139960729D01*
X119954131Y-139594669D01*
X120098591Y-139245911D01*
X184309740Y-139245911D01*
X184309740Y-139430089D01*
X184345672Y-139610729D01*
X184416154Y-139780889D01*
X184518478Y-139934028D01*
X184648712Y-140064262D01*
X184801851Y-140166586D01*
X184972011Y-140237068D01*
X185152651Y-140273000D01*
X185336829Y-140273000D01*
X185517469Y-140237068D01*
X185687629Y-140166586D01*
X185840768Y-140064262D01*
X185971002Y-139934028D01*
X186073326Y-139780889D01*
X186143808Y-139610729D01*
X186179740Y-139430089D01*
X186179740Y-139245911D01*
X186143808Y-139065271D01*
X186073326Y-138895111D01*
X185971002Y-138741972D01*
X185840768Y-138611738D01*
X185687629Y-138509414D01*
X185517469Y-138438932D01*
X185336829Y-138403000D01*
X185152651Y-138403000D01*
X184972011Y-138438932D01*
X184801851Y-138509414D01*
X184648712Y-138611738D01*
X184518478Y-138741972D01*
X184416154Y-138895111D01*
X184345672Y-139065271D01*
X184309740Y-139245911D01*
X120098591Y-139245911D01*
X120122610Y-139187925D01*
X120208500Y-138756128D01*
X120208500Y-138315872D01*
X120122610Y-137884075D01*
X119982538Y-137545910D01*
X188434700Y-137545910D01*
X188434700Y-137730088D01*
X188470632Y-137910728D01*
X188541114Y-138080888D01*
X188643438Y-138234027D01*
X188773672Y-138364261D01*
X188926811Y-138466585D01*
X189096971Y-138537067D01*
X189277611Y-138572999D01*
X189461789Y-138572999D01*
X189642429Y-138537067D01*
X189812589Y-138466585D01*
X189965728Y-138364261D01*
X190095962Y-138234027D01*
X190198286Y-138080888D01*
X190268768Y-137910728D01*
X190304700Y-137730088D01*
X190304700Y-137545910D01*
X190268768Y-137365270D01*
X190198286Y-137195110D01*
X190095962Y-137041971D01*
X189965728Y-136911737D01*
X189812589Y-136809413D01*
X189642429Y-136738931D01*
X189461789Y-136702999D01*
X189277611Y-136702999D01*
X189096971Y-136738931D01*
X188926811Y-136809413D01*
X188773672Y-136911737D01*
X188643438Y-137041971D01*
X188541114Y-137195110D01*
X188470632Y-137365270D01*
X188434700Y-137545910D01*
X119982538Y-137545910D01*
X119954131Y-137477331D01*
X119709538Y-137111271D01*
X119398229Y-136799962D01*
X119032169Y-136555369D01*
X118625425Y-136386890D01*
X118193628Y-136301000D01*
X117753372Y-136301000D01*
X117321575Y-136386890D01*
X116914831Y-136555369D01*
X116548771Y-136799962D01*
X116237462Y-137111271D01*
X115992869Y-137477331D01*
X115824390Y-137884075D01*
X115738500Y-138315872D01*
X114747040Y-138315872D01*
X114747040Y-134502705D01*
X167447580Y-134502705D01*
X167447580Y-134686883D01*
X167483512Y-134867523D01*
X167553994Y-135037683D01*
X167656318Y-135190822D01*
X167786552Y-135321056D01*
X167939691Y-135423380D01*
X168109851Y-135493862D01*
X168279060Y-135527520D01*
X168279060Y-135590929D01*
X168314992Y-135771569D01*
X168385474Y-135941729D01*
X168487798Y-136094868D01*
X168618032Y-136225102D01*
X168771171Y-136327426D01*
X168941331Y-136397908D01*
X169121971Y-136433840D01*
X169306149Y-136433840D01*
X169486789Y-136397908D01*
X169656949Y-136327426D01*
X169810088Y-136225102D01*
X169940322Y-136094868D01*
X170042646Y-135941729D01*
X170090030Y-135827333D01*
X170097434Y-135845209D01*
X170199758Y-135998348D01*
X170329992Y-136128582D01*
X170483131Y-136230906D01*
X170653291Y-136301388D01*
X170833931Y-136337320D01*
X171018109Y-136337320D01*
X171198749Y-136301388D01*
X171368909Y-136230906D01*
X171522048Y-136128582D01*
X171652282Y-135998348D01*
X171754606Y-135845209D01*
X171783385Y-135775731D01*
X171797434Y-135809649D01*
X171899758Y-135962788D01*
X172029992Y-136093022D01*
X172183131Y-136195346D01*
X172353291Y-136265828D01*
X172533931Y-136301760D01*
X172718109Y-136301760D01*
X172898749Y-136265828D01*
X173068909Y-136195346D01*
X173222048Y-136093022D01*
X173269159Y-136045911D01*
X184279260Y-136045911D01*
X184279260Y-136230089D01*
X184315192Y-136410729D01*
X184385674Y-136580889D01*
X184487998Y-136734028D01*
X184618232Y-136864262D01*
X184771371Y-136966586D01*
X184941531Y-137037068D01*
X185122171Y-137073000D01*
X185306349Y-137073000D01*
X185486989Y-137037068D01*
X185657149Y-136966586D01*
X185810288Y-136864262D01*
X185940522Y-136734028D01*
X186042846Y-136580889D01*
X186113328Y-136410729D01*
X186149260Y-136230089D01*
X186149260Y-136045911D01*
X186113328Y-135865271D01*
X186042846Y-135695111D01*
X185940522Y-135541972D01*
X185810288Y-135411738D01*
X185657149Y-135309414D01*
X185486989Y-135238932D01*
X185306349Y-135203000D01*
X185122171Y-135203000D01*
X184941531Y-135238932D01*
X184771371Y-135309414D01*
X184618232Y-135411738D01*
X184487998Y-135541972D01*
X184385674Y-135695111D01*
X184315192Y-135865271D01*
X184279260Y-136045911D01*
X173269159Y-136045911D01*
X173352282Y-135962788D01*
X173454606Y-135809649D01*
X173525088Y-135639489D01*
X173561020Y-135458849D01*
X173561020Y-135274671D01*
X173525088Y-135094031D01*
X173454606Y-134923871D01*
X173352282Y-134770732D01*
X173222048Y-134640498D01*
X173068909Y-134538174D01*
X172898749Y-134467692D01*
X172718109Y-134431760D01*
X172533931Y-134431760D01*
X172353291Y-134467692D01*
X172183131Y-134538174D01*
X172029992Y-134640498D01*
X171899758Y-134770732D01*
X171797434Y-134923871D01*
X171768655Y-134993349D01*
X171754606Y-134959431D01*
X171652282Y-134806292D01*
X171522048Y-134676058D01*
X171368909Y-134573734D01*
X171198749Y-134503252D01*
X171018109Y-134467320D01*
X170833931Y-134467320D01*
X170653291Y-134503252D01*
X170483131Y-134573734D01*
X170329992Y-134676058D01*
X170199758Y-134806292D01*
X170097434Y-134959431D01*
X170050050Y-135073827D01*
X170042646Y-135055951D01*
X169940322Y-134902812D01*
X169810088Y-134772578D01*
X169656949Y-134670254D01*
X169486789Y-134599772D01*
X169317580Y-134566114D01*
X169317580Y-134502705D01*
X169286392Y-134345910D01*
X188465180Y-134345910D01*
X188465180Y-134530088D01*
X188501112Y-134710728D01*
X188571594Y-134880888D01*
X188673918Y-135034027D01*
X188804152Y-135164261D01*
X188957291Y-135266585D01*
X189127451Y-135337067D01*
X189308091Y-135372999D01*
X189492269Y-135372999D01*
X189672909Y-135337067D01*
X189843069Y-135266585D01*
X189996208Y-135164261D01*
X190126442Y-135034027D01*
X190228766Y-134880888D01*
X190299248Y-134710728D01*
X190335180Y-134530088D01*
X190335180Y-134345910D01*
X190299248Y-134165270D01*
X190228766Y-133995110D01*
X190126442Y-133841971D01*
X189996208Y-133711737D01*
X189843069Y-133609413D01*
X189672909Y-133538931D01*
X189492269Y-133502999D01*
X189308091Y-133502999D01*
X189127451Y-133538931D01*
X188957291Y-133609413D01*
X188804152Y-133711737D01*
X188673918Y-133841971D01*
X188571594Y-133995110D01*
X188501112Y-134165270D01*
X188465180Y-134345910D01*
X169286392Y-134345910D01*
X169281648Y-134322065D01*
X169211166Y-134151905D01*
X169108842Y-133998766D01*
X168978608Y-133868532D01*
X168825469Y-133766208D01*
X168655309Y-133695726D01*
X168474669Y-133659794D01*
X168290491Y-133659794D01*
X168109851Y-133695726D01*
X167939691Y-133766208D01*
X167786552Y-133868532D01*
X167656318Y-133998766D01*
X167553994Y-134151905D01*
X167483512Y-134322065D01*
X167447580Y-134502705D01*
X114747040Y-134502705D01*
X114747040Y-131940112D01*
X114772863Y-131978759D01*
X114972741Y-132178637D01*
X115207773Y-132335680D01*
X115468926Y-132443853D01*
X115746165Y-132499000D01*
X116028835Y-132499000D01*
X116306074Y-132443853D01*
X116567227Y-132335680D01*
X116802259Y-132178637D01*
X117002137Y-131978759D01*
X117157500Y-131746241D01*
X117312863Y-131978759D01*
X117512741Y-132178637D01*
X117747773Y-132335680D01*
X118008926Y-132443853D01*
X118286165Y-132499000D01*
X118568835Y-132499000D01*
X118846074Y-132443853D01*
X119107227Y-132335680D01*
X119342259Y-132178637D01*
X119542137Y-131978759D01*
X119697500Y-131746241D01*
X119852863Y-131978759D01*
X120052741Y-132178637D01*
X120287773Y-132335680D01*
X120548926Y-132443853D01*
X120826165Y-132499000D01*
X121108835Y-132499000D01*
X121386074Y-132443853D01*
X121647227Y-132335680D01*
X121882259Y-132178637D01*
X122082137Y-131978759D01*
X122237500Y-131746241D01*
X122392863Y-131978759D01*
X122592741Y-132178637D01*
X122827773Y-132335680D01*
X123088926Y-132443853D01*
X123366165Y-132499000D01*
X123648835Y-132499000D01*
X123926074Y-132443853D01*
X124187227Y-132335680D01*
X124422259Y-132178637D01*
X124622137Y-131978759D01*
X124777500Y-131746241D01*
X124932863Y-131978759D01*
X125132741Y-132178637D01*
X125367773Y-132335680D01*
X125628926Y-132443853D01*
X125906165Y-132499000D01*
X126188835Y-132499000D01*
X126466074Y-132443853D01*
X126727227Y-132335680D01*
X126962259Y-132178637D01*
X127162137Y-131978759D01*
X127317500Y-131746241D01*
X127472863Y-131978759D01*
X127672741Y-132178637D01*
X127907773Y-132335680D01*
X128168926Y-132443853D01*
X128446165Y-132499000D01*
X128728835Y-132499000D01*
X129006074Y-132443853D01*
X129267227Y-132335680D01*
X129502259Y-132178637D01*
X129702137Y-131978759D01*
X129857500Y-131746241D01*
X130012863Y-131978759D01*
X130212741Y-132178637D01*
X130447773Y-132335680D01*
X130708926Y-132443853D01*
X130986165Y-132499000D01*
X131268835Y-132499000D01*
X131546074Y-132443853D01*
X131807227Y-132335680D01*
X132042259Y-132178637D01*
X132242137Y-131978759D01*
X132397500Y-131746241D01*
X132552863Y-131978759D01*
X132752741Y-132178637D01*
X132987773Y-132335680D01*
X133248926Y-132443853D01*
X133526165Y-132499000D01*
X133808835Y-132499000D01*
X134086074Y-132443853D01*
X134347227Y-132335680D01*
X134582259Y-132178637D01*
X134782137Y-131978759D01*
X134937500Y-131746241D01*
X135092863Y-131978759D01*
X135292741Y-132178637D01*
X135527773Y-132335680D01*
X135788926Y-132443853D01*
X136066165Y-132499000D01*
X136348835Y-132499000D01*
X136626074Y-132443853D01*
X136887227Y-132335680D01*
X137122259Y-132178637D01*
X137322137Y-131978759D01*
X137477500Y-131746241D01*
X137632863Y-131978759D01*
X137832741Y-132178637D01*
X138067773Y-132335680D01*
X138328926Y-132443853D01*
X138606165Y-132499000D01*
X138888835Y-132499000D01*
X139166074Y-132443853D01*
X139427227Y-132335680D01*
X139662259Y-132178637D01*
X139862137Y-131978759D01*
X140017500Y-131746241D01*
X140172863Y-131978759D01*
X140372741Y-132178637D01*
X140607773Y-132335680D01*
X140868926Y-132443853D01*
X141146165Y-132499000D01*
X141428835Y-132499000D01*
X141706074Y-132443853D01*
X141967227Y-132335680D01*
X142202259Y-132178637D01*
X142402137Y-131978759D01*
X142557500Y-131746241D01*
X142712863Y-131978759D01*
X142912741Y-132178637D01*
X143147773Y-132335680D01*
X143408926Y-132443853D01*
X143686165Y-132499000D01*
X143968835Y-132499000D01*
X144246074Y-132443853D01*
X144507227Y-132335680D01*
X144742259Y-132178637D01*
X144942137Y-131978759D01*
X145097500Y-131746241D01*
X145252863Y-131978759D01*
X145452741Y-132178637D01*
X145687773Y-132335680D01*
X145948926Y-132443853D01*
X146226165Y-132499000D01*
X146508835Y-132499000D01*
X146786074Y-132443853D01*
X147047227Y-132335680D01*
X147282259Y-132178637D01*
X147482137Y-131978759D01*
X147637500Y-131746241D01*
X147792863Y-131978759D01*
X147992741Y-132178637D01*
X148227773Y-132335680D01*
X148488926Y-132443853D01*
X148766165Y-132499000D01*
X149048835Y-132499000D01*
X149326074Y-132443853D01*
X149587227Y-132335680D01*
X149822259Y-132178637D01*
X150020857Y-131980039D01*
X150021688Y-131988482D01*
X150057998Y-132108180D01*
X150116963Y-132218494D01*
X150196315Y-132315185D01*
X150293006Y-132394537D01*
X150403320Y-132453502D01*
X150523018Y-132489812D01*
X150647500Y-132502072D01*
X152247500Y-132502072D01*
X152371982Y-132489812D01*
X152491680Y-132453502D01*
X152601994Y-132394537D01*
X152698685Y-132315185D01*
X152773410Y-132224131D01*
X169129060Y-132224131D01*
X169129060Y-132408309D01*
X169164992Y-132588949D01*
X169235474Y-132759109D01*
X169337798Y-132912248D01*
X169468032Y-133042482D01*
X169621171Y-133144806D01*
X169791331Y-133215288D01*
X169971971Y-133251220D01*
X170156149Y-133251220D01*
X170336789Y-133215288D01*
X170506949Y-133144806D01*
X170660088Y-133042482D01*
X170790322Y-132912248D01*
X170892646Y-132759109D01*
X170900576Y-132739963D01*
X170947434Y-132853089D01*
X171049758Y-133006228D01*
X171179992Y-133136462D01*
X171333131Y-133238786D01*
X171503291Y-133309268D01*
X171683931Y-133345200D01*
X171868109Y-133345200D01*
X172048749Y-133309268D01*
X172218909Y-133238786D01*
X172372048Y-133136462D01*
X172502282Y-133006228D01*
X172604606Y-132853089D01*
X172657731Y-132724832D01*
X172724534Y-132886109D01*
X172826858Y-133039248D01*
X172957092Y-133169482D01*
X173110231Y-133271806D01*
X173280391Y-133342288D01*
X173461031Y-133378220D01*
X173645209Y-133378220D01*
X173825849Y-133342288D01*
X173996009Y-133271806D01*
X174149148Y-133169482D01*
X174279382Y-133039248D01*
X174381706Y-132886109D01*
X174398356Y-132845911D01*
X184190360Y-132845911D01*
X184190360Y-133030089D01*
X184226292Y-133210729D01*
X184296774Y-133380889D01*
X184399098Y-133534028D01*
X184529332Y-133664262D01*
X184682471Y-133766586D01*
X184852631Y-133837068D01*
X185033271Y-133873000D01*
X185217449Y-133873000D01*
X185398089Y-133837068D01*
X185568249Y-133766586D01*
X185721388Y-133664262D01*
X185851622Y-133534028D01*
X185953946Y-133380889D01*
X186024428Y-133210729D01*
X186060360Y-133030089D01*
X186060360Y-132845911D01*
X186024428Y-132665271D01*
X185953946Y-132495111D01*
X185851622Y-132341972D01*
X185721388Y-132211738D01*
X185568249Y-132109414D01*
X185398089Y-132038932D01*
X185217449Y-132003000D01*
X185033271Y-132003000D01*
X184852631Y-132038932D01*
X184682471Y-132109414D01*
X184529332Y-132211738D01*
X184399098Y-132341972D01*
X184296774Y-132495111D01*
X184226292Y-132665271D01*
X184190360Y-132845911D01*
X174398356Y-132845911D01*
X174452188Y-132715949D01*
X174488120Y-132535309D01*
X174488120Y-132351131D01*
X174452188Y-132170491D01*
X174381706Y-132000331D01*
X174279382Y-131847192D01*
X174149148Y-131716958D01*
X173996009Y-131614634D01*
X173825849Y-131544152D01*
X173645209Y-131508220D01*
X173461031Y-131508220D01*
X173280391Y-131544152D01*
X173110231Y-131614634D01*
X172957092Y-131716958D01*
X172826858Y-131847192D01*
X172724534Y-132000331D01*
X172671409Y-132128588D01*
X172604606Y-131967311D01*
X172502282Y-131814172D01*
X172372048Y-131683938D01*
X172218909Y-131581614D01*
X172048749Y-131511132D01*
X171868109Y-131475200D01*
X171683931Y-131475200D01*
X171503291Y-131511132D01*
X171333131Y-131581614D01*
X171179992Y-131683938D01*
X171049758Y-131814172D01*
X170947434Y-131967311D01*
X170939504Y-131986457D01*
X170892646Y-131873331D01*
X170790322Y-131720192D01*
X170660088Y-131589958D01*
X170506949Y-131487634D01*
X170336789Y-131417152D01*
X170156149Y-131381220D01*
X169971971Y-131381220D01*
X169791331Y-131417152D01*
X169621171Y-131487634D01*
X169468032Y-131589958D01*
X169337798Y-131720192D01*
X169235474Y-131873331D01*
X169164992Y-132043491D01*
X169129060Y-132224131D01*
X152773410Y-132224131D01*
X152778037Y-132218494D01*
X152837002Y-132108180D01*
X152873312Y-131988482D01*
X152885572Y-131864000D01*
X152885572Y-131142180D01*
X156974620Y-131142180D01*
X156974620Y-131326358D01*
X157010552Y-131506998D01*
X157081034Y-131677158D01*
X157183358Y-131830297D01*
X157313592Y-131960531D01*
X157466731Y-132062855D01*
X157636891Y-132133337D01*
X157817531Y-132169269D01*
X158001709Y-132169269D01*
X158182349Y-132133337D01*
X158352509Y-132062855D01*
X158505648Y-131960531D01*
X158635882Y-131830297D01*
X158738206Y-131677158D01*
X158808688Y-131506998D01*
X158844620Y-131326358D01*
X158844620Y-131142180D01*
X158808688Y-130961540D01*
X158738206Y-130791380D01*
X158643550Y-130649717D01*
X158648621Y-130644646D01*
X158750945Y-130491507D01*
X158821427Y-130321347D01*
X158857359Y-130140707D01*
X158857359Y-129956529D01*
X158821427Y-129775889D01*
X158750945Y-129605729D01*
X158679507Y-129498814D01*
X158692189Y-129486132D01*
X158794513Y-129332993D01*
X158864995Y-129162833D01*
X158900927Y-128982193D01*
X158900927Y-128798015D01*
X158864995Y-128617375D01*
X158794513Y-128447215D01*
X158720398Y-128336295D01*
X158732416Y-128324277D01*
X158834740Y-128171138D01*
X158905222Y-128000978D01*
X158941154Y-127820338D01*
X158941154Y-127636160D01*
X158905222Y-127455520D01*
X158834740Y-127285360D01*
X158732416Y-127132221D01*
X158718629Y-127118434D01*
X158723642Y-127113421D01*
X158825966Y-126960282D01*
X158896448Y-126790122D01*
X158932380Y-126609482D01*
X158932380Y-126425304D01*
X158896448Y-126244664D01*
X158825966Y-126074504D01*
X158769041Y-125989309D01*
X158785327Y-125973023D01*
X158887651Y-125819884D01*
X158958133Y-125649724D01*
X158994065Y-125469084D01*
X158994065Y-125284906D01*
X158958133Y-125104266D01*
X158887651Y-124934106D01*
X158811429Y-124820031D01*
X159212000Y-124820031D01*
X159212000Y-125004209D01*
X159247932Y-125184849D01*
X159318414Y-125355009D01*
X159376340Y-125441701D01*
X159323494Y-125520791D01*
X159253012Y-125690951D01*
X159217080Y-125871591D01*
X159217080Y-126055769D01*
X159253012Y-126236409D01*
X159323494Y-126406569D01*
X159425818Y-126559708D01*
X159556052Y-126689942D01*
X159709191Y-126792266D01*
X159879351Y-126862748D01*
X160059991Y-126898680D01*
X160244169Y-126898680D01*
X160424809Y-126862748D01*
X160594969Y-126792266D01*
X160748108Y-126689942D01*
X160878342Y-126559708D01*
X160980666Y-126406569D01*
X161051148Y-126236409D01*
X161087080Y-126055769D01*
X161087080Y-125871591D01*
X161051148Y-125690951D01*
X160980666Y-125520791D01*
X160922740Y-125434099D01*
X160975586Y-125355009D01*
X161046068Y-125184849D01*
X161082000Y-125004209D01*
X161082000Y-124820031D01*
X161046068Y-124639391D01*
X160975586Y-124469231D01*
X160922173Y-124389293D01*
X160978704Y-124304689D01*
X161049186Y-124134529D01*
X161085118Y-123953889D01*
X161085118Y-123769711D01*
X161049186Y-123589071D01*
X160978704Y-123418911D01*
X160922770Y-123335200D01*
X160939302Y-123318668D01*
X161041626Y-123165529D01*
X161112108Y-122995369D01*
X161148040Y-122814729D01*
X161148040Y-122630551D01*
X161112108Y-122449911D01*
X161041626Y-122279751D01*
X160939302Y-122126612D01*
X160809068Y-121996378D01*
X160655929Y-121894054D01*
X160485769Y-121823572D01*
X160305129Y-121787640D01*
X160120951Y-121787640D01*
X159940311Y-121823572D01*
X159770151Y-121894054D01*
X159617012Y-121996378D01*
X159486778Y-122126612D01*
X159384454Y-122279751D01*
X159313972Y-122449911D01*
X159278040Y-122630551D01*
X159278040Y-122814729D01*
X159313972Y-122995369D01*
X159384454Y-123165529D01*
X159440388Y-123249240D01*
X159423856Y-123265772D01*
X159321532Y-123418911D01*
X159251050Y-123589071D01*
X159215118Y-123769711D01*
X159215118Y-123953889D01*
X159251050Y-124134529D01*
X159321532Y-124304689D01*
X159374945Y-124384627D01*
X159318414Y-124469231D01*
X159247932Y-124639391D01*
X159212000Y-124820031D01*
X158811429Y-124820031D01*
X158785327Y-124780967D01*
X158655093Y-124650733D01*
X158501954Y-124548409D01*
X158331794Y-124477927D01*
X158151154Y-124441995D01*
X157966976Y-124441995D01*
X157786336Y-124477927D01*
X157616176Y-124548409D01*
X157463037Y-124650733D01*
X157332803Y-124780967D01*
X157230479Y-124934106D01*
X157159997Y-125104266D01*
X157124065Y-125284906D01*
X157124065Y-125469084D01*
X157159997Y-125649724D01*
X157230479Y-125819884D01*
X157287404Y-125905079D01*
X157271118Y-125921365D01*
X157168794Y-126074504D01*
X157098312Y-126244664D01*
X157062380Y-126425304D01*
X157062380Y-126609482D01*
X157098312Y-126790122D01*
X157168794Y-126960282D01*
X157271118Y-127113421D01*
X157284905Y-127127208D01*
X157279892Y-127132221D01*
X157177568Y-127285360D01*
X157107086Y-127455520D01*
X157071154Y-127636160D01*
X157071154Y-127820338D01*
X157107086Y-128000978D01*
X157177568Y-128171138D01*
X157251683Y-128282058D01*
X157239665Y-128294076D01*
X157137341Y-128447215D01*
X157066859Y-128617375D01*
X157030927Y-128798015D01*
X157030927Y-128982193D01*
X157066859Y-129162833D01*
X157137341Y-129332993D01*
X157208779Y-129439908D01*
X157196097Y-129452590D01*
X157093773Y-129605729D01*
X157023291Y-129775889D01*
X156987359Y-129956529D01*
X156987359Y-130140707D01*
X157023291Y-130321347D01*
X157093773Y-130491507D01*
X157188429Y-130633170D01*
X157183358Y-130638241D01*
X157081034Y-130791380D01*
X157010552Y-130961540D01*
X156974620Y-131142180D01*
X152885572Y-131142180D01*
X152885572Y-130264000D01*
X152873312Y-130139518D01*
X152837002Y-130019820D01*
X152778037Y-129909506D01*
X152698685Y-129812815D01*
X152601994Y-129733463D01*
X152491680Y-129674498D01*
X152371982Y-129638188D01*
X152247500Y-129625928D01*
X150647500Y-129625928D01*
X150523018Y-129638188D01*
X150403320Y-129674498D01*
X150293006Y-129733463D01*
X150196315Y-129812815D01*
X150116963Y-129909506D01*
X150057998Y-130019820D01*
X150021688Y-130139518D01*
X150020857Y-130147961D01*
X149822259Y-129949363D01*
X149587227Y-129792320D01*
X149326074Y-129684147D01*
X149048835Y-129629000D01*
X148766165Y-129629000D01*
X148488926Y-129684147D01*
X148227773Y-129792320D01*
X147992741Y-129949363D01*
X147792863Y-130149241D01*
X147637500Y-130381759D01*
X147482137Y-130149241D01*
X147282259Y-129949363D01*
X147047227Y-129792320D01*
X146786074Y-129684147D01*
X146508835Y-129629000D01*
X146226165Y-129629000D01*
X145948926Y-129684147D01*
X145687773Y-129792320D01*
X145452741Y-129949363D01*
X145252863Y-130149241D01*
X145097500Y-130381759D01*
X144942137Y-130149241D01*
X144742259Y-129949363D01*
X144507227Y-129792320D01*
X144246074Y-129684147D01*
X143968835Y-129629000D01*
X143686165Y-129629000D01*
X143408926Y-129684147D01*
X143147773Y-129792320D01*
X142912741Y-129949363D01*
X142712863Y-130149241D01*
X142557500Y-130381759D01*
X142402137Y-130149241D01*
X142202259Y-129949363D01*
X141967227Y-129792320D01*
X141706074Y-129684147D01*
X141428835Y-129629000D01*
X141146165Y-129629000D01*
X140868926Y-129684147D01*
X140607773Y-129792320D01*
X140372741Y-129949363D01*
X140172863Y-130149241D01*
X140017500Y-130381759D01*
X139862137Y-130149241D01*
X139662259Y-129949363D01*
X139427227Y-129792320D01*
X139166074Y-129684147D01*
X138888835Y-129629000D01*
X138606165Y-129629000D01*
X138328926Y-129684147D01*
X138067773Y-129792320D01*
X137832741Y-129949363D01*
X137632863Y-130149241D01*
X137477500Y-130381759D01*
X137322137Y-130149241D01*
X137122259Y-129949363D01*
X136887227Y-129792320D01*
X136626074Y-129684147D01*
X136348835Y-129629000D01*
X136066165Y-129629000D01*
X135788926Y-129684147D01*
X135527773Y-129792320D01*
X135292741Y-129949363D01*
X135092863Y-130149241D01*
X134937500Y-130381759D01*
X134782137Y-130149241D01*
X134582259Y-129949363D01*
X134347227Y-129792320D01*
X134086074Y-129684147D01*
X133808835Y-129629000D01*
X133526165Y-129629000D01*
X133248926Y-129684147D01*
X132987773Y-129792320D01*
X132752741Y-129949363D01*
X132552863Y-130149241D01*
X132397500Y-130381759D01*
X132242137Y-130149241D01*
X132042259Y-129949363D01*
X131807227Y-129792320D01*
X131546074Y-129684147D01*
X131268835Y-129629000D01*
X130986165Y-129629000D01*
X130708926Y-129684147D01*
X130447773Y-129792320D01*
X130212741Y-129949363D01*
X130012863Y-130149241D01*
X129857500Y-130381759D01*
X129702137Y-130149241D01*
X129502259Y-129949363D01*
X129267227Y-129792320D01*
X129006074Y-129684147D01*
X128728835Y-129629000D01*
X128446165Y-129629000D01*
X128168926Y-129684147D01*
X127907773Y-129792320D01*
X127672741Y-129949363D01*
X127472863Y-130149241D01*
X127317500Y-130381759D01*
X127162137Y-130149241D01*
X126962259Y-129949363D01*
X126727227Y-129792320D01*
X126466074Y-129684147D01*
X126188835Y-129629000D01*
X125906165Y-129629000D01*
X125628926Y-129684147D01*
X125367773Y-129792320D01*
X125132741Y-129949363D01*
X124932863Y-130149241D01*
X124777500Y-130381759D01*
X124622137Y-130149241D01*
X124422259Y-129949363D01*
X124187227Y-129792320D01*
X123926074Y-129684147D01*
X123648835Y-129629000D01*
X123366165Y-129629000D01*
X123088926Y-129684147D01*
X122827773Y-129792320D01*
X122592741Y-129949363D01*
X122392863Y-130149241D01*
X122237500Y-130381759D01*
X122082137Y-130149241D01*
X121882259Y-129949363D01*
X121647227Y-129792320D01*
X121386074Y-129684147D01*
X121108835Y-129629000D01*
X120826165Y-129629000D01*
X120548926Y-129684147D01*
X120287773Y-129792320D01*
X120052741Y-129949363D01*
X119852863Y-130149241D01*
X119697500Y-130381759D01*
X119542137Y-130149241D01*
X119342259Y-129949363D01*
X119107227Y-129792320D01*
X118846074Y-129684147D01*
X118568835Y-129629000D01*
X118286165Y-129629000D01*
X118008926Y-129684147D01*
X117747773Y-129792320D01*
X117512741Y-129949363D01*
X117312863Y-130149241D01*
X117157500Y-130381759D01*
X117002137Y-130149241D01*
X116802259Y-129949363D01*
X116567227Y-129792320D01*
X116306074Y-129684147D01*
X116028835Y-129629000D01*
X115746165Y-129629000D01*
X115468926Y-129684147D01*
X115207773Y-129792320D01*
X114972741Y-129949363D01*
X114772863Y-130149241D01*
X114747040Y-130187888D01*
X114747040Y-123249014D01*
X116076500Y-123249014D01*
X116076500Y-123511986D01*
X116127804Y-123769905D01*
X116228439Y-124012859D01*
X116374538Y-124231513D01*
X116560487Y-124417462D01*
X116779141Y-124563561D01*
X117022095Y-124664196D01*
X117280014Y-124715500D01*
X117542986Y-124715500D01*
X117800905Y-124664196D01*
X118043859Y-124563561D01*
X118262513Y-124417462D01*
X118448462Y-124231513D01*
X118594561Y-124012859D01*
X118695196Y-123769905D01*
X118746500Y-123511986D01*
X118746500Y-123249014D01*
X123696500Y-123249014D01*
X123696500Y-123511986D01*
X123747804Y-123769905D01*
X123848439Y-124012859D01*
X123994538Y-124231513D01*
X124180487Y-124417462D01*
X124399141Y-124563561D01*
X124642095Y-124664196D01*
X124900014Y-124715500D01*
X125162986Y-124715500D01*
X125420905Y-124664196D01*
X125663859Y-124563561D01*
X125882513Y-124417462D01*
X126068462Y-124231513D01*
X126214561Y-124012859D01*
X126315196Y-123769905D01*
X126366500Y-123511986D01*
X126366500Y-123249014D01*
X126337320Y-123102316D01*
X128322500Y-123102316D01*
X128322500Y-123404684D01*
X128381489Y-123701243D01*
X128497201Y-123980595D01*
X128665188Y-124232005D01*
X128878995Y-124445812D01*
X129130405Y-124613799D01*
X129409757Y-124729511D01*
X129706316Y-124788500D01*
X130008684Y-124788500D01*
X130305243Y-124729511D01*
X130584595Y-124613799D01*
X130836005Y-124445812D01*
X130902444Y-124379373D01*
X130907998Y-124397680D01*
X130966963Y-124507994D01*
X131046315Y-124604685D01*
X131143006Y-124684037D01*
X131253320Y-124743002D01*
X131373018Y-124779312D01*
X131497500Y-124791572D01*
X133297500Y-124791572D01*
X133421982Y-124779312D01*
X133541680Y-124743002D01*
X133651994Y-124684037D01*
X133748685Y-124604685D01*
X133828037Y-124507994D01*
X133887002Y-124397680D01*
X133923312Y-124277982D01*
X133935572Y-124153500D01*
X133935572Y-122353500D01*
X133923312Y-122229018D01*
X133887002Y-122109320D01*
X133828037Y-121999006D01*
X133748685Y-121902315D01*
X133651994Y-121822963D01*
X133541680Y-121763998D01*
X133421982Y-121727688D01*
X133297500Y-121715428D01*
X131497500Y-121715428D01*
X131373018Y-121727688D01*
X131253320Y-121763998D01*
X131143006Y-121822963D01*
X131046315Y-121902315D01*
X130966963Y-121999006D01*
X130907998Y-122109320D01*
X130902444Y-122127627D01*
X130836005Y-122061188D01*
X130584595Y-121893201D01*
X130305243Y-121777489D01*
X130008684Y-121718500D01*
X129706316Y-121718500D01*
X129409757Y-121777489D01*
X129130405Y-121893201D01*
X128878995Y-122061188D01*
X128665188Y-122274995D01*
X128497201Y-122526405D01*
X128381489Y-122805757D01*
X128322500Y-123102316D01*
X126337320Y-123102316D01*
X126315196Y-122991095D01*
X126214561Y-122748141D01*
X126068462Y-122529487D01*
X125882513Y-122343538D01*
X125663859Y-122197439D01*
X125420905Y-122096804D01*
X125162986Y-122045500D01*
X124900014Y-122045500D01*
X124642095Y-122096804D01*
X124399141Y-122197439D01*
X124180487Y-122343538D01*
X123994538Y-122529487D01*
X123848439Y-122748141D01*
X123747804Y-122991095D01*
X123696500Y-123249014D01*
X118746500Y-123249014D01*
X118695196Y-122991095D01*
X118594561Y-122748141D01*
X118448462Y-122529487D01*
X118262513Y-122343538D01*
X118043859Y-122197439D01*
X117800905Y-122096804D01*
X117542986Y-122045500D01*
X117280014Y-122045500D01*
X117022095Y-122096804D01*
X116779141Y-122197439D01*
X116560487Y-122343538D01*
X116374538Y-122529487D01*
X116228439Y-122748141D01*
X116127804Y-122991095D01*
X116076500Y-123249014D01*
X114747040Y-123249014D01*
X114747040Y-117123831D01*
X170568340Y-117123831D01*
X170568340Y-117308009D01*
X170604272Y-117488649D01*
X170674754Y-117658809D01*
X170777078Y-117811948D01*
X170907312Y-117942182D01*
X171060451Y-118044506D01*
X171230611Y-118114988D01*
X171411251Y-118150920D01*
X171595429Y-118150920D01*
X171776069Y-118114988D01*
X171946229Y-118044506D01*
X172099368Y-117942182D01*
X172229602Y-117811948D01*
X172331926Y-117658809D01*
X172402408Y-117488649D01*
X172438340Y-117308009D01*
X172438340Y-117123831D01*
X172402408Y-116943191D01*
X172331926Y-116773031D01*
X172229602Y-116619892D01*
X172099368Y-116489658D01*
X171946229Y-116387334D01*
X171776069Y-116316852D01*
X171595429Y-116280920D01*
X171411251Y-116280920D01*
X171230611Y-116316852D01*
X171060451Y-116387334D01*
X170907312Y-116489658D01*
X170777078Y-116619892D01*
X170674754Y-116773031D01*
X170604272Y-116943191D01*
X170568340Y-117123831D01*
X114747040Y-117123831D01*
X114747040Y-111682165D01*
X117413500Y-111682165D01*
X117413500Y-111964835D01*
X117468647Y-112242074D01*
X117576820Y-112503227D01*
X117733863Y-112738259D01*
X117933741Y-112938137D01*
X118168773Y-113095180D01*
X118429926Y-113203353D01*
X118707165Y-113258500D01*
X118989835Y-113258500D01*
X119267074Y-113203353D01*
X119528227Y-113095180D01*
X119763259Y-112938137D01*
X119963137Y-112738259D01*
X120098500Y-112535673D01*
X120233863Y-112738259D01*
X120433741Y-112938137D01*
X120668773Y-113095180D01*
X120929926Y-113203353D01*
X121207165Y-113258500D01*
X121489835Y-113258500D01*
X121767074Y-113203353D01*
X122028227Y-113095180D01*
X122263259Y-112938137D01*
X122463137Y-112738259D01*
X122598500Y-112535673D01*
X122733863Y-112738259D01*
X122933741Y-112938137D01*
X123168773Y-113095180D01*
X123429926Y-113203353D01*
X123707165Y-113258500D01*
X123989835Y-113258500D01*
X124267074Y-113203353D01*
X124528227Y-113095180D01*
X124763259Y-112938137D01*
X124963137Y-112738259D01*
X125098500Y-112535673D01*
X125233863Y-112738259D01*
X125433741Y-112938137D01*
X125668773Y-113095180D01*
X125929926Y-113203353D01*
X126207165Y-113258500D01*
X126489835Y-113258500D01*
X126767074Y-113203353D01*
X127028227Y-113095180D01*
X127263259Y-112938137D01*
X127463137Y-112738259D01*
X127598500Y-112535673D01*
X127733863Y-112738259D01*
X127933741Y-112938137D01*
X128168773Y-113095180D01*
X128429926Y-113203353D01*
X128707165Y-113258500D01*
X128989835Y-113258500D01*
X129267074Y-113203353D01*
X129528227Y-113095180D01*
X129763259Y-112938137D01*
X129963137Y-112738259D01*
X130098500Y-112535673D01*
X130233863Y-112738259D01*
X130433741Y-112938137D01*
X130668773Y-113095180D01*
X130929926Y-113203353D01*
X131207165Y-113258500D01*
X131489835Y-113258500D01*
X131767074Y-113203353D01*
X132028227Y-113095180D01*
X132263259Y-112938137D01*
X132463137Y-112738259D01*
X132611864Y-112515673D01*
X132733863Y-112698259D01*
X132933741Y-112898137D01*
X133168773Y-113055180D01*
X133429926Y-113163353D01*
X133707165Y-113218500D01*
X133989835Y-113218500D01*
X134267074Y-113163353D01*
X134528227Y-113055180D01*
X134763259Y-112898137D01*
X134963137Y-112698259D01*
X135098500Y-112495673D01*
X135233863Y-112698259D01*
X135433741Y-112898137D01*
X135668773Y-113055180D01*
X135929926Y-113163353D01*
X136207165Y-113218500D01*
X136489835Y-113218500D01*
X136767074Y-113163353D01*
X137028227Y-113055180D01*
X137263259Y-112898137D01*
X137463137Y-112698259D01*
X137598500Y-112495673D01*
X137733863Y-112698259D01*
X137933741Y-112898137D01*
X138168773Y-113055180D01*
X138429926Y-113163353D01*
X138707165Y-113218500D01*
X138989835Y-113218500D01*
X139267074Y-113163353D01*
X139528227Y-113055180D01*
X139763259Y-112898137D01*
X139963137Y-112698259D01*
X140098500Y-112495673D01*
X140233863Y-112698259D01*
X140433741Y-112898137D01*
X140668773Y-113055180D01*
X140929926Y-113163353D01*
X141207165Y-113218500D01*
X141489835Y-113218500D01*
X141767074Y-113163353D01*
X142028227Y-113055180D01*
X142263259Y-112898137D01*
X142463137Y-112698259D01*
X142598500Y-112495673D01*
X142733863Y-112698259D01*
X142933741Y-112898137D01*
X143168773Y-113055180D01*
X143429926Y-113163353D01*
X143707165Y-113218500D01*
X143989835Y-113218500D01*
X144267074Y-113163353D01*
X144528227Y-113055180D01*
X144763259Y-112898137D01*
X144963137Y-112698259D01*
X145098500Y-112495673D01*
X145233863Y-112698259D01*
X145433741Y-112898137D01*
X145668773Y-113055180D01*
X145929926Y-113163353D01*
X146207165Y-113218500D01*
X146489835Y-113218500D01*
X146767074Y-113163353D01*
X147028227Y-113055180D01*
X147263259Y-112898137D01*
X147463137Y-112698259D01*
X147598500Y-112495673D01*
X147733863Y-112698259D01*
X147933741Y-112898137D01*
X148168773Y-113055180D01*
X148429926Y-113163353D01*
X148707165Y-113218500D01*
X148989835Y-113218500D01*
X149267074Y-113163353D01*
X149528227Y-113055180D01*
X149763259Y-112898137D01*
X149963137Y-112698259D01*
X150098500Y-112495673D01*
X150233863Y-112698259D01*
X150433741Y-112898137D01*
X150668773Y-113055180D01*
X150929926Y-113163353D01*
X151207165Y-113218500D01*
X151489835Y-113218500D01*
X151767074Y-113163353D01*
X152028227Y-113055180D01*
X152263259Y-112898137D01*
X152463137Y-112698259D01*
X152598500Y-112495673D01*
X152733863Y-112698259D01*
X152933741Y-112898137D01*
X153168773Y-113055180D01*
X153429926Y-113163353D01*
X153707165Y-113218500D01*
X153989835Y-113218500D01*
X154267074Y-113163353D01*
X154528227Y-113055180D01*
X154763259Y-112898137D01*
X154963137Y-112698259D01*
X155120180Y-112463227D01*
X155228353Y-112202074D01*
X155283500Y-111924835D01*
X155283500Y-111809165D01*
X167412500Y-111809165D01*
X167412500Y-112091835D01*
X167467647Y-112369074D01*
X167575820Y-112630227D01*
X167732863Y-112865259D01*
X167932741Y-113065137D01*
X168167773Y-113222180D01*
X168428926Y-113330353D01*
X168706165Y-113385500D01*
X168988835Y-113385500D01*
X169266074Y-113330353D01*
X169527227Y-113222180D01*
X169762259Y-113065137D01*
X169962137Y-112865259D01*
X170097500Y-112662673D01*
X170232863Y-112865259D01*
X170432741Y-113065137D01*
X170667773Y-113222180D01*
X170928926Y-113330353D01*
X171206165Y-113385500D01*
X171488835Y-113385500D01*
X171766074Y-113330353D01*
X172027227Y-113222180D01*
X172262259Y-113065137D01*
X172462137Y-112865259D01*
X172597500Y-112662673D01*
X172732863Y-112865259D01*
X172932741Y-113065137D01*
X173167773Y-113222180D01*
X173428926Y-113330353D01*
X173706165Y-113385500D01*
X173988835Y-113385500D01*
X174266074Y-113330353D01*
X174527227Y-113222180D01*
X174762259Y-113065137D01*
X174962137Y-112865259D01*
X175097500Y-112662673D01*
X175232863Y-112865259D01*
X175432741Y-113065137D01*
X175667773Y-113222180D01*
X175928926Y-113330353D01*
X176206165Y-113385500D01*
X176488835Y-113385500D01*
X176766074Y-113330353D01*
X177027227Y-113222180D01*
X177262259Y-113065137D01*
X177462137Y-112865259D01*
X177597500Y-112662673D01*
X177732863Y-112865259D01*
X177932741Y-113065137D01*
X178167773Y-113222180D01*
X178428926Y-113330353D01*
X178706165Y-113385500D01*
X178988835Y-113385500D01*
X179266074Y-113330353D01*
X179527227Y-113222180D01*
X179762259Y-113065137D01*
X179962137Y-112865259D01*
X180097500Y-112662673D01*
X180232863Y-112865259D01*
X180432741Y-113065137D01*
X180667773Y-113222180D01*
X180928926Y-113330353D01*
X181206165Y-113385500D01*
X181488835Y-113385500D01*
X181766074Y-113330353D01*
X182027227Y-113222180D01*
X182262259Y-113065137D01*
X182462137Y-112865259D01*
X182610864Y-112642673D01*
X182732863Y-112825259D01*
X182932741Y-113025137D01*
X183167773Y-113182180D01*
X183428926Y-113290353D01*
X183706165Y-113345500D01*
X183988835Y-113345500D01*
X184266074Y-113290353D01*
X184527227Y-113182180D01*
X184762259Y-113025137D01*
X184962137Y-112825259D01*
X185097500Y-112622673D01*
X185232863Y-112825259D01*
X185432741Y-113025137D01*
X185667773Y-113182180D01*
X185928926Y-113290353D01*
X186206165Y-113345500D01*
X186488835Y-113345500D01*
X186766074Y-113290353D01*
X187027227Y-113182180D01*
X187262259Y-113025137D01*
X187462137Y-112825259D01*
X187597500Y-112622673D01*
X187732863Y-112825259D01*
X187932741Y-113025137D01*
X188167773Y-113182180D01*
X188428926Y-113290353D01*
X188706165Y-113345500D01*
X188988835Y-113345500D01*
X189266074Y-113290353D01*
X189527227Y-113182180D01*
X189762259Y-113025137D01*
X189962137Y-112825259D01*
X190097500Y-112622673D01*
X190232863Y-112825259D01*
X190432741Y-113025137D01*
X190667773Y-113182180D01*
X190928926Y-113290353D01*
X191206165Y-113345500D01*
X191488835Y-113345500D01*
X191766074Y-113290353D01*
X192027227Y-113182180D01*
X192262259Y-113025137D01*
X192462137Y-112825259D01*
X192597500Y-112622673D01*
X192732863Y-112825259D01*
X192932741Y-113025137D01*
X193167773Y-113182180D01*
X193428926Y-113290353D01*
X193706165Y-113345500D01*
X193988835Y-113345500D01*
X194266074Y-113290353D01*
X194527227Y-113182180D01*
X194762259Y-113025137D01*
X194962137Y-112825259D01*
X195097500Y-112622673D01*
X195232863Y-112825259D01*
X195432741Y-113025137D01*
X195667773Y-113182180D01*
X195928926Y-113290353D01*
X196206165Y-113345500D01*
X196488835Y-113345500D01*
X196766074Y-113290353D01*
X197027227Y-113182180D01*
X197262259Y-113025137D01*
X197462137Y-112825259D01*
X197597500Y-112622673D01*
X197732863Y-112825259D01*
X197932741Y-113025137D01*
X198167773Y-113182180D01*
X198428926Y-113290353D01*
X198706165Y-113345500D01*
X198988835Y-113345500D01*
X199266074Y-113290353D01*
X199527227Y-113182180D01*
X199762259Y-113025137D01*
X199962137Y-112825259D01*
X200097500Y-112622673D01*
X200232863Y-112825259D01*
X200432741Y-113025137D01*
X200667773Y-113182180D01*
X200928926Y-113290353D01*
X201206165Y-113345500D01*
X201488835Y-113345500D01*
X201766074Y-113290353D01*
X202027227Y-113182180D01*
X202262259Y-113025137D01*
X202462137Y-112825259D01*
X202597500Y-112622673D01*
X202732863Y-112825259D01*
X202932741Y-113025137D01*
X203167773Y-113182180D01*
X203428926Y-113290353D01*
X203706165Y-113345500D01*
X203988835Y-113345500D01*
X204266074Y-113290353D01*
X204527227Y-113182180D01*
X204762259Y-113025137D01*
X204962137Y-112825259D01*
X205119180Y-112590227D01*
X205227353Y-112329074D01*
X205282500Y-112051835D01*
X205282500Y-111769165D01*
X205227353Y-111491926D01*
X205119180Y-111230773D01*
X204962137Y-110995741D01*
X204762259Y-110795863D01*
X204527227Y-110638820D01*
X204266074Y-110530647D01*
X203988835Y-110475500D01*
X203706165Y-110475500D01*
X203428926Y-110530647D01*
X203167773Y-110638820D01*
X202932741Y-110795863D01*
X202732863Y-110995741D01*
X202597500Y-111198327D01*
X202462137Y-110995741D01*
X202262259Y-110795863D01*
X202027227Y-110638820D01*
X201766074Y-110530647D01*
X201488835Y-110475500D01*
X201206165Y-110475500D01*
X200928926Y-110530647D01*
X200667773Y-110638820D01*
X200432741Y-110795863D01*
X200232863Y-110995741D01*
X200097500Y-111198327D01*
X199962137Y-110995741D01*
X199762259Y-110795863D01*
X199527227Y-110638820D01*
X199266074Y-110530647D01*
X198988835Y-110475500D01*
X198706165Y-110475500D01*
X198428926Y-110530647D01*
X198167773Y-110638820D01*
X197932741Y-110795863D01*
X197732863Y-110995741D01*
X197597500Y-111198327D01*
X197462137Y-110995741D01*
X197262259Y-110795863D01*
X197027227Y-110638820D01*
X196766074Y-110530647D01*
X196488835Y-110475500D01*
X196206165Y-110475500D01*
X195928926Y-110530647D01*
X195667773Y-110638820D01*
X195432741Y-110795863D01*
X195232863Y-110995741D01*
X195097500Y-111198327D01*
X194962137Y-110995741D01*
X194762259Y-110795863D01*
X194527227Y-110638820D01*
X194266074Y-110530647D01*
X193988835Y-110475500D01*
X193706165Y-110475500D01*
X193428926Y-110530647D01*
X193167773Y-110638820D01*
X192932741Y-110795863D01*
X192732863Y-110995741D01*
X192597500Y-111198327D01*
X192462137Y-110995741D01*
X192262259Y-110795863D01*
X192027227Y-110638820D01*
X191766074Y-110530647D01*
X191488835Y-110475500D01*
X191206165Y-110475500D01*
X190928926Y-110530647D01*
X190667773Y-110638820D01*
X190432741Y-110795863D01*
X190232863Y-110995741D01*
X190097500Y-111198327D01*
X189962137Y-110995741D01*
X189762259Y-110795863D01*
X189527227Y-110638820D01*
X189266074Y-110530647D01*
X188988835Y-110475500D01*
X188706165Y-110475500D01*
X188428926Y-110530647D01*
X188167773Y-110638820D01*
X187932741Y-110795863D01*
X187732863Y-110995741D01*
X187597500Y-111198327D01*
X187462137Y-110995741D01*
X187262259Y-110795863D01*
X187027227Y-110638820D01*
X186766074Y-110530647D01*
X186488835Y-110475500D01*
X186206165Y-110475500D01*
X185928926Y-110530647D01*
X185667773Y-110638820D01*
X185432741Y-110795863D01*
X185232863Y-110995741D01*
X185097500Y-111198327D01*
X184962137Y-110995741D01*
X184762259Y-110795863D01*
X184527227Y-110638820D01*
X184266074Y-110530647D01*
X183988835Y-110475500D01*
X183706165Y-110475500D01*
X183428926Y-110530647D01*
X183167773Y-110638820D01*
X182932741Y-110795863D01*
X182732863Y-110995741D01*
X182584136Y-111218327D01*
X182462137Y-111035741D01*
X182262259Y-110835863D01*
X182027227Y-110678820D01*
X181766074Y-110570647D01*
X181488835Y-110515500D01*
X181206165Y-110515500D01*
X180928926Y-110570647D01*
X180667773Y-110678820D01*
X180432741Y-110835863D01*
X180232863Y-111035741D01*
X180097500Y-111238327D01*
X179962137Y-111035741D01*
X179762259Y-110835863D01*
X179527227Y-110678820D01*
X179266074Y-110570647D01*
X178988835Y-110515500D01*
X178706165Y-110515500D01*
X178428926Y-110570647D01*
X178167773Y-110678820D01*
X177932741Y-110835863D01*
X177732863Y-111035741D01*
X177597500Y-111238327D01*
X177462137Y-111035741D01*
X177262259Y-110835863D01*
X177027227Y-110678820D01*
X176766074Y-110570647D01*
X176488835Y-110515500D01*
X176206165Y-110515500D01*
X175928926Y-110570647D01*
X175667773Y-110678820D01*
X175432741Y-110835863D01*
X175232863Y-111035741D01*
X175097500Y-111238327D01*
X174962137Y-111035741D01*
X174762259Y-110835863D01*
X174527227Y-110678820D01*
X174266074Y-110570647D01*
X173988835Y-110515500D01*
X173706165Y-110515500D01*
X173428926Y-110570647D01*
X173167773Y-110678820D01*
X172932741Y-110835863D01*
X172732863Y-111035741D01*
X172597500Y-111238327D01*
X172462137Y-111035741D01*
X172262259Y-110835863D01*
X172027227Y-110678820D01*
X171766074Y-110570647D01*
X171488835Y-110515500D01*
X171206165Y-110515500D01*
X170928926Y-110570647D01*
X170667773Y-110678820D01*
X170432741Y-110835863D01*
X170232863Y-111035741D01*
X170097500Y-111238327D01*
X169962137Y-111035741D01*
X169762259Y-110835863D01*
X169527227Y-110678820D01*
X169266074Y-110570647D01*
X168988835Y-110515500D01*
X168706165Y-110515500D01*
X168428926Y-110570647D01*
X168167773Y-110678820D01*
X167932741Y-110835863D01*
X167732863Y-111035741D01*
X167575820Y-111270773D01*
X167467647Y-111531926D01*
X167412500Y-111809165D01*
X155283500Y-111809165D01*
X155283500Y-111642165D01*
X155228353Y-111364926D01*
X155120180Y-111103773D01*
X154963137Y-110868741D01*
X154763259Y-110668863D01*
X154528227Y-110511820D01*
X154267074Y-110403647D01*
X153989835Y-110348500D01*
X153707165Y-110348500D01*
X153429926Y-110403647D01*
X153168773Y-110511820D01*
X152933741Y-110668863D01*
X152733863Y-110868741D01*
X152598500Y-111071327D01*
X152463137Y-110868741D01*
X152263259Y-110668863D01*
X152028227Y-110511820D01*
X151767074Y-110403647D01*
X151489835Y-110348500D01*
X151207165Y-110348500D01*
X150929926Y-110403647D01*
X150668773Y-110511820D01*
X150433741Y-110668863D01*
X150233863Y-110868741D01*
X150098500Y-111071327D01*
X149963137Y-110868741D01*
X149763259Y-110668863D01*
X149528227Y-110511820D01*
X149267074Y-110403647D01*
X148989835Y-110348500D01*
X148707165Y-110348500D01*
X148429926Y-110403647D01*
X148168773Y-110511820D01*
X147933741Y-110668863D01*
X147733863Y-110868741D01*
X147598500Y-111071327D01*
X147463137Y-110868741D01*
X147263259Y-110668863D01*
X147028227Y-110511820D01*
X146767074Y-110403647D01*
X146489835Y-110348500D01*
X146207165Y-110348500D01*
X145929926Y-110403647D01*
X145668773Y-110511820D01*
X145433741Y-110668863D01*
X145233863Y-110868741D01*
X145098500Y-111071327D01*
X144963137Y-110868741D01*
X144763259Y-110668863D01*
X144528227Y-110511820D01*
X144267074Y-110403647D01*
X143989835Y-110348500D01*
X143707165Y-110348500D01*
X143429926Y-110403647D01*
X143168773Y-110511820D01*
X142933741Y-110668863D01*
X142733863Y-110868741D01*
X142598500Y-111071327D01*
X142463137Y-110868741D01*
X142263259Y-110668863D01*
X142028227Y-110511820D01*
X141767074Y-110403647D01*
X141489835Y-110348500D01*
X141207165Y-110348500D01*
X140929926Y-110403647D01*
X140668773Y-110511820D01*
X140433741Y-110668863D01*
X140233863Y-110868741D01*
X140098500Y-111071327D01*
X139963137Y-110868741D01*
X139763259Y-110668863D01*
X139528227Y-110511820D01*
X139267074Y-110403647D01*
X138989835Y-110348500D01*
X138707165Y-110348500D01*
X138429926Y-110403647D01*
X138168773Y-110511820D01*
X137933741Y-110668863D01*
X137733863Y-110868741D01*
X137598500Y-111071327D01*
X137463137Y-110868741D01*
X137263259Y-110668863D01*
X137028227Y-110511820D01*
X136767074Y-110403647D01*
X136489835Y-110348500D01*
X136207165Y-110348500D01*
X135929926Y-110403647D01*
X135668773Y-110511820D01*
X135433741Y-110668863D01*
X135233863Y-110868741D01*
X135098500Y-111071327D01*
X134963137Y-110868741D01*
X134763259Y-110668863D01*
X134528227Y-110511820D01*
X134267074Y-110403647D01*
X133989835Y-110348500D01*
X133707165Y-110348500D01*
X133429926Y-110403647D01*
X133168773Y-110511820D01*
X132933741Y-110668863D01*
X132733863Y-110868741D01*
X132585136Y-111091327D01*
X132463137Y-110908741D01*
X132263259Y-110708863D01*
X132028227Y-110551820D01*
X131767074Y-110443647D01*
X131489835Y-110388500D01*
X131207165Y-110388500D01*
X130929926Y-110443647D01*
X130668773Y-110551820D01*
X130433741Y-110708863D01*
X130233863Y-110908741D01*
X130098500Y-111111327D01*
X129963137Y-110908741D01*
X129763259Y-110708863D01*
X129528227Y-110551820D01*
X129267074Y-110443647D01*
X128989835Y-110388500D01*
X128707165Y-110388500D01*
X128429926Y-110443647D01*
X128168773Y-110551820D01*
X127933741Y-110708863D01*
X127733863Y-110908741D01*
X127598500Y-111111327D01*
X127463137Y-110908741D01*
X127263259Y-110708863D01*
X127028227Y-110551820D01*
X126767074Y-110443647D01*
X126489835Y-110388500D01*
X126207165Y-110388500D01*
X125929926Y-110443647D01*
X125668773Y-110551820D01*
X125433741Y-110708863D01*
X125233863Y-110908741D01*
X125098500Y-111111327D01*
X124963137Y-110908741D01*
X124763259Y-110708863D01*
X124528227Y-110551820D01*
X124267074Y-110443647D01*
X123989835Y-110388500D01*
X123707165Y-110388500D01*
X123429926Y-110443647D01*
X123168773Y-110551820D01*
X122933741Y-110708863D01*
X122733863Y-110908741D01*
X122598500Y-111111327D01*
X122463137Y-110908741D01*
X122263259Y-110708863D01*
X122028227Y-110551820D01*
X121767074Y-110443647D01*
X121489835Y-110388500D01*
X121207165Y-110388500D01*
X120929926Y-110443647D01*
X120668773Y-110551820D01*
X120433741Y-110708863D01*
X120233863Y-110908741D01*
X120098500Y-111111327D01*
X119963137Y-110908741D01*
X119763259Y-110708863D01*
X119528227Y-110551820D01*
X119267074Y-110443647D01*
X118989835Y-110388500D01*
X118707165Y-110388500D01*
X118429926Y-110443647D01*
X118168773Y-110551820D01*
X117933741Y-110708863D01*
X117733863Y-110908741D01*
X117576820Y-111143773D01*
X117468647Y-111404926D01*
X117413500Y-111682165D01*
X114747040Y-111682165D01*
X114747040Y-106602165D01*
X118663500Y-106602165D01*
X118663500Y-106884835D01*
X118718647Y-107162074D01*
X118826820Y-107423227D01*
X118983863Y-107658259D01*
X119183741Y-107858137D01*
X119418773Y-108015180D01*
X119679926Y-108123353D01*
X119957165Y-108178500D01*
X120239835Y-108178500D01*
X120517074Y-108123353D01*
X120778227Y-108015180D01*
X121013259Y-107858137D01*
X121213137Y-107658259D01*
X121335136Y-107475673D01*
X121483863Y-107698259D01*
X121683741Y-107898137D01*
X121918773Y-108055180D01*
X122179926Y-108163353D01*
X122457165Y-108218500D01*
X122739835Y-108218500D01*
X123017074Y-108163353D01*
X123278227Y-108055180D01*
X123513259Y-107898137D01*
X123713137Y-107698259D01*
X123848500Y-107495673D01*
X123983863Y-107698259D01*
X124183741Y-107898137D01*
X124418773Y-108055180D01*
X124679926Y-108163353D01*
X124957165Y-108218500D01*
X125239835Y-108218500D01*
X125517074Y-108163353D01*
X125778227Y-108055180D01*
X126013259Y-107898137D01*
X126213137Y-107698259D01*
X126348500Y-107495673D01*
X126483863Y-107698259D01*
X126683741Y-107898137D01*
X126918773Y-108055180D01*
X127179926Y-108163353D01*
X127457165Y-108218500D01*
X127739835Y-108218500D01*
X128017074Y-108163353D01*
X128278227Y-108055180D01*
X128513259Y-107898137D01*
X128713137Y-107698259D01*
X128848500Y-107495673D01*
X128983863Y-107698259D01*
X129183741Y-107898137D01*
X129418773Y-108055180D01*
X129679926Y-108163353D01*
X129957165Y-108218500D01*
X130239835Y-108218500D01*
X130517074Y-108163353D01*
X130778227Y-108055180D01*
X131013259Y-107898137D01*
X131213137Y-107698259D01*
X131348500Y-107495673D01*
X131483863Y-107698259D01*
X131683741Y-107898137D01*
X131918773Y-108055180D01*
X132179926Y-108163353D01*
X132457165Y-108218500D01*
X132739835Y-108218500D01*
X133017074Y-108163353D01*
X133278227Y-108055180D01*
X133513259Y-107898137D01*
X133713137Y-107698259D01*
X133848500Y-107495673D01*
X133983863Y-107698259D01*
X134183741Y-107898137D01*
X134418773Y-108055180D01*
X134679926Y-108163353D01*
X134957165Y-108218500D01*
X135239835Y-108218500D01*
X135517074Y-108163353D01*
X135778227Y-108055180D01*
X136013259Y-107898137D01*
X136213137Y-107698259D01*
X136348500Y-107495673D01*
X136483863Y-107698259D01*
X136683741Y-107898137D01*
X136918773Y-108055180D01*
X137179926Y-108163353D01*
X137457165Y-108218500D01*
X137739835Y-108218500D01*
X138017074Y-108163353D01*
X138278227Y-108055180D01*
X138513259Y-107898137D01*
X138713137Y-107698259D01*
X138861864Y-107475673D01*
X138983863Y-107658259D01*
X139183741Y-107858137D01*
X139418773Y-108015180D01*
X139679926Y-108123353D01*
X139957165Y-108178500D01*
X140239835Y-108178500D01*
X140517074Y-108123353D01*
X140778227Y-108015180D01*
X141013259Y-107858137D01*
X141213137Y-107658259D01*
X141348500Y-107455673D01*
X141483863Y-107658259D01*
X141683741Y-107858137D01*
X141918773Y-108015180D01*
X142179926Y-108123353D01*
X142457165Y-108178500D01*
X142739835Y-108178500D01*
X143017074Y-108123353D01*
X143278227Y-108015180D01*
X143513259Y-107858137D01*
X143713137Y-107658259D01*
X143848500Y-107455673D01*
X143983863Y-107658259D01*
X144183741Y-107858137D01*
X144418773Y-108015180D01*
X144679926Y-108123353D01*
X144957165Y-108178500D01*
X145239835Y-108178500D01*
X145517074Y-108123353D01*
X145778227Y-108015180D01*
X146013259Y-107858137D01*
X146213137Y-107658259D01*
X146348500Y-107455673D01*
X146483863Y-107658259D01*
X146683741Y-107858137D01*
X146918773Y-108015180D01*
X147179926Y-108123353D01*
X147457165Y-108178500D01*
X147739835Y-108178500D01*
X148017074Y-108123353D01*
X148278227Y-108015180D01*
X148513259Y-107858137D01*
X148713137Y-107658259D01*
X148848500Y-107455673D01*
X148983863Y-107658259D01*
X149183741Y-107858137D01*
X149418773Y-108015180D01*
X149679926Y-108123353D01*
X149957165Y-108178500D01*
X150239835Y-108178500D01*
X150517074Y-108123353D01*
X150778227Y-108015180D01*
X151013259Y-107858137D01*
X151213137Y-107658259D01*
X151348500Y-107455673D01*
X151483863Y-107658259D01*
X151683741Y-107858137D01*
X151918773Y-108015180D01*
X152179926Y-108123353D01*
X152457165Y-108178500D01*
X152739835Y-108178500D01*
X153017074Y-108123353D01*
X153278227Y-108015180D01*
X153513259Y-107858137D01*
X153713137Y-107658259D01*
X153848500Y-107455673D01*
X153983863Y-107658259D01*
X154183741Y-107858137D01*
X154418773Y-108015180D01*
X154679926Y-108123353D01*
X154957165Y-108178500D01*
X155239835Y-108178500D01*
X155517074Y-108123353D01*
X155778227Y-108015180D01*
X156013259Y-107858137D01*
X156213137Y-107658259D01*
X156370180Y-107423227D01*
X156478353Y-107162074D01*
X156533500Y-106884835D01*
X156533500Y-106729165D01*
X168662500Y-106729165D01*
X168662500Y-107011835D01*
X168717647Y-107289074D01*
X168825820Y-107550227D01*
X168982863Y-107785259D01*
X169182741Y-107985137D01*
X169417773Y-108142180D01*
X169678926Y-108250353D01*
X169956165Y-108305500D01*
X170238835Y-108305500D01*
X170516074Y-108250353D01*
X170777227Y-108142180D01*
X171012259Y-107985137D01*
X171212137Y-107785259D01*
X171334136Y-107602673D01*
X171482863Y-107825259D01*
X171682741Y-108025137D01*
X171917773Y-108182180D01*
X172178926Y-108290353D01*
X172456165Y-108345500D01*
X172738835Y-108345500D01*
X173016074Y-108290353D01*
X173277227Y-108182180D01*
X173512259Y-108025137D01*
X173712137Y-107825259D01*
X173847500Y-107622673D01*
X173982863Y-107825259D01*
X174182741Y-108025137D01*
X174417773Y-108182180D01*
X174678926Y-108290353D01*
X174956165Y-108345500D01*
X175238835Y-108345500D01*
X175516074Y-108290353D01*
X175777227Y-108182180D01*
X176012259Y-108025137D01*
X176212137Y-107825259D01*
X176347500Y-107622673D01*
X176482863Y-107825259D01*
X176682741Y-108025137D01*
X176917773Y-108182180D01*
X177178926Y-108290353D01*
X177456165Y-108345500D01*
X177738835Y-108345500D01*
X178016074Y-108290353D01*
X178277227Y-108182180D01*
X178512259Y-108025137D01*
X178712137Y-107825259D01*
X178847500Y-107622673D01*
X178982863Y-107825259D01*
X179182741Y-108025137D01*
X179417773Y-108182180D01*
X179678926Y-108290353D01*
X179956165Y-108345500D01*
X180238835Y-108345500D01*
X180516074Y-108290353D01*
X180777227Y-108182180D01*
X181012259Y-108025137D01*
X181212137Y-107825259D01*
X181347500Y-107622673D01*
X181482863Y-107825259D01*
X181682741Y-108025137D01*
X181917773Y-108182180D01*
X182178926Y-108290353D01*
X182456165Y-108345500D01*
X182738835Y-108345500D01*
X183016074Y-108290353D01*
X183277227Y-108182180D01*
X183512259Y-108025137D01*
X183712137Y-107825259D01*
X183847500Y-107622673D01*
X183982863Y-107825259D01*
X184182741Y-108025137D01*
X184417773Y-108182180D01*
X184678926Y-108290353D01*
X184956165Y-108345500D01*
X185238835Y-108345500D01*
X185516074Y-108290353D01*
X185777227Y-108182180D01*
X186012259Y-108025137D01*
X186212137Y-107825259D01*
X186347500Y-107622673D01*
X186482863Y-107825259D01*
X186682741Y-108025137D01*
X186917773Y-108182180D01*
X187178926Y-108290353D01*
X187456165Y-108345500D01*
X187738835Y-108345500D01*
X188016074Y-108290353D01*
X188277227Y-108182180D01*
X188512259Y-108025137D01*
X188712137Y-107825259D01*
X188860864Y-107602673D01*
X188982863Y-107785259D01*
X189182741Y-107985137D01*
X189417773Y-108142180D01*
X189678926Y-108250353D01*
X189956165Y-108305500D01*
X190238835Y-108305500D01*
X190516074Y-108250353D01*
X190777227Y-108142180D01*
X191012259Y-107985137D01*
X191212137Y-107785259D01*
X191347500Y-107582673D01*
X191482863Y-107785259D01*
X191682741Y-107985137D01*
X191917773Y-108142180D01*
X192178926Y-108250353D01*
X192456165Y-108305500D01*
X192738835Y-108305500D01*
X193016074Y-108250353D01*
X193277227Y-108142180D01*
X193512259Y-107985137D01*
X193712137Y-107785259D01*
X193847500Y-107582673D01*
X193982863Y-107785259D01*
X194182741Y-107985137D01*
X194417773Y-108142180D01*
X194678926Y-108250353D01*
X194956165Y-108305500D01*
X195238835Y-108305500D01*
X195516074Y-108250353D01*
X195777227Y-108142180D01*
X196012259Y-107985137D01*
X196212137Y-107785259D01*
X196347500Y-107582673D01*
X196482863Y-107785259D01*
X196682741Y-107985137D01*
X196917773Y-108142180D01*
X197178926Y-108250353D01*
X197456165Y-108305500D01*
X197738835Y-108305500D01*
X198016074Y-108250353D01*
X198277227Y-108142180D01*
X198512259Y-107985137D01*
X198712137Y-107785259D01*
X198847500Y-107582673D01*
X198982863Y-107785259D01*
X199182741Y-107985137D01*
X199417773Y-108142180D01*
X199678926Y-108250353D01*
X199956165Y-108305500D01*
X200238835Y-108305500D01*
X200516074Y-108250353D01*
X200777227Y-108142180D01*
X201012259Y-107985137D01*
X201212137Y-107785259D01*
X201347500Y-107582673D01*
X201482863Y-107785259D01*
X201682741Y-107985137D01*
X201917773Y-108142180D01*
X202178926Y-108250353D01*
X202456165Y-108305500D01*
X202738835Y-108305500D01*
X203016074Y-108250353D01*
X203277227Y-108142180D01*
X203512259Y-107985137D01*
X203712137Y-107785259D01*
X203847500Y-107582673D01*
X203982863Y-107785259D01*
X204182741Y-107985137D01*
X204417773Y-108142180D01*
X204678926Y-108250353D01*
X204956165Y-108305500D01*
X205238835Y-108305500D01*
X205516074Y-108250353D01*
X205777227Y-108142180D01*
X206012259Y-107985137D01*
X206212137Y-107785259D01*
X206369180Y-107550227D01*
X206477353Y-107289074D01*
X206532500Y-107011835D01*
X206532500Y-106729165D01*
X206477353Y-106451926D01*
X206369180Y-106190773D01*
X206212137Y-105955741D01*
X206012259Y-105755863D01*
X205777227Y-105598820D01*
X205516074Y-105490647D01*
X205238835Y-105435500D01*
X204956165Y-105435500D01*
X204678926Y-105490647D01*
X204417773Y-105598820D01*
X204182741Y-105755863D01*
X203982863Y-105955741D01*
X203847500Y-106158327D01*
X203712137Y-105955741D01*
X203512259Y-105755863D01*
X203277227Y-105598820D01*
X203016074Y-105490647D01*
X202738835Y-105435500D01*
X202456165Y-105435500D01*
X202178926Y-105490647D01*
X201917773Y-105598820D01*
X201682741Y-105755863D01*
X201482863Y-105955741D01*
X201347500Y-106158327D01*
X201212137Y-105955741D01*
X201012259Y-105755863D01*
X200777227Y-105598820D01*
X200516074Y-105490647D01*
X200238835Y-105435500D01*
X199956165Y-105435500D01*
X199678926Y-105490647D01*
X199417773Y-105598820D01*
X199182741Y-105755863D01*
X198982863Y-105955741D01*
X198847500Y-106158327D01*
X198712137Y-105955741D01*
X198512259Y-105755863D01*
X198277227Y-105598820D01*
X198016074Y-105490647D01*
X197738835Y-105435500D01*
X197456165Y-105435500D01*
X197178926Y-105490647D01*
X196917773Y-105598820D01*
X196682741Y-105755863D01*
X196482863Y-105955741D01*
X196347500Y-106158327D01*
X196212137Y-105955741D01*
X196012259Y-105755863D01*
X195777227Y-105598820D01*
X195516074Y-105490647D01*
X195238835Y-105435500D01*
X194956165Y-105435500D01*
X194678926Y-105490647D01*
X194417773Y-105598820D01*
X194182741Y-105755863D01*
X193982863Y-105955741D01*
X193847500Y-106158327D01*
X193712137Y-105955741D01*
X193512259Y-105755863D01*
X193277227Y-105598820D01*
X193016074Y-105490647D01*
X192738835Y-105435500D01*
X192456165Y-105435500D01*
X192178926Y-105490647D01*
X191917773Y-105598820D01*
X191682741Y-105755863D01*
X191482863Y-105955741D01*
X191347500Y-106158327D01*
X191212137Y-105955741D01*
X191012259Y-105755863D01*
X190777227Y-105598820D01*
X190516074Y-105490647D01*
X190238835Y-105435500D01*
X189956165Y-105435500D01*
X189678926Y-105490647D01*
X189417773Y-105598820D01*
X189182741Y-105755863D01*
X188982863Y-105955741D01*
X188834136Y-106178327D01*
X188712137Y-105995741D01*
X188512259Y-105795863D01*
X188277227Y-105638820D01*
X188016074Y-105530647D01*
X187738835Y-105475500D01*
X187456165Y-105475500D01*
X187178926Y-105530647D01*
X186917773Y-105638820D01*
X186682741Y-105795863D01*
X186482863Y-105995741D01*
X186347500Y-106198327D01*
X186212137Y-105995741D01*
X186012259Y-105795863D01*
X185777227Y-105638820D01*
X185516074Y-105530647D01*
X185238835Y-105475500D01*
X184956165Y-105475500D01*
X184678926Y-105530647D01*
X184417773Y-105638820D01*
X184182741Y-105795863D01*
X183982863Y-105995741D01*
X183847500Y-106198327D01*
X183712137Y-105995741D01*
X183512259Y-105795863D01*
X183277227Y-105638820D01*
X183016074Y-105530647D01*
X182738835Y-105475500D01*
X182456165Y-105475500D01*
X182178926Y-105530647D01*
X181917773Y-105638820D01*
X181682741Y-105795863D01*
X181482863Y-105995741D01*
X181347500Y-106198327D01*
X181212137Y-105995741D01*
X181012259Y-105795863D01*
X180777227Y-105638820D01*
X180516074Y-105530647D01*
X180238835Y-105475500D01*
X179956165Y-105475500D01*
X179678926Y-105530647D01*
X179417773Y-105638820D01*
X179182741Y-105795863D01*
X178982863Y-105995741D01*
X178847500Y-106198327D01*
X178712137Y-105995741D01*
X178512259Y-105795863D01*
X178277227Y-105638820D01*
X178016074Y-105530647D01*
X177738835Y-105475500D01*
X177456165Y-105475500D01*
X177178926Y-105530647D01*
X176917773Y-105638820D01*
X176682741Y-105795863D01*
X176482863Y-105995741D01*
X176347500Y-106198327D01*
X176212137Y-105995741D01*
X176012259Y-105795863D01*
X175777227Y-105638820D01*
X175516074Y-105530647D01*
X175238835Y-105475500D01*
X174956165Y-105475500D01*
X174678926Y-105530647D01*
X174417773Y-105638820D01*
X174182741Y-105795863D01*
X173982863Y-105995741D01*
X173847500Y-106198327D01*
X173712137Y-105995741D01*
X173512259Y-105795863D01*
X173277227Y-105638820D01*
X173016074Y-105530647D01*
X172738835Y-105475500D01*
X172456165Y-105475500D01*
X172178926Y-105530647D01*
X171917773Y-105638820D01*
X171682741Y-105795863D01*
X171482863Y-105995741D01*
X171360864Y-106178327D01*
X171212137Y-105955741D01*
X171012259Y-105755863D01*
X170777227Y-105598820D01*
X170516074Y-105490647D01*
X170238835Y-105435500D01*
X169956165Y-105435500D01*
X169678926Y-105490647D01*
X169417773Y-105598820D01*
X169182741Y-105755863D01*
X168982863Y-105955741D01*
X168825820Y-106190773D01*
X168717647Y-106451926D01*
X168662500Y-106729165D01*
X156533500Y-106729165D01*
X156533500Y-106602165D01*
X156478353Y-106324926D01*
X156370180Y-106063773D01*
X156213137Y-105828741D01*
X156013259Y-105628863D01*
X155778227Y-105471820D01*
X155517074Y-105363647D01*
X155239835Y-105308500D01*
X154957165Y-105308500D01*
X154679926Y-105363647D01*
X154418773Y-105471820D01*
X154183741Y-105628863D01*
X153983863Y-105828741D01*
X153848500Y-106031327D01*
X153713137Y-105828741D01*
X153513259Y-105628863D01*
X153278227Y-105471820D01*
X153017074Y-105363647D01*
X152739835Y-105308500D01*
X152457165Y-105308500D01*
X152179926Y-105363647D01*
X151918773Y-105471820D01*
X151683741Y-105628863D01*
X151483863Y-105828741D01*
X151348500Y-106031327D01*
X151213137Y-105828741D01*
X151013259Y-105628863D01*
X150778227Y-105471820D01*
X150517074Y-105363647D01*
X150239835Y-105308500D01*
X149957165Y-105308500D01*
X149679926Y-105363647D01*
X149418773Y-105471820D01*
X149183741Y-105628863D01*
X148983863Y-105828741D01*
X148848500Y-106031327D01*
X148713137Y-105828741D01*
X148513259Y-105628863D01*
X148278227Y-105471820D01*
X148017074Y-105363647D01*
X147739835Y-105308500D01*
X147457165Y-105308500D01*
X147179926Y-105363647D01*
X146918773Y-105471820D01*
X146683741Y-105628863D01*
X146483863Y-105828741D01*
X146348500Y-106031327D01*
X146213137Y-105828741D01*
X146013259Y-105628863D01*
X145778227Y-105471820D01*
X145517074Y-105363647D01*
X145239835Y-105308500D01*
X144957165Y-105308500D01*
X144679926Y-105363647D01*
X144418773Y-105471820D01*
X144183741Y-105628863D01*
X143983863Y-105828741D01*
X143848500Y-106031327D01*
X143713137Y-105828741D01*
X143513259Y-105628863D01*
X143278227Y-105471820D01*
X143017074Y-105363647D01*
X142739835Y-105308500D01*
X142457165Y-105308500D01*
X142179926Y-105363647D01*
X141918773Y-105471820D01*
X141683741Y-105628863D01*
X141483863Y-105828741D01*
X141348500Y-106031327D01*
X141213137Y-105828741D01*
X141013259Y-105628863D01*
X140778227Y-105471820D01*
X140517074Y-105363647D01*
X140239835Y-105308500D01*
X139957165Y-105308500D01*
X139679926Y-105363647D01*
X139418773Y-105471820D01*
X139183741Y-105628863D01*
X138983863Y-105828741D01*
X138835136Y-106051327D01*
X138713137Y-105868741D01*
X138513259Y-105668863D01*
X138278227Y-105511820D01*
X138017074Y-105403647D01*
X137739835Y-105348500D01*
X137457165Y-105348500D01*
X137179926Y-105403647D01*
X136918773Y-105511820D01*
X136683741Y-105668863D01*
X136483863Y-105868741D01*
X136348500Y-106071327D01*
X136213137Y-105868741D01*
X136013259Y-105668863D01*
X135778227Y-105511820D01*
X135517074Y-105403647D01*
X135239835Y-105348500D01*
X134957165Y-105348500D01*
X134679926Y-105403647D01*
X134418773Y-105511820D01*
X134183741Y-105668863D01*
X133983863Y-105868741D01*
X133848500Y-106071327D01*
X133713137Y-105868741D01*
X133513259Y-105668863D01*
X133278227Y-105511820D01*
X133017074Y-105403647D01*
X132739835Y-105348500D01*
X132457165Y-105348500D01*
X132179926Y-105403647D01*
X131918773Y-105511820D01*
X131683741Y-105668863D01*
X131483863Y-105868741D01*
X131348500Y-106071327D01*
X131213137Y-105868741D01*
X131013259Y-105668863D01*
X130778227Y-105511820D01*
X130517074Y-105403647D01*
X130239835Y-105348500D01*
X129957165Y-105348500D01*
X129679926Y-105403647D01*
X129418773Y-105511820D01*
X129183741Y-105668863D01*
X128983863Y-105868741D01*
X128848500Y-106071327D01*
X128713137Y-105868741D01*
X128513259Y-105668863D01*
X128278227Y-105511820D01*
X128017074Y-105403647D01*
X127739835Y-105348500D01*
X127457165Y-105348500D01*
X127179926Y-105403647D01*
X126918773Y-105511820D01*
X126683741Y-105668863D01*
X126483863Y-105868741D01*
X126348500Y-106071327D01*
X126213137Y-105868741D01*
X126013259Y-105668863D01*
X125778227Y-105511820D01*
X125517074Y-105403647D01*
X125239835Y-105348500D01*
X124957165Y-105348500D01*
X124679926Y-105403647D01*
X124418773Y-105511820D01*
X124183741Y-105668863D01*
X123983863Y-105868741D01*
X123848500Y-106071327D01*
X123713137Y-105868741D01*
X123513259Y-105668863D01*
X123278227Y-105511820D01*
X123017074Y-105403647D01*
X122739835Y-105348500D01*
X122457165Y-105348500D01*
X122179926Y-105403647D01*
X121918773Y-105511820D01*
X121683741Y-105668863D01*
X121483863Y-105868741D01*
X121361864Y-106051327D01*
X121213137Y-105828741D01*
X121013259Y-105628863D01*
X120778227Y-105471820D01*
X120517074Y-105363647D01*
X120239835Y-105308500D01*
X119957165Y-105308500D01*
X119679926Y-105363647D01*
X119418773Y-105471820D01*
X119183741Y-105628863D01*
X118983863Y-105828741D01*
X118826820Y-106063773D01*
X118718647Y-106324926D01*
X118663500Y-106602165D01*
X114747040Y-106602165D01*
X114747040Y-104104440D01*
X114744600Y-104079664D01*
X114743137Y-104073960D01*
X209443320Y-104073960D01*
X209443320Y-148107400D01*
M02*
