G04 #@! TF.GenerationSoftware,KiCad,Pcbnew,(5.1.5)-3*
G04 #@! TF.CreationDate,2020-05-15T10:40:35-04:00*
G04 #@! TF.ProjectId,dmf_relay_board,646d665f-7265-46c6-9179-5f626f617264,rev?*
G04 #@! TF.SameCoordinates,Original*
G04 #@! TF.FileFunction,Legend,Top*
G04 #@! TF.FilePolarity,Positive*
%FSLAX46Y46*%
G04 Gerber Fmt 4.6, Leading zero omitted, Abs format (unit mm)*
G04 Created by KiCad (PCBNEW (5.1.5)-3) date 2020-05-15 10:40:35*
%MOMM*%
%LPD*%
G04 APERTURE LIST*
%ADD10C,0.120000*%
%ADD11C,0.150000*%
%ADD12C,0.152400*%
G04 APERTURE END LIST*
D10*
X111973500Y-100159540D02*
X211973500Y-100159540D01*
D11*
X163817000Y-122463000D02*
X163817000Y-122813000D01*
X178067000Y-122463000D02*
X178067000Y-122913000D01*
X178067000Y-142713000D02*
X178067000Y-142263000D01*
X163817000Y-142713000D02*
X163817000Y-142263000D01*
X163817000Y-122463000D02*
X164467000Y-122463000D01*
X163817000Y-142713000D02*
X164467000Y-142713000D01*
X178067000Y-142713000D02*
X177417000Y-142713000D01*
X178067000Y-122463000D02*
X177417000Y-122463000D01*
X163817000Y-122813000D02*
X162142000Y-122813000D01*
D10*
X208747500Y-114310500D02*
X208747500Y-104510500D01*
X165197500Y-114310500D02*
X165197500Y-104510500D01*
X165197500Y-114310500D02*
X208747500Y-114310500D01*
X208747500Y-104510500D02*
X165197500Y-104510500D01*
D11*
X210340500Y-105346500D02*
G75*
G03X210340500Y-105346500I-508000J0D01*
G01*
X207292500Y-105854500D02*
G75*
G03X207292500Y-105854500I-508000J0D01*
G01*
D10*
X207800500Y-104510500D02*
X207800500Y-103822500D01*
X207800500Y-103822500D02*
X166144500Y-103822500D01*
X166144500Y-103822500D02*
X166144500Y-104510500D01*
X158748500Y-114183500D02*
X158748500Y-104383500D01*
X115198500Y-114183500D02*
X115198500Y-104383500D01*
X115198500Y-114183500D02*
X158748500Y-114183500D01*
X158748500Y-104383500D02*
X115198500Y-104383500D01*
D11*
X160341500Y-105219500D02*
G75*
G03X160341500Y-105219500I-508000J0D01*
G01*
X157293500Y-105727500D02*
G75*
G03X157293500Y-105727500I-508000J0D01*
G01*
D10*
X157801500Y-104383500D02*
X157801500Y-103695500D01*
X157801500Y-103695500D02*
X116145500Y-103695500D01*
X116145500Y-103695500D02*
X116145500Y-104383500D01*
X150177500Y-132334000D02*
X152717500Y-132334000D01*
X152717500Y-132334000D02*
X152717500Y-129664000D01*
X150177500Y-129664000D02*
X111947500Y-129664000D01*
X155387500Y-129664000D02*
X152717500Y-129664000D01*
X152717500Y-145034000D02*
X152717500Y-147704000D01*
X152717500Y-145034000D02*
X114617500Y-145034000D01*
X114617500Y-145034000D02*
X114617500Y-147704000D01*
X150177500Y-132334000D02*
X150177500Y-129664000D01*
X150177500Y-132334000D02*
X114617500Y-132334000D01*
X114617500Y-132334000D02*
X114617500Y-129664000D01*
X111947500Y-129664000D02*
X111947500Y-147704000D01*
X111947500Y-147704000D02*
X155387500Y-147704000D01*
X155387500Y-147704000D02*
X155387500Y-129664000D01*
X128087501Y-123251542D02*
G75*
G03X133687500Y-124893012I3039999J-1958D01*
G01*
X128087501Y-123255458D02*
G75*
G02X133687500Y-121613988I3039999J1958D01*
G01*
X133627500Y-123253500D02*
G75*
G03X133627500Y-123253500I-2500000J0D01*
G01*
X133687500Y-124893500D02*
X133687500Y-121613500D01*
D12*
X188409580Y-145000980D02*
G75*
G03X188409580Y-145000980I-381000J0D01*
G01*
X188917580Y-140784580D02*
X188917580Y-149217380D01*
X199331580Y-140784580D02*
X188917580Y-140784580D01*
X199331580Y-149217380D02*
X199331580Y-140784580D01*
X188917580Y-149217380D02*
X199331580Y-149217380D01*
D10*
X123141500Y-124300500D02*
X123141500Y-122460500D01*
X123141500Y-122460500D02*
X119301500Y-122460500D01*
X119301500Y-122460500D02*
X119301500Y-124300500D01*
X119301500Y-124300500D02*
X123141500Y-124300500D01*
X124091500Y-123380500D02*
X123141500Y-123380500D01*
X118351500Y-123380500D02*
X119301500Y-123380500D01*
D11*
X203158556Y-67293420D02*
X203158556Y-66293420D01*
X203491889Y-67007706D01*
X203825222Y-66293420D01*
X203825222Y-67293420D01*
X204729984Y-66626754D02*
X204729984Y-67293420D01*
X204491889Y-66245801D02*
X204253794Y-66960087D01*
X204872841Y-66960087D01*
X119166376Y-67293420D02*
X119166376Y-66293420D01*
X119499709Y-67007706D01*
X119833042Y-66293420D01*
X119833042Y-67293420D01*
X120213995Y-66293420D02*
X120833042Y-66293420D01*
X120499709Y-66674373D01*
X120642566Y-66674373D01*
X120737804Y-66721992D01*
X120785423Y-66769611D01*
X120833042Y-66864849D01*
X120833042Y-67102944D01*
X120785423Y-67198182D01*
X120737804Y-67245801D01*
X120642566Y-67293420D01*
X120356852Y-67293420D01*
X120261614Y-67245801D01*
X120213995Y-67198182D01*
X117163976Y-134788380D02*
X117163976Y-133788380D01*
X117497309Y-134502666D01*
X117830642Y-133788380D01*
X117830642Y-134788380D01*
X118783023Y-133788380D02*
X118306833Y-133788380D01*
X118259214Y-134264571D01*
X118306833Y-134216952D01*
X118402071Y-134169333D01*
X118640166Y-134169333D01*
X118735404Y-134216952D01*
X118783023Y-134264571D01*
X118830642Y-134359809D01*
X118830642Y-134597904D01*
X118783023Y-134693142D01*
X118735404Y-134740761D01*
X118640166Y-134788380D01*
X118402071Y-134788380D01*
X118306833Y-134740761D01*
X118259214Y-134693142D01*
X205163976Y-140788380D02*
X205163976Y-139788380D01*
X205497309Y-140502666D01*
X205830642Y-139788380D01*
X205830642Y-140788380D01*
X206735404Y-139788380D02*
X206544928Y-139788380D01*
X206449690Y-139836000D01*
X206402071Y-139883619D01*
X206306833Y-140026476D01*
X206259214Y-140216952D01*
X206259214Y-140597904D01*
X206306833Y-140693142D01*
X206354452Y-140740761D01*
X206449690Y-140788380D01*
X206640166Y-140788380D01*
X206735404Y-140740761D01*
X206783023Y-140693142D01*
X206830642Y-140597904D01*
X206830642Y-140359809D01*
X206783023Y-140264571D01*
X206735404Y-140216952D01*
X206640166Y-140169333D01*
X206449690Y-140169333D01*
X206354452Y-140216952D01*
X206306833Y-140264571D01*
X206259214Y-140359809D01*
X119166376Y-55293420D02*
X119166376Y-54293420D01*
X119499709Y-55007706D01*
X119833042Y-54293420D01*
X119833042Y-55293420D01*
X120833042Y-55293420D02*
X120261614Y-55293420D01*
X120547328Y-55293420D02*
X120547328Y-54293420D01*
X120452090Y-54436278D01*
X120356852Y-54531516D01*
X120261614Y-54579135D01*
X203158556Y-55293420D02*
X203158556Y-54293420D01*
X203491889Y-55007706D01*
X203825222Y-54293420D01*
X203825222Y-55293420D01*
X204253794Y-54388659D02*
X204301413Y-54341040D01*
X204396651Y-54293420D01*
X204634746Y-54293420D01*
X204729984Y-54341040D01*
X204777603Y-54388659D01*
X204825222Y-54483897D01*
X204825222Y-54579135D01*
X204777603Y-54721992D01*
X204206175Y-55293420D01*
X204825222Y-55293420D01*
X170180095Y-119240380D02*
X170180095Y-120049904D01*
X170227714Y-120145142D01*
X170275333Y-120192761D01*
X170370571Y-120240380D01*
X170561047Y-120240380D01*
X170656285Y-120192761D01*
X170703904Y-120145142D01*
X170751523Y-120049904D01*
X170751523Y-119240380D01*
X171751523Y-120240380D02*
X171180095Y-120240380D01*
X171465809Y-120240380D02*
X171465809Y-119240380D01*
X171370571Y-119383238D01*
X171275333Y-119478476D01*
X171180095Y-119526095D01*
X186639166Y-115974880D02*
X186639166Y-116689166D01*
X186591547Y-116832023D01*
X186496309Y-116927261D01*
X186353452Y-116974880D01*
X186258214Y-116974880D01*
X187067738Y-116070119D02*
X187115357Y-116022500D01*
X187210595Y-115974880D01*
X187448690Y-115974880D01*
X187543928Y-116022500D01*
X187591547Y-116070119D01*
X187639166Y-116165357D01*
X187639166Y-116260595D01*
X187591547Y-116403452D01*
X187020119Y-116974880D01*
X187639166Y-116974880D01*
X205640166Y-133988071D02*
X205306833Y-133988071D01*
X205306833Y-134511880D02*
X205306833Y-133511880D01*
X205783023Y-133511880D01*
X206687785Y-134511880D02*
X206116357Y-134511880D01*
X206402071Y-134511880D02*
X206402071Y-133511880D01*
X206306833Y-133654738D01*
X206211595Y-133749976D01*
X206116357Y-133797595D01*
X136640166Y-115847880D02*
X136640166Y-116562166D01*
X136592547Y-116705023D01*
X136497309Y-116800261D01*
X136354452Y-116847880D01*
X136259214Y-116847880D01*
X137021119Y-115847880D02*
X137640166Y-115847880D01*
X137306833Y-116228833D01*
X137449690Y-116228833D01*
X137544928Y-116276452D01*
X137592547Y-116324071D01*
X137640166Y-116419309D01*
X137640166Y-116657404D01*
X137592547Y-116752642D01*
X137544928Y-116800261D01*
X137449690Y-116847880D01*
X137163976Y-116847880D01*
X137068738Y-116800261D01*
X137021119Y-116752642D01*
X156694166Y-139398285D02*
X156694166Y-138922095D01*
X156979880Y-139493523D02*
X155979880Y-139160190D01*
X156979880Y-138826857D01*
X156979880Y-137969714D02*
X156979880Y-138541142D01*
X156979880Y-138255428D02*
X155979880Y-138255428D01*
X156122738Y-138350666D01*
X156217976Y-138445904D01*
X156265595Y-138541142D01*
X130389404Y-127715880D02*
X130389404Y-126715880D01*
X130627500Y-126715880D01*
X130770357Y-126763500D01*
X130865595Y-126858738D01*
X130913214Y-126953976D01*
X130960833Y-127144452D01*
X130960833Y-127287309D01*
X130913214Y-127477785D01*
X130865595Y-127573023D01*
X130770357Y-127668261D01*
X130627500Y-127715880D01*
X130389404Y-127715880D01*
X131913214Y-127715880D02*
X131341785Y-127715880D01*
X131627500Y-127715880D02*
X131627500Y-126715880D01*
X131532261Y-126858738D01*
X131437023Y-126953976D01*
X131341785Y-127001595D01*
X200382546Y-147133060D02*
X200382546Y-147847346D01*
X200334927Y-147990203D01*
X200239689Y-148085441D01*
X200096832Y-148133060D01*
X200001594Y-148133060D01*
X201382546Y-148133060D02*
X200811118Y-148133060D01*
X201096832Y-148133060D02*
X201096832Y-147133060D01*
X201001594Y-147275918D01*
X200906356Y-147371156D01*
X200811118Y-147418775D01*
X192942103Y-139865360D02*
X192942103Y-138865360D01*
X192942103Y-139341551D02*
X193513532Y-139341551D01*
X193513532Y-139865360D02*
X193513532Y-138865360D01*
X193846865Y-138865360D02*
X194180199Y-139865360D01*
X194513532Y-138865360D01*
X194846865Y-139865360D02*
X194846865Y-138865360D01*
X195227818Y-138865360D01*
X195323056Y-138912980D01*
X195370675Y-138960599D01*
X195418294Y-139055837D01*
X195418294Y-139198694D01*
X195370675Y-139293932D01*
X195323056Y-139341551D01*
X195227818Y-139389170D01*
X194846865Y-139389170D01*
X195799246Y-139817741D02*
X195942103Y-139865360D01*
X196180199Y-139865360D01*
X196275437Y-139817741D01*
X196323056Y-139770122D01*
X196370675Y-139674884D01*
X196370675Y-139579646D01*
X196323056Y-139484408D01*
X196275437Y-139436789D01*
X196180199Y-139389170D01*
X195989722Y-139341551D01*
X195894484Y-139293932D01*
X195846865Y-139246313D01*
X195799246Y-139151075D01*
X195799246Y-139055837D01*
X195846865Y-138960599D01*
X195894484Y-138912980D01*
X195989722Y-138865360D01*
X196227818Y-138865360D01*
X196370675Y-138912980D01*
X121054833Y-125752880D02*
X120721500Y-125276690D01*
X120483404Y-125752880D02*
X120483404Y-124752880D01*
X120864357Y-124752880D01*
X120959595Y-124800500D01*
X121007214Y-124848119D01*
X121054833Y-124943357D01*
X121054833Y-125086214D01*
X121007214Y-125181452D01*
X120959595Y-125229071D01*
X120864357Y-125276690D01*
X120483404Y-125276690D01*
X122007214Y-125752880D02*
X121435785Y-125752880D01*
X121721500Y-125752880D02*
X121721500Y-124752880D01*
X121626261Y-124895738D01*
X121531023Y-124990976D01*
X121435785Y-125038595D01*
M02*
