M48
INCH,TZ
T10C0.126
T11C0.012
T12C0.028
T13C0.032
T14C0.035
T15C0.050
%
T10
X081092Y-56904
X080302Y-23245
X046446Y-54542
X047235Y-27969
X047235Y-23245
X080302Y-27969
T11
X062169Y-51667
X062174Y-51200
X062191Y-50744
X062204Y-49810
X062207Y-50287
X062228Y-49361
X063050Y-49178
X063051Y-48764
X063052Y-49592
X063076Y-48316
X064025Y-57425
X066292Y-52990
X066620Y-53346
X066954Y-52093
X067294Y-53308
X067521Y-46148
X067628Y-52130
X067963Y-53294
X068328Y-52143
X068330Y-55336
X068475Y-57800
X072884Y-52338
X072919Y-53598
X072931Y-54857
X074555Y-54188
X074567Y-52928
X058579Y-24728
X058579Y-24728
X066476Y-27231
X066476Y-27231
X059344Y-21665
X059344Y-21665
X067741Y-22025
X067741Y-22025
X061062Y-27231
X061062Y-27231
X063228Y-25065
X063228Y-25065
X060110Y-23962
X060110Y-23962
X066476Y-23983
X066476Y-23983
X059344Y-24728
X059344Y-24728
X060110Y-21665
X060110Y-21665
X058579Y-23196
X058579Y-23196
X067741Y-25088
X067741Y-25088
X060110Y-24728
X060110Y-24728
X063228Y-26148
X063228Y-26148
X066476Y-22900
X066476Y-22900
X060110Y-25494
X060110Y-25494
X061062Y-23983
X061062Y-23983
X065393Y-27231
X065393Y-27231
X059344Y-22431
X059344Y-22431
X064310Y-27231
X064310Y-27231
X066476Y-26148
X066476Y-26148
X065393Y-25065
X065393Y-25065
X069272Y-23556
X069272Y-23556
X066476Y-25065
X066476Y-25065
X062145Y-23983
X062145Y-23983
X061062Y-22900
X061062Y-22900
X058579Y-25494
X058579Y-25494
X058579Y-23962
X058579Y-23962
X059344Y-23196
X059344Y-23196
X069272Y-25088
X069272Y-25088
X065393Y-22900
X065393Y-22900
X060110Y-22431
X060110Y-22431
X062145Y-25065
X062145Y-25065
X063228Y-23983
X063228Y-23983
X062145Y-22900
X062145Y-22900
X061062Y-21817
X061062Y-21817
X062145Y-21817
X062145Y-21817
X063228Y-21817
X063228Y-21817
X059344Y-25494
X059344Y-25494
X067741Y-23556
X067741Y-23556
X061062Y-26148
X061062Y-26148
X062145Y-27231
X062145Y-27231
X064310Y-26148
X064310Y-26148
X064310Y-22900
X064310Y-22900
X063228Y-22900
X063228Y-22900
X065393Y-21817
X065393Y-21817
X059344Y-23962
X059344Y-23962
X058579Y-21665
X058579Y-21665
X064310Y-23983
X064310Y-23983
X069272Y-22025
X069272Y-22025
X064310Y-25065
X064310Y-25065
X065393Y-26148
X065393Y-26148
X065393Y-23983
X065393Y-23983
X066476Y-21817
X066476Y-21817
X063228Y-27231
X063228Y-27231
X058579Y-22431
X058579Y-22431
X062145Y-26148
X062145Y-26148
X061062Y-25065
X061062Y-25065
X060110Y-23196
X060110Y-23196
X064310Y-21817
X064310Y-21817
T12
X046225Y-48575
X049225Y-48575
T13
X046763Y-35445
X047255Y-37445
X047747Y-35445
X048239Y-37430
X048731Y-35445
X049223Y-37430
X049716Y-35445
X050208Y-37430
X050700Y-35445
X051192Y-37430
X051684Y-35445
X052176Y-37430
X052668Y-35461
X053160Y-37430
X053653Y-35461
X054145Y-37430
X054637Y-35461
X055129Y-37445
X055621Y-35461
X056113Y-37445
X056605Y-35461
X057097Y-37445
X057590Y-35461
X058082Y-37445
X058574Y-35461
X059066Y-37445
X059558Y-35461
X060050Y-37445
X060542Y-35461
X061034Y-37445
X046791Y-44025
X047283Y-42025
X047775Y-44025
X048267Y-42041
X048759Y-44025
X049251Y-42041
X049744Y-44025
X050236Y-42041
X050728Y-44025
X051220Y-42041
X051712Y-44025
X052204Y-42041
X052696Y-44009
X053188Y-42041
X053681Y-44009
X054173Y-42041
X054665Y-44009
X055157Y-42025
X055649Y-44009
X056141Y-42025
X056633Y-44009
X057125Y-42025
X057618Y-44009
X058110Y-42025
X058602Y-44009
X059094Y-42025
X059586Y-44009
X060078Y-42025
X060570Y-44009
X061062Y-42025
X066447Y-35495
X066940Y-37495
X067432Y-35495
X067924Y-37480
X068416Y-35495
X068908Y-37480
X069400Y-35495
X069892Y-37480
X070384Y-35495
X070877Y-37480
X071369Y-35495
X071861Y-37480
X072353Y-35511
X072845Y-37480
X073337Y-35511
X073829Y-37480
X074321Y-35511
X074814Y-37495
X075306Y-35511
X075798Y-37495
X076290Y-35511
X076782Y-37495
X077274Y-35511
X077766Y-37495
X078258Y-35511
X078751Y-37495
X079243Y-35511
X079735Y-37495
X080227Y-35511
X080719Y-37495
X045625Y-51600
X045625Y-57600
X046625Y-51600
X046625Y-57600
X047625Y-51600
X047625Y-57600
X048625Y-51600
X048625Y-57600
X049625Y-51600
X049625Y-57600
X050625Y-51600
X050625Y-57600
X051625Y-51600
X051625Y-57600
X052625Y-51600
X052625Y-57600
X053625Y-51600
X053625Y-57600
X054625Y-51600
X054625Y-57600
X055625Y-51600
X055625Y-57600
X056625Y-51600
X056625Y-57600
X057625Y-51600
X057625Y-57600
X058625Y-51600
X058625Y-57600
X059625Y-51600
X059625Y-57600
X066475Y-44075
X066968Y-42075
X067460Y-44075
X067952Y-42091
X068444Y-44075
X068936Y-42091
X069428Y-44075
X069920Y-42091
X070412Y-44075
X070905Y-42091
X071397Y-44075
X071889Y-42091
X072381Y-44059
X072873Y-42091
X073365Y-44059
X073857Y-42091
X074349Y-44059
X074842Y-42075
X075334Y-44059
X075826Y-42075
X076318Y-44059
X076810Y-42075
X077302Y-44059
X077794Y-42075
X078286Y-44059
X078779Y-42075
X079271Y-44059
X079763Y-42075
X080255Y-44059
X080747Y-42075
T14
X051125Y-48525
X052125Y-48525
T15
X075427Y-57087
X077427Y-57087
M30

